<?xml version="1.0" encoding="UTF-8" standalone="no"?>
<!DOCTYPE svg PUBLIC "-//W3C//DTD SVG 1.1//EN"
 "http://www.w3.org/Graphics/SVG/1.1/DTD/svg11.dtd">
<!-- Generated by graphviz version 2.30.1 (20130404.1610)
 -->
<!-- Title: Clock::getResolution Pages: 1 -->
<svg width="280pt" height="91pt"
 viewBox="0.00 0.00 280.00 91.00" xmlns="http://www.w3.org/2000/svg" xmlns:xlink="http://www.w3.org/1999/xlink">
<g id="graph0" class="graph" transform="scale(1 1) rotate(0) translate(4 87)">
<title>Clock::getResolution</title>
<!-- Node1 -->
<g id="node1" class="node"><title>Node1</title>
<polygon fill="#bfbfbf" stroke="black" points="0.1585,-31 0.1585,-51 107.841,-51 107.841,-31 0.1585,-31"/>
<text text-anchor="middle" x="54" y="-38" font-family="Helvetica,sans-Serif" font-size="10.00">Clock::getResolution</text>
</g>
<!-- Node2 -->
<g id="node2" class="node"><title>Node2</title>
<g id="a_node2"><a xlink:href="classframe__resolution.html#a91d9a162aa93265c52059b72a189ca4c" target="_top" xlink:title="frame_resolution::frame\l_resolution">
<polygon fill="none" stroke="black" points="147.216,-51 147.216,-83 268.784,-83 268.784,-51 147.216,-51"/>
<text text-anchor="start" x="155.216" y="-70" font-family="Helvetica,sans-Serif" font-size="10.00">frame_resolution::frame</text>
<text text-anchor="middle" x="208" y="-58" font-family="Helvetica,sans-Serif" font-size="10.00">_resolution</text>
</a>
</g>
</g>
<!-- Node1&#45;&gt;Node2 -->
<g id="edge1" class="edge"><title>Node1&#45;&gt;Node2</title>
<path fill="none" stroke="midnightblue" d="M118.053,-51.7853C127.668,-53.43 137.568,-55.1235 147.113,-56.7562"/>
<polygon fill="midnightblue" stroke="midnightblue" points="118.609,-48.3298 108.162,-50.0935 117.429,-55.2296 118.609,-48.3298"/>
</g>
<!-- Node3 -->
<g id="node3" class="node"><title>Node3</title>
<g id="a_node3"><a xlink:href="classframe__resolution.html#a02c151b13bab07dbe90bf52e9881a486" target="_top" xlink:title="frame_resolution::update\lResolution">
<polygon fill="none" stroke="black" points="144.707,-0 144.707,-32 271.293,-32 271.293,-0 144.707,-0"/>
<text text-anchor="start" x="152.707" y="-19" font-family="Helvetica,sans-Serif" font-size="10.00">frame_resolution::update</text>
<text text-anchor="middle" x="208" y="-7" font-family="Helvetica,sans-Serif" font-size="10.00">Resolution</text>
</a>
</g>
</g>
<!-- Node1&#45;&gt;Node3 -->
<g id="edge2" class="edge"><title>Node1&#45;&gt;Node3</title>
<path fill="none" stroke="midnightblue" d="M118.22,-30.602C126.901,-29.1742 135.811,-27.7086 144.48,-26.2829"/>
<polygon fill="midnightblue" stroke="midnightblue" points="117.462,-27.1796 108.162,-32.2562 118.598,-34.0868 117.462,-27.1796"/>
</g>
</g>
</svg>
