<?xml version="1.0" encoding="UTF-8" standalone="no"?>
<!DOCTYPE svg PUBLIC "-//W3C//DTD SVG 1.1//EN"
 "http://www.w3.org/Graphics/SVG/1.1/DTD/svg11.dtd">
<!-- Generated by graphviz version 2.30.1 (20130404.1610)
 -->
<!-- Title: FIFO::size Pages: 1 -->
<svg width="348pt" height="40pt"
 viewBox="0.00 0.00 348.00 40.00" xmlns="http://www.w3.org/2000/svg" xmlns:xlink="http://www.w3.org/1999/xlink">
<g id="graph0" class="graph" transform="scale(1 1) rotate(0) translate(4 36)">
<title>FIFO::size</title>
<!-- Node1 -->
<g id="node1" class="node"><title>Node1</title>
<polygon fill="#bfbfbf" stroke="black" points="-0.056,-6 -0.056,-26 62.056,-26 62.056,-6 -0.056,-6"/>
<text text-anchor="middle" x="31" y="-13" font-family="Helvetica,sans-Serif" font-size="10.00">FIFO::size</text>
</g>
<!-- Node2 -->
<g id="node2" class="node"><title>Node2</title>
<g id="a_node2"><a xlink:href="class_partition.html#aeb39bcc732a88f06288b38e1b1c29978" target="_top" xlink:title="Partition::utilization\l_weighted">
<polygon fill="none" stroke="black" points="98.0505,-0 98.0505,-32 197.95,-32 197.95,-0 98.0505,-0"/>
<text text-anchor="start" x="106.05" y="-19" font-family="Helvetica,sans-Serif" font-size="10.00">Partition::utilization</text>
<text text-anchor="middle" x="148" y="-7" font-family="Helvetica,sans-Serif" font-size="10.00">_weighted</text>
</a>
</g>
</g>
<!-- Node1&#45;&gt;Node2 -->
<g id="edge1" class="edge"><title>Node1&#45;&gt;Node2</title>
<path fill="none" stroke="midnightblue" d="M72.3285,-16C80.5779,-16 89.3465,-16 97.8648,-16"/>
<polygon fill="midnightblue" stroke="midnightblue" points="72.2149,-12.5001 62.2149,-16 72.2149,-19.5001 72.2149,-12.5001"/>
</g>
<!-- Node3 -->
<g id="node3" class="node"><title>Node3</title>
<g id="a_node3"><a xlink:href="classpool__schedule.html#ab67558a44404e42ba032f799c0f424a7" target="_top" xlink:title="pool_schedule::start">
<polygon fill="none" stroke="black" points="234.263,-6 234.263,-26 339.736,-26 339.736,-6 234.263,-6"/>
<text text-anchor="middle" x="287" y="-13" font-family="Helvetica,sans-Serif" font-size="10.00">pool_schedule::start</text>
</a>
</g>
</g>
<!-- Node2&#45;&gt;Node3 -->
<g id="edge2" class="edge"><title>Node2&#45;&gt;Node3</title>
<path fill="none" stroke="midnightblue" d="M208.081,-16C216.714,-16 225.551,-16 234.029,-16"/>
<polygon fill="midnightblue" stroke="midnightblue" points="208.073,-12.5001 198.073,-16 208.073,-19.5001 208.073,-12.5001"/>
</g>
</g>
</svg>
