<?xml version="1.0" encoding="UTF-8" standalone="no"?>
<!DOCTYPE svg PUBLIC "-//W3C//DTD SVG 1.1//EN"
 "http://www.w3.org/Graphics/SVG/1.1/DTD/svg11.dtd">
<!-- Generated by graphviz version 2.30.1 (20130404.1610)
 -->
<!-- Title: raft::kernel Pages: 1 -->
<svg width="198pt" height="224pt"
 viewBox="0.00 0.00 198.00 224.07" xmlns="http://www.w3.org/2000/svg" xmlns:xlink="http://www.w3.org/1999/xlink">
<g id="graph0" class="graph" transform="scale(1 1) rotate(0) translate(4 220.075)">
<title>raft::kernel</title>
<!-- Node1 -->
<g id="node1" class="node"><title>Node1</title>
<polygon fill="#bfbfbf" stroke="black" points="0.3855,-117 0.3855,-137 63.6145,-137 63.6145,-117 0.3855,-117"/>
<text text-anchor="middle" x="32" y="-124" font-family="Helvetica,sans-Serif" font-size="10.00">raft::kernel</text>
</g>
<!-- Node2 -->
<g id="node2" class="node"><title>Node2</title>
<g id="a_node2"><a xlink:href="class_generate.html" target="_top" xlink:title="Generate\&lt; T \&gt;">
<polygon fill="none" stroke="black" points="104.487,-195 104.487,-215 185.513,-215 185.513,-195 104.487,-195"/>
<text text-anchor="middle" x="145" y="-202" font-family="Helvetica,sans-Serif" font-size="10.00">Generate&lt; T &gt;</text>
</a>
</g>
</g>
<!-- Node1&#45;&gt;Node2 -->
<g id="edge1" class="edge"><title>Node1&#45;&gt;Node2</title>
<path fill="none" stroke="midnightblue" d="M68.228,-143.45C78.0691,-151.306 89.0718,-159.994 100,-167 114.269,-176.148 133.415,-183.312 140.857,-194.77"/>
<polygon fill="midnightblue" stroke="midnightblue" points="70.2637,-140.597 60.262,-137.102 65.9012,-146.071 70.2637,-140.597"/>
</g>
<!-- Node1&#45;&gt;Node2 -->
<g id="edge2" class="edge"><title>Node1&#45;&gt;Node2</title>
<path fill="none" stroke="midnightblue" d="M49.9651,-144.132C62.8907,-156.552 81.5516,-173.173 100,-185 105.793,-188.713 112.389,-192.1 118.679,-194.988"/>
<polygon fill="midnightblue" stroke="midnightblue" points="52.3031,-141.523 42.7114,-137.023 47.4033,-146.522 52.3031,-141.523"/>
</g>
<!-- Node1&#45;&gt;Node2 -->
<g id="edge3" class="edge"><title>Node1&#45;&gt;Node2</title>
<path fill="none" stroke="midnightblue" d="M40.4415,-146.156C52.2268,-164.678 76.2888,-187.799 100,-203 112.15,-210.789 127.836,-217.14 136.821,-215.01"/>
<polygon fill="midnightblue" stroke="midnightblue" points="43.4342,-144.333 35.5803,-137.222 37.2855,-147.678 43.4342,-144.333"/>
</g>
<!-- Node3 -->
<g id="node3" class="node"><title>Node3</title>
<g id="a_node3"><a xlink:href="classprint.html" target="_top" xlink:title="print\&lt; T \&gt;">
<polygon fill="none" stroke="black" points="115.605,-156 115.605,-176 174.395,-176 174.395,-156 115.605,-156"/>
<text text-anchor="middle" x="145" y="-163" font-family="Helvetica,sans-Serif" font-size="10.00">print&lt; T &gt;</text>
</a>
</g>
</g>
<!-- Node1&#45;&gt;Node3 -->
<g id="edge4" class="edge"><title>Node1&#45;&gt;Node3</title>
<path fill="none" stroke="midnightblue" d="M73.1978,-134.607C92.645,-140.832 114.811,-149.199 129.082,-155.977"/>
<polygon fill="midnightblue" stroke="midnightblue" points="74.2125,-131.257 63.6251,-131.653 72.1484,-137.946 74.2125,-131.257"/>
</g>
<!-- Node1&#45;&gt;Node3 -->
<g id="edge5" class="edge"><title>Node1&#45;&gt;Node3</title>
<path fill="none" stroke="midnightblue" d="M57.2532,-141.213C74.3032,-148.502 97.1894,-156.647 115.173,-161.875"/>
<polygon fill="midnightblue" stroke="midnightblue" points="58.5265,-137.948 47.97,-137.048 55.6614,-144.335 58.5265,-137.948"/>
</g>
<!-- Node4 -->
<g id="node4" class="node"><title>Node4</title>
<g id="a_node4"><a xlink:href="class_print.html" target="_top" xlink:title="Print\&lt; T, delim \&gt;">
<polygon fill="none" stroke="black" points="100.328,-117 100.328,-137 189.672,-137 189.672,-117 100.328,-117"/>
<text text-anchor="middle" x="145" y="-124" font-family="Helvetica,sans-Serif" font-size="10.00">Print&lt; T, delim &gt;</text>
</a>
</g>
</g>
<!-- Node1&#45;&gt;Node4 -->
<g id="edge6" class="edge"><title>Node1&#45;&gt;Node4</title>
<path fill="none" stroke="midnightblue" d="M73.7925,-127C82.384,-127 91.4822,-127 100.18,-127"/>
<polygon fill="midnightblue" stroke="midnightblue" points="73.6251,-123.5 63.6251,-127 73.625,-130.5 73.6251,-123.5"/>
</g>
<!-- Node5 -->
<g id="node5" class="node"><title>Node5</title>
<g id="a_node5"><a xlink:href="classraft_1_1parallel__k.html" target="_top" xlink:title="raft::parallel_k">
<polygon fill="none" stroke="black" points="105.608,-78 105.608,-98 184.392,-98 184.392,-78 105.608,-78"/>
<text text-anchor="middle" x="145" y="-85" font-family="Helvetica,sans-Serif" font-size="10.00">raft::parallel_k</text>
</a>
</g>
</g>
<!-- Node1&#45;&gt;Node5 -->
<g id="edge7" class="edge"><title>Node1&#45;&gt;Node5</title>
<path fill="none" stroke="midnightblue" d="M71.2972,-113.544C85.8079,-108.446 102.06,-102.736 115.512,-98.0094"/>
<polygon fill="midnightblue" stroke="midnightblue" points="69.8596,-110.339 61.5853,-116.957 72.1801,-116.944 69.8596,-110.339"/>
</g>
<!-- Node6 -->
<g id="node6" class="node"><title>Node6</title>
<g id="a_node6"><a xlink:href="classsum.html" target="_top" xlink:title="sum\&lt; A, B, C \&gt;">
<polygon fill="none" stroke="black" points="103.102,-39 103.102,-59 186.898,-59 186.898,-39 103.102,-39"/>
<text text-anchor="middle" x="145" y="-46" font-family="Helvetica,sans-Serif" font-size="10.00">sum&lt; A, B, C &gt;</text>
</a>
</g>
</g>
<!-- Node1&#45;&gt;Node6 -->
<g id="edge8" class="edge"><title>Node1&#45;&gt;Node6</title>
<path fill="none" stroke="midnightblue" d="M44.5463,-108.511C57.2771,-93.5525 78.779,-73.6042 100,-60 100.989,-59.366 102.001,-58.7415 103.032,-58.1289"/>
<polygon fill="midnightblue" stroke="midnightblue" points="41.5693,-106.634 38.1326,-116.656 47.069,-110.965 41.5693,-106.634"/>
</g>
<!-- Node1&#45;&gt;Node6 -->
<g id="edge9" class="edge"><title>Node1&#45;&gt;Node6</title>
<path fill="none" stroke="midnightblue" d="M58.1681,-110.354C70.1864,-100.126 85.1619,-87.5123 100,-78 111.302,-70.7543 125.664,-64.7532 134.846,-59.0741"/>
<polygon fill="midnightblue" stroke="midnightblue" points="55.715,-107.846 50.3582,-116.987 60.2461,-113.181 55.715,-107.846"/>
</g>
<!-- Node7 -->
<g id="node7" class="node"><title>Node7</title>
<g id="a_node7"><a xlink:href="class_sum.html" target="_top" xlink:title="Sum\&lt; A, B, C \&gt;">
<polygon fill="none" stroke="black" points="102.267,-0 102.267,-20 187.733,-20 187.733,-0 102.267,-0"/>
<text text-anchor="middle" x="145" y="-7" font-family="Helvetica,sans-Serif" font-size="10.00">Sum&lt; A, B, C &gt;</text>
</a>
</g>
</g>
<!-- Node1&#45;&gt;Node7 -->
<g id="edge10" class="edge"><title>Node1&#45;&gt;Node7</title>
<path fill="none" stroke="midnightblue" d="M39.5332,-107.276C49.8112,-83.4946 71.5529,-44.7898 100,-21 100.644,-20.4617 101.304,-19.9349 101.979,-19.4202"/>
<polygon fill="midnightblue" stroke="midnightblue" points="36.2052,-106.172 35.7388,-116.756 42.7041,-108.773 36.2052,-106.172"/>
</g>
<!-- Node1&#45;&gt;Node7 -->
<g id="edge11" class="edge"><title>Node1&#45;&gt;Node7</title>
<path fill="none" stroke="midnightblue" d="M45.9448,-108.016C57.6131,-88.4253 76.523,-58.6334 100,-39 109.913,-30.7102 123.822,-25.1565 133.332,-20.0877"/>
<polygon fill="midnightblue" stroke="midnightblue" points="42.8741,-106.333 40.8101,-116.725 48.9041,-109.888 42.8741,-106.333"/>
</g>
</g>
</svg>
