<?xml version="1.0" encoding="UTF-8" standalone="no"?>
<!DOCTYPE svg PUBLIC "-//W3C//DTD SVG 1.1//EN"
 "http://www.w3.org/Graphics/SVG/1.1/DTD/svg11.dtd">
<!-- Generated by graphviz version 2.30.1 (20130404.1610)
 -->
<!-- Title: frame_resolution::frame_resolution Pages: 1 -->
<svg width="394pt" height="40pt"
 viewBox="0.00 0.00 394.00 40.00" xmlns="http://www.w3.org/2000/svg" xmlns:xlink="http://www.w3.org/1999/xlink">
<g id="graph0" class="graph" transform="scale(1 1) rotate(0) translate(4 36)">
<title>frame_resolution::frame_resolution</title>
<!-- Node1 -->
<g id="node1" class="node"><title>Node1</title>
<polygon fill="#bfbfbf" stroke="black" points="0.216,-0 0.216,-32 121.784,-32 121.784,-0 0.216,-0"/>
<text text-anchor="start" x="8.216" y="-19" font-family="Helvetica,sans-Serif" font-size="10.00">frame_resolution::frame</text>
<text text-anchor="middle" x="61" y="-7" font-family="Helvetica,sans-Serif" font-size="10.00">_resolution</text>
</g>
<!-- Node2 -->
<g id="node2" class="node"><title>Node2</title>
<g id="a_node2"><a xlink:href="class_clock.html#a9c1808239308465e8e9cc4aebd50f696" target="_top" xlink:title="Clock::getResolution">
<polygon fill="none" stroke="black" points="158.159,-6 158.159,-26 265.841,-26 265.841,-6 158.159,-6"/>
<text text-anchor="middle" x="212" y="-13" font-family="Helvetica,sans-Serif" font-size="10.00">Clock::getResolution</text>
</a>
</g>
</g>
<!-- Node1&#45;&gt;Node2 -->
<g id="edge1" class="edge"><title>Node1&#45;&gt;Node2</title>
<path fill="none" stroke="midnightblue" d="M122.175,-16C130.558,-16 139.193,-16 147.633,-16"/>
<polygon fill="midnightblue" stroke="midnightblue" points="147.801,-19.5001 157.801,-16 147.801,-12.5001 147.801,-19.5001"/>
</g>
<!-- Node3 -->
<g id="node3" class="node"><title>Node3</title>
<g id="a_node3"><a xlink:href="class_clock.html#aa01fbc51935015e140350da545d9b420" target="_top" xlink:title="Clock::getTime">
<polygon fill="none" stroke="black" points="302.666,-6 302.666,-26 385.334,-26 385.334,-6 302.666,-6"/>
<text text-anchor="middle" x="344" y="-13" font-family="Helvetica,sans-Serif" font-size="10.00">Clock::getTime</text>
</a>
</g>
</g>
<!-- Node2&#45;&gt;Node3 -->
<g id="edge2" class="edge"><title>Node2&#45;&gt;Node3</title>
<path fill="none" stroke="midnightblue" d="M265.876,-16C274.667,-16 283.765,-16 292.496,-16"/>
<polygon fill="midnightblue" stroke="midnightblue" points="292.535,-19.5001 302.535,-16 292.535,-12.5001 292.535,-19.5001"/>
</g>
</g>
</svg>
