<?xml version="1.0" encoding="UTF-8" standalone="no"?>
<!DOCTYPE svg PUBLIC "-//W3C//DTD SVG 1.1//EN"
 "http://www.w3.org/Graphics/SVG/1.1/DTD/svg11.dtd">
<!-- Generated by graphviz version 2.30.1 (20130404.1610)
 -->
<!-- Title: Sum&lt; A, B, C &gt; Pages: 1 -->
<!--zoomable 563 -->
<svg id="main" version="1.1" xmlns="http://www.w3.org/2000/svg" xmlns:xlink="http://www.w3.org/1999/xlink" xml:space="preserve" onload="init(evt)">
<style type="text/css"><![CDATA[
.edge:hover path { stroke: red; }
.edge:hover polygon { stroke: red; fill: red; }
]]></style>
<script type="text/javascript"><![CDATA[
var edges = document.getElementsByTagName('g');
if (edges && edges.length) {
  for (var i=0;i<edges.length;i++) {
    if (edges[i].id.substr(0,4)=='edge') {
      edges[i].setAttribute('class','edge');
    }
  }
}
]]></script>
        <defs>
                <circle id="rim" cx="0" cy="0" r="7"/>
                <circle id="rim2" cx="0" cy="0" r="3.5"/>
                <g id="zoomPlus">
                        <use xlink:href="#rim" fill="#404040">
                                <set attributeName="fill" to="#808080" begin="zoomplus.mouseover" end="zoomplus.mouseout"/>
                        </use>
                        <path d="M-4,0h8M0,-4v8" fill="none" stroke="white" stroke-width="1.5" pointer-events="none"/>
                </g>
                <g id="zoomMin">
                        <use xlink:href="#rim" fill="#404040">
                                <set attributeName="fill" to="#808080" begin="zoomminus.mouseover" end="zoomminus.mouseout"/>
                        </use>
                        <path d="M-4,0h8" fill="none" stroke="white" stroke-width="1.5" pointer-events="none"/>
                </g>
                <g id="dirArrow">
                        <path fill="none" stroke="white" stroke-width="1.5" d="M0,-3.0v7 M-2.5,-0.5L0,-3.0L2.5,-0.5"/>
                </g>
               <g id="resetDef">
                       <use xlink:href="#rim2" fill="#404040">
                               <set attributeName="fill" to="#808080" begin="reset.mouseover" end="reset.mouseout"/>
                       </use>
               </g>
        </defs>

<script type="text/javascript">
var viewWidth = 1214;
var viewHeight = 563;
var sectionId = 'dynsection-1';
</script>
<script xlink:href="svgpan.js"/>
<svg id="graph" class="graph">
<g id="viewport">
<title>Sum&lt; A, B, C &gt;</title>
<!-- Node1 -->
<g id="node1" class="node"><title>Node1</title>
<polygon fill="#bfbfbf" stroke="black" points="630.267,-482.357 630.267,-502.357 715.733,-502.357 715.733,-482.357 630.267,-482.357"/>
<text text-anchor="middle" x="673" y="-489.357" font-family="Helvetica,sans-Serif" font-size="10.00">Sum&lt; A, B, C &gt;</text>
</g>
<!-- Node2 -->
<g id="node2" class="node"><title>Node2</title>
<g id="a_node2"><a xlink:href="classraft_1_1kernel.html" target="_top" xlink:title="raft::kernel">
<polygon fill="none" stroke="black" points="389.385,-455.357 389.385,-475.357 452.615,-475.357 452.615,-455.357 389.385,-455.357"/>
<text text-anchor="middle" x="421" y="-462.357" font-family="Helvetica,sans-Serif" font-size="10.00">raft::kernel</text>
</a>
</g>
</g>
<!-- Node2&#45;&gt;Node1 -->
<g id="edge1" class="edge"><title>Node2&#45;&gt;Node1</title>
<path fill="none" stroke="midnightblue" d="M462.604,-469.742C508.741,-474.725 583.659,-482.816 630.261,-487.849"/>
<polygon fill="midnightblue" stroke="midnightblue" points="462.973,-466.262 452.655,-468.667 462.221,-473.221 462.973,-466.262"/>
</g>
<!-- Node11 -->
<g id="node11" class="node"><title>Node11</title>
<g id="a_node11"><a xlink:href="struct_port_info.html" target="_top" xlink:title="PortInfo">
<polygon fill="none" stroke="black" points="647.494,-214.357 647.494,-234.357 698.506,-234.357 698.506,-214.357 647.494,-214.357"/>
<text text-anchor="middle" x="673" y="-221.357" font-family="Helvetica,sans-Serif" font-size="10.00">PortInfo</text>
</a>
</g>
</g>
<!-- Node2&#45;&gt;Node11 -->
<g id="edge24" class="edge"><title>Node2&#45;&gt;Node11</title>
<path fill="none" stroke="#9a32cd" stroke-dasharray="5,2" d="M448.37,-450.221C497.811,-421.646 600.513,-361.278 612,-346.357 628.465,-324.97 618.483,-312.767 630,-288.357 639.527,-268.164 654.638,-246.912 663.901,-234.687"/>
<polygon fill="#9a32cd" stroke="#9a32cd" points="446.427,-447.301 439.513,-455.329 449.924,-453.365 446.427,-447.301"/>
<text text-anchor="middle" x="560" y="-428.357" font-family="Helvetica,sans-Serif" font-size="10.00"> my_kernel</text>
<text text-anchor="middle" x="560" y="-416.357" font-family="Helvetica,sans-Serif" font-size="10.00">other_kernel</text>
</g>
<!-- Node4 -->
<g id="node4" class="node"><title>Node4</title>
<g id="a_node4"><a xlink:href="class_port.html" target="_top" xlink:title="Port">
<polygon fill="none" stroke="black" points="1171.83,-377.357 1171.83,-397.357 1206.17,-397.357 1206.17,-377.357 1171.83,-377.357"/>
<text text-anchor="middle" x="1189" y="-384.357" font-family="Helvetica,sans-Serif" font-size="10.00">Port</text>
</a>
</g>
</g>
<!-- Node2&#45;&gt;Node4 -->
<g id="edge28" class="edge"><title>Node2&#45;&gt;Node4</title>
<path fill="none" stroke="#9a32cd" stroke-dasharray="5,2" d="M462.75,-462.198C512.211,-458.643 598.168,-453.357 672,-453.357 672,-453.357 672,-453.357 1062,-453.357 1105.29,-453.357 1117.32,-444.355 1154,-421.357 1164.18,-414.971 1173.67,-405.011 1180.02,-397.519"/>
<polygon fill="#9a32cd" stroke="#9a32cd" points="462.485,-458.708 452.767,-462.928 462.996,-465.69 462.485,-458.708"/>
<text text-anchor="middle" x="881" y="-456.357" font-family="Helvetica,sans-Serif" font-size="10.00"> kernel</text>
</g>
<!-- Node2&#45;&gt;Node1 -->
<g id="edge29" class="edge"><title>Node2&#45;&gt;Node1</title>
<path fill="none" stroke="midnightblue" d="M460.776,-478.431C475.401,-482.762 492.298,-487.06 508,-489.357 549.139,-495.373 596.696,-495.503 629.969,-494.504"/>
<polygon fill="midnightblue" stroke="midnightblue" points="461.644,-475.036 451.057,-475.451 459.592,-481.729 461.644,-475.036"/>
</g>
<!-- Node3 -->
<g id="node3" class="node"><title>Node3</title>
<polygon fill="none" stroke="#bfbfbf" points="135.942,-397.357 135.942,-417.357 178.058,-417.357 178.058,-397.357 135.942,-397.357"/>
<text text-anchor="middle" x="157" y="-404.357" font-family="Helvetica,sans-Serif" font-size="10.00">size_t</text>
</g>
<!-- Node3&#45;&gt;Node2 -->
<g id="edge2" class="edge"><title>Node3&#45;&gt;Node2</title>
<path fill="none" stroke="#9a32cd" stroke-dasharray="5,2" d="M188.027,-414.004C238.173,-425.105 338.444,-447.302 389.139,-458.525"/>
<polygon fill="#9a32cd" stroke="#9a32cd" points="188.644,-410.556 178.124,-411.812 187.131,-417.39 188.644,-410.556"/>
<text text-anchor="middle" x="278" y="-448.357" font-family="Helvetica,sans-Serif" font-size="10.00"> kernel_count</text>
</g>
<!-- Node3&#45;&gt;Node4 -->
<g id="edge6" class="edge"><title>Node3&#45;&gt;Node4</title>
<path fill="none" stroke="#9a32cd" stroke-dasharray="5,2" d="M188.593,-407.357C237.488,-407.357 336.27,-407.357 420,-407.357 420,-407.357 420,-407.357 1062,-407.357 1101.87,-407.357 1147.96,-397.469 1171.82,-391.598"/>
<polygon fill="#9a32cd" stroke="#9a32cd" points="188.383,-403.857 178.383,-407.357 188.383,-410.857 188.383,-403.857"/>
<text text-anchor="middle" x="771" y="-410.357" font-family="Helvetica,sans-Serif" font-size="10.00"> alloc_ptr_length</text>
</g>
<!-- Node3&#45;&gt;Node11 -->
<g id="edge23" class="edge"><title>Node3&#45;&gt;Node11</title>
<path fill="none" stroke="#9a32cd" stroke-dasharray="5,2" d="M188.247,-400.687C286.868,-378.865 593.823,-310.304 612,-298.357 623.142,-291.033 621.709,-284.799 630,-274.357 641.138,-260.329 654.526,-244.571 663.144,-234.561"/>
<polygon fill="#9a32cd" stroke="#9a32cd" points="187.329,-397.306 178.321,-402.882 188.84,-404.141 187.329,-397.306"/>
<text text-anchor="middle" x="421" y="-378.357" font-family="Helvetica,sans-Serif" font-size="10.00"> nitems</text>
<text text-anchor="middle" x="421" y="-366.357" font-family="Helvetica,sans-Serif" font-size="10.00">start_index</text>
</g>
<!-- Node4&#45;&gt;Node2 -->
<g id="edge3" class="edge"><title>Node4&#45;&gt;Node2</title>
<path fill="none" stroke="#9a32cd" stroke-dasharray="5,2" d="M1182.86,-407.507C1177.71,-424.769 1168.44,-449.584 1154,-467.357 1122.59,-506.011 1111.81,-531.357 1062,-531.357 672,-531.357 672,-531.357 672,-531.357 598.269,-531.357 578.48,-528.01 508,-506.357 483.018,-498.682 456.114,-484.863 439.177,-475.407"/>
<polygon fill="#9a32cd" stroke="#9a32cd" points="1186.37,-407.976 1185.67,-397.404 1179.62,-406.104 1186.37,-407.976"/>
<text text-anchor="middle" x="881" y="-546.357" font-family="Helvetica,sans-Serif" font-size="10.00"> output</text>
<text text-anchor="middle" x="881" y="-534.357" font-family="Helvetica,sans-Serif" font-size="10.00">input</text>
</g>
<!-- Node5 -->
<g id="node5" class="node"><title>Node5</title>
<g id="a_node5"><a xlink:href="class_port_base.html" target="_top" xlink:title="PortBase">
<polygon fill="none" stroke="black" points="1032.44,-358.357 1032.44,-378.357 1089.56,-378.357 1089.56,-358.357 1032.44,-358.357"/>
<text text-anchor="middle" x="1061" y="-365.357" font-family="Helvetica,sans-Serif" font-size="10.00">PortBase</text>
</a>
</g>
</g>
<!-- Node5&#45;&gt;Node4 -->
<g id="edge4" class="edge"><title>Node5&#45;&gt;Node4</title>
<path fill="none" stroke="midnightblue" d="M1099.84,-374.062C1123.77,-377.671 1153.5,-382.154 1171.59,-384.883"/>
<polygon fill="midnightblue" stroke="midnightblue" points="1100.06,-370.557 1089.65,-372.526 1099.02,-377.478 1100.06,-370.557"/>
</g>
<!-- Node6 -->
<g id="node6" class="node"><title>Node6</title>
<polygon fill="none" stroke="#bfbfbf" points="1028.55,-319.357 1028.55,-339.357 1093.45,-339.357 1093.45,-319.357 1028.55,-319.357"/>
<text text-anchor="middle" x="1061" y="-326.357" font-family="Helvetica,sans-Serif" font-size="10.00">void *const</text>
</g>
<!-- Node6&#45;&gt;Node4 -->
<g id="edge5" class="edge"><title>Node6&#45;&gt;Node4</title>
<path fill="none" stroke="#9a32cd" stroke-dasharray="5,2" d="M1103.58,-340.023C1119.83,-345.04 1138.3,-351.822 1154,-360.357 1162.48,-364.966 1170.98,-371.716 1177.36,-377.314"/>
<polygon fill="#9a32cd" stroke="#9a32cd" points="1104.37,-336.607 1093.79,-337.127 1102.38,-343.319 1104.37,-336.607"/>
<text text-anchor="middle" x="1133" y="-363.357" font-family="Helvetica,sans-Serif" font-size="10.00"> alloc_ptr</text>
</g>
<!-- Node7 -->
<g id="node7" class="node"><title>Node7</title>
<g id="a_node7"><a xlink:href="structportmap__t.html" target="_top" xlink:title="portmap_t">
<polygon fill="none" stroke="black" points="1030.49,-277.357 1030.49,-297.357 1091.51,-297.357 1091.51,-277.357 1030.49,-277.357"/>
<text text-anchor="middle" x="1061" y="-284.357" font-family="Helvetica,sans-Serif" font-size="10.00">portmap_t</text>
</a>
</g>
</g>
<!-- Node7&#45;&gt;Node4 -->
<g id="edge7" class="edge"><title>Node7&#45;&gt;Node4</title>
<path fill="none" stroke="#9a32cd" stroke-dasharray="5,2" d="M1101.16,-298.103C1118.83,-304.43 1139.03,-313.891 1154,-327.357 1169.49,-341.291 1179.63,-364.002 1184.54,-377.121"/>
<polygon fill="#9a32cd" stroke="#9a32cd" points="1102.25,-294.778 1091.66,-294.905 1100.02,-301.412 1102.25,-294.778"/>
<text text-anchor="middle" x="1133" y="-330.357" font-family="Helvetica,sans-Serif" font-size="10.00"> portmap</text>
</g>
<!-- Node8 -->
<g id="node8" class="node"><title>Node8</title>
<polygon fill="none" stroke="#bfbfbf" points="826.46,-216.357 826.46,-248.357 935.54,-248.357 935.54,-216.357 826.46,-216.357"/>
<text text-anchor="start" x="834.46" y="-235.357" font-family="Helvetica,sans-Serif" font-size="10.00">std::map&lt; std::string,</text>
<text text-anchor="middle" x="881" y="-223.357" font-family="Helvetica,sans-Serif" font-size="10.00"> PortInfo &gt;</text>
</g>
<!-- Node8&#45;&gt;Node7 -->
<g id="edge8" class="edge"><title>Node8&#45;&gt;Node7</title>
<path fill="none" stroke="#9a32cd" stroke-dasharray="5,2" d="M944.95,-251.346C965.686,-257.652 988.847,-264.75 1010,-271.357 1016.61,-273.422 1023.7,-275.671 1030.41,-277.813"/>
<polygon fill="#9a32cd" stroke="#9a32cd" points="945.883,-247.972 935.298,-248.414 943.849,-254.67 945.883,-247.972"/>
<text text-anchor="middle" x="982" y="-274.357" font-family="Helvetica,sans-Serif" font-size="10.00"> map</text>
</g>
<!-- Node9 -->
<g id="node9" class="node"><title>Node9</title>
<g id="a_node9"><a xlink:title="STL class. ">
<polygon fill="none" stroke="#bfbfbf" points="391.329,-275.357 391.329,-295.357 450.671,-295.357 450.671,-275.357 391.329,-275.357"/>
<text text-anchor="middle" x="421" y="-282.357" font-family="Helvetica,sans-Serif" font-size="10.00">std::string</text>
</a>
</g>
</g>
<!-- Node9&#45;&gt;Node8 -->
<g id="edge9" class="edge"><title>Node9&#45;&gt;Node8</title>
<path fill="none" stroke="#9a32cd" stroke-dasharray="5,2" d="M461.203,-291.439C475.849,-293.429 492.648,-295.379 508,-296.357 554.129,-299.295 566.095,-301.762 612,-296.357 688.725,-287.323 775.304,-264.216 828.769,-248.388"/>
<polygon fill="#9a32cd" stroke="#9a32cd" points="461.362,-287.926 450.971,-289.996 460.384,-294.858 461.362,-287.926"/>
<text text-anchor="middle" x="673" y="-297.357" font-family="Helvetica,sans-Serif" font-size="10.00"> keys</text>
</g>
<!-- Node9&#45;&gt;Node11 -->
<g id="edge20" class="edge"><title>Node9&#45;&gt;Node11</title>
<path fill="none" stroke="#9a32cd" stroke-dasharray="5,2" d="M461.018,-278.947C508.087,-271.043 584.343,-257.641 612,-249.357 625.297,-245.374 639.667,-239.447 651.01,-234.364"/>
<polygon fill="#9a32cd" stroke="#9a32cd" points="460.159,-275.542 450.873,-280.642 461.313,-282.446 460.159,-275.542"/>
<text text-anchor="middle" x="560" y="-285.357" font-family="Helvetica,sans-Serif" font-size="10.00"> my_name</text>
<text text-anchor="middle" x="560" y="-273.357" font-family="Helvetica,sans-Serif" font-size="10.00">other_name</text>
</g>
<!-- Node10 -->
<g id="node10" class="node"><title>Node10</title>
<g id="a_node10"><a xlink:title="STL class. ">
<polygon fill="none" stroke="#bfbfbf" points="109.962,-269.357 109.962,-301.357 204.038,-301.357 204.038,-269.357 109.962,-269.357"/>
<text text-anchor="start" x="117.962" y="-288.357" font-family="Helvetica,sans-Serif" font-size="10.00">std::basic_string&lt;</text>
<text text-anchor="middle" x="157" y="-276.357" font-family="Helvetica,sans-Serif" font-size="10.00"> char &gt;</text>
</a>
</g>
</g>
<!-- Node10&#45;&gt;Node9 -->
<g id="edge10" class="edge"><title>Node10&#45;&gt;Node9</title>
<path fill="none" stroke="midnightblue" d="M214.411,-285.357C268.775,-285.357 348.842,-285.357 391.228,-285.357"/>
<polygon fill="midnightblue" stroke="midnightblue" points="214.237,-281.857 204.237,-285.357 214.237,-288.857 214.237,-281.857"/>
</g>
<!-- Node11&#45;&gt;Node8 -->
<g id="edge11" class="edge"><title>Node11&#45;&gt;Node8</title>
<path fill="none" stroke="#9a32cd" stroke-dasharray="5,2" d="M709.088,-225.719C741.192,-226.966 789.174,-228.829 826.133,-230.265"/>
<polygon fill="#9a32cd" stroke="#9a32cd" points="708.977,-222.212 698.848,-225.322 708.705,-229.207 708.977,-222.212"/>
<text text-anchor="middle" x="771" y="-233.357" font-family="Helvetica,sans-Serif" font-size="10.00"> elements</text>
</g>
<!-- Node12 -->
<g id="node12" class="node"><title>Node12</title>
<polygon fill="none" stroke="#bfbfbf" points="388.824,-95.3567 388.824,-115.357 453.176,-115.357 453.176,-95.3567 388.824,-95.3567"/>
<text text-anchor="middle" x="421" y="-102.357" font-family="Helvetica,sans-Serif" font-size="10.00">type_index</text>
</g>
<!-- Node12&#45;&gt;Node11 -->
<g id="edge12" class="edge"><title>Node12&#45;&gt;Node11</title>
<path fill="none" stroke="#9a32cd" stroke-dasharray="5,2" d="M463.509,-99.9696C504.472,-96.8113 567.285,-97.9629 612,-126.357 645.008,-147.317 662.644,-193.628 669.097,-214.184"/>
<polygon fill="#9a32cd" stroke="#9a32cd" points="462.984,-96.5025 453.335,-100.877 463.606,-103.475 462.984,-96.5025"/>
<text text-anchor="middle" x="560" y="-129.357" font-family="Helvetica,sans-Serif" font-size="10.00"> type</text>
</g>
<!-- Node13 -->
<g id="node13" class="node"><title>Node13</title>
<polygon fill="none" stroke="#bfbfbf" points="352.012,-44.3567 352.012,-76.3567 489.988,-76.3567 489.988,-44.3567 352.012,-44.3567"/>
<text text-anchor="start" x="360.012" y="-63.3567" font-family="Helvetica,sans-Serif" font-size="10.00">std::map&lt; Type::RingBuffer</text>
<text text-anchor="middle" x="421" y="-51.3567" font-family="Helvetica,sans-Serif" font-size="10.00">Type, instr_map_t * &gt;</text>
</g>
<!-- Node13&#45;&gt;Node11 -->
<g id="edge13" class="edge"><title>Node13&#45;&gt;Node11</title>
<path fill="none" stroke="#9a32cd" stroke-dasharray="5,2" d="M500.437,-52.6635C537.57,-53.0326 580.558,-59.7276 612,-83.3567 655.81,-116.281 667.965,-187.518 671.041,-214.089"/>
<polygon fill="#9a32cd" stroke="#9a32cd" points="500.114,-49.1651 490.133,-52.7183 500.151,-56.165 500.114,-49.1651"/>
<text text-anchor="middle" x="560" y="-86.3567" font-family="Helvetica,sans-Serif" font-size="10.00"> const_map</text>
</g>
<!-- Node14 -->
<g id="node14" class="node"><title>Node14</title>
<g id="a_node14"><a xlink:title="STL class. ">
<polygon fill="none" stroke="#bfbfbf" points="112.043,-21.3567 112.043,-41.3567 201.957,-41.3567 201.957,-21.3567 112.043,-21.3567"/>
<text text-anchor="middle" x="157" y="-28.3567" font-family="Helvetica,sans-Serif" font-size="10.00">std::map&lt; K, T &gt;</text>
</a>
</g>
</g>
<!-- Node14&#45;&gt;Node13 -->
<g id="edge14" class="edge"><title>Node14&#45;&gt;Node13</title>
<path fill="none" stroke="#9a32cd" stroke-dasharray="5,2" d="M187.449,-45.363C198.091,-49.747 210.355,-54.041 222,-56.3567 264.658,-64.8397 313.505,-65.9158 352.008,-64.8338"/>
<polygon fill="#9a32cd" stroke="#9a32cd" points="188.765,-42.1186 178.197,-41.3657 185.988,-48.5446 188.765,-42.1186"/>
<text text-anchor="middle" x="278" y="-68.3567" font-family="Helvetica,sans-Serif" font-size="10.00"> elements</text>
</g>
<!-- Node14&#45;&gt;Node13 -->
<g id="edge18" class="edge"><title>Node14&#45;&gt;Node13</title>
<path fill="none" stroke="orange" stroke-dasharray="5,2" d="M212.163,-25.0342C247.193,-22.2679 293.623,-21.0881 334,-28.3567 351.403,-31.4896 369.883,-37.9218 385.234,-44.2032"/>
<polygon fill="orange" stroke="orange" points="211.804,-21.5521 202.139,-25.8932 212.402,-28.5265 211.804,-21.5521"/>
<text text-anchor="start" x="222.291" y="-43.3567" font-family="Helvetica,sans-Serif" font-size="10.00"> &lt; Type::RingBufferType,</text>
<text text-anchor="middle" x="278" y="-31.3567" font-family="Helvetica,sans-Serif" font-size="10.00"> instr_map_t * &gt;</text>
</g>
<!-- Node14&#45;&gt;Node8 -->
<g id="edge26" class="edge"><title>Node14&#45;&gt;Node8</title>
<path fill="none" stroke="orange" stroke-dasharray="5,2" d="M212.196,-20.4762C215.505,-20.0354 218.792,-19.6549 222,-19.3567 394.773,-3.29914 448.815,21.6265 612,-37.3567 722.123,-77.1605 826.517,-176.903 864.703,-216.139"/>
<polygon fill="orange" stroke="orange" points="211.638,-17.0207 202.263,-21.9575 212.67,-23.9441 211.638,-17.0207"/>
<text text-anchor="middle" x="560" y="-40.3567" font-family="Helvetica,sans-Serif" font-size="10.00"> &lt; std::string, PortInfo &gt;</text>
</g>
<!-- Node15 -->
<g id="node15" class="node"><title>Node15</title>
<polygon fill="none" stroke="#bfbfbf" points="0.5,-41.3567 0.5,-61.3567 29.5,-61.3567 29.5,-41.3567 0.5,-41.3567"/>
<text text-anchor="middle" x="15" y="-48.3567" font-family="Helvetica,sans-Serif" font-size="10.00">K</text>
</g>
<!-- Node15&#45;&gt;Node14 -->
<g id="edge15" class="edge"><title>Node15&#45;&gt;Node14</title>
<path fill="none" stroke="#9a32cd" stroke-dasharray="5,2" d="M39.6415,-47.9794C59.3866,-45.1586 88.0723,-41.0607 112.021,-37.6395"/>
<polygon fill="#9a32cd" stroke="#9a32cd" points="39.0832,-44.5235 29.6787,-49.4026 40.0732,-51.4531 39.0832,-44.5235"/>
<text text-anchor="middle" x="70" y="-50.3567" font-family="Helvetica,sans-Serif" font-size="10.00"> keys</text>
</g>
<!-- Node16 -->
<g id="node16" class="node"><title>Node16</title>
<polygon fill="none" stroke="#bfbfbf" points="0.5,-2.35672 0.5,-22.3567 29.5,-22.3567 29.5,-2.35672 0.5,-2.35672"/>
<text text-anchor="middle" x="15" y="-9.35672" font-family="Helvetica,sans-Serif" font-size="10.00">T</text>
</g>
<!-- Node16&#45;&gt;Node14 -->
<g id="edge16" class="edge"><title>Node16&#45;&gt;Node14</title>
<path fill="none" stroke="#9a32cd" stroke-dasharray="5,2" d="M39.5192,-12.9961C54.5812,-13.6293 74.5111,-14.8828 92,-17.3567 99.3201,-18.3922 107.049,-19.8044 114.507,-21.3353"/>
<polygon fill="#9a32cd" stroke="#9a32cd" points="39.6361,-9.49816 29.5166,-12.6362 39.3843,-16.4936 39.6361,-9.49816"/>
<text text-anchor="middle" x="70" y="-20.3567" font-family="Helvetica,sans-Serif" font-size="10.00"> elements</text>
</g>
<!-- Node17 -->
<g id="node17" class="node"><title>Node17</title>
<polygon fill="none" stroke="#bfbfbf" points="114.272,-103.357 114.272,-123.357 199.728,-123.357 199.728,-103.357 114.272,-103.357"/>
<text text-anchor="middle" x="157" y="-110.357" font-family="Helvetica,sans-Serif" font-size="10.00">RingBufferType</text>
</g>
<!-- Node17&#45;&gt;Node13 -->
<g id="edge17" class="edge"><title>Node17&#45;&gt;Node13</title>
<path fill="none" stroke="#9a32cd" stroke-dasharray="5,2" d="M209.774,-104.779C244.92,-98.7519 292.391,-90.2113 334,-81.3567 341.216,-79.8212 348.749,-78.1232 356.227,-76.3777"/>
<polygon fill="#9a32cd" stroke="#9a32cd" points="209.013,-101.358 199.743,-106.489 210.189,-108.259 209.013,-101.358"/>
<text text-anchor="middle" x="278" y="-105.357" font-family="Helvetica,sans-Serif" font-size="10.00"> keys</text>
</g>
<!-- Node18 -->
<g id="node18" class="node"><title>Node18</title>
<polygon fill="none" stroke="#bfbfbf" points="139.552,-202.357 139.552,-222.357 174.448,-222.357 174.448,-202.357 139.552,-202.357"/>
<text text-anchor="middle" x="157" y="-209.357" font-family="Helvetica,sans-Serif" font-size="10.00">bool</text>
</g>
<!-- Node18&#45;&gt;Node11 -->
<g id="edge19" class="edge"><title>Node18&#45;&gt;Node11</title>
<path fill="none" stroke="#9a32cd" stroke-dasharray="5,2" d="M184.816,-209.542C241.308,-204.018 376.693,-192.918 490,-200.357 546.608,-204.073 612.485,-214.224 647.374,-220.065"/>
<polygon fill="#9a32cd" stroke="#9a32cd" points="184.201,-206.086 174.599,-210.565 184.898,-213.051 184.201,-206.086"/>
<text text-anchor="middle" x="421" y="-215.357" font-family="Helvetica,sans-Serif" font-size="10.00"> use_my_allocator</text>
<text text-anchor="middle" x="421" y="-203.357" font-family="Helvetica,sans-Serif" font-size="10.00">out_of_order</text>
</g>
<!-- Node19 -->
<g id="node19" class="node"><title>Node19</title>
<g id="a_node19"><a xlink:href="class_f_i_f_o.html" target="_top" xlink:title="FIFO">
<polygon fill="none" stroke="black" points="401.612,-234.357 401.612,-254.357 440.388,-254.357 440.388,-234.357 401.612,-234.357"/>
<text text-anchor="middle" x="421" y="-241.357" font-family="Helvetica,sans-Serif" font-size="10.00">FIFO</text>
</a>
</g>
</g>
<!-- Node18&#45;&gt;Node19 -->
<g id="edge22" class="edge"><title>Node18&#45;&gt;Node19</title>
<path fill="none" stroke="#9a32cd" stroke-dasharray="5,2" d="M184.813,-215.632C237.972,-222.124 355.53,-236.482 401.273,-242.07"/>
<polygon fill="#9a32cd" stroke="#9a32cd" points="185.138,-212.145 174.788,-214.407 184.29,-219.094 185.138,-212.145"/>
<text text-anchor="middle" x="278" y="-236.357" font-family="Helvetica,sans-Serif" font-size="10.00"> valid</text>
</g>
<!-- Node19&#45;&gt;Node11 -->
<g id="edge21" class="edge"><title>Node19&#45;&gt;Node11</title>
<path fill="none" stroke="#9a32cd" stroke-dasharray="5,2" d="M450.745,-236.41C467.336,-232.227 488.68,-227.525 508,-225.357 557.233,-219.831 615.304,-221.355 647.454,-222.898"/>
<polygon fill="#9a32cd" stroke="#9a32cd" points="449.393,-233.145 440.598,-239.052 451.157,-239.919 449.393,-233.145"/>
<text text-anchor="middle" x="560" y="-240.357" font-family="Helvetica,sans-Serif" font-size="10.00"> fifo_a</text>
<text text-anchor="middle" x="560" y="-228.357" font-family="Helvetica,sans-Serif" font-size="10.00">fifo_b</text>
</g>
<!-- Node20 -->
<g id="node20" class="node"><title>Node20</title>
<polygon fill="none" stroke="#bfbfbf" points="400.498,-134.357 400.498,-154.357 441.502,-154.357 441.502,-134.357 400.498,-134.357"/>
<text text-anchor="middle" x="421" y="-141.357" font-family="Helvetica,sans-Serif" font-size="10.00">void *</text>
</g>
<!-- Node20&#45;&gt;Node11 -->
<g id="edge25" class="edge"><title>Node20&#45;&gt;Node11</title>
<path fill="none" stroke="#9a32cd" stroke-dasharray="5,2" d="M451.853,-141.817C490.709,-139.779 559.803,-140.558 612,-165.357 635.224,-176.391 654.874,-200.14 664.888,-213.905"/>
<polygon fill="#9a32cd" stroke="#9a32cd" points="451.497,-138.333 441.735,-142.449 451.934,-145.319 451.497,-138.333"/>
<text text-anchor="middle" x="560" y="-168.357" font-family="Helvetica,sans-Serif" font-size="10.00"> existing_buffer</text>
</g>
<!-- Node21 -->
<g id="node21" class="node"><title>Node21</title>
<polygon fill="none" stroke="#bfbfbf" points="859.387,-277.357 859.387,-297.357 902.613,-297.357 902.613,-277.357 859.387,-277.357"/>
<text text-anchor="middle" x="881" y="-284.357" font-family="Helvetica,sans-Serif" font-size="10.00">mutex</text>
</g>
<!-- Node21&#45;&gt;Node7 -->
<g id="edge27" class="edge"><title>Node21&#45;&gt;Node7</title>
<path fill="none" stroke="#9a32cd" stroke-dasharray="5,2" d="M913.176,-287.357C946.14,-287.357 997.765,-287.357 1030.2,-287.357"/>
<polygon fill="#9a32cd" stroke="#9a32cd" points="912.767,-283.857 902.767,-287.357 912.767,-290.857 912.767,-283.857"/>
<text text-anchor="middle" x="982" y="-290.357" font-family="Helvetica,sans-Serif" font-size="10.00"> map_mutex</text>
</g>
</g>
</svg>
        <g id="navigator" transform="translate(0 0)" fill="#404254">
                <rect fill="#f2f5e9" fill-opacity="0.5" stroke="#606060" stroke-width=".5" x="0" y="0" width="60" height="60"/>
                <use id="zoomplus" xlink:href="#zoomPlus" x="17" y="9" onmousedown="handleZoom(evt,'in')"/>
                <use id="zoomminus" xlink:href="#zoomMin" x="42" y="9" onmousedown="handleZoom(evt,'out')"/>
                <use id="reset" xlink:href="#resetDef" x="30" y="36" onmousedown="handleReset()"/>
                <g id="arrowUp" xlink:href="#dirArrow" transform="translate(30 24)" onmousedown="handlePan(0,-1)">
                  <use xlink:href="#rim" fill="#404040">
                        <set attributeName="fill" to="#808080" begin="arrowUp.mouseover" end="arrowUp.mouseout"/>
                  </use>
                  <path fill="none" stroke="white" stroke-width="1.5" d="M0,-3.0v7 M-2.5,-0.5L0,-3.0L2.5,-0.5"/>
                </g>
                <g id="arrowRight" xlink:href="#dirArrow" transform="rotate(90) translate(36 -43)" onmousedown="handlePan(1,0)">
                  <use xlink:href="#rim" fill="#404040">
                        <set attributeName="fill" to="#808080" begin="arrowRight.mouseover" end="arrowRight.mouseout"/>
                  </use>
                  <path fill="none" stroke="white" stroke-width="1.5" d="M0,-3.0v7 M-2.5,-0.5L0,-3.0L2.5,-0.5"/>
                </g>
                <g id="arrowDown" xlink:href="#dirArrow" transform="rotate(180) translate(-30 -48)" onmousedown="handlePan(0,1)">
                  <use xlink:href="#rim" fill="#404040">
                        <set attributeName="fill" to="#808080" begin="arrowDown.mouseover" end="arrowDown.mouseout"/>
                  </use>
                  <path fill="none" stroke="white" stroke-width="1.5" d="M0,-3.0v7 M-2.5,-0.5L0,-3.0L2.5,-0.5"/>
                </g>
                <g id="arrowLeft" xlink:href="#dirArrow" transform="rotate(270) translate(-36 17)" onmousedown="handlePan(-1,0)">
                  <use xlink:href="#rim" fill="#404040">
                        <set attributeName="fill" to="#808080" begin="arrowLeft.mouseover" end="arrowLeft.mouseout"/>
                  </use>
                  <path fill="none" stroke="white" stroke-width="1.5" d="M0,-3.0v7 M-2.5,-0.5L0,-3.0L2.5,-0.5"/>
                </g>
        </g>
        <svg viewBox="0 0 15 15" width="100%" height="30px" preserveAspectRatio="xMaxYMin meet">
         <g id="arrow_out" transform="scale(0.3 0.3)">
          <a xlink:href="class_sum__coll__graph_org.svg" target="_base">
           <rect id="button" ry="5" rx="5" y="6" x="6" height="38" width="38"
                fill="#f2f5e9" fill-opacity="0.5" stroke="#606060" stroke-width="1.0"/>
           <path id="arrow"
             d="M 11.500037,31.436501 C 11.940474,20.09759 22.043105,11.32322 32.158766,21.979434 L 37.068811,17.246167 C 37.068811,17.246167 37.088388,32 37.088388,32 L 22.160133,31.978069 C 22.160133,31.978069 26.997745,27.140456 26.997745,27.140456 C 18.528582,18.264221 13.291696,25.230495 11.500037,31.436501 z"
             style="fill:#404040;"/>
          </a>
         </g>
        </svg>
</svg>
