<?xml version="1.0" encoding="UTF-8" standalone="no"?>
<!DOCTYPE svg PUBLIC "-//W3C//DTD SVG 1.1//EN"
 "http://www.w3.org/Graphics/SVG/1.1/DTD/svg11.dtd">
<!-- Generated by graphviz version 2.30.1 (20130404.1610)
 -->
<!-- Title: AmbiguousPortAssignmentException Pages: 1 -->
<svg width="188pt" height="146pt"
 viewBox="0.00 0.00 188.00 146.00" xmlns="http://www.w3.org/2000/svg" xmlns:xlink="http://www.w3.org/1999/xlink">
<g id="graph0" class="graph" transform="scale(1 1) rotate(0) translate(4 142)">
<title>AmbiguousPortAssignmentException</title>
<!-- Node1 -->
<g id="node1" class="node"><title>Node1</title>
<polygon fill="#bfbfbf" stroke="black" points="-0.2415,-1 -0.2415,-21 180.241,-21 180.241,-1 -0.2415,-1"/>
<text text-anchor="middle" x="90" y="-8" font-family="Helvetica,sans-Serif" font-size="10.00">AmbiguousPortAssignmentException</text>
</g>
<!-- Node2 -->
<g id="node2" class="node"><title>Node2</title>
<g id="a_node2"><a xlink:href="class_port_exception.html" target="_top" xlink:title="PortException">
<polygon fill="none" stroke="black" points="50.8805,-59 50.8805,-79 129.12,-79 129.12,-59 50.8805,-59"/>
<text text-anchor="middle" x="90" y="-66" font-family="Helvetica,sans-Serif" font-size="10.00">PortException</text>
</a>
</g>
</g>
<!-- Node2&#45;&gt;Node1 -->
<g id="edge1" class="edge"><title>Node2&#45;&gt;Node1</title>
<path fill="none" stroke="midnightblue" d="M90,-48.7065C90,-39.3384 90,-28.5262 90,-21.0752"/>
<polygon fill="midnightblue" stroke="midnightblue" points="86.5001,-48.7527 90,-58.7527 93.5001,-48.7528 86.5001,-48.7527"/>
</g>
<!-- Node3 -->
<g id="node3" class="node"><title>Node3</title>
<g id="a_node3"><a xlink:title="STL class. ">
<polygon fill="none" stroke="#bfbfbf" points="51.1555,-117 51.1555,-137 128.845,-137 128.845,-117 51.1555,-117"/>
<text text-anchor="middle" x="90" y="-124" font-family="Helvetica,sans-Serif" font-size="10.00">std::exception</text>
</a>
</g>
</g>
<!-- Node3&#45;&gt;Node2 -->
<g id="edge2" class="edge"><title>Node3&#45;&gt;Node2</title>
<path fill="none" stroke="midnightblue" d="M90,-106.707C90,-97.3384 90,-86.5262 90,-79.0752"/>
<polygon fill="midnightblue" stroke="midnightblue" points="86.5001,-106.753 90,-116.753 93.5001,-106.753 86.5001,-106.753"/>
</g>
</g>
</svg>
