<?xml version="1.0" encoding="UTF-8" standalone="no"?>
<!DOCTYPE svg PUBLIC "-//W3C//DTD SVG 1.1//EN"
 "http://www.w3.org/Graphics/SVG/1.1/DTD/svg11.dtd">
<!-- Generated by graphviz version 2.30.1 (20130404.1610)
 -->
<!-- Title: stdalloc::run Pages: 1 -->
<svg width="344pt" height="125pt"
 viewBox="0.00 0.00 344.00 125.00" xmlns="http://www.w3.org/2000/svg" xmlns:xlink="http://www.w3.org/1999/xlink">
<g id="graph0" class="graph" transform="scale(1 1) rotate(0) translate(4 121)">
<title>stdalloc::run</title>
<!-- Node1 -->
<g id="node1" class="node"><title>Node1</title>
<polygon fill="#bfbfbf" stroke="black" points="0.0505,-39 0.0505,-59 69.9495,-59 69.9495,-39 0.0505,-39"/>
<text text-anchor="middle" x="35" y="-46" font-family="Helvetica,sans-Serif" font-size="10.00">stdalloc::run</text>
</g>
<!-- Node2 -->
<g id="node2" class="node"><title>Node2</title>
<g id="a_node2"><a xlink:href="class_allocate.html#a143df0dcd693ee1ba72060a06aca3b8c" target="_top" xlink:title="Allocate::initialize">
<polygon fill="none" stroke="black" points="109.664,-78 109.664,-98 202.336,-98 202.336,-78 109.664,-78"/>
<text text-anchor="middle" x="156" y="-85" font-family="Helvetica,sans-Serif" font-size="10.00">Allocate::initialize</text>
</a>
</g>
</g>
<!-- Node1&#45;&gt;Node2 -->
<g id="edge1" class="edge"><title>Node1&#45;&gt;Node2</title>
<path fill="none" stroke="midnightblue" d="M66.6455,-59.0435C81.3589,-63.8655 99.1784,-69.7055 114.949,-74.8742"/>
<polygon fill="midnightblue" stroke="midnightblue" points="113.866,-78.2021 124.458,-77.9906 116.046,-71.5502 113.866,-78.2021"/>
</g>
<!-- Node5 -->
<g id="node5" class="node"><title>Node5</title>
<g id="a_node5"><a xlink:href="class_graph_tools.html#ade51007699cbd681c1a37946609c46ee" target="_top" xlink:title="GraphTools::BFS">
<polygon fill="none" stroke="black" points="109.382,-39 109.382,-59 202.618,-59 202.618,-39 109.382,-39"/>
<text text-anchor="middle" x="156" y="-46" font-family="Helvetica,sans-Serif" font-size="10.00">GraphTools::BFS</text>
</a>
</g>
</g>
<!-- Node1&#45;&gt;Node5 -->
<g id="edge4" class="edge"><title>Node1&#45;&gt;Node5</title>
<path fill="none" stroke="midnightblue" d="M70.1006,-49C79.1739,-49 89.2173,-49 99.1261,-49"/>
<polygon fill="midnightblue" stroke="midnightblue" points="99.3571,-52.5001 109.357,-49 99.357,-45.5001 99.3571,-52.5001"/>
</g>
<!-- Node6 -->
<g id="node6" class="node"><title>Node6</title>
<g id="a_node6"><a xlink:href="class_allocate.html#a4cf36bb704e43f5736a0e736d9e1a81b" target="_top" xlink:title="Allocate::setReady">
<polygon fill="none" stroke="black" points="106.323,-0 106.323,-20 205.678,-20 205.678,-0 106.323,-0"/>
<text text-anchor="middle" x="156" y="-7" font-family="Helvetica,sans-Serif" font-size="10.00">Allocate::setReady</text>
</a>
</g>
</g>
<!-- Node1&#45;&gt;Node6 -->
<g id="edge5" class="edge"><title>Node1&#45;&gt;Node6</title>
<path fill="none" stroke="midnightblue" d="M66.6455,-38.9565C81.3589,-34.1345 99.1784,-28.2945 114.949,-23.1258"/>
<polygon fill="midnightblue" stroke="midnightblue" points="116.046,-26.4498 124.458,-20.0094 113.866,-19.7979 116.046,-26.4498"/>
</g>
<!-- Node3 -->
<g id="node3" class="node"><title>Node3</title>
<g id="a_node3"><a xlink:href="struct_port_info.html#a9045e2d4e4d53e6a876cd277060fecb0" target="_top" xlink:title="PortInfo::getFIFO">
<polygon fill="none" stroke="black" points="242.379,-97 242.379,-117 335.621,-117 335.621,-97 242.379,-97"/>
<text text-anchor="middle" x="289" y="-104" font-family="Helvetica,sans-Serif" font-size="10.00">PortInfo::getFIFO</text>
</a>
</g>
</g>
<!-- Node2&#45;&gt;Node3 -->
<g id="edge2" class="edge"><title>Node2&#45;&gt;Node3</title>
<path fill="none" stroke="midnightblue" d="M202.45,-94.592C211.993,-95.9761 222.165,-97.4514 232.041,-98.8838"/>
<polygon fill="midnightblue" stroke="midnightblue" points="231.788,-102.384 242.187,-100.355 232.793,-95.4561 231.788,-102.384"/>
</g>
<!-- Node4 -->
<g id="node4" class="node"><title>Node4</title>
<g id="a_node4"><a xlink:href="struct_port_info.html#a8eadd0276864dc2d7752381ff0cfeb8b" target="_top" xlink:title="PortInfo::setFIFO">
<polygon fill="none" stroke="black" points="242.658,-58 242.658,-78 335.342,-78 335.342,-58 242.658,-58"/>
<text text-anchor="middle" x="289" y="-65" font-family="Helvetica,sans-Serif" font-size="10.00">PortInfo::setFIFO</text>
</a>
</g>
</g>
<!-- Node2&#45;&gt;Node4 -->
<g id="edge3" class="edge"><title>Node2&#45;&gt;Node4</title>
<path fill="none" stroke="midnightblue" d="M202.45,-81.0611C212.204,-79.5719 222.616,-77.9824 232.696,-76.4433"/>
<polygon fill="midnightblue" stroke="midnightblue" points="233.273,-79.8959 242.631,-74.9266 232.217,-72.976 233.273,-79.8959"/>
</g>
</g>
</svg>
