<?xml version="1.0" encoding="UTF-8" standalone="no"?>
<!DOCTYPE svg PUBLIC "-//W3C//DTD SVG 1.1//EN"
 "http://www.w3.org/Graphics/SVG/1.1/DTD/svg11.dtd">
<!-- Generated by graphviz version 2.30.1 (20130404.1610)
 -->
<!-- Title: raft::kernel::run Pages: 1 -->
<svg width="390pt" height="28pt"
 viewBox="0.00 0.00 390.00 28.00" xmlns="http://www.w3.org/2000/svg" xmlns:xlink="http://www.w3.org/1999/xlink">
<g id="graph0" class="graph" transform="scale(1 1) rotate(0) translate(4 24)">
<title>raft::kernel::run</title>
<!-- Node1 -->
<g id="node1" class="node"><title>Node1</title>
<polygon fill="#bfbfbf" stroke="black" points="0.383,-0 0.383,-20 83.617,-20 83.617,-0 0.383,-0"/>
<text text-anchor="middle" x="42" y="-7" font-family="Helvetica,sans-Serif" font-size="10.00">raft::kernel::run</text>
</g>
<!-- Node2 -->
<g id="node2" class="node"><title>Node2</title>
<g id="a_node2"><a xlink:href="class_schedule.html#a60076829d7785af75aa8a2057f4edd09" target="_top" xlink:title="Schedule::kernelRun">
<polygon fill="none" stroke="black" points="120.599,-0 120.599,-20 229.401,-20 229.401,-0 120.599,-0"/>
<text text-anchor="middle" x="175" y="-7" font-family="Helvetica,sans-Serif" font-size="10.00">Schedule::kernelRun</text>
</a>
</g>
</g>
<!-- Node1&#45;&gt;Node2 -->
<g id="edge1" class="edge"><title>Node1&#45;&gt;Node2</title>
<path fill="none" stroke="midnightblue" d="M93.7378,-10C102.439,-10 111.507,-10 120.283,-10"/>
<polygon fill="midnightblue" stroke="midnightblue" points="93.7312,-6.5001 83.7311,-10 93.7311,-13.5001 93.7312,-6.5001"/>
</g>
<!-- Node3 -->
<g id="node3" class="node"><title>Node3</title>
<g id="a_node3"><a xlink:href="classsimple__schedule.html#ad60a7608111e011d0c04f6ac566cfd8c" target="_top" xlink:title="simple_schedule::start">
<polygon fill="none" stroke="black" points="266.269,-0 266.269,-20 381.731,-20 381.731,-0 266.269,-0"/>
<text text-anchor="middle" x="324" y="-7" font-family="Helvetica,sans-Serif" font-size="10.00">simple_schedule::start</text>
</a>
</g>
</g>
<!-- Node2&#45;&gt;Node3 -->
<g id="edge2" class="edge"><title>Node2&#45;&gt;Node3</title>
<path fill="none" stroke="midnightblue" d="M239.608,-10C248.329,-10 257.24,-10 265.837,-10"/>
<polygon fill="midnightblue" stroke="midnightblue" points="239.486,-6.5001 229.486,-10 239.486,-13.5001 239.486,-6.5001"/>
</g>
</g>
</svg>
