<?xml version="1.0" encoding="UTF-8" standalone="no"?>
<!DOCTYPE svg PUBLIC "-//W3C//DTD SVG 1.1//EN"
 "http://www.w3.org/Graphics/SVG/1.1/DTD/svg11.dtd">
<!-- Generated by graphviz version 2.30.1 (20130404.1610)
 -->
<!-- Title: PortTypeException Pages: 1 -->
<svg width="108pt" height="146pt"
 viewBox="0.00 0.00 108.00 146.00" xmlns="http://www.w3.org/2000/svg" xmlns:xlink="http://www.w3.org/1999/xlink">
<g id="graph0" class="graph" transform="scale(1 1) rotate(0) translate(4 142)">
<title>PortTypeException</title>
<!-- Node1 -->
<g id="node1" class="node"><title>Node1</title>
<polygon fill="#bfbfbf" stroke="black" points="-0.233,-1 -0.233,-21 100.233,-21 100.233,-1 -0.233,-1"/>
<text text-anchor="middle" x="50" y="-8" font-family="Helvetica,sans-Serif" font-size="10.00">PortTypeException</text>
</g>
<!-- Node2 -->
<g id="node2" class="node"><title>Node2</title>
<g id="a_node2"><a xlink:href="class_port_exception.html" target="_top" xlink:title="PortException">
<polygon fill="none" stroke="black" points="10.8805,-59 10.8805,-79 89.1195,-79 89.1195,-59 10.8805,-59"/>
<text text-anchor="middle" x="50" y="-66" font-family="Helvetica,sans-Serif" font-size="10.00">PortException</text>
</a>
</g>
</g>
<!-- Node2&#45;&gt;Node1 -->
<g id="edge1" class="edge"><title>Node2&#45;&gt;Node1</title>
<path fill="none" stroke="midnightblue" d="M50,-48.7065C50,-39.3384 50,-28.5262 50,-21.0752"/>
<polygon fill="midnightblue" stroke="midnightblue" points="46.5001,-48.7527 50,-58.7527 53.5001,-48.7528 46.5001,-48.7527"/>
</g>
<!-- Node3 -->
<g id="node3" class="node"><title>Node3</title>
<g id="a_node3"><a xlink:title="STL class. ">
<polygon fill="none" stroke="#bfbfbf" points="11.1555,-117 11.1555,-137 88.8445,-137 88.8445,-117 11.1555,-117"/>
<text text-anchor="middle" x="50" y="-124" font-family="Helvetica,sans-Serif" font-size="10.00">std::exception</text>
</a>
</g>
</g>
<!-- Node3&#45;&gt;Node2 -->
<g id="edge2" class="edge"><title>Node3&#45;&gt;Node2</title>
<path fill="none" stroke="midnightblue" d="M50,-106.707C50,-97.3384 50,-86.5262 50,-79.0752"/>
<polygon fill="midnightblue" stroke="midnightblue" points="46.5001,-106.753 50,-116.753 53.5001,-106.753 46.5001,-106.753"/>
</g>
</g>
</svg>
