<?xml version="1.0" encoding="UTF-8" standalone="no"?>
<!DOCTYPE svg PUBLIC "-//W3C//DTD SVG 1.1//EN"
 "http://www.w3.org/Graphics/SVG/1.1/DTD/svg11.dtd">
<!-- Generated by graphviz version 2.30.1 (20130404.1610)
 -->
<!-- Title: FIFO::local_allocate Pages: 1 -->
<svg width="240pt" height="67pt"
 viewBox="0.00 0.00 240.00 67.00" xmlns="http://www.w3.org/2000/svg" xmlns:xlink="http://www.w3.org/1999/xlink">
<g id="graph0" class="graph" transform="scale(1 1) rotate(0) translate(4 63)">
<title>FIFO::local_allocate</title>
<!-- Node1 -->
<g id="node1" class="node"><title>Node1</title>
<polygon fill="#bfbfbf" stroke="black" points="0.549,-19 0.549,-39 105.451,-39 105.451,-19 0.549,-19"/>
<text text-anchor="middle" x="53" y="-26" font-family="Helvetica,sans-Serif" font-size="10.00">FIFO::local_allocate</text>
</g>
<!-- Node2 -->
<g id="node2" class="node"><title>Node2</title>
<g id="a_node2"><a xlink:href="class_f_i_f_o.html#ad9725ffa3ffda9fe0366ac781ee6999c" target="_top" xlink:title="FIFO::allocate">
<polygon fill="none" stroke="black" points="147.606,-39 147.606,-59 226.394,-59 226.394,-39 147.606,-39"/>
<text text-anchor="middle" x="187" y="-46" font-family="Helvetica,sans-Serif" font-size="10.00">FIFO::allocate</text>
</a>
</g>
</g>
<!-- Node1&#45;&gt;Node2 -->
<g id="edge1" class="edge"><title>Node1&#45;&gt;Node2</title>
<path fill="none" stroke="midnightblue" d="M115.984,-38.3916C126.7,-40.0151 137.557,-41.6602 147.421,-43.1547"/>
<polygon fill="midnightblue" stroke="midnightblue" points="116.203,-34.8848 105.791,-36.8471 115.154,-41.8058 116.203,-34.8848"/>
</g>
<!-- Node3 -->
<g id="node3" class="node"><title>Node3</title>
<g id="a_node3"><a xlink:href="class_f_i_f_o.html#a8c6fa58bc6b5734c3f7fc288dd58a6e3" target="_top" xlink:title="FIFO::allocate_s">
<polygon fill="none" stroke="black" points="142.327,-0 142.327,-20 231.673,-20 231.673,-0 142.327,-0"/>
<text text-anchor="middle" x="187" y="-7" font-family="Helvetica,sans-Serif" font-size="10.00">FIFO::allocate_s</text>
</a>
</g>
</g>
<!-- Node1&#45;&gt;Node3 -->
<g id="edge2" class="edge"><title>Node1&#45;&gt;Node3</title>
<path fill="none" stroke="midnightblue" d="M115.739,-20.1133C124.62,-18.835 133.604,-17.5419 142.044,-16.3269"/>
<polygon fill="midnightblue" stroke="midnightblue" points="115.19,-16.6561 105.791,-21.5452 116.188,-23.5847 115.19,-16.6561"/>
</g>
</g>
</svg>
