<?xml version="1.0" encoding="UTF-8" standalone="no"?>
<!DOCTYPE svg PUBLIC "-//W3C//DTD SVG 1.1//EN"
 "http://www.w3.org/Graphics/SVG/1.1/DTD/svg11.dtd">
<!-- Generated by graphviz version 2.30.1 (20130404.1610)
 -->
<!-- Title: Generate&lt; T &gt; Pages: 1 -->
<svg width="1210pt" height="576pt"
 viewBox="0.00 0.00 1210.00 576.00" xmlns="http://www.w3.org/2000/svg" xmlns:xlink="http://www.w3.org/1999/xlink">
<g id="graph0" class="graph" transform="scale(1 1) rotate(0) translate(4 572)">
<title>Generate&lt; T &gt;</title>
<!-- Node1 -->
<g id="node1" class="node"><title>Node1</title>
<polygon fill="#bfbfbf" stroke="black" points="630.486,-495 630.486,-515 711.514,-515 711.514,-495 630.486,-495"/>
<text text-anchor="middle" x="671" y="-502" font-family="Helvetica,sans-Serif" font-size="10.00">Generate&lt; T &gt;</text>
</g>
<!-- Node2 -->
<g id="node2" class="node"><title>Node2</title>
<g id="a_node2"><a xlink:href="classraft_1_1kernel.html" target="_top" xlink:title="raft::kernel">
<polygon fill="none" stroke="black" points="389.385,-466 389.385,-486 452.615,-486 452.615,-466 389.385,-466"/>
<text text-anchor="middle" x="421" y="-473" font-family="Helvetica,sans-Serif" font-size="10.00">raft::kernel</text>
</a>
</g>
</g>
<!-- Node2&#45;&gt;Node1 -->
<g id="edge1" class="edge"><title>Node2&#45;&gt;Node1</title>
<path fill="none" stroke="midnightblue" d="M463.133,-476.903C501.787,-478.254 561.138,-481.619 612,-490 619.594,-491.251 627.644,-493.033 635.252,-494.933"/>
<polygon fill="midnightblue" stroke="midnightblue" points="462.911,-473.395 452.804,-476.574 462.687,-480.391 462.911,-473.395"/>
</g>
<!-- Node11 -->
<g id="node11" class="node"><title>Node11</title>
<g id="a_node11"><a xlink:href="struct_port_info.html" target="_top" xlink:title="PortInfo">
<polygon fill="none" stroke="black" points="645.494,-212 645.494,-232 696.506,-232 696.506,-212 645.494,-212"/>
<text text-anchor="middle" x="671" y="-219" font-family="Helvetica,sans-Serif" font-size="10.00">PortInfo</text>
</a>
</g>
</g>
<!-- Node2&#45;&gt;Node11 -->
<g id="edge24" class="edge"><title>Node2&#45;&gt;Node11</title>
<path fill="none" stroke="#9a32cd" stroke-dasharray="5,2" d="M443.547,-459.787C460.821,-446.893 485.765,-428.508 508,-413 553.497,-381.268 578.742,-388.394 612,-344 628.183,-322.399 618.754,-310.536 630,-286 639.172,-265.989 653.532,-244.68 662.321,-232.395"/>
<polygon fill="#9a32cd" stroke="#9a32cd" points="441.176,-457.19 435.268,-465.985 445.371,-462.794 441.176,-457.19"/>
<text text-anchor="middle" x="560" y="-428" font-family="Helvetica,sans-Serif" font-size="10.00"> my_kernel</text>
<text text-anchor="middle" x="560" y="-416" font-family="Helvetica,sans-Serif" font-size="10.00">other_kernel</text>
</g>
<!-- Node4 -->
<g id="node4" class="node"><title>Node4</title>
<g id="a_node4"><a xlink:href="class_port.html" target="_top" xlink:title="Port">
<polygon fill="none" stroke="black" points="1167.83,-375 1167.83,-395 1202.17,-395 1202.17,-375 1167.83,-375"/>
<text text-anchor="middle" x="1185" y="-382" font-family="Helvetica,sans-Serif" font-size="10.00">Port</text>
</a>
</g>
</g>
<!-- Node2&#45;&gt;Node4 -->
<g id="edge28" class="edge"><title>Node2&#45;&gt;Node4</title>
<path fill="none" stroke="#9a32cd" stroke-dasharray="5,2" d="M462.731,-469.359C511.765,-461.953 596.674,-451 670,-451 670,-451 670,-451 1058,-451 1101.29,-451 1113.32,-441.998 1150,-419 1160.18,-412.614 1169.67,-402.654 1176.02,-395.162"/>
<polygon fill="#9a32cd" stroke="#9a32cd" points="462.182,-465.902 452.83,-470.881 463.245,-472.821 462.182,-465.902"/>
<text text-anchor="middle" x="877" y="-454" font-family="Helvetica,sans-Serif" font-size="10.00"> kernel</text>
</g>
<!-- Node2&#45;&gt;Node1 -->
<g id="edge29" class="edge"><title>Node2&#45;&gt;Node1</title>
<path fill="none" stroke="midnightblue" d="M462.678,-472.863C476.998,-474.187 493.207,-476.232 508,-478 553.519,-483.44 606.301,-489.203 638.926,-494.982"/>
<polygon fill="midnightblue" stroke="midnightblue" points="462.885,-469.369 452.633,-472.041 462.314,-476.345 462.885,-469.369"/>
</g>
<!-- Node2&#45;&gt;Node1 -->
<g id="edge30" class="edge"><title>Node2&#45;&gt;Node1</title>
<path fill="none" stroke="midnightblue" d="M453.273,-488.167C469.578,-491.246 489.855,-493.832 508,-496 549.726,-500.986 597.555,-506.245 630.366,-508.025"/>
<polygon fill="midnightblue" stroke="midnightblue" points="453.696,-484.68 443.193,-486.071 452.272,-491.533 453.696,-484.68"/>
</g>
<!-- Node3 -->
<g id="node3" class="node"><title>Node3</title>
<polygon fill="none" stroke="#bfbfbf" points="135.942,-395 135.942,-415 178.058,-415 178.058,-395 135.942,-395"/>
<text text-anchor="middle" x="157" y="-402" font-family="Helvetica,sans-Serif" font-size="10.00">size_t</text>
</g>
<!-- Node3&#45;&gt;Node2 -->
<g id="edge2" class="edge"><title>Node3&#45;&gt;Node2</title>
<path fill="none" stroke="#9a32cd" stroke-dasharray="5,2" d="M188.027,-413.137C238.173,-426.726 338.444,-453.899 389.139,-467.637"/>
<polygon fill="#9a32cd" stroke="#9a32cd" points="188.691,-409.691 178.124,-410.453 186.86,-416.447 188.691,-409.691"/>
<text text-anchor="middle" x="278" y="-455" font-family="Helvetica,sans-Serif" font-size="10.00"> kernel_count</text>
</g>
<!-- Node3&#45;&gt;Node4 -->
<g id="edge6" class="edge"><title>Node3&#45;&gt;Node4</title>
<path fill="none" stroke="#9a32cd" stroke-dasharray="5,2" d="M188.593,-405C237.488,-405 336.27,-405 420,-405 420,-405 420,-405 1058,-405 1097.87,-405 1143.96,-395.112 1167.82,-389.241"/>
<polygon fill="#9a32cd" stroke="#9a32cd" points="188.383,-401.5 178.383,-405 188.383,-408.5 188.383,-401.5"/>
<text text-anchor="middle" x="767" y="-408" font-family="Helvetica,sans-Serif" font-size="10.00"> alloc_ptr_length</text>
</g>
<!-- Node3&#45;&gt;Node11 -->
<g id="edge23" class="edge"><title>Node3&#45;&gt;Node11</title>
<path fill="none" stroke="#9a32cd" stroke-dasharray="5,2" d="M188.237,-398.316C286.827,-376.446 593.697,-307.753 612,-296 613.683,-294.92 646.787,-252.116 662.213,-232.111"/>
<polygon fill="#9a32cd" stroke="#9a32cd" points="187.32,-394.934 178.314,-400.515 188.834,-401.768 187.32,-394.934"/>
<text text-anchor="middle" x="421" y="-376" font-family="Helvetica,sans-Serif" font-size="10.00"> nitems</text>
<text text-anchor="middle" x="421" y="-364" font-family="Helvetica,sans-Serif" font-size="10.00">start_index</text>
</g>
<!-- Node4&#45;&gt;Node2 -->
<g id="edge3" class="edge"><title>Node4&#45;&gt;Node2</title>
<path fill="none" stroke="#9a32cd" stroke-dasharray="5,2" d="M1178.49,-405.057C1165.4,-447.801 1128.13,-544 1058,-544 670,-544 670,-544 670,-544 596.932,-544 577.734,-537.82 508,-516 483.484,-508.329 456.912,-495.154 439.893,-486.031"/>
<polygon fill="#9a32cd" stroke="#9a32cd" points="1181.86,-406.013 1181.3,-395.432 1175.14,-404.048 1181.86,-406.013"/>
<text text-anchor="middle" x="877" y="-559" font-family="Helvetica,sans-Serif" font-size="10.00"> output</text>
<text text-anchor="middle" x="877" y="-547" font-family="Helvetica,sans-Serif" font-size="10.00">input</text>
</g>
<!-- Node5 -->
<g id="node5" class="node"><title>Node5</title>
<g id="a_node5"><a xlink:href="class_port_base.html" target="_top" xlink:title="PortBase">
<polygon fill="none" stroke="black" points="1028.44,-356 1028.44,-376 1085.56,-376 1085.56,-356 1028.44,-356"/>
<text text-anchor="middle" x="1057" y="-363" font-family="Helvetica,sans-Serif" font-size="10.00">PortBase</text>
</a>
</g>
</g>
<!-- Node5&#45;&gt;Node4 -->
<g id="edge4" class="edge"><title>Node5&#45;&gt;Node4</title>
<path fill="none" stroke="midnightblue" d="M1095.84,-371.706C1119.77,-375.314 1149.5,-379.797 1167.59,-382.526"/>
<polygon fill="midnightblue" stroke="midnightblue" points="1096.06,-368.2 1085.65,-370.17 1095.02,-375.122 1096.06,-368.2"/>
</g>
<!-- Node6 -->
<g id="node6" class="node"><title>Node6</title>
<polygon fill="none" stroke="#bfbfbf" points="1024.55,-317 1024.55,-337 1089.45,-337 1089.45,-317 1024.55,-317"/>
<text text-anchor="middle" x="1057" y="-324" font-family="Helvetica,sans-Serif" font-size="10.00">void *const</text>
</g>
<!-- Node6&#45;&gt;Node4 -->
<g id="edge5" class="edge"><title>Node6&#45;&gt;Node4</title>
<path fill="none" stroke="#9a32cd" stroke-dasharray="5,2" d="M1099.58,-337.666C1115.83,-342.683 1134.3,-349.465 1150,-358 1158.48,-362.609 1166.98,-369.359 1173.36,-374.957"/>
<polygon fill="#9a32cd" stroke="#9a32cd" points="1100.37,-334.25 1089.79,-334.77 1098.38,-340.962 1100.37,-334.25"/>
<text text-anchor="middle" x="1129" y="-361" font-family="Helvetica,sans-Serif" font-size="10.00"> alloc_ptr</text>
</g>
<!-- Node7 -->
<g id="node7" class="node"><title>Node7</title>
<g id="a_node7"><a xlink:href="structportmap__t.html" target="_top" xlink:title="portmap_t">
<polygon fill="none" stroke="black" points="1026.49,-275 1026.49,-295 1087.51,-295 1087.51,-275 1026.49,-275"/>
<text text-anchor="middle" x="1057" y="-282" font-family="Helvetica,sans-Serif" font-size="10.00">portmap_t</text>
</a>
</g>
</g>
<!-- Node7&#45;&gt;Node4 -->
<g id="edge7" class="edge"><title>Node7&#45;&gt;Node4</title>
<path fill="none" stroke="#9a32cd" stroke-dasharray="5,2" d="M1097.16,-295.746C1114.83,-302.073 1135.03,-311.534 1150,-325 1165.49,-338.934 1175.63,-361.645 1180.54,-374.765"/>
<polygon fill="#9a32cd" stroke="#9a32cd" points="1098.25,-292.421 1087.66,-292.548 1096.02,-299.055 1098.25,-292.421"/>
<text text-anchor="middle" x="1129" y="-328" font-family="Helvetica,sans-Serif" font-size="10.00"> portmap</text>
</g>
<!-- Node8 -->
<g id="node8" class="node"><title>Node8</title>
<polygon fill="none" stroke="#bfbfbf" points="822.46,-219 822.46,-251 931.54,-251 931.54,-219 822.46,-219"/>
<text text-anchor="start" x="830.46" y="-238" font-family="Helvetica,sans-Serif" font-size="10.00">std::map&lt; std::string,</text>
<text text-anchor="middle" x="877" y="-226" font-family="Helvetica,sans-Serif" font-size="10.00"> PortInfo &gt;</text>
</g>
<!-- Node8&#45;&gt;Node7 -->
<g id="edge8" class="edge"><title>Node8&#45;&gt;Node7</title>
<path fill="none" stroke="#9a32cd" stroke-dasharray="5,2" d="M941.633,-251.23C962.231,-256.664 985.139,-262.896 1006,-269 1012.65,-270.945 1019.76,-273.146 1026.46,-275.278"/>
<polygon fill="#9a32cd" stroke="#9a32cd" points="942.286,-247.783 931.725,-248.631 940.51,-254.554 942.286,-247.783"/>
<text text-anchor="middle" x="978" y="-272" font-family="Helvetica,sans-Serif" font-size="10.00"> map</text>
</g>
<!-- Node9 -->
<g id="node9" class="node"><title>Node9</title>
<g id="a_node9"><a xlink:title="STL class. ">
<polygon fill="none" stroke="#bfbfbf" points="391.329,-273 391.329,-293 450.671,-293 450.671,-273 391.329,-273"/>
<text text-anchor="middle" x="421" y="-280" font-family="Helvetica,sans-Serif" font-size="10.00">std::string</text>
</a>
</g>
</g>
<!-- Node9&#45;&gt;Node8 -->
<g id="edge9" class="edge"><title>Node9&#45;&gt;Node8</title>
<path fill="none" stroke="#9a32cd" stroke-dasharray="5,2" d="M461.203,-289.082C475.849,-291.072 492.648,-293.022 508,-294 554.129,-296.938 566.057,-299.071 612,-294 685.755,-285.859 769.032,-265.293 821.982,-250.74"/>
<polygon fill="#9a32cd" stroke="#9a32cd" points="461.362,-285.57 450.971,-287.639 460.384,-292.501 461.362,-285.57"/>
<text text-anchor="middle" x="671" y="-295" font-family="Helvetica,sans-Serif" font-size="10.00"> keys</text>
</g>
<!-- Node9&#45;&gt;Node11 -->
<g id="edge20" class="edge"><title>Node9&#45;&gt;Node11</title>
<path fill="none" stroke="#9a32cd" stroke-dasharray="5,2" d="M461.034,-276.645C508.12,-268.797 584.394,-255.452 612,-247 624.896,-243.052 638.789,-237.126 649.744,-232.035"/>
<polygon fill="#9a32cd" stroke="#9a32cd" points="460.179,-273.239 450.885,-278.327 461.323,-280.145 460.179,-273.239"/>
<text text-anchor="middle" x="560" y="-283" font-family="Helvetica,sans-Serif" font-size="10.00"> my_name</text>
<text text-anchor="middle" x="560" y="-271" font-family="Helvetica,sans-Serif" font-size="10.00">other_name</text>
</g>
<!-- Node10 -->
<g id="node10" class="node"><title>Node10</title>
<g id="a_node10"><a xlink:title="STL class. ">
<polygon fill="none" stroke="#bfbfbf" points="109.962,-267 109.962,-299 204.038,-299 204.038,-267 109.962,-267"/>
<text text-anchor="start" x="117.962" y="-286" font-family="Helvetica,sans-Serif" font-size="10.00">std::basic_string&lt;</text>
<text text-anchor="middle" x="157" y="-274" font-family="Helvetica,sans-Serif" font-size="10.00"> char &gt;</text>
</a>
</g>
</g>
<!-- Node10&#45;&gt;Node9 -->
<g id="edge10" class="edge"><title>Node10&#45;&gt;Node9</title>
<path fill="none" stroke="midnightblue" d="M214.411,-283C268.775,-283 348.842,-283 391.228,-283"/>
<polygon fill="midnightblue" stroke="midnightblue" points="214.237,-279.5 204.237,-283 214.237,-286.5 214.237,-279.5"/>
</g>
<!-- Node11&#45;&gt;Node8 -->
<g id="edge11" class="edge"><title>Node11&#45;&gt;Node8</title>
<path fill="none" stroke="#9a32cd" stroke-dasharray="5,2" d="M706.711,-224.212C738.382,-226.23 785.681,-229.244 822.239,-231.574"/>
<polygon fill="#9a32cd" stroke="#9a32cd" points="706.81,-220.711 696.607,-223.568 706.364,-227.697 706.81,-220.711"/>
<text text-anchor="middle" x="767" y="-234" font-family="Helvetica,sans-Serif" font-size="10.00"> elements</text>
</g>
<!-- Node12 -->
<g id="node12" class="node"><title>Node12</title>
<polygon fill="none" stroke="#bfbfbf" points="388.824,-93 388.824,-113 453.176,-113 453.176,-93 388.824,-93"/>
<text text-anchor="middle" x="421" y="-100" font-family="Helvetica,sans-Serif" font-size="10.00">type_index</text>
</g>
<!-- Node12&#45;&gt;Node11 -->
<g id="edge12" class="edge"><title>Node12&#45;&gt;Node11</title>
<path fill="none" stroke="#9a32cd" stroke-dasharray="5,2" d="M463.6,-97.4708C504.633,-94.2029 567.499,-95.2721 612,-124 644.556,-145.016 661.259,-191.297 667.3,-211.837"/>
<polygon fill="#9a32cd" stroke="#9a32cd" points="463.045,-94.007 453.407,-98.4074 463.686,-100.978 463.045,-94.007"/>
<text text-anchor="middle" x="560" y="-127" font-family="Helvetica,sans-Serif" font-size="10.00"> type</text>
</g>
<!-- Node13 -->
<g id="node13" class="node"><title>Node13</title>
<polygon fill="none" stroke="#bfbfbf" points="352.012,-42 352.012,-74 489.988,-74 489.988,-42 352.012,-42"/>
<text text-anchor="start" x="360.012" y="-61" font-family="Helvetica,sans-Serif" font-size="10.00">std::map&lt; Type::RingBuffer</text>
<text text-anchor="middle" x="421" y="-49" font-family="Helvetica,sans-Serif" font-size="10.00">Type, instr_map_t * &gt;</text>
</g>
<!-- Node13&#45;&gt;Node11 -->
<g id="edge13" class="edge"><title>Node13&#45;&gt;Node11</title>
<path fill="none" stroke="#9a32cd" stroke-dasharray="5,2" d="M500.561,-50.1426C537.724,-50.4723 580.701,-57.1815 612,-81 655.391,-114.021 666.506,-185.199 669.192,-211.744"/>
<polygon fill="#9a32cd" stroke="#9a32cd" points="500.224,-46.6446 490.247,-50.2099 500.27,-53.6445 500.224,-46.6446"/>
<text text-anchor="middle" x="560" y="-84" font-family="Helvetica,sans-Serif" font-size="10.00"> const_map</text>
</g>
<!-- Node14 -->
<g id="node14" class="node"><title>Node14</title>
<g id="a_node14"><a xlink:title="STL class. ">
<polygon fill="none" stroke="#bfbfbf" points="112.043,-19 112.043,-39 201.957,-39 201.957,-19 112.043,-19"/>
<text text-anchor="middle" x="157" y="-26" font-family="Helvetica,sans-Serif" font-size="10.00">std::map&lt; K, T &gt;</text>
</a>
</g>
</g>
<!-- Node14&#45;&gt;Node13 -->
<g id="edge14" class="edge"><title>Node14&#45;&gt;Node13</title>
<path fill="none" stroke="#9a32cd" stroke-dasharray="5,2" d="M187.449,-43.0062C198.091,-47.3903 210.355,-51.6843 222,-54 264.658,-62.4829 313.505,-63.5591 352.008,-62.477"/>
<polygon fill="#9a32cd" stroke="#9a32cd" points="188.765,-39.7619 178.197,-39.009 185.988,-46.1879 188.765,-39.7619"/>
<text text-anchor="middle" x="278" y="-66" font-family="Helvetica,sans-Serif" font-size="10.00"> elements</text>
</g>
<!-- Node14&#45;&gt;Node13 -->
<g id="edge18" class="edge"><title>Node14&#45;&gt;Node13</title>
<path fill="none" stroke="orange" stroke-dasharray="5,2" d="M212.163,-22.6775C247.193,-19.9112 293.623,-18.7314 334,-26 351.403,-29.1329 369.883,-35.5651 385.234,-41.8465"/>
<polygon fill="orange" stroke="orange" points="211.804,-19.1954 202.139,-23.5365 212.402,-26.1698 211.804,-19.1954"/>
<text text-anchor="start" x="222.291" y="-41" font-family="Helvetica,sans-Serif" font-size="10.00"> &lt; Type::RingBufferType,</text>
<text text-anchor="middle" x="278" y="-29" font-family="Helvetica,sans-Serif" font-size="10.00"> instr_map_t * &gt;</text>
</g>
<!-- Node14&#45;&gt;Node8 -->
<g id="edge26" class="edge"><title>Node14&#45;&gt;Node8</title>
<path fill="none" stroke="orange" stroke-dasharray="5,2" d="M211.96,-18.3673C299.24,-3.62169 475.393,15.8732 612,-35 722.196,-76.0375 824.802,-179.136 861.625,-218.957"/>
<polygon fill="orange" stroke="orange" points="211.274,-14.9341 202.019,-20.0918 212.47,-21.8311 211.274,-14.9341"/>
<text text-anchor="middle" x="560" y="-38" font-family="Helvetica,sans-Serif" font-size="10.00"> &lt; std::string, PortInfo &gt;</text>
</g>
<!-- Node15 -->
<g id="node15" class="node"><title>Node15</title>
<polygon fill="none" stroke="#bfbfbf" points="0.5,-39 0.5,-59 29.5,-59 29.5,-39 0.5,-39"/>
<text text-anchor="middle" x="15" y="-46" font-family="Helvetica,sans-Serif" font-size="10.00">K</text>
</g>
<!-- Node15&#45;&gt;Node14 -->
<g id="edge15" class="edge"><title>Node15&#45;&gt;Node14</title>
<path fill="none" stroke="#9a32cd" stroke-dasharray="5,2" d="M39.6415,-45.6226C59.3866,-42.8019 88.0723,-38.704 112.021,-35.2828"/>
<polygon fill="#9a32cd" stroke="#9a32cd" points="39.0832,-42.1668 29.6787,-47.0459 40.0732,-49.0964 39.0832,-42.1668"/>
<text text-anchor="middle" x="70" y="-48" font-family="Helvetica,sans-Serif" font-size="10.00"> keys</text>
</g>
<!-- Node16 -->
<g id="node16" class="node"><title>Node16</title>
<polygon fill="none" stroke="#bfbfbf" points="0.5,-0 0.5,-20 29.5,-20 29.5,-0 0.5,-0"/>
<text text-anchor="middle" x="15" y="-7" font-family="Helvetica,sans-Serif" font-size="10.00">T</text>
</g>
<!-- Node16&#45;&gt;Node14 -->
<g id="edge16" class="edge"><title>Node16&#45;&gt;Node14</title>
<path fill="none" stroke="#9a32cd" stroke-dasharray="5,2" d="M39.5192,-10.6394C54.5812,-11.2725 74.5111,-12.526 92,-15 99.3201,-16.0355 107.049,-17.4477 114.507,-18.9786"/>
<polygon fill="#9a32cd" stroke="#9a32cd" points="39.6361,-7.14145 29.5166,-10.2795 39.3843,-14.1369 39.6361,-7.14145"/>
<text text-anchor="middle" x="70" y="-18" font-family="Helvetica,sans-Serif" font-size="10.00"> elements</text>
</g>
<!-- Node17 -->
<g id="node17" class="node"><title>Node17</title>
<polygon fill="none" stroke="#bfbfbf" points="114.272,-101 114.272,-121 199.728,-121 199.728,-101 114.272,-101"/>
<text text-anchor="middle" x="157" y="-108" font-family="Helvetica,sans-Serif" font-size="10.00">RingBufferType</text>
</g>
<!-- Node17&#45;&gt;Node13 -->
<g id="edge17" class="edge"><title>Node17&#45;&gt;Node13</title>
<path fill="none" stroke="#9a32cd" stroke-dasharray="5,2" d="M209.774,-102.423C244.92,-96.3951 292.391,-87.8546 334,-79 341.216,-77.4645 348.749,-75.7665 356.227,-74.021"/>
<polygon fill="#9a32cd" stroke="#9a32cd" points="209.013,-99.0017 199.743,-104.132 210.189,-105.902 209.013,-99.0017"/>
<text text-anchor="middle" x="278" y="-103" font-family="Helvetica,sans-Serif" font-size="10.00"> keys</text>
</g>
<!-- Node18 -->
<g id="node18" class="node"><title>Node18</title>
<polygon fill="none" stroke="#bfbfbf" points="139.552,-200 139.552,-220 174.448,-220 174.448,-200 139.552,-200"/>
<text text-anchor="middle" x="157" y="-207" font-family="Helvetica,sans-Serif" font-size="10.00">bool</text>
</g>
<!-- Node18&#45;&gt;Node11 -->
<g id="edge19" class="edge"><title>Node18&#45;&gt;Node11</title>
<path fill="none" stroke="#9a32cd" stroke-dasharray="5,2" d="M184.817,-207.172C241.311,-201.623 376.699,-190.48 490,-198 545.837,-201.706 610.778,-211.811 645.355,-217.659"/>
<polygon fill="#9a32cd" stroke="#9a32cd" points="184.199,-203.716 174.6,-208.2 184.9,-210.681 184.199,-203.716"/>
<text text-anchor="middle" x="421" y="-213" font-family="Helvetica,sans-Serif" font-size="10.00"> use_my_allocator</text>
<text text-anchor="middle" x="421" y="-201" font-family="Helvetica,sans-Serif" font-size="10.00">out_of_order</text>
</g>
<!-- Node19 -->
<g id="node19" class="node"><title>Node19</title>
<g id="a_node19"><a xlink:href="class_f_i_f_o.html" target="_top" xlink:title="FIFO">
<polygon fill="none" stroke="black" points="401.612,-232 401.612,-252 440.388,-252 440.388,-232 401.612,-232"/>
<text text-anchor="middle" x="421" y="-239" font-family="Helvetica,sans-Serif" font-size="10.00">FIFO</text>
</a>
</g>
</g>
<!-- Node18&#45;&gt;Node19 -->
<g id="edge22" class="edge"><title>Node18&#45;&gt;Node19</title>
<path fill="none" stroke="#9a32cd" stroke-dasharray="5,2" d="M184.813,-213.275C237.972,-219.768 355.53,-234.126 401.273,-239.713"/>
<polygon fill="#9a32cd" stroke="#9a32cd" points="185.138,-209.789 174.788,-212.05 184.29,-216.737 185.138,-209.789"/>
<text text-anchor="middle" x="278" y="-234" font-family="Helvetica,sans-Serif" font-size="10.00"> valid</text>
</g>
<!-- Node19&#45;&gt;Node11 -->
<g id="edge21" class="edge"><title>Node19&#45;&gt;Node11</title>
<path fill="none" stroke="#9a32cd" stroke-dasharray="5,2" d="M450.745,-234.054C467.336,-229.871 488.68,-225.169 508,-223 556.493,-217.556 613.666,-219.032 645.479,-220.548"/>
<polygon fill="#9a32cd" stroke="#9a32cd" points="449.393,-230.789 440.598,-236.696 451.157,-237.563 449.393,-230.789"/>
<text text-anchor="middle" x="560" y="-238" font-family="Helvetica,sans-Serif" font-size="10.00"> fifo_a</text>
<text text-anchor="middle" x="560" y="-226" font-family="Helvetica,sans-Serif" font-size="10.00">fifo_b</text>
</g>
<!-- Node20 -->
<g id="node20" class="node"><title>Node20</title>
<polygon fill="none" stroke="#bfbfbf" points="400.498,-132 400.498,-152 441.502,-152 441.502,-132 400.498,-132"/>
<text text-anchor="middle" x="421" y="-139" font-family="Helvetica,sans-Serif" font-size="10.00">void *</text>
</g>
<!-- Node20&#45;&gt;Node11 -->
<g id="edge25" class="edge"><title>Node20&#45;&gt;Node11</title>
<path fill="none" stroke="#9a32cd" stroke-dasharray="5,2" d="M451.918,-139.325C490.844,-137.14 560.016,-137.76 612,-163 634.741,-174.042 653.627,-197.788 663.21,-211.551"/>
<polygon fill="#9a32cd" stroke="#9a32cd" points="451.527,-135.843 441.78,-139.998 451.99,-142.828 451.527,-135.843"/>
<text text-anchor="middle" x="560" y="-166" font-family="Helvetica,sans-Serif" font-size="10.00"> existing_buffer</text>
</g>
<!-- Node21 -->
<g id="node21" class="node"><title>Node21</title>
<polygon fill="none" stroke="#bfbfbf" points="855.387,-275 855.387,-295 898.613,-295 898.613,-275 855.387,-275"/>
<text text-anchor="middle" x="877" y="-282" font-family="Helvetica,sans-Serif" font-size="10.00">mutex</text>
</g>
<!-- Node21&#45;&gt;Node7 -->
<g id="edge27" class="edge"><title>Node21&#45;&gt;Node7</title>
<path fill="none" stroke="#9a32cd" stroke-dasharray="5,2" d="M909.176,-285C942.14,-285 993.765,-285 1026.2,-285"/>
<polygon fill="#9a32cd" stroke="#9a32cd" points="908.767,-281.5 898.767,-285 908.767,-288.5 908.767,-281.5"/>
<text text-anchor="middle" x="978" y="-288" font-family="Helvetica,sans-Serif" font-size="10.00"> map_mutex</text>
</g>
</g>
</svg>
