<?xml version="1.0" encoding="UTF-8" standalone="no"?>
<!DOCTYPE svg PUBLIC "-//W3C//DTD SVG 1.1//EN"
 "http://www.w3.org/Graphics/SVG/1.1/DTD/svg11.dtd">
<!-- Generated by graphviz version 2.30.1 (20130404.1610)
 -->
<!-- Title: Allocate::initialize Pages: 1 -->
<svg width="232pt" height="67pt"
 viewBox="0.00 0.00 232.00 67.00" xmlns="http://www.w3.org/2000/svg" xmlns:xlink="http://www.w3.org/1999/xlink">
<g id="graph0" class="graph" transform="scale(1 1) rotate(0) translate(4 63)">
<title>Allocate::initialize</title>
<!-- Node1 -->
<g id="node1" class="node"><title>Node1</title>
<polygon fill="#bfbfbf" stroke="black" points="0.664,-19 0.664,-39 93.336,-39 93.336,-19 0.664,-19"/>
<text text-anchor="middle" x="47" y="-26" font-family="Helvetica,sans-Serif" font-size="10.00">Allocate::initialize</text>
</g>
<!-- Node2 -->
<g id="node2" class="node"><title>Node2</title>
<g id="a_node2"><a xlink:href="struct_port_info.html#a9045e2d4e4d53e6a876cd277060fecb0" target="_top" xlink:title="PortInfo::getFIFO">
<polygon fill="none" stroke="black" points="130.379,-39 130.379,-59 223.621,-59 223.621,-39 130.379,-39"/>
<text text-anchor="middle" x="177" y="-46" font-family="Helvetica,sans-Serif" font-size="10.00">PortInfo::getFIFO</text>
</a>
</g>
</g>
<!-- Node1&#45;&gt;Node2 -->
<g id="edge1" class="edge"><title>Node1&#45;&gt;Node2</title>
<path fill="none" stroke="midnightblue" d="M93.4884,-36.1076C102.155,-37.4617 111.317,-38.8933 120.261,-40.2907"/>
<polygon fill="midnightblue" stroke="midnightblue" points="119.806,-43.7621 130.227,-41.8479 120.887,-36.846 119.806,-43.7621"/>
</g>
<!-- Node3 -->
<g id="node3" class="node"><title>Node3</title>
<g id="a_node3"><a xlink:href="struct_port_info.html#a8eadd0276864dc2d7752381ff0cfeb8b" target="_top" xlink:title="PortInfo::setFIFO">
<polygon fill="none" stroke="black" points="130.658,-0 130.658,-20 223.342,-20 223.342,-0 130.658,-0"/>
<text text-anchor="middle" x="177" y="-7" font-family="Helvetica,sans-Serif" font-size="10.00">PortInfo::setFIFO</text>
</a>
</g>
</g>
<!-- Node1&#45;&gt;Node3 -->
<g id="edge2" class="edge"><title>Node1&#45;&gt;Node3</title>
<path fill="none" stroke="midnightblue" d="M93.4884,-22.2478C102.155,-20.9614 111.317,-19.6013 120.261,-18.2738"/>
<polygon fill="midnightblue" stroke="midnightblue" points="120.849,-21.7249 130.227,-16.7945 119.821,-14.8008 120.849,-21.7249"/>
</g>
</g>
</svg>
