<?xml version="1.0" encoding="UTF-8" standalone="no"?>
<!DOCTYPE svg PUBLIC "-//W3C//DTD SVG 1.1//EN"
 "http://www.w3.org/Graphics/SVG/1.1/DTD/svg11.dtd">
<!-- Generated by graphviz version 2.30.1 (20130404.1610)
 -->
<!-- Title: PortNotFoundException Pages: 1 -->
<svg width="130pt" height="146pt"
 viewBox="0.00 0.00 130.00 146.00" xmlns="http://www.w3.org/2000/svg" xmlns:xlink="http://www.w3.org/1999/xlink">
<g id="graph0" class="graph" transform="scale(1 1) rotate(0) translate(4 142)">
<title>PortNotFoundException</title>
<!-- Node1 -->
<g id="node1" class="node"><title>Node1</title>
<polygon fill="#bfbfbf" stroke="black" points="-0.0705,-1 -0.0705,-21 122.07,-21 122.07,-1 -0.0705,-1"/>
<text text-anchor="middle" x="61" y="-8" font-family="Helvetica,sans-Serif" font-size="10.00">PortNotFoundException</text>
</g>
<!-- Node2 -->
<g id="node2" class="node"><title>Node2</title>
<g id="a_node2"><a xlink:href="class_port_exception.html" target="_top" xlink:title="PortException">
<polygon fill="none" stroke="black" points="21.8805,-59 21.8805,-79 100.12,-79 100.12,-59 21.8805,-59"/>
<text text-anchor="middle" x="61" y="-66" font-family="Helvetica,sans-Serif" font-size="10.00">PortException</text>
</a>
</g>
</g>
<!-- Node2&#45;&gt;Node1 -->
<g id="edge1" class="edge"><title>Node2&#45;&gt;Node1</title>
<path fill="none" stroke="midnightblue" d="M61,-48.7065C61,-39.3384 61,-28.5262 61,-21.0752"/>
<polygon fill="midnightblue" stroke="midnightblue" points="57.5001,-48.7527 61,-58.7527 64.5001,-48.7528 57.5001,-48.7527"/>
</g>
<!-- Node3 -->
<g id="node3" class="node"><title>Node3</title>
<g id="a_node3"><a xlink:title="STL class. ">
<polygon fill="none" stroke="#bfbfbf" points="22.1555,-117 22.1555,-137 99.8445,-137 99.8445,-117 22.1555,-117"/>
<text text-anchor="middle" x="61" y="-124" font-family="Helvetica,sans-Serif" font-size="10.00">std::exception</text>
</a>
</g>
</g>
<!-- Node3&#45;&gt;Node2 -->
<g id="edge2" class="edge"><title>Node3&#45;&gt;Node2</title>
<path fill="none" stroke="midnightblue" d="M61,-106.707C61,-97.3384 61,-86.5262 61,-79.0752"/>
<polygon fill="midnightblue" stroke="midnightblue" points="57.5001,-106.753 61,-116.753 64.5001,-106.753 57.5001,-106.753"/>
</g>
</g>
</svg>
