<?xml version="1.0" encoding="UTF-8" standalone="no"?>
<!DOCTYPE svg PUBLIC "-//W3C//DTD SVG 1.1//EN"
 "http://www.w3.org/Graphics/SVG/1.1/DTD/svg11.dtd">
<!-- Generated by graphviz version 2.30.1 (20130404.1610)
 -->
<!-- Title: raft::parallel_k Pages: 1 -->
<!--zoomable 580 -->
<svg id="main" version="1.1" xmlns="http://www.w3.org/2000/svg" xmlns:xlink="http://www.w3.org/1999/xlink" xml:space="preserve" onload="init(evt)">
<style type="text/css"><![CDATA[
.edge:hover path { stroke: red; }
.edge:hover polygon { stroke: red; fill: red; }
]]></style>
<script type="text/javascript"><![CDATA[
var edges = document.getElementsByTagName('g');
if (edges && edges.length) {
  for (var i=0;i<edges.length;i++) {
    if (edges[i].id.substr(0,4)=='edge') {
      edges[i].setAttribute('class','edge');
    }
  }
}
]]></script>
        <defs>
                <circle id="rim" cx="0" cy="0" r="7"/>
                <circle id="rim2" cx="0" cy="0" r="3.5"/>
                <g id="zoomPlus">
                        <use xlink:href="#rim" fill="#404040">
                                <set attributeName="fill" to="#808080" begin="zoomplus.mouseover" end="zoomplus.mouseout"/>
                        </use>
                        <path d="M-4,0h8M0,-4v8" fill="none" stroke="white" stroke-width="1.5" pointer-events="none"/>
                </g>
                <g id="zoomMin">
                        <use xlink:href="#rim" fill="#404040">
                                <set attributeName="fill" to="#808080" begin="zoomminus.mouseover" end="zoomminus.mouseout"/>
                        </use>
                        <path d="M-4,0h8" fill="none" stroke="white" stroke-width="1.5" pointer-events="none"/>
                </g>
                <g id="dirArrow">
                        <path fill="none" stroke="white" stroke-width="1.5" d="M0,-3.0v7 M-2.5,-0.5L0,-3.0L2.5,-0.5"/>
                </g>
               <g id="resetDef">
                       <use xlink:href="#rim2" fill="#404040">
                               <set attributeName="fill" to="#808080" begin="reset.mouseover" end="reset.mouseout"/>
                       </use>
               </g>
        </defs>

<script type="text/javascript">
var viewWidth = 1208;
var viewHeight = 580;
var sectionId = 'dynsection-1';
</script>
<script xlink:href="svgpan.js"/>
<svg id="graph" class="graph">
<g id="viewport">
<title>raft::parallel_k</title>
<!-- Node1 -->
<g id="node1" class="node"><title>Node1</title>
<polygon fill="#bfbfbf" stroke="black" points="630.607,-506.566 630.607,-526.566 709.393,-526.566 709.393,-506.566 630.607,-506.566"/>
<text text-anchor="middle" x="670" y="-513.566" font-family="Helvetica,sans-Serif" font-size="10.00">raft::parallel_k</text>
</g>
<!-- Node2 -->
<g id="node2" class="node"><title>Node2</title>
<g id="a_node2"><a xlink:href="classraft_1_1kernel.html" target="_top" xlink:title="raft::kernel">
<polygon fill="none" stroke="black" points="389.385,-459.566 389.385,-479.566 452.615,-479.566 452.615,-459.566 389.385,-459.566"/>
<text text-anchor="middle" x="421" y="-466.566" font-family="Helvetica,sans-Serif" font-size="10.00">raft::kernel</text>
</a>
</g>
</g>
<!-- Node2&#45;&gt;Node1 -->
<g id="edge1" class="edge"><title>Node2&#45;&gt;Node1</title>
<path fill="none" stroke="midnightblue" d="M462.825,-477.334C509.388,-486.195 584.947,-500.572 630.512,-509.243"/>
<polygon fill="midnightblue" stroke="midnightblue" points="463.261,-473.855 452.783,-475.424 461.953,-480.731 463.261,-473.855"/>
</g>
<!-- Node11 -->
<g id="node11" class="node"><title>Node11</title>
<g id="a_node11"><a xlink:href="struct_port_info.html" target="_top" xlink:title="PortInfo">
<polygon fill="none" stroke="black" points="644.494,-190.566 644.494,-210.566 695.506,-210.566 695.506,-190.566 644.494,-190.566"/>
<text text-anchor="middle" x="670" y="-197.566" font-family="Helvetica,sans-Serif" font-size="10.00">PortInfo</text>
</a>
</g>
</g>
<!-- Node2&#45;&gt;Node11 -->
<g id="edge24" class="edge"><title>Node2&#45;&gt;Node11</title>
<path fill="none" stroke="#9a32cd" stroke-dasharray="5,2" d="M437.171,-452.02C453.444,-433.891 480.653,-405.507 508,-385.566 550.249,-354.759 576.405,-368.868 612,-330.566 645.888,-294.101 661.786,-234.242 666.985,-210.611"/>
<polygon fill="#9a32cd" stroke="#9a32cd" points="434.505,-449.75 430.502,-459.56 439.749,-454.388 434.505,-449.75"/>
<text text-anchor="middle" x="560" y="-400.566" font-family="Helvetica,sans-Serif" font-size="10.00"> my_kernel</text>
<text text-anchor="middle" x="560" y="-388.566" font-family="Helvetica,sans-Serif" font-size="10.00">other_kernel</text>
</g>
<!-- Node4 -->
<g id="node4" class="node"><title>Node4</title>
<g id="a_node4"><a xlink:href="class_port.html" target="_top" xlink:title="Port">
<polygon fill="none" stroke="black" points="1165.83,-388.566 1165.83,-408.566 1200.17,-408.566 1200.17,-388.566 1165.83,-388.566"/>
<text text-anchor="middle" x="1183" y="-395.566" font-family="Helvetica,sans-Serif" font-size="10.00">Port</text>
</a>
</g>
</g>
<!-- Node2&#45;&gt;Node4 -->
<g id="edge28" class="edge"><title>Node2&#45;&gt;Node4</title>
<path fill="none" stroke="#9a32cd" stroke-dasharray="5,2" d="M462.902,-469.999C549.365,-470.518 756.975,-469.674 930,-452.566 1027.72,-442.903 1054.95,-447.949 1148,-416.566 1153.95,-414.56 1160.11,-411.6 1165.53,-408.657"/>
<polygon fill="#9a32cd" stroke="#9a32cd" points="462.751,-466.498 452.727,-469.928 462.702,-473.498 462.751,-466.498"/>
<text text-anchor="middle" x="875" y="-463.566" font-family="Helvetica,sans-Serif" font-size="10.00"> kernel</text>
</g>
<!-- Node3 -->
<g id="node3" class="node"><title>Node3</title>
<polygon fill="none" stroke="#bfbfbf" points="135.942,-489.566 135.942,-509.566 178.058,-509.566 178.058,-489.566 135.942,-489.566"/>
<text text-anchor="middle" x="157" y="-496.566" font-family="Helvetica,sans-Serif" font-size="10.00">size_t</text>
</g>
<!-- Node3&#45;&gt;Node2 -->
<g id="edge2" class="edge"><title>Node3&#45;&gt;Node2</title>
<path fill="none" stroke="#9a32cd" stroke-dasharray="5,2" d="M188.343,-496.092C238.592,-490.338 338.55,-478.892 389.139,-473.1"/>
<polygon fill="#9a32cd" stroke="#9a32cd" points="187.661,-492.647 178.124,-497.262 188.457,-499.601 187.661,-492.647"/>
<text text-anchor="middle" x="278" y="-493.566" font-family="Helvetica,sans-Serif" font-size="10.00"> kernel_count</text>
</g>
<!-- Node3&#45;&gt;Node4 -->
<g id="edge6" class="edge"><title>Node3&#45;&gt;Node4</title>
<path fill="none" stroke="#9a32cd" stroke-dasharray="5,2" d="M187.839,-511.026C235.945,-528.44 333.959,-559.566 420,-559.566 420,-559.566 420,-559.566 1056,-559.566 1133.02,-559.566 1170,-443.884 1179.48,-408.637"/>
<polygon fill="#9a32cd" stroke="#9a32cd" points="188.947,-507.704 178.354,-507.534 186.529,-514.273 188.947,-507.704"/>
<text text-anchor="middle" x="765" y="-562.566" font-family="Helvetica,sans-Serif" font-size="10.00"> alloc_ptr_length</text>
</g>
<!-- Node3&#45;&gt;Node11 -->
<g id="edge23" class="edge"><title>Node3&#45;&gt;Node11</title>
<path fill="none" stroke="#9a32cd" stroke-dasharray="5,2" d="M184.948,-484.717C242.715,-453.353 383.361,-379.477 508,-333.566 552.918,-317.021 574.427,-335.225 612,-305.566 644.073,-280.248 660.538,-231.718 666.424,-210.693"/>
<polygon fill="#9a32cd" stroke="#9a32cd" points="183.192,-481.688 176.088,-489.548 186.543,-487.834 183.192,-481.688"/>
<text text-anchor="middle" x="421" y="-412.566" font-family="Helvetica,sans-Serif" font-size="10.00"> nitems</text>
<text text-anchor="middle" x="421" y="-400.566" font-family="Helvetica,sans-Serif" font-size="10.00">start_index</text>
</g>
<!-- Node3&#45;&gt;Node1 -->
<g id="edge29" class="edge"><title>Node3&#45;&gt;Node1</title>
<path fill="none" stroke="#9a32cd" stroke-dasharray="5,2" d="M188.244,-502.833C198.901,-503.869 210.971,-504.914 222,-505.566 372.916,-514.487 552.908,-516.201 630.397,-516.51"/>
<polygon fill="#9a32cd" stroke="#9a32cd" points="188.451,-499.336 178.15,-501.814 187.748,-506.3 188.451,-499.336"/>
<text text-anchor="middle" x="421" y="-517.566" font-family="Helvetica,sans-Serif" font-size="10.00"> port_name_index</text>
</g>
<!-- Node4&#45;&gt;Node2 -->
<g id="edge3" class="edge"><title>Node4&#45;&gt;Node2</title>
<path fill="none" stroke="#9a32cd" stroke-dasharray="5,2" d="M1155.52,-400.912C1152.98,-401.135 1150.44,-401.355 1148,-401.566 863.602,-426.111 791.306,-420.607 508,-455.566 489.684,-457.826 469.294,-461.112 452.966,-463.932"/>
<polygon fill="#9a32cd" stroke="#9a32cd" points="1156.09,-404.376 1165.74,-400.013 1155.48,-397.403 1156.09,-404.376"/>
<text text-anchor="middle" x="875" y="-439.566" font-family="Helvetica,sans-Serif" font-size="10.00"> output</text>
<text text-anchor="middle" x="875" y="-427.566" font-family="Helvetica,sans-Serif" font-size="10.00">input</text>
</g>
<!-- Node5 -->
<g id="node5" class="node"><title>Node5</title>
<g id="a_node5"><a xlink:href="class_port_base.html" target="_top" xlink:title="PortBase">
<polygon fill="none" stroke="black" points="1026.44,-327.566 1026.44,-347.566 1083.56,-347.566 1083.56,-327.566 1026.44,-327.566"/>
<text text-anchor="middle" x="1055" y="-334.566" font-family="Helvetica,sans-Serif" font-size="10.00">PortBase</text>
</a>
</g>
</g>
<!-- Node5&#45;&gt;Node4 -->
<g id="edge4" class="edge"><title>Node5&#45;&gt;Node4</title>
<path fill="none" stroke="midnightblue" d="M1089.86,-351.572C1107.43,-359.111 1129.11,-368.84 1148,-378.566 1153.85,-381.576 1160.09,-385.14 1165.61,-388.421"/>
<polygon fill="midnightblue" stroke="midnightblue" points="1091.14,-348.313 1080.56,-347.623 1088.4,-354.755 1091.14,-348.313"/>
</g>
<!-- Node6 -->
<g id="node6" class="node"><title>Node6</title>
<polygon fill="none" stroke="#bfbfbf" points="1022.55,-288.566 1022.55,-308.566 1087.45,-308.566 1087.45,-288.566 1022.55,-288.566"/>
<text text-anchor="middle" x="1055" y="-295.566" font-family="Helvetica,sans-Serif" font-size="10.00">void *const</text>
</g>
<!-- Node6&#45;&gt;Node4 -->
<g id="edge5" class="edge"><title>Node6&#45;&gt;Node4</title>
<path fill="none" stroke="#9a32cd" stroke-dasharray="5,2" d="M1097.39,-312.357C1114.43,-319.473 1133.52,-329.456 1148,-342.566 1162.34,-355.541 1172.63,-375.979 1177.92,-388.246"/>
<polygon fill="#9a32cd" stroke="#9a32cd" points="1098.23,-308.927 1087.65,-308.497 1095.66,-315.435 1098.23,-308.927"/>
<text text-anchor="middle" x="1127" y="-345.566" font-family="Helvetica,sans-Serif" font-size="10.00"> alloc_ptr</text>
</g>
<!-- Node7 -->
<g id="node7" class="node"><title>Node7</title>
<g id="a_node7"><a xlink:href="structportmap__t.html" target="_top" xlink:title="portmap_t">
<polygon fill="none" stroke="black" points="1024.49,-366.566 1024.49,-386.566 1085.51,-386.566 1085.51,-366.566 1024.49,-366.566"/>
<text text-anchor="middle" x="1055" y="-373.566" font-family="Helvetica,sans-Serif" font-size="10.00">portmap_t</text>
</a>
</g>
</g>
<!-- Node7&#45;&gt;Node4 -->
<g id="edge7" class="edge"><title>Node7&#45;&gt;Node4</title>
<path fill="none" stroke="#9a32cd" stroke-dasharray="5,2" d="M1095.82,-381.146C1112.07,-383.287 1131.01,-386.13 1148,-389.566 1153.75,-390.728 1159.96,-392.284 1165.49,-393.776"/>
<polygon fill="#9a32cd" stroke="#9a32cd" points="1095.93,-377.633 1085.57,-379.841 1095.05,-384.577 1095.93,-377.633"/>
<text text-anchor="middle" x="1127" y="-392.566" font-family="Helvetica,sans-Serif" font-size="10.00"> portmap</text>
</g>
<!-- Node8 -->
<g id="node8" class="node"><title>Node8</title>
<polygon fill="none" stroke="#bfbfbf" points="820.46,-268.566 820.46,-300.566 929.54,-300.566 929.54,-268.566 820.46,-268.566"/>
<text text-anchor="start" x="828.46" y="-287.566" font-family="Helvetica,sans-Serif" font-size="10.00">std::map&lt; std::string,</text>
<text text-anchor="middle" x="875" y="-275.566" font-family="Helvetica,sans-Serif" font-size="10.00"> PortInfo &gt;</text>
</g>
<!-- Node8&#45;&gt;Node7 -->
<g id="edge8" class="edge"><title>Node8&#45;&gt;Node7</title>
<path fill="none" stroke="#9a32cd" stroke-dasharray="5,2" d="M915.997,-305.239C952.842,-324.282 1005.97,-351.74 1034.36,-366.413"/>
<polygon fill="#9a32cd" stroke="#9a32cd" points="917.496,-302.074 907.005,-300.591 914.282,-308.292 917.496,-302.074"/>
<text text-anchor="middle" x="976" y="-351.566" font-family="Helvetica,sans-Serif" font-size="10.00"> map</text>
</g>
<!-- Node9 -->
<g id="node9" class="node"><title>Node9</title>
<g id="a_node9"><a xlink:title="STL class. ">
<polygon fill="none" stroke="#bfbfbf" points="391.329,-274.566 391.329,-294.566 450.671,-294.566 450.671,-274.566 391.329,-274.566"/>
<text text-anchor="middle" x="421" y="-281.566" font-family="Helvetica,sans-Serif" font-size="10.00">std::string</text>
</a>
</g>
</g>
<!-- Node9&#45;&gt;Node8 -->
<g id="edge9" class="edge"><title>Node9&#45;&gt;Node8</title>
<path fill="none" stroke="#9a32cd" stroke-dasharray="5,2" d="M460.689,-291.774C471.448,-295.484 482.284,-301.093 490,-309.566 511.049,-332.682 483.226,-358.497 508,-377.566 544.628,-405.76 566.448,-385.411 612,-377.566 697.382,-362.862 791.839,-323.055 840.668,-300.578"/>
<polygon fill="#9a32cd" stroke="#9a32cd" points="461.504,-288.366 450.922,-288.874 459.511,-295.076 461.504,-288.366"/>
<text text-anchor="middle" x="670" y="-376.566" font-family="Helvetica,sans-Serif" font-size="10.00"> keys</text>
</g>
<!-- Node9&#45;&gt;Node11 -->
<g id="edge20" class="edge"><title>Node9&#45;&gt;Node11</title>
<path fill="none" stroke="#9a32cd" stroke-dasharray="5,2" d="M460.998,-282.201C508.702,-278.799 586.286,-271.468 612,-258.566 634.209,-247.423 652.822,-224.187 662.286,-210.754"/>
<polygon fill="#9a32cd" stroke="#9a32cd" points="460.749,-278.71 451.013,-282.887 461.229,-285.694 460.749,-278.71"/>
<text text-anchor="middle" x="560" y="-292.566" font-family="Helvetica,sans-Serif" font-size="10.00"> my_name</text>
<text text-anchor="middle" x="560" y="-280.566" font-family="Helvetica,sans-Serif" font-size="10.00">other_name</text>
</g>
<!-- Node10 -->
<g id="node10" class="node"><title>Node10</title>
<g id="a_node10"><a xlink:title="STL class. ">
<polygon fill="none" stroke="#bfbfbf" points="109.962,-268.566 109.962,-300.566 204.038,-300.566 204.038,-268.566 109.962,-268.566"/>
<text text-anchor="start" x="117.962" y="-287.566" font-family="Helvetica,sans-Serif" font-size="10.00">std::basic_string&lt;</text>
<text text-anchor="middle" x="157" y="-275.566" font-family="Helvetica,sans-Serif" font-size="10.00"> char &gt;</text>
</a>
</g>
</g>
<!-- Node10&#45;&gt;Node9 -->
<g id="edge10" class="edge"><title>Node10&#45;&gt;Node9</title>
<path fill="none" stroke="midnightblue" d="M214.411,-284.566C268.775,-284.566 348.842,-284.566 391.228,-284.566"/>
<polygon fill="midnightblue" stroke="midnightblue" points="214.237,-281.066 204.237,-284.566 214.237,-288.066 214.237,-281.066"/>
</g>
<!-- Node11&#45;&gt;Node8 -->
<g id="edge11" class="edge"><title>Node11&#45;&gt;Node8</title>
<path fill="none" stroke="#9a32cd" stroke-dasharray="5,2" d="M706.143,-200.18C733.47,-201.145 771.702,-205.332 802,-219.566 826.235,-230.951 848.14,-253.268 861.261,-268.546"/>
<polygon fill="#9a32cd" stroke="#9a32cd" points="705.957,-196.675 695.881,-199.95 705.8,-203.673 705.957,-196.675"/>
<text text-anchor="middle" x="765" y="-222.566" font-family="Helvetica,sans-Serif" font-size="10.00"> elements</text>
</g>
<!-- Node12 -->
<g id="node12" class="node"><title>Node12</title>
<polygon fill="none" stroke="#bfbfbf" points="388.824,-106.566 388.824,-126.566 453.176,-126.566 453.176,-106.566 388.824,-106.566"/>
<text text-anchor="middle" x="421" y="-113.566" font-family="Helvetica,sans-Serif" font-size="10.00">type_index</text>
</g>
<!-- Node12&#45;&gt;Node11 -->
<g id="edge12" class="edge"><title>Node12&#45;&gt;Node11</title>
<path fill="none" stroke="#9a32cd" stroke-dasharray="5,2" d="M463.67,-117.631C503.539,-120.09 564.464,-127.687 612,-150.566 631.927,-160.157 650.248,-178.693 660.488,-190.303"/>
<polygon fill="#9a32cd" stroke="#9a32cd" points="463.683,-114.126 453.511,-117.087 463.31,-121.116 463.683,-114.126"/>
<text text-anchor="middle" x="560" y="-153.566" font-family="Helvetica,sans-Serif" font-size="10.00"> type</text>
</g>
<!-- Node13 -->
<g id="node13" class="node"><title>Node13</title>
<polygon fill="none" stroke="#bfbfbf" points="352.012,-184.566 352.012,-216.566 489.988,-216.566 489.988,-184.566 352.012,-184.566"/>
<text text-anchor="start" x="360.012" y="-203.566" font-family="Helvetica,sans-Serif" font-size="10.00">std::map&lt; Type::RingBuffer</text>
<text text-anchor="middle" x="421" y="-191.566" font-family="Helvetica,sans-Serif" font-size="10.00">Type, instr_map_t * &gt;</text>
</g>
<!-- Node13&#45;&gt;Node11 -->
<g id="edge13" class="edge"><title>Node13&#45;&gt;Node11</title>
<path fill="none" stroke="#9a32cd" stroke-dasharray="5,2" d="M500.247,-200.566C549.955,-200.566 611.014,-200.566 644.365,-200.566"/>
<polygon fill="#9a32cd" stroke="#9a32cd" points="500.148,-197.066 490.148,-200.566 500.148,-204.066 500.148,-197.066"/>
<text text-anchor="middle" x="560" y="-203.566" font-family="Helvetica,sans-Serif" font-size="10.00"> const_map</text>
</g>
<!-- Node14 -->
<g id="node14" class="node"><title>Node14</title>
<g id="a_node14"><a xlink:title="STL class. ">
<polygon fill="none" stroke="#bfbfbf" points="112.043,-208.566 112.043,-228.566 201.957,-228.566 201.957,-208.566 112.043,-208.566"/>
<text text-anchor="middle" x="157" y="-215.566" font-family="Helvetica,sans-Serif" font-size="10.00">std::map&lt; K, T &gt;</text>
</a>
</g>
</g>
<!-- Node14&#45;&gt;Node13 -->
<g id="edge14" class="edge"><title>Node14&#45;&gt;Node13</title>
<path fill="none" stroke="#9a32cd" stroke-dasharray="5,2" d="M212.372,-214.831C252.905,-212.046 308.53,-208.224 352.005,-205.238"/>
<polygon fill="#9a32cd" stroke="#9a32cd" points="211.885,-211.356 202.148,-215.533 212.365,-218.339 211.885,-211.356"/>
<text text-anchor="middle" x="278" y="-216.566" font-family="Helvetica,sans-Serif" font-size="10.00"> elements</text>
</g>
<!-- Node14&#45;&gt;Node13 -->
<g id="edge18" class="edge"><title>Node14&#45;&gt;Node13</title>
<path fill="none" stroke="orange" stroke-dasharray="5,2" d="M177.699,-202.189C189.691,-193.307 205.784,-183.217 222,-178.566 271.038,-164.502 329.298,-173.948 369.874,-184.481"/>
<polygon fill="orange" stroke="orange" points="175.51,-199.457 169.748,-208.348 179.797,-204.991 175.51,-199.457"/>
<text text-anchor="start" x="222.291" y="-193.566" font-family="Helvetica,sans-Serif" font-size="10.00"> &lt; Type::RingBufferType,</text>
<text text-anchor="middle" x="278" y="-181.566" font-family="Helvetica,sans-Serif" font-size="10.00"> instr_map_t * &gt;</text>
</g>
<!-- Node14&#45;&gt;Node8 -->
<g id="edge26" class="edge"><title>Node14&#45;&gt;Node8</title>
<path fill="none" stroke="orange" stroke-dasharray="5,2" d="M212.051,-228.381C215.411,-228.829 218.748,-229.23 222,-229.566 394.525,-247.407 439.346,-227.018 612,-243.566 684.411,-250.507 767.241,-264.498 820.046,-274.192"/>
<polygon fill="orange" stroke="orange" points="212.359,-224.889 201.96,-226.921 211.356,-231.817 212.359,-224.889"/>
<text text-anchor="middle" x="560" y="-246.566" font-family="Helvetica,sans-Serif" font-size="10.00"> &lt; std::string, PortInfo &gt;</text>
</g>
<!-- Node15 -->
<g id="node15" class="node"><title>Node15</title>
<polygon fill="none" stroke="#bfbfbf" points="0.5,-228.566 0.5,-248.566 29.5,-248.566 29.5,-228.566 0.5,-228.566"/>
<text text-anchor="middle" x="15" y="-235.566" font-family="Helvetica,sans-Serif" font-size="10.00">K</text>
</g>
<!-- Node15&#45;&gt;Node14 -->
<g id="edge15" class="edge"><title>Node15&#45;&gt;Node14</title>
<path fill="none" stroke="#9a32cd" stroke-dasharray="5,2" d="M39.6415,-235.189C59.3866,-232.368 88.0723,-228.27 112.021,-224.849"/>
<polygon fill="#9a32cd" stroke="#9a32cd" points="39.0832,-231.733 29.6787,-236.612 40.0732,-238.663 39.0832,-231.733"/>
<text text-anchor="middle" x="70" y="-236.566" font-family="Helvetica,sans-Serif" font-size="10.00"> keys</text>
</g>
<!-- Node16 -->
<g id="node16" class="node"><title>Node16</title>
<polygon fill="none" stroke="#bfbfbf" points="0.5,-189.566 0.5,-209.566 29.5,-209.566 29.5,-189.566 0.5,-189.566"/>
<text text-anchor="middle" x="15" y="-196.566" font-family="Helvetica,sans-Serif" font-size="10.00">T</text>
</g>
<!-- Node16&#45;&gt;Node14 -->
<g id="edge16" class="edge"><title>Node16&#45;&gt;Node14</title>
<path fill="none" stroke="#9a32cd" stroke-dasharray="5,2" d="M39.5192,-200.206C54.5812,-200.839 74.5111,-202.092 92,-204.566 99.3201,-205.602 107.049,-207.014 114.507,-208.545"/>
<polygon fill="#9a32cd" stroke="#9a32cd" points="39.6361,-196.708 29.5166,-199.846 39.3843,-203.703 39.6361,-196.708"/>
<text text-anchor="middle" x="70" y="-207.566" font-family="Helvetica,sans-Serif" font-size="10.00"> elements</text>
</g>
<!-- Node17 -->
<g id="node17" class="node"><title>Node17</title>
<polygon fill="none" stroke="#bfbfbf" points="114.272,-126.566 114.272,-146.566 199.728,-146.566 199.728,-126.566 114.272,-126.566"/>
<text text-anchor="middle" x="157" y="-133.566" font-family="Helvetica,sans-Serif" font-size="10.00">RingBufferType</text>
</g>
<!-- Node17&#45;&gt;Node13 -->
<g id="edge17" class="edge"><title>Node17&#45;&gt;Node13</title>
<path fill="none" stroke="#9a32cd" stroke-dasharray="5,2" d="M210.274,-132.305C246.822,-131.551 295.74,-135.134 334,-154.566 344.662,-159.982 342.141,-167.798 352,-174.566 357.418,-178.286 363.441,-181.567 369.6,-184.435"/>
<polygon fill="#9a32cd" stroke="#9a32cd" points="209.715,-128.821 199.834,-132.644 209.943,-135.817 209.715,-128.821"/>
<text text-anchor="middle" x="278" y="-157.566" font-family="Helvetica,sans-Serif" font-size="10.00"> keys</text>
</g>
<!-- Node18 -->
<g id="node18" class="node"><title>Node18</title>
<polygon fill="none" stroke="#bfbfbf" points="139.552,-35.5661 139.552,-55.5661 174.448,-55.5661 174.448,-35.5661 139.552,-35.5661"/>
<text text-anchor="middle" x="157" y="-42.5661" font-family="Helvetica,sans-Serif" font-size="10.00">bool</text>
</g>
<!-- Node18&#45;&gt;Node11 -->
<g id="edge19" class="edge"><title>Node18&#45;&gt;Node11</title>
<path fill="none" stroke="#9a32cd" stroke-dasharray="5,2" d="M184.465,-36.7028C261.299,-12.8015 486.861,44.1351 612,-64.5661 651.428,-98.815 664.213,-164.841 667.78,-190.251"/>
<polygon fill="#9a32cd" stroke="#9a32cd" points="183.101,-33.464 174.636,-39.8355 185.226,-40.1334 183.101,-33.464"/>
<text text-anchor="middle" x="421" y="-22.5661" font-family="Helvetica,sans-Serif" font-size="10.00"> use_my_allocator</text>
<text text-anchor="middle" x="421" y="-10.5661" font-family="Helvetica,sans-Serif" font-size="10.00">out_of_order</text>
</g>
<!-- Node19 -->
<g id="node19" class="node"><title>Node19</title>
<g id="a_node19"><a xlink:href="class_f_i_f_o.html" target="_top" xlink:title="FIFO">
<polygon fill="none" stroke="black" points="401.612,-66.5661 401.612,-86.5661 440.388,-86.5661 440.388,-66.5661 401.612,-66.5661"/>
<text text-anchor="middle" x="421" y="-73.5661" font-family="Helvetica,sans-Serif" font-size="10.00">FIFO</text>
</a>
</g>
</g>
<!-- Node18&#45;&gt;Node19 -->
<g id="edge22" class="edge"><title>Node18&#45;&gt;Node19</title>
<path fill="none" stroke="#9a32cd" stroke-dasharray="5,2" d="M184.813,-48.7387C237.972,-55.0284 355.53,-68.9379 401.273,-74.3504"/>
<polygon fill="#9a32cd" stroke="#9a32cd" points="185.13,-45.2518 174.788,-47.5525 184.307,-52.2033 185.13,-45.2518"/>
<text text-anchor="middle" x="278" y="-69.5661" font-family="Helvetica,sans-Serif" font-size="10.00"> valid</text>
</g>
<!-- Node19&#45;&gt;Node11 -->
<g id="edge21" class="edge"><title>Node19&#45;&gt;Node11</title>
<path fill="none" stroke="#9a32cd" stroke-dasharray="5,2" d="M450.678,-71.4508C490.437,-65.9767 562.941,-62.006 612,-94.5661 646.645,-117.559 661.871,-168.857 666.934,-190.561"/>
<polygon fill="#9a32cd" stroke="#9a32cd" points="449.978,-68.0166 440.611,-72.9674 451.021,-74.9385 449.978,-68.0166"/>
<text text-anchor="middle" x="560" y="-109.566" font-family="Helvetica,sans-Serif" font-size="10.00"> fifo_a</text>
<text text-anchor="middle" x="560" y="-97.5661" font-family="Helvetica,sans-Serif" font-size="10.00">fifo_b</text>
</g>
<!-- Node20 -->
<g id="node20" class="node"><title>Node20</title>
<polygon fill="none" stroke="#bfbfbf" points="400.498,-145.566 400.498,-165.566 441.502,-165.566 441.502,-145.566 400.498,-145.566"/>
<text text-anchor="middle" x="421" y="-152.566" font-family="Helvetica,sans-Serif" font-size="10.00">void *</text>
</g>
<!-- Node20&#45;&gt;Node11 -->
<g id="edge25" class="edge"><title>Node20&#45;&gt;Node11</title>
<path fill="none" stroke="#9a32cd" stroke-dasharray="5,2" d="M451.812,-158.972C489.399,-163.527 555.892,-172.457 612,-184.566 622.75,-186.886 634.472,-190.062 644.475,-192.973"/>
<polygon fill="#9a32cd" stroke="#9a32cd" points="451.907,-155.458 441.563,-157.752 451.079,-162.409 451.907,-155.458"/>
<text text-anchor="middle" x="560" y="-187.566" font-family="Helvetica,sans-Serif" font-size="10.00"> existing_buffer</text>
</g>
<!-- Node21 -->
<g id="node21" class="node"><title>Node21</title>
<polygon fill="none" stroke="#bfbfbf" points="853.387,-358.566 853.387,-378.566 896.613,-378.566 896.613,-358.566 853.387,-358.566"/>
<text text-anchor="middle" x="875" y="-365.566" font-family="Helvetica,sans-Serif" font-size="10.00">mutex</text>
</g>
<!-- Node21&#45;&gt;Node7 -->
<g id="edge27" class="edge"><title>Node21&#45;&gt;Node7</title>
<path fill="none" stroke="#9a32cd" stroke-dasharray="5,2" d="M907.176,-369.967C940.14,-371.449 991.765,-373.769 1024.2,-375.227"/>
<polygon fill="#9a32cd" stroke="#9a32cd" points="906.914,-366.452 896.767,-369.499 906.6,-373.445 906.914,-366.452"/>
<text text-anchor="middle" x="976" y="-376.566" font-family="Helvetica,sans-Serif" font-size="10.00"> map_mutex</text>
</g>
</g>
</svg>
        <g id="navigator" transform="translate(0 0)" fill="#404254">
                <rect fill="#f2f5e9" fill-opacity="0.5" stroke="#606060" stroke-width=".5" x="0" y="0" width="60" height="60"/>
                <use id="zoomplus" xlink:href="#zoomPlus" x="17" y="9" onmousedown="handleZoom(evt,'in')"/>
                <use id="zoomminus" xlink:href="#zoomMin" x="42" y="9" onmousedown="handleZoom(evt,'out')"/>
                <use id="reset" xlink:href="#resetDef" x="30" y="36" onmousedown="handleReset()"/>
                <g id="arrowUp" xlink:href="#dirArrow" transform="translate(30 24)" onmousedown="handlePan(0,-1)">
                  <use xlink:href="#rim" fill="#404040">
                        <set attributeName="fill" to="#808080" begin="arrowUp.mouseover" end="arrowUp.mouseout"/>
                  </use>
                  <path fill="none" stroke="white" stroke-width="1.5" d="M0,-3.0v7 M-2.5,-0.5L0,-3.0L2.5,-0.5"/>
                </g>
                <g id="arrowRight" xlink:href="#dirArrow" transform="rotate(90) translate(36 -43)" onmousedown="handlePan(1,0)">
                  <use xlink:href="#rim" fill="#404040">
                        <set attributeName="fill" to="#808080" begin="arrowRight.mouseover" end="arrowRight.mouseout"/>
                  </use>
                  <path fill="none" stroke="white" stroke-width="1.5" d="M0,-3.0v7 M-2.5,-0.5L0,-3.0L2.5,-0.5"/>
                </g>
                <g id="arrowDown" xlink:href="#dirArrow" transform="rotate(180) translate(-30 -48)" onmousedown="handlePan(0,1)">
                  <use xlink:href="#rim" fill="#404040">
                        <set attributeName="fill" to="#808080" begin="arrowDown.mouseover" end="arrowDown.mouseout"/>
                  </use>
                  <path fill="none" stroke="white" stroke-width="1.5" d="M0,-3.0v7 M-2.5,-0.5L0,-3.0L2.5,-0.5"/>
                </g>
                <g id="arrowLeft" xlink:href="#dirArrow" transform="rotate(270) translate(-36 17)" onmousedown="handlePan(-1,0)">
                  <use xlink:href="#rim" fill="#404040">
                        <set attributeName="fill" to="#808080" begin="arrowLeft.mouseover" end="arrowLeft.mouseout"/>
                  </use>
                  <path fill="none" stroke="white" stroke-width="1.5" d="M0,-3.0v7 M-2.5,-0.5L0,-3.0L2.5,-0.5"/>
                </g>
        </g>
        <svg viewBox="0 0 15 15" width="100%" height="30px" preserveAspectRatio="xMaxYMin meet">
         <g id="arrow_out" transform="scale(0.3 0.3)">
          <a xlink:href="classraft_1_1parallel__k__coll__graph_org.svg" target="_base">
           <rect id="button" ry="5" rx="5" y="6" x="6" height="38" width="38"
                fill="#f2f5e9" fill-opacity="0.5" stroke="#606060" stroke-width="1.0"/>
           <path id="arrow"
             d="M 11.500037,31.436501 C 11.940474,20.09759 22.043105,11.32322 32.158766,21.979434 L 37.068811,17.246167 C 37.068811,17.246167 37.088388,32 37.088388,32 L 22.160133,31.978069 C 22.160133,31.978069 26.997745,27.140456 26.997745,27.140456 C 18.528582,18.264221 13.291696,25.230495 11.500037,31.436501 z"
             style="fill:#404040;"/>
          </a>
         </g>
        </svg>
</svg>
