<?xml version="1.0" encoding="UTF-8" standalone="no"?>
<!DOCTYPE svg PUBLIC "-//W3C//DTD SVG 1.1//EN"
 "http://www.w3.org/Graphics/SVG/1.1/DTD/svg11.dtd">
<!-- Generated by graphviz version 2.30.1 (20130404.1610)
 -->
<!-- Title: raft::kernel Pages: 1 -->
<svg width="198pt" height="278pt"
 viewBox="0.00 0.00 198.00 278.08" xmlns="http://www.w3.org/2000/svg" xmlns:xlink="http://www.w3.org/1999/xlink">
<g id="graph0" class="graph" transform="scale(1 1) rotate(0) translate(4 274.082)">
<title>raft::kernel</title>
<!-- Node1 -->
<g id="node1" class="node"><title>Node1</title>
<polygon fill="#bfbfbf" stroke="black" points="0.3855,-156 0.3855,-176 63.6145,-176 63.6145,-156 0.3855,-156"/>
<text text-anchor="middle" x="32" y="-163" font-family="Helvetica,sans-Serif" font-size="10.00">raft::kernel</text>
</g>
<!-- Node2 -->
<g id="node2" class="node"><title>Node2</title>
<g id="a_node2"><a xlink:href="class_generate.html" target="_top" xlink:title="Generate\&lt; T \&gt;">
<polygon fill="none" stroke="black" points="104.487,-234 104.487,-254 185.513,-254 185.513,-234 104.487,-234"/>
<text text-anchor="middle" x="145" y="-241" font-family="Helvetica,sans-Serif" font-size="10.00">Generate&lt; T &gt;</text>
</a>
</g>
</g>
<!-- Node1&#45;&gt;Node2 -->
<g id="edge1" class="edge"><title>Node1&#45;&gt;Node2</title>
<path fill="none" stroke="midnightblue" d="M43.5945,-151.078C56.186,-153.431 78.2407,-174.051 100,-188 116.247,-198.416 138.817,-206.259 143.233,-233.853"/>
<polygon fill="midnightblue" stroke="midnightblue" points="41.8166,-148.057 34.519,-155.738 45.0136,-154.284 41.8166,-148.057"/>
</g>
<!-- Node1&#45;&gt;Node2 -->
<g id="edge2" class="edge"><title>Node1&#45;&gt;Node2</title>
<path fill="none" stroke="midnightblue" d="M68.228,-182.45C78.0691,-190.306 89.0718,-198.994 100,-206 114.269,-215.148 133.415,-222.312 140.857,-233.77"/>
<polygon fill="midnightblue" stroke="midnightblue" points="70.2637,-179.597 60.262,-176.102 65.9012,-185.071 70.2637,-179.597"/>
</g>
<!-- Node1&#45;&gt;Node2 -->
<g id="edge3" class="edge"><title>Node1&#45;&gt;Node2</title>
<path fill="none" stroke="midnightblue" d="M49.9651,-183.132C62.8907,-195.552 81.5516,-212.173 100,-224 105.793,-227.713 112.389,-231.1 118.679,-233.988"/>
<polygon fill="midnightblue" stroke="midnightblue" points="52.3031,-180.523 42.7114,-176.023 47.4033,-185.522 52.3031,-180.523"/>
</g>
<!-- Node1&#45;&gt;Node2 -->
<g id="edge4" class="edge"><title>Node1&#45;&gt;Node2</title>
<path fill="none" stroke="midnightblue" d="M40.4415,-185.156C52.2268,-203.678 76.2888,-226.799 100,-242 112.15,-249.789 127.836,-256.14 136.821,-254.01"/>
<polygon fill="midnightblue" stroke="midnightblue" points="43.4342,-183.333 35.5803,-176.222 37.2855,-186.678 43.4342,-183.333"/>
</g>
<!-- Node1&#45;&gt;Node2 -->
<g id="edge5" class="edge"><title>Node1&#45;&gt;Node2</title>
<path fill="none" stroke="midnightblue" d="M36.2832,-186.038C45.5518,-215.119 73.0033,-242.693 100,-260 116.106,-270.325 138.425,-278.123 143.114,-254.273"/>
<polygon fill="midnightblue" stroke="midnightblue" points="39.6363,-185.015 33.8639,-176.131 32.8361,-186.676 39.6363,-185.015"/>
</g>
<!-- Node3 -->
<g id="node3" class="node"><title>Node3</title>
<g id="a_node3"><a xlink:href="classgenerate.html" target="_top" xlink:title="generate\&lt; T \&gt;">
<polygon fill="none" stroke="black" points="105.597,-195 105.597,-215 184.404,-215 184.404,-195 105.597,-195"/>
<text text-anchor="middle" x="145" y="-202" font-family="Helvetica,sans-Serif" font-size="10.00">generate&lt; T &gt;</text>
</a>
</g>
</g>
<!-- Node1&#45;&gt;Node3 -->
<g id="edge6" class="edge"><title>Node1&#45;&gt;Node3</title>
<path fill="none" stroke="midnightblue" d="M71.2972,-179.456C85.8079,-184.554 102.06,-190.264 115.512,-194.991"/>
<polygon fill="midnightblue" stroke="midnightblue" points="72.1801,-176.056 61.5853,-176.043 69.8596,-182.661 72.1801,-176.056"/>
</g>
<!-- Node4 -->
<g id="node4" class="node"><title>Node4</title>
<g id="a_node4"><a xlink:href="classprint.html" target="_top" xlink:title="print\&lt; T \&gt;">
<polygon fill="none" stroke="black" points="115.605,-156 115.605,-176 174.395,-176 174.395,-156 115.605,-156"/>
<text text-anchor="middle" x="145" y="-163" font-family="Helvetica,sans-Serif" font-size="10.00">print&lt; T &gt;</text>
</a>
</g>
</g>
<!-- Node1&#45;&gt;Node4 -->
<g id="edge7" class="edge"><title>Node1&#45;&gt;Node4</title>
<path fill="none" stroke="midnightblue" d="M73.8568,-159.463C87.6493,-159.053 102.741,-159.235 115.381,-160.01"/>
<polygon fill="midnightblue" stroke="midnightblue" points="73.4695,-155.976 63.6251,-159.893 73.7631,-162.97 73.4695,-155.976"/>
</g>
<!-- Node1&#45;&gt;Node4 -->
<g id="edge8" class="edge"><title>Node1&#45;&gt;Node4</title>
<path fill="none" stroke="midnightblue" d="M73.8568,-172.537C87.6493,-172.947 102.741,-172.765 115.381,-171.99"/>
<polygon fill="midnightblue" stroke="midnightblue" points="73.7631,-169.03 63.6251,-172.107 73.4695,-176.024 73.7631,-169.03"/>
</g>
<!-- Node5 -->
<g id="node5" class="node"><title>Node5</title>
<g id="a_node5"><a xlink:href="class_print.html" target="_top" xlink:title="Print\&lt; T, delim \&gt;">
<polygon fill="none" stroke="black" points="100.328,-117 100.328,-137 189.672,-137 189.672,-117 100.328,-117"/>
<text text-anchor="middle" x="145" y="-124" font-family="Helvetica,sans-Serif" font-size="10.00">Print&lt; T, delim &gt;</text>
</a>
</g>
</g>
<!-- Node1&#45;&gt;Node5 -->
<g id="edge9" class="edge"><title>Node1&#45;&gt;Node5</title>
<path fill="none" stroke="midnightblue" d="M71.2972,-152.544C85.8079,-147.446 102.06,-141.736 115.512,-137.009"/>
<polygon fill="midnightblue" stroke="midnightblue" points="69.8596,-149.339 61.5853,-155.957 72.1801,-155.944 69.8596,-149.339"/>
</g>
<!-- Node6 -->
<g id="node6" class="node"><title>Node6</title>
<g id="a_node6"><a xlink:href="classraft_1_1parallel__k.html" target="_top" xlink:title="raft::parallel_k">
<polygon fill="none" stroke="black" points="105.608,-78 105.608,-98 184.392,-98 184.392,-78 105.608,-78"/>
<text text-anchor="middle" x="145" y="-85" font-family="Helvetica,sans-Serif" font-size="10.00">raft::parallel_k</text>
</a>
</g>
</g>
<!-- Node1&#45;&gt;Node6 -->
<g id="edge10" class="edge"><title>Node1&#45;&gt;Node6</title>
<path fill="none" stroke="midnightblue" d="M49.9651,-148.868C62.8907,-136.448 81.5516,-119.827 100,-108 105.793,-104.287 112.389,-100.9 118.679,-98.012"/>
<polygon fill="midnightblue" stroke="midnightblue" points="47.4033,-146.478 42.7114,-155.977 52.3031,-151.477 47.4033,-146.478"/>
</g>
<!-- Node7 -->
<g id="node7" class="node"><title>Node7</title>
<g id="a_node7"><a xlink:href="classsum.html" target="_top" xlink:title="sum\&lt; A, B, C \&gt;">
<polygon fill="none" stroke="black" points="103.102,-39 103.102,-59 186.898,-59 186.898,-39 103.102,-39"/>
<text text-anchor="middle" x="145" y="-46" font-family="Helvetica,sans-Serif" font-size="10.00">sum&lt; A, B, C &gt;</text>
</a>
</g>
</g>
<!-- Node1&#45;&gt;Node7 -->
<g id="edge11" class="edge"><title>Node1&#45;&gt;Node7</title>
<path fill="none" stroke="midnightblue" d="M39.5332,-146.276C49.8112,-122.495 71.5529,-83.7898 100,-60 100.901,-59.2464 101.835,-58.5154 102.796,-57.8082"/>
<polygon fill="midnightblue" stroke="midnightblue" points="36.2052,-145.172 35.7388,-155.756 42.7041,-147.773 36.2052,-145.172"/>
</g>
<!-- Node1&#45;&gt;Node7 -->
<g id="edge12" class="edge"><title>Node1&#45;&gt;Node7</title>
<path fill="none" stroke="midnightblue" d="M45.9448,-147.016C57.6131,-127.425 76.523,-97.6334 100,-78 109.913,-69.7102 123.822,-64.1565 133.332,-59.0877"/>
<polygon fill="midnightblue" stroke="midnightblue" points="42.8741,-145.333 40.8101,-155.725 48.9041,-148.888 42.8741,-145.333"/>
</g>
<!-- Node8 -->
<g id="node8" class="node"><title>Node8</title>
<g id="a_node8"><a xlink:href="class_sum.html" target="_top" xlink:title="Sum\&lt; A, B, C \&gt;">
<polygon fill="none" stroke="black" points="102.267,-0 102.267,-20 187.733,-20 187.733,-0 102.267,-0"/>
<text text-anchor="middle" x="145" y="-7" font-family="Helvetica,sans-Serif" font-size="10.00">Sum&lt; A, B, C &gt;</text>
</a>
</g>
</g>
<!-- Node1&#45;&gt;Node8 -->
<g id="edge13" class="edge"><title>Node1&#45;&gt;Node8</title>
<path fill="none" stroke="midnightblue" d="M36.7323,-145.865C44.2857,-114.737 63.8217,-56.0695 100,-21 100.723,-20.2992 101.475,-19.6201 102.251,-18.9632"/>
<polygon fill="midnightblue" stroke="midnightblue" points="33.3124,-145.12 34.5527,-155.642 40.1447,-146.643 33.3124,-145.12"/>
</g>
<!-- Node1&#45;&gt;Node8 -->
<g id="edge14" class="edge"><title>Node1&#45;&gt;Node8</title>
<path fill="none" stroke="midnightblue" d="M40.0968,-146.074C49.3771,-118.575 68.2999,-69.7286 100,-39 109.037,-30.2396 122.59,-24.8788 132.264,-20.1309"/>
<polygon fill="midnightblue" stroke="midnightblue" points="36.6964,-145.211 36.9036,-155.804 43.3474,-147.394 36.6964,-145.211"/>
</g>
</g>
</svg>
