<?xml version="1.0" encoding="UTF-8" standalone="no"?>
<!DOCTYPE svg PUBLIC "-//W3C//DTD SVG 1.1//EN"
 "http://www.w3.org/Graphics/SVG/1.1/DTD/svg11.dtd">
<!-- Generated by graphviz version 2.30.1 (20130404.1610)
 -->
<!-- Title: Allocate Pages: 1 -->
<svg width="127pt" height="88pt"
 viewBox="0.00 0.00 127.00 88.00" xmlns="http://www.w3.org/2000/svg" xmlns:xlink="http://www.w3.org/1999/xlink">
<g id="graph0" class="graph" transform="scale(1 1) rotate(0) translate(4 84)">
<title>Allocate</title>
<!-- Node1 -->
<g id="node1" class="node"><title>Node1</title>
<polygon fill="#bfbfbf" stroke="black" points="34.2185,-59 34.2185,-79 85.7815,-79 85.7815,-59 34.2185,-59"/>
<text text-anchor="middle" x="60" y="-66" font-family="Helvetica,sans-Serif" font-size="10.00">Allocate</text>
</g>
<!-- Node2 -->
<g id="node2" class="node"><title>Node2</title>
<g id="a_node2"><a xlink:href="classdynalloc.html" target="_top" xlink:title="dynalloc">
<polygon fill="none" stroke="black" points="-0.337,-1 -0.337,-21 52.337,-21 52.337,-1 -0.337,-1"/>
<text text-anchor="middle" x="26" y="-8" font-family="Helvetica,sans-Serif" font-size="10.00">dynalloc</text>
</a>
</g>
</g>
<!-- Node1&#45;&gt;Node2 -->
<g id="edge1" class="edge"><title>Node1&#45;&gt;Node2</title>
<path fill="none" stroke="midnightblue" d="M49.0228,-49.9199C43.173,-40.2849 36.2305,-28.8502 31.5099,-21.0752"/>
<polygon fill="midnightblue" stroke="midnightblue" points="46.204,-52.0213 54.3856,-58.7527 52.1875,-48.3884 46.204,-52.0213"/>
</g>
<!-- Node3 -->
<g id="node3" class="node"><title>Node3</title>
<g id="a_node3"><a xlink:href="classstdalloc.html" target="_top" xlink:title="stdalloc">
<polygon fill="none" stroke="black" points="70.053,-1 70.053,-21 119.947,-21 119.947,-1 70.053,-1"/>
<text text-anchor="middle" x="95" y="-8" font-family="Helvetica,sans-Serif" font-size="10.00">stdalloc</text>
</a>
</g>
</g>
<!-- Node1&#45;&gt;Node3 -->
<g id="edge2" class="edge"><title>Node1&#45;&gt;Node3</title>
<path fill="none" stroke="midnightblue" d="M71.1123,-50.2204C77.1728,-40.5235 84.418,-28.9312 89.328,-21.0752"/>
<polygon fill="midnightblue" stroke="midnightblue" points="68.1116,-48.4177 65.7795,-58.7527 74.0476,-52.1278 68.1116,-48.4177"/>
</g>
</g>
</svg>
