<?xml version="1.0" encoding="UTF-8" standalone="no"?>
<!DOCTYPE svg PUBLIC "-//W3C//DTD SVG 1.1//EN"
 "http://www.w3.org/Graphics/SVG/1.1/DTD/svg11.dtd">
<!-- Generated by graphviz version 2.30.1 (20130404.1610)
 -->
<!-- Title: simple_schedule::start Pages: 1 -->
<svg width="458pt" height="118pt"
 viewBox="0.00 0.00 458.00 118.00" xmlns="http://www.w3.org/2000/svg" xmlns:xlink="http://www.w3.org/1999/xlink">
<g id="graph0" class="graph" transform="scale(1 1) rotate(0) translate(4 114)">
<title>simple_schedule::start</title>
<!-- Node1 -->
<g id="node1" class="node"><title>Node1</title>
<polygon fill="#bfbfbf" stroke="black" points="0.269,-51 0.269,-71 115.731,-71 115.731,-51 0.269,-51"/>
<text text-anchor="middle" x="58" y="-58" font-family="Helvetica,sans-Serif" font-size="10.00">simple_schedule::start</text>
</g>
<!-- Node2 -->
<g id="node2" class="node"><title>Node2</title>
<g id="a_node2"><a xlink:href="class_schedule.html#a60076829d7785af75aa8a2057f4edd09" target="_top" xlink:title="Schedule::kernelRun">
<polygon fill="none" stroke="black" points="152.599,-51 152.599,-71 261.401,-71 261.401,-51 152.599,-51"/>
<text text-anchor="middle" x="207" y="-58" font-family="Helvetica,sans-Serif" font-size="10.00">Schedule::kernelRun</text>
</a>
</g>
</g>
<!-- Node1&#45;&gt;Node2 -->
<g id="edge1" class="edge"><title>Node1&#45;&gt;Node2</title>
<path fill="none" stroke="midnightblue" d="M115.834,-61C124.428,-61 133.344,-61 142.075,-61"/>
<polygon fill="midnightblue" stroke="midnightblue" points="142.211,-64.5001 152.211,-61 142.211,-57.5001 142.211,-64.5001"/>
</g>
<!-- Node3 -->
<g id="node3" class="node"><title>Node3</title>
<g id="a_node3"><a xlink:href="class_schedule.html#ac23de3dd63554401fd0d8d23b60eecfa" target="_top" xlink:title="Schedule::kernelHasInputData">
<polygon fill="none" stroke="black" points="298.202,-90 298.202,-110 449.798,-110 449.798,-90 298.202,-90"/>
<text text-anchor="middle" x="374" y="-97" font-family="Helvetica,sans-Serif" font-size="10.00">Schedule::kernelHasInputData</text>
</a>
</g>
</g>
<!-- Node2&#45;&gt;Node3 -->
<g id="edge2" class="edge"><title>Node2&#45;&gt;Node3</title>
<path fill="none" stroke="midnightblue" d="M250.492,-71.0435C271.951,-76.1157 298.176,-82.3143 320.848,-87.6731"/>
<polygon fill="midnightblue" stroke="midnightblue" points="320.115,-91.0964 330.652,-89.9906 321.726,-84.2841 320.115,-91.0964"/>
</g>
<!-- Node4 -->
<g id="node4" class="node"><title>Node4</title>
<g id="a_node4"><a xlink:href="classraft_1_1kernel.html#a05094286d7577360fb1b91c91fc05901" target="_top" xlink:title="raft::kernel::run">
<polygon fill="none" stroke="black" points="332.383,-51 332.383,-71 415.617,-71 415.617,-51 332.383,-51"/>
<text text-anchor="middle" x="374" y="-58" font-family="Helvetica,sans-Serif" font-size="10.00">raft::kernel::run</text>
</a>
</g>
</g>
<!-- Node2&#45;&gt;Node4 -->
<g id="edge3" class="edge"><title>Node2&#45;&gt;Node4</title>
<path fill="none" stroke="midnightblue" d="M261.571,-61C281.033,-61 302.955,-61 322.173,-61"/>
<polygon fill="midnightblue" stroke="midnightblue" points="322.243,-64.5001 332.243,-61 322.243,-57.5001 322.243,-64.5001"/>
</g>
<!-- Node5 -->
<g id="node5" class="node"><title>Node5</title>
<g id="a_node5"><a xlink:href="class_schedule.html#a2e2035e0c0666054f8401ad2b3792854" target="_top" xlink:title="Schedule::kernelHasNoInput\lPorts">
<polygon fill="none" stroke="black" points="302.372,-0 302.372,-32 445.628,-32 445.628,-0 302.372,-0"/>
<text text-anchor="start" x="310.372" y="-19" font-family="Helvetica,sans-Serif" font-size="10.00">Schedule::kernelHasNoInput</text>
<text text-anchor="middle" x="374" y="-7" font-family="Helvetica,sans-Serif" font-size="10.00">Ports</text>
</a>
</g>
</g>
<!-- Node2&#45;&gt;Node5 -->
<g id="edge4" class="edge"><title>Node2&#45;&gt;Node5</title>
<path fill="none" stroke="midnightblue" d="M245.029,-50.9011C262.503,-46.1355 283.935,-40.2906 304.226,-34.7565"/>
<polygon fill="midnightblue" stroke="midnightblue" points="305.347,-38.0787 314.074,-32.0708 303.505,-31.3254 305.347,-38.0787"/>
</g>
</g>
</svg>
