<?xml version="1.0" encoding="UTF-8" standalone="no"?>
<!DOCTYPE svg PUBLIC "-//W3C//DTD SVG 1.1//EN"
 "http://www.w3.org/Graphics/SVG/1.1/DTD/svg11.dtd">
<!-- Generated by graphviz version 2.30.1 (20130404.1610)
 -->
<!-- Title: Map::exe Pages: 1 -->
<svg width="328pt" height="28pt"
 viewBox="0.00 0.00 328.00 28.00" xmlns="http://www.w3.org/2000/svg" xmlns:xlink="http://www.w3.org/1999/xlink">
<g id="graph0" class="graph" transform="scale(1 1) rotate(0) translate(4 24)">
<title>Map::exe</title>
<!-- Node1 -->
<g id="node1" class="node"><title>Node1</title>
<polygon fill="#bfbfbf" stroke="black" points="0.4385,-0 0.4385,-20 57.5615,-20 57.5615,-0 0.4385,-0"/>
<text text-anchor="middle" x="29" y="-7" font-family="Helvetica,sans-Serif" font-size="10.00">Map::exe</text>
</g>
<!-- Node2 -->
<g id="node2" class="node"><title>Node2</title>
<g id="a_node2"><a xlink:href="class_map.html#a169e829c0c306563ae4d65dd6942a595" target="_top" xlink:title="Map::checkEdges">
<polygon fill="none" stroke="black" points="94.2655,-0 94.2655,-20 189.734,-20 189.734,-0 94.2655,-0"/>
<text text-anchor="middle" x="142" y="-7" font-family="Helvetica,sans-Serif" font-size="10.00">Map::checkEdges</text>
</a>
</g>
</g>
<!-- Node1&#45;&gt;Node2 -->
<g id="edge1" class="edge"><title>Node1&#45;&gt;Node2</title>
<path fill="none" stroke="midnightblue" d="M57.7237,-10C65.7484,-10 74.8169,-10 83.9417,-10"/>
<polygon fill="midnightblue" stroke="midnightblue" points="84.2151,-13.5001 94.2151,-10 84.215,-6.5001 84.2151,-13.5001"/>
</g>
<!-- Node3 -->
<g id="node3" class="node"><title>Node3</title>
<g id="a_node3"><a xlink:href="class_graph_tools.html#ade51007699cbd681c1a37946609c46ee" target="_top" xlink:title="GraphTools::BFS">
<polygon fill="none" stroke="black" points="226.382,-0 226.382,-20 319.618,-20 319.618,-0 226.382,-0"/>
<text text-anchor="middle" x="273" y="-7" font-family="Helvetica,sans-Serif" font-size="10.00">GraphTools::BFS</text>
</a>
</g>
</g>
<!-- Node2&#45;&gt;Node3 -->
<g id="edge2" class="edge"><title>Node2&#45;&gt;Node3</title>
<path fill="none" stroke="midnightblue" d="M189.937,-10C198.429,-10 207.36,-10 216.078,-10"/>
<polygon fill="midnightblue" stroke="midnightblue" points="216.176,-13.5001 226.176,-10 216.176,-6.5001 216.176,-13.5001"/>
</g>
</g>
</svg>
