<?xml version="1.0" encoding="UTF-8" standalone="no"?>
<!DOCTYPE svg PUBLIC "-//W3C//DTD SVG 1.1//EN"
 "http://www.w3.org/Graphics/SVG/1.1/DTD/svg11.dtd">
<!-- Generated by graphviz version 2.30.1 (20130404.1610)
 -->
<!-- Title: simple_schedule Pages: 1 -->
<svg width="1220pt" height="612pt"
 viewBox="0.00 0.00 1220.00 612.00" xmlns="http://www.w3.org/2000/svg" xmlns:xlink="http://www.w3.org/1999/xlink">
<g id="graph0" class="graph" transform="scale(1 1) rotate(0) translate(4 608)">
<title>simple_schedule</title>
<!-- Node1 -->
<g id="node1" class="node"><title>Node1</title>
<polygon fill="#bfbfbf" stroke="black" points="841.771,-554 841.771,-574 932.229,-574 932.229,-554 841.771,-554"/>
<text text-anchor="middle" x="887" y="-561" font-family="Helvetica,sans-Serif" font-size="10.00">simple_schedule</text>
</g>
<!-- Node2 -->
<g id="node2" class="node"><title>Node2</title>
<g id="a_node2"><a xlink:href="class_schedule.html" target="_top" xlink:title="Schedule">
<polygon fill="none" stroke="black" points="647.159,-582 647.159,-602 704.841,-602 704.841,-582 647.159,-582"/>
<text text-anchor="middle" x="676" y="-589" font-family="Helvetica,sans-Serif" font-size="10.00">Schedule</text>
</a>
</g>
</g>
<!-- Node2&#45;&gt;Node1 -->
<g id="edge1" class="edge"><title>Node2&#45;&gt;Node1</title>
<path fill="none" stroke="midnightblue" d="M715.192,-586.883C750.817,-582.111 803.958,-574.991 841.489,-569.963"/>
<polygon fill="midnightblue" stroke="midnightblue" points="714.633,-583.427 705.187,-588.224 715.563,-590.365 714.633,-583.427"/>
</g>
<!-- Node3 -->
<g id="node3" class="node"><title>Node3</title>
<g id="a_node3"><a xlink:href="class_system_signal_handler.html" target="_top" xlink:title="SystemSignalHandler">
<polygon fill="none" stroke="black" points="364.938,-582 364.938,-602 477.062,-602 477.062,-582 364.938,-582"/>
<text text-anchor="middle" x="421" y="-589" font-family="Helvetica,sans-Serif" font-size="10.00">SystemSignalHandler</text>
</a>
</g>
</g>
<!-- Node3&#45;&gt;Node2 -->
<g id="edge2" class="edge"><title>Node3&#45;&gt;Node2</title>
<path fill="none" stroke="#9a32cd" stroke-dasharray="5,2" d="M487.292,-592C538.977,-592 608.624,-592 646.893,-592"/>
<polygon fill="#9a32cd" stroke="#9a32cd" points="487.209,-588.5 477.209,-592 487.209,-595.5 487.209,-588.5"/>
<text text-anchor="middle" x="560" y="-595" font-family="Helvetica,sans-Serif" font-size="10.00"> handlers</text>
</g>
<!-- Node4 -->
<g id="node4" class="node"><title>Node4</title>
<polygon fill="none" stroke="#bfbfbf" points="630.628,-531 630.628,-563 721.372,-563 721.372,-531 630.628,-531"/>
<text text-anchor="start" x="638.628" y="-550" font-family="Helvetica,sans-Serif" font-size="10.00">std::vector&lt; raft::</text>
<text text-anchor="middle" x="676" y="-538" font-family="Helvetica,sans-Serif" font-size="10.00">kernel * &gt;</text>
</g>
<!-- Node4&#45;&gt;Node1 -->
<g id="edge3" class="edge"><title>Node4&#45;&gt;Node1</title>
<path fill="none" stroke="#9a32cd" stroke-dasharray="5,2" d="M731.868,-551.463C766.048,-554.243 809.455,-557.774 841.489,-560.379"/>
<polygon fill="#9a32cd" stroke="#9a32cd" points="731.83,-547.948 721.579,-550.626 731.263,-554.925 731.83,-547.948"/>
<text text-anchor="middle" x="777" y="-561" font-family="Helvetica,sans-Serif" font-size="10.00"> kernel_map</text>
</g>
<!-- Node5 -->
<g id="node5" class="node"><title>Node5</title>
<g id="a_node5"><a xlink:href="classraft_1_1kernel.html" target="_top" xlink:title="raft::kernel">
<polygon fill="none" stroke="black" points="389.385,-454 389.385,-474 452.615,-474 452.615,-454 389.385,-454"/>
<text text-anchor="middle" x="421" y="-461" font-family="Helvetica,sans-Serif" font-size="10.00">raft::kernel</text>
</a>
</g>
</g>
<!-- Node5&#45;&gt;Node4 -->
<g id="edge4" class="edge"><title>Node5&#45;&gt;Node4</title>
<path fill="none" stroke="#9a32cd" stroke-dasharray="5,2" d="M452.655,-478.406C468.852,-485.613 489.218,-494.045 508,-500 553.125,-514.308 566.649,-509.426 612,-523 619.737,-525.316 627.88,-528.127 635.648,-530.997"/>
<polygon fill="#9a32cd" stroke="#9a32cd" points="453.715,-475.044 443.161,-474.11 450.829,-481.421 453.715,-475.044"/>
<text text-anchor="middle" x="560" y="-526" font-family="Helvetica,sans-Serif" font-size="10.00"> elements</text>
</g>
<!-- Node14 -->
<g id="node14" class="node"><title>Node14</title>
<g id="a_node14"><a xlink:href="struct_port_info.html" target="_top" xlink:title="PortInfo">
<polygon fill="none" stroke="black" points="650.494,-190 650.494,-210 701.506,-210 701.506,-190 650.494,-190"/>
<text text-anchor="middle" x="676" y="-197" font-family="Helvetica,sans-Serif" font-size="10.00">PortInfo</text>
</a>
</g>
</g>
<!-- Node5&#45;&gt;Node14 -->
<g id="edge27" class="edge"><title>Node5&#45;&gt;Node14</title>
<path fill="none" stroke="#9a32cd" stroke-dasharray="5,2" d="M453.495,-449.623C504.452,-426.135 600.47,-380.862 612,-368 655.457,-319.524 669.948,-238.225 673.804,-210.007"/>
<polygon fill="#9a32cd" stroke="#9a32cd" points="451.862,-446.521 444.238,-453.878 454.786,-452.881 451.862,-446.521"/>
<text text-anchor="middle" x="560" y="-437" font-family="Helvetica,sans-Serif" font-size="10.00"> my_kernel</text>
<text text-anchor="middle" x="560" y="-425" font-family="Helvetica,sans-Serif" font-size="10.00">other_kernel</text>
</g>
<!-- Node7 -->
<g id="node7" class="node"><title>Node7</title>
<g id="a_node7"><a xlink:href="class_port.html" target="_top" xlink:title="Port">
<polygon fill="none" stroke="black" points="1177.83,-362 1177.83,-382 1212.17,-382 1212.17,-362 1177.83,-362"/>
<text text-anchor="middle" x="1195" y="-369" font-family="Helvetica,sans-Serif" font-size="10.00">Port</text>
</a>
</g>
</g>
<!-- Node5&#45;&gt;Node7 -->
<g id="edge31" class="edge"><title>Node5&#45;&gt;Node7</title>
<path fill="none" stroke="#9a32cd" stroke-dasharray="5,2" d="M463.227,-461.041C501.717,-458.259 560.755,-453.945 612,-450 733.809,-440.622 1049.09,-457.235 1160,-406 1171.22,-400.819 1180.83,-390.265 1186.94,-382.282"/>
<polygon fill="#9a32cd" stroke="#9a32cd" points="462.662,-457.572 452.94,-461.783 463.166,-464.554 462.662,-457.572"/>
<text text-anchor="middle" x="887" y="-448" font-family="Helvetica,sans-Serif" font-size="10.00"> kernel</text>
</g>
<!-- Node6 -->
<g id="node6" class="node"><title>Node6</title>
<polygon fill="none" stroke="#bfbfbf" points="135.942,-396 135.942,-416 178.058,-416 178.058,-396 135.942,-396"/>
<text text-anchor="middle" x="157" y="-403" font-family="Helvetica,sans-Serif" font-size="10.00">size_t</text>
</g>
<!-- Node6&#45;&gt;Node5 -->
<g id="edge5" class="edge"><title>Node6&#45;&gt;Node5</title>
<path fill="none" stroke="#9a32cd" stroke-dasharray="5,2" d="M188.027,-412.647C238.173,-423.748 338.444,-445.946 389.139,-457.168"/>
<polygon fill="#9a32cd" stroke="#9a32cd" points="188.644,-409.199 178.124,-410.455 187.131,-416.034 188.644,-409.199"/>
<text text-anchor="middle" x="278" y="-446" font-family="Helvetica,sans-Serif" font-size="10.00"> kernel_count</text>
</g>
<!-- Node6&#45;&gt;Node7 -->
<g id="edge9" class="edge"><title>Node6&#45;&gt;Node7</title>
<path fill="none" stroke="#9a32cd" stroke-dasharray="5,2" d="M188.504,-404.597C268.368,-401.049 490.195,-392 675,-392 675,-392 675,-392 1068,-392 1107.87,-392 1153.96,-382.112 1177.82,-376.241"/>
<polygon fill="#9a32cd" stroke="#9a32cd" points="188.029,-401.115 178.196,-405.06 188.343,-408.108 188.029,-401.115"/>
<text text-anchor="middle" x="777" y="-395" font-family="Helvetica,sans-Serif" font-size="10.00"> alloc_ptr_length</text>
</g>
<!-- Node6&#45;&gt;Node14 -->
<g id="edge26" class="edge"><title>Node6&#45;&gt;Node14</title>
<path fill="none" stroke="#9a32cd" stroke-dasharray="5,2" d="M188.144,-399.28C283.855,-377.766 576.65,-310.499 612,-285 640.156,-264.691 661.076,-228.039 670.099,-210.246"/>
<polygon fill="#9a32cd" stroke="#9a32cd" points="187.227,-395.899 178.235,-401.503 188.759,-402.73 187.227,-395.899"/>
<text text-anchor="middle" x="421" y="-375" font-family="Helvetica,sans-Serif" font-size="10.00"> nitems</text>
<text text-anchor="middle" x="421" y="-363" font-family="Helvetica,sans-Serif" font-size="10.00">start_index</text>
</g>
<!-- Node7&#45;&gt;Node5 -->
<g id="edge6" class="edge"><title>Node7&#45;&gt;Node5</title>
<path fill="none" stroke="#9a32cd" stroke-dasharray="5,2" d="M1190.58,-391.962C1186.41,-410.592 1177.6,-437.999 1160,-455 1128.64,-485.283 1111.59,-489 1068,-489 675,-489 675,-489 675,-489 594.449,-489 500.168,-476.295 452.67,-468.999"/>
<polygon fill="#9a32cd" stroke="#9a32cd" points="1194.01,-392.644 1192.53,-382.153 1187.15,-391.276 1194.01,-392.644"/>
<text text-anchor="middle" x="887" y="-504" font-family="Helvetica,sans-Serif" font-size="10.00"> output</text>
<text text-anchor="middle" x="887" y="-492" font-family="Helvetica,sans-Serif" font-size="10.00">input</text>
</g>
<!-- Node8 -->
<g id="node8" class="node"><title>Node8</title>
<g id="a_node8"><a xlink:href="class_port_base.html" target="_top" xlink:title="PortBase">
<polygon fill="none" stroke="black" points="1038.44,-343 1038.44,-363 1095.56,-363 1095.56,-343 1038.44,-343"/>
<text text-anchor="middle" x="1067" y="-350" font-family="Helvetica,sans-Serif" font-size="10.00">PortBase</text>
</a>
</g>
</g>
<!-- Node8&#45;&gt;Node7 -->
<g id="edge7" class="edge"><title>Node8&#45;&gt;Node7</title>
<path fill="none" stroke="midnightblue" d="M1105.84,-358.706C1129.77,-362.314 1159.5,-366.797 1177.59,-369.526"/>
<polygon fill="midnightblue" stroke="midnightblue" points="1106.06,-355.2 1095.65,-357.17 1105.02,-362.122 1106.06,-355.2"/>
</g>
<!-- Node9 -->
<g id="node9" class="node"><title>Node9</title>
<polygon fill="none" stroke="#bfbfbf" points="1034.55,-304 1034.55,-324 1099.45,-324 1099.45,-304 1034.55,-304"/>
<text text-anchor="middle" x="1067" y="-311" font-family="Helvetica,sans-Serif" font-size="10.00">void *const</text>
</g>
<!-- Node9&#45;&gt;Node7 -->
<g id="edge8" class="edge"><title>Node9&#45;&gt;Node7</title>
<path fill="none" stroke="#9a32cd" stroke-dasharray="5,2" d="M1109.66,-324.002C1125.93,-328.814 1144.39,-335.43 1160,-344 1168.71,-348.784 1177.35,-355.93 1183.73,-361.805"/>
<polygon fill="#9a32cd" stroke="#9a32cd" points="1110.44,-320.584 1099.86,-321.239 1108.54,-327.321 1110.44,-320.584"/>
<text text-anchor="middle" x="1139" y="-347" font-family="Helvetica,sans-Serif" font-size="10.00"> alloc_ptr</text>
</g>
<!-- Node10 -->
<g id="node10" class="node"><title>Node10</title>
<g id="a_node10"><a xlink:href="structportmap__t.html" target="_top" xlink:title="portmap_t">
<polygon fill="none" stroke="black" points="1036.49,-108 1036.49,-128 1097.51,-128 1097.51,-108 1036.49,-108"/>
<text text-anchor="middle" x="1067" y="-115" font-family="Helvetica,sans-Serif" font-size="10.00">portmap_t</text>
</a>
</g>
</g>
<!-- Node10&#45;&gt;Node7 -->
<g id="edge10" class="edge"><title>Node10&#45;&gt;Node7</title>
<path fill="none" stroke="#9a32cd" stroke-dasharray="5,2" d="M1077.69,-137.525C1102.93,-188.405 1170.07,-323.755 1188.98,-361.879"/>
<polygon fill="#9a32cd" stroke="#9a32cd" points="1080.67,-135.675 1073.1,-128.272 1074.4,-138.785 1080.67,-135.675"/>
<text text-anchor="middle" x="1139" y="-299" font-family="Helvetica,sans-Serif" font-size="10.00"> portmap</text>
</g>
<!-- Node11 -->
<g id="node11" class="node"><title>Node11</title>
<polygon fill="none" stroke="#bfbfbf" points="832.46,-102 832.46,-134 941.54,-134 941.54,-102 832.46,-102"/>
<text text-anchor="start" x="840.46" y="-121" font-family="Helvetica,sans-Serif" font-size="10.00">std::map&lt; std::string,</text>
<text text-anchor="middle" x="887" y="-109" font-family="Helvetica,sans-Serif" font-size="10.00"> PortInfo &gt;</text>
</g>
<!-- Node11&#45;&gt;Node10 -->
<g id="edge11" class="edge"><title>Node11&#45;&gt;Node10</title>
<path fill="none" stroke="#9a32cd" stroke-dasharray="5,2" d="M951.903,-118C980.727,-118 1013.38,-118 1036.34,-118"/>
<polygon fill="#9a32cd" stroke="#9a32cd" points="951.889,-114.5 941.889,-118 951.889,-121.5 951.889,-114.5"/>
<text text-anchor="middle" x="988" y="-121" font-family="Helvetica,sans-Serif" font-size="10.00"> map</text>
</g>
<!-- Node12 -->
<g id="node12" class="node"><title>Node12</title>
<g id="a_node12"><a xlink:title="STL class. ">
<polygon fill="none" stroke="#bfbfbf" points="391.329,-6 391.329,-26 450.671,-26 450.671,-6 391.329,-6"/>
<text text-anchor="middle" x="421" y="-13" font-family="Helvetica,sans-Serif" font-size="10.00">std::string</text>
</a>
</g>
</g>
<!-- Node12&#45;&gt;Node11 -->
<g id="edge12" class="edge"><title>Node12&#45;&gt;Node11</title>
<path fill="none" stroke="#9a32cd" stroke-dasharray="5,2" d="M460.889,-9.65777C536.539,0.462973 705.573,11.9779 814,-65 825.76,-73.349 821.117,-82.5363 832,-92 836.24,-95.687 841.094,-98.9754 846.114,-101.869"/>
<polygon fill="#9a32cd" stroke="#9a32cd" points="460.267,-6.21075 450.851,-11.0672 461.24,-13.1428 460.267,-6.21075"/>
<text text-anchor="middle" x="676" y="-24" font-family="Helvetica,sans-Serif" font-size="10.00"> keys</text>
</g>
<!-- Node12&#45;&gt;Node14 -->
<g id="edge23" class="edge"><title>Node12&#45;&gt;Node14</title>
<path fill="none" stroke="#9a32cd" stroke-dasharray="5,2" d="M461.141,-14.7473C509.754,-13.9856 589.089,-15.5961 612,-33 664.065,-72.5509 673.102,-160.354 674.671,-190"/>
<polygon fill="#9a32cd" stroke="#9a32cd" points="460.899,-11.2513 450.97,-14.948 461.037,-18.2499 460.899,-11.2513"/>
<text text-anchor="middle" x="560" y="-48" font-family="Helvetica,sans-Serif" font-size="10.00"> my_name</text>
<text text-anchor="middle" x="560" y="-36" font-family="Helvetica,sans-Serif" font-size="10.00">other_name</text>
</g>
<!-- Node13 -->
<g id="node13" class="node"><title>Node13</title>
<g id="a_node13"><a xlink:title="STL class. ">
<polygon fill="none" stroke="#bfbfbf" points="109.962,-0 109.962,-32 204.038,-32 204.038,-0 109.962,-0"/>
<text text-anchor="start" x="117.962" y="-19" font-family="Helvetica,sans-Serif" font-size="10.00">std::basic_string&lt;</text>
<text text-anchor="middle" x="157" y="-7" font-family="Helvetica,sans-Serif" font-size="10.00"> char &gt;</text>
</a>
</g>
</g>
<!-- Node13&#45;&gt;Node12 -->
<g id="edge13" class="edge"><title>Node13&#45;&gt;Node12</title>
<path fill="none" stroke="midnightblue" d="M214.411,-16C268.775,-16 348.842,-16 391.228,-16"/>
<polygon fill="midnightblue" stroke="midnightblue" points="214.237,-12.5001 204.237,-16 214.237,-19.5001 214.237,-12.5001"/>
</g>
<!-- Node14&#45;&gt;Node11 -->
<g id="edge14" class="edge"><title>Node14&#45;&gt;Node11</title>
<path fill="none" stroke="#9a32cd" stroke-dasharray="5,2" d="M711.542,-186.448C748.215,-172.059 806.145,-149.331 845.08,-134.055"/>
<polygon fill="#9a32cd" stroke="#9a32cd" points="709.827,-183.361 701.796,-190.272 712.383,-189.877 709.827,-183.361"/>
<text text-anchor="middle" x="777" y="-177" font-family="Helvetica,sans-Serif" font-size="10.00"> elements</text>
</g>
<!-- Node15 -->
<g id="node15" class="node"><title>Node15</title>
<polygon fill="none" stroke="#bfbfbf" points="388.824,-237 388.824,-257 453.176,-257 453.176,-237 388.824,-237"/>
<text text-anchor="middle" x="421" y="-244" font-family="Helvetica,sans-Serif" font-size="10.00">type_index</text>
</g>
<!-- Node15&#45;&gt;Node14 -->
<g id="edge15" class="edge"><title>Node15&#45;&gt;Node14</title>
<path fill="none" stroke="#9a32cd" stroke-dasharray="5,2" d="M463.786,-245.312C502.664,-243.003 561.96,-237.592 612,-225 626.264,-221.411 641.619,-215.366 653.598,-210.12"/>
<polygon fill="#9a32cd" stroke="#9a32cd" points="463.178,-241.84 453.386,-245.884 463.563,-248.829 463.178,-241.84"/>
<text text-anchor="middle" x="560" y="-244" font-family="Helvetica,sans-Serif" font-size="10.00"> type</text>
</g>
<!-- Node16 -->
<g id="node16" class="node"><title>Node16</title>
<polygon fill="none" stroke="#bfbfbf" points="352.012,-147 352.012,-179 489.988,-179 489.988,-147 352.012,-147"/>
<text text-anchor="start" x="360.012" y="-166" font-family="Helvetica,sans-Serif" font-size="10.00">std::map&lt; Type::RingBuffer</text>
<text text-anchor="middle" x="421" y="-154" font-family="Helvetica,sans-Serif" font-size="10.00">Type, instr_map_t * &gt;</text>
</g>
<!-- Node16&#45;&gt;Node14 -->
<g id="edge16" class="edge"><title>Node16&#45;&gt;Node14</title>
<path fill="none" stroke="#9a32cd" stroke-dasharray="5,2" d="M500.101,-168.41C534.585,-171.521 575.497,-176.198 612,-183 624.808,-185.386 638.822,-189.059 650.374,-192.381"/>
<polygon fill="#9a32cd" stroke="#9a32cd" points="500.355,-164.919 490.088,-167.534 499.745,-171.892 500.355,-164.919"/>
<text text-anchor="middle" x="560" y="-186" font-family="Helvetica,sans-Serif" font-size="10.00"> const_map</text>
</g>
<!-- Node17 -->
<g id="node17" class="node"><title>Node17</title>
<g id="a_node17"><a xlink:title="STL class. ">
<polygon fill="none" stroke="#bfbfbf" points="112.043,-136 112.043,-156 201.957,-156 201.957,-136 112.043,-136"/>
<text text-anchor="middle" x="157" y="-143" font-family="Helvetica,sans-Serif" font-size="10.00">std::map&lt; K, T &gt;</text>
</a>
</g>
</g>
<!-- Node17&#45;&gt;Node16 -->
<g id="edge17" class="edge"><title>Node17&#45;&gt;Node16</title>
<path fill="none" stroke="#9a32cd" stroke-dasharray="5,2" d="M198.98,-133.435C206.565,-131.591 214.47,-129.983 222,-129 271.359,-122.556 285.307,-118.667 334,-129 342.564,-130.817 343.909,-133.658 352,-137 360.06,-140.329 368.716,-143.753 377.06,-146.978"/>
<polygon fill="#9a32cd" stroke="#9a32cd" points="198.049,-130.06 189.251,-135.963 199.81,-136.835 198.049,-130.06"/>
<text text-anchor="middle" x="278" y="-132" font-family="Helvetica,sans-Serif" font-size="10.00"> elements</text>
</g>
<!-- Node17&#45;&gt;Node16 -->
<g id="edge21" class="edge"><title>Node17&#45;&gt;Node16</title>
<path fill="none" stroke="orange" stroke-dasharray="5,2" d="M212.372,-149.528C252.905,-152.158 308.53,-155.767 352.005,-158.588"/>
<polygon fill="orange" stroke="orange" points="212.354,-146.02 202.148,-148.865 211.901,-153.005 212.354,-146.02"/>
<text text-anchor="start" x="222.291" y="-173" font-family="Helvetica,sans-Serif" font-size="10.00"> &lt; Type::RingBufferType,</text>
<text text-anchor="middle" x="278" y="-161" font-family="Helvetica,sans-Serif" font-size="10.00"> instr_map_t * &gt;</text>
</g>
<!-- Node17&#45;&gt;Node11 -->
<g id="edge29" class="edge"><title>Node17&#45;&gt;Node11</title>
<path fill="none" stroke="orange" stroke-dasharray="5,2" d="M187.571,-131.784C198.223,-127.132 210.464,-122.313 222,-119 278.253,-102.843 293.661,-102.682 352,-98 527.242,-83.937 735.647,-101.653 832.095,-111.806"/>
<polygon fill="orange" stroke="orange" points="185.979,-128.662 178.299,-135.962 188.854,-135.044 185.979,-128.662"/>
<text text-anchor="middle" x="560" y="-99" font-family="Helvetica,sans-Serif" font-size="10.00"> &lt; std::string, PortInfo &gt;</text>
</g>
<!-- Node18 -->
<g id="node18" class="node"><title>Node18</title>
<polygon fill="none" stroke="#bfbfbf" points="0.5,-136 0.5,-156 29.5,-156 29.5,-136 0.5,-136"/>
<text text-anchor="middle" x="15" y="-143" font-family="Helvetica,sans-Serif" font-size="10.00">K</text>
</g>
<!-- Node18&#45;&gt;Node17 -->
<g id="edge18" class="edge"><title>Node18&#45;&gt;Node17</title>
<path fill="none" stroke="#9a32cd" stroke-dasharray="5,2" d="M39.9163,-146C59.6521,-146 88.1832,-146 112.021,-146"/>
<polygon fill="#9a32cd" stroke="#9a32cd" points="39.6787,-142.5 29.6787,-146 39.6787,-149.5 39.6787,-142.5"/>
<text text-anchor="middle" x="70" y="-149" font-family="Helvetica,sans-Serif" font-size="10.00"> keys</text>
</g>
<!-- Node19 -->
<g id="node19" class="node"><title>Node19</title>
<polygon fill="none" stroke="#bfbfbf" points="0.5,-322 0.5,-342 29.5,-342 29.5,-322 0.5,-322"/>
<text text-anchor="middle" x="15" y="-329" font-family="Helvetica,sans-Serif" font-size="10.00">T</text>
</g>
<!-- Node19&#45;&gt;Node17 -->
<g id="edge19" class="edge"><title>Node19&#45;&gt;Node17</title>
<path fill="none" stroke="#9a32cd" stroke-dasharray="5,2" d="M26.8085,-313.2C43.2071,-285.325 76.0711,-231.926 110,-191 120.695,-178.099 134.65,-164.867 144.372,-156.121"/>
<polygon fill="#9a32cd" stroke="#9a32cd" points="23.7306,-311.53 21.72,-321.933 29.7787,-315.054 23.7306,-311.53"/>
<text text-anchor="middle" x="70" y="-279" font-family="Helvetica,sans-Serif" font-size="10.00"> elements</text>
</g>
<!-- Node25 -->
<g id="node25" class="node"><title>Node25</title>
<g id="a_node25"><a xlink:title="STL class. ">
<polygon fill="none" stroke="#bfbfbf" points="235.267,-504 235.267,-524 320.733,-524 320.733,-504 235.267,-504"/>
<text text-anchor="middle" x="278" y="-511" font-family="Helvetica,sans-Serif" font-size="10.00">std::vector&lt; T &gt;</text>
</a>
</g>
</g>
<!-- Node19&#45;&gt;Node25 -->
<g id="edge33" class="edge"><title>Node19&#45;&gt;Node25</title>
<path fill="none" stroke="#9a32cd" stroke-dasharray="5,2" d="M31.2288,-349.931C48.8099,-369.908 79.2705,-402.366 110,-425 157.085,-459.681 219.43,-489.162 253.051,-503.907"/>
<polygon fill="#9a32cd" stroke="#9a32cd" points="33.7168,-347.458 24.5193,-342.199 28.4297,-352.046 33.7168,-347.458"/>
<text text-anchor="middle" x="70" y="-413" font-family="Helvetica,sans-Serif" font-size="10.00"> elements</text>
</g>
<!-- Node20 -->
<g id="node20" class="node"><title>Node20</title>
<polygon fill="none" stroke="#bfbfbf" points="114.272,-200 114.272,-220 199.728,-220 199.728,-200 114.272,-200"/>
<text text-anchor="middle" x="157" y="-207" font-family="Helvetica,sans-Serif" font-size="10.00">RingBufferType</text>
</g>
<!-- Node20&#45;&gt;Node16 -->
<g id="edge20" class="edge"><title>Node20&#45;&gt;Node16</title>
<path fill="none" stroke="#9a32cd" stroke-dasharray="5,2" d="M209.901,-204.66C245.103,-200.614 292.587,-194.327 334,-186 343.697,-184.05 353.921,-181.638 363.802,-179.116"/>
<polygon fill="#9a32cd" stroke="#9a32cd" points="209.398,-201.195 199.853,-205.793 210.182,-208.151 209.398,-201.195"/>
<text text-anchor="middle" x="278" y="-205" font-family="Helvetica,sans-Serif" font-size="10.00"> keys</text>
</g>
<!-- Node21 -->
<g id="node21" class="node"><title>Node21</title>
<polygon fill="none" stroke="#bfbfbf" points="139.552,-265 139.552,-285 174.448,-285 174.448,-265 139.552,-265"/>
<text text-anchor="middle" x="157" y="-272" font-family="Helvetica,sans-Serif" font-size="10.00">bool</text>
</g>
<!-- Node21&#45;&gt;Node14 -->
<g id="edge22" class="edge"><title>Node21&#45;&gt;Node14</title>
<path fill="none" stroke="#9a32cd" stroke-dasharray="5,2" d="M184.66,-280.271C257.001,-293.275 461.637,-321.378 612,-257 635.864,-246.782 656.693,-223.673 667.38,-210.227"/>
<polygon fill="#9a32cd" stroke="#9a32cd" points="185.062,-276.785 174.591,-278.402 183.784,-283.668 185.062,-276.785"/>
<text text-anchor="middle" x="421" y="-312" font-family="Helvetica,sans-Serif" font-size="10.00"> use_my_allocator</text>
<text text-anchor="middle" x="421" y="-300" font-family="Helvetica,sans-Serif" font-size="10.00">out_of_order</text>
</g>
<!-- Node22 -->
<g id="node22" class="node"><title>Node22</title>
<g id="a_node22"><a xlink:href="class_f_i_f_o.html" target="_top" xlink:title="FIFO">
<polygon fill="none" stroke="black" points="401.612,-198 401.612,-218 440.388,-218 440.388,-198 401.612,-198"/>
<text text-anchor="middle" x="421" y="-205" font-family="Helvetica,sans-Serif" font-size="10.00">FIFO</text>
</a>
</g>
</g>
<!-- Node21&#45;&gt;Node22 -->
<g id="edge25" class="edge"><title>Node21&#45;&gt;Node22</title>
<path fill="none" stroke="#9a32cd" stroke-dasharray="5,2" d="M184.481,-268.228C237.48,-254.675 355.434,-224.511 401.273,-212.789"/>
<polygon fill="#9a32cd" stroke="#9a32cd" points="183.609,-264.838 174.788,-270.707 185.343,-271.62 183.609,-264.838"/>
<text text-anchor="middle" x="278" y="-260" font-family="Helvetica,sans-Serif" font-size="10.00"> valid</text>
</g>
<!-- Node22&#45;&gt;Node14 -->
<g id="edge24" class="edge"><title>Node22&#45;&gt;Node14</title>
<path fill="none" stroke="#9a32cd" stroke-dasharray="5,2" d="M450.645,-205.126C467.354,-203.585 488.849,-201.836 508,-201 558.546,-198.795 617.777,-199.131 650.368,-199.569"/>
<polygon fill="#9a32cd" stroke="#9a32cd" points="450.053,-201.666 440.429,-206.096 450.715,-208.635 450.053,-201.666"/>
<text text-anchor="middle" x="560" y="-216" font-family="Helvetica,sans-Serif" font-size="10.00"> fifo_a</text>
<text text-anchor="middle" x="560" y="-204" font-family="Helvetica,sans-Serif" font-size="10.00">fifo_b</text>
</g>
<!-- Node23 -->
<g id="node23" class="node"><title>Node23</title>
<polygon fill="none" stroke="#bfbfbf" points="400.498,-108 400.498,-128 441.502,-128 441.502,-108 400.498,-108"/>
<text text-anchor="middle" x="421" y="-115" font-family="Helvetica,sans-Serif" font-size="10.00">void *</text>
</g>
<!-- Node23&#45;&gt;Node14 -->
<g id="edge28" class="edge"><title>Node23&#45;&gt;Node14</title>
<path fill="none" stroke="#9a32cd" stroke-dasharray="5,2" d="M451.713,-119.581C490.146,-122.518 558.502,-130.814 612,-154 632.379,-162.832 652.502,-179.227 664.334,-189.869"/>
<polygon fill="#9a32cd" stroke="#9a32cd" points="451.922,-116.087 441.704,-118.887 451.438,-123.07 451.922,-116.087"/>
<text text-anchor="middle" x="560" y="-157" font-family="Helvetica,sans-Serif" font-size="10.00"> existing_buffer</text>
</g>
<!-- Node24 -->
<g id="node24" class="node"><title>Node24</title>
<polygon fill="none" stroke="#bfbfbf" points="865.387,-63 865.387,-83 908.613,-83 908.613,-63 865.387,-63"/>
<text text-anchor="middle" x="887" y="-70" font-family="Helvetica,sans-Serif" font-size="10.00">mutex</text>
</g>
<!-- Node24&#45;&gt;Node10 -->
<g id="edge30" class="edge"><title>Node24&#45;&gt;Node10</title>
<path fill="none" stroke="#9a32cd" stroke-dasharray="5,2" d="M919.008,-79.2368C945.047,-84.6621 983.155,-93.0423 1016,-102 1022.59,-103.799 1029.62,-105.917 1036.25,-108.012"/>
<polygon fill="#9a32cd" stroke="#9a32cd" points="919.479,-75.7603 908.978,-77.1688 918.066,-82.6161 919.479,-75.7603"/>
<text text-anchor="middle" x="988" y="-105" font-family="Helvetica,sans-Serif" font-size="10.00"> map_mutex</text>
</g>
<!-- Node25&#45;&gt;Node4 -->
<g id="edge32" class="edge"><title>Node25&#45;&gt;Node4</title>
<path fill="none" stroke="orange" stroke-dasharray="5,2" d="M330.876,-519.051C377.274,-523.499 447.146,-530.024 508,-535 549.429,-538.388 596.682,-541.735 630.326,-544.03"/>
<polygon fill="orange" stroke="orange" points="331.055,-515.552 320.766,-518.079 330.385,-522.52 331.055,-515.552"/>
<text text-anchor="middle" x="421" y="-536" font-family="Helvetica,sans-Serif" font-size="10.00"> &lt; raft::kernel * &gt;</text>
</g>
</g>
</svg>
