<?xml version="1.0" encoding="UTF-8" standalone="no"?>
<!DOCTYPE svg PUBLIC "-//W3C//DTD SVG 1.1//EN"
 "http://www.w3.org/Graphics/SVG/1.1/DTD/svg11.dtd">
<!-- Generated by graphviz version 2.30.1 (20130404.1610)
 -->
<!-- Title: GraphTools::BFS Pages: 1 -->
<svg width="328pt" height="145pt"
 viewBox="0.00 0.00 328.00 145.00" xmlns="http://www.w3.org/2000/svg" xmlns:xlink="http://www.w3.org/1999/xlink">
<g id="graph0" class="graph" transform="scale(1 1) rotate(0) translate(4 141)">
<title>GraphTools::BFS</title>
<!-- Node1 -->
<g id="node1" class="node"><title>Node1</title>
<polygon fill="#bfbfbf" stroke="black" points="0.382,-58 0.382,-78 93.618,-78 93.618,-58 0.382,-58"/>
<text text-anchor="middle" x="47" y="-65" font-family="Helvetica,sans-Serif" font-size="10.00">GraphTools::BFS</text>
</g>
<!-- Node2 -->
<g id="node2" class="node"><title>Node2</title>
<g id="a_node2"><a xlink:href="classdynalloc.html#a2a52b86ec09bd6dd52e49062137b2e37" target="_top" xlink:title="dynalloc::run">
<polygon fill="none" stroke="black" points="141.661,-117 141.661,-137 214.339,-137 214.339,-117 141.661,-117"/>
<text text-anchor="middle" x="178" y="-124" font-family="Helvetica,sans-Serif" font-size="10.00">dynalloc::run</text>
</a>
</g>
</g>
<!-- Node1&#45;&gt;Node2 -->
<g id="edge1" class="edge"><title>Node1&#45;&gt;Node2</title>
<path fill="none" stroke="midnightblue" d="M77.5683,-82.4279C93.1033,-89.9154 112.502,-99.12 130,-107 137.277,-110.277 145.247,-113.722 152.522,-116.812"/>
<polygon fill="midnightblue" stroke="midnightblue" points="78.9725,-79.2192 68.4464,-78.0149 75.924,-85.5206 78.9725,-79.2192"/>
</g>
<!-- Node3 -->
<g id="node3" class="node"><title>Node3</title>
<g id="a_node3"><a xlink:href="class_map.html#a169e829c0c306563ae4d65dd6942a595" target="_top" xlink:title="Map::checkEdges">
<polygon fill="none" stroke="black" points="130.266,-78 130.266,-98 225.734,-98 225.734,-78 130.266,-78"/>
<text text-anchor="middle" x="178" y="-85" font-family="Helvetica,sans-Serif" font-size="10.00">Map::checkEdges</text>
</a>
</g>
</g>
<!-- Node1&#45;&gt;Node3 -->
<g id="edge2" class="edge"><title>Node1&#45;&gt;Node3</title>
<path fill="none" stroke="midnightblue" d="M103.918,-76.6694C112.615,-78.0178 121.524,-79.3991 129.997,-80.7128"/>
<polygon fill="midnightblue" stroke="midnightblue" points="104.262,-73.1811 93.8438,-75.1076 103.189,-80.0984 104.262,-73.1811"/>
</g>
<!-- Node5 -->
<g id="node5" class="node"><title>Node5</title>
<g id="a_node5"><a xlink:href="class_map.html#abd9e37963ab76d16f8ad9c9c8b1314cf" target="_top" xlink:title="Map::printEdges">
<polygon fill="none" stroke="black" points="133.602,-39 133.602,-59 222.398,-59 222.398,-39 133.602,-39"/>
<text text-anchor="middle" x="178" y="-46" font-family="Helvetica,sans-Serif" font-size="10.00">Map::printEdges</text>
</a>
</g>
</g>
<!-- Node1&#45;&gt;Node5 -->
<g id="edge4" class="edge"><title>Node1&#45;&gt;Node5</title>
<path fill="none" stroke="midnightblue" d="M103.991,-59.7533C113.86,-58.2996 124,-56.8062 133.464,-55.4123"/>
<polygon fill="midnightblue" stroke="midnightblue" points="103.227,-56.3279 93.8438,-61.2478 104.247,-63.2532 103.227,-56.3279"/>
</g>
<!-- Node6 -->
<g id="node6" class="node"><title>Node6</title>
<g id="a_node6"><a xlink:href="classstdalloc.html#a60438b15948ce354b52b03ba6d975de0" target="_top" xlink:title="stdalloc::run">
<polygon fill="none" stroke="black" points="143.05,-0 143.05,-20 212.95,-20 212.95,-0 143.05,-0"/>
<text text-anchor="middle" x="178" y="-7" font-family="Helvetica,sans-Serif" font-size="10.00">stdalloc::run</text>
</a>
</g>
</g>
<!-- Node1&#45;&gt;Node6 -->
<g id="edge5" class="edge"><title>Node1&#45;&gt;Node6</title>
<path fill="none" stroke="midnightblue" d="M78.2403,-53.7085C93.6758,-46.4844 112.782,-37.6505 130,-30 137.455,-26.6872 145.622,-23.1725 153.027,-20.0288"/>
<polygon fill="midnightblue" stroke="midnightblue" points="76.719,-50.5561 69.1537,-57.9734 79.6933,-56.8928 76.719,-50.5561"/>
</g>
<!-- Node4 -->
<g id="node4" class="node"><title>Node4</title>
<g id="a_node4"><a xlink:href="class_map.html#a9f7109dab0f62259c32cda1adcffac0f" target="_top" xlink:title="Map::exe">
<polygon fill="none" stroke="black" points="262.438,-78 262.438,-98 319.562,-98 319.562,-78 262.438,-78"/>
<text text-anchor="middle" x="291" y="-85" font-family="Helvetica,sans-Serif" font-size="10.00">Map::exe</text>
</a>
</g>
</g>
<!-- Node3&#45;&gt;Node4 -->
<g id="edge3" class="edge"><title>Node3&#45;&gt;Node4</title>
<path fill="none" stroke="midnightblue" d="M236.041,-88C245.18,-88 254.263,-88 262.298,-88"/>
<polygon fill="midnightblue" stroke="midnightblue" points="235.752,-84.5001 225.752,-88 235.752,-91.5001 235.752,-84.5001"/>
</g>
</g>
</svg>
