<?xml version="1.0" encoding="UTF-8" standalone="no"?>
<!DOCTYPE svg PUBLIC "-//W3C//DTD SVG 1.1//EN"
 "http://www.w3.org/Graphics/SVG/1.1/DTD/svg11.dtd">
<!-- Generated by graphviz version 2.30.1 (20130404.1610)
 -->
<!-- Title: Generate&lt; T &gt; Pages: 1 -->
<svg width="88pt" height="88pt"
 viewBox="0.00 0.00 88.00 88.00" xmlns="http://www.w3.org/2000/svg" xmlns:xlink="http://www.w3.org/1999/xlink">
<g id="graph0" class="graph" transform="scale(1 1) rotate(0) translate(4 84)">
<title>Generate&lt; T &gt;</title>
<!-- Node1 -->
<g id="node1" class="node"><title>Node1</title>
<polygon fill="#bfbfbf" stroke="black" points="-0.5135,-1 -0.5135,-21 80.5135,-21 80.5135,-1 -0.5135,-1"/>
<text text-anchor="middle" x="40" y="-8" font-family="Helvetica,sans-Serif" font-size="10.00">Generate&lt; T &gt;</text>
</g>
<!-- Node2 -->
<g id="node2" class="node"><title>Node2</title>
<g id="a_node2"><a xlink:href="classraft_1_1kernel.html" target="_top" xlink:title="raft::kernel">
<polygon fill="none" stroke="black" points="8.3855,-59 8.3855,-79 71.6145,-79 71.6145,-59 8.3855,-59"/>
<text text-anchor="middle" x="40" y="-66" font-family="Helvetica,sans-Serif" font-size="10.00">raft::kernel</text>
</a>
</g>
</g>
<!-- Node2&#45;&gt;Node1 -->
<g id="edge1" class="edge"><title>Node2&#45;&gt;Node1</title>
<path fill="none" stroke="midnightblue" d="M27.1417,-49.0115C25.7529,-39.5738 26.6184,-28.6072 29.738,-21.0752"/>
<polygon fill="midnightblue" stroke="midnightblue" points="23.7695,-49.9513 29.6674,-58.7527 30.5455,-48.1944 23.7695,-49.9513"/>
</g>
<!-- Node2&#45;&gt;Node1 -->
<g id="edge2" class="edge"><title>Node2&#45;&gt;Node1</title>
<path fill="none" stroke="midnightblue" d="M40,-48.7065C40,-39.3384 40,-28.5262 40,-21.0752"/>
<polygon fill="midnightblue" stroke="midnightblue" points="36.5001,-48.7527 40,-58.7527 43.5001,-48.7528 36.5001,-48.7527"/>
</g>
<!-- Node2&#45;&gt;Node1 -->
<g id="edge3" class="edge"><title>Node2&#45;&gt;Node1</title>
<path fill="none" stroke="midnightblue" d="M52.8583,-49.0115C54.2471,-39.5738 53.3816,-28.6072 50.262,-21.0752"/>
<polygon fill="midnightblue" stroke="midnightblue" points="49.4545,-48.1944 50.3326,-58.7527 56.2305,-49.9513 49.4545,-48.1944"/>
</g>
</g>
</svg>
