<?xml version="1.0" encoding="UTF-8" standalone="no"?>
<!DOCTYPE svg PUBLIC "-//W3C//DTD SVG 1.1//EN"
 "http://www.w3.org/Graphics/SVG/1.1/DTD/svg11.dtd">
<!-- Generated by graphviz version 2.30.1 (20130404.1610)
 -->
<!-- Title: MapBase Pages: 1 -->
<svg width="113pt" height="88pt"
 viewBox="0.00 0.00 113.00 88.00" xmlns="http://www.w3.org/2000/svg" xmlns:xlink="http://www.w3.org/1999/xlink">
<g id="graph0" class="graph" transform="scale(1 1) rotate(0) translate(4 84)">
<title>MapBase</title>
<!-- Node1 -->
<g id="node1" class="node"><title>Node1</title>
<polygon fill="#bfbfbf" stroke="black" points="18.883,-59 18.883,-79 77.117,-79 77.117,-59 18.883,-59"/>
<text text-anchor="middle" x="48" y="-66" font-family="Helvetica,sans-Serif" font-size="10.00">MapBase</text>
</g>
<!-- Node2 -->
<g id="node2" class="node"><title>Node2</title>
<g id="a_node2"><a xlink:href="class_map.html" target="_top" xlink:title="Map">
<polygon fill="none" stroke="black" points="-0.7235,-1 -0.7235,-21 34.7235,-21 34.7235,-1 -0.7235,-1"/>
<text text-anchor="middle" x="17" y="-8" font-family="Helvetica,sans-Serif" font-size="10.00">Map</text>
</a>
</g>
</g>
<!-- Node1&#45;&gt;Node2 -->
<g id="edge1" class="edge"><title>Node1&#45;&gt;Node2</title>
<path fill="none" stroke="midnightblue" d="M37.9914,-49.9199C32.6577,-40.2849 26.3278,-28.8502 22.0238,-21.0752"/>
<polygon fill="midnightblue" stroke="midnightblue" points="34.9756,-51.6989 42.881,-58.7527 41.0999,-48.3087 34.9756,-51.6989"/>
</g>
<!-- Node3 -->
<g id="node3" class="node"><title>Node3</title>
<g id="a_node3"><a xlink:href="class_sub_map.html" target="_top" xlink:title="SubMap">
<polygon fill="none" stroke="black" points="52.383,-1 52.383,-21 105.617,-21 105.617,-1 52.383,-1"/>
<text text-anchor="middle" x="79" y="-8" font-family="Helvetica,sans-Serif" font-size="10.00">SubMap</text>
</a>
</g>
</g>
<!-- Node1&#45;&gt;Node3 -->
<g id="edge2" class="edge"><title>Node1&#45;&gt;Node3</title>
<path fill="none" stroke="midnightblue" d="M58.0086,-49.9199C63.3423,-40.2849 69.6722,-28.8502 73.9762,-21.0752"/>
<polygon fill="midnightblue" stroke="midnightblue" points="54.9001,-48.3087 53.119,-58.7527 61.0244,-51.6989 54.9001,-48.3087"/>
</g>
</g>
</svg>
