<?xml version="1.0" encoding="UTF-8" standalone="no"?>
<!DOCTYPE svg PUBLIC "-//W3C//DTD SVG 1.1//EN"
 "http://www.w3.org/Graphics/SVG/1.1/DTD/svg11.dtd">
<!-- Generated by graphviz version 2.30.1 (20130404.1610)
 -->
<!-- Title: generate&lt; T &gt; Pages: 1 -->
<!--zoomable 570 -->
<svg id="main" version="1.1" xmlns="http://www.w3.org/2000/svg" xmlns:xlink="http://www.w3.org/1999/xlink" xml:space="preserve" onload="init(evt)">
<style type="text/css"><![CDATA[
.edge:hover path { stroke: red; }
.edge:hover polygon { stroke: red; fill: red; }
]]></style>
<script type="text/javascript"><![CDATA[
var edges = document.getElementsByTagName('g');
if (edges && edges.length) {
  for (var i=0;i<edges.length;i++) {
    if (edges[i].id.substr(0,4)=='edge') {
      edges[i].setAttribute('class','edge');
    }
  }
}
]]></script>
        <defs>
                <circle id="rim" cx="0" cy="0" r="7"/>
                <circle id="rim2" cx="0" cy="0" r="3.5"/>
                <g id="zoomPlus">
                        <use xlink:href="#rim" fill="#404040">
                                <set attributeName="fill" to="#808080" begin="zoomplus.mouseover" end="zoomplus.mouseout"/>
                        </use>
                        <path d="M-4,0h8M0,-4v8" fill="none" stroke="white" stroke-width="1.5" pointer-events="none"/>
                </g>
                <g id="zoomMin">
                        <use xlink:href="#rim" fill="#404040">
                                <set attributeName="fill" to="#808080" begin="zoomminus.mouseover" end="zoomminus.mouseout"/>
                        </use>
                        <path d="M-4,0h8" fill="none" stroke="white" stroke-width="1.5" pointer-events="none"/>
                </g>
                <g id="dirArrow">
                        <path fill="none" stroke="white" stroke-width="1.5" d="M0,-3.0v7 M-2.5,-0.5L0,-3.0L2.5,-0.5"/>
                </g>
               <g id="resetDef">
                       <use xlink:href="#rim2" fill="#404040">
                               <set attributeName="fill" to="#808080" begin="reset.mouseover" end="reset.mouseout"/>
                       </use>
               </g>
        </defs>

<script type="text/javascript">
var viewWidth = 1208;
var viewHeight = 570;
var sectionId = 'dynsection-1';
</script>
<script xlink:href="svgpan.js"/>
<svg id="graph" class="graph">
<g id="viewport">
<title>generate&lt; T &gt;</title>
<!-- Node1 -->
<g id="node1" class="node"><title>Node1</title>
<polygon fill="#bfbfbf" stroke="black" points="630.596,-542 630.596,-562 709.404,-562 709.404,-542 630.596,-542"/>
<text text-anchor="middle" x="670" y="-549" font-family="Helvetica,sans-Serif" font-size="10.00">generate&lt; T &gt;</text>
</g>
<!-- Node2 -->
<g id="node2" class="node"><title>Node2</title>
<g id="a_node2"><a xlink:href="classraft_1_1kernel.html" target="_top" xlink:title="raft::kernel">
<polygon fill="none" stroke="black" points="389.385,-443 389.385,-463 452.615,-463 452.615,-443 389.385,-443"/>
<text text-anchor="middle" x="421" y="-450" font-family="Helvetica,sans-Serif" font-size="10.00">raft::kernel</text>
</a>
</g>
</g>
<!-- Node2&#45;&gt;Node1 -->
<g id="edge1" class="edge"><title>Node2&#45;&gt;Node1</title>
<path fill="none" stroke="midnightblue" d="M437.185,-470.895C452.996,-488.241 479.412,-513.809 508,-527 547.168,-545.072 596.804,-550.485 630.537,-551.907"/>
<polygon fill="midnightblue" stroke="midnightblue" points="439.561,-468.298 430.312,-463.13 434.319,-472.938 439.561,-468.298"/>
</g>
<!-- Node11 -->
<g id="node11" class="node"><title>Node11</title>
<g id="a_node11"><a xlink:href="struct_port_info.html" target="_top" xlink:title="PortInfo">
<polygon fill="none" stroke="black" points="644.494,-226 644.494,-246 695.506,-246 695.506,-226 644.494,-226"/>
<text text-anchor="middle" x="670" y="-233" font-family="Helvetica,sans-Serif" font-size="10.00">PortInfo</text>
</a>
</g>
</g>
<!-- Node2&#45;&gt;Node11 -->
<g id="edge24" class="edge"><title>Node2&#45;&gt;Node11</title>
<path fill="none" stroke="#9a32cd" stroke-dasharray="5,2" d="M453.938,-438.568C502.144,-416.219 590.191,-373.001 612,-346 628.959,-325.003 617.723,-312.037 630,-288 638.11,-272.121 651.065,-256.035 659.795,-246.046"/>
<polygon fill="#9a32cd" stroke="#9a32cd" points="452.197,-435.517 444.577,-442.878 455.124,-441.875 452.197,-435.517"/>
<text text-anchor="middle" x="560" y="-425" font-family="Helvetica,sans-Serif" font-size="10.00"> my_kernel</text>
<text text-anchor="middle" x="560" y="-413" font-family="Helvetica,sans-Serif" font-size="10.00">other_kernel</text>
</g>
<!-- Node4 -->
<g id="node4" class="node"><title>Node4</title>
<g id="a_node4"><a xlink:href="class_port.html" target="_top" xlink:title="Port">
<polygon fill="none" stroke="black" points="1165.83,-377 1165.83,-397 1200.17,-397 1200.17,-377 1165.83,-377"/>
<text text-anchor="middle" x="1183" y="-384" font-family="Helvetica,sans-Serif" font-size="10.00">Port</text>
</a>
</g>
</g>
<!-- Node2&#45;&gt;Node4 -->
<g id="edge28" class="edge"><title>Node2&#45;&gt;Node4</title>
<path fill="none" stroke="#9a32cd" stroke-dasharray="5,2" d="M455.8,-466.64C502.8,-484.345 590.929,-513 669,-513 669,-513 669,-513 1056,-513 1121.27,-513 1164.54,-427.404 1177.74,-397.311"/>
<polygon fill="#9a32cd" stroke="#9a32cd" points="457.004,-463.353 446.414,-463.043 454.499,-469.89 457.004,-463.353"/>
<text text-anchor="middle" x="875" y="-516" font-family="Helvetica,sans-Serif" font-size="10.00"> kernel</text>
</g>
<!-- Node3 -->
<g id="node3" class="node"><title>Node3</title>
<polygon fill="none" stroke="#bfbfbf" points="135.942,-397 135.942,-417 178.058,-417 178.058,-397 135.942,-397"/>
<text text-anchor="middle" x="157" y="-404" font-family="Helvetica,sans-Serif" font-size="10.00">size_t</text>
</g>
<!-- Node3&#45;&gt;Node2 -->
<g id="edge2" class="edge"><title>Node3&#45;&gt;Node2</title>
<path fill="none" stroke="#9a32cd" stroke-dasharray="5,2" d="M188.207,-413.966C198.86,-416.328 210.938,-418.898 222,-421 281.01,-432.214 350.396,-442.845 389.381,-448.587"/>
<polygon fill="#9a32cd" stroke="#9a32cd" points="188.643,-410.477 178.119,-411.699 187.108,-417.307 188.643,-410.477"/>
<text text-anchor="middle" x="278" y="-442" font-family="Helvetica,sans-Serif" font-size="10.00"> kernel_count</text>
</g>
<!-- Node3&#45;&gt;Node4 -->
<g id="edge6" class="edge"><title>Node3&#45;&gt;Node4</title>
<path fill="none" stroke="#9a32cd" stroke-dasharray="5,2" d="M188.593,-407C237.488,-407 336.27,-407 420,-407 420,-407 420,-407 1056,-407 1095.87,-407 1141.96,-397.112 1165.82,-391.241"/>
<polygon fill="#9a32cd" stroke="#9a32cd" points="188.383,-403.5 178.383,-407 188.383,-410.5 188.383,-403.5"/>
<text text-anchor="middle" x="765" y="-410" font-family="Helvetica,sans-Serif" font-size="10.00"> alloc_ptr_length</text>
</g>
<!-- Node3&#45;&gt;Node11 -->
<g id="edge23" class="edge"><title>Node3&#45;&gt;Node11</title>
<path fill="none" stroke="#9a32cd" stroke-dasharray="5,2" d="M188.196,-400.111C286.655,-377.584 593.163,-306.921 612,-296 633.877,-283.317 652.614,-259.714 662.189,-246.2"/>
<polygon fill="#9a32cd" stroke="#9a32cd" points="187.254,-396.736 178.285,-402.377 188.814,-403.56 187.254,-396.736"/>
<text text-anchor="middle" x="421" y="-376" font-family="Helvetica,sans-Serif" font-size="10.00"> nitems</text>
<text text-anchor="middle" x="421" y="-364" font-family="Helvetica,sans-Serif" font-size="10.00">start_index</text>
</g>
<!-- Node4&#45;&gt;Node2 -->
<g id="edge3" class="edge"><title>Node4&#45;&gt;Node2</title>
<path fill="none" stroke="#9a32cd" stroke-dasharray="5,2" d="M1167.22,-404.725C1161.67,-410.53 1155,-416.61 1148,-421 1111.32,-443.998 1099.29,-453 1056,-453 669,-453 669,-453 669,-453 591.169,-453 499.543,-453 452.806,-453"/>
<polygon fill="#9a32cd" stroke="#9a32cd" points="1169.94,-406.939 1174.02,-397.162 1164.73,-402.26 1169.94,-406.939"/>
<text text-anchor="middle" x="875" y="-468" font-family="Helvetica,sans-Serif" font-size="10.00"> output</text>
<text text-anchor="middle" x="875" y="-456" font-family="Helvetica,sans-Serif" font-size="10.00">input</text>
</g>
<!-- Node5 -->
<g id="node5" class="node"><title>Node5</title>
<g id="a_node5"><a xlink:href="class_port_base.html" target="_top" xlink:title="PortBase">
<polygon fill="none" stroke="black" points="1026.44,-358 1026.44,-378 1083.56,-378 1083.56,-358 1026.44,-358"/>
<text text-anchor="middle" x="1055" y="-365" font-family="Helvetica,sans-Serif" font-size="10.00">PortBase</text>
</a>
</g>
</g>
<!-- Node5&#45;&gt;Node4 -->
<g id="edge4" class="edge"><title>Node5&#45;&gt;Node4</title>
<path fill="none" stroke="midnightblue" d="M1093.84,-373.706C1117.77,-377.314 1147.5,-381.797 1165.59,-384.526"/>
<polygon fill="midnightblue" stroke="midnightblue" points="1094.06,-370.2 1083.65,-372.17 1093.02,-377.122 1094.06,-370.2"/>
</g>
<!-- Node6 -->
<g id="node6" class="node"><title>Node6</title>
<polygon fill="none" stroke="#bfbfbf" points="1022.55,-319 1022.55,-339 1087.45,-339 1087.45,-319 1022.55,-319"/>
<text text-anchor="middle" x="1055" y="-326" font-family="Helvetica,sans-Serif" font-size="10.00">void *const</text>
</g>
<!-- Node6&#45;&gt;Node4 -->
<g id="edge5" class="edge"><title>Node6&#45;&gt;Node4</title>
<path fill="none" stroke="#9a32cd" stroke-dasharray="5,2" d="M1097.66,-339.002C1113.93,-343.814 1132.39,-350.43 1148,-359 1156.71,-363.784 1165.35,-370.93 1171.73,-376.805"/>
<polygon fill="#9a32cd" stroke="#9a32cd" points="1098.44,-335.584 1087.86,-336.239 1096.54,-342.321 1098.44,-335.584"/>
<text text-anchor="middle" x="1127" y="-362" font-family="Helvetica,sans-Serif" font-size="10.00"> alloc_ptr</text>
</g>
<!-- Node7 -->
<g id="node7" class="node"><title>Node7</title>
<g id="a_node7"><a xlink:href="structportmap__t.html" target="_top" xlink:title="portmap_t">
<polygon fill="none" stroke="black" points="1024.49,-265 1024.49,-285 1085.51,-285 1085.51,-265 1024.49,-265"/>
<text text-anchor="middle" x="1055" y="-272" font-family="Helvetica,sans-Serif" font-size="10.00">portmap_t</text>
</a>
</g>
</g>
<!-- Node7&#45;&gt;Node4 -->
<g id="edge7" class="edge"><title>Node7&#45;&gt;Node4</title>
<path fill="none" stroke="#9a32cd" stroke-dasharray="5,2" d="M1092.8,-289.113C1111.04,-297.472 1132.43,-309.486 1148,-325 1163.13,-340.076 1173.4,-363.3 1178.43,-376.632"/>
<polygon fill="#9a32cd" stroke="#9a32cd" points="1094.17,-285.889 1083.6,-285.076 1091.35,-292.3 1094.17,-285.889"/>
<text text-anchor="middle" x="1127" y="-328" font-family="Helvetica,sans-Serif" font-size="10.00"> portmap</text>
</g>
<!-- Node8 -->
<g id="node8" class="node"><title>Node8</title>
<polygon fill="none" stroke="#bfbfbf" points="820.46,-259 820.46,-291 929.54,-291 929.54,-259 820.46,-259"/>
<text text-anchor="start" x="828.46" y="-278" font-family="Helvetica,sans-Serif" font-size="10.00">std::map&lt; std::string,</text>
<text text-anchor="middle" x="875" y="-266" font-family="Helvetica,sans-Serif" font-size="10.00"> PortInfo &gt;</text>
</g>
<!-- Node8&#45;&gt;Node7 -->
<g id="edge8" class="edge"><title>Node8&#45;&gt;Node7</title>
<path fill="none" stroke="#9a32cd" stroke-dasharray="5,2" d="M939.903,-275C968.727,-275 1001.38,-275 1024.34,-275"/>
<polygon fill="#9a32cd" stroke="#9a32cd" points="939.889,-271.5 929.889,-275 939.889,-278.5 939.889,-271.5"/>
<text text-anchor="middle" x="976" y="-278" font-family="Helvetica,sans-Serif" font-size="10.00"> map</text>
</g>
<!-- Node9 -->
<g id="node9" class="node"><title>Node9</title>
<g id="a_node9"><a xlink:title="STL class. ">
<polygon fill="none" stroke="#bfbfbf" points="391.329,-273 391.329,-293 450.671,-293 450.671,-273 391.329,-273"/>
<text text-anchor="middle" x="421" y="-280" font-family="Helvetica,sans-Serif" font-size="10.00">std::string</text>
</a>
</g>
</g>
<!-- Node9&#45;&gt;Node8 -->
<g id="edge9" class="edge"><title>Node9&#45;&gt;Node8</title>
<path fill="none" stroke="#9a32cd" stroke-dasharray="5,2" d="M461.163,-290.187C475.804,-292.539 492.612,-294.844 508,-296 618.909,-304.335 748.945,-291.506 820.315,-282.522"/>
<polygon fill="#9a32cd" stroke="#9a32cd" points="461.376,-286.674 450.936,-288.481 460.225,-293.578 461.376,-286.674"/>
<text text-anchor="middle" x="670" y="-300" font-family="Helvetica,sans-Serif" font-size="10.00"> keys</text>
</g>
<!-- Node9&#45;&gt;Node11 -->
<g id="edge20" class="edge"><title>Node9&#45;&gt;Node11</title>
<path fill="none" stroke="#9a32cd" stroke-dasharray="5,2" d="M460.973,-276.579C499.452,-270.109 559.923,-259.592 612,-249 622.643,-246.835 634.346,-244.209 644.365,-241.885"/>
<polygon fill="#9a32cd" stroke="#9a32cd" points="460.013,-273.191 450.728,-278.293 461.169,-280.095 460.013,-273.191"/>
<text text-anchor="middle" x="560" y="-283" font-family="Helvetica,sans-Serif" font-size="10.00"> my_name</text>
<text text-anchor="middle" x="560" y="-271" font-family="Helvetica,sans-Serif" font-size="10.00">other_name</text>
</g>
<!-- Node10 -->
<g id="node10" class="node"><title>Node10</title>
<g id="a_node10"><a xlink:title="STL class. ">
<polygon fill="none" stroke="#bfbfbf" points="109.962,-267 109.962,-299 204.038,-299 204.038,-267 109.962,-267"/>
<text text-anchor="start" x="117.962" y="-286" font-family="Helvetica,sans-Serif" font-size="10.00">std::basic_string&lt;</text>
<text text-anchor="middle" x="157" y="-274" font-family="Helvetica,sans-Serif" font-size="10.00"> char &gt;</text>
</a>
</g>
</g>
<!-- Node10&#45;&gt;Node9 -->
<g id="edge10" class="edge"><title>Node10&#45;&gt;Node9</title>
<path fill="none" stroke="midnightblue" d="M214.411,-283C268.775,-283 348.842,-283 391.228,-283"/>
<polygon fill="midnightblue" stroke="midnightblue" points="214.237,-279.5 204.237,-283 214.237,-286.5 214.237,-279.5"/>
</g>
<!-- Node11&#45;&gt;Node8 -->
<g id="edge11" class="edge"><title>Node11&#45;&gt;Node8</title>
<path fill="none" stroke="#9a32cd" stroke-dasharray="5,2" d="M705.938,-242.712C737.397,-248.756 784.115,-257.732 820.316,-264.686"/>
<polygon fill="#9a32cd" stroke="#9a32cd" points="706.373,-239.232 695.892,-240.782 705.052,-246.106 706.373,-239.232"/>
<text text-anchor="middle" x="765" y="-263" font-family="Helvetica,sans-Serif" font-size="10.00"> elements</text>
</g>
<!-- Node12 -->
<g id="node12" class="node"><title>Node12</title>
<polygon fill="none" stroke="#bfbfbf" points="388.824,-191 388.824,-211 453.176,-211 453.176,-191 388.824,-191"/>
<text text-anchor="middle" x="421" y="-198" font-family="Helvetica,sans-Serif" font-size="10.00">type_index</text>
</g>
<!-- Node12&#45;&gt;Node11 -->
<g id="edge12" class="edge"><title>Node12&#45;&gt;Node11</title>
<path fill="none" stroke="#9a32cd" stroke-dasharray="5,2" d="M463.86,-203.089C502.558,-205.515 561.531,-210.468 612,-220 622.706,-222.022 634.318,-225.113 644.251,-228.04"/>
<polygon fill="#9a32cd" stroke="#9a32cd" points="463.697,-199.573 453.506,-202.47 463.28,-206.561 463.697,-199.573"/>
<text text-anchor="middle" x="560" y="-223" font-family="Helvetica,sans-Serif" font-size="10.00"> type</text>
</g>
<!-- Node13 -->
<g id="node13" class="node"><title>Node13</title>
<polygon fill="none" stroke="#bfbfbf" points="352.012,-140 352.012,-172 489.988,-172 489.988,-140 352.012,-140"/>
<text text-anchor="start" x="360.012" y="-159" font-family="Helvetica,sans-Serif" font-size="10.00">std::map&lt; Type::RingBuffer</text>
<text text-anchor="middle" x="421" y="-147" font-family="Helvetica,sans-Serif" font-size="10.00">Type, instr_map_t * &gt;</text>
</g>
<!-- Node13&#45;&gt;Node11 -->
<g id="edge13" class="edge"><title>Node13&#45;&gt;Node11</title>
<path fill="none" stroke="#9a32cd" stroke-dasharray="5,2" d="M500.587,-161.829C535.849,-166.595 577.239,-175.258 612,-191 630.606,-199.426 648.49,-215.208 659.114,-225.662"/>
<polygon fill="#9a32cd" stroke="#9a32cd" points="500.697,-158.315 490.336,-160.528 499.816,-165.259 500.697,-158.315"/>
<text text-anchor="middle" x="560" y="-194" font-family="Helvetica,sans-Serif" font-size="10.00"> const_map</text>
</g>
<!-- Node14 -->
<g id="node14" class="node"><title>Node14</title>
<g id="a_node14"><a xlink:title="STL class. ">
<polygon fill="none" stroke="#bfbfbf" points="112.043,-132 112.043,-152 201.957,-152 201.957,-132 112.043,-132"/>
<text text-anchor="middle" x="157" y="-139" font-family="Helvetica,sans-Serif" font-size="10.00">std::map&lt; K, T &gt;</text>
</a>
</g>
</g>
<!-- Node14&#45;&gt;Node13 -->
<g id="edge14" class="edge"><title>Node14&#45;&gt;Node13</title>
<path fill="none" stroke="#9a32cd" stroke-dasharray="5,2" d="M212.615,-140.285C247.411,-139.692 293.417,-139.834 334,-143 339.721,-143.446 345.638,-144.047 351.567,-144.745"/>
<polygon fill="#9a32cd" stroke="#9a32cd" points="212.124,-136.794 202.195,-140.489 212.262,-143.792 212.124,-136.794"/>
<text text-anchor="middle" x="278" y="-146" font-family="Helvetica,sans-Serif" font-size="10.00"> elements</text>
</g>
<!-- Node14&#45;&gt;Node13 -->
<g id="edge18" class="edge"><title>Node14&#45;&gt;Node13</title>
<path fill="none" stroke="orange" stroke-dasharray="5,2" d="M211.511,-153.669C215.05,-154.193 218.569,-154.646 222,-155 265.085,-159.441 313.723,-159.753 352.011,-158.924"/>
<polygon fill="orange" stroke="orange" points="211.983,-150.2 201.547,-152.028 210.846,-157.107 211.983,-150.2"/>
<text text-anchor="start" x="222.291" y="-175" font-family="Helvetica,sans-Serif" font-size="10.00"> &lt; Type::RingBufferType,</text>
<text text-anchor="middle" x="278" y="-163" font-family="Helvetica,sans-Serif" font-size="10.00"> instr_map_t * &gt;</text>
</g>
<!-- Node14&#45;&gt;Node8 -->
<g id="edge26" class="edge"><title>Node14&#45;&gt;Node8</title>
<path fill="none" stroke="orange" stroke-dasharray="5,2" d="M212.279,-133.061C299.013,-120.892 473.21,-105.179 612,-148 710.199,-178.297 727.481,-204.265 820,-249 826.651,-252.216 833.766,-255.648 840.577,-258.929"/>
<polygon fill="orange" stroke="orange" points="211.542,-129.631 202.144,-134.523 212.541,-136.559 211.542,-129.631"/>
<text text-anchor="middle" x="560" y="-151" font-family="Helvetica,sans-Serif" font-size="10.00"> &lt; std::string, PortInfo &gt;</text>
</g>
<!-- Node15 -->
<g id="node15" class="node"><title>Node15</title>
<polygon fill="none" stroke="#bfbfbf" points="0.5,-152 0.5,-172 29.5,-172 29.5,-152 0.5,-152"/>
<text text-anchor="middle" x="15" y="-159" font-family="Helvetica,sans-Serif" font-size="10.00">K</text>
</g>
<!-- Node15&#45;&gt;Node14 -->
<g id="edge15" class="edge"><title>Node15&#45;&gt;Node14</title>
<path fill="none" stroke="#9a32cd" stroke-dasharray="5,2" d="M39.6415,-158.623C59.3866,-155.802 88.0723,-151.704 112.021,-148.283"/>
<polygon fill="#9a32cd" stroke="#9a32cd" points="39.0832,-155.167 29.6787,-160.046 40.0732,-162.096 39.0832,-155.167"/>
<text text-anchor="middle" x="70" y="-161" font-family="Helvetica,sans-Serif" font-size="10.00"> keys</text>
</g>
<!-- Node16 -->
<g id="node16" class="node"><title>Node16</title>
<polygon fill="none" stroke="#bfbfbf" points="0.5,-113 0.5,-133 29.5,-133 29.5,-113 0.5,-113"/>
<text text-anchor="middle" x="15" y="-120" font-family="Helvetica,sans-Serif" font-size="10.00">T</text>
</g>
<!-- Node16&#45;&gt;Node14 -->
<g id="edge16" class="edge"><title>Node16&#45;&gt;Node14</title>
<path fill="none" stroke="#9a32cd" stroke-dasharray="5,2" d="M39.5192,-123.639C54.5812,-124.273 74.5111,-125.526 92,-128 99.3201,-129.035 107.049,-130.448 114.507,-131.979"/>
<polygon fill="#9a32cd" stroke="#9a32cd" points="39.6361,-120.141 29.5166,-123.279 39.3843,-127.137 39.6361,-120.141"/>
<text text-anchor="middle" x="70" y="-131" font-family="Helvetica,sans-Serif" font-size="10.00"> elements</text>
</g>
<!-- Node17 -->
<g id="node17" class="node"><title>Node17</title>
<polygon fill="none" stroke="#bfbfbf" points="114.272,-214 114.272,-234 199.728,-234 199.728,-214 114.272,-214"/>
<text text-anchor="middle" x="157" y="-221" font-family="Helvetica,sans-Serif" font-size="10.00">RingBufferType</text>
</g>
<!-- Node17&#45;&gt;Node13 -->
<g id="edge17" class="edge"><title>Node17&#45;&gt;Node13</title>
<path fill="none" stroke="#9a32cd" stroke-dasharray="5,2" d="M209.829,-215.777C245.188,-209.589 292.882,-200.106 334,-188 342.234,-185.576 343.971,-184.037 352,-181 359.765,-178.063 368.046,-174.979 376.06,-172.019"/>
<polygon fill="#9a32cd" stroke="#9a32cd" points="208.999,-212.368 199.736,-217.512 210.185,-219.267 208.999,-212.368"/>
<text text-anchor="middle" x="278" y="-216" font-family="Helvetica,sans-Serif" font-size="10.00"> keys</text>
</g>
<!-- Node18 -->
<g id="node18" class="node"><title>Node18</title>
<polygon fill="none" stroke="#bfbfbf" points="139.552,-29 139.552,-49 174.448,-49 174.448,-29 139.552,-29"/>
<text text-anchor="middle" x="157" y="-36" font-family="Helvetica,sans-Serif" font-size="10.00">bool</text>
</g>
<!-- Node18&#45;&gt;Node11 -->
<g id="edge19" class="edge"><title>Node18&#45;&gt;Node11</title>
<path fill="none" stroke="#9a32cd" stroke-dasharray="5,2" d="M184.78,-40.5604C242.743,-44.7468 383.21,-59.2923 490,-106 499.041,-109.954 499.342,-114.265 508,-119 551.59,-142.842 572.489,-129.876 612,-160 636.264,-178.5 655.226,-209.951 663.878,-225.974"/>
<polygon fill="#9a32cd" stroke="#9a32cd" points="184.845,-37.0569 174.632,-39.8742 184.373,-44.0409 184.845,-37.0569"/>
<text text-anchor="middle" x="421" y="-121" font-family="Helvetica,sans-Serif" font-size="10.00"> use_my_allocator</text>
<text text-anchor="middle" x="421" y="-109" font-family="Helvetica,sans-Serif" font-size="10.00">out_of_order</text>
</g>
<!-- Node19 -->
<g id="node19" class="node"><title>Node19</title>
<g id="a_node19"><a xlink:href="class_f_i_f_o.html" target="_top" xlink:title="FIFO">
<polygon fill="none" stroke="black" points="401.612,-0 401.612,-20 440.388,-20 440.388,-0 401.612,-0"/>
<text text-anchor="middle" x="421" y="-7" font-family="Helvetica,sans-Serif" font-size="10.00">FIFO</text>
</a>
</g>
</g>
<!-- Node18&#45;&gt;Node19 -->
<g id="edge22" class="edge"><title>Node18&#45;&gt;Node19</title>
<path fill="none" stroke="#9a32cd" stroke-dasharray="5,2" d="M184.803,-35.5364C196.256,-34.0858 209.777,-32.412 222,-31 287.932,-23.3836 366.341,-15.3793 401.425,-11.8532"/>
<polygon fill="#9a32cd" stroke="#9a32cd" points="184.042,-32.1051 174.565,-36.8431 184.928,-39.0487 184.042,-32.1051"/>
<text text-anchor="middle" x="278" y="-34" font-family="Helvetica,sans-Serif" font-size="10.00"> valid</text>
</g>
<!-- Node19&#45;&gt;Node11 -->
<g id="edge21" class="edge"><title>Node19&#45;&gt;Node11</title>
<path fill="none" stroke="#9a32cd" stroke-dasharray="5,2" d="M450.553,-9.45108C491.646,-10.2405 567.41,-17.8342 612,-60 661.24,-106.563 668.033,-195.933 668.9,-225.913"/>
<polygon fill="#9a32cd" stroke="#9a32cd" points="450.437,-5.95032 440.414,-9.38263 450.39,-12.9502 450.437,-5.95032"/>
<text text-anchor="middle" x="560" y="-75" font-family="Helvetica,sans-Serif" font-size="10.00"> fifo_a</text>
<text text-anchor="middle" x="560" y="-63" font-family="Helvetica,sans-Serif" font-size="10.00">fifo_b</text>
</g>
<!-- Node20 -->
<g id="node20" class="node"><title>Node20</title>
<polygon fill="none" stroke="#bfbfbf" points="400.498,-230 400.498,-250 441.502,-250 441.502,-230 400.498,-230"/>
<text text-anchor="middle" x="421" y="-237" font-family="Helvetica,sans-Serif" font-size="10.00">void *</text>
</g>
<!-- Node20&#45;&gt;Node11 -->
<g id="edge25" class="edge"><title>Node20&#45;&gt;Node11</title>
<path fill="none" stroke="#9a32cd" stroke-dasharray="5,2" d="M451.969,-238.744C468.492,-238.104 489.376,-237.383 508,-237 556.347,-236.007 612.875,-235.899 644.449,-235.934"/>
<polygon fill="#9a32cd" stroke="#9a32cd" points="451.66,-235.253 441.807,-239.148 451.938,-242.248 451.66,-235.253"/>
<text text-anchor="middle" x="560" y="-240" font-family="Helvetica,sans-Serif" font-size="10.00"> existing_buffer</text>
</g>
<!-- Node21 -->
<g id="node21" class="node"><title>Node21</title>
<polygon fill="none" stroke="#bfbfbf" points="853.387,-220 853.387,-240 896.613,-240 896.613,-220 853.387,-220"/>
<text text-anchor="middle" x="875" y="-227" font-family="Helvetica,sans-Serif" font-size="10.00">mutex</text>
</g>
<!-- Node21&#45;&gt;Node7 -->
<g id="edge27" class="edge"><title>Node21&#45;&gt;Node7</title>
<path fill="none" stroke="#9a32cd" stroke-dasharray="5,2" d="M907.008,-236.237C933.047,-241.662 971.155,-250.042 1004,-259 1010.59,-260.799 1017.62,-262.917 1024.25,-265.012"/>
<polygon fill="#9a32cd" stroke="#9a32cd" points="907.479,-232.76 896.978,-234.169 906.066,-239.616 907.479,-232.76"/>
<text text-anchor="middle" x="976" y="-262" font-family="Helvetica,sans-Serif" font-size="10.00"> map_mutex</text>
</g>
</g>
</svg>
        <g id="navigator" transform="translate(0 0)" fill="#404254">
                <rect fill="#f2f5e9" fill-opacity="0.5" stroke="#606060" stroke-width=".5" x="0" y="0" width="60" height="60"/>
                <use id="zoomplus" xlink:href="#zoomPlus" x="17" y="9" onmousedown="handleZoom(evt,'in')"/>
                <use id="zoomminus" xlink:href="#zoomMin" x="42" y="9" onmousedown="handleZoom(evt,'out')"/>
                <use id="reset" xlink:href="#resetDef" x="30" y="36" onmousedown="handleReset()"/>
                <g id="arrowUp" xlink:href="#dirArrow" transform="translate(30 24)" onmousedown="handlePan(0,-1)">
                  <use xlink:href="#rim" fill="#404040">
                        <set attributeName="fill" to="#808080" begin="arrowUp.mouseover" end="arrowUp.mouseout"/>
                  </use>
                  <path fill="none" stroke="white" stroke-width="1.5" d="M0,-3.0v7 M-2.5,-0.5L0,-3.0L2.5,-0.5"/>
                </g>
                <g id="arrowRight" xlink:href="#dirArrow" transform="rotate(90) translate(36 -43)" onmousedown="handlePan(1,0)">
                  <use xlink:href="#rim" fill="#404040">
                        <set attributeName="fill" to="#808080" begin="arrowRight.mouseover" end="arrowRight.mouseout"/>
                  </use>
                  <path fill="none" stroke="white" stroke-width="1.5" d="M0,-3.0v7 M-2.5,-0.5L0,-3.0L2.5,-0.5"/>
                </g>
                <g id="arrowDown" xlink:href="#dirArrow" transform="rotate(180) translate(-30 -48)" onmousedown="handlePan(0,1)">
                  <use xlink:href="#rim" fill="#404040">
                        <set attributeName="fill" to="#808080" begin="arrowDown.mouseover" end="arrowDown.mouseout"/>
                  </use>
                  <path fill="none" stroke="white" stroke-width="1.5" d="M0,-3.0v7 M-2.5,-0.5L0,-3.0L2.5,-0.5"/>
                </g>
                <g id="arrowLeft" xlink:href="#dirArrow" transform="rotate(270) translate(-36 17)" onmousedown="handlePan(-1,0)">
                  <use xlink:href="#rim" fill="#404040">
                        <set attributeName="fill" to="#808080" begin="arrowLeft.mouseover" end="arrowLeft.mouseout"/>
                  </use>
                  <path fill="none" stroke="white" stroke-width="1.5" d="M0,-3.0v7 M-2.5,-0.5L0,-3.0L2.5,-0.5"/>
                </g>
        </g>
        <svg viewBox="0 0 15 15" width="100%" height="30px" preserveAspectRatio="xMaxYMin meet">
         <g id="arrow_out" transform="scale(0.3 0.3)">
          <a xlink:href="classgenerate__coll__graph_org.svg" target="_base">
           <rect id="button" ry="5" rx="5" y="6" x="6" height="38" width="38"
                fill="#f2f5e9" fill-opacity="0.5" stroke="#606060" stroke-width="1.0"/>
           <path id="arrow"
             d="M 11.500037,31.436501 C 11.940474,20.09759 22.043105,11.32322 32.158766,21.979434 L 37.068811,17.246167 C 37.068811,17.246167 37.088388,32 37.088388,32 L 22.160133,31.978069 C 22.160133,31.978069 26.997745,27.140456 26.997745,27.140456 C 18.528582,18.264221 13.291696,25.230495 11.500037,31.436501 z"
             style="fill:#404040;"/>
          </a>
         </g>
        </svg>
</svg>
