<?xml version="1.0" encoding="UTF-8" standalone="no"?>
<!DOCTYPE svg PUBLIC "-//W3C//DTD SVG 1.1//EN"
 "http://www.w3.org/Graphics/SVG/1.1/DTD/svg11.dtd">
<!-- Generated by graphviz version 2.30.1 (20130404.1610)
 -->
<!-- Title: MapBase::link Pages: 1 -->
<svg width="228pt" height="106pt"
 viewBox="0.00 0.00 228.00 106.00" xmlns="http://www.w3.org/2000/svg" xmlns:xlink="http://www.w3.org/1999/xlink">
<g id="graph0" class="graph" transform="scale(1 1) rotate(0) translate(4 102)">
<title>MapBase::link</title>
<!-- Node1 -->
<g id="node1" class="node"><title>Node1</title>
<polygon fill="#bfbfbf" stroke="black" points="0.6055,-39 0.6055,-59 79.3945,-59 79.3945,-39 0.6055,-39"/>
<text text-anchor="middle" x="40" y="-46" font-family="Helvetica,sans-Serif" font-size="10.00">MapBase::link</text>
</g>
<!-- Node2 -->
<g id="node2" class="node"><title>Node2</title>
<g id="a_node2"><a xlink:href="class_port.html#a7042f5b5c2ab14c9591a4984811a6012" target="_top" xlink:title="Port::hasPorts">
<polygon fill="none" stroke="black" points="128.326,-78 128.326,-98 207.674,-98 207.674,-78 128.326,-78"/>
<text text-anchor="middle" x="168" y="-85" font-family="Helvetica,sans-Serif" font-size="10.00">Port::hasPorts</text>
</a>
</g>
</g>
<!-- Node1&#45;&gt;Node2 -->
<g id="edge1" class="edge"><title>Node1&#45;&gt;Node2</title>
<path fill="none" stroke="midnightblue" d="M73.4481,-59.0435C89.174,-63.911 108.251,-69.8158 125.066,-75.0203"/>
<polygon fill="midnightblue" stroke="midnightblue" points="124.074,-78.3772 134.662,-77.9906 126.144,-71.6902 124.074,-78.3772"/>
</g>
<!-- Node3 -->
<g id="node3" class="node"><title>Node3</title>
<g id="a_node3"><a xlink:href="class_port.html#afb426a015195fa9b4b5b1d1200daf8ed" target="_top" xlink:title="Port::getPortInfoFor">
<polygon fill="none" stroke="black" points="116.1,-39 116.1,-59 219.9,-59 219.9,-39 116.1,-39"/>
<text text-anchor="middle" x="168" y="-46" font-family="Helvetica,sans-Serif" font-size="10.00">Port::getPortInfoFor</text>
</a>
</g>
</g>
<!-- Node1&#45;&gt;Node3 -->
<g id="edge2" class="edge"><title>Node1&#45;&gt;Node3</title>
<path fill="none" stroke="midnightblue" d="M79.4888,-49C87.7968,-49 96.7786,-49 105.714,-49"/>
<polygon fill="midnightblue" stroke="midnightblue" points="105.745,-52.5001 115.745,-49 105.745,-45.5001 105.745,-52.5001"/>
</g>
<!-- Node4 -->
<g id="node4" class="node"><title>Node4</title>
<g id="a_node4"><a xlink:href="class_map_base.html#a2624d7b81f0078dcc78e524045403e28" target="_top" xlink:title="MapBase::join">
<polygon fill="none" stroke="black" points="128.326,-0 128.326,-20 207.674,-20 207.674,-0 128.326,-0"/>
<text text-anchor="middle" x="168" y="-7" font-family="Helvetica,sans-Serif" font-size="10.00">MapBase::join</text>
</a>
</g>
</g>
<!-- Node1&#45;&gt;Node4 -->
<g id="edge3" class="edge"><title>Node1&#45;&gt;Node4</title>
<path fill="none" stroke="midnightblue" d="M73.4481,-38.9565C89.174,-34.089 108.251,-28.1842 125.066,-22.9797"/>
<polygon fill="midnightblue" stroke="midnightblue" points="126.144,-26.3098 134.662,-20.0094 124.074,-19.6228 126.144,-26.3098"/>
</g>
</g>
</svg>
