<?xml version="1.0" encoding="UTF-8" standalone="no"?>
<!DOCTYPE svg PUBLIC "-//W3C//DTD SVG 1.1//EN"
 "http://www.w3.org/Graphics/SVG/1.1/DTD/svg11.dtd">
<!-- Generated by graphviz version 2.30.1 (20130404.1610)
 -->
<!-- Title: frame_resolution::updateResolution Pages: 1 -->
<svg width="400pt" height="53pt"
 viewBox="0.00 0.00 400.00 53.00" xmlns="http://www.w3.org/2000/svg" xmlns:xlink="http://www.w3.org/1999/xlink">
<g id="graph0" class="graph" transform="scale(1 1) rotate(0) translate(4 49)">
<title>frame_resolution::updateResolution</title>
<!-- Node1 -->
<g id="node1" class="node"><title>Node1</title>
<polygon fill="#bfbfbf" stroke="black" points="0.7065,-13 0.7065,-45 127.293,-45 127.293,-13 0.7065,-13"/>
<text text-anchor="start" x="8.7065" y="-32" font-family="Helvetica,sans-Serif" font-size="10.00">frame_resolution::update</text>
<text text-anchor="middle" x="64" y="-20" font-family="Helvetica,sans-Serif" font-size="10.00">Resolution</text>
</g>
<!-- Node2 -->
<g id="node2" class="node"><title>Node2</title>
<g id="a_node2"><a xlink:href="class_clock.html#aa01fbc51935015e140350da545d9b420" target="_top" xlink:title="Clock::getTime">
<polygon fill="none" stroke="black" points="308.666,-19 308.666,-39 391.334,-39 391.334,-19 308.666,-19"/>
<text text-anchor="middle" x="350" y="-26" font-family="Helvetica,sans-Serif" font-size="10.00">Clock::getTime</text>
</a>
</g>
</g>
<!-- Node1&#45;&gt;Node2 -->
<g id="edge1" class="edge"><title>Node1&#45;&gt;Node2</title>
<path fill="none" stroke="midnightblue" d="M127.325,-29C178.589,-29 250.337,-29 298.171,-29"/>
<polygon fill="midnightblue" stroke="midnightblue" points="298.297,-32.5001 308.297,-29 298.297,-25.5001 298.297,-32.5001"/>
</g>
<!-- Node3 -->
<g id="node3" class="node"><title>Node3</title>
<g id="a_node3"><a xlink:href="class_clock.html#a9c1808239308465e8e9cc4aebd50f696" target="_top" xlink:title="Clock::getResolution">
<polygon fill="none" stroke="black" points="164.159,-0 164.159,-20 271.841,-20 271.841,-0 164.159,-0"/>
<text text-anchor="middle" x="218" y="-7" font-family="Helvetica,sans-Serif" font-size="10.00">Clock::getResolution</text>
</a>
</g>
</g>
<!-- Node1&#45;&gt;Node3 -->
<g id="edge2" class="edge"><title>Node1&#45;&gt;Node3</title>
<path fill="none" stroke="midnightblue" d="M127.702,-21.1623C136.401,-20.0749 145.34,-18.9575 154.044,-17.8696"/>
<polygon fill="midnightblue" stroke="midnightblue" points="154.636,-21.3228 164.124,-16.6094 153.768,-14.3769 154.636,-21.3228"/>
</g>
<!-- Node3&#45;&gt;Node2 -->
<g id="edge3" class="edge"><title>Node3&#45;&gt;Node2</title>
<path fill="none" stroke="midnightblue" d="M271.876,-17.728C280.667,-19.0129 289.765,-20.3426 298.496,-21.6186"/>
<polygon fill="midnightblue" stroke="midnightblue" points="298.134,-25.1029 308.535,-23.0859 299.147,-18.1765 298.134,-25.1029"/>
</g>
</g>
</svg>
