<?xml version="1.0" encoding="UTF-8" standalone="no"?>
<!DOCTYPE svg PUBLIC "-//W3C//DTD SVG 1.1//EN"
 "http://www.w3.org/Graphics/SVG/1.1/DTD/svg11.dtd">
<!-- Generated by graphviz version 2.30.1 (20130404.1610)
 -->
<!-- Title: pool_schedule Pages: 1 -->
<svg width="1286pt" height="836pt"
 viewBox="0.00 0.00 1286.00 836.00" xmlns="http://www.w3.org/2000/svg" xmlns:xlink="http://www.w3.org/1999/xlink">
<g id="graph0" class="graph" transform="scale(1 1) rotate(0) translate(4 832)">
<title>pool_schedule</title>
<!-- Node1 -->
<g id="node1" class="node"><title>Node1</title>
<polygon fill="#bfbfbf" stroke="black" points="912.765,-640 912.765,-660 993.235,-660 993.235,-640 912.765,-640"/>
<text text-anchor="middle" x="953" y="-647" font-family="Helvetica,sans-Serif" font-size="10.00">pool_schedule</text>
</g>
<!-- Node2 -->
<g id="node2" class="node"><title>Node2</title>
<g id="a_node2"><a xlink:href="class_schedule.html" target="_top" xlink:title="Schedule">
<polygon fill="none" stroke="black" points="680.159,-576 680.159,-596 737.841,-596 737.841,-576 680.159,-576"/>
<text text-anchor="middle" x="709" y="-583" font-family="Helvetica,sans-Serif" font-size="10.00">Schedule</text>
</a>
</g>
</g>
<!-- Node2&#45;&gt;Node1 -->
<g id="edge1" class="edge"><title>Node2&#45;&gt;Node1</title>
<path fill="none" stroke="midnightblue" d="M748.176,-595.239C782.698,-603.693 834.878,-616.717 880,-629 892.564,-632.42 906.298,-636.372 918.372,-639.92"/>
<polygon fill="midnightblue" stroke="midnightblue" points="748.602,-591.74 738.057,-592.768 746.941,-598.54 748.602,-591.74"/>
</g>
<!-- Node3 -->
<g id="node3" class="node"><title>Node3</title>
<g id="a_node3"><a xlink:href="class_system_signal_handler.html" target="_top" xlink:title="SystemSignalHandler">
<polygon fill="none" stroke="black" points="364.938,-528 364.938,-548 477.062,-548 477.062,-528 364.938,-528"/>
<text text-anchor="middle" x="421" y="-535" font-family="Helvetica,sans-Serif" font-size="10.00">SystemSignalHandler</text>
</a>
</g>
</g>
<!-- Node3&#45;&gt;Node2 -->
<g id="edge2" class="edge"><title>Node3&#45;&gt;Node2</title>
<path fill="none" stroke="#9a32cd" stroke-dasharray="5,2" d="M471.247,-526.147C511.552,-519.174 568.761,-515.713 612,-539 624.698,-545.839 618.236,-557.657 630,-566 644.596,-576.352 664.096,-581.352 679.947,-583.764"/>
<polygon fill="#9a32cd" stroke="#9a32cd" points="470.574,-522.712 461.383,-527.982 471.854,-529.594 470.574,-522.712"/>
<text text-anchor="middle" x="560" y="-542" font-family="Helvetica,sans-Serif" font-size="10.00"> handlers</text>
</g>
<!-- Node4 -->
<g id="node4" class="node"><title>Node4</title>
<polygon fill="none" stroke="#bfbfbf" points="650.158,-525 650.158,-557 767.842,-557 767.842,-525 650.158,-525"/>
<text text-anchor="start" x="658.158" y="-544" font-family="Helvetica,sans-Serif" font-size="10.00">hardware_concurrency</text>
<text text-anchor="middle" x="709" y="-532" font-family="Helvetica,sans-Serif" font-size="10.00">()) const</text>
</g>
<!-- Node4&#45;&gt;Node1 -->
<g id="edge3" class="edge"><title>Node4&#45;&gt;Node1</title>
<path fill="none" stroke="#9a32cd" stroke-dasharray="5,2" d="M777.656,-556.109C809.742,-564.755 847.97,-577.258 880,-594 904.139,-606.617 928.343,-627.559 941.628,-639.944"/>
<polygon fill="#9a32cd" stroke="#9a32cd" points="778.47,-552.705 767.909,-553.55 776.692,-559.475 778.47,-552.705"/>
<text text-anchor="middle" x="843" y="-597" font-family="Helvetica,sans-Serif" font-size="10.00"> n_threads</text>
</g>
<!-- Node5 -->
<g id="node5" class="node"><title>Node5</title>
<polygon fill="none" stroke="#bfbfbf" points="629.87,-666 629.87,-686 788.13,-686 788.13,-666 629.87,-666"/>
<text text-anchor="middle" x="709" y="-673" font-family="Helvetica,sans-Serif" font-size="10.00">std::vector&lt; KernelContainer * &gt;</text>
</g>
<!-- Node5&#45;&gt;Node1 -->
<g id="edge4" class="edge"><title>Node5&#45;&gt;Node1</title>
<path fill="none" stroke="#9a32cd" stroke-dasharray="5,2" d="M798.358,-666.507C837.596,-662.291 881.783,-657.544 912.664,-654.226"/>
<polygon fill="#9a32cd" stroke="#9a32cd" points="797.805,-663.046 788.236,-667.594 798.553,-670.006 797.805,-663.046"/>
<text text-anchor="middle" x="843" y="-668" font-family="Helvetica,sans-Serif" font-size="10.00"> container</text>
</g>
<!-- Node6 -->
<g id="node6" class="node"><title>Node6</title>
<g id="a_node6"><a xlink:href="class_kernel_container.html" target="_top" xlink:title="KernelContainer">
<polygon fill="none" stroke="black" points="376.882,-633 376.882,-653 465.118,-653 465.118,-633 376.882,-633"/>
<text text-anchor="middle" x="421" y="-640" font-family="Helvetica,sans-Serif" font-size="10.00">KernelContainer</text>
</a>
</g>
</g>
<!-- Node6&#45;&gt;Node5 -->
<g id="edge5" class="edge"><title>Node6&#45;&gt;Node5</title>
<path fill="none" stroke="#9a32cd" stroke-dasharray="5,2" d="M475.824,-647.225C513.918,-650.429 566.172,-655.254 612,-661 623.549,-662.448 635.847,-664.205 647.65,-666"/>
<polygon fill="#9a32cd" stroke="#9a32cd" points="475.728,-643.705 465.472,-646.365 475.148,-650.681 475.728,-643.705"/>
<text text-anchor="middle" x="560" y="-664" font-family="Helvetica,sans-Serif" font-size="10.00"> elements</text>
</g>
<!-- Node7 -->
<g id="node7" class="node"><title>Node7</title>
<g id="a_node7"><a xlink:title="STL class. ">
<polygon fill="none" stroke="#bfbfbf" points="378.267,-672 378.267,-692 463.733,-692 463.733,-672 378.267,-672"/>
<text text-anchor="middle" x="421" y="-679" font-family="Helvetica,sans-Serif" font-size="10.00">std::vector&lt; T &gt;</text>
</a>
</g>
</g>
<!-- Node7&#45;&gt;Node5 -->
<g id="edge6" class="edge"><title>Node7&#45;&gt;Node5</title>
<path fill="none" stroke="orange" stroke-dasharray="5,2" d="M474.067,-680.017C485.26,-679.638 497.023,-679.274 508,-679 548.096,-678 592.723,-677.292 629.631,-676.815"/>
<polygon fill="orange" stroke="orange" points="473.859,-676.522 463.987,-680.368 474.103,-683.518 473.859,-676.522"/>
<text text-anchor="middle" x="560" y="-682" font-family="Helvetica,sans-Serif" font-size="10.00"> &lt; KernelContainer * &gt;</text>
</g>
<!-- Node9 -->
<g id="node9" class="node"><title>Node9</title>
<polygon fill="none" stroke="#bfbfbf" points="642.367,-773 642.367,-793 775.633,-793 775.633,-773 642.367,-773"/>
<text text-anchor="middle" x="709" y="-780" font-family="Helvetica,sans-Serif" font-size="10.00">std::vector&lt; std::thread * &gt;</text>
</g>
<!-- Node7&#45;&gt;Node9 -->
<g id="edge10" class="edge"><title>Node7&#45;&gt;Node9</title>
<path fill="none" stroke="orange" stroke-dasharray="5,2" d="M448.593,-697.539C461.807,-705.941 477.563,-717.036 490,-729 499.609,-738.244 496.551,-746.167 508,-753 530.16,-766.226 592.816,-774.154 642.154,-778.508"/>
<polygon fill="orange" stroke="orange" points="450.269,-694.46 439.923,-692.175 446.586,-700.413 450.269,-694.46"/>
<text text-anchor="middle" x="560" y="-778" font-family="Helvetica,sans-Serif" font-size="10.00"> &lt; std::thread * &gt;</text>
</g>
<!-- Node11 -->
<g id="node11" class="node"><title>Node11</title>
<polygon fill="none" stroke="#bfbfbf" points="663.628,-615 663.628,-647 754.372,-647 754.372,-615 663.628,-615"/>
<text text-anchor="start" x="671.628" y="-634" font-family="Helvetica,sans-Serif" font-size="10.00">std::vector&lt; raft::</text>
<text text-anchor="middle" x="709" y="-622" font-family="Helvetica,sans-Serif" font-size="10.00">kernel * &gt;</text>
</g>
<!-- Node7&#45;&gt;Node11 -->
<g id="edge40" class="edge"><title>Node7&#45;&gt;Node11</title>
<path fill="none" stroke="orange" stroke-dasharray="5,2" d="M473.249,-671.329C479.214,-668.841 484.958,-665.776 490,-662 501.842,-653.132 495.069,-641.186 508,-634 555.959,-607.348 620.903,-612.452 663.597,-620.265"/>
<polygon fill="orange" stroke="orange" points="471.964,-668.072 463.765,-674.783 474.359,-674.65 471.964,-668.072"/>
<text text-anchor="middle" x="560" y="-637" font-family="Helvetica,sans-Serif" font-size="10.00"> &lt; raft::kernel * &gt;</text>
</g>
<!-- Node31 -->
<g id="node31" class="node"><title>Node31</title>
<polygon fill="none" stroke="#bfbfbf" points="644.866,-705 644.866,-725 773.134,-725 773.134,-705 644.866,-705"/>
<text text-anchor="middle" x="709" y="-712" font-family="Helvetica,sans-Serif" font-size="10.00">std::vector&lt; std::uint8_t &gt;</text>
</g>
<!-- Node7&#45;&gt;Node31 -->
<g id="edge43" class="edge"><title>Node7&#45;&gt;Node31</title>
<path fill="none" stroke="orange" stroke-dasharray="5,2" d="M474.074,-688.009C522.119,-693.552 593.563,-701.796 644.845,-707.713"/>
<polygon fill="orange" stroke="orange" points="474.228,-684.503 463.893,-686.834 473.426,-691.457 474.228,-684.503"/>
<text text-anchor="middle" x="560" y="-706" font-family="Helvetica,sans-Serif" font-size="10.00"> &lt; std::uint8_t &gt;</text>
</g>
<!-- Node8 -->
<g id="node8" class="node"><title>Node8</title>
<polygon fill="none" stroke="#bfbfbf" points="0.5,-450 0.5,-470 29.5,-470 29.5,-450 0.5,-450"/>
<text text-anchor="middle" x="15" y="-457" font-family="Helvetica,sans-Serif" font-size="10.00">T</text>
</g>
<!-- Node8&#45;&gt;Node7 -->
<g id="edge7" class="edge"><title>Node8&#45;&gt;Node7</title>
<path fill="none" stroke="#9a32cd" stroke-dasharray="5,2" d="M37.8748,-475.892C89.9268,-513.078 226.218,-606.781 352,-662 360.676,-665.809 370.285,-669.136 379.48,-671.926"/>
<polygon fill="#9a32cd" stroke="#9a32cd" points="39.869,-473.015 29.7051,-470.024 35.7853,-478.7 39.869,-473.015"/>
<text text-anchor="middle" x="157" y="-584" font-family="Helvetica,sans-Serif" font-size="10.00"> elements</text>
</g>
<!-- Node24 -->
<g id="node24" class="node"><title>Node24</title>
<g id="a_node24"><a xlink:title="STL class. ">
<polygon fill="none" stroke="#bfbfbf" points="112.043,-292 112.043,-312 201.957,-312 201.957,-292 112.043,-292"/>
<text text-anchor="middle" x="157" y="-299" font-family="Helvetica,sans-Serif" font-size="10.00">std::map&lt; K, T &gt;</text>
</a>
</g>
</g>
<!-- Node8&#45;&gt;Node24 -->
<g id="edge27" class="edge"><title>Node8&#45;&gt;Node24</title>
<path fill="none" stroke="#9a32cd" stroke-dasharray="5,2" d="M31.9381,-442.013C61.4432,-408.714 123.685,-338.469 146.962,-312.2"/>
<polygon fill="#9a32cd" stroke="#9a32cd" points="29.1981,-439.827 25.1858,-449.633 34.4373,-444.47 29.1981,-439.827"/>
<text text-anchor="middle" x="70" y="-424" font-family="Helvetica,sans-Serif" font-size="10.00"> elements</text>
</g>
<!-- Node9&#45;&gt;Node1 -->
<g id="edge8" class="edge"><title>Node9&#45;&gt;Node1</title>
<path fill="none" stroke="#9a32cd" stroke-dasharray="5,2" d="M754.859,-769.89C790.379,-758.397 840.425,-739.67 880,-715 905.438,-699.143 930.31,-673.912 943.105,-660.009"/>
<polygon fill="#9a32cd" stroke="#9a32cd" points="753.721,-766.579 745.247,-772.939 755.837,-773.251 753.721,-766.579"/>
<text text-anchor="middle" x="843" y="-753" font-family="Helvetica,sans-Serif" font-size="10.00"> pool</text>
</g>
<!-- Node10 -->
<g id="node10" class="node"><title>Node10</title>
<g id="a_node10"><a xlink:title="STL class. ">
<polygon fill="none" stroke="#bfbfbf" points="389.38,-808 389.38,-828 452.62,-828 452.62,-808 389.38,-808"/>
<text text-anchor="middle" x="421" y="-815" font-family="Helvetica,sans-Serif" font-size="10.00">std::thread</text>
</a>
</g>
</g>
<!-- Node10&#45;&gt;Node9 -->
<g id="edge9" class="edge"><title>Node10&#45;&gt;Node9</title>
<path fill="none" stroke="#9a32cd" stroke-dasharray="5,2" d="M462.91,-813.494C501.407,-809.199 560.652,-802.449 612,-796 621.762,-794.774 632.076,-793.429 642.179,-792.084"/>
<polygon fill="#9a32cd" stroke="#9a32cd" points="462.178,-810.054 452.626,-814.638 462.951,-817.011 462.178,-810.054"/>
<text text-anchor="middle" x="560" y="-811" font-family="Helvetica,sans-Serif" font-size="10.00"> elements</text>
</g>
<!-- Node11&#45;&gt;Node1 -->
<g id="edge11" class="edge"><title>Node11&#45;&gt;Node1</title>
<path fill="none" stroke="#9a32cd" stroke-dasharray="5,2" d="M764.5,-632.116C797.903,-633.159 841.499,-635.164 880,-639 890.569,-640.053 901.955,-641.6 912.482,-643.202"/>
<polygon fill="#9a32cd" stroke="#9a32cd" points="764.576,-628.616 754.477,-631.822 764.371,-635.613 764.576,-628.616"/>
<text text-anchor="middle" x="843" y="-642" font-family="Helvetica,sans-Serif" font-size="10.00"> kernel_map</text>
</g>
<!-- Node12 -->
<g id="node12" class="node"><title>Node12</title>
<g id="a_node12"><a xlink:href="classraft_1_1kernel.html" target="_top" xlink:title="raft::kernel">
<polygon fill="none" stroke="black" points="389.385,-445 389.385,-465 452.615,-465 452.615,-445 389.385,-445"/>
<text text-anchor="middle" x="421" y="-452" font-family="Helvetica,sans-Serif" font-size="10.00">raft::kernel</text>
</a>
</g>
</g>
<!-- Node12&#45;&gt;Node11 -->
<g id="edge12" class="edge"><title>Node12&#45;&gt;Node11</title>
<path fill="none" stroke="#9a32cd" stroke-dasharray="5,2" d="M442.739,-471.607C457.095,-483.761 476.052,-501.177 490,-519 500.057,-531.85 495.923,-540.027 508,-551 518.972,-560.969 616.175,-599.65 630,-605 640.783,-609.173 652.551,-613.308 663.601,-617.011"/>
<polygon fill="#9a32cd" stroke="#9a32cd" points="444.823,-468.788 434.892,-465.097 440.353,-474.175 444.823,-468.788"/>
<text text-anchor="middle" x="560" y="-600" font-family="Helvetica,sans-Serif" font-size="10.00"> elements</text>
</g>
<!-- Node21 -->
<g id="node21" class="node"><title>Node21</title>
<g id="a_node21"><a xlink:href="struct_port_info.html" target="_top" xlink:title="PortInfo">
<polygon fill="none" stroke="black" points="683.494,-213 683.494,-233 734.506,-233 734.506,-213 683.494,-213"/>
<text text-anchor="middle" x="709" y="-220" font-family="Helvetica,sans-Serif" font-size="10.00">PortInfo</text>
</a>
</g>
</g>
<!-- Node12&#45;&gt;Node21 -->
<g id="edge35" class="edge"><title>Node12&#45;&gt;Node21</title>
<path fill="none" stroke="#9a32cd" stroke-dasharray="5,2" d="M450.558,-440.074C503.185,-412.555 610.3,-356.471 612,-355 655.287,-317.549 690.033,-257.015 702.766,-233.143"/>
<polygon fill="#9a32cd" stroke="#9a32cd" points="448.643,-437.126 441.403,-444.861 451.886,-443.329 448.643,-437.126"/>
<text text-anchor="middle" x="560" y="-423" font-family="Helvetica,sans-Serif" font-size="10.00"> my_kernel</text>
<text text-anchor="middle" x="560" y="-411" font-family="Helvetica,sans-Serif" font-size="10.00">other_kernel</text>
</g>
<!-- Node14 -->
<g id="node14" class="node"><title>Node14</title>
<g id="a_node14"><a xlink:href="class_port.html" target="_top" xlink:title="Port">
<polygon fill="none" stroke="black" points="1243.83,-375 1243.83,-395 1278.17,-395 1278.17,-375 1243.83,-375"/>
<text text-anchor="middle" x="1261" y="-382" font-family="Helvetica,sans-Serif" font-size="10.00">Port</text>
</a>
</g>
</g>
<!-- Node12&#45;&gt;Node14 -->
<g id="edge39" class="edge"><title>Node12&#45;&gt;Node14</title>
<path fill="none" stroke="#9a32cd" stroke-dasharray="5,2" d="M463.028,-453.365C518.561,-451.296 620.745,-448 708,-448 708,-448 708,-448 1134,-448 1177.29,-448 1188.8,-438.147 1226,-416 1235.47,-410.361 1244.61,-401.793 1251.03,-395.093"/>
<polygon fill="#9a32cd" stroke="#9a32cd" points="462.75,-449.873 452.889,-453.749 463.014,-456.868 462.75,-449.873"/>
<text text-anchor="middle" x="953" y="-451" font-family="Helvetica,sans-Serif" font-size="10.00"> kernel</text>
</g>
<!-- Node13 -->
<g id="node13" class="node"><title>Node13</title>
<polygon fill="none" stroke="#bfbfbf" points="135.942,-406 135.942,-426 178.058,-426 178.058,-406 135.942,-406"/>
<text text-anchor="middle" x="157" y="-413" font-family="Helvetica,sans-Serif" font-size="10.00">size_t</text>
</g>
<!-- Node13&#45;&gt;Node12 -->
<g id="edge13" class="edge"><title>Node13&#45;&gt;Node12</title>
<path fill="none" stroke="#9a32cd" stroke-dasharray="5,2" d="M187.836,-423.108C198.566,-425.51 210.788,-428.07 222,-430 280.901,-440.14 350.325,-447.966 389.346,-451.992"/>
<polygon fill="#9a32cd" stroke="#9a32cd" points="188.615,-419.696 178.086,-420.879 187.055,-426.52 188.615,-419.696"/>
<text text-anchor="middle" x="278" y="-448" font-family="Helvetica,sans-Serif" font-size="10.00"> kernel_count</text>
</g>
<!-- Node13&#45;&gt;Node14 -->
<g id="edge17" class="edge"><title>Node13&#45;&gt;Node14</title>
<path fill="none" stroke="#9a32cd" stroke-dasharray="5,2" d="M188.54,-415.89C315.715,-415.284 815.751,-411.455 1226,-388 1231.8,-387.669 1238.14,-387.151 1243.76,-386.639"/>
<polygon fill="#9a32cd" stroke="#9a32cd" points="188.366,-412.39 178.382,-415.935 188.397,-419.39 188.366,-412.39"/>
<text text-anchor="middle" x="843" y="-408" font-family="Helvetica,sans-Serif" font-size="10.00"> alloc_ptr_length</text>
</g>
<!-- Node13&#45;&gt;Node21 -->
<g id="edge34" class="edge"><title>Node13&#45;&gt;Node21</title>
<path fill="none" stroke="#9a32cd" stroke-dasharray="5,2" d="M188.22,-407.733C261.825,-387.271 455.803,-331.385 612,-269 639.289,-258.101 669.713,-242.996 688.85,-233.113"/>
<polygon fill="#9a32cd" stroke="#9a32cd" points="186.957,-404.451 178.253,-410.491 188.824,-411.197 186.957,-404.451"/>
<text text-anchor="middle" x="421" y="-374" font-family="Helvetica,sans-Serif" font-size="10.00"> nitems</text>
<text text-anchor="middle" x="421" y="-362" font-family="Helvetica,sans-Serif" font-size="10.00">start_index</text>
</g>
<!-- Node14&#45;&gt;Node12 -->
<g id="edge14" class="edge"><title>Node14&#45;&gt;Node12</title>
<path fill="none" stroke="#9a32cd" stroke-dasharray="5,2" d="M1255.72,-405.349C1251.11,-422.571 1242.16,-446.811 1226,-462 1194.24,-491.857 1177.59,-496 1134,-496 708,-496 708,-496 708,-496 614.2,-496 504.831,-474.123 452.688,-462.33"/>
<polygon fill="#9a32cd" stroke="#9a32cd" points="1259.22,-405.751 1258.15,-395.21 1252.41,-404.117 1259.22,-405.751"/>
<text text-anchor="middle" x="953" y="-511" font-family="Helvetica,sans-Serif" font-size="10.00"> output</text>
<text text-anchor="middle" x="953" y="-499" font-family="Helvetica,sans-Serif" font-size="10.00">input</text>
</g>
<!-- Node15 -->
<g id="node15" class="node"><title>Node15</title>
<g id="a_node15"><a xlink:href="class_port_base.html" target="_top" xlink:title="PortBase">
<polygon fill="none" stroke="black" points="1104.44,-314 1104.44,-334 1161.56,-334 1161.56,-314 1104.44,-314"/>
<text text-anchor="middle" x="1133" y="-321" font-family="Helvetica,sans-Serif" font-size="10.00">PortBase</text>
</a>
</g>
</g>
<!-- Node15&#45;&gt;Node14 -->
<g id="edge15" class="edge"><title>Node15&#45;&gt;Node14</title>
<path fill="none" stroke="midnightblue" d="M1166.65,-338.13C1184.38,-345.994 1206.57,-356.158 1226,-366 1231.79,-368.934 1238.02,-372.339 1243.54,-375.45"/>
<polygon fill="midnightblue" stroke="midnightblue" points="1167.87,-334.844 1157.31,-334.015 1165.05,-341.25 1167.87,-334.844"/>
</g>
<!-- Node16 -->
<g id="node16" class="node"><title>Node16</title>
<polygon fill="none" stroke="#bfbfbf" points="1100.55,-275 1100.55,-295 1165.45,-295 1165.45,-275 1100.55,-275"/>
<text text-anchor="middle" x="1133" y="-282" font-family="Helvetica,sans-Serif" font-size="10.00">void *const</text>
</g>
<!-- Node16&#45;&gt;Node14 -->
<g id="edge16" class="edge"><title>Node16&#45;&gt;Node14</title>
<path fill="none" stroke="#9a32cd" stroke-dasharray="5,2" d="M1173.25,-298.991C1190.76,-306.573 1210.82,-317.24 1226,-331 1239.79,-343.498 1250.12,-362.848 1255.6,-374.675"/>
<polygon fill="#9a32cd" stroke="#9a32cd" points="1174.41,-295.683 1163.83,-295.096 1171.73,-302.152 1174.41,-295.683"/>
<text text-anchor="middle" x="1205" y="-334" font-family="Helvetica,sans-Serif" font-size="10.00"> alloc_ptr</text>
</g>
<!-- Node17 -->
<g id="node17" class="node"><title>Node17</title>
<g id="a_node17"><a xlink:href="structportmap__t.html" target="_top" xlink:title="portmap_t">
<polygon fill="none" stroke="black" points="1102.49,-353 1102.49,-373 1163.51,-373 1163.51,-353 1102.49,-353"/>
<text text-anchor="middle" x="1133" y="-360" font-family="Helvetica,sans-Serif" font-size="10.00">portmap_t</text>
</a>
</g>
</g>
<!-- Node17&#45;&gt;Node14 -->
<g id="edge18" class="edge"><title>Node17&#45;&gt;Node14</title>
<path fill="none" stroke="#9a32cd" stroke-dasharray="5,2" d="M1173.82,-367.58C1190.07,-369.721 1209.01,-372.563 1226,-376 1231.75,-377.162 1237.96,-378.718 1243.49,-380.21"/>
<polygon fill="#9a32cd" stroke="#9a32cd" points="1173.93,-364.066 1163.57,-366.275 1173.05,-371.01 1173.93,-364.066"/>
<text text-anchor="middle" x="1205" y="-379" font-family="Helvetica,sans-Serif" font-size="10.00"> portmap</text>
</g>
<!-- Node18 -->
<g id="node18" class="node"><title>Node18</title>
<polygon fill="none" stroke="#bfbfbf" points="898.46,-326 898.46,-358 1007.54,-358 1007.54,-326 898.46,-326"/>
<text text-anchor="start" x="906.46" y="-345" font-family="Helvetica,sans-Serif" font-size="10.00">std::map&lt; std::string,</text>
<text text-anchor="middle" x="953" y="-333" font-family="Helvetica,sans-Serif" font-size="10.00"> PortInfo &gt;</text>
</g>
<!-- Node18&#45;&gt;Node17 -->
<g id="edge19" class="edge"><title>Node18&#45;&gt;Node17</title>
<path fill="none" stroke="#9a32cd" stroke-dasharray="5,2" d="M1017.9,-349.539C1046.73,-352.94 1079.38,-356.791 1102.34,-359.501"/>
<polygon fill="#9a32cd" stroke="#9a32cd" points="1018.23,-346.054 1007.89,-348.358 1017.41,-353.005 1018.23,-346.054"/>
<text text-anchor="middle" x="1054" y="-360" font-family="Helvetica,sans-Serif" font-size="10.00"> map</text>
</g>
<!-- Node19 -->
<g id="node19" class="node"><title>Node19</title>
<g id="a_node19"><a xlink:title="STL class. ">
<polygon fill="none" stroke="#bfbfbf" points="391.329,-6 391.329,-26 450.671,-26 450.671,-6 391.329,-6"/>
<text text-anchor="middle" x="421" y="-13" font-family="Helvetica,sans-Serif" font-size="10.00">std::string</text>
</a>
</g>
</g>
<!-- Node19&#45;&gt;Node18 -->
<g id="edge20" class="edge"><title>Node19&#45;&gt;Node18</title>
<path fill="none" stroke="#9a32cd" stroke-dasharray="5,2" d="M460.964,-7.18713C500.524,-0.134283 562.792,5.66976 612,-14 764.669,-75.0262 788.8,-132.199 880,-269 892.408,-287.612 882.853,-299.541 898,-316 901.453,-319.752 905.562,-323.02 909.95,-325.852"/>
<polygon fill="#9a32cd" stroke="#9a32cd" points="460.1,-3.7884 450.928,-9.09053 461.405,-10.6658 460.1,-3.7884"/>
<text text-anchor="middle" x="709" y="-138" font-family="Helvetica,sans-Serif" font-size="10.00"> keys</text>
</g>
<!-- Node19&#45;&gt;Node21 -->
<g id="edge31" class="edge"><title>Node19&#45;&gt;Node21</title>
<path fill="none" stroke="#9a32cd" stroke-dasharray="5,2" d="M460.858,-14.9052C509.167,-14.2789 588.176,-15.8918 612,-32 677.793,-76.4855 700.672,-180.066 706.409,-212.856"/>
<polygon fill="#9a32cd" stroke="#9a32cd" points="460.693,-11.4074 450.753,-15.0744 460.811,-18.4064 460.693,-11.4074"/>
<text text-anchor="middle" x="560" y="-47" font-family="Helvetica,sans-Serif" font-size="10.00"> my_name</text>
<text text-anchor="middle" x="560" y="-35" font-family="Helvetica,sans-Serif" font-size="10.00">other_name</text>
</g>
<!-- Node20 -->
<g id="node20" class="node"><title>Node20</title>
<g id="a_node20"><a xlink:title="STL class. ">
<polygon fill="none" stroke="#bfbfbf" points="109.962,-0 109.962,-32 204.038,-32 204.038,-0 109.962,-0"/>
<text text-anchor="start" x="117.962" y="-19" font-family="Helvetica,sans-Serif" font-size="10.00">std::basic_string&lt;</text>
<text text-anchor="middle" x="157" y="-7" font-family="Helvetica,sans-Serif" font-size="10.00"> char &gt;</text>
</a>
</g>
</g>
<!-- Node20&#45;&gt;Node19 -->
<g id="edge21" class="edge"><title>Node20&#45;&gt;Node19</title>
<path fill="none" stroke="midnightblue" d="M214.411,-16C268.775,-16 348.842,-16 391.228,-16"/>
<polygon fill="midnightblue" stroke="midnightblue" points="214.237,-12.5001 204.237,-16 214.237,-19.5001 214.237,-12.5001"/>
</g>
<!-- Node21&#45;&gt;Node18 -->
<g id="edge22" class="edge"><title>Node21&#45;&gt;Node18</title>
<path fill="none" stroke="#9a32cd" stroke-dasharray="5,2" d="M739.479,-237.704C776.455,-256.119 841.825,-288.583 898,-316 904.639,-319.24 911.749,-322.683 918.558,-325.967"/>
<polygon fill="#9a32cd" stroke="#9a32cd" points="740.785,-234.444 730.274,-233.117 737.663,-240.71 740.785,-234.444"/>
<text text-anchor="middle" x="843" y="-310" font-family="Helvetica,sans-Serif" font-size="10.00"> elements</text>
</g>
<!-- Node22 -->
<g id="node22" class="node"><title>Node22</title>
<polygon fill="none" stroke="#bfbfbf" points="388.824,-213 388.824,-233 453.176,-233 453.176,-213 388.824,-213"/>
<text text-anchor="middle" x="421" y="-220" font-family="Helvetica,sans-Serif" font-size="10.00">type_index</text>
</g>
<!-- Node22&#45;&gt;Node21 -->
<g id="edge23" class="edge"><title>Node22&#45;&gt;Node21</title>
<path fill="none" stroke="#9a32cd" stroke-dasharray="5,2" d="M463.748,-223C524.162,-223 634.088,-223 683.174,-223"/>
<polygon fill="#9a32cd" stroke="#9a32cd" points="463.425,-219.5 453.425,-223 463.425,-226.5 463.425,-219.5"/>
<text text-anchor="middle" x="560" y="-226" font-family="Helvetica,sans-Serif" font-size="10.00"> type</text>
</g>
<!-- Node23 -->
<g id="node23" class="node"><title>Node23</title>
<polygon fill="none" stroke="#bfbfbf" points="352.012,-162 352.012,-194 489.988,-194 489.988,-162 352.012,-162"/>
<text text-anchor="start" x="360.012" y="-181" font-family="Helvetica,sans-Serif" font-size="10.00">std::map&lt; Type::RingBuffer</text>
<text text-anchor="middle" x="421" y="-169" font-family="Helvetica,sans-Serif" font-size="10.00">Type, instr_map_t * &gt;</text>
</g>
<!-- Node23&#45;&gt;Node21 -->
<g id="edge24" class="edge"><title>Node23&#45;&gt;Node21</title>
<path fill="none" stroke="#9a32cd" stroke-dasharray="5,2" d="M500.156,-189.683C534.485,-194.878 575.262,-201.135 612,-207 636.194,-210.862 663.779,-215.482 683.152,-218.763"/>
<polygon fill="#9a32cd" stroke="#9a32cd" points="500.599,-186.21 490.188,-188.177 499.553,-193.132 500.599,-186.21"/>
<text text-anchor="middle" x="560" y="-210" font-family="Helvetica,sans-Serif" font-size="10.00"> const_map</text>
</g>
<!-- Node24&#45;&gt;Node23 -->
<g id="edge25" class="edge"><title>Node24&#45;&gt;Node23</title>
<path fill="none" stroke="#9a32cd" stroke-dasharray="5,2" d="M211.997,-298.501C250.384,-293.321 300.819,-280.675 334,-250 350.425,-234.816 336.077,-218.71 352,-203 355.492,-199.555 359.498,-196.579 363.781,-194.01"/>
<polygon fill="#9a32cd" stroke="#9a32cd" points="211.519,-295.033 202.016,-299.718 212.366,-301.981 211.519,-295.033"/>
<text text-anchor="middle" x="278" y="-300" font-family="Helvetica,sans-Serif" font-size="10.00"> elements</text>
</g>
<!-- Node24&#45;&gt;Node23 -->
<g id="edge29" class="edge"><title>Node24&#45;&gt;Node23</title>
<path fill="none" stroke="orange" stroke-dasharray="5,2" d="M168.042,-283.07C178.864,-264.572 197.835,-237.062 222,-222 233.188,-215.027 299.038,-201.156 351.772,-190.843"/>
<polygon fill="orange" stroke="orange" points="164.98,-281.375 163.141,-291.809 171.086,-284.799 164.98,-281.375"/>
<text text-anchor="start" x="222.291" y="-237" font-family="Helvetica,sans-Serif" font-size="10.00"> &lt; Type::RingBufferType,</text>
<text text-anchor="middle" x="278" y="-225" font-family="Helvetica,sans-Serif" font-size="10.00"> instr_map_t * &gt;</text>
</g>
<!-- Node24&#45;&gt;Node18 -->
<g id="edge37" class="edge"><title>Node24&#45;&gt;Node18</title>
<path fill="none" stroke="orange" stroke-dasharray="5,2" d="M200.84,-314.907C239.827,-325.937 299.183,-340.955 352,-347 412.935,-353.975 429.718,-358.309 490,-347 498.436,-345.417 499.564,-341.583 508,-340 553.43,-331.477 565.778,-339.864 612,-340 713.234,-340.298 831.421,-341.094 898.413,-341.587"/>
<polygon fill="orange" stroke="orange" points="201.473,-311.447 190.896,-312.054 199.543,-318.176 201.473,-311.447"/>
<text text-anchor="middle" x="560" y="-343" font-family="Helvetica,sans-Serif" font-size="10.00"> &lt; std::string, PortInfo &gt;</text>
</g>
<!-- Node25 -->
<g id="node25" class="node"><title>Node25</title>
<polygon fill="none" stroke="#bfbfbf" points="0.5,-292 0.5,-312 29.5,-312 29.5,-292 0.5,-292"/>
<text text-anchor="middle" x="15" y="-299" font-family="Helvetica,sans-Serif" font-size="10.00">K</text>
</g>
<!-- Node25&#45;&gt;Node24 -->
<g id="edge26" class="edge"><title>Node25&#45;&gt;Node24</title>
<path fill="none" stroke="#9a32cd" stroke-dasharray="5,2" d="M39.9163,-302C59.6521,-302 88.1832,-302 112.021,-302"/>
<polygon fill="#9a32cd" stroke="#9a32cd" points="39.6787,-298.5 29.6787,-302 39.6787,-305.5 39.6787,-298.5"/>
<text text-anchor="middle" x="70" y="-305" font-family="Helvetica,sans-Serif" font-size="10.00"> keys</text>
</g>
<!-- Node26 -->
<g id="node26" class="node"><title>Node26</title>
<polygon fill="none" stroke="#bfbfbf" points="114.272,-168 114.272,-188 199.728,-188 199.728,-168 114.272,-168"/>
<text text-anchor="middle" x="157" y="-175" font-family="Helvetica,sans-Serif" font-size="10.00">RingBufferType</text>
</g>
<!-- Node26&#45;&gt;Node23 -->
<g id="edge28" class="edge"><title>Node26&#45;&gt;Node23</title>
<path fill="none" stroke="#9a32cd" stroke-dasharray="5,2" d="M210.032,-178C250.679,-178 307.506,-178 351.793,-178"/>
<polygon fill="#9a32cd" stroke="#9a32cd" points="209.804,-174.5 199.804,-178 209.804,-181.5 209.804,-174.5"/>
<text text-anchor="middle" x="278" y="-181" font-family="Helvetica,sans-Serif" font-size="10.00"> keys</text>
</g>
<!-- Node27 -->
<g id="node27" class="node"><title>Node27</title>
<polygon fill="none" stroke="#bfbfbf" points="139.552,-91 139.552,-111 174.448,-111 174.448,-91 139.552,-91"/>
<text text-anchor="middle" x="157" y="-98" font-family="Helvetica,sans-Serif" font-size="10.00">bool</text>
</g>
<!-- Node27&#45;&gt;Node21 -->
<g id="edge30" class="edge"><title>Node27&#45;&gt;Node21</title>
<path fill="none" stroke="#9a32cd" stroke-dasharray="5,2" d="M185.235,-102.698C259.298,-107.39 460.792,-120.664 490,-128 568.281,-147.66 654.136,-192.696 690.344,-212.884"/>
<polygon fill="#9a32cd" stroke="#9a32cd" points="185.077,-99.1816 174.877,-102.046 184.637,-106.168 185.077,-99.1816"/>
<text text-anchor="middle" x="421" y="-143" font-family="Helvetica,sans-Serif" font-size="10.00"> use_my_allocator</text>
<text text-anchor="middle" x="421" y="-131" font-family="Helvetica,sans-Serif" font-size="10.00">out_of_order</text>
</g>
<!-- Node28 -->
<g id="node28" class="node"><title>Node28</title>
<g id="a_node28"><a xlink:href="class_f_i_f_o.html" target="_top" xlink:title="FIFO">
<polygon fill="none" stroke="black" points="401.612,-62 401.612,-82 440.388,-82 440.388,-62 401.612,-62"/>
<text text-anchor="middle" x="421" y="-69" font-family="Helvetica,sans-Serif" font-size="10.00">FIFO</text>
</a>
</g>
</g>
<!-- Node27&#45;&gt;Node28 -->
<g id="edge33" class="edge"><title>Node27&#45;&gt;Node28</title>
<path fill="none" stroke="#9a32cd" stroke-dasharray="5,2" d="M184.803,-97.5364C196.256,-96.0858 209.777,-94.412 222,-93 287.932,-85.3836 366.341,-77.3793 401.425,-73.8532"/>
<polygon fill="#9a32cd" stroke="#9a32cd" points="184.042,-94.1051 174.565,-98.8431 184.928,-101.049 184.042,-94.1051"/>
<text text-anchor="middle" x="278" y="-96" font-family="Helvetica,sans-Serif" font-size="10.00"> valid</text>
</g>
<!-- Node28&#45;&gt;Node21 -->
<g id="edge32" class="edge"><title>Node28&#45;&gt;Node21</title>
<path fill="none" stroke="#9a32cd" stroke-dasharray="5,2" d="M450.39,-65.8925C489.519,-59.0478 560.968,-52.3322 612,-81 665.705,-111.169 695.326,-185.392 704.698,-212.7"/>
<polygon fill="#9a32cd" stroke="#9a32cd" points="449.666,-62.4671 440.483,-67.7512 450.957,-69.3471 449.666,-62.4671"/>
<text text-anchor="middle" x="560" y="-96" font-family="Helvetica,sans-Serif" font-size="10.00"> fifo_a</text>
<text text-anchor="middle" x="560" y="-84" font-family="Helvetica,sans-Serif" font-size="10.00">fifo_b</text>
</g>
<!-- Node29 -->
<g id="node29" class="node"><title>Node29</title>
<polygon fill="none" stroke="#bfbfbf" points="400.498,-252 400.498,-272 441.502,-272 441.502,-252 400.498,-252"/>
<text text-anchor="middle" x="421" y="-259" font-family="Helvetica,sans-Serif" font-size="10.00">void *</text>
</g>
<!-- Node29&#45;&gt;Node21 -->
<g id="edge36" class="edge"><title>Node29&#45;&gt;Node21</title>
<path fill="none" stroke="#9a32cd" stroke-dasharray="5,2" d="M451.958,-258.792C489.444,-254.682 555.575,-247.113 612,-239 636.251,-235.513 663.828,-230.843 683.184,-227.449"/>
<polygon fill="#9a32cd" stroke="#9a32cd" points="451.294,-255.344 441.732,-259.905 452.052,-262.302 451.294,-255.344"/>
<text text-anchor="middle" x="560" y="-256" font-family="Helvetica,sans-Serif" font-size="10.00"> existing_buffer</text>
</g>
<!-- Node30 -->
<g id="node30" class="node"><title>Node30</title>
<polygon fill="none" stroke="#bfbfbf" points="931.387,-287 931.387,-307 974.613,-307 974.613,-287 931.387,-287"/>
<text text-anchor="middle" x="953" y="-294" font-family="Helvetica,sans-Serif" font-size="10.00">mutex</text>
</g>
<!-- Node30&#45;&gt;Node17 -->
<g id="edge38" class="edge"><title>Node30&#45;&gt;Node17</title>
<path fill="none" stroke="#9a32cd" stroke-dasharray="5,2" d="M984.682,-304.067C1011.03,-310.615 1049.76,-321.388 1082,-335 1093.92,-340.031 1106.62,-347.173 1116.25,-352.984"/>
<polygon fill="#9a32cd" stroke="#9a32cd" points="985.429,-300.647 974.886,-301.686 983.776,-307.449 985.429,-300.647"/>
<text text-anchor="middle" x="1054" y="-338" font-family="Helvetica,sans-Serif" font-size="10.00"> map_mutex</text>
</g>
<!-- Node31&#45;&gt;Node1 -->
<g id="edge41" class="edge"><title>Node31&#45;&gt;Node1</title>
<path fill="none" stroke="#9a32cd" stroke-dasharray="5,2" d="M783.421,-703.782C813.689,-698.266 848.889,-690.691 880,-681 897.931,-675.414 917.453,-666.842 931.639,-660.127"/>
<polygon fill="#9a32cd" stroke="#9a32cd" points="782.591,-700.375 773.359,-705.573 783.818,-707.266 782.591,-700.375"/>
<text text-anchor="middle" x="843" y="-702" font-family="Helvetica,sans-Serif" font-size="10.00"> status_flags</text>
</g>
<!-- Node32 -->
<g id="node32" class="node"><title>Node32</title>
<polygon fill="none" stroke="#bfbfbf" points="397.993,-738 397.993,-758 444.007,-758 444.007,-738 397.993,-738"/>
<text text-anchor="middle" x="421" y="-745" font-family="Helvetica,sans-Serif" font-size="10.00">uint8_t</text>
</g>
<!-- Node32&#45;&gt;Node31 -->
<g id="edge42" class="edge"><title>Node32&#45;&gt;Node31</title>
<path fill="none" stroke="#9a32cd" stroke-dasharray="5,2" d="M454.468,-744.254C500.563,-738.935 585.901,-729.088 644.749,-722.298"/>
<polygon fill="#9a32cd" stroke="#9a32cd" points="453.975,-740.787 444.442,-745.411 454.777,-747.741 453.975,-740.787"/>
<text text-anchor="middle" x="560" y="-740" font-family="Helvetica,sans-Serif" font-size="10.00"> elements</text>
</g>
</g>
</svg>
