<?xml version="1.0" encoding="UTF-8" standalone="no"?>
<!DOCTYPE svg PUBLIC "-//W3C//DTD SVG 1.1//EN"
 "http://www.w3.org/Graphics/SVG/1.1/DTD/svg11.dtd">
<!-- Generated by graphviz version 2.30.1 (20130404.1610)
 -->
<!-- Title: sum&lt; A, B, C &gt; Pages: 1 -->
<svg width="1212pt" height="561pt"
 viewBox="0.00 0.00 1212.00 561.00" xmlns="http://www.w3.org/2000/svg" xmlns:xlink="http://www.w3.org/1999/xlink">
<g id="graph0" class="graph" transform="scale(1 1) rotate(0) translate(4 557)">
<title>sum&lt; A, B, C &gt;</title>
<!-- Node1 -->
<g id="node1" class="node"><title>Node1</title>
<polygon fill="#bfbfbf" stroke="black" points="630.101,-480 630.101,-500 713.899,-500 713.899,-480 630.101,-480"/>
<text text-anchor="middle" x="672" y="-487" font-family="Helvetica,sans-Serif" font-size="10.00">sum&lt; A, B, C &gt;</text>
</g>
<!-- Node2 -->
<g id="node2" class="node"><title>Node2</title>
<g id="a_node2"><a xlink:href="classraft_1_1kernel.html" target="_top" xlink:title="raft::kernel">
<polygon fill="none" stroke="black" points="389.385,-453 389.385,-473 452.615,-473 452.615,-453 389.385,-453"/>
<text text-anchor="middle" x="421" y="-460" font-family="Helvetica,sans-Serif" font-size="10.00">raft::kernel</text>
</a>
</g>
</g>
<!-- Node2&#45;&gt;Node1 -->
<g id="edge1" class="edge"><title>Node2&#45;&gt;Node1</title>
<path fill="none" stroke="midnightblue" d="M462.737,-467.417C508.888,-472.422 583.68,-480.532 629.957,-485.55"/>
<polygon fill="midnightblue" stroke="midnightblue" points="463.101,-463.936 452.782,-466.338 462.346,-470.896 463.101,-463.936"/>
</g>
<!-- Node11 -->
<g id="node11" class="node"><title>Node11</title>
<g id="a_node11"><a xlink:href="struct_port_info.html" target="_top" xlink:title="PortInfo">
<polygon fill="none" stroke="black" points="646.494,-212 646.494,-232 697.506,-232 697.506,-212 646.494,-212"/>
<text text-anchor="middle" x="672" y="-219" font-family="Helvetica,sans-Serif" font-size="10.00">PortInfo</text>
</a>
</g>
</g>
<!-- Node2&#45;&gt;Node11 -->
<g id="edge24" class="edge"><title>Node2&#45;&gt;Node11</title>
<path fill="none" stroke="#9a32cd" stroke-dasharray="5,2" d="M448.37,-447.864C497.811,-419.289 600.513,-358.921 612,-344 628.465,-322.613 618.618,-310.473 630,-286 639.349,-265.899 654.085,-244.618 663.111,-232.363"/>
<polygon fill="#9a32cd" stroke="#9a32cd" points="446.427,-444.945 439.513,-452.972 449.924,-451.008 446.427,-444.945"/>
<text text-anchor="middle" x="560" y="-426" font-family="Helvetica,sans-Serif" font-size="10.00"> my_kernel</text>
<text text-anchor="middle" x="560" y="-414" font-family="Helvetica,sans-Serif" font-size="10.00">other_kernel</text>
</g>
<!-- Node4 -->
<g id="node4" class="node"><title>Node4</title>
<g id="a_node4"><a xlink:href="class_port.html" target="_top" xlink:title="Port">
<polygon fill="none" stroke="black" points="1169.83,-375 1169.83,-395 1204.17,-395 1204.17,-375 1169.83,-375"/>
<text text-anchor="middle" x="1187" y="-382" font-family="Helvetica,sans-Serif" font-size="10.00">Port</text>
</a>
</g>
</g>
<!-- Node2&#45;&gt;Node4 -->
<g id="edge28" class="edge"><title>Node2&#45;&gt;Node4</title>
<path fill="none" stroke="#9a32cd" stroke-dasharray="5,2" d="M462.897,-459.819C512.208,-456.264 597.616,-451 671,-451 671,-451 671,-451 1060,-451 1103.29,-451 1115.32,-441.998 1152,-419 1162.18,-412.614 1171.67,-402.654 1178.02,-395.162"/>
<polygon fill="#9a32cd" stroke="#9a32cd" points="462.361,-456.349 452.644,-460.572 462.873,-463.33 462.361,-456.349"/>
<text text-anchor="middle" x="879" y="-454" font-family="Helvetica,sans-Serif" font-size="10.00"> kernel</text>
</g>
<!-- Node2&#45;&gt;Node1 -->
<g id="edge29" class="edge"><title>Node2&#45;&gt;Node1</title>
<path fill="none" stroke="midnightblue" d="M460.776,-476.073C475.401,-480.405 492.298,-484.703 508,-487 549.168,-493.023 596.802,-493.118 629.903,-492.107"/>
<polygon fill="midnightblue" stroke="midnightblue" points="461.644,-472.679 451.057,-473.094 459.592,-479.371 461.644,-472.679"/>
</g>
<!-- Node3 -->
<g id="node3" class="node"><title>Node3</title>
<polygon fill="none" stroke="#bfbfbf" points="135.942,-395 135.942,-415 178.058,-415 178.058,-395 135.942,-395"/>
<text text-anchor="middle" x="157" y="-402" font-family="Helvetica,sans-Serif" font-size="10.00">size_t</text>
</g>
<!-- Node3&#45;&gt;Node2 -->
<g id="edge2" class="edge"><title>Node3&#45;&gt;Node2</title>
<path fill="none" stroke="#9a32cd" stroke-dasharray="5,2" d="M188.027,-411.647C238.173,-422.748 338.444,-444.946 389.139,-456.168"/>
<polygon fill="#9a32cd" stroke="#9a32cd" points="188.644,-408.199 178.124,-409.455 187.131,-415.034 188.644,-408.199"/>
<text text-anchor="middle" x="278" y="-446" font-family="Helvetica,sans-Serif" font-size="10.00"> kernel_count</text>
</g>
<!-- Node3&#45;&gt;Node4 -->
<g id="edge6" class="edge"><title>Node3&#45;&gt;Node4</title>
<path fill="none" stroke="#9a32cd" stroke-dasharray="5,2" d="M188.593,-405C237.488,-405 336.27,-405 420,-405 420,-405 420,-405 1060,-405 1099.87,-405 1145.96,-395.112 1169.82,-389.241"/>
<polygon fill="#9a32cd" stroke="#9a32cd" points="188.383,-401.5 178.383,-405 188.383,-408.5 188.383,-401.5"/>
<text text-anchor="middle" x="769" y="-408" font-family="Helvetica,sans-Serif" font-size="10.00"> alloc_ptr_length</text>
</g>
<!-- Node3&#45;&gt;Node11 -->
<g id="edge23" class="edge"><title>Node3&#45;&gt;Node11</title>
<path fill="none" stroke="#9a32cd" stroke-dasharray="5,2" d="M188.238,-398.316C286.829,-376.448 593.701,-307.76 612,-296 622.92,-288.982 621.933,-283.17 630,-273 641.296,-258.759 654.488,-242.397 662.793,-232.129"/>
<polygon fill="#9a32cd" stroke="#9a32cd" points="187.32,-394.934 178.314,-400.515 188.835,-401.769 187.32,-394.934"/>
<text text-anchor="middle" x="421" y="-376" font-family="Helvetica,sans-Serif" font-size="10.00"> nitems</text>
<text text-anchor="middle" x="421" y="-364" font-family="Helvetica,sans-Serif" font-size="10.00">start_index</text>
</g>
<!-- Node4&#45;&gt;Node2 -->
<g id="edge3" class="edge"><title>Node4&#45;&gt;Node2</title>
<path fill="none" stroke="#9a32cd" stroke-dasharray="5,2" d="M1180.86,-405.151C1175.71,-422.413 1166.44,-447.227 1152,-465 1120.59,-503.654 1109.81,-529 1060,-529 671,-529 671,-529 671,-529 597.708,-529 578.05,-525.556 508,-504 483.022,-496.314 456.117,-482.497 439.178,-473.046"/>
<polygon fill="#9a32cd" stroke="#9a32cd" points="1184.37,-405.62 1183.67,-395.048 1177.62,-403.747 1184.37,-405.62"/>
<text text-anchor="middle" x="879" y="-544" font-family="Helvetica,sans-Serif" font-size="10.00"> output</text>
<text text-anchor="middle" x="879" y="-532" font-family="Helvetica,sans-Serif" font-size="10.00">input</text>
</g>
<!-- Node5 -->
<g id="node5" class="node"><title>Node5</title>
<g id="a_node5"><a xlink:href="class_port_base.html" target="_top" xlink:title="PortBase">
<polygon fill="none" stroke="black" points="1030.44,-356 1030.44,-376 1087.56,-376 1087.56,-356 1030.44,-356"/>
<text text-anchor="middle" x="1059" y="-363" font-family="Helvetica,sans-Serif" font-size="10.00">PortBase</text>
</a>
</g>
</g>
<!-- Node5&#45;&gt;Node4 -->
<g id="edge4" class="edge"><title>Node5&#45;&gt;Node4</title>
<path fill="none" stroke="midnightblue" d="M1097.84,-371.706C1121.77,-375.314 1151.5,-379.797 1169.59,-382.526"/>
<polygon fill="midnightblue" stroke="midnightblue" points="1098.06,-368.2 1087.65,-370.17 1097.02,-375.122 1098.06,-368.2"/>
</g>
<!-- Node6 -->
<g id="node6" class="node"><title>Node6</title>
<polygon fill="none" stroke="#bfbfbf" points="1026.55,-317 1026.55,-337 1091.45,-337 1091.45,-317 1026.55,-317"/>
<text text-anchor="middle" x="1059" y="-324" font-family="Helvetica,sans-Serif" font-size="10.00">void *const</text>
</g>
<!-- Node6&#45;&gt;Node4 -->
<g id="edge5" class="edge"><title>Node6&#45;&gt;Node4</title>
<path fill="none" stroke="#9a32cd" stroke-dasharray="5,2" d="M1101.58,-337.666C1117.83,-342.683 1136.3,-349.465 1152,-358 1160.48,-362.609 1168.98,-369.359 1175.36,-374.957"/>
<polygon fill="#9a32cd" stroke="#9a32cd" points="1102.37,-334.25 1091.79,-334.77 1100.38,-340.962 1102.37,-334.25"/>
<text text-anchor="middle" x="1131" y="-361" font-family="Helvetica,sans-Serif" font-size="10.00"> alloc_ptr</text>
</g>
<!-- Node7 -->
<g id="node7" class="node"><title>Node7</title>
<g id="a_node7"><a xlink:href="structportmap__t.html" target="_top" xlink:title="portmap_t">
<polygon fill="none" stroke="black" points="1028.49,-275 1028.49,-295 1089.51,-295 1089.51,-275 1028.49,-275"/>
<text text-anchor="middle" x="1059" y="-282" font-family="Helvetica,sans-Serif" font-size="10.00">portmap_t</text>
</a>
</g>
</g>
<!-- Node7&#45;&gt;Node4 -->
<g id="edge7" class="edge"><title>Node7&#45;&gt;Node4</title>
<path fill="none" stroke="#9a32cd" stroke-dasharray="5,2" d="M1099.16,-295.746C1116.83,-302.073 1137.03,-311.534 1152,-325 1167.49,-338.934 1177.63,-361.645 1182.54,-374.765"/>
<polygon fill="#9a32cd" stroke="#9a32cd" points="1100.25,-292.421 1089.66,-292.548 1098.02,-299.055 1100.25,-292.421"/>
<text text-anchor="middle" x="1131" y="-328" font-family="Helvetica,sans-Serif" font-size="10.00"> portmap</text>
</g>
<!-- Node8 -->
<g id="node8" class="node"><title>Node8</title>
<polygon fill="none" stroke="#bfbfbf" points="824.46,-214 824.46,-246 933.54,-246 933.54,-214 824.46,-214"/>
<text text-anchor="start" x="832.46" y="-233" font-family="Helvetica,sans-Serif" font-size="10.00">std::map&lt; std::string,</text>
<text text-anchor="middle" x="879" y="-221" font-family="Helvetica,sans-Serif" font-size="10.00"> PortInfo &gt;</text>
</g>
<!-- Node8&#45;&gt;Node7 -->
<g id="edge8" class="edge"><title>Node8&#45;&gt;Node7</title>
<path fill="none" stroke="#9a32cd" stroke-dasharray="5,2" d="M942.95,-248.989C963.686,-255.295 986.847,-262.393 1008,-269 1014.61,-271.065 1021.7,-273.314 1028.41,-275.456"/>
<polygon fill="#9a32cd" stroke="#9a32cd" points="943.883,-245.615 933.298,-246.058 941.849,-252.313 943.883,-245.615"/>
<text text-anchor="middle" x="980" y="-272" font-family="Helvetica,sans-Serif" font-size="10.00"> map</text>
</g>
<!-- Node9 -->
<g id="node9" class="node"><title>Node9</title>
<g id="a_node9"><a xlink:title="STL class. ">
<polygon fill="none" stroke="#bfbfbf" points="391.329,-273 391.329,-293 450.671,-293 450.671,-273 391.329,-273"/>
<text text-anchor="middle" x="421" y="-280" font-family="Helvetica,sans-Serif" font-size="10.00">std::string</text>
</a>
</g>
</g>
<!-- Node9&#45;&gt;Node8 -->
<g id="edge9" class="edge"><title>Node9&#45;&gt;Node8</title>
<path fill="none" stroke="#9a32cd" stroke-dasharray="5,2" d="M461.203,-289.082C475.849,-291.072 492.648,-293.022 508,-294 554.129,-296.938 566.1,-299.444 612,-294 688.176,-284.965 774.103,-261.859 827.161,-246.031"/>
<polygon fill="#9a32cd" stroke="#9a32cd" points="461.362,-285.57 450.971,-287.639 460.384,-292.501 461.362,-285.57"/>
<text text-anchor="middle" x="672" y="-295" font-family="Helvetica,sans-Serif" font-size="10.00"> keys</text>
</g>
<!-- Node9&#45;&gt;Node11 -->
<g id="edge20" class="edge"><title>Node9&#45;&gt;Node11</title>
<path fill="none" stroke="#9a32cd" stroke-dasharray="5,2" d="M461.026,-276.617C508.103,-268.741 584.368,-255.367 612,-247 625.096,-243.034 639.228,-237.108 650.377,-232.021"/>
<polygon fill="#9a32cd" stroke="#9a32cd" points="460.169,-273.212 450.879,-278.305 461.318,-280.117 460.169,-273.212"/>
<text text-anchor="middle" x="560" y="-283" font-family="Helvetica,sans-Serif" font-size="10.00"> my_name</text>
<text text-anchor="middle" x="560" y="-271" font-family="Helvetica,sans-Serif" font-size="10.00">other_name</text>
</g>
<!-- Node10 -->
<g id="node10" class="node"><title>Node10</title>
<g id="a_node10"><a xlink:title="STL class. ">
<polygon fill="none" stroke="#bfbfbf" points="109.962,-267 109.962,-299 204.038,-299 204.038,-267 109.962,-267"/>
<text text-anchor="start" x="117.962" y="-286" font-family="Helvetica,sans-Serif" font-size="10.00">std::basic_string&lt;</text>
<text text-anchor="middle" x="157" y="-274" font-family="Helvetica,sans-Serif" font-size="10.00"> char &gt;</text>
</a>
</g>
</g>
<!-- Node10&#45;&gt;Node9 -->
<g id="edge10" class="edge"><title>Node10&#45;&gt;Node9</title>
<path fill="none" stroke="midnightblue" d="M214.411,-283C268.775,-283 348.842,-283 391.228,-283"/>
<polygon fill="midnightblue" stroke="midnightblue" points="214.237,-279.5 204.237,-283 214.237,-286.5 214.237,-279.5"/>
</g>
<!-- Node11&#45;&gt;Node8 -->
<g id="edge11" class="edge"><title>Node11&#45;&gt;Node8</title>
<path fill="none" stroke="#9a32cd" stroke-dasharray="5,2" d="M707.918,-223.363C739.866,-224.609 787.615,-226.473 824.395,-227.908"/>
<polygon fill="#9a32cd" stroke="#9a32cd" points="707.857,-219.858 697.728,-222.965 707.584,-226.852 707.857,-219.858"/>
<text text-anchor="middle" x="769" y="-231" font-family="Helvetica,sans-Serif" font-size="10.00"> elements</text>
</g>
<!-- Node12 -->
<g id="node12" class="node"><title>Node12</title>
<polygon fill="none" stroke="#bfbfbf" points="388.824,-93 388.824,-113 453.176,-113 453.176,-93 388.824,-93"/>
<text text-anchor="middle" x="421" y="-100" font-family="Helvetica,sans-Serif" font-size="10.00">type_index</text>
</g>
<!-- Node12&#45;&gt;Node11 -->
<g id="edge12" class="edge"><title>Node12&#45;&gt;Node11</title>
<path fill="none" stroke="#9a32cd" stroke-dasharray="5,2" d="M463.554,-97.5421C504.552,-94.3292 567.391,-95.4397 612,-124 644.781,-144.988 661.951,-191.284 668.198,-211.832"/>
<polygon fill="#9a32cd" stroke="#9a32cd" points="463.014,-94.0766 453.371,-98.4642 463.646,-101.048 463.014,-94.0766"/>
<text text-anchor="middle" x="560" y="-127" font-family="Helvetica,sans-Serif" font-size="10.00"> type</text>
</g>
<!-- Node13 -->
<g id="node13" class="node"><title>Node13</title>
<polygon fill="none" stroke="#bfbfbf" points="352.012,-42 352.012,-74 489.988,-74 489.988,-42 352.012,-42"/>
<text text-anchor="start" x="360.012" y="-61" font-family="Helvetica,sans-Serif" font-size="10.00">std::map&lt; Type::RingBuffer</text>
<text text-anchor="middle" x="421" y="-49" font-family="Helvetica,sans-Serif" font-size="10.00">Type, instr_map_t * &gt;</text>
</g>
<!-- Node13&#45;&gt;Node11 -->
<g id="edge13" class="edge"><title>Node13&#45;&gt;Node11</title>
<path fill="none" stroke="#9a32cd" stroke-dasharray="5,2" d="M500.498,-50.2248C537.647,-50.5742 580.629,-57.2763 612,-81 655.6,-113.972 667.235,-185.18 670.117,-211.738"/>
<polygon fill="#9a32cd" stroke="#9a32cd" points="500.169,-46.7266 490.19,-50.2858 500.21,-53.7265 500.169,-46.7266"/>
<text text-anchor="middle" x="560" y="-84" font-family="Helvetica,sans-Serif" font-size="10.00"> const_map</text>
</g>
<!-- Node14 -->
<g id="node14" class="node"><title>Node14</title>
<g id="a_node14"><a xlink:title="STL class. ">
<polygon fill="none" stroke="#bfbfbf" points="112.043,-19 112.043,-39 201.957,-39 201.957,-19 112.043,-19"/>
<text text-anchor="middle" x="157" y="-26" font-family="Helvetica,sans-Serif" font-size="10.00">std::map&lt; K, T &gt;</text>
</a>
</g>
</g>
<!-- Node14&#45;&gt;Node13 -->
<g id="edge14" class="edge"><title>Node14&#45;&gt;Node13</title>
<path fill="none" stroke="#9a32cd" stroke-dasharray="5,2" d="M187.449,-43.0062C198.091,-47.3903 210.355,-51.6843 222,-54 264.658,-62.4829 313.505,-63.5591 352.008,-62.477"/>
<polygon fill="#9a32cd" stroke="#9a32cd" points="188.765,-39.7619 178.197,-39.009 185.988,-46.1879 188.765,-39.7619"/>
<text text-anchor="middle" x="278" y="-66" font-family="Helvetica,sans-Serif" font-size="10.00"> elements</text>
</g>
<!-- Node14&#45;&gt;Node13 -->
<g id="edge18" class="edge"><title>Node14&#45;&gt;Node13</title>
<path fill="none" stroke="orange" stroke-dasharray="5,2" d="M212.163,-22.6775C247.193,-19.9112 293.623,-18.7314 334,-26 351.403,-29.1329 369.883,-35.5651 385.234,-41.8465"/>
<polygon fill="orange" stroke="orange" points="211.804,-19.1954 202.139,-23.5365 212.402,-26.1698 211.804,-19.1954"/>
<text text-anchor="start" x="222.291" y="-41" font-family="Helvetica,sans-Serif" font-size="10.00"> &lt; Type::RingBufferType,</text>
<text text-anchor="middle" x="278" y="-29" font-family="Helvetica,sans-Serif" font-size="10.00"> instr_map_t * &gt;</text>
</g>
<!-- Node14&#45;&gt;Node8 -->
<g id="edge26" class="edge"><title>Node14&#45;&gt;Node8</title>
<path fill="none" stroke="orange" stroke-dasharray="5,2" d="M212.209,-18.5602C299.478,-4.1704 475.175,14.7314 612,-35 721.515,-74.8052 825.004,-174.547 862.845,-213.783"/>
<polygon fill="orange" stroke="orange" points="211.542,-15.1232 202.267,-20.2437 212.711,-22.025 211.542,-15.1232"/>
<text text-anchor="middle" x="560" y="-38" font-family="Helvetica,sans-Serif" font-size="10.00"> &lt; std::string, PortInfo &gt;</text>
</g>
<!-- Node15 -->
<g id="node15" class="node"><title>Node15</title>
<polygon fill="none" stroke="#bfbfbf" points="0.5,-39 0.5,-59 29.5,-59 29.5,-39 0.5,-39"/>
<text text-anchor="middle" x="15" y="-46" font-family="Helvetica,sans-Serif" font-size="10.00">K</text>
</g>
<!-- Node15&#45;&gt;Node14 -->
<g id="edge15" class="edge"><title>Node15&#45;&gt;Node14</title>
<path fill="none" stroke="#9a32cd" stroke-dasharray="5,2" d="M39.6415,-45.6226C59.3866,-42.8019 88.0723,-38.704 112.021,-35.2828"/>
<polygon fill="#9a32cd" stroke="#9a32cd" points="39.0832,-42.1668 29.6787,-47.0459 40.0732,-49.0964 39.0832,-42.1668"/>
<text text-anchor="middle" x="70" y="-48" font-family="Helvetica,sans-Serif" font-size="10.00"> keys</text>
</g>
<!-- Node16 -->
<g id="node16" class="node"><title>Node16</title>
<polygon fill="none" stroke="#bfbfbf" points="0.5,-0 0.5,-20 29.5,-20 29.5,-0 0.5,-0"/>
<text text-anchor="middle" x="15" y="-7" font-family="Helvetica,sans-Serif" font-size="10.00">T</text>
</g>
<!-- Node16&#45;&gt;Node14 -->
<g id="edge16" class="edge"><title>Node16&#45;&gt;Node14</title>
<path fill="none" stroke="#9a32cd" stroke-dasharray="5,2" d="M39.5192,-10.6394C54.5812,-11.2725 74.5111,-12.526 92,-15 99.3201,-16.0355 107.049,-17.4477 114.507,-18.9786"/>
<polygon fill="#9a32cd" stroke="#9a32cd" points="39.6361,-7.14145 29.5166,-10.2795 39.3843,-14.1369 39.6361,-7.14145"/>
<text text-anchor="middle" x="70" y="-18" font-family="Helvetica,sans-Serif" font-size="10.00"> elements</text>
</g>
<!-- Node17 -->
<g id="node17" class="node"><title>Node17</title>
<polygon fill="none" stroke="#bfbfbf" points="114.272,-101 114.272,-121 199.728,-121 199.728,-101 114.272,-101"/>
<text text-anchor="middle" x="157" y="-108" font-family="Helvetica,sans-Serif" font-size="10.00">RingBufferType</text>
</g>
<!-- Node17&#45;&gt;Node13 -->
<g id="edge17" class="edge"><title>Node17&#45;&gt;Node13</title>
<path fill="none" stroke="#9a32cd" stroke-dasharray="5,2" d="M209.774,-102.423C244.92,-96.3951 292.391,-87.8546 334,-79 341.216,-77.4645 348.749,-75.7665 356.227,-74.021"/>
<polygon fill="#9a32cd" stroke="#9a32cd" points="209.013,-99.0017 199.743,-104.132 210.189,-105.902 209.013,-99.0017"/>
<text text-anchor="middle" x="278" y="-103" font-family="Helvetica,sans-Serif" font-size="10.00"> keys</text>
</g>
<!-- Node18 -->
<g id="node18" class="node"><title>Node18</title>
<polygon fill="none" stroke="#bfbfbf" points="139.552,-200 139.552,-220 174.448,-220 174.448,-200 139.552,-200"/>
<text text-anchor="middle" x="157" y="-207" font-family="Helvetica,sans-Serif" font-size="10.00">bool</text>
</g>
<!-- Node18&#45;&gt;Node11 -->
<g id="edge19" class="edge"><title>Node18&#45;&gt;Node11</title>
<path fill="none" stroke="#9a32cd" stroke-dasharray="5,2" d="M184.816,-207.179C241.309,-201.642 376.696,-190.521 490,-198 546.143,-201.706 611.447,-211.811 646.217,-217.659"/>
<polygon fill="#9a32cd" stroke="#9a32cd" points="184.2,-203.723 174.6,-208.204 184.899,-210.688 184.2,-203.723"/>
<text text-anchor="middle" x="421" y="-213" font-family="Helvetica,sans-Serif" font-size="10.00"> use_my_allocator</text>
<text text-anchor="middle" x="421" y="-201" font-family="Helvetica,sans-Serif" font-size="10.00">out_of_order</text>
</g>
<!-- Node19 -->
<g id="node19" class="node"><title>Node19</title>
<g id="a_node19"><a xlink:href="class_f_i_f_o.html" target="_top" xlink:title="FIFO">
<polygon fill="none" stroke="black" points="401.612,-232 401.612,-252 440.388,-252 440.388,-232 401.612,-232"/>
<text text-anchor="middle" x="421" y="-239" font-family="Helvetica,sans-Serif" font-size="10.00">FIFO</text>
</a>
</g>
</g>
<!-- Node18&#45;&gt;Node19 -->
<g id="edge22" class="edge"><title>Node18&#45;&gt;Node19</title>
<path fill="none" stroke="#9a32cd" stroke-dasharray="5,2" d="M184.813,-213.275C237.972,-219.768 355.53,-234.126 401.273,-239.713"/>
<polygon fill="#9a32cd" stroke="#9a32cd" points="185.138,-209.789 174.788,-212.05 184.29,-216.737 185.138,-209.789"/>
<text text-anchor="middle" x="278" y="-234" font-family="Helvetica,sans-Serif" font-size="10.00"> valid</text>
</g>
<!-- Node19&#45;&gt;Node11 -->
<g id="edge21" class="edge"><title>Node19&#45;&gt;Node11</title>
<path fill="none" stroke="#9a32cd" stroke-dasharray="5,2" d="M450.745,-234.054C467.336,-229.87 488.68,-225.169 508,-223 556.793,-217.523 614.318,-219.01 646.328,-220.538"/>
<polygon fill="#9a32cd" stroke="#9a32cd" points="449.393,-230.789 440.598,-236.696 451.157,-237.563 449.393,-230.789"/>
<text text-anchor="middle" x="560" y="-238" font-family="Helvetica,sans-Serif" font-size="10.00"> fifo_a</text>
<text text-anchor="middle" x="560" y="-226" font-family="Helvetica,sans-Serif" font-size="10.00">fifo_b</text>
</g>
<!-- Node20 -->
<g id="node20" class="node"><title>Node20</title>
<polygon fill="none" stroke="#bfbfbf" points="400.498,-132 400.498,-152 441.502,-152 441.502,-132 400.498,-132"/>
<text text-anchor="middle" x="421" y="-139" font-family="Helvetica,sans-Serif" font-size="10.00">void *</text>
</g>
<!-- Node20&#45;&gt;Node11 -->
<g id="edge25" class="edge"><title>Node20&#45;&gt;Node11</title>
<path fill="none" stroke="#9a32cd" stroke-dasharray="5,2" d="M451.885,-139.393C490.776,-137.282 559.908,-137.982 612,-163 634.982,-174.038 654.25,-197.785 664.049,-211.55"/>
<polygon fill="#9a32cd" stroke="#9a32cd" points="451.512,-135.91 441.757,-140.045 451.962,-142.896 451.512,-135.91"/>
<text text-anchor="middle" x="560" y="-166" font-family="Helvetica,sans-Serif" font-size="10.00"> existing_buffer</text>
</g>
<!-- Node21 -->
<g id="node21" class="node"><title>Node21</title>
<polygon fill="none" stroke="#bfbfbf" points="857.387,-275 857.387,-295 900.613,-295 900.613,-275 857.387,-275"/>
<text text-anchor="middle" x="879" y="-282" font-family="Helvetica,sans-Serif" font-size="10.00">mutex</text>
</g>
<!-- Node21&#45;&gt;Node7 -->
<g id="edge27" class="edge"><title>Node21&#45;&gt;Node7</title>
<path fill="none" stroke="#9a32cd" stroke-dasharray="5,2" d="M911.176,-285C944.14,-285 995.765,-285 1028.2,-285"/>
<polygon fill="#9a32cd" stroke="#9a32cd" points="910.767,-281.5 900.767,-285 910.767,-288.5 910.767,-281.5"/>
<text text-anchor="middle" x="980" y="-288" font-family="Helvetica,sans-Serif" font-size="10.00"> map_mutex</text>
</g>
</g>
</svg>
