<?xml version="1.0" encoding="UTF-8" standalone="no"?>
<!DOCTYPE svg PUBLIC "-//W3C//DTD SVG 1.1//EN"
 "http://www.w3.org/Graphics/SVG/1.1/DTD/svg11.dtd">
<!-- Generated by graphviz version 2.30.1 (20130404.1610)
 -->
<!-- Title: MapBase::link Pages: 1 -->
<svg width="228pt" height="145pt"
 viewBox="0.00 0.00 228.00 145.00" xmlns="http://www.w3.org/2000/svg" xmlns:xlink="http://www.w3.org/1999/xlink">
<g id="graph0" class="graph" transform="scale(1 1) rotate(0) translate(4 141)">
<title>MapBase::link</title>
<!-- Node1 -->
<g id="node1" class="node"><title>Node1</title>
<polygon fill="#bfbfbf" stroke="black" points="0.6055,-58 0.6055,-78 79.3945,-78 79.3945,-58 0.6055,-58"/>
<text text-anchor="middle" x="40" y="-65" font-family="Helvetica,sans-Serif" font-size="10.00">MapBase::link</text>
</g>
<!-- Node2 -->
<g id="node2" class="node"><title>Node2</title>
<g id="a_node2"><a xlink:href="class_port.html#a7042f5b5c2ab14c9591a4984811a6012" target="_top" xlink:title="Port::hasPorts">
<polygon fill="none" stroke="black" points="128.326,-117 128.326,-137 207.674,-137 207.674,-117 128.326,-117"/>
<text text-anchor="middle" x="168" y="-124" font-family="Helvetica,sans-Serif" font-size="10.00">Port::hasPorts</text>
</a>
</g>
</g>
<!-- Node1&#45;&gt;Node2 -->
<g id="edge1" class="edge"><title>Node1&#45;&gt;Node2</title>
<path fill="none" stroke="midnightblue" d="M58.921,-78.0019C73.9517,-86.2242 96.0927,-97.9513 116,-107 120.643,-109.11 125.579,-111.214 130.481,-113.222"/>
<polygon fill="midnightblue" stroke="midnightblue" points="129.195,-116.477 139.78,-116.94 131.794,-109.977 129.195,-116.477"/>
</g>
<!-- Node3 -->
<g id="node3" class="node"><title>Node3</title>
<g id="a_node3"><a xlink:href="class_port.html#a4af1cb062940ca3b83c569f024b9a8d1" target="_top" xlink:title="Port::getPortInfo">
<polygon fill="none" stroke="black" points="123.599,-78 123.599,-98 212.401,-98 212.401,-78 123.599,-78"/>
<text text-anchor="middle" x="168" y="-85" font-family="Helvetica,sans-Serif" font-size="10.00">Port::getPortInfo</text>
</a>
</g>
</g>
<!-- Node1&#45;&gt;Node3 -->
<g id="edge2" class="edge"><title>Node1&#45;&gt;Node3</title>
<path fill="none" stroke="midnightblue" d="M79.4888,-74.1093C90.236,-75.8152 102.111,-77.7001 113.555,-79.5166"/>
<polygon fill="midnightblue" stroke="midnightblue" points="113.036,-82.9781 123.462,-81.0891 114.134,-76.0646 113.036,-82.9781"/>
</g>
<!-- Node4 -->
<g id="node4" class="node"><title>Node4</title>
<g id="a_node4"><a xlink:href="class_port.html#afb426a015195fa9b4b5b1d1200daf8ed" target="_top" xlink:title="Port::getPortInfoFor">
<polygon fill="none" stroke="black" points="116.1,-39 116.1,-59 219.9,-59 219.9,-39 116.1,-39"/>
<text text-anchor="middle" x="168" y="-46" font-family="Helvetica,sans-Serif" font-size="10.00">Port::getPortInfoFor</text>
</a>
</g>
</g>
<!-- Node1&#45;&gt;Node4 -->
<g id="edge3" class="edge"><title>Node1&#45;&gt;Node4</title>
<path fill="none" stroke="midnightblue" d="M79.4888,-62.1961C87.7968,-60.9433 96.7786,-59.5889 105.714,-58.2415"/>
<polygon fill="midnightblue" stroke="midnightblue" points="106.379,-61.6809 115.745,-56.7289 105.335,-54.7592 106.379,-61.6809"/>
</g>
<!-- Node5 -->
<g id="node5" class="node"><title>Node5</title>
<g id="a_node5"><a xlink:href="class_map_base.html#a2624d7b81f0078dcc78e524045403e28" target="_top" xlink:title="MapBase::join">
<polygon fill="none" stroke="black" points="128.326,-0 128.326,-20 207.674,-20 207.674,-0 128.326,-0"/>
<text text-anchor="middle" x="168" y="-7" font-family="Helvetica,sans-Serif" font-size="10.00">MapBase::join</text>
</a>
</g>
</g>
<!-- Node1&#45;&gt;Node5 -->
<g id="edge4" class="edge"><title>Node1&#45;&gt;Node5</title>
<path fill="none" stroke="midnightblue" d="M59.5625,-57.9723C74.5964,-50.0028 96.4194,-38.7758 116,-30 120.707,-27.8904 125.708,-25.777 130.669,-23.7562"/>
<polygon fill="midnightblue" stroke="midnightblue" points="132.074,-26.9636 140.067,-20.0092 129.482,-20.4612 132.074,-26.9636"/>
</g>
</g>
</svg>
