<?xml version="1.0" encoding="UTF-8" standalone="no"?>
<!DOCTYPE svg PUBLIC "-//W3C//DTD SVG 1.1//EN"
 "http://www.w3.org/Graphics/SVG/1.1/DTD/svg11.dtd">
<!-- Generated by graphviz version 2.30.1 (20130404.1610)
 -->
<!-- Title: Schedule::kernelHasInputData Pages: 1 -->
<svg width="458pt" height="28pt"
 viewBox="0.00 0.00 458.00 28.00" xmlns="http://www.w3.org/2000/svg" xmlns:xlink="http://www.w3.org/1999/xlink">
<g id="graph0" class="graph" transform="scale(1 1) rotate(0) translate(4 24)">
<title>Schedule::kernelHasInputData</title>
<!-- Node1 -->
<g id="node1" class="node"><title>Node1</title>
<polygon fill="#bfbfbf" stroke="black" points="0.2025,-0 0.2025,-20 151.797,-20 151.797,-0 0.2025,-0"/>
<text text-anchor="middle" x="76" y="-7" font-family="Helvetica,sans-Serif" font-size="10.00">Schedule::kernelHasInputData</text>
</g>
<!-- Node2 -->
<g id="node2" class="node"><title>Node2</title>
<g id="a_node2"><a xlink:href="class_schedule.html#a60076829d7785af75aa8a2057f4edd09" target="_top" xlink:title="Schedule::kernelRun">
<polygon fill="none" stroke="black" points="188.599,-0 188.599,-20 297.401,-20 297.401,-0 188.599,-0"/>
<text text-anchor="middle" x="243" y="-7" font-family="Helvetica,sans-Serif" font-size="10.00">Schedule::kernelRun</text>
</a>
</g>
</g>
<!-- Node1&#45;&gt;Node2 -->
<g id="edge1" class="edge"><title>Node1&#45;&gt;Node2</title>
<path fill="none" stroke="midnightblue" d="M162.323,-10C171.242,-10 180.116,-10 188.529,-10"/>
<polygon fill="midnightblue" stroke="midnightblue" points="162.257,-6.5001 152.257,-10 162.257,-13.5001 162.257,-6.5001"/>
</g>
<!-- Node3 -->
<g id="node3" class="node"><title>Node3</title>
<g id="a_node3"><a xlink:href="classsimple__schedule.html#ad60a7608111e011d0c04f6ac566cfd8c" target="_top" xlink:title="simple_schedule::start">
<polygon fill="none" stroke="black" points="334.269,-0 334.269,-20 449.731,-20 449.731,-0 334.269,-0"/>
<text text-anchor="middle" x="392" y="-7" font-family="Helvetica,sans-Serif" font-size="10.00">simple_schedule::start</text>
</a>
</g>
</g>
<!-- Node2&#45;&gt;Node3 -->
<g id="edge2" class="edge"><title>Node2&#45;&gt;Node3</title>
<path fill="none" stroke="midnightblue" d="M307.608,-10C316.329,-10 325.24,-10 333.837,-10"/>
<polygon fill="midnightblue" stroke="midnightblue" points="307.486,-6.5001 297.486,-10 307.486,-13.5001 307.486,-6.5001"/>
</g>
</g>
</svg>
