<?xml version="1.0" encoding="UTF-8" standalone="no"?>
<!DOCTYPE svg PUBLIC "-//W3C//DTD SVG 1.1//EN"
 "http://www.w3.org/Graphics/SVG/1.1/DTD/svg11.dtd">
<!-- Generated by graphviz version 2.30.1 (20130404.1610)
 -->
<!-- Title: stdalloc Pages: 1 -->
<svg width="1248pt" height="689pt"
 viewBox="0.00 0.00 1248.00 689.00" xmlns="http://www.w3.org/2000/svg" xmlns:xlink="http://www.w3.org/1999/xlink">
<g id="graph0" class="graph" transform="scale(1 1) rotate(0) translate(4 685)">
<title>stdalloc</title>
<!-- Node1 -->
<g id="node1" class="node"><title>Node1</title>
<polygon fill="#bfbfbf" stroke="black" points="1070.05,-496 1070.05,-516 1119.95,-516 1119.95,-496 1070.05,-496"/>
<text text-anchor="middle" x="1095" y="-503" font-family="Helvetica,sans-Serif" font-size="10.00">stdalloc</text>
</g>
<!-- Node2 -->
<g id="node2" class="node"><title>Node2</title>
<g id="a_node2"><a xlink:href="class_allocate.html" target="_top" xlink:title="Allocate">
<polygon fill="none" stroke="black" points="889.218,-492 889.218,-512 940.782,-512 940.782,-492 889.218,-492"/>
<text text-anchor="middle" x="915" y="-499" font-family="Helvetica,sans-Serif" font-size="10.00">Allocate</text>
</a>
</g>
</g>
<!-- Node2&#45;&gt;Node1 -->
<g id="edge1" class="edge"><title>Node2&#45;&gt;Node1</title>
<path fill="none" stroke="midnightblue" d="M951.405,-502.796C986.504,-503.584 1039.32,-504.771 1069.86,-505.457"/>
<polygon fill="midnightblue" stroke="midnightblue" points="951.202,-499.29 941.126,-502.565 951.044,-506.288 951.202,-499.29"/>
</g>
<!-- Node3 -->
<g id="node3" class="node"><title>Node3</title>
<polygon fill="none" stroke="#bfbfbf" points="630.317,-500 630.317,-520 749.683,-520 749.683,-500 630.317,-500"/>
<text text-anchor="middle" x="690" y="-507" font-family="Helvetica,sans-Serif" font-size="10.00">std::set&lt; raft::kernel * &gt;</text>
</g>
<!-- Node3&#45;&gt;Node2 -->
<g id="edge2" class="edge"><title>Node3&#45;&gt;Node2</title>
<path fill="none" stroke="#9a32cd" stroke-dasharray="5,2" d="M759.853,-503.453C762.603,-503.283 765.327,-503.13 768,-503 810.534,-500.925 860.119,-501.143 889.183,-501.538"/>
<polygon fill="#9a32cd" stroke="#9a32cd" points="759.558,-499.965 749.821,-504.141 760.037,-506.949 759.558,-499.965"/>
<text text-anchor="middle" x="805" y="-518" font-family="Helvetica,sans-Serif" font-size="10.00"> source_kernels</text>
<text text-anchor="middle" x="805" y="-506" font-family="Helvetica,sans-Serif" font-size="10.00">all_kernels</text>
</g>
<!-- Node4 -->
<g id="node4" class="node"><title>Node4</title>
<g id="a_node4"><a xlink:href="classraft_1_1kernel.html" target="_top" xlink:title="raft::kernel">
<polygon fill="none" stroke="black" points="389.385,-578 389.385,-598 452.615,-598 452.615,-578 389.385,-578"/>
<text text-anchor="middle" x="421" y="-585" font-family="Helvetica,sans-Serif" font-size="10.00">raft::kernel</text>
</a>
</g>
</g>
<!-- Node4&#45;&gt;Node3 -->
<g id="edge3" class="edge"><title>Node4&#45;&gt;Node3</title>
<path fill="none" stroke="#9a32cd" stroke-dasharray="5,2" d="M462.253,-576.241C514.609,-560.946 605.187,-534.485 654.53,-520.07"/>
<polygon fill="#9a32cd" stroke="#9a32cd" points="461.246,-572.889 452.628,-579.052 463.209,-579.608 461.246,-572.889"/>
<text text-anchor="middle" x="560" y="-565" font-family="Helvetica,sans-Serif" font-size="10.00"> keys</text>
</g>
<!-- Node13 -->
<g id="node13" class="node"><title>Node13</title>
<g id="a_node13"><a xlink:href="struct_port_info.html" target="_top" xlink:title="PortInfo">
<polygon fill="none" stroke="black" points="664.494,-218 664.494,-238 715.506,-238 715.506,-218 664.494,-218"/>
<text text-anchor="middle" x="690" y="-225" font-family="Helvetica,sans-Serif" font-size="10.00">PortInfo</text>
</a>
</g>
</g>
<!-- Node4&#45;&gt;Node13 -->
<g id="edge26" class="edge"><title>Node4&#45;&gt;Node13</title>
<path fill="none" stroke="#9a32cd" stroke-dasharray="5,2" d="M440.158,-570.563C455.449,-554.954 476.87,-530.768 490,-506 503.439,-480.648 487.333,-463.905 508,-444 542.317,-410.949 576.035,-449.25 612,-418 669.226,-368.276 684.53,-269.763 688.056,-238.072"/>
<polygon fill="#9a32cd" stroke="#9a32cd" points="437.408,-568.363 432.797,-577.902 442.35,-573.32 437.408,-568.363"/>
<text text-anchor="middle" x="560" y="-459" font-family="Helvetica,sans-Serif" font-size="10.00"> my_kernel</text>
<text text-anchor="middle" x="560" y="-447" font-family="Helvetica,sans-Serif" font-size="10.00">other_kernel</text>
</g>
<!-- Node6 -->
<g id="node6" class="node"><title>Node6</title>
<g id="a_node6"><a xlink:href="class_port.html" target="_top" xlink:title="Port">
<polygon fill="none" stroke="black" points="1205.83,-511 1205.83,-531 1240.17,-531 1240.17,-511 1205.83,-511"/>
<text text-anchor="middle" x="1223" y="-518" font-family="Helvetica,sans-Serif" font-size="10.00">Port</text>
</a>
</g>
</g>
<!-- Node4&#45;&gt;Node6 -->
<g id="edge30" class="edge"><title>Node4&#45;&gt;Node6</title>
<path fill="none" stroke="#9a32cd" stroke-dasharray="5,2" d="M462.988,-593.233C515.33,-599.453 608.742,-609 689,-609 689,-609 689,-609 1096,-609 1141.72,-609 1152.37,-591.637 1188,-563 1199.41,-553.832 1209.54,-540.241 1215.71,-531.023"/>
<polygon fill="#9a32cd" stroke="#9a32cd" points="463.121,-589.724 452.773,-591.999 462.281,-596.673 463.121,-589.724"/>
<text text-anchor="middle" x="915" y="-612" font-family="Helvetica,sans-Serif" font-size="10.00"> kernel</text>
</g>
<!-- Node5 -->
<g id="node5" class="node"><title>Node5</title>
<polygon fill="none" stroke="#bfbfbf" points="135.942,-539 135.942,-559 178.058,-559 178.058,-539 135.942,-539"/>
<text text-anchor="middle" x="157" y="-546" font-family="Helvetica,sans-Serif" font-size="10.00">size_t</text>
</g>
<!-- Node5&#45;&gt;Node4 -->
<g id="edge4" class="edge"><title>Node5&#45;&gt;Node4</title>
<path fill="none" stroke="#9a32cd" stroke-dasharray="5,2" d="M187.836,-556.108C198.566,-558.51 210.788,-561.07 222,-563 280.901,-573.14 350.325,-580.966 389.346,-584.992"/>
<polygon fill="#9a32cd" stroke="#9a32cd" points="188.615,-552.696 178.086,-553.879 187.055,-559.52 188.615,-552.696"/>
<text text-anchor="middle" x="278" y="-581" font-family="Helvetica,sans-Serif" font-size="10.00"> kernel_count</text>
</g>
<!-- Node5&#45;&gt;Node6 -->
<g id="edge8" class="edge"><title>Node5&#45;&gt;Node6</title>
<path fill="none" stroke="#9a32cd" stroke-dasharray="5,2" d="M188.593,-549C237.488,-549 336.27,-549 420,-549 420,-549 420,-549 1096,-549 1136.11,-549 1181.73,-535.311 1205.55,-527.076"/>
<polygon fill="#9a32cd" stroke="#9a32cd" points="188.383,-545.5 178.383,-549 188.383,-552.5 188.383,-545.5"/>
<text text-anchor="middle" x="805" y="-552" font-family="Helvetica,sans-Serif" font-size="10.00"> alloc_ptr_length</text>
</g>
<!-- Node5&#45;&gt;Node13 -->
<g id="edge25" class="edge"><title>Node5&#45;&gt;Node13</title>
<path fill="none" stroke="#9a32cd" stroke-dasharray="5,2" d="M183.714,-533.574C220.314,-511.968 289.894,-472.185 352,-444 419.359,-413.432 437.544,-408.528 508,-386 553.594,-371.421 573.879,-386.951 612,-358 654.407,-325.794 677.977,-262.921 685.918,-238.268"/>
<polygon fill="#9a32cd" stroke="#9a32cd" points="181.535,-530.797 174.72,-538.91 185.107,-536.817 181.535,-530.797"/>
<text text-anchor="middle" x="421" y="-459" font-family="Helvetica,sans-Serif" font-size="10.00"> nitems</text>
<text text-anchor="middle" x="421" y="-447" font-family="Helvetica,sans-Serif" font-size="10.00">start_index</text>
</g>
<!-- Node6&#45;&gt;Node4 -->
<g id="edge5" class="edge"><title>Node6&#45;&gt;Node4</title>
<path fill="none" stroke="#9a32cd" stroke-dasharray="5,2" d="M1220.38,-541.367C1217.53,-564.103 1209.66,-600.63 1188,-623 1157.68,-654.317 1139.59,-657 1096,-657 689,-657 689,-657 689,-657 607.149,-657 586.524,-646.099 508,-623 485.422,-616.358 460.625,-605.908 443.484,-598.154"/>
<polygon fill="#9a32cd" stroke="#9a32cd" points="1223.89,-541.468 1221.44,-531.16 1216.93,-540.745 1223.89,-541.468"/>
<text text-anchor="middle" x="915" y="-672" font-family="Helvetica,sans-Serif" font-size="10.00"> output</text>
<text text-anchor="middle" x="915" y="-660" font-family="Helvetica,sans-Serif" font-size="10.00">input</text>
</g>
<!-- Node7 -->
<g id="node7" class="node"><title>Node7</title>
<g id="a_node7"><a xlink:href="class_port_base.html" target="_top" xlink:title="PortBase">
<polygon fill="none" stroke="black" points="1066.44,-418 1066.44,-438 1123.56,-438 1123.56,-418 1066.44,-418"/>
<text text-anchor="middle" x="1095" y="-425" font-family="Helvetica,sans-Serif" font-size="10.00">PortBase</text>
</a>
</g>
</g>
<!-- Node7&#45;&gt;Node6 -->
<g id="edge6" class="edge"><title>Node7&#45;&gt;Node6</title>
<path fill="none" stroke="midnightblue" d="M1124.28,-442.98C1143.15,-453.575 1168.07,-468.742 1188,-485 1197.59,-492.826 1207.15,-503.238 1213.68,-510.851"/>
<polygon fill="midnightblue" stroke="midnightblue" points="1125.73,-439.783 1115.28,-438.018 1122.35,-445.912 1125.73,-439.783"/>
</g>
<!-- Node8 -->
<g id="node8" class="node"><title>Node8</title>
<polygon fill="none" stroke="#bfbfbf" points="1062.55,-379 1062.55,-399 1127.45,-399 1127.45,-379 1062.55,-379"/>
<text text-anchor="middle" x="1095" y="-386" font-family="Helvetica,sans-Serif" font-size="10.00">void *const</text>
</g>
<!-- Node8&#45;&gt;Node6 -->
<g id="edge7" class="edge"><title>Node8&#45;&gt;Node6</title>
<path fill="none" stroke="#9a32cd" stroke-dasharray="5,2" d="M1133.89,-403.059C1152.22,-411.445 1173.36,-423.675 1188,-440 1206.94,-461.119 1216.31,-494.309 1220.01,-510.88"/>
<polygon fill="#9a32cd" stroke="#9a32cd" points="1135.17,-399.802 1124.61,-399.023 1132.38,-406.221 1135.17,-399.802"/>
<text text-anchor="middle" x="1167" y="-443" font-family="Helvetica,sans-Serif" font-size="10.00"> alloc_ptr</text>
</g>
<!-- Node9 -->
<g id="node9" class="node"><title>Node9</title>
<g id="a_node9"><a xlink:href="structportmap__t.html" target="_top" xlink:title="portmap_t">
<polygon fill="none" stroke="black" points="1064.49,-457 1064.49,-477 1125.51,-477 1125.51,-457 1064.49,-457"/>
<text text-anchor="middle" x="1095" y="-464" font-family="Helvetica,sans-Serif" font-size="10.00">portmap_t</text>
</a>
</g>
</g>
<!-- Node9&#45;&gt;Node6 -->
<g id="edge9" class="edge"><title>Node9&#45;&gt;Node6</title>
<path fill="none" stroke="#9a32cd" stroke-dasharray="5,2" d="M1128.74,-481.031C1153.38,-491.593 1186.13,-505.628 1205.54,-513.947"/>
<polygon fill="#9a32cd" stroke="#9a32cd" points="1129.97,-477.753 1119.4,-477.03 1127.22,-484.187 1129.97,-477.753"/>
<text text-anchor="middle" x="1167" y="-508" font-family="Helvetica,sans-Serif" font-size="10.00"> portmap</text>
</g>
<!-- Node10 -->
<g id="node10" class="node"><title>Node10</title>
<polygon fill="none" stroke="#bfbfbf" points="860.46,-122 860.46,-154 969.54,-154 969.54,-122 860.46,-122"/>
<text text-anchor="start" x="868.46" y="-141" font-family="Helvetica,sans-Serif" font-size="10.00">std::map&lt; std::string,</text>
<text text-anchor="middle" x="915" y="-129" font-family="Helvetica,sans-Serif" font-size="10.00"> PortInfo &gt;</text>
</g>
<!-- Node10&#45;&gt;Node9 -->
<g id="edge10" class="edge"><title>Node10&#45;&gt;Node9</title>
<path fill="none" stroke="#9a32cd" stroke-dasharray="5,2" d="M922.796,-163.92C938.792,-220.841 983.501,-358.717 1062,-447 1065.4,-450.819 1069.69,-454.167 1074.03,-456.977"/>
<polygon fill="#9a32cd" stroke="#9a32cd" points="926.168,-162.978 920.142,-154.264 919.418,-164.834 926.168,-162.978"/>
<text text-anchor="middle" x="1016" y="-421" font-family="Helvetica,sans-Serif" font-size="10.00"> map</text>
</g>
<!-- Node11 -->
<g id="node11" class="node"><title>Node11</title>
<g id="a_node11"><a xlink:title="STL class. ">
<polygon fill="none" stroke="#bfbfbf" points="391.329,-6 391.329,-26 450.671,-26 450.671,-6 391.329,-6"/>
<text text-anchor="middle" x="421" y="-13" font-family="Helvetica,sans-Serif" font-size="10.00">std::string</text>
</a>
</g>
</g>
<!-- Node11&#45;&gt;Node10 -->
<g id="edge11" class="edge"><title>Node11&#45;&gt;Node10</title>
<path fill="none" stroke="#9a32cd" stroke-dasharray="5,2" d="M461.06,-11.1545C538.981,-3.41181 716.984,4.49012 842,-65 867.516,-79.1833 889.889,-105.153 902.673,-121.988"/>
<polygon fill="#9a32cd" stroke="#9a32cd" points="460.325,-7.71234 450.745,-12.2379 461.056,-14.674 460.325,-7.71234"/>
<text text-anchor="middle" x="690" y="-31" font-family="Helvetica,sans-Serif" font-size="10.00"> keys</text>
</g>
<!-- Node11&#45;&gt;Node13 -->
<g id="edge22" class="edge"><title>Node11&#45;&gt;Node13</title>
<path fill="none" stroke="#9a32cd" stroke-dasharray="5,2" d="M461.099,-14.8019C509.669,-14.0989 588.957,-15.7723 612,-33 674.384,-79.6399 686.277,-184.568 688.5,-217.742"/>
<polygon fill="#9a32cd" stroke="#9a32cd" points="460.872,-11.3054 450.939,-14.9898 461.002,-18.3042 460.872,-11.3054"/>
<text text-anchor="middle" x="560" y="-48" font-family="Helvetica,sans-Serif" font-size="10.00"> my_name</text>
<text text-anchor="middle" x="560" y="-36" font-family="Helvetica,sans-Serif" font-size="10.00">other_name</text>
</g>
<!-- Node12 -->
<g id="node12" class="node"><title>Node12</title>
<g id="a_node12"><a xlink:title="STL class. ">
<polygon fill="none" stroke="#bfbfbf" points="109.962,-0 109.962,-32 204.038,-32 204.038,-0 109.962,-0"/>
<text text-anchor="start" x="117.962" y="-19" font-family="Helvetica,sans-Serif" font-size="10.00">std::basic_string&lt;</text>
<text text-anchor="middle" x="157" y="-7" font-family="Helvetica,sans-Serif" font-size="10.00"> char &gt;</text>
</a>
</g>
</g>
<!-- Node12&#45;&gt;Node11 -->
<g id="edge12" class="edge"><title>Node12&#45;&gt;Node11</title>
<path fill="none" stroke="midnightblue" d="M214.411,-16C268.775,-16 348.842,-16 391.228,-16"/>
<polygon fill="midnightblue" stroke="midnightblue" points="214.237,-12.5001 204.237,-16 214.237,-19.5001 214.237,-12.5001"/>
</g>
<!-- Node13&#45;&gt;Node10 -->
<g id="edge13" class="edge"><title>Node13&#45;&gt;Node10</title>
<path fill="none" stroke="#9a32cd" stroke-dasharray="5,2" d="M725.071,-214.249C765.177,-198.063 831.683,-171.222 874.144,-154.085"/>
<polygon fill="#9a32cd" stroke="#9a32cd" points="723.68,-211.036 715.717,-218.025 726.3,-217.528 723.68,-211.036"/>
<text text-anchor="middle" x="805" y="-199" font-family="Helvetica,sans-Serif" font-size="10.00"> elements</text>
</g>
<!-- Node14 -->
<g id="node14" class="node"><title>Node14</title>
<polygon fill="none" stroke="#bfbfbf" points="388.824,-276 388.824,-296 453.176,-296 453.176,-276 388.824,-276"/>
<text text-anchor="middle" x="421" y="-283" font-family="Helvetica,sans-Serif" font-size="10.00">type_index</text>
</g>
<!-- Node14&#45;&gt;Node13 -->
<g id="edge14" class="edge"><title>Node14&#45;&gt;Node13</title>
<path fill="none" stroke="#9a32cd" stroke-dasharray="5,2" d="M463.285,-274.956C477.425,-271.302 493.367,-267.324 508,-264 563.613,-251.366 629.395,-238.897 664.319,-232.471"/>
<polygon fill="#9a32cd" stroke="#9a32cd" points="462.147,-271.636 453.353,-277.545 463.913,-278.409 462.147,-271.636"/>
<text text-anchor="middle" x="560" y="-267" font-family="Helvetica,sans-Serif" font-size="10.00"> type</text>
</g>
<!-- Node15 -->
<g id="node15" class="node"><title>Node15</title>
<polygon fill="none" stroke="#bfbfbf" points="352.012,-125 352.012,-157 489.988,-157 489.988,-125 352.012,-125"/>
<text text-anchor="start" x="360.012" y="-144" font-family="Helvetica,sans-Serif" font-size="10.00">std::map&lt; Type::RingBuffer</text>
<text text-anchor="middle" x="421" y="-132" font-family="Helvetica,sans-Serif" font-size="10.00">Type, instr_map_t * &gt;</text>
</g>
<!-- Node15&#45;&gt;Node13 -->
<g id="edge15" class="edge"><title>Node15&#45;&gt;Node13</title>
<path fill="none" stroke="#9a32cd" stroke-dasharray="5,2" d="M500.468,-143.023C535.706,-146.205 577.11,-153.185 612,-168 639.767,-179.79 666.147,-204.192 679.644,-217.968"/>
<polygon fill="#9a32cd" stroke="#9a32cd" points="500.477,-139.512 490.225,-142.187 499.908,-146.489 500.477,-139.512"/>
<text text-anchor="middle" x="560" y="-171" font-family="Helvetica,sans-Serif" font-size="10.00"> const_map</text>
</g>
<!-- Node16 -->
<g id="node16" class="node"><title>Node16</title>
<g id="a_node16"><a xlink:title="STL class. ">
<polygon fill="none" stroke="#bfbfbf" points="112.043,-124 112.043,-144 201.957,-144 201.957,-124 112.043,-124"/>
<text text-anchor="middle" x="157" y="-131" font-family="Helvetica,sans-Serif" font-size="10.00">std::map&lt; K, T &gt;</text>
</a>
</g>
</g>
<!-- Node16&#45;&gt;Node15 -->
<g id="edge16" class="edge"><title>Node16&#45;&gt;Node15</title>
<path fill="none" stroke="#9a32cd" stroke-dasharray="5,2" d="M212.118,-136.638C215.461,-136.77 218.776,-136.892 222,-137 265.125,-138.446 313.553,-139.436 351.72,-140.069"/>
<polygon fill="#9a32cd" stroke="#9a32cd" points="212.199,-133.139 202.062,-136.22 211.907,-140.133 212.199,-133.139"/>
<text text-anchor="middle" x="278" y="-143" font-family="Helvetica,sans-Serif" font-size="10.00"> elements</text>
</g>
<!-- Node16&#45;&gt;Node15 -->
<g id="edge20" class="edge"><title>Node16&#45;&gt;Node15</title>
<path fill="none" stroke="orange" stroke-dasharray="5,2" d="M187.424,-119.862C198.063,-115.466 210.332,-111.198 222,-109 270.917,-99.7849 285.01,-100.181 334,-109 351.403,-112.133 369.883,-118.565 385.234,-124.846"/>
<polygon fill="orange" stroke="orange" points="185.953,-116.685 178.175,-123.879 188.741,-123.105 185.953,-116.685"/>
<text text-anchor="start" x="222.291" y="-124" font-family="Helvetica,sans-Serif" font-size="10.00"> &lt; Type::RingBufferType,</text>
<text text-anchor="middle" x="278" y="-112" font-family="Helvetica,sans-Serif" font-size="10.00"> instr_map_t * &gt;</text>
</g>
<!-- Node16&#45;&gt;Node10 -->
<g id="edge28" class="edge"><title>Node16&#45;&gt;Node10</title>
<path fill="none" stroke="orange" stroke-dasharray="5,2" d="M180.548,-118.036C192.309,-110.68 207.284,-102.761 222,-99 270.228,-86.6742 284.25,-97.3293 334,-99 527.913,-105.512 757.678,-124.238 860.087,-133.161"/>
<polygon fill="orange" stroke="orange" points="178.316,-115.315 171.872,-123.724 182.154,-121.169 178.316,-115.315"/>
<text text-anchor="middle" x="560" y="-117" font-family="Helvetica,sans-Serif" font-size="10.00"> &lt; std::string, PortInfo &gt;</text>
</g>
<!-- Node17 -->
<g id="node17" class="node"><title>Node17</title>
<polygon fill="none" stroke="#bfbfbf" points="0.5,-310 0.5,-330 29.5,-330 29.5,-310 0.5,-310"/>
<text text-anchor="middle" x="15" y="-317" font-family="Helvetica,sans-Serif" font-size="10.00">K</text>
</g>
<!-- Node17&#45;&gt;Node16 -->
<g id="edge17" class="edge"><title>Node17&#45;&gt;Node16</title>
<path fill="none" stroke="#9a32cd" stroke-dasharray="5,2" d="M26.2185,-300.851C42.0843,-271.996 74.5314,-216.35 110,-175 119.89,-163.47 132.962,-152.116 142.642,-144.291"/>
<polygon fill="#9a32cd" stroke="#9a32cd" points="23.0159,-299.414 21.3203,-309.872 29.1677,-302.754 23.0159,-299.414"/>
<text text-anchor="middle" x="70" y="-265" font-family="Helvetica,sans-Serif" font-size="10.00"> keys</text>
</g>
<!-- Node24 -->
<g id="node24" class="node"><title>Node24</title>
<g id="a_node24"><a xlink:title="STL class. ">
<polygon fill="none" stroke="#bfbfbf" points="384.93,-477 384.93,-497 457.07,-497 457.07,-477 384.93,-477"/>
<text text-anchor="middle" x="421" y="-484" font-family="Helvetica,sans-Serif" font-size="10.00">std::set&lt; K &gt;</text>
</a>
</g>
</g>
<!-- Node17&#45;&gt;Node24 -->
<g id="edge32" class="edge"><title>Node17&#45;&gt;Node24</title>
<path fill="none" stroke="#9a32cd" stroke-dasharray="5,2" d="M38.2396,-335.526C74.9207,-360.477 151.116,-409.573 222,-438 276.889,-460.012 344.424,-474.157 384.748,-481.332"/>
<polygon fill="#9a32cd" stroke="#9a32cd" points="40.0183,-332.501 29.7925,-329.73 36.0579,-338.273 40.0183,-332.501"/>
<text text-anchor="middle" x="157" y="-432" font-family="Helvetica,sans-Serif" font-size="10.00"> keys</text>
</g>
<!-- Node18 -->
<g id="node18" class="node"><title>Node18</title>
<polygon fill="none" stroke="#bfbfbf" points="0.5,-124 0.5,-144 29.5,-144 29.5,-124 0.5,-124"/>
<text text-anchor="middle" x="15" y="-131" font-family="Helvetica,sans-Serif" font-size="10.00">T</text>
</g>
<!-- Node18&#45;&gt;Node16 -->
<g id="edge18" class="edge"><title>Node18&#45;&gt;Node16</title>
<path fill="none" stroke="#9a32cd" stroke-dasharray="5,2" d="M39.9163,-134C59.6521,-134 88.1832,-134 112.021,-134"/>
<polygon fill="#9a32cd" stroke="#9a32cd" points="39.6787,-130.5 29.6787,-134 39.6787,-137.5 39.6787,-130.5"/>
<text text-anchor="middle" x="70" y="-137" font-family="Helvetica,sans-Serif" font-size="10.00"> elements</text>
</g>
<!-- Node19 -->
<g id="node19" class="node"><title>Node19</title>
<polygon fill="none" stroke="#bfbfbf" points="114.272,-184 114.272,-204 199.728,-204 199.728,-184 114.272,-184"/>
<text text-anchor="middle" x="157" y="-191" font-family="Helvetica,sans-Serif" font-size="10.00">RingBufferType</text>
</g>
<!-- Node19&#45;&gt;Node15 -->
<g id="edge19" class="edge"><title>Node19&#45;&gt;Node15</title>
<path fill="none" stroke="#9a32cd" stroke-dasharray="5,2" d="M209.774,-183.527C250.437,-175.301 307.412,-163.775 351.793,-154.798"/>
<polygon fill="#9a32cd" stroke="#9a32cd" points="208.912,-180.13 199.804,-185.543 210.3,-186.991 208.912,-180.13"/>
<text text-anchor="middle" x="278" y="-182" font-family="Helvetica,sans-Serif" font-size="10.00"> keys</text>
</g>
<!-- Node20 -->
<g id="node20" class="node"><title>Node20</title>
<polygon fill="none" stroke="#bfbfbf" points="139.552,-315 139.552,-335 174.448,-335 174.448,-315 139.552,-315"/>
<text text-anchor="middle" x="157" y="-322" font-family="Helvetica,sans-Serif" font-size="10.00">bool</text>
</g>
<!-- Node20&#45;&gt;Node13 -->
<g id="edge21" class="edge"><title>Node20&#45;&gt;Node13</title>
<path fill="none" stroke="#9a32cd" stroke-dasharray="5,2" d="M176.991,-307.94C209.815,-279.734 280.536,-224.46 352,-204 465.061,-171.631 607.741,-204.687 664.292,-220.541"/>
<polygon fill="#9a32cd" stroke="#9a32cd" points="174.355,-305.595 169.125,-314.81 178.96,-310.868 174.355,-305.595"/>
<text text-anchor="middle" x="421" y="-219" font-family="Helvetica,sans-Serif" font-size="10.00"> use_my_allocator</text>
<text text-anchor="middle" x="421" y="-207" font-family="Helvetica,sans-Serif" font-size="10.00">out_of_order</text>
</g>
<!-- Node21 -->
<g id="node21" class="node"><title>Node21</title>
<g id="a_node21"><a xlink:href="class_f_i_f_o.html" target="_top" xlink:title="FIFO">
<polygon fill="none" stroke="black" points="401.612,-315 401.612,-335 440.388,-335 440.388,-315 401.612,-315"/>
<text text-anchor="middle" x="421" y="-322" font-family="Helvetica,sans-Serif" font-size="10.00">FIFO</text>
</a>
</g>
</g>
<!-- Node20&#45;&gt;Node21 -->
<g id="edge24" class="edge"><title>Node20&#45;&gt;Node21</title>
<path fill="none" stroke="#9a32cd" stroke-dasharray="5,2" d="M184.813,-325C237.972,-325 355.53,-325 401.273,-325"/>
<polygon fill="#9a32cd" stroke="#9a32cd" points="184.788,-321.5 174.788,-325 184.788,-328.5 184.788,-321.5"/>
<text text-anchor="middle" x="278" y="-328" font-family="Helvetica,sans-Serif" font-size="10.00"> valid</text>
</g>
<!-- Node20&#45;&gt;Node2 -->
<g id="edge33" class="edge"><title>Node20&#45;&gt;Node2</title>
<path fill="none" stroke="#9a32cd" stroke-dasharray="5,2" d="M183.44,-340.257C219.459,-360.879 288.071,-396.609 352,-410 412.031,-422.574 429.718,-421.309 490,-410 498.436,-408.417 499.564,-404.583 508,-403 656.806,-375.084 704.745,-406.097 842,-470 850.716,-474.058 851.434,-477.634 860,-482 869.174,-486.676 879.708,-490.827 889.022,-494.118"/>
<polygon fill="#9a32cd" stroke="#9a32cd" points="184.996,-337.113 174.591,-335.117 181.48,-343.166 184.996,-337.113"/>
<text text-anchor="middle" x="560" y="-406" font-family="Helvetica,sans-Serif" font-size="10.00"> exit_alloc</text>
</g>
<!-- Node21&#45;&gt;Node13 -->
<g id="edge23" class="edge"><title>Node21&#45;&gt;Node13</title>
<path fill="none" stroke="#9a32cd" stroke-dasharray="5,2" d="M450.21,-316.947C462.468,-313.386 476.974,-309.085 490,-305 498.046,-302.477 499.872,-301.247 508,-299 553.628,-286.387 568.172,-293.89 612,-276 636.065,-266.177 661.096,-249.076 675.851,-238.16"/>
<polygon fill="#9a32cd" stroke="#9a32cd" points="449.161,-313.607 440.525,-319.745 451.104,-320.333 449.161,-313.607"/>
<text text-anchor="middle" x="560" y="-314" font-family="Helvetica,sans-Serif" font-size="10.00"> fifo_a</text>
<text text-anchor="middle" x="560" y="-302" font-family="Helvetica,sans-Serif" font-size="10.00">fifo_b</text>
</g>
<!-- Node25 -->
<g id="node25" class="node"><title>Node25</title>
<polygon fill="none" stroke="#bfbfbf" points="642.543,-457 642.543,-477 737.457,-477 737.457,-457 642.543,-457"/>
<text text-anchor="middle" x="690" y="-464" font-family="Helvetica,sans-Serif" font-size="10.00">std::set&lt; FIFO * &gt;</text>
</g>
<!-- Node21&#45;&gt;Node25 -->
<g id="edge35" class="edge"><title>Node21&#45;&gt;Node25</title>
<path fill="none" stroke="#9a32cd" stroke-dasharray="5,2" d="M450.716,-326.239C489.985,-329.137 561.338,-338.801 612,-371 646.982,-393.233 673.164,-436.9 683.794,-456.747"/>
<polygon fill="#9a32cd" stroke="#9a32cd" points="450.737,-322.733 440.534,-325.588 450.29,-329.719 450.737,-322.733"/>
<text text-anchor="middle" x="560" y="-374" font-family="Helvetica,sans-Serif" font-size="10.00"> keys</text>
</g>
<!-- Node22 -->
<g id="node22" class="node"><title>Node22</title>
<polygon fill="none" stroke="#bfbfbf" points="400.498,-237 400.498,-257 441.502,-257 441.502,-237 400.498,-237"/>
<text text-anchor="middle" x="421" y="-244" font-family="Helvetica,sans-Serif" font-size="10.00">void *</text>
</g>
<!-- Node22&#45;&gt;Node13 -->
<g id="edge27" class="edge"><title>Node22&#45;&gt;Node13</title>
<path fill="none" stroke="#9a32cd" stroke-dasharray="5,2" d="M451.74,-239.238C468.196,-235.333 489.087,-231.011 508,-229 563.621,-223.086 629.4,-224.913 664.321,-226.575"/>
<polygon fill="#9a32cd" stroke="#9a32cd" points="450.512,-235.935 441.632,-241.715 452.178,-242.734 450.512,-235.935"/>
<text text-anchor="middle" x="560" y="-232" font-family="Helvetica,sans-Serif" font-size="10.00"> existing_buffer</text>
</g>
<!-- Node23 -->
<g id="node23" class="node"><title>Node23</title>
<polygon fill="none" stroke="#bfbfbf" points="893.387,-453 893.387,-473 936.613,-473 936.613,-453 893.387,-453"/>
<text text-anchor="middle" x="915" y="-460" font-family="Helvetica,sans-Serif" font-size="10.00">mutex</text>
</g>
<!-- Node23&#45;&gt;Node9 -->
<g id="edge29" class="edge"><title>Node23&#45;&gt;Node9</title>
<path fill="none" stroke="#9a32cd" stroke-dasharray="5,2" d="M947.176,-463.701C980.14,-464.441 1031.76,-465.601 1064.2,-466.33"/>
<polygon fill="#9a32cd" stroke="#9a32cd" points="946.843,-460.192 936.767,-463.467 946.686,-467.191 946.843,-460.192"/>
<text text-anchor="middle" x="1016" y="-468" font-family="Helvetica,sans-Serif" font-size="10.00"> map_mutex</text>
</g>
<!-- Node24&#45;&gt;Node3 -->
<g id="edge31" class="edge"><title>Node24&#45;&gt;Node3</title>
<path fill="none" stroke="orange" stroke-dasharray="5,2" d="M467.335,-491.977C480.449,-493.353 494.788,-494.798 508,-496 548.804,-499.712 594.842,-503.265 630.275,-505.862"/>
<polygon fill="orange" stroke="orange" points="467.44,-488.468 457.126,-490.893 466.701,-495.429 467.44,-488.468"/>
<text text-anchor="middle" x="560" y="-507" font-family="Helvetica,sans-Serif" font-size="10.00"> &lt; raft::kernel * &gt;</text>
</g>
<!-- Node24&#45;&gt;Node25 -->
<g id="edge36" class="edge"><title>Node24&#45;&gt;Node25</title>
<path fill="none" stroke="orange" stroke-dasharray="5,2" d="M467.44,-483.596C516.226,-479.942 593.336,-474.166 642.521,-470.482"/>
<polygon fill="orange" stroke="orange" points="466.891,-480.128 457.18,-484.365 467.414,-487.108 466.891,-480.128"/>
<text text-anchor="middle" x="560" y="-483" font-family="Helvetica,sans-Serif" font-size="10.00"> &lt; FIFO * &gt;</text>
</g>
<!-- Node25&#45;&gt;Node2 -->
<g id="edge34" class="edge"><title>Node25&#45;&gt;Node2</title>
<path fill="none" stroke="#9a32cd" stroke-dasharray="5,2" d="M747.625,-472.215C776.06,-475.223 810.975,-479.506 842,-485 857.809,-487.799 875.345,-491.918 889.153,-495.4"/>
<polygon fill="#9a32cd" stroke="#9a32cd" points="747.768,-468.711 737.461,-471.165 747.048,-475.674 747.768,-468.711"/>
<text text-anchor="middle" x="805" y="-488" font-family="Helvetica,sans-Serif" font-size="10.00"> allocated_fifo</text>
</g>
</g>
</svg>
