<?xml version="1.0" encoding="UTF-8" standalone="no"?>
<!DOCTYPE svg PUBLIC "-//W3C//DTD SVG 1.1//EN"
 "http://www.w3.org/Graphics/SVG/1.1/DTD/svg11.dtd">
<!-- Generated by graphviz version 2.30.1 (20130404.1610)
 -->
<!-- Title: MapBase::link Pages: 1 -->
<svg width="214pt" height="106pt"
 viewBox="0.00 0.00 214.00 106.00" xmlns="http://www.w3.org/2000/svg" xmlns:xlink="http://www.w3.org/1999/xlink">
<g id="graph0" class="graph" transform="scale(1 1) rotate(0) translate(4 102)">
<title>MapBase::link</title>
<!-- Node1 -->
<g id="node1" class="node"><title>Node1</title>
<polygon fill="#bfbfbf" stroke="black" points="0.6055,-39 0.6055,-59 79.3945,-59 79.3945,-39 0.6055,-39"/>
<text text-anchor="middle" x="40" y="-46" font-family="Helvetica,sans-Serif" font-size="10.00">MapBase::link</text>
</g>
<!-- Node2 -->
<g id="node2" class="node"><title>Node2</title>
<g id="a_node2"><a xlink:href="class_port.html#a7042f5b5c2ab14c9591a4984811a6012" target="_top" xlink:title="Port::hasPorts">
<polygon fill="none" stroke="black" points="121.326,-78 121.326,-98 200.674,-98 200.674,-78 121.326,-78"/>
<text text-anchor="middle" x="161" y="-85" font-family="Helvetica,sans-Serif" font-size="10.00">Port::hasPorts</text>
</a>
</g>
</g>
<!-- Node1&#45;&gt;Node2 -->
<g id="edge1" class="edge"><title>Node1&#45;&gt;Node2</title>
<path fill="none" stroke="midnightblue" d="M71.6455,-59.0435C86.3589,-63.8655 104.178,-69.7055 119.949,-74.8742"/>
<polygon fill="midnightblue" stroke="midnightblue" points="118.866,-78.2021 129.458,-77.9906 121.046,-71.5502 118.866,-78.2021"/>
</g>
<!-- Node3 -->
<g id="node3" class="node"><title>Node3</title>
<g id="a_node3"><a xlink:href="class_port.html#a4af1cb062940ca3b83c569f024b9a8d1" target="_top" xlink:title="Port::getPortInfo">
<polygon fill="none" stroke="black" points="116.599,-39 116.599,-59 205.401,-59 205.401,-39 116.599,-39"/>
<text text-anchor="middle" x="161" y="-46" font-family="Helvetica,sans-Serif" font-size="10.00">Port::getPortInfo</text>
</a>
</g>
</g>
<!-- Node1&#45;&gt;Node3 -->
<g id="edge2" class="edge"><title>Node1&#45;&gt;Node3</title>
<path fill="none" stroke="midnightblue" d="M79.6359,-49C88.0258,-49 97.0494,-49 105.912,-49"/>
<polygon fill="midnightblue" stroke="midnightblue" points="106.193,-52.5001 116.193,-49 106.193,-45.5001 106.193,-52.5001"/>
</g>
<!-- Node4 -->
<g id="node4" class="node"><title>Node4</title>
<g id="a_node4"><a xlink:href="class_map_base.html#a2624d7b81f0078dcc78e524045403e28" target="_top" xlink:title="MapBase::join">
<polygon fill="none" stroke="black" points="121.326,-0 121.326,-20 200.674,-20 200.674,-0 121.326,-0"/>
<text text-anchor="middle" x="161" y="-7" font-family="Helvetica,sans-Serif" font-size="10.00">MapBase::join</text>
</a>
</g>
</g>
<!-- Node1&#45;&gt;Node4 -->
<g id="edge3" class="edge"><title>Node1&#45;&gt;Node4</title>
<path fill="none" stroke="midnightblue" d="M71.6455,-38.9565C86.3589,-34.1345 104.178,-28.2945 119.949,-23.1258"/>
<polygon fill="midnightblue" stroke="midnightblue" points="121.046,-26.4498 129.458,-20.0094 118.866,-19.7979 121.046,-26.4498"/>
</g>
</g>
</svg>
