<?xml version="1.0" encoding="UTF-8" standalone="no"?>
<!DOCTYPE svg PUBLIC "-//W3C//DTD SVG 1.1//EN"
 "http://www.w3.org/Graphics/SVG/1.1/DTD/svg11.dtd">
<!-- Generated by graphviz version 2.30.1 (20130404.1610)
 -->
<!-- Title: dynalloc::run Pages: 1 -->
<svg width="356pt" height="196pt"
 viewBox="0.00 0.00 356.00 196.00" xmlns="http://www.w3.org/2000/svg" xmlns:xlink="http://www.w3.org/1999/xlink">
<g id="graph0" class="graph" transform="scale(1 1) rotate(0) translate(4 192)">
<title>dynalloc::run</title>
<!-- Node1 -->
<g id="node1" class="node"><title>Node1</title>
<polygon fill="#bfbfbf" stroke="black" points="0.6605,-90 0.6605,-110 73.3395,-110 73.3395,-90 0.6605,-90"/>
<text text-anchor="middle" x="37" y="-97" font-family="Helvetica,sans-Serif" font-size="10.00">dynalloc::run</text>
</g>
<!-- Node2 -->
<g id="node2" class="node"><title>Node2</title>
<g id="a_node2"><a xlink:href="class_allocate.html#a143df0dcd693ee1ba72060a06aca3b8c" target="_top" xlink:title="Allocate::initialize">
<polygon fill="none" stroke="black" points="117.664,-168 117.664,-188 210.336,-188 210.336,-168 117.664,-168"/>
<text text-anchor="middle" x="164" y="-175" font-family="Helvetica,sans-Serif" font-size="10.00">Allocate::initialize</text>
</a>
</g>
</g>
<!-- Node1&#45;&gt;Node2 -->
<g id="edge1" class="edge"><title>Node1&#45;&gt;Node2</title>
<path fill="none" stroke="midnightblue" d="M48.4276,-110.209C61.7703,-122.824 86.0339,-144.295 110,-158 113.746,-160.142 117.764,-162.137 121.852,-163.973"/>
<polygon fill="midnightblue" stroke="midnightblue" points="120.844,-167.345 131.421,-167.962 123.537,-160.884 120.844,-167.345"/>
</g>
<!-- Node5 -->
<g id="node5" class="node"><title>Node5</title>
<g id="a_node5"><a xlink:href="class_graph_tools.html#ade51007699cbd681c1a37946609c46ee" target="_top" xlink:title="GraphTools::BFS">
<polygon fill="none" stroke="black" points="117.382,-129 117.382,-149 210.618,-149 210.618,-129 117.382,-129"/>
<text text-anchor="middle" x="164" y="-136" font-family="Helvetica,sans-Serif" font-size="10.00">GraphTools::BFS</text>
</a>
</g>
</g>
<!-- Node1&#45;&gt;Node5 -->
<g id="edge4" class="edge"><title>Node1&#45;&gt;Node5</title>
<path fill="none" stroke="midnightblue" d="M70.1906,-110.043C85.6459,-114.866 104.364,-120.706 120.93,-125.874"/>
<polygon fill="midnightblue" stroke="midnightblue" points="120.33,-129.353 130.918,-128.991 122.415,-122.671 120.33,-129.353"/>
</g>
<!-- Node6 -->
<g id="node6" class="node"><title>Node6</title>
<g id="a_node6"><a xlink:href="class_allocate.html#a4cf36bb704e43f5736a0e736d9e1a81b" target="_top" xlink:title="Allocate::setReady">
<polygon fill="none" stroke="black" points="114.323,-90 114.323,-110 213.678,-110 213.678,-90 114.323,-90"/>
<text text-anchor="middle" x="164" y="-97" font-family="Helvetica,sans-Serif" font-size="10.00">Allocate::setReady</text>
</a>
</g>
</g>
<!-- Node1&#45;&gt;Node6 -->
<g id="edge5" class="edge"><title>Node1&#45;&gt;Node6</title>
<path fill="none" stroke="midnightblue" d="M73.4856,-100C82.9049,-100 93.3379,-100 103.656,-100"/>
<polygon fill="midnightblue" stroke="midnightblue" points="103.894,-103.5 113.894,-100 103.894,-96.5001 103.894,-103.5"/>
</g>
<!-- Node3 -->
<g id="node3" class="node"><title>Node3</title>
<g id="a_node3"><a xlink:href="struct_port_info.html#a9045e2d4e4d53e6a876cd277060fecb0" target="_top" xlink:title="PortInfo::getFIFO">
<polygon fill="none" stroke="black" points="254.379,-90 254.379,-110 347.621,-110 347.621,-90 254.379,-90"/>
<text text-anchor="middle" x="301" y="-97" font-family="Helvetica,sans-Serif" font-size="10.00">PortInfo::getFIFO</text>
</a>
</g>
</g>
<!-- Node1&#45;&gt;Node3 -->
<g id="edge6" class="edge"><title>Node1&#45;&gt;Node3</title>
<path fill="none" stroke="midnightblue" d="M68.8386,-89.9916C81.4532,-86.3908 96.2821,-82.7795 110,-81 157.601,-74.825 170.311,-75.5473 218,-81 230.137,-82.3877 243.091,-84.895 255.034,-87.6428"/>
<polygon fill="midnightblue" stroke="midnightblue" points="254.247,-91.0534 264.789,-89.9883 255.884,-84.2474 254.247,-91.0534"/>
</g>
<!-- Node7 -->
<g id="node7" class="node"><title>Node7</title>
<g id="a_node7"><a xlink:href="class_f_i_f_o.html#a4d44784c43a4026508e85982eb3174c7" target="_top" xlink:title="FIFO::get_frac_write\l_blocked">
<polygon fill="none" stroke="black" points="110.44,-0 110.44,-32 217.56,-32 217.56,-0 110.44,-0"/>
<text text-anchor="start" x="118.44" y="-19" font-family="Helvetica,sans-Serif" font-size="10.00">FIFO::get_frac_write</text>
<text text-anchor="middle" x="164" y="-7" font-family="Helvetica,sans-Serif" font-size="10.00">_blocked</text>
</a>
</g>
</g>
<!-- Node1&#45;&gt;Node7 -->
<g id="edge7" class="edge"><title>Node1&#45;&gt;Node7</title>
<path fill="none" stroke="midnightblue" d="M50.9735,-89.8055C65.1664,-78.8069 88.7342,-60.9905 110,-47 114.963,-43.7347 120.278,-40.4218 125.555,-37.2368"/>
<polygon fill="midnightblue" stroke="midnightblue" points="127.519,-40.1415 134.333,-32.0285 123.946,-34.1215 127.519,-40.1415"/>
</g>
<!-- Node2&#45;&gt;Node3 -->
<g id="edge2" class="edge"><title>Node2&#45;&gt;Node3</title>
<path fill="none" stroke="midnightblue" d="M195.577,-167.978C203.075,-165.111 210.965,-161.737 218,-158 240.349,-146.13 263.712,-129.079 279.756,-116.535"/>
<polygon fill="midnightblue" stroke="midnightblue" points="282.212,-119.054 287.864,-110.092 277.857,-113.573 282.212,-119.054"/>
</g>
<!-- Node4 -->
<g id="node4" class="node"><title>Node4</title>
<g id="a_node4"><a xlink:href="struct_port_info.html#a8eadd0276864dc2d7752381ff0cfeb8b" target="_top" xlink:title="PortInfo::setFIFO">
<polygon fill="none" stroke="black" points="254.658,-168 254.658,-188 347.342,-188 347.342,-168 254.658,-168"/>
<text text-anchor="middle" x="301" y="-175" font-family="Helvetica,sans-Serif" font-size="10.00">PortInfo::setFIFO</text>
</a>
</g>
</g>
<!-- Node2&#45;&gt;Node4 -->
<g id="edge3" class="edge"><title>Node2&#45;&gt;Node4</title>
<path fill="none" stroke="midnightblue" d="M210.705,-178C221.481,-178 233.087,-178 244.251,-178"/>
<polygon fill="midnightblue" stroke="midnightblue" points="244.342,-181.5 254.342,-178 244.342,-174.5 244.342,-181.5"/>
</g>
</g>
</svg>
