<?xml version="1.0" encoding="UTF-8" standalone="no"?>
<!DOCTYPE svg PUBLIC "-//W3C//DTD SVG 1.1//EN"
 "http://www.w3.org/Graphics/SVG/1.1/DTD/svg11.dtd">
<!-- Generated by graphviz version 2.30.1 (20130404.1610)
 -->
<!-- Title: raft::kernel Pages: 1 -->
<!--zoomable 569 -->
<svg id="main" version="1.1" xmlns="http://www.w3.org/2000/svg" xmlns:xlink="http://www.w3.org/1999/xlink" xml:space="preserve" onload="init(evt)">
<style type="text/css"><![CDATA[
.edge:hover path { stroke: red; }
.edge:hover polygon { stroke: red; fill: red; }
]]></style>
<script type="text/javascript"><![CDATA[
var edges = document.getElementsByTagName('g');
if (edges && edges.length) {
  for (var i=0;i<edges.length;i++) {
    if (edges[i].id.substr(0,4)=='edge') {
      edges[i].setAttribute('class','edge');
    }
  }
}
]]></script>
        <defs>
                <circle id="rim" cx="0" cy="0" r="7"/>
                <circle id="rim2" cx="0" cy="0" r="3.5"/>
                <g id="zoomPlus">
                        <use xlink:href="#rim" fill="#404040">
                                <set attributeName="fill" to="#808080" begin="zoomplus.mouseover" end="zoomplus.mouseout"/>
                        </use>
                        <path d="M-4,0h8M0,-4v8" fill="none" stroke="white" stroke-width="1.5" pointer-events="none"/>
                </g>
                <g id="zoomMin">
                        <use xlink:href="#rim" fill="#404040">
                                <set attributeName="fill" to="#808080" begin="zoomminus.mouseover" end="zoomminus.mouseout"/>
                        </use>
                        <path d="M-4,0h8" fill="none" stroke="white" stroke-width="1.5" pointer-events="none"/>
                </g>
                <g id="dirArrow">
                        <path fill="none" stroke="white" stroke-width="1.5" d="M0,-3.0v7 M-2.5,-0.5L0,-3.0L2.5,-0.5"/>
                </g>
               <g id="resetDef">
                       <use xlink:href="#rim2" fill="#404040">
                               <set attributeName="fill" to="#808080" begin="reset.mouseover" end="reset.mouseout"/>
                       </use>
               </g>
        </defs>

<script type="text/javascript">
var viewWidth = 1180;
var viewHeight = 569;
var sectionId = 'dynsection-1';
</script>
<script xlink:href="svgpan.js"/>
<svg id="graph" class="graph">
<g id="viewport">
<title>raft::kernel</title>
<!-- Node1 -->
<g id="node1" class="node"><title>Node1</title>
<polygon fill="#bfbfbf" stroke="black" points="389.385,-475.135 389.385,-495.135 452.615,-495.135 452.615,-475.135 389.385,-475.135"/>
<text text-anchor="middle" x="421" y="-482.135" font-family="Helvetica,sans-Serif" font-size="10.00">raft::kernel</text>
</g>
<!-- Node10 -->
<g id="node10" class="node"><title>Node10</title>
<g id="a_node10"><a xlink:href="struct_port_info.html" target="_top" xlink:title="PortInfo">
<polygon fill="none" stroke="black" points="630.494,-193.135 630.494,-213.135 681.506,-213.135 681.506,-193.135 630.494,-193.135"/>
<text text-anchor="middle" x="656" y="-200.135" font-family="Helvetica,sans-Serif" font-size="10.00">PortInfo</text>
</a>
</g>
</g>
<!-- Node1&#45;&gt;Node10 -->
<g id="edge23" class="edge"><title>Node1&#45;&gt;Node10</title>
<path fill="none" stroke="#9a32cd" stroke-dasharray="5,2" d="M454.174,-470.718C496.62,-450.063 570.757,-408.052 612,-350.135 643.465,-305.95 652.088,-238.839 654.293,-213.398"/>
<polygon fill="#9a32cd" stroke="#9a32cd" points="452.636,-467.574 445.115,-475.036 455.648,-473.893 452.636,-467.574"/>
<text text-anchor="middle" x="560" y="-455.135" font-family="Helvetica,sans-Serif" font-size="10.00"> my_kernel</text>
<text text-anchor="middle" x="560" y="-443.135" font-family="Helvetica,sans-Serif" font-size="10.00">other_kernel</text>
</g>
<!-- Node3 -->
<g id="node3" class="node"><title>Node3</title>
<g id="a_node3"><a xlink:href="class_port.html" target="_top" xlink:title="Port">
<polygon fill="none" stroke="black" points="1137.83,-413.135 1137.83,-433.135 1172.17,-433.135 1172.17,-413.135 1137.83,-413.135"/>
<text text-anchor="middle" x="1155" y="-420.135" font-family="Helvetica,sans-Serif" font-size="10.00">Port</text>
</a>
</g>
</g>
<!-- Node1&#45;&gt;Node3 -->
<g id="edge27" class="edge"><title>Node1&#45;&gt;Node3</title>
<path fill="none" stroke="#9a32cd" stroke-dasharray="5,2" d="M452.888,-499.328C496.819,-518.182 580.315,-549.135 655,-549.135 655,-549.135 655,-549.135 1028,-549.135 1093.27,-549.135 1136.54,-463.539 1149.74,-433.447"/>
<polygon fill="#9a32cd" stroke="#9a32cd" points="454.185,-496.075 443.621,-495.276 451.381,-502.489 454.185,-496.075"/>
<text text-anchor="middle" x="847" y="-552.135" font-family="Helvetica,sans-Serif" font-size="10.00"> kernel</text>
</g>
<!-- Node2 -->
<g id="node2" class="node"><title>Node2</title>
<polygon fill="none" stroke="#bfbfbf" points="135.942,-433.135 135.942,-453.135 178.058,-453.135 178.058,-433.135 135.942,-433.135"/>
<text text-anchor="middle" x="157" y="-440.135" font-family="Helvetica,sans-Serif" font-size="10.00">size_t</text>
</g>
<!-- Node2&#45;&gt;Node1 -->
<g id="edge1" class="edge"><title>Node2&#45;&gt;Node1</title>
<path fill="none" stroke="#9a32cd" stroke-dasharray="5,2" d="M187.852,-450.151C198.584,-452.544 210.802,-455.122 222,-457.135 280.941,-467.734 350.351,-476.763 389.359,-481.525"/>
<polygon fill="#9a32cd" stroke="#9a32cd" points="188.627,-446.738 178.1,-447.937 187.077,-453.564 188.627,-446.738"/>
<text text-anchor="middle" x="278" y="-476.135" font-family="Helvetica,sans-Serif" font-size="10.00"> kernel_count</text>
</g>
<!-- Node2&#45;&gt;Node3 -->
<g id="edge5" class="edge"><title>Node2&#45;&gt;Node3</title>
<path fill="none" stroke="#9a32cd" stroke-dasharray="5,2" d="M188.593,-443.135C237.488,-443.135 336.27,-443.135 420,-443.135 420,-443.135 420,-443.135 1028,-443.135 1067.87,-443.135 1113.96,-433.248 1137.82,-427.377"/>
<polygon fill="#9a32cd" stroke="#9a32cd" points="188.383,-439.636 178.383,-443.135 188.383,-446.636 188.383,-439.636"/>
<text text-anchor="middle" x="737" y="-446.135" font-family="Helvetica,sans-Serif" font-size="10.00"> alloc_ptr_length</text>
</g>
<!-- Node2&#45;&gt;Node10 -->
<g id="edge22" class="edge"><title>Node2&#45;&gt;Node10</title>
<path fill="none" stroke="#9a32cd" stroke-dasharray="5,2" d="M188.173,-435.392C289.292,-409.431 609.98,-326.992 612,-325.135 645.24,-294.595 652.791,-236.803 654.501,-213.38"/>
<polygon fill="#9a32cd" stroke="#9a32cd" points="187.102,-432.054 178.287,-437.93 188.843,-438.834 187.102,-432.054"/>
<text text-anchor="middle" x="421" y="-408.135" font-family="Helvetica,sans-Serif" font-size="10.00"> nitems</text>
<text text-anchor="middle" x="421" y="-396.135" font-family="Helvetica,sans-Serif" font-size="10.00">start_index</text>
</g>
<!-- Node3&#45;&gt;Node1 -->
<g id="edge2" class="edge"><title>Node3&#45;&gt;Node1</title>
<path fill="none" stroke="#9a32cd" stroke-dasharray="5,2" d="M1139.22,-440.86C1133.67,-446.666 1127,-452.745 1120,-457.135 1083.32,-480.134 1071.29,-489.135 1028,-489.135 655,-489.135 655,-489.135 655,-489.135 582.581,-489.135 497.52,-487.18 452.903,-486.003"/>
<polygon fill="#9a32cd" stroke="#9a32cd" points="1141.94,-443.075 1146.02,-433.298 1136.73,-438.395 1141.94,-443.075"/>
<text text-anchor="middle" x="847" y="-504.135" font-family="Helvetica,sans-Serif" font-size="10.00"> output</text>
<text text-anchor="middle" x="847" y="-492.135" font-family="Helvetica,sans-Serif" font-size="10.00">input</text>
</g>
<!-- Node4 -->
<g id="node4" class="node"><title>Node4</title>
<g id="a_node4"><a xlink:href="class_port_base.html" target="_top" xlink:title="PortBase">
<polygon fill="none" stroke="black" points="998.438,-394.135 998.438,-414.135 1055.56,-414.135 1055.56,-394.135 998.438,-394.135"/>
<text text-anchor="middle" x="1027" y="-401.135" font-family="Helvetica,sans-Serif" font-size="10.00">PortBase</text>
</a>
</g>
</g>
<!-- Node4&#45;&gt;Node3 -->
<g id="edge3" class="edge"><title>Node4&#45;&gt;Node3</title>
<path fill="none" stroke="midnightblue" d="M1065.84,-409.841C1089.77,-413.45 1119.5,-417.932 1137.59,-420.661"/>
<polygon fill="midnightblue" stroke="midnightblue" points="1066.06,-406.335 1055.65,-408.305 1065.02,-413.257 1066.06,-406.335"/>
</g>
<!-- Node5 -->
<g id="node5" class="node"><title>Node5</title>
<polygon fill="none" stroke="#bfbfbf" points="994.549,-355.135 994.549,-375.135 1059.45,-375.135 1059.45,-355.135 994.549,-355.135"/>
<text text-anchor="middle" x="1027" y="-362.135" font-family="Helvetica,sans-Serif" font-size="10.00">void *const</text>
</g>
<!-- Node5&#45;&gt;Node3 -->
<g id="edge4" class="edge"><title>Node5&#45;&gt;Node3</title>
<path fill="none" stroke="#9a32cd" stroke-dasharray="5,2" d="M1069.58,-375.801C1085.83,-380.818 1104.3,-387.6 1120,-396.135 1128.48,-400.745 1136.98,-407.495 1143.36,-413.092"/>
<polygon fill="#9a32cd" stroke="#9a32cd" points="1070.37,-372.385 1059.79,-372.905 1068.38,-379.098 1070.37,-372.385"/>
<text text-anchor="middle" x="1099" y="-399.135" font-family="Helvetica,sans-Serif" font-size="10.00"> alloc_ptr</text>
</g>
<!-- Node6 -->
<g id="node6" class="node"><title>Node6</title>
<g id="a_node6"><a xlink:href="structportmap__t.html" target="_top" xlink:title="portmap_t">
<polygon fill="none" stroke="black" points="996.495,-310.135 996.495,-330.135 1057.51,-330.135 1057.51,-310.135 996.495,-310.135"/>
<text text-anchor="middle" x="1027" y="-317.135" font-family="Helvetica,sans-Serif" font-size="10.00">portmap_t</text>
</a>
</g>
</g>
<!-- Node6&#45;&gt;Node3 -->
<g id="edge6" class="edge"><title>Node6&#45;&gt;Node3</title>
<path fill="none" stroke="#9a32cd" stroke-dasharray="5,2" d="M1067.16,-332.266C1084.83,-339.192 1105.04,-349.3 1120,-363.135 1135.3,-377.278 1145.51,-399.914 1150.48,-412.964"/>
<polygon fill="#9a32cd" stroke="#9a32cd" points="1068.25,-328.937 1057.66,-328.742 1065.82,-335.5 1068.25,-328.937"/>
<text text-anchor="middle" x="1099" y="-366.135" font-family="Helvetica,sans-Serif" font-size="10.00"> portmap</text>
</g>
<!-- Node7 -->
<g id="node7" class="node"><title>Node7</title>
<polygon fill="none" stroke="#bfbfbf" points="792.46,-252.135 792.46,-284.135 901.54,-284.135 901.54,-252.135 792.46,-252.135"/>
<text text-anchor="start" x="800.46" y="-271.135" font-family="Helvetica,sans-Serif" font-size="10.00">std::map&lt; std::string,</text>
<text text-anchor="middle" x="847" y="-259.135" font-family="Helvetica,sans-Serif" font-size="10.00"> PortInfo &gt;</text>
</g>
<!-- Node7&#45;&gt;Node6 -->
<g id="edge7" class="edge"><title>Node7&#45;&gt;Node6</title>
<path fill="none" stroke="#9a32cd" stroke-dasharray="5,2" d="M911.587,-285.539C932.183,-291.304 955.101,-297.855 976,-304.135 982.634,-306.129 989.735,-308.349 996.442,-310.485"/>
<polygon fill="#9a32cd" stroke="#9a32cd" points="912.255,-282.091 901.682,-282.776 910.374,-288.834 912.255,-282.091"/>
<text text-anchor="middle" x="948" y="-307.135" font-family="Helvetica,sans-Serif" font-size="10.00"> map</text>
</g>
<!-- Node8 -->
<g id="node8" class="node"><title>Node8</title>
<g id="a_node8"><a xlink:title="STL class. ">
<polygon fill="none" stroke="#bfbfbf" points="391.329,-294.135 391.329,-314.135 450.671,-314.135 450.671,-294.135 391.329,-294.135"/>
<text text-anchor="middle" x="421" y="-301.135" font-family="Helvetica,sans-Serif" font-size="10.00">std::string</text>
</a>
</g>
</g>
<!-- Node8&#45;&gt;Node7 -->
<g id="edge8" class="edge"><title>Node8&#45;&gt;Node7</title>
<path fill="none" stroke="#9a32cd" stroke-dasharray="5,2" d="M460.689,-311.344C471.448,-315.054 482.284,-320.662 490,-329.135 511.049,-352.251 483.226,-378.066 508,-397.135 544.628,-425.329 567.237,-408.657 612,-397.135 634.182,-391.426 761.412,-317.747 818.402,-284.371"/>
<polygon fill="#9a32cd" stroke="#9a32cd" points="461.504,-307.935 450.922,-308.443 459.511,-314.645 461.504,-307.935"/>
<text text-anchor="middle" x="656" y="-392.135" font-family="Helvetica,sans-Serif" font-size="10.00"> keys</text>
</g>
<!-- Node8&#45;&gt;Node10 -->
<g id="edge19" class="edge"><title>Node8&#45;&gt;Node10</title>
<path fill="none" stroke="#9a32cd" stroke-dasharray="5,2" d="M460.808,-302.815C509.064,-300.501 588.016,-294.302 612,-278.135 635.149,-262.532 647.359,-230.01 652.306,-213.392"/>
<polygon fill="#9a32cd" stroke="#9a32cd" points="460.55,-299.323 450.715,-303.264 460.861,-306.316 460.55,-299.323"/>
<text text-anchor="middle" x="560" y="-315.135" font-family="Helvetica,sans-Serif" font-size="10.00"> my_name</text>
<text text-anchor="middle" x="560" y="-303.135" font-family="Helvetica,sans-Serif" font-size="10.00">other_name</text>
</g>
<!-- Node9 -->
<g id="node9" class="node"><title>Node9</title>
<g id="a_node9"><a xlink:title="STL class. ">
<polygon fill="none" stroke="#bfbfbf" points="109.962,-288.135 109.962,-320.135 204.038,-320.135 204.038,-288.135 109.962,-288.135"/>
<text text-anchor="start" x="117.962" y="-307.135" font-family="Helvetica,sans-Serif" font-size="10.00">std::basic_string&lt;</text>
<text text-anchor="middle" x="157" y="-295.135" font-family="Helvetica,sans-Serif" font-size="10.00"> char &gt;</text>
</a>
</g>
</g>
<!-- Node9&#45;&gt;Node8 -->
<g id="edge9" class="edge"><title>Node9&#45;&gt;Node8</title>
<path fill="none" stroke="midnightblue" d="M214.411,-304.135C268.775,-304.135 348.842,-304.135 391.228,-304.135"/>
<polygon fill="midnightblue" stroke="midnightblue" points="214.237,-300.636 204.237,-304.135 214.237,-307.636 214.237,-300.636"/>
</g>
<!-- Node10&#45;&gt;Node7 -->
<g id="edge10" class="edge"><title>Node10&#45;&gt;Node7</title>
<path fill="none" stroke="#9a32cd" stroke-dasharray="5,2" d="M691.674,-212.969C715.089,-219.814 746.606,-229.424 774,-239.135 785.05,-243.053 796.905,-247.657 807.742,-252.029"/>
<polygon fill="#9a32cd" stroke="#9a32cd" points="692.429,-209.544 681.85,-210.121 690.48,-216.267 692.429,-209.544"/>
<text text-anchor="middle" x="737" y="-242.135" font-family="Helvetica,sans-Serif" font-size="10.00"> elements</text>
</g>
<!-- Node11 -->
<g id="node11" class="node"><title>Node11</title>
<polygon fill="none" stroke="#bfbfbf" points="388.824,-9.13545 388.824,-29.1355 453.176,-29.1355 453.176,-9.13545 388.824,-9.13545"/>
<text text-anchor="middle" x="421" y="-16.1355" font-family="Helvetica,sans-Serif" font-size="10.00">type_index</text>
</g>
<!-- Node11&#45;&gt;Node10 -->
<g id="edge11" class="edge"><title>Node11&#45;&gt;Node10</title>
<path fill="none" stroke="#9a32cd" stroke-dasharray="5,2" d="M463.181,-7.61767C505.388,1.49193 570.543,7.70899 612,-26.1355 638.456,-47.7338 650.88,-158.894 654.116,-193.104"/>
<polygon fill="#9a32cd" stroke="#9a32cd" points="462.194,-4.25334 453.235,-9.90915 463.765,-11.0746 462.194,-4.25334"/>
<text text-anchor="middle" x="560" y="-29.1355" font-family="Helvetica,sans-Serif" font-size="10.00"> type</text>
</g>
<!-- Node12 -->
<g id="node12" class="node"><title>Node12</title>
<polygon fill="none" stroke="#bfbfbf" points="352.012,-187.135 352.012,-219.135 489.988,-219.135 489.988,-187.135 352.012,-187.135"/>
<text text-anchor="start" x="360.012" y="-206.135" font-family="Helvetica,sans-Serif" font-size="10.00">std::map&lt; Type::RingBuffer</text>
<text text-anchor="middle" x="421" y="-194.135" font-family="Helvetica,sans-Serif" font-size="10.00">Type, instr_map_t * &gt;</text>
</g>
<!-- Node12&#45;&gt;Node10 -->
<g id="edge12" class="edge"><title>Node12&#45;&gt;Node10</title>
<path fill="none" stroke="#9a32cd" stroke-dasharray="5,2" d="M500.142,-203.135C545.477,-203.135 599.535,-203.135 630.305,-203.135"/>
<polygon fill="#9a32cd" stroke="#9a32cd" points="500.02,-199.636 490.02,-203.135 500.02,-206.636 500.02,-199.636"/>
<text text-anchor="middle" x="560" y="-206.135" font-family="Helvetica,sans-Serif" font-size="10.00"> const_map</text>
</g>
<!-- Node13 -->
<g id="node13" class="node"><title>Node13</title>
<g id="a_node13"><a xlink:title="STL class. ">
<polygon fill="none" stroke="#bfbfbf" points="112.043,-235.135 112.043,-255.135 201.957,-255.135 201.957,-235.135 112.043,-235.135"/>
<text text-anchor="middle" x="157" y="-242.135" font-family="Helvetica,sans-Serif" font-size="10.00">std::map&lt; K, T &gt;</text>
</a>
</g>
</g>
<!-- Node13&#45;&gt;Node12 -->
<g id="edge13" class="edge"><title>Node13&#45;&gt;Node12</title>
<path fill="none" stroke="#9a32cd" stroke-dasharray="5,2" d="M212.301,-239.825C247.203,-236.048 293.44,-230.366 334,-223.135 340.489,-221.979 347.225,-220.646 353.941,-219.23"/>
<polygon fill="#9a32cd" stroke="#9a32cd" points="211.887,-236.349 202.313,-240.888 212.628,-243.31 211.887,-236.349"/>
<text text-anchor="middle" x="278" y="-242.135" font-family="Helvetica,sans-Serif" font-size="10.00"> elements</text>
</g>
<!-- Node13&#45;&gt;Node12 -->
<g id="edge17" class="edge"><title>Node13&#45;&gt;Node12</title>
<path fill="none" stroke="orange" stroke-dasharray="5,2" d="M173.738,-227.873C185.673,-216.138 203.19,-201.612 222,-195.135 263.474,-180.855 312.75,-182.784 351.769,-188.318"/>
<polygon fill="orange" stroke="orange" points="171.204,-225.458 166.743,-235.069 176.223,-230.337 171.204,-225.458"/>
<text text-anchor="start" x="222.291" y="-210.135" font-family="Helvetica,sans-Serif" font-size="10.00"> &lt; Type::RingBufferType,</text>
<text text-anchor="middle" x="278" y="-198.135" font-family="Helvetica,sans-Serif" font-size="10.00"> instr_map_t * &gt;</text>
</g>
<!-- Node13&#45;&gt;Node7 -->
<g id="edge25" class="edge"><title>Node13&#45;&gt;Node7</title>
<path fill="none" stroke="orange" stroke-dasharray="5,2" d="M212.059,-254.105C215.417,-254.5 218.751,-254.85 222,-255.135 394.703,-270.33 438.668,-259.506 612,-263.135 673.751,-264.429 744.666,-265.949 792.094,-266.971"/>
<polygon fill="orange" stroke="orange" points="212.339,-250.612 201.973,-252.802 211.442,-257.555 212.339,-250.612"/>
<text text-anchor="middle" x="560" y="-266.135" font-family="Helvetica,sans-Serif" font-size="10.00"> &lt; std::string, PortInfo &gt;</text>
</g>
<!-- Node14 -->
<g id="node14" class="node"><title>Node14</title>
<polygon fill="none" stroke="#bfbfbf" points="0.5,-255.135 0.5,-275.135 29.5,-275.135 29.5,-255.135 0.5,-255.135"/>
<text text-anchor="middle" x="15" y="-262.135" font-family="Helvetica,sans-Serif" font-size="10.00">K</text>
</g>
<!-- Node14&#45;&gt;Node13 -->
<g id="edge14" class="edge"><title>Node14&#45;&gt;Node13</title>
<path fill="none" stroke="#9a32cd" stroke-dasharray="5,2" d="M39.6415,-261.758C59.3866,-258.937 88.0723,-254.839 112.021,-251.418"/>
<polygon fill="#9a32cd" stroke="#9a32cd" points="39.0832,-258.302 29.6787,-263.181 40.0732,-265.232 39.0832,-258.302"/>
<text text-anchor="middle" x="70" y="-264.135" font-family="Helvetica,sans-Serif" font-size="10.00"> keys</text>
</g>
<!-- Node15 -->
<g id="node15" class="node"><title>Node15</title>
<polygon fill="none" stroke="#bfbfbf" points="0.5,-216.135 0.5,-236.135 29.5,-236.135 29.5,-216.135 0.5,-216.135"/>
<text text-anchor="middle" x="15" y="-223.135" font-family="Helvetica,sans-Serif" font-size="10.00">T</text>
</g>
<!-- Node15&#45;&gt;Node13 -->
<g id="edge15" class="edge"><title>Node15&#45;&gt;Node13</title>
<path fill="none" stroke="#9a32cd" stroke-dasharray="5,2" d="M39.5192,-226.775C54.5812,-227.408 74.5111,-228.661 92,-231.135 99.3201,-232.171 107.049,-233.583 114.507,-235.114"/>
<polygon fill="#9a32cd" stroke="#9a32cd" points="39.6361,-223.277 29.5166,-226.415 39.3843,-230.272 39.6361,-223.277"/>
<text text-anchor="middle" x="70" y="-234.135" font-family="Helvetica,sans-Serif" font-size="10.00"> elements</text>
</g>
<!-- Node16 -->
<g id="node16" class="node"><title>Node16</title>
<polygon fill="none" stroke="#bfbfbf" points="114.272,-153.135 114.272,-173.135 199.728,-173.135 199.728,-153.135 114.272,-153.135"/>
<text text-anchor="middle" x="157" y="-160.135" font-family="Helvetica,sans-Serif" font-size="10.00">RingBufferType</text>
</g>
<!-- Node16&#45;&gt;Node12 -->
<g id="edge16" class="edge"><title>Node16&#45;&gt;Node12</title>
<path fill="none" stroke="#9a32cd" stroke-dasharray="5,2" d="M209.891,-157.796C245.278,-155.521 292.979,-155.147 334,-164.135 334.711,-164.291 361.093,-176.274 384.449,-186.915"/>
<polygon fill="#9a32cd" stroke="#9a32cd" points="209.515,-154.314 199.79,-158.518 210.014,-161.296 209.515,-154.314"/>
<text text-anchor="middle" x="278" y="-167.135" font-family="Helvetica,sans-Serif" font-size="10.00"> keys</text>
</g>
<!-- Node17 -->
<g id="node17" class="node"><title>Node17</title>
<polygon fill="none" stroke="#bfbfbf" points="139.552,-102.135 139.552,-122.135 174.448,-122.135 174.448,-102.135 139.552,-102.135"/>
<text text-anchor="middle" x="157" y="-109.135" font-family="Helvetica,sans-Serif" font-size="10.00">bool</text>
</g>
<!-- Node17&#45;&gt;Node10 -->
<g id="edge18" class="edge"><title>Node17&#45;&gt;Node10</title>
<path fill="none" stroke="#9a32cd" stroke-dasharray="5,2" d="M185.047,-113.898C241.976,-117.952 378.139,-129.462 490,-153.135 540.807,-163.888 598.535,-183.032 630.466,-194.254"/>
<polygon fill="#9a32cd" stroke="#9a32cd" points="184.966,-110.384 174.749,-113.185 184.483,-117.367 184.966,-110.384"/>
<text text-anchor="middle" x="421" y="-168.135" font-family="Helvetica,sans-Serif" font-size="10.00"> use_my_allocator</text>
<text text-anchor="middle" x="421" y="-156.135" font-family="Helvetica,sans-Serif" font-size="10.00">out_of_order</text>
</g>
<!-- Node18 -->
<g id="node18" class="node"><title>Node18</title>
<g id="a_node18"><a xlink:href="class_f_i_f_o.html" target="_top" xlink:title="FIFO">
<polygon fill="none" stroke="black" points="401.612,-87.1355 401.612,-107.135 440.388,-107.135 440.388,-87.1355 401.612,-87.1355"/>
<text text-anchor="middle" x="421" y="-94.1355" font-family="Helvetica,sans-Serif" font-size="10.00">FIFO</text>
</a>
</g>
</g>
<!-- Node17&#45;&gt;Node18 -->
<g id="edge21" class="edge"><title>Node17&#45;&gt;Node18</title>
<path fill="none" stroke="#9a32cd" stroke-dasharray="5,2" d="M184.762,-108.251C196.208,-106.73 209.735,-105.117 222,-104.135 287.831,-98.8679 366.29,-97.5642 401.406,-97.2415"/>
<polygon fill="#9a32cd" stroke="#9a32cd" points="183.964,-104.828 174.534,-109.658 184.918,-111.762 183.964,-104.828"/>
<text text-anchor="middle" x="278" y="-107.135" font-family="Helvetica,sans-Serif" font-size="10.00"> valid</text>
</g>
<!-- Node18&#45;&gt;Node10 -->
<g id="edge20" class="edge"><title>Node18&#45;&gt;Node10</title>
<path fill="none" stroke="#9a32cd" stroke-dasharray="5,2" d="M450.294,-89.96C490.141,-81.5994 563.352,-72.8226 612,-106.135 641.79,-126.535 651.17,-172.557 653.93,-193.01"/>
<polygon fill="#9a32cd" stroke="#9a32cd" points="449.447,-86.5628 440.452,-92.161 450.975,-93.3941 449.447,-86.5628"/>
<text text-anchor="middle" x="560" y="-121.135" font-family="Helvetica,sans-Serif" font-size="10.00"> fifo_a</text>
<text text-anchor="middle" x="560" y="-109.135" font-family="Helvetica,sans-Serif" font-size="10.00">fifo_b</text>
</g>
<!-- Node19 -->
<g id="node19" class="node"><title>Node19</title>
<polygon fill="none" stroke="#bfbfbf" points="400.498,-48.1355 400.498,-68.1355 441.502,-68.1355 441.502,-48.1355 400.498,-48.1355"/>
<text text-anchor="middle" x="421" y="-55.1355" font-family="Helvetica,sans-Serif" font-size="10.00">void *</text>
</g>
<!-- Node19&#45;&gt;Node10 -->
<g id="edge24" class="edge"><title>Node19&#45;&gt;Node10</title>
<path fill="none" stroke="#9a32cd" stroke-dasharray="5,2" d="M451.506,-50.0775C492.133,-40.8884 565.537,-31.3758 612,-67.1355 652.229,-98.0973 655.603,-166.682 655.35,-192.78"/>
<polygon fill="#9a32cd" stroke="#9a32cd" points="450.585,-46.699 441.68,-52.4398 452.221,-53.505 450.585,-46.699"/>
<text text-anchor="middle" x="560" y="-70.1355" font-family="Helvetica,sans-Serif" font-size="10.00"> existing_buffer</text>
</g>
<!-- Node20 -->
<g id="node20" class="node"><title>Node20</title>
<polygon fill="none" stroke="#bfbfbf" points="825.387,-310.135 825.387,-330.135 868.613,-330.135 868.613,-310.135 825.387,-310.135"/>
<text text-anchor="middle" x="847" y="-317.135" font-family="Helvetica,sans-Serif" font-size="10.00">mutex</text>
</g>
<!-- Node20&#45;&gt;Node6 -->
<g id="edge26" class="edge"><title>Node20&#45;&gt;Node6</title>
<path fill="none" stroke="#9a32cd" stroke-dasharray="5,2" d="M879.176,-320.135C912.14,-320.135 963.765,-320.135 996.198,-320.135"/>
<polygon fill="#9a32cd" stroke="#9a32cd" points="878.767,-316.636 868.767,-320.135 878.767,-323.636 878.767,-316.636"/>
<text text-anchor="middle" x="948" y="-323.135" font-family="Helvetica,sans-Serif" font-size="10.00"> map_mutex</text>
</g>
</g>
</svg>
        <g id="navigator" transform="translate(0 0)" fill="#404254">
                <rect fill="#f2f5e9" fill-opacity="0.5" stroke="#606060" stroke-width=".5" x="0" y="0" width="60" height="60"/>
                <use id="zoomplus" xlink:href="#zoomPlus" x="17" y="9" onmousedown="handleZoom(evt,'in')"/>
                <use id="zoomminus" xlink:href="#zoomMin" x="42" y="9" onmousedown="handleZoom(evt,'out')"/>
                <use id="reset" xlink:href="#resetDef" x="30" y="36" onmousedown="handleReset()"/>
                <g id="arrowUp" xlink:href="#dirArrow" transform="translate(30 24)" onmousedown="handlePan(0,-1)">
                  <use xlink:href="#rim" fill="#404040">
                        <set attributeName="fill" to="#808080" begin="arrowUp.mouseover" end="arrowUp.mouseout"/>
                  </use>
                  <path fill="none" stroke="white" stroke-width="1.5" d="M0,-3.0v7 M-2.5,-0.5L0,-3.0L2.5,-0.5"/>
                </g>
                <g id="arrowRight" xlink:href="#dirArrow" transform="rotate(90) translate(36 -43)" onmousedown="handlePan(1,0)">
                  <use xlink:href="#rim" fill="#404040">
                        <set attributeName="fill" to="#808080" begin="arrowRight.mouseover" end="arrowRight.mouseout"/>
                  </use>
                  <path fill="none" stroke="white" stroke-width="1.5" d="M0,-3.0v7 M-2.5,-0.5L0,-3.0L2.5,-0.5"/>
                </g>
                <g id="arrowDown" xlink:href="#dirArrow" transform="rotate(180) translate(-30 -48)" onmousedown="handlePan(0,1)">
                  <use xlink:href="#rim" fill="#404040">
                        <set attributeName="fill" to="#808080" begin="arrowDown.mouseover" end="arrowDown.mouseout"/>
                  </use>
                  <path fill="none" stroke="white" stroke-width="1.5" d="M0,-3.0v7 M-2.5,-0.5L0,-3.0L2.5,-0.5"/>
                </g>
                <g id="arrowLeft" xlink:href="#dirArrow" transform="rotate(270) translate(-36 17)" onmousedown="handlePan(-1,0)">
                  <use xlink:href="#rim" fill="#404040">
                        <set attributeName="fill" to="#808080" begin="arrowLeft.mouseover" end="arrowLeft.mouseout"/>
                  </use>
                  <path fill="none" stroke="white" stroke-width="1.5" d="M0,-3.0v7 M-2.5,-0.5L0,-3.0L2.5,-0.5"/>
                </g>
        </g>
        <svg viewBox="0 0 15 15" width="100%" height="30px" preserveAspectRatio="xMaxYMin meet">
         <g id="arrow_out" transform="scale(0.3 0.3)">
          <a xlink:href="classraft_1_1kernel__coll__graph_org.svg" target="_base">
           <rect id="button" ry="5" rx="5" y="6" x="6" height="38" width="38"
                fill="#f2f5e9" fill-opacity="0.5" stroke="#606060" stroke-width="1.0"/>
           <path id="arrow"
             d="M 11.500037,31.436501 C 11.940474,20.09759 22.043105,11.32322 32.158766,21.979434 L 37.068811,17.246167 C 37.068811,17.246167 37.088388,32 37.088388,32 L 22.160133,31.978069 C 22.160133,31.978069 26.997745,27.140456 26.997745,27.140456 C 18.528582,18.264221 13.291696,25.230495 11.500037,31.436501 z"
             style="fill:#404040;"/>
          </a>
         </g>
        </svg>
</svg>
