<?xml version="1.0" encoding="UTF-8" standalone="no"?>
<!DOCTYPE svg PUBLIC "-//W3C//DTD SVG 1.1//EN"
 "http://www.w3.org/Graphics/SVG/1.1/DTD/svg11.dtd">
<!-- Generated by graphviz version 2.30.1 (20130404.1610)
 -->
<!-- Title: Allocate::initialize Pages: 1 -->
<svg width="212pt" height="67pt"
 viewBox="0.00 0.00 212.00 67.00" xmlns="http://www.w3.org/2000/svg" xmlns:xlink="http://www.w3.org/1999/xlink">
<g id="graph0" class="graph" transform="scale(1 1) rotate(0) translate(4 63)">
<title>Allocate::initialize</title>
<!-- Node1 -->
<g id="node1" class="node"><title>Node1</title>
<polygon fill="#bfbfbf" stroke="black" points="0.664,-19 0.664,-39 93.336,-39 93.336,-19 0.664,-19"/>
<text text-anchor="middle" x="47" y="-26" font-family="Helvetica,sans-Serif" font-size="10.00">Allocate::initialize</text>
</g>
<!-- Node2 -->
<g id="node2" class="node"><title>Node2</title>
<g id="a_node2"><a xlink:href="classdynalloc.html#a2a52b86ec09bd6dd52e49062137b2e37" target="_top" xlink:title="dynalloc::run">
<polygon fill="none" stroke="black" points="130.661,-39 130.661,-59 203.339,-59 203.339,-39 130.661,-39"/>
<text text-anchor="middle" x="167" y="-46" font-family="Helvetica,sans-Serif" font-size="10.00">dynalloc::run</text>
</a>
</g>
</g>
<!-- Node1&#45;&gt;Node2 -->
<g id="edge1" class="edge"><title>Node1&#45;&gt;Node2</title>
<path fill="none" stroke="midnightblue" d="M103.758,-38.4506C112.815,-39.9856 121.974,-41.538 130.379,-42.9625"/>
<polygon fill="midnightblue" stroke="midnightblue" points="104.066,-34.9529 93.6219,-36.7325 102.896,-41.8545 104.066,-34.9529"/>
</g>
<!-- Node3 -->
<g id="node3" class="node"><title>Node3</title>
<g id="a_node3"><a xlink:href="classstdalloc.html#a60438b15948ce354b52b03ba6d975de0" target="_top" xlink:title="stdalloc::run">
<polygon fill="none" stroke="black" points="132.05,-0 132.05,-20 201.95,-20 201.95,-0 132.05,-0"/>
<text text-anchor="middle" x="167" y="-7" font-family="Helvetica,sans-Serif" font-size="10.00">stdalloc::run</text>
</a>
</g>
</g>
<!-- Node1&#45;&gt;Node3 -->
<g id="edge2" class="edge"><title>Node1&#45;&gt;Node3</title>
<path fill="none" stroke="midnightblue" d="M103.584,-20.05C113.228,-18.4971 122.994,-16.9246 131.847,-15.4992"/>
<polygon fill="midnightblue" stroke="midnightblue" points="102.938,-16.6088 93.6219,-21.6541 104.051,-23.5198 102.938,-16.6088"/>
</g>
</g>
</svg>
