<?xml version="1.0" encoding="UTF-8" standalone="no"?>
<!DOCTYPE svg PUBLIC "-//W3C//DTD SVG 1.1//EN"
 "http://www.w3.org/Graphics/SVG/1.1/DTD/svg11.dtd">
<!-- Generated by graphviz version 2.30.1 (20130404.1610)
 -->
<!-- Title: print&lt; T &gt; Pages: 1 -->
<svg width="70pt" height="88pt"
 viewBox="0.00 0.00 70.00 88.00" xmlns="http://www.w3.org/2000/svg" xmlns:xlink="http://www.w3.org/1999/xlink">
<g id="graph0" class="graph" transform="scale(1 1) rotate(0) translate(4 84)">
<title>print&lt; T &gt;</title>
<!-- Node1 -->
<g id="node1" class="node"><title>Node1</title>
<polygon fill="#bfbfbf" stroke="black" points="1.605,-1 1.605,-21 60.395,-21 60.395,-1 1.605,-1"/>
<text text-anchor="middle" x="31" y="-8" font-family="Helvetica,sans-Serif" font-size="10.00">print&lt; T &gt;</text>
</g>
<!-- Node2 -->
<g id="node2" class="node"><title>Node2</title>
<g id="a_node2"><a xlink:href="classraft_1_1kernel.html" target="_top" xlink:title="raft::kernel">
<polygon fill="none" stroke="black" points="-0.6145,-59 -0.6145,-79 62.6145,-79 62.6145,-59 -0.6145,-59"/>
<text text-anchor="middle" x="31" y="-66" font-family="Helvetica,sans-Serif" font-size="10.00">raft::kernel</text>
</a>
</g>
</g>
<!-- Node2&#45;&gt;Node1 -->
<g id="edge1" class="edge"><title>Node2&#45;&gt;Node1</title>
<path fill="none" stroke="midnightblue" d="M24.5488,-48.7065C23.8859,-39.3384 24.326,-28.5262 25.869,-21.0752"/>
<polygon fill="midnightblue" stroke="midnightblue" points="21.0933,-49.2776 25.8337,-58.7527 28.0367,-48.3895 21.0933,-49.2776"/>
</g>
<!-- Node2&#45;&gt;Node1 -->
<g id="edge2" class="edge"><title>Node2&#45;&gt;Node1</title>
<path fill="none" stroke="midnightblue" d="M37.4512,-48.7065C38.1141,-39.3384 37.674,-28.5262 36.131,-21.0752"/>
<polygon fill="midnightblue" stroke="midnightblue" points="33.9633,-48.3895 36.1663,-58.7527 40.9067,-49.2776 33.9633,-48.3895"/>
</g>
</g>
</svg>
