<?xml version="1.0" encoding="UTF-8" standalone="no"?>
<!DOCTYPE svg PUBLIC "-//W3C//DTD SVG 1.1//EN"
 "http://www.w3.org/Graphics/SVG/1.1/DTD/svg11.dtd">
<!-- Generated by graphviz version 2.30.1 (20130404.1610)
 -->
<!-- Title: MapBase Pages: 1 -->
<svg width="1248pt" height="493pt"
 viewBox="0.00 0.00 1248.00 493.06" xmlns="http://www.w3.org/2000/svg" xmlns:xlink="http://www.w3.org/1999/xlink">
<g id="graph0" class="graph" transform="scale(1 1) rotate(0) translate(4 489.058)">
<title>MapBase</title>
<!-- Node1 -->
<g id="node1" class="node"><title>Node1</title>
<polygon fill="#bfbfbf" stroke="black" points="885.883,-424.058 885.883,-444.058 944.117,-444.058 944.117,-424.058 885.883,-424.058"/>
<text text-anchor="middle" x="915" y="-431.058" font-family="Helvetica,sans-Serif" font-size="10.00">MapBase</text>
</g>
<!-- Node2 -->
<g id="node2" class="node"><title>Node2</title>
<polygon fill="none" stroke="#bfbfbf" points="630.317,-416.058 630.317,-436.058 749.683,-436.058 749.683,-416.058 630.317,-416.058"/>
<text text-anchor="middle" x="690" y="-423.058" font-family="Helvetica,sans-Serif" font-size="10.00">std::set&lt; raft::kernel * &gt;</text>
</g>
<!-- Node2&#45;&gt;Node1 -->
<g id="edge1" class="edge"><title>Node2&#45;&gt;Node1</title>
<path fill="none" stroke="#9a32cd" stroke-dasharray="5,2" d="M759.889,-425.206C785.666,-425.231 815.189,-425.669 842,-427.058 856.423,-427.806 872.418,-429.294 885.661,-430.707"/>
<polygon fill="#9a32cd" stroke="#9a32cd" points="759.834,-421.706 749.838,-425.216 759.842,-428.706 759.834,-421.706"/>
<text text-anchor="middle" x="805" y="-442.058" font-family="Helvetica,sans-Serif" font-size="10.00"> source_kernels</text>
<text text-anchor="middle" x="805" y="-430.058" font-family="Helvetica,sans-Serif" font-size="10.00">all_kernels</text>
</g>
<!-- Node3 -->
<g id="node3" class="node"><title>Node3</title>
<g id="a_node3"><a xlink:href="classraft_1_1kernel.html" target="_top" xlink:title="raft::kernel">
<polygon fill="none" stroke="black" points="389.385,-353.058 389.385,-373.058 452.615,-373.058 452.615,-353.058 389.385,-353.058"/>
<text text-anchor="middle" x="421" y="-360.058" font-family="Helvetica,sans-Serif" font-size="10.00">raft::kernel</text>
</a>
</g>
</g>
<!-- Node3&#45;&gt;Node2 -->
<g id="edge2" class="edge"><title>Node3&#45;&gt;Node2</title>
<path fill="none" stroke="#9a32cd" stroke-dasharray="5,2" d="M459.458,-376.688C469.399,-380.344 480.118,-384.32 490,-388.058 498.029,-391.095 499.728,-392.767 508,-395.058 548.095,-406.166 594.346,-414.005 630.059,-419.021"/>
<polygon fill="#9a32cd" stroke="#9a32cd" points="460.428,-373.316 449.834,-373.159 458.018,-379.888 460.428,-373.316"/>
<text text-anchor="middle" x="560" y="-420.058" font-family="Helvetica,sans-Serif" font-size="10.00"> keys</text>
</g>
<!-- Node12 -->
<g id="node12" class="node"><title>Node12</title>
<g id="a_node12"><a xlink:href="struct_port_info.html" target="_top" xlink:title="PortInfo">
<polygon fill="none" stroke="black" points="664.494,-166.058 664.494,-186.058 715.506,-186.058 715.506,-166.058 664.494,-166.058"/>
<text text-anchor="middle" x="690" y="-173.058" font-family="Helvetica,sans-Serif" font-size="10.00">PortInfo</text>
</a>
</g>
</g>
<!-- Node3&#45;&gt;Node12 -->
<g id="edge25" class="edge"><title>Node3&#45;&gt;Node12</title>
<path fill="none" stroke="#9a32cd" stroke-dasharray="5,2" d="M462.161,-352.611C471.836,-348.965 481.751,-344.197 490,-338.058 500.696,-330.098 496.792,-321.281 508,-314.058 547.792,-288.414 572.909,-317.757 612,-291.058 651.683,-263.955 676.358,-209.01 685.255,-186.269"/>
<polygon fill="#9a32cd" stroke="#9a32cd" points="460.95,-349.326 452.635,-355.892 463.23,-355.944 460.95,-349.326"/>
<text text-anchor="middle" x="560" y="-329.058" font-family="Helvetica,sans-Serif" font-size="10.00"> my_kernel</text>
<text text-anchor="middle" x="560" y="-317.058" font-family="Helvetica,sans-Serif" font-size="10.00">other_kernel</text>
</g>
<!-- Node5 -->
<g id="node5" class="node"><title>Node5</title>
<g id="a_node5"><a xlink:href="class_port.html" target="_top" xlink:title="Port">
<polygon fill="none" stroke="black" points="1205.83,-303.058 1205.83,-323.058 1240.17,-323.058 1240.17,-303.058 1205.83,-303.058"/>
<text text-anchor="middle" x="1223" y="-310.058" font-family="Helvetica,sans-Serif" font-size="10.00">Port</text>
</a>
</g>
</g>
<!-- Node3&#45;&gt;Node5 -->
<g id="edge29" class="edge"><title>Node3&#45;&gt;Node5</title>
<path fill="none" stroke="#9a32cd" stroke-dasharray="5,2" d="M462.851,-362.396C577.542,-360.175 912.146,-351.209 1188,-319.058 1193.83,-318.378 1200.18,-317.34 1205.8,-316.316"/>
<polygon fill="#9a32cd" stroke="#9a32cd" points="462.693,-358.899 452.761,-362.585 462.824,-365.897 462.693,-358.899"/>
<text text-anchor="middle" x="915" y="-350.058" font-family="Helvetica,sans-Serif" font-size="10.00"> kernel</text>
</g>
<!-- Node4 -->
<g id="node4" class="node"><title>Node4</title>
<polygon fill="none" stroke="#bfbfbf" points="135.942,-353.058 135.942,-373.058 178.058,-373.058 178.058,-353.058 135.942,-353.058"/>
<text text-anchor="middle" x="157" y="-360.058" font-family="Helvetica,sans-Serif" font-size="10.00">size_t</text>
</g>
<!-- Node4&#45;&gt;Node3 -->
<g id="edge3" class="edge"><title>Node4&#45;&gt;Node3</title>
<path fill="none" stroke="#9a32cd" stroke-dasharray="5,2" d="M188.343,-363.058C238.592,-363.058 338.55,-363.058 389.139,-363.058"/>
<polygon fill="#9a32cd" stroke="#9a32cd" points="188.124,-359.558 178.124,-363.058 188.124,-366.558 188.124,-359.558"/>
<text text-anchor="middle" x="278" y="-366.058" font-family="Helvetica,sans-Serif" font-size="10.00"> kernel_count</text>
</g>
<!-- Node4&#45;&gt;Node5 -->
<g id="edge7" class="edge"><title>Node4&#45;&gt;Node5</title>
<path fill="none" stroke="#9a32cd" stroke-dasharray="5,2" d="M187.876,-370.832C198.61,-373.544 210.824,-376.538 222,-379.058 222.403,-379.149 688.586,-473.058 689,-473.058 689,-473.058 689,-473.058 1096,-473.058 1172.72,-473.058 1209.91,-358.095 1219.46,-323.067"/>
<polygon fill="#9a32cd" stroke="#9a32cd" points="188.675,-367.424 178.12,-368.342 186.944,-374.206 188.675,-367.424"/>
<text text-anchor="middle" x="805" y="-476.058" font-family="Helvetica,sans-Serif" font-size="10.00"> alloc_ptr_length</text>
</g>
<!-- Node4&#45;&gt;Node12 -->
<g id="edge24" class="edge"><title>Node4&#45;&gt;Node12</title>
<path fill="none" stroke="#9a32cd" stroke-dasharray="5,2" d="M188.178,-355.935C286.584,-332.648 592.942,-259.659 612,-249.058 641.62,-232.582 668.44,-202.078 681.183,-186.223"/>
<polygon fill="#9a32cd" stroke="#9a32cd" points="187.2,-352.57 178.274,-358.277 188.811,-359.382 187.2,-352.57"/>
<text text-anchor="middle" x="421" y="-332.058" font-family="Helvetica,sans-Serif" font-size="10.00"> nitems</text>
<text text-anchor="middle" x="421" y="-320.058" font-family="Helvetica,sans-Serif" font-size="10.00">start_index</text>
</g>
<!-- Node5&#45;&gt;Node3 -->
<g id="edge4" class="edge"><title>Node5&#45;&gt;Node3</title>
<path fill="none" stroke="#9a32cd" stroke-dasharray="5,2" d="M1207.17,-330.707C1201.62,-336.506 1194.96,-342.601 1188,-347.058 1151.29,-370.571 1139.59,-381.058 1096,-381.058 689,-381.058 689,-381.058 689,-381.058 603.282,-381.058 502.435,-371.709 452.789,-366.486"/>
<polygon fill="#9a32cd" stroke="#9a32cd" points="1209.88,-332.932 1213.98,-323.164 1204.68,-328.241 1209.88,-332.932"/>
<text text-anchor="middle" x="915" y="-396.058" font-family="Helvetica,sans-Serif" font-size="10.00"> output</text>
<text text-anchor="middle" x="915" y="-384.058" font-family="Helvetica,sans-Serif" font-size="10.00">input</text>
</g>
<!-- Node6 -->
<g id="node6" class="node"><title>Node6</title>
<g id="a_node6"><a xlink:href="class_port_base.html" target="_top" xlink:title="PortBase">
<polygon fill="none" stroke="black" points="1066.44,-284.058 1066.44,-304.058 1123.56,-304.058 1123.56,-284.058 1066.44,-284.058"/>
<text text-anchor="middle" x="1095" y="-291.058" font-family="Helvetica,sans-Serif" font-size="10.00">PortBase</text>
</a>
</g>
</g>
<!-- Node6&#45;&gt;Node5 -->
<g id="edge5" class="edge"><title>Node6&#45;&gt;Node5</title>
<path fill="none" stroke="midnightblue" d="M1133.84,-299.764C1157.77,-303.373 1187.5,-307.855 1205.59,-310.584"/>
<polygon fill="midnightblue" stroke="midnightblue" points="1134.06,-296.258 1123.65,-298.228 1133.02,-303.18 1134.06,-296.258"/>
</g>
<!-- Node7 -->
<g id="node7" class="node"><title>Node7</title>
<polygon fill="none" stroke="#bfbfbf" points="1062.55,-245.058 1062.55,-265.058 1127.45,-265.058 1127.45,-245.058 1062.55,-245.058"/>
<text text-anchor="middle" x="1095" y="-252.058" font-family="Helvetica,sans-Serif" font-size="10.00">void *const</text>
</g>
<!-- Node7&#45;&gt;Node5 -->
<g id="edge6" class="edge"><title>Node7&#45;&gt;Node5</title>
<path fill="none" stroke="#9a32cd" stroke-dasharray="5,2" d="M1137.58,-265.724C1153.83,-270.741 1172.3,-277.523 1188,-286.058 1196.48,-290.667 1204.98,-297.417 1211.36,-303.015"/>
<polygon fill="#9a32cd" stroke="#9a32cd" points="1138.37,-262.308 1127.79,-262.828 1136.38,-269.021 1138.37,-262.308"/>
<text text-anchor="middle" x="1167" y="-289.058" font-family="Helvetica,sans-Serif" font-size="10.00"> alloc_ptr</text>
</g>
<!-- Node8 -->
<g id="node8" class="node"><title>Node8</title>
<g id="a_node8"><a xlink:href="structportmap__t.html" target="_top" xlink:title="portmap_t">
<polygon fill="none" stroke="black" points="1064.49,-176.058 1064.49,-196.058 1125.51,-196.058 1125.51,-176.058 1064.49,-176.058"/>
<text text-anchor="middle" x="1095" y="-183.058" font-family="Helvetica,sans-Serif" font-size="10.00">portmap_t</text>
</a>
</g>
</g>
<!-- Node8&#45;&gt;Node5 -->
<g id="edge8" class="edge"><title>Node8&#45;&gt;Node5</title>
<path fill="none" stroke="#9a32cd" stroke-dasharray="5,2" d="M1123.19,-201.515C1142.89,-213.683 1169.26,-232.056 1188,-253.058 1201.71,-268.425 1212.34,-290.228 1217.85,-302.881"/>
<polygon fill="#9a32cd" stroke="#9a32cd" points="1124.76,-198.374 1114.38,-196.215 1121.15,-204.371 1124.76,-198.374"/>
<text text-anchor="middle" x="1167" y="-256.058" font-family="Helvetica,sans-Serif" font-size="10.00"> portmap</text>
</g>
<!-- Node9 -->
<g id="node9" class="node"><title>Node9</title>
<polygon fill="none" stroke="#bfbfbf" points="860.46,-60.0582 860.46,-92.0582 969.54,-92.0582 969.54,-60.0582 860.46,-60.0582"/>
<text text-anchor="start" x="868.46" y="-79.0582" font-family="Helvetica,sans-Serif" font-size="10.00">std::map&lt; std::string,</text>
<text text-anchor="middle" x="915" y="-67.0582" font-family="Helvetica,sans-Serif" font-size="10.00"> PortInfo &gt;</text>
</g>
<!-- Node9&#45;&gt;Node8 -->
<g id="edge9" class="edge"><title>Node9&#45;&gt;Node8</title>
<path fill="none" stroke="#9a32cd" stroke-dasharray="5,2" d="M951.044,-97.7146C989.38,-121.406 1049.17,-158.354 1077.74,-176.008"/>
<polygon fill="#9a32cd" stroke="#9a32cd" points="952.611,-94.5688 942.265,-92.2891 948.931,-100.523 952.611,-94.5688"/>
<text text-anchor="middle" x="1016" y="-157.058" font-family="Helvetica,sans-Serif" font-size="10.00"> map</text>
</g>
<!-- Node10 -->
<g id="node10" class="node"><title>Node10</title>
<g id="a_node10"><a xlink:title="STL class. ">
<polygon fill="none" stroke="#bfbfbf" points="391.329,-63.0582 391.329,-83.0582 450.671,-83.0582 450.671,-63.0582 391.329,-63.0582"/>
<text text-anchor="middle" x="421" y="-70.0582" font-family="Helvetica,sans-Serif" font-size="10.00">std::string</text>
</a>
</g>
</g>
<!-- Node10&#45;&gt;Node9 -->
<g id="edge10" class="edge"><title>Node10&#45;&gt;Node9</title>
<path fill="none" stroke="#9a32cd" stroke-dasharray="5,2" d="M460.967,-73.2958C548.373,-73.8288 760.219,-75.1205 860.139,-75.7298"/>
<polygon fill="#9a32cd" stroke="#9a32cd" points="460.961,-69.7958 450.94,-73.2347 460.918,-76.7957 460.961,-69.7958"/>
<text text-anchor="middle" x="690" y="-78.0582" font-family="Helvetica,sans-Serif" font-size="10.00"> keys</text>
</g>
<!-- Node10&#45;&gt;Node12 -->
<g id="edge21" class="edge"><title>Node10&#45;&gt;Node12</title>
<path fill="none" stroke="#9a32cd" stroke-dasharray="5,2" d="M461.047,-72.8891C500.928,-74.174 563.676,-80.3089 612,-104.058 642.387,-118.992 669.067,-149.943 681.529,-165.962"/>
<polygon fill="#9a32cd" stroke="#9a32cd" points="461.01,-69.3874 450.931,-72.6517 460.846,-76.3854 461.01,-69.3874"/>
<text text-anchor="middle" x="560" y="-119.058" font-family="Helvetica,sans-Serif" font-size="10.00"> my_name</text>
<text text-anchor="middle" x="560" y="-107.058" font-family="Helvetica,sans-Serif" font-size="10.00">other_name</text>
</g>
<!-- Node11 -->
<g id="node11" class="node"><title>Node11</title>
<g id="a_node11"><a xlink:title="STL class. ">
<polygon fill="none" stroke="#bfbfbf" points="109.962,-32.0582 109.962,-64.0582 204.038,-64.0582 204.038,-32.0582 109.962,-32.0582"/>
<text text-anchor="start" x="117.962" y="-51.0582" font-family="Helvetica,sans-Serif" font-size="10.00">std::basic_string&lt;</text>
<text text-anchor="middle" x="157" y="-39.0582" font-family="Helvetica,sans-Serif" font-size="10.00"> char &gt;</text>
</a>
</g>
</g>
<!-- Node11&#45;&gt;Node10 -->
<g id="edge11" class="edge"><title>Node11&#45;&gt;Node10</title>
<path fill="none" stroke="midnightblue" d="M214.411,-53.441C268.775,-58.6284 348.842,-66.2683 391.228,-70.3128"/>
<polygon fill="midnightblue" stroke="midnightblue" points="214.525,-49.936 204.237,-52.4702 213.86,-56.9043 214.525,-49.936"/>
</g>
<!-- Node12&#45;&gt;Node9 -->
<g id="edge12" class="edge"><title>Node12&#45;&gt;Node9</title>
<path fill="none" stroke="#9a32cd" stroke-dasharray="5,2" d="M722.88,-161.762C763.97,-143.336 835.219,-111.386 878.15,-92.1345"/>
<polygon fill="#9a32cd" stroke="#9a32cd" points="721.302,-158.634 713.61,-165.919 724.166,-165.021 721.302,-158.634"/>
<text text-anchor="middle" x="805" y="-144.058" font-family="Helvetica,sans-Serif" font-size="10.00"> elements</text>
</g>
<!-- Node13 -->
<g id="node13" class="node"><title>Node13</title>
<polygon fill="none" stroke="#bfbfbf" points="388.824,-24.0582 388.824,-44.0582 453.176,-44.0582 453.176,-24.0582 388.824,-24.0582"/>
<text text-anchor="middle" x="421" y="-31.0582" font-family="Helvetica,sans-Serif" font-size="10.00">type_index</text>
</g>
<!-- Node13&#45;&gt;Node12 -->
<g id="edge13" class="edge"><title>Node13&#45;&gt;Node12</title>
<path fill="none" stroke="#9a32cd" stroke-dasharray="5,2" d="M463.377,-30.6264C504.237,-29.2581 566.973,-32.7675 612,-61.0582 632.854,-74.1607 669.685,-140.023 683.533,-165.744"/>
<polygon fill="#9a32cd" stroke="#9a32cd" points="463.062,-27.1369 453.229,-31.0815 463.376,-34.1298 463.062,-27.1369"/>
<text text-anchor="middle" x="560" y="-64.0582" font-family="Helvetica,sans-Serif" font-size="10.00"> type</text>
</g>
<!-- Node14 -->
<g id="node14" class="node"><title>Node14</title>
<polygon fill="none" stroke="#bfbfbf" points="352.012,-103.058 352.012,-135.058 489.988,-135.058 489.988,-103.058 352.012,-103.058"/>
<text text-anchor="start" x="360.012" y="-122.058" font-family="Helvetica,sans-Serif" font-size="10.00">std::map&lt; Type::RingBuffer</text>
<text text-anchor="middle" x="421" y="-110.058" font-family="Helvetica,sans-Serif" font-size="10.00">Type, instr_map_t * &gt;</text>
</g>
<!-- Node14&#45;&gt;Node12 -->
<g id="edge14" class="edge"><title>Node14&#45;&gt;Node12</title>
<path fill="none" stroke="#9a32cd" stroke-dasharray="5,2" d="M500.169,-130.285C534.665,-135.842 575.568,-143.256 612,-152.058 629.694,-156.333 649.274,-162.455 664.261,-167.446"/>
<polygon fill="#9a32cd" stroke="#9a32cd" points="500.576,-126.805 490.151,-128.694 499.478,-133.719 500.576,-126.805"/>
<text text-anchor="middle" x="560" y="-155.058" font-family="Helvetica,sans-Serif" font-size="10.00"> const_map</text>
</g>
<!-- Node15 -->
<g id="node15" class="node"><title>Node15</title>
<g id="a_node15"><a xlink:title="STL class. ">
<polygon fill="none" stroke="#bfbfbf" points="112.043,-99.0582 112.043,-119.058 201.957,-119.058 201.957,-99.0582 112.043,-99.0582"/>
<text text-anchor="middle" x="157" y="-106.058" font-family="Helvetica,sans-Serif" font-size="10.00">std::map&lt; K, T &gt;</text>
</a>
</g>
</g>
<!-- Node15&#45;&gt;Node14 -->
<g id="edge15" class="edge"><title>Node15&#45;&gt;Node14</title>
<path fill="none" stroke="#9a32cd" stroke-dasharray="5,2" d="M212.372,-111.133C252.905,-112.681 308.53,-114.804 352.005,-116.463"/>
<polygon fill="#9a32cd" stroke="#9a32cd" points="212.275,-107.627 202.148,-110.743 212.008,-114.622 212.275,-107.627"/>
<text text-anchor="middle" x="278" y="-119.058" font-family="Helvetica,sans-Serif" font-size="10.00"> elements</text>
</g>
<!-- Node15&#45;&gt;Node14 -->
<g id="edge19" class="edge"><title>Node15&#45;&gt;Node14</title>
<path fill="none" stroke="orange" stroke-dasharray="5,2" d="M187.424,-94.92C198.063,-90.524 210.332,-86.2562 222,-84.0582 270.917,-74.8431 285.307,-73.7248 334,-84.0582 342.564,-85.8756 343.93,-88.6644 352,-92.0582 360.665,-95.7021 370.002,-99.4954 378.899,-103.047"/>
<polygon fill="orange" stroke="orange" points="185.953,-91.7431 178.175,-98.9375 188.741,-98.1635 185.953,-91.7431"/>
<text text-anchor="start" x="222.291" y="-99.0582" font-family="Helvetica,sans-Serif" font-size="10.00"> &lt; Type::RingBufferType,</text>
<text text-anchor="middle" x="278" y="-87.0582" font-family="Helvetica,sans-Serif" font-size="10.00"> instr_map_t * &gt;</text>
</g>
<!-- Node15&#45;&gt;Node9 -->
<g id="edge27" class="edge"><title>Node15&#45;&gt;Node9</title>
<path fill="none" stroke="orange" stroke-dasharray="5,2" d="M180.676,-93.3587C215.565,-70.305 285.378,-28.469 352,-14.0582 538.608,26.3062 766.07,-30.4535 864.589,-60.0543"/>
<polygon fill="orange" stroke="orange" points="178.539,-90.5773 172.186,-99.0561 182.44,-96.3897 178.539,-90.5773"/>
<text text-anchor="middle" x="560" y="-10.0582" font-family="Helvetica,sans-Serif" font-size="10.00"> &lt; std::string, PortInfo &gt;</text>
</g>
<!-- Node16 -->
<g id="node16" class="node"><title>Node16</title>
<polygon fill="none" stroke="#bfbfbf" points="0.5,-274.058 0.5,-294.058 29.5,-294.058 29.5,-274.058 0.5,-274.058"/>
<text text-anchor="middle" x="15" y="-281.058" font-family="Helvetica,sans-Serif" font-size="10.00">K</text>
</g>
<!-- Node16&#45;&gt;Node15 -->
<g id="edge16" class="edge"><title>Node16&#45;&gt;Node15</title>
<path fill="none" stroke="#9a32cd" stroke-dasharray="5,2" d="M25.8685,-265.05C41.2816,-236.49 73.1505,-181.74 110,-143.058 118.768,-133.855 130.268,-125.355 139.576,-119.155"/>
<polygon fill="#9a32cd" stroke="#9a32cd" points="22.7199,-263.517 21.1218,-273.99 28.9025,-266.799 22.7199,-263.517"/>
<text text-anchor="middle" x="70" y="-227.058" font-family="Helvetica,sans-Serif" font-size="10.00"> keys</text>
</g>
<!-- Node23 -->
<g id="node23" class="node"><title>Node23</title>
<g id="a_node23"><a xlink:title="STL class. ">
<polygon fill="none" stroke="#bfbfbf" points="241.93,-428.058 241.93,-448.058 314.07,-448.058 314.07,-428.058 241.93,-428.058"/>
<text text-anchor="middle" x="278" y="-435.058" font-family="Helvetica,sans-Serif" font-size="10.00">std::set&lt; K &gt;</text>
</a>
</g>
</g>
<!-- Node16&#45;&gt;Node23 -->
<g id="edge31" class="edge"><title>Node16&#45;&gt;Node23</title>
<path fill="none" stroke="#9a32cd" stroke-dasharray="5,2" d="M29.0883,-302.347C45.6225,-324.211 76.047,-360.54 110,-382.058 151.456,-408.332 206.573,-423.673 241.926,-431.462"/>
<polygon fill="#9a32cd" stroke="#9a32cd" points="31.8318,-300.17 23.0723,-294.21 26.2031,-304.332 31.8318,-300.17"/>
<text text-anchor="middle" x="70" y="-372.058" font-family="Helvetica,sans-Serif" font-size="10.00"> keys</text>
</g>
<!-- Node17 -->
<g id="node17" class="node"><title>Node17</title>
<polygon fill="none" stroke="#bfbfbf" points="0.5,-99.0582 0.5,-119.058 29.5,-119.058 29.5,-99.0582 0.5,-99.0582"/>
<text text-anchor="middle" x="15" y="-106.058" font-family="Helvetica,sans-Serif" font-size="10.00">T</text>
</g>
<!-- Node17&#45;&gt;Node15 -->
<g id="edge17" class="edge"><title>Node17&#45;&gt;Node15</title>
<path fill="none" stroke="#9a32cd" stroke-dasharray="5,2" d="M39.9163,-109.058C59.6521,-109.058 88.1832,-109.058 112.021,-109.058"/>
<polygon fill="#9a32cd" stroke="#9a32cd" points="39.6787,-105.558 29.6787,-109.058 39.6787,-112.558 39.6787,-105.558"/>
<text text-anchor="middle" x="70" y="-112.058" font-family="Helvetica,sans-Serif" font-size="10.00"> elements</text>
</g>
<!-- Node18 -->
<g id="node18" class="node"><title>Node18</title>
<polygon fill="none" stroke="#bfbfbf" points="114.272,-153.058 114.272,-173.058 199.728,-173.058 199.728,-153.058 114.272,-153.058"/>
<text text-anchor="middle" x="157" y="-160.058" font-family="Helvetica,sans-Serif" font-size="10.00">RingBufferType</text>
</g>
<!-- Node18&#45;&gt;Node14 -->
<g id="edge18" class="edge"><title>Node18&#45;&gt;Node14</title>
<path fill="none" stroke="#9a32cd" stroke-dasharray="5,2" d="M209.774,-154.363C250.437,-147.534 307.412,-137.966 351.793,-130.513"/>
<polygon fill="#9a32cd" stroke="#9a32cd" points="209.087,-150.93 199.804,-156.038 210.246,-157.833 209.087,-150.93"/>
<text text-anchor="middle" x="278" y="-155.058" font-family="Helvetica,sans-Serif" font-size="10.00"> keys</text>
</g>
<!-- Node19 -->
<g id="node19" class="node"><title>Node19</title>
<polygon fill="none" stroke="#bfbfbf" points="139.552,-223.058 139.552,-243.058 174.448,-243.058 174.448,-223.058 139.552,-223.058"/>
<text text-anchor="middle" x="157" y="-230.058" font-family="Helvetica,sans-Serif" font-size="10.00">bool</text>
</g>
<!-- Node19&#45;&gt;Node12 -->
<g id="edge20" class="edge"><title>Node19&#45;&gt;Node12</title>
<path fill="none" stroke="#9a32cd" stroke-dasharray="5,2" d="M184.475,-237.365C255.558,-247.911 455.777,-270.899 612,-224.058 637.651,-216.367 663.19,-197.724 677.454,-186.066"/>
<polygon fill="#9a32cd" stroke="#9a32cd" points="184.986,-233.902 174.572,-235.85 183.928,-240.822 184.986,-233.902"/>
<text text-anchor="middle" x="421" y="-268.058" font-family="Helvetica,sans-Serif" font-size="10.00"> use_my_allocator</text>
<text text-anchor="middle" x="421" y="-256.058" font-family="Helvetica,sans-Serif" font-size="10.00">out_of_order</text>
</g>
<!-- Node20 -->
<g id="node20" class="node"><title>Node20</title>
<g id="a_node20"><a xlink:href="class_f_i_f_o.html" target="_top" xlink:title="FIFO">
<polygon fill="none" stroke="black" points="401.612,-154.058 401.612,-174.058 440.388,-174.058 440.388,-154.058 401.612,-154.058"/>
<text text-anchor="middle" x="421" y="-161.058" font-family="Helvetica,sans-Serif" font-size="10.00">FIFO</text>
</a>
</g>
</g>
<!-- Node19&#45;&gt;Node20 -->
<g id="edge23" class="edge"><title>Node19&#45;&gt;Node20</title>
<path fill="none" stroke="#9a32cd" stroke-dasharray="5,2" d="M184.481,-226.084C237.48,-212.126 355.434,-181.062 401.273,-168.99"/>
<polygon fill="#9a32cd" stroke="#9a32cd" points="183.567,-222.706 174.788,-228.637 185.349,-229.475 183.567,-222.706"/>
<text text-anchor="middle" x="278" y="-218.058" font-family="Helvetica,sans-Serif" font-size="10.00"> valid</text>
</g>
<!-- Node20&#45;&gt;Node12 -->
<g id="edge22" class="edge"><title>Node20&#45;&gt;Node12</title>
<path fill="none" stroke="#9a32cd" stroke-dasharray="5,2" d="M450.797,-165.352C503.499,-167.721 614.601,-172.714 664.189,-174.943"/>
<polygon fill="#9a32cd" stroke="#9a32cd" points="450.922,-161.855 440.775,-164.902 450.608,-168.848 450.922,-161.855"/>
<text text-anchor="middle" x="560" y="-188.058" font-family="Helvetica,sans-Serif" font-size="10.00"> fifo_a</text>
<text text-anchor="middle" x="560" y="-176.058" font-family="Helvetica,sans-Serif" font-size="10.00">fifo_b</text>
</g>
<!-- Node21 -->
<g id="node21" class="node"><title>Node21</title>
<polygon fill="none" stroke="#bfbfbf" points="400.498,-193.058 400.498,-213.058 441.502,-213.058 441.502,-193.058 400.498,-193.058"/>
<text text-anchor="middle" x="421" y="-200.058" font-family="Helvetica,sans-Serif" font-size="10.00">void *</text>
</g>
<!-- Node21&#45;&gt;Node12 -->
<g id="edge26" class="edge"><title>Node21&#45;&gt;Node12</title>
<path fill="none" stroke="#9a32cd" stroke-dasharray="5,2" d="M451.846,-205.513C489.47,-207.975 555.999,-210.224 612,-201.058 630.032,-198.107 649.606,-191.706 664.507,-186.12"/>
<polygon fill="#9a32cd" stroke="#9a32cd" points="451.809,-202.002 441.587,-204.788 451.316,-208.984 451.809,-202.002"/>
<text text-anchor="middle" x="560" y="-211.058" font-family="Helvetica,sans-Serif" font-size="10.00"> existing_buffer</text>
</g>
<!-- Node22 -->
<g id="node22" class="node"><title>Node22</title>
<polygon fill="none" stroke="#bfbfbf" points="893.387,-176.058 893.387,-196.058 936.613,-196.058 936.613,-176.058 893.387,-176.058"/>
<text text-anchor="middle" x="915" y="-183.058" font-family="Helvetica,sans-Serif" font-size="10.00">mutex</text>
</g>
<!-- Node22&#45;&gt;Node8 -->
<g id="edge28" class="edge"><title>Node22&#45;&gt;Node8</title>
<path fill="none" stroke="#9a32cd" stroke-dasharray="5,2" d="M947.176,-186.058C980.14,-186.058 1031.76,-186.058 1064.2,-186.058"/>
<polygon fill="#9a32cd" stroke="#9a32cd" points="946.767,-182.558 936.767,-186.058 946.767,-189.558 946.767,-182.558"/>
<text text-anchor="middle" x="1016" y="-189.058" font-family="Helvetica,sans-Serif" font-size="10.00"> map_mutex</text>
</g>
<!-- Node23&#45;&gt;Node2 -->
<g id="edge30" class="edge"><title>Node23&#45;&gt;Node2</title>
<path fill="none" stroke="orange" stroke-dasharray="5,2" d="M324.7,-438.464C388.906,-438.786 509.45,-438.482 612,-433.058 617.898,-432.746 624.043,-432.335 630.176,-431.867"/>
<polygon fill="orange" stroke="orange" points="324.534,-434.964 314.514,-438.406 324.493,-441.963 324.534,-434.964"/>
<text text-anchor="middle" x="421" y="-441.058" font-family="Helvetica,sans-Serif" font-size="10.00"> &lt; raft::kernel * &gt;</text>
</g>
</g>
</svg>
