<?xml version="1.0" encoding="UTF-8" standalone="no"?>
<!DOCTYPE svg PUBLIC "-//W3C//DTD SVG 1.1//EN"
 "http://www.w3.org/Graphics/SVG/1.1/DTD/svg11.dtd">
<!-- Generated by graphviz version 2.30.1 (20130404.1610)
 -->
<!-- Title: sum&lt; A, B, C &gt; Pages: 1 -->
<svg width="90pt" height="88pt"
 viewBox="0.00 0.00 90.00 88.00" xmlns="http://www.w3.org/2000/svg" xmlns:xlink="http://www.w3.org/1999/xlink">
<g id="graph0" class="graph" transform="scale(1 1) rotate(0) translate(4 84)">
<title>sum&lt; A, B, C &gt;</title>
<!-- Node1 -->
<g id="node1" class="node"><title>Node1</title>
<polygon fill="#bfbfbf" stroke="black" points="-0.8985,-1 -0.8985,-21 82.8985,-21 82.8985,-1 -0.8985,-1"/>
<text text-anchor="middle" x="41" y="-8" font-family="Helvetica,sans-Serif" font-size="10.00">sum&lt; A, B, C &gt;</text>
</g>
<!-- Node2 -->
<g id="node2" class="node"><title>Node2</title>
<g id="a_node2"><a xlink:href="classraft_1_1kernel.html" target="_top" xlink:title="raft::kernel">
<polygon fill="none" stroke="black" points="9.3855,-59 9.3855,-79 72.6145,-79 72.6145,-59 9.3855,-59"/>
<text text-anchor="middle" x="41" y="-66" font-family="Helvetica,sans-Serif" font-size="10.00">raft::kernel</text>
</a>
</g>
</g>
<!-- Node2&#45;&gt;Node1 -->
<g id="edge1" class="edge"><title>Node2&#45;&gt;Node1</title>
<path fill="none" stroke="midnightblue" d="M34.5488,-48.7065C33.8859,-39.3384 34.326,-28.5262 35.869,-21.0752"/>
<polygon fill="midnightblue" stroke="midnightblue" points="31.0933,-49.2776 35.8337,-58.7527 38.0367,-48.3895 31.0933,-49.2776"/>
</g>
<!-- Node2&#45;&gt;Node1 -->
<g id="edge2" class="edge"><title>Node2&#45;&gt;Node1</title>
<path fill="none" stroke="midnightblue" d="M47.4512,-48.7065C48.1141,-39.3384 47.674,-28.5262 46.131,-21.0752"/>
<polygon fill="midnightblue" stroke="midnightblue" points="43.9633,-48.3895 46.1663,-58.7527 50.9067,-49.2776 43.9633,-48.3895"/>
</g>
</g>
</svg>
