<?xml version="1.0" encoding="UTF-8" standalone="no"?>
<!DOCTYPE svg PUBLIC "-//W3C//DTD SVG 1.1//EN"
 "http://www.w3.org/Graphics/SVG/1.1/DTD/svg11.dtd">
<!-- Generated by graphviz version 2.30.1 (20130404.1610)
 -->
<!-- Title: pool_schedule::start Pages: 1 -->
<svg width="380pt" height="92pt"
 viewBox="0.00 0.00 380.00 92.00" xmlns="http://www.w3.org/2000/svg" xmlns:xlink="http://www.w3.org/1999/xlink">
<g id="graph0" class="graph" transform="scale(1 1) rotate(0) translate(4 88)">
<title>pool_schedule::start</title>
<!-- Node1 -->
<g id="node1" class="node"><title>Node1</title>
<polygon fill="#bfbfbf" stroke="black" points="0.2635,-41 0.2635,-61 105.737,-61 105.737,-41 0.2635,-41"/>
<text text-anchor="middle" x="53" y="-48" font-family="Helvetica,sans-Serif" font-size="10.00">pool_schedule::start</text>
</g>
<!-- Node2 -->
<g id="node2" class="node"><title>Node2</title>
<g id="a_node2"><a xlink:href="class_partition.html#a60481d98fd1958b78250241e6e2a011f" target="_top" xlink:title="Partition::simple">
<polygon fill="none" stroke="black" points="148.443,-64 148.443,-84 235.557,-84 235.557,-64 148.443,-64"/>
<text text-anchor="middle" x="192" y="-71" font-family="Helvetica,sans-Serif" font-size="10.00">Partition::simple</text>
</a>
</g>
</g>
<!-- Node1&#45;&gt;Node2 -->
<g id="edge1" class="edge"><title>Node1&#45;&gt;Node2</title>
<path fill="none" stroke="midnightblue" d="M105.794,-59.6953C116.359,-61.4691 127.49,-63.3377 138.094,-65.1179"/>
<polygon fill="midnightblue" stroke="midnightblue" points="137.622,-68.5876 148.063,-66.7917 138.781,-61.6842 137.622,-68.5876"/>
</g>
<!-- Node3 -->
<g id="node3" class="node"><title>Node3</title>
<g id="a_node3"><a xlink:href="class_partition.html#aeb39bcc732a88f06288b38e1b1c29978" target="_top" xlink:title="Partition::utilization\l_weighted">
<polygon fill="none" stroke="black" points="142.05,-13 142.05,-45 241.95,-45 241.95,-13 142.05,-13"/>
<text text-anchor="start" x="150.05" y="-32" font-family="Helvetica,sans-Serif" font-size="10.00">Partition::utilization</text>
<text text-anchor="middle" x="192" y="-20" font-family="Helvetica,sans-Serif" font-size="10.00">_weighted</text>
</a>
</g>
</g>
<!-- Node1&#45;&gt;Node3 -->
<g id="edge2" class="edge"><title>Node1&#45;&gt;Node3</title>
<path fill="none" stroke="midnightblue" d="M105.794,-42.6827C114.29,-41.3184 123.151,-39.8954 131.81,-38.5049"/>
<polygon fill="midnightblue" stroke="midnightblue" points="132.53,-41.9343 141.848,-36.893 131.42,-35.0229 132.53,-41.9343"/>
</g>
<!-- Node4 -->
<g id="node4" class="node"><title>Node4</title>
<g id="a_node4"><a xlink:href="struct_port_info.html#a9045e2d4e4d53e6a876cd277060fecb0" target="_top" xlink:title="PortInfo::getFIFO">
<polygon fill="none" stroke="black" points="278.379,-39 278.379,-59 371.621,-59 371.621,-39 278.379,-39"/>
<text text-anchor="middle" x="325" y="-46" font-family="Helvetica,sans-Serif" font-size="10.00">PortInfo::getFIFO</text>
</a>
</g>
</g>
<!-- Node3&#45;&gt;Node4 -->
<g id="edge3" class="edge"><title>Node3&#45;&gt;Node4</title>
<path fill="none" stroke="midnightblue" d="M242.152,-36.5042C250.606,-37.7948 259.447,-39.1446 268.063,-40.4601"/>
<polygon fill="midnightblue" stroke="midnightblue" points="267.624,-43.9334 278.037,-41.9828 268.68,-37.0136 267.624,-43.9334"/>
</g>
<!-- Node5 -->
<g id="node5" class="node"><title>Node5</title>
<g id="a_node5"><a xlink:href="class_f_i_f_o.html#ae80b8555fc249168560c67cd0a13e574" target="_top" xlink:title="FIFO::size">
<polygon fill="none" stroke="black" points="293.944,-0 293.944,-20 356.056,-20 356.056,-0 293.944,-0"/>
<text text-anchor="middle" x="325" y="-7" font-family="Helvetica,sans-Serif" font-size="10.00">FIFO::size</text>
</a>
</g>
</g>
<!-- Node3&#45;&gt;Node5 -->
<g id="edge4" class="edge"><title>Node3&#45;&gt;Node5</title>
<path fill="none" stroke="midnightblue" d="M242.152,-21.871C255.787,-19.8936 270.43,-17.7696 283.509,-15.8728"/>
<polygon fill="midnightblue" stroke="midnightblue" points="284.219,-19.3065 293.613,-14.4073 283.214,-12.379 284.219,-19.3065"/>
</g>
</g>
</svg>
