<?xml version="1.0" encoding="UTF-8" standalone="no"?>
<!DOCTYPE svg PUBLIC "-//W3C//DTD SVG 1.1//EN"
 "http://www.w3.org/Graphics/SVG/1.1/DTD/svg11.dtd">
<!-- Generated by graphviz version 2.30.1 (20130404.1610)
 -->
<!-- Title: Allocate::setReady Pages: 1 -->
<svg width="218pt" height="67pt"
 viewBox="0.00 0.00 218.00 67.00" xmlns="http://www.w3.org/2000/svg" xmlns:xlink="http://www.w3.org/1999/xlink">
<g id="graph0" class="graph" transform="scale(1 1) rotate(0) translate(4 63)">
<title>Allocate::setReady</title>
<!-- Node1 -->
<g id="node1" class="node"><title>Node1</title>
<polygon fill="#bfbfbf" stroke="black" points="0.3225,-19 0.3225,-39 99.6775,-39 99.6775,-19 0.3225,-19"/>
<text text-anchor="middle" x="50" y="-26" font-family="Helvetica,sans-Serif" font-size="10.00">Allocate::setReady</text>
</g>
<!-- Node2 -->
<g id="node2" class="node"><title>Node2</title>
<g id="a_node2"><a xlink:href="classdynalloc.html#a2a52b86ec09bd6dd52e49062137b2e37" target="_top" xlink:title="dynalloc::run">
<polygon fill="none" stroke="black" points="136.661,-39 136.661,-59 209.339,-59 209.339,-39 136.661,-39"/>
<text text-anchor="middle" x="173" y="-46" font-family="Helvetica,sans-Serif" font-size="10.00">dynalloc::run</text>
</a>
</g>
</g>
<!-- Node1&#45;&gt;Node2 -->
<g id="edge1" class="edge"><title>Node1&#45;&gt;Node2</title>
<path fill="none" stroke="midnightblue" d="M109.979,-38.7485C118.99,-40.238 128.046,-41.7348 136.347,-43.1069"/>
<polygon fill="midnightblue" stroke="midnightblue" points="110.303,-35.2548 99.8666,-37.0771 109.162,-42.1611 110.303,-35.2548"/>
</g>
<!-- Node3 -->
<g id="node3" class="node"><title>Node3</title>
<g id="a_node3"><a xlink:href="classstdalloc.html#a60438b15948ce354b52b03ba6d975de0" target="_top" xlink:title="stdalloc::run">
<polygon fill="none" stroke="black" points="138.05,-0 138.05,-20 207.95,-20 207.95,-0 138.05,-0"/>
<text text-anchor="middle" x="173" y="-7" font-family="Helvetica,sans-Serif" font-size="10.00">stdalloc::run</text>
</a>
</g>
</g>
<!-- Node1&#45;&gt;Node3 -->
<g id="edge2" class="edge"><title>Node1&#45;&gt;Node3</title>
<path fill="none" stroke="midnightblue" d="M109.81,-19.7654C119.41,-18.2579 129.067,-16.7416 137.813,-15.3683"/>
<polygon fill="midnightblue" stroke="midnightblue" points="109.203,-16.3178 99.8666,-21.3267 110.288,-23.233 109.203,-16.3178"/>
</g>
</g>
</svg>
