<?xml version="1.0" encoding="UTF-8" standalone="no"?>
<!DOCTYPE svg PUBLIC "-//W3C//DTD SVG 1.1//EN"
 "http://www.w3.org/Graphics/SVG/1.1/DTD/svg11.dtd">
<!-- Generated by graphviz version 2.30.1 (20130404.1610)
 -->
<!-- Title: Allocate Pages: 1 -->
<svg width="1248pt" height="689pt"
 viewBox="0.00 0.00 1248.00 689.00" xmlns="http://www.w3.org/2000/svg" xmlns:xlink="http://www.w3.org/1999/xlink">
<g id="graph0" class="graph" transform="scale(1 1) rotate(0) translate(4 685)">
<title>Allocate</title>
<!-- Node1 -->
<g id="node1" class="node"><title>Node1</title>
<polygon fill="#bfbfbf" stroke="black" points="889.218,-440 889.218,-460 940.782,-460 940.782,-440 889.218,-440"/>
<text text-anchor="middle" x="915" y="-447" font-family="Helvetica,sans-Serif" font-size="10.00">Allocate</text>
</g>
<!-- Node2 -->
<g id="node2" class="node"><title>Node2</title>
<polygon fill="none" stroke="#bfbfbf" points="630.317,-500 630.317,-520 749.683,-520 749.683,-500 630.317,-500"/>
<text text-anchor="middle" x="690" y="-507" font-family="Helvetica,sans-Serif" font-size="10.00">std::set&lt; raft::kernel * &gt;</text>
</g>
<!-- Node2&#45;&gt;Node1 -->
<g id="edge1" class="edge"><title>Node2&#45;&gt;Node1</title>
<path fill="none" stroke="#9a32cd" stroke-dasharray="5,2" d="M738.086,-497.331C784.166,-484.933 852.585,-466.524 889.028,-456.719"/>
<polygon fill="#9a32cd" stroke="#9a32cd" points="737.072,-493.979 728.325,-499.957 738.891,-500.739 737.072,-493.979"/>
<text text-anchor="middle" x="805" y="-503" font-family="Helvetica,sans-Serif" font-size="10.00"> source_kernels</text>
<text text-anchor="middle" x="805" y="-491" font-family="Helvetica,sans-Serif" font-size="10.00">all_kernels</text>
</g>
<!-- Node3 -->
<g id="node3" class="node"><title>Node3</title>
<g id="a_node3"><a xlink:href="classraft_1_1kernel.html" target="_top" xlink:title="raft::kernel">
<polygon fill="none" stroke="black" points="389.385,-578 389.385,-598 452.615,-598 452.615,-578 389.385,-578"/>
<text text-anchor="middle" x="421" y="-585" font-family="Helvetica,sans-Serif" font-size="10.00">raft::kernel</text>
</a>
</g>
</g>
<!-- Node3&#45;&gt;Node2 -->
<g id="edge2" class="edge"><title>Node3&#45;&gt;Node2</title>
<path fill="none" stroke="#9a32cd" stroke-dasharray="5,2" d="M462.253,-576.241C514.609,-560.946 605.187,-534.485 654.53,-520.07"/>
<polygon fill="#9a32cd" stroke="#9a32cd" points="461.246,-572.889 452.628,-579.052 463.209,-579.608 461.246,-572.889"/>
<text text-anchor="middle" x="560" y="-565" font-family="Helvetica,sans-Serif" font-size="10.00"> keys</text>
</g>
<!-- Node12 -->
<g id="node12" class="node"><title>Node12</title>
<g id="a_node12"><a xlink:href="struct_port_info.html" target="_top" xlink:title="PortInfo">
<polygon fill="none" stroke="black" points="664.494,-218 664.494,-238 715.506,-238 715.506,-218 664.494,-218"/>
<text text-anchor="middle" x="690" y="-225" font-family="Helvetica,sans-Serif" font-size="10.00">PortInfo</text>
</a>
</g>
</g>
<!-- Node3&#45;&gt;Node12 -->
<g id="edge25" class="edge"><title>Node3&#45;&gt;Node12</title>
<path fill="none" stroke="#9a32cd" stroke-dasharray="5,2" d="M440.328,-570.652C455.726,-555.099 477.21,-530.946 490,-506 504.459,-477.798 484.771,-458.56 508,-437 542.439,-405.035 575.56,-447.663 612,-418 670.794,-370.14 685.056,-270.39 688.189,-238.23"/>
<polygon fill="#9a32cd" stroke="#9a32cd" points="437.577,-568.449 432.909,-577.96 442.489,-573.436 437.577,-568.449"/>
<text text-anchor="middle" x="560" y="-452" font-family="Helvetica,sans-Serif" font-size="10.00"> my_kernel</text>
<text text-anchor="middle" x="560" y="-440" font-family="Helvetica,sans-Serif" font-size="10.00">other_kernel</text>
</g>
<!-- Node5 -->
<g id="node5" class="node"><title>Node5</title>
<g id="a_node5"><a xlink:href="class_port.html" target="_top" xlink:title="Port">
<polygon fill="none" stroke="black" points="1205.83,-522 1205.83,-542 1240.17,-542 1240.17,-522 1205.83,-522"/>
<text text-anchor="middle" x="1223" y="-529" font-family="Helvetica,sans-Serif" font-size="10.00">Port</text>
</a>
</g>
</g>
<!-- Node3&#45;&gt;Node5 -->
<g id="edge29" class="edge"><title>Node3&#45;&gt;Node5</title>
<path fill="none" stroke="#9a32cd" stroke-dasharray="5,2" d="M462.988,-593.233C515.33,-599.453 608.742,-609 689,-609 689,-609 689,-609 1096,-609 1146.76,-609 1194.37,-562.938 1213.34,-542.066"/>
<polygon fill="#9a32cd" stroke="#9a32cd" points="463.121,-589.724 452.773,-591.999 462.281,-596.673 463.121,-589.724"/>
<text text-anchor="middle" x="915" y="-612" font-family="Helvetica,sans-Serif" font-size="10.00"> kernel</text>
</g>
<!-- Node4 -->
<g id="node4" class="node"><title>Node4</title>
<polygon fill="none" stroke="#bfbfbf" points="135.942,-539 135.942,-559 178.058,-559 178.058,-539 135.942,-539"/>
<text text-anchor="middle" x="157" y="-546" font-family="Helvetica,sans-Serif" font-size="10.00">size_t</text>
</g>
<!-- Node4&#45;&gt;Node3 -->
<g id="edge3" class="edge"><title>Node4&#45;&gt;Node3</title>
<path fill="none" stroke="#9a32cd" stroke-dasharray="5,2" d="M187.836,-556.108C198.566,-558.51 210.788,-561.07 222,-563 280.901,-573.14 350.325,-580.966 389.346,-584.992"/>
<polygon fill="#9a32cd" stroke="#9a32cd" points="188.615,-552.696 178.086,-553.879 187.055,-559.52 188.615,-552.696"/>
<text text-anchor="middle" x="278" y="-581" font-family="Helvetica,sans-Serif" font-size="10.00"> kernel_count</text>
</g>
<!-- Node4&#45;&gt;Node5 -->
<g id="edge7" class="edge"><title>Node4&#45;&gt;Node5</title>
<path fill="none" stroke="#9a32cd" stroke-dasharray="5,2" d="M188.593,-549C237.488,-549 336.27,-549 420,-549 420,-549 420,-549 1096,-549 1135.73,-549 1181.88,-540.595 1205.78,-535.605"/>
<polygon fill="#9a32cd" stroke="#9a32cd" points="188.383,-545.5 178.383,-549 188.383,-552.5 188.383,-545.5"/>
<text text-anchor="middle" x="805" y="-552" font-family="Helvetica,sans-Serif" font-size="10.00"> alloc_ptr_length</text>
</g>
<!-- Node4&#45;&gt;Node12 -->
<g id="edge24" class="edge"><title>Node4&#45;&gt;Node12</title>
<path fill="none" stroke="#9a32cd" stroke-dasharray="5,2" d="M183.714,-533.574C220.314,-511.968 289.894,-472.185 352,-444 419.359,-413.432 437.544,-408.528 508,-386 553.594,-371.421 573.879,-386.951 612,-358 654.407,-325.794 677.977,-262.921 685.918,-238.268"/>
<polygon fill="#9a32cd" stroke="#9a32cd" points="181.535,-530.797 174.72,-538.91 185.107,-536.817 181.535,-530.797"/>
<text text-anchor="middle" x="421" y="-459" font-family="Helvetica,sans-Serif" font-size="10.00"> nitems</text>
<text text-anchor="middle" x="421" y="-447" font-family="Helvetica,sans-Serif" font-size="10.00">start_index</text>
</g>
<!-- Node5&#45;&gt;Node3 -->
<g id="edge4" class="edge"><title>Node5&#45;&gt;Node3</title>
<path fill="none" stroke="#9a32cd" stroke-dasharray="5,2" d="M1219.39,-552.317C1215.74,-572.722 1207.25,-603.816 1188,-623 1157.12,-653.769 1139.59,-657 1096,-657 689,-657 689,-657 689,-657 607.149,-657 586.524,-646.099 508,-623 485.422,-616.358 460.625,-605.908 443.484,-598.154"/>
<polygon fill="#9a32cd" stroke="#9a32cd" points="1222.88,-552.641 1220.95,-542.223 1215.96,-551.569 1222.88,-552.641"/>
<text text-anchor="middle" x="915" y="-672" font-family="Helvetica,sans-Serif" font-size="10.00"> output</text>
<text text-anchor="middle" x="915" y="-660" font-family="Helvetica,sans-Serif" font-size="10.00">input</text>
</g>
<!-- Node6 -->
<g id="node6" class="node"><title>Node6</title>
<g id="a_node6"><a xlink:href="class_port_base.html" target="_top" xlink:title="PortBase">
<polygon fill="none" stroke="black" points="1066.44,-461 1066.44,-481 1123.56,-481 1123.56,-461 1066.44,-461"/>
<text text-anchor="middle" x="1095" y="-468" font-family="Helvetica,sans-Serif" font-size="10.00">PortBase</text>
</a>
</g>
</g>
<!-- Node6&#45;&gt;Node5 -->
<g id="edge5" class="edge"><title>Node6&#45;&gt;Node5</title>
<path fill="none" stroke="midnightblue" d="M1129.86,-485.006C1147.43,-492.545 1169.11,-502.274 1188,-512 1193.85,-515.01 1200.09,-518.574 1205.61,-521.855"/>
<polygon fill="midnightblue" stroke="midnightblue" points="1131.14,-481.747 1120.56,-481.057 1128.4,-488.189 1131.14,-481.747"/>
</g>
<!-- Node7 -->
<g id="node7" class="node"><title>Node7</title>
<polygon fill="none" stroke="#bfbfbf" points="1062.55,-422 1062.55,-442 1127.45,-442 1127.45,-422 1062.55,-422"/>
<text text-anchor="middle" x="1095" y="-429" font-family="Helvetica,sans-Serif" font-size="10.00">void *const</text>
</g>
<!-- Node7&#45;&gt;Node5 -->
<g id="edge6" class="edge"><title>Node7&#45;&gt;Node5</title>
<path fill="none" stroke="#9a32cd" stroke-dasharray="5,2" d="M1137.39,-445.791C1154.43,-452.907 1173.52,-462.89 1188,-476 1202.34,-488.975 1212.63,-509.412 1217.92,-521.68"/>
<polygon fill="#9a32cd" stroke="#9a32cd" points="1138.23,-442.361 1127.65,-441.931 1135.66,-448.869 1138.23,-442.361"/>
<text text-anchor="middle" x="1167" y="-479" font-family="Helvetica,sans-Serif" font-size="10.00"> alloc_ptr</text>
</g>
<!-- Node8 -->
<g id="node8" class="node"><title>Node8</title>
<g id="a_node8"><a xlink:href="structportmap__t.html" target="_top" xlink:title="portmap_t">
<polygon fill="none" stroke="black" points="1064.49,-500 1064.49,-520 1125.51,-520 1125.51,-500 1064.49,-500"/>
<text text-anchor="middle" x="1095" y="-507" font-family="Helvetica,sans-Serif" font-size="10.00">portmap_t</text>
</a>
</g>
</g>
<!-- Node8&#45;&gt;Node5 -->
<g id="edge8" class="edge"><title>Node8&#45;&gt;Node5</title>
<path fill="none" stroke="#9a32cd" stroke-dasharray="5,2" d="M1135.82,-514.58C1152.07,-516.721 1171.01,-519.563 1188,-523 1193.75,-524.162 1199.96,-525.718 1205.49,-527.21"/>
<polygon fill="#9a32cd" stroke="#9a32cd" points="1135.93,-511.066 1125.57,-513.275 1135.05,-518.01 1135.93,-511.066"/>
<text text-anchor="middle" x="1167" y="-526" font-family="Helvetica,sans-Serif" font-size="10.00"> portmap</text>
</g>
<!-- Node9 -->
<g id="node9" class="node"><title>Node9</title>
<polygon fill="none" stroke="#bfbfbf" points="860.46,-113 860.46,-145 969.54,-145 969.54,-113 860.46,-113"/>
<text text-anchor="start" x="868.46" y="-132" font-family="Helvetica,sans-Serif" font-size="10.00">std::map&lt; std::string,</text>
<text text-anchor="middle" x="915" y="-120" font-family="Helvetica,sans-Serif" font-size="10.00"> PortInfo &gt;</text>
</g>
<!-- Node9&#45;&gt;Node8 -->
<g id="edge9" class="edge"><title>Node9&#45;&gt;Node8</title>
<path fill="none" stroke="#9a32cd" stroke-dasharray="5,2" d="M920.792,-155.267C933.567,-219.083 973.666,-384.755 1062,-490 1065.2,-493.814 1069.32,-497.126 1073.53,-499.898"/>
<polygon fill="#9a32cd" stroke="#9a32cd" points="924.188,-154.395 918.845,-145.246 917.316,-155.73 924.188,-154.395"/>
<text text-anchor="middle" x="1016" y="-468" font-family="Helvetica,sans-Serif" font-size="10.00"> map</text>
</g>
<!-- Node10 -->
<g id="node10" class="node"><title>Node10</title>
<g id="a_node10"><a xlink:title="STL class. ">
<polygon fill="none" stroke="#bfbfbf" points="391.329,-6 391.329,-26 450.671,-26 450.671,-6 391.329,-6"/>
<text text-anchor="middle" x="421" y="-13" font-family="Helvetica,sans-Serif" font-size="10.00">std::string</text>
</a>
</g>
</g>
<!-- Node10&#45;&gt;Node9 -->
<g id="edge10" class="edge"><title>Node10&#45;&gt;Node9</title>
<path fill="none" stroke="#9a32cd" stroke-dasharray="5,2" d="M460.965,-11.8397C538.357,-5.37637 714.926,0.269526 842,-65 865.208,-76.9203 886.867,-98.0784 900.248,-112.789"/>
<polygon fill="#9a32cd" stroke="#9a32cd" points="460.37,-8.37875 450.719,-12.7499 460.989,-15.3513 460.37,-8.37875"/>
<text text-anchor="middle" x="690" y="-33" font-family="Helvetica,sans-Serif" font-size="10.00"> keys</text>
</g>
<!-- Node10&#45;&gt;Node12 -->
<g id="edge21" class="edge"><title>Node10&#45;&gt;Node12</title>
<path fill="none" stroke="#9a32cd" stroke-dasharray="5,2" d="M461.099,-14.8019C509.669,-14.0989 588.957,-15.7723 612,-33 674.384,-79.6399 686.277,-184.568 688.5,-217.742"/>
<polygon fill="#9a32cd" stroke="#9a32cd" points="460.872,-11.3054 450.939,-14.9898 461.002,-18.3042 460.872,-11.3054"/>
<text text-anchor="middle" x="560" y="-48" font-family="Helvetica,sans-Serif" font-size="10.00"> my_name</text>
<text text-anchor="middle" x="560" y="-36" font-family="Helvetica,sans-Serif" font-size="10.00">other_name</text>
</g>
<!-- Node11 -->
<g id="node11" class="node"><title>Node11</title>
<g id="a_node11"><a xlink:title="STL class. ">
<polygon fill="none" stroke="#bfbfbf" points="109.962,-0 109.962,-32 204.038,-32 204.038,-0 109.962,-0"/>
<text text-anchor="start" x="117.962" y="-19" font-family="Helvetica,sans-Serif" font-size="10.00">std::basic_string&lt;</text>
<text text-anchor="middle" x="157" y="-7" font-family="Helvetica,sans-Serif" font-size="10.00"> char &gt;</text>
</a>
</g>
</g>
<!-- Node11&#45;&gt;Node10 -->
<g id="edge11" class="edge"><title>Node11&#45;&gt;Node10</title>
<path fill="none" stroke="midnightblue" d="M214.411,-16C268.775,-16 348.842,-16 391.228,-16"/>
<polygon fill="midnightblue" stroke="midnightblue" points="214.237,-12.5001 204.237,-16 214.237,-19.5001 214.237,-12.5001"/>
</g>
<!-- Node12&#45;&gt;Node9 -->
<g id="edge12" class="edge"><title>Node12&#45;&gt;Node9</title>
<path fill="none" stroke="#9a32cd" stroke-dasharray="5,2" d="M722.852,-213.859C763.811,-195.676 834.769,-164.174 877.752,-145.092"/>
<polygon fill="#9a32cd" stroke="#9a32cd" points="721.329,-210.706 713.61,-217.963 724.17,-217.104 721.329,-210.706"/>
<text text-anchor="middle" x="805" y="-196" font-family="Helvetica,sans-Serif" font-size="10.00"> elements</text>
</g>
<!-- Node13 -->
<g id="node13" class="node"><title>Node13</title>
<polygon fill="none" stroke="#bfbfbf" points="388.824,-276 388.824,-296 453.176,-296 453.176,-276 388.824,-276"/>
<text text-anchor="middle" x="421" y="-283" font-family="Helvetica,sans-Serif" font-size="10.00">type_index</text>
</g>
<!-- Node13&#45;&gt;Node12 -->
<g id="edge13" class="edge"><title>Node13&#45;&gt;Node12</title>
<path fill="none" stroke="#9a32cd" stroke-dasharray="5,2" d="M463.285,-274.956C477.425,-271.302 493.367,-267.324 508,-264 563.613,-251.366 629.395,-238.897 664.319,-232.471"/>
<polygon fill="#9a32cd" stroke="#9a32cd" points="462.147,-271.636 453.353,-277.545 463.913,-278.409 462.147,-271.636"/>
<text text-anchor="middle" x="560" y="-267" font-family="Helvetica,sans-Serif" font-size="10.00"> type</text>
</g>
<!-- Node14 -->
<g id="node14" class="node"><title>Node14</title>
<polygon fill="none" stroke="#bfbfbf" points="352.012,-125 352.012,-157 489.988,-157 489.988,-125 352.012,-125"/>
<text text-anchor="start" x="360.012" y="-144" font-family="Helvetica,sans-Serif" font-size="10.00">std::map&lt; Type::RingBuffer</text>
<text text-anchor="middle" x="421" y="-132" font-family="Helvetica,sans-Serif" font-size="10.00">Type, instr_map_t * &gt;</text>
</g>
<!-- Node14&#45;&gt;Node12 -->
<g id="edge14" class="edge"><title>Node14&#45;&gt;Node12</title>
<path fill="none" stroke="#9a32cd" stroke-dasharray="5,2" d="M500.468,-143.023C535.706,-146.205 577.11,-153.185 612,-168 639.767,-179.79 666.147,-204.192 679.644,-217.968"/>
<polygon fill="#9a32cd" stroke="#9a32cd" points="500.477,-139.512 490.225,-142.187 499.908,-146.489 500.477,-139.512"/>
<text text-anchor="middle" x="560" y="-171" font-family="Helvetica,sans-Serif" font-size="10.00"> const_map</text>
</g>
<!-- Node15 -->
<g id="node15" class="node"><title>Node15</title>
<g id="a_node15"><a xlink:title="STL class. ">
<polygon fill="none" stroke="#bfbfbf" points="112.043,-124 112.043,-144 201.957,-144 201.957,-124 112.043,-124"/>
<text text-anchor="middle" x="157" y="-131" font-family="Helvetica,sans-Serif" font-size="10.00">std::map&lt; K, T &gt;</text>
</a>
</g>
</g>
<!-- Node15&#45;&gt;Node14 -->
<g id="edge15" class="edge"><title>Node15&#45;&gt;Node14</title>
<path fill="none" stroke="#9a32cd" stroke-dasharray="5,2" d="M212.118,-136.638C215.461,-136.77 218.776,-136.892 222,-137 265.125,-138.446 313.553,-139.436 351.72,-140.069"/>
<polygon fill="#9a32cd" stroke="#9a32cd" points="212.199,-133.139 202.062,-136.22 211.907,-140.133 212.199,-133.139"/>
<text text-anchor="middle" x="278" y="-143" font-family="Helvetica,sans-Serif" font-size="10.00"> elements</text>
</g>
<!-- Node15&#45;&gt;Node14 -->
<g id="edge19" class="edge"><title>Node15&#45;&gt;Node14</title>
<path fill="none" stroke="orange" stroke-dasharray="5,2" d="M187.424,-119.862C198.063,-115.466 210.332,-111.198 222,-109 270.917,-99.7849 285.01,-100.181 334,-109 351.403,-112.133 369.883,-118.565 385.234,-124.846"/>
<polygon fill="orange" stroke="orange" points="185.953,-116.685 178.175,-123.879 188.741,-123.105 185.953,-116.685"/>
<text text-anchor="start" x="222.291" y="-124" font-family="Helvetica,sans-Serif" font-size="10.00"> &lt; Type::RingBufferType,</text>
<text text-anchor="middle" x="278" y="-112" font-family="Helvetica,sans-Serif" font-size="10.00"> instr_map_t * &gt;</text>
</g>
<!-- Node15&#45;&gt;Node9 -->
<g id="edge27" class="edge"><title>Node15&#45;&gt;Node9</title>
<path fill="none" stroke="orange" stroke-dasharray="5,2" d="M180.548,-118.036C192.309,-110.68 207.284,-102.761 222,-99 270.228,-86.6742 284.239,-97.7139 334,-99 527.779,-104.008 757.611,-118.413 860.062,-125.277"/>
<polygon fill="orange" stroke="orange" points="178.316,-115.315 171.872,-123.724 182.154,-121.169 178.316,-115.315"/>
<text text-anchor="middle" x="560" y="-114" font-family="Helvetica,sans-Serif" font-size="10.00"> &lt; std::string, PortInfo &gt;</text>
</g>
<!-- Node16 -->
<g id="node16" class="node"><title>Node16</title>
<polygon fill="none" stroke="#bfbfbf" points="0.5,-310 0.5,-330 29.5,-330 29.5,-310 0.5,-310"/>
<text text-anchor="middle" x="15" y="-317" font-family="Helvetica,sans-Serif" font-size="10.00">K</text>
</g>
<!-- Node16&#45;&gt;Node15 -->
<g id="edge16" class="edge"><title>Node16&#45;&gt;Node15</title>
<path fill="none" stroke="#9a32cd" stroke-dasharray="5,2" d="M26.2185,-300.851C42.0843,-271.996 74.5314,-216.35 110,-175 119.89,-163.47 132.962,-152.116 142.642,-144.291"/>
<polygon fill="#9a32cd" stroke="#9a32cd" points="23.0159,-299.414 21.3203,-309.872 29.1677,-302.754 23.0159,-299.414"/>
<text text-anchor="middle" x="70" y="-265" font-family="Helvetica,sans-Serif" font-size="10.00"> keys</text>
</g>
<!-- Node23 -->
<g id="node23" class="node"><title>Node23</title>
<g id="a_node23"><a xlink:title="STL class. ">
<polygon fill="none" stroke="#bfbfbf" points="384.93,-477 384.93,-497 457.07,-497 457.07,-477 384.93,-477"/>
<text text-anchor="middle" x="421" y="-484" font-family="Helvetica,sans-Serif" font-size="10.00">std::set&lt; K &gt;</text>
</a>
</g>
</g>
<!-- Node16&#45;&gt;Node23 -->
<g id="edge31" class="edge"><title>Node16&#45;&gt;Node23</title>
<path fill="none" stroke="#9a32cd" stroke-dasharray="5,2" d="M38.2396,-335.526C74.9207,-360.477 151.116,-409.573 222,-438 276.889,-460.012 344.424,-474.157 384.748,-481.332"/>
<polygon fill="#9a32cd" stroke="#9a32cd" points="40.0183,-332.501 29.7925,-329.73 36.0579,-338.273 40.0183,-332.501"/>
<text text-anchor="middle" x="157" y="-432" font-family="Helvetica,sans-Serif" font-size="10.00"> keys</text>
</g>
<!-- Node17 -->
<g id="node17" class="node"><title>Node17</title>
<polygon fill="none" stroke="#bfbfbf" points="0.5,-124 0.5,-144 29.5,-144 29.5,-124 0.5,-124"/>
<text text-anchor="middle" x="15" y="-131" font-family="Helvetica,sans-Serif" font-size="10.00">T</text>
</g>
<!-- Node17&#45;&gt;Node15 -->
<g id="edge17" class="edge"><title>Node17&#45;&gt;Node15</title>
<path fill="none" stroke="#9a32cd" stroke-dasharray="5,2" d="M39.9163,-134C59.6521,-134 88.1832,-134 112.021,-134"/>
<polygon fill="#9a32cd" stroke="#9a32cd" points="39.6787,-130.5 29.6787,-134 39.6787,-137.5 39.6787,-130.5"/>
<text text-anchor="middle" x="70" y="-137" font-family="Helvetica,sans-Serif" font-size="10.00"> elements</text>
</g>
<!-- Node18 -->
<g id="node18" class="node"><title>Node18</title>
<polygon fill="none" stroke="#bfbfbf" points="114.272,-184 114.272,-204 199.728,-204 199.728,-184 114.272,-184"/>
<text text-anchor="middle" x="157" y="-191" font-family="Helvetica,sans-Serif" font-size="10.00">RingBufferType</text>
</g>
<!-- Node18&#45;&gt;Node14 -->
<g id="edge18" class="edge"><title>Node18&#45;&gt;Node14</title>
<path fill="none" stroke="#9a32cd" stroke-dasharray="5,2" d="M209.774,-183.527C250.437,-175.301 307.412,-163.775 351.793,-154.798"/>
<polygon fill="#9a32cd" stroke="#9a32cd" points="208.912,-180.13 199.804,-185.543 210.3,-186.991 208.912,-180.13"/>
<text text-anchor="middle" x="278" y="-182" font-family="Helvetica,sans-Serif" font-size="10.00"> keys</text>
</g>
<!-- Node19 -->
<g id="node19" class="node"><title>Node19</title>
<polygon fill="none" stroke="#bfbfbf" points="139.552,-315 139.552,-335 174.448,-335 174.448,-315 139.552,-315"/>
<text text-anchor="middle" x="157" y="-322" font-family="Helvetica,sans-Serif" font-size="10.00">bool</text>
</g>
<!-- Node19&#45;&gt;Node12 -->
<g id="edge20" class="edge"><title>Node19&#45;&gt;Node12</title>
<path fill="none" stroke="#9a32cd" stroke-dasharray="5,2" d="M176.991,-307.94C209.815,-279.734 280.536,-224.46 352,-204 465.061,-171.631 607.741,-204.687 664.292,-220.541"/>
<polygon fill="#9a32cd" stroke="#9a32cd" points="174.355,-305.595 169.125,-314.81 178.96,-310.868 174.355,-305.595"/>
<text text-anchor="middle" x="421" y="-219" font-family="Helvetica,sans-Serif" font-size="10.00"> use_my_allocator</text>
<text text-anchor="middle" x="421" y="-207" font-family="Helvetica,sans-Serif" font-size="10.00">out_of_order</text>
</g>
<!-- Node20 -->
<g id="node20" class="node"><title>Node20</title>
<g id="a_node20"><a xlink:href="class_f_i_f_o.html" target="_top" xlink:title="FIFO">
<polygon fill="none" stroke="black" points="401.612,-315 401.612,-335 440.388,-335 440.388,-315 401.612,-315"/>
<text text-anchor="middle" x="421" y="-322" font-family="Helvetica,sans-Serif" font-size="10.00">FIFO</text>
</a>
</g>
</g>
<!-- Node19&#45;&gt;Node20 -->
<g id="edge23" class="edge"><title>Node19&#45;&gt;Node20</title>
<path fill="none" stroke="#9a32cd" stroke-dasharray="5,2" d="M184.813,-325C237.972,-325 355.53,-325 401.273,-325"/>
<polygon fill="#9a32cd" stroke="#9a32cd" points="184.788,-321.5 174.788,-325 184.788,-328.5 184.788,-321.5"/>
<text text-anchor="middle" x="278" y="-328" font-family="Helvetica,sans-Serif" font-size="10.00"> valid</text>
</g>
<!-- Node19&#45;&gt;Node1 -->
<g id="edge32" class="edge"><title>Node19&#45;&gt;Node1</title>
<path fill="none" stroke="#9a32cd" stroke-dasharray="5,2" d="M183.44,-340.257C219.459,-360.879 288.071,-396.609 352,-410 412.031,-422.574 429.718,-421.309 490,-410 498.436,-408.417 499.564,-404.583 508,-403 553.43,-394.477 565.915,-399.435 612,-403 715.691,-411.02 837.632,-434.31 889.096,-444.787"/>
<polygon fill="#9a32cd" stroke="#9a32cd" points="184.996,-337.113 174.591,-335.117 181.48,-343.166 184.996,-337.113"/>
<text text-anchor="middle" x="560" y="-406" font-family="Helvetica,sans-Serif" font-size="10.00"> exit_alloc</text>
</g>
<!-- Node20&#45;&gt;Node12 -->
<g id="edge22" class="edge"><title>Node20&#45;&gt;Node12</title>
<path fill="none" stroke="#9a32cd" stroke-dasharray="5,2" d="M450.21,-316.947C462.468,-313.386 476.974,-309.085 490,-305 498.046,-302.477 499.872,-301.247 508,-299 553.628,-286.387 568.172,-293.89 612,-276 636.065,-266.177 661.096,-249.076 675.851,-238.16"/>
<polygon fill="#9a32cd" stroke="#9a32cd" points="449.161,-313.607 440.525,-319.745 451.104,-320.333 449.161,-313.607"/>
<text text-anchor="middle" x="560" y="-314" font-family="Helvetica,sans-Serif" font-size="10.00"> fifo_a</text>
<text text-anchor="middle" x="560" y="-302" font-family="Helvetica,sans-Serif" font-size="10.00">fifo_b</text>
</g>
<!-- Node24 -->
<g id="node24" class="node"><title>Node24</title>
<polygon fill="none" stroke="#bfbfbf" points="642.543,-440 642.543,-460 737.457,-460 737.457,-440 642.543,-440"/>
<text text-anchor="middle" x="690" y="-447" font-family="Helvetica,sans-Serif" font-size="10.00">std::set&lt; FIFO * &gt;</text>
</g>
<!-- Node20&#45;&gt;Node24 -->
<g id="edge34" class="edge"><title>Node20&#45;&gt;Node24</title>
<path fill="none" stroke="#9a32cd" stroke-dasharray="5,2" d="M450.588,-326.979C489.427,-330.727 559.978,-341.361 612,-371 643.119,-388.73 669.861,-422.711 682.016,-439.74"/>
<polygon fill="#9a32cd" stroke="#9a32cd" points="450.784,-323.483 440.517,-326.095 450.172,-330.456 450.784,-323.483"/>
<text text-anchor="middle" x="560" y="-374" font-family="Helvetica,sans-Serif" font-size="10.00"> keys</text>
</g>
<!-- Node21 -->
<g id="node21" class="node"><title>Node21</title>
<polygon fill="none" stroke="#bfbfbf" points="400.498,-237 400.498,-257 441.502,-257 441.502,-237 400.498,-237"/>
<text text-anchor="middle" x="421" y="-244" font-family="Helvetica,sans-Serif" font-size="10.00">void *</text>
</g>
<!-- Node21&#45;&gt;Node12 -->
<g id="edge26" class="edge"><title>Node21&#45;&gt;Node12</title>
<path fill="none" stroke="#9a32cd" stroke-dasharray="5,2" d="M451.74,-239.238C468.196,-235.333 489.087,-231.011 508,-229 563.621,-223.086 629.4,-224.913 664.321,-226.575"/>
<polygon fill="#9a32cd" stroke="#9a32cd" points="450.512,-235.935 441.632,-241.715 452.178,-242.734 450.512,-235.935"/>
<text text-anchor="middle" x="560" y="-232" font-family="Helvetica,sans-Serif" font-size="10.00"> existing_buffer</text>
</g>
<!-- Node22 -->
<g id="node22" class="node"><title>Node22</title>
<polygon fill="none" stroke="#bfbfbf" points="893.387,-500 893.387,-520 936.613,-520 936.613,-500 893.387,-500"/>
<text text-anchor="middle" x="915" y="-507" font-family="Helvetica,sans-Serif" font-size="10.00">mutex</text>
</g>
<!-- Node22&#45;&gt;Node8 -->
<g id="edge28" class="edge"><title>Node22&#45;&gt;Node8</title>
<path fill="none" stroke="#9a32cd" stroke-dasharray="5,2" d="M947.176,-510C980.14,-510 1031.76,-510 1064.2,-510"/>
<polygon fill="#9a32cd" stroke="#9a32cd" points="946.767,-506.5 936.767,-510 946.767,-513.5 946.767,-506.5"/>
<text text-anchor="middle" x="1016" y="-513" font-family="Helvetica,sans-Serif" font-size="10.00"> map_mutex</text>
</g>
<!-- Node23&#45;&gt;Node2 -->
<g id="edge30" class="edge"><title>Node23&#45;&gt;Node2</title>
<path fill="none" stroke="orange" stroke-dasharray="5,2" d="M467.607,-494.717C480.623,-496.696 494.844,-498.645 508,-500 548.698,-504.191 594.737,-506.704 630.198,-508.163"/>
<polygon fill="orange" stroke="orange" points="467.889,-491.219 457.469,-493.135 466.81,-498.135 467.889,-491.219"/>
<text text-anchor="middle" x="560" y="-510" font-family="Helvetica,sans-Serif" font-size="10.00"> &lt; raft::kernel * &gt;</text>
</g>
<!-- Node23&#45;&gt;Node24 -->
<g id="edge35" class="edge"><title>Node23&#45;&gt;Node24</title>
<path fill="none" stroke="orange" stroke-dasharray="5,2" d="M467.505,-482.726C506.078,-478.866 562.809,-472.628 612,-465 621.825,-463.477 632.307,-461.602 642.274,-459.701"/>
<polygon fill="orange" stroke="orange" points="466.735,-479.285 457.128,-483.751 467.423,-486.251 466.735,-479.285"/>
<text text-anchor="middle" x="560" y="-481" font-family="Helvetica,sans-Serif" font-size="10.00"> &lt; FIFO * &gt;</text>
</g>
<!-- Node24&#45;&gt;Node1 -->
<g id="edge33" class="edge"><title>Node24&#45;&gt;Node1</title>
<path fill="none" stroke="#9a32cd" stroke-dasharray="5,2" d="M747.515,-450C793.08,-450 854.987,-450 889.019,-450"/>
<polygon fill="#9a32cd" stroke="#9a32cd" points="747.477,-446.5 737.477,-450 747.477,-453.5 747.477,-446.5"/>
<text text-anchor="middle" x="805" y="-453" font-family="Helvetica,sans-Serif" font-size="10.00"> allocated_fifo</text>
</g>
</g>
</svg>
