<?xml version="1.0" encoding="UTF-8" standalone="no"?>
<!DOCTYPE svg PUBLIC "-//W3C//DTD SVG 1.1//EN"
 "http://www.w3.org/Graphics/SVG/1.1/DTD/svg11.dtd">
<!-- Generated by graphviz version 2.30.1 (20130404.1610)
 -->
<!-- Title: Schedule::kernelRun Pages: 1 -->
<svg width="306pt" height="118pt"
 viewBox="0.00 0.00 306.00 118.00" xmlns="http://www.w3.org/2000/svg" xmlns:xlink="http://www.w3.org/1999/xlink">
<g id="graph0" class="graph" transform="scale(1 1) rotate(0) translate(4 114)">
<title>Schedule::kernelRun</title>
<!-- Node1 -->
<g id="node1" class="node"><title>Node1</title>
<polygon fill="#bfbfbf" stroke="black" points="0.5985,-51 0.5985,-71 109.401,-71 109.401,-51 0.5985,-51"/>
<text text-anchor="middle" x="55" y="-58" font-family="Helvetica,sans-Serif" font-size="10.00">Schedule::kernelRun</text>
</g>
<!-- Node2 -->
<g id="node2" class="node"><title>Node2</title>
<g id="a_node2"><a xlink:href="class_schedule.html#ac23de3dd63554401fd0d8d23b60eecfa" target="_top" xlink:title="Schedule::kernelHasInputData">
<polygon fill="none" stroke="black" points="146.203,-90 146.203,-110 297.798,-110 297.798,-90 146.203,-90"/>
<text text-anchor="middle" x="222" y="-97" font-family="Helvetica,sans-Serif" font-size="10.00">Schedule::kernelHasInputData</text>
</a>
</g>
</g>
<!-- Node1&#45;&gt;Node2 -->
<g id="edge1" class="edge"><title>Node1&#45;&gt;Node2</title>
<path fill="none" stroke="midnightblue" d="M98.4916,-71.0435C119.951,-76.1157 146.176,-82.3143 168.848,-87.6731"/>
<polygon fill="midnightblue" stroke="midnightblue" points="168.115,-91.0964 178.652,-89.9906 169.726,-84.2841 168.115,-91.0964"/>
</g>
<!-- Node3 -->
<g id="node3" class="node"><title>Node3</title>
<g id="a_node3"><a xlink:href="classraft_1_1kernel.html#a05094286d7577360fb1b91c91fc05901" target="_top" xlink:title="raft::kernel::run">
<polygon fill="none" stroke="black" points="180.383,-51 180.383,-71 263.617,-71 263.617,-51 180.383,-51"/>
<text text-anchor="middle" x="222" y="-58" font-family="Helvetica,sans-Serif" font-size="10.00">raft::kernel::run</text>
</a>
</g>
</g>
<!-- Node1&#45;&gt;Node3 -->
<g id="edge2" class="edge"><title>Node1&#45;&gt;Node3</title>
<path fill="none" stroke="midnightblue" d="M109.571,-61C129.033,-61 150.955,-61 170.173,-61"/>
<polygon fill="midnightblue" stroke="midnightblue" points="170.243,-64.5001 180.243,-61 170.243,-57.5001 170.243,-64.5001"/>
</g>
<!-- Node4 -->
<g id="node4" class="node"><title>Node4</title>
<g id="a_node4"><a xlink:href="class_schedule.html#a2e2035e0c0666054f8401ad2b3792854" target="_top" xlink:title="Schedule::kernelHasNoInput\lPorts">
<polygon fill="none" stroke="black" points="150.372,-0 150.372,-32 293.628,-32 293.628,-0 150.372,-0"/>
<text text-anchor="start" x="158.372" y="-19" font-family="Helvetica,sans-Serif" font-size="10.00">Schedule::kernelHasNoInput</text>
<text text-anchor="middle" x="222" y="-7" font-family="Helvetica,sans-Serif" font-size="10.00">Ports</text>
</a>
</g>
</g>
<!-- Node1&#45;&gt;Node4 -->
<g id="edge3" class="edge"><title>Node1&#45;&gt;Node4</title>
<path fill="none" stroke="midnightblue" d="M93.0292,-50.9011C110.503,-46.1355 131.935,-40.2906 152.226,-34.7565"/>
<polygon fill="midnightblue" stroke="midnightblue" points="153.347,-38.0787 162.074,-32.0708 151.505,-31.3254 153.347,-38.0787"/>
</g>
</g>
</svg>
