<?xml version="1.0" encoding="UTF-8" standalone="no"?>
<!DOCTYPE svg PUBLIC "-//W3C//DTD SVG 1.1//EN"
 "http://www.w3.org/Graphics/SVG/1.1/DTD/svg11.dtd">
<!-- Generated by graphviz version 2.30.1 (20130404.1610)
 -->
<!-- Title: PortTemplate Pages: 1 -->
<svg width="1306pt" height="483pt"
 viewBox="0.00 0.00 1306.00 483.15" xmlns="http://www.w3.org/2000/svg" xmlns:xlink="http://www.w3.org/1999/xlink">
<g id="graph0" class="graph" transform="scale(1 1) rotate(0) translate(4 479.149)">
<title>PortTemplate</title>
<!-- Node1 -->
<g id="node1" class="node"><title>Node1</title>
<polygon fill="#bfbfbf" stroke="black" points="977.996,-108.149 977.996,-128.149 1054,-128.149 1054,-108.149 977.996,-108.149"/>
<text text-anchor="middle" x="1016" y="-115.149" font-family="Helvetica,sans-Serif" font-size="10.00">PortTemplate</text>
</g>
<!-- Node2 -->
<g id="node2" class="node"><title>Node2</title>
<polygon fill="none" stroke="#bfbfbf" points="772.46,-48.1486 772.46,-80.1486 881.54,-80.1486 881.54,-48.1486 772.46,-48.1486"/>
<text text-anchor="start" x="780.46" y="-67.1486" font-family="Helvetica,sans-Serif" font-size="10.00">std::map&lt; std::string,</text>
<text text-anchor="middle" x="827" y="-55.1486" font-family="Helvetica,sans-Serif" font-size="10.00"> PortInfo &amp; &gt;</text>
</g>
<!-- Node2&#45;&gt;Node1 -->
<g id="edge1" class="edge"><title>Node2&#45;&gt;Node1</title>
<path fill="none" stroke="#9a32cd" stroke-dasharray="5,2" d="M891.468,-82.4763C921.176,-91.0551 955.41,-100.941 980.294,-108.127"/>
<polygon fill="#9a32cd" stroke="#9a32cd" points="892.165,-79.0346 881.587,-79.6228 890.223,-85.7598 892.165,-79.0346"/>
<text text-anchor="middle" x="930" y="-106.149" font-family="Helvetica,sans-Serif" font-size="10.00"> map</text>
</g>
<!-- Node3 -->
<g id="node3" class="node"><title>Node3</title>
<g id="a_node3"><a xlink:title="STL class. ">
<polygon fill="none" stroke="#bfbfbf" points="391.329,-12.1486 391.329,-32.1486 450.671,-32.1486 450.671,-12.1486 391.329,-12.1486"/>
<text text-anchor="middle" x="421" y="-19.1486" font-family="Helvetica,sans-Serif" font-size="10.00">std::string</text>
</a>
</g>
</g>
<!-- Node3&#45;&gt;Node2 -->
<g id="edge2" class="edge"><title>Node3&#45;&gt;Node2</title>
<path fill="none" stroke="#9a32cd" stroke-dasharray="5,2" d="M460.685,-13.923C524.222,-2.21477 653.636,13.9903 754,-23.1486 770.998,-29.4386 788.706,-39.4691 802.306,-48.0342"/>
<polygon fill="#9a32cd" stroke="#9a32cd" points="459.87,-10.5153 450.703,-15.8266 461.182,-17.3914 459.87,-10.5153"/>
<text text-anchor="middle" x="666" y="-10.1486" font-family="Helvetica,sans-Serif" font-size="10.00"> keys</text>
</g>
<!-- Node5 -->
<g id="node5" class="node"><title>Node5</title>
<g id="a_node5"><a xlink:href="struct_port_info.html" target="_top" xlink:title="PortInfo">
<polygon fill="none" stroke="black" points="640.494,-220.149 640.494,-240.149 691.506,-240.149 691.506,-220.149 640.494,-220.149"/>
<text text-anchor="middle" x="666" y="-227.149" font-family="Helvetica,sans-Serif" font-size="10.00">PortInfo</text>
</a>
</g>
</g>
<!-- Node3&#45;&gt;Node5 -->
<g id="edge13" class="edge"><title>Node3&#45;&gt;Node5</title>
<path fill="none" stroke="#9a32cd" stroke-dasharray="5,2" d="M460.85,-27.6404C517.344,-35.785 616.124,-50.6911 622,-56.1486 634.369,-67.6363 656.665,-184.671 663.171,-220.064"/>
<polygon fill="#9a32cd" stroke="#9a32cd" points="461.222,-24.1579 450.826,-26.2021 460.227,-31.0869 461.222,-24.1579"/>
<text text-anchor="middle" x="565" y="-71.1486" font-family="Helvetica,sans-Serif" font-size="10.00"> my_name</text>
<text text-anchor="middle" x="565" y="-59.1486" font-family="Helvetica,sans-Serif" font-size="10.00">other_name</text>
</g>
<!-- Node20 -->
<g id="node20" class="node"><title>Node20</title>
<polygon fill="none" stroke="#bfbfbf" points="772.46,-127.149 772.46,-159.149 881.54,-159.149 881.54,-127.149 772.46,-127.149"/>
<text text-anchor="start" x="780.46" y="-146.149" font-family="Helvetica,sans-Serif" font-size="10.00">std::map&lt; std::string,</text>
<text text-anchor="middle" x="827" y="-134.149" font-family="Helvetica,sans-Serif" font-size="10.00"> PortInfo &gt;</text>
</g>
<!-- Node3&#45;&gt;Node20 -->
<g id="edge25" class="edge"><title>Node3&#45;&gt;Node20</title>
<path fill="none" stroke="#9a32cd" stroke-dasharray="5,2" d="M460.875,-20.206C501.776,-19.2321 567.631,-20.7219 622,-36.1486 692.6,-56.1806 766.803,-102.471 803.17,-127.084"/>
<polygon fill="#9a32cd" stroke="#9a32cd" points="460.675,-16.7103 450.785,-20.5087 460.885,-23.7071 460.675,-16.7103"/>
<text text-anchor="middle" x="666" y="-66.1486" font-family="Helvetica,sans-Serif" font-size="10.00"> keys</text>
</g>
<!-- Node4 -->
<g id="node4" class="node"><title>Node4</title>
<g id="a_node4"><a xlink:title="STL class. ">
<polygon fill="none" stroke="#bfbfbf" points="109.962,-6.14858 109.962,-38.1486 204.038,-38.1486 204.038,-6.14858 109.962,-6.14858"/>
<text text-anchor="start" x="117.962" y="-25.1486" font-family="Helvetica,sans-Serif" font-size="10.00">std::basic_string&lt;</text>
<text text-anchor="middle" x="157" y="-13.1486" font-family="Helvetica,sans-Serif" font-size="10.00"> char &gt;</text>
</a>
</g>
</g>
<!-- Node4&#45;&gt;Node3 -->
<g id="edge3" class="edge"><title>Node4&#45;&gt;Node3</title>
<path fill="none" stroke="midnightblue" d="M214.411,-22.1486C268.775,-22.1486 348.842,-22.1486 391.228,-22.1486"/>
<polygon fill="midnightblue" stroke="midnightblue" points="214.237,-18.6487 204.237,-22.1486 214.237,-25.6487 214.237,-18.6487"/>
</g>
<!-- Node5&#45;&gt;Node2 -->
<g id="edge4" class="edge"><title>Node5&#45;&gt;Node2</title>
<path fill="none" stroke="#9a32cd" stroke-dasharray="5,2" d="M677.142,-211.215C685.111,-197.202 697.006,-178.041 710,-163.149 738.722,-130.232 778.608,-98.6203 803.336,-80.3056"/>
<polygon fill="#9a32cd" stroke="#9a32cd" points="674.072,-209.535 672.288,-219.979 680.195,-212.928 674.072,-209.535"/>
<text text-anchor="middle" x="732" y="-166.149" font-family="Helvetica,sans-Serif" font-size="10.00"> elements</text>
</g>
<!-- Node5&#45;&gt;Node20 -->
<g id="edge26" class="edge"><title>Node5&#45;&gt;Node20</title>
<path fill="none" stroke="#9a32cd" stroke-dasharray="5,2" d="M693.435,-214.776C698.911,-211.593 704.643,-208.261 710,-205.149 737.551,-189.141 743.846,-184.071 772,-169.149 778.252,-165.835 784.992,-162.447 791.521,-159.259"/>
<polygon fill="#9a32cd" stroke="#9a32cd" points="691.458,-211.877 684.572,-219.929 694.977,-217.928 691.458,-211.877"/>
<text text-anchor="middle" x="732" y="-208.149" font-family="Helvetica,sans-Serif" font-size="10.00"> elements</text>
</g>
<!-- Node6 -->
<g id="node6" class="node"><title>Node6</title>
<polygon fill="none" stroke="#bfbfbf" points="388.824,-359.149 388.824,-379.149 453.176,-379.149 453.176,-359.149 388.824,-359.149"/>
<text text-anchor="middle" x="421" y="-366.149" font-family="Helvetica,sans-Serif" font-size="10.00">type_index</text>
</g>
<!-- Node6&#45;&gt;Node5 -->
<g id="edge5" class="edge"><title>Node6&#45;&gt;Node5</title>
<path fill="none" stroke="#9a32cd" stroke-dasharray="5,2" d="M463.362,-359.849C477.507,-356.712 493.434,-353.227 508,-350.149 558.571,-339.462 581.689,-359.501 622,-327.149 650.014,-304.665 660.3,-260.153 663.611,-240.217"/>
<polygon fill="#9a32cd" stroke="#9a32cd" points="462.423,-356.473 453.422,-362.061 463.943,-363.305 462.423,-356.473"/>
<text text-anchor="middle" x="565" y="-353.149" font-family="Helvetica,sans-Serif" font-size="10.00"> type</text>
</g>
<!-- Node7 -->
<g id="node7" class="node"><title>Node7</title>
<polygon fill="none" stroke="#bfbfbf" points="352.012,-169.149 352.012,-201.149 489.988,-201.149 489.988,-169.149 352.012,-169.149"/>
<text text-anchor="start" x="360.012" y="-188.149" font-family="Helvetica,sans-Serif" font-size="10.00">std::map&lt; Type::RingBuffer</text>
<text text-anchor="middle" x="421" y="-176.149" font-family="Helvetica,sans-Serif" font-size="10.00">Type, instr_map_t * &gt;</text>
</g>
<!-- Node7&#45;&gt;Node5 -->
<g id="edge6" class="edge"><title>Node7&#45;&gt;Node5</title>
<path fill="none" stroke="#9a32cd" stroke-dasharray="5,2" d="M500.559,-192.634C537.74,-197.166 582.538,-204.068 622,-214.149 628.174,-215.726 634.688,-217.88 640.728,-220.096"/>
<polygon fill="#9a32cd" stroke="#9a32cd" points="500.627,-189.117 490.285,-191.417 499.804,-196.069 500.627,-189.117"/>
<text text-anchor="middle" x="565" y="-217.149" font-family="Helvetica,sans-Serif" font-size="10.00"> const_map</text>
</g>
<!-- Node8 -->
<g id="node8" class="node"><title>Node8</title>
<g id="a_node8"><a xlink:title="STL class. ">
<polygon fill="none" stroke="#bfbfbf" points="112.043,-145.149 112.043,-165.149 201.957,-165.149 201.957,-145.149 112.043,-145.149"/>
<text text-anchor="middle" x="157" y="-152.149" font-family="Helvetica,sans-Serif" font-size="10.00">std::map&lt; K, T &gt;</text>
</a>
</g>
</g>
<!-- Node8&#45;&gt;Node7 -->
<g id="edge7" class="edge"><title>Node8&#45;&gt;Node7</title>
<path fill="none" stroke="#9a32cd" stroke-dasharray="5,2" d="M177.12,-171.984C189.111,-181.389 205.4,-192.188 222,-197.149 263.905,-209.671 312.962,-206.815 351.762,-200.758"/>
<polygon fill="#9a32cd" stroke="#9a32cd" points="179.156,-169.126 169.206,-165.485 174.713,-174.536 179.156,-169.126"/>
<text text-anchor="middle" x="278" y="-208.149" font-family="Helvetica,sans-Serif" font-size="10.00"> elements</text>
</g>
<!-- Node8&#45;&gt;Node7 -->
<g id="edge11" class="edge"><title>Node8&#45;&gt;Node7</title>
<path fill="none" stroke="orange" stroke-dasharray="5,2" d="M212.686,-158.021C247.509,-160.215 293.519,-163.788 334,-169.149 339.721,-169.906 345.639,-170.791 351.568,-171.75"/>
<polygon fill="orange" stroke="orange" points="212.451,-154.501 202.256,-157.384 212.024,-161.488 212.451,-154.501"/>
<text text-anchor="start" x="222.291" y="-184.149" font-family="Helvetica,sans-Serif" font-size="10.00"> &lt; Type::RingBufferType,</text>
<text text-anchor="middle" x="278" y="-172.149" font-family="Helvetica,sans-Serif" font-size="10.00"> instr_map_t * &gt;</text>
</g>
<!-- Node8&#45;&gt;Node20 -->
<g id="edge27" class="edge"><title>Node8&#45;&gt;Node20</title>
<path fill="none" stroke="orange" stroke-dasharray="5,2" d="M212.225,-154.174C337.69,-151.921 646.814,-146.367 772.03,-144.118"/>
<polygon fill="orange" stroke="orange" points="212.023,-150.677 202.088,-154.357 212.149,-157.676 212.023,-150.677"/>
<text text-anchor="middle" x="565" y="-151.149" font-family="Helvetica,sans-Serif" font-size="10.00"> &lt; std::string, PortInfo &gt;</text>
</g>
<!-- Node8&#45;&gt;Node2 -->
<g id="edge31" class="edge"><title>Node8&#45;&gt;Node2</title>
<path fill="none" stroke="orange" stroke-dasharray="5,2" d="M212.163,-147.618C330.915,-130.939 605.009,-91.4702 622,-80.1486 634.624,-71.7367 626.743,-58.523 640,-51.1486 683.564,-26.915 742.024,-36.5418 781.694,-48.0604"/>
<polygon fill="orange" stroke="orange" points="211.602,-144.162 202.185,-149.017 212.574,-151.094 211.602,-144.162"/>
<text text-anchor="middle" x="565" y="-106.149" font-family="Helvetica,sans-Serif" font-size="10.00"> &lt; std::string, PortInfo &amp; &gt;</text>
</g>
<!-- Node9 -->
<g id="node9" class="node"><title>Node9</title>
<polygon fill="none" stroke="#bfbfbf" points="0.5,-165.149 0.5,-185.149 29.5,-185.149 29.5,-165.149 0.5,-165.149"/>
<text text-anchor="middle" x="15" y="-172.149" font-family="Helvetica,sans-Serif" font-size="10.00">K</text>
</g>
<!-- Node9&#45;&gt;Node8 -->
<g id="edge8" class="edge"><title>Node9&#45;&gt;Node8</title>
<path fill="none" stroke="#9a32cd" stroke-dasharray="5,2" d="M39.6415,-171.771C59.3866,-168.95 88.0723,-164.853 112.021,-161.431"/>
<polygon fill="#9a32cd" stroke="#9a32cd" points="39.0832,-168.315 29.6787,-173.194 40.0732,-175.245 39.0832,-168.315"/>
<text text-anchor="middle" x="70" y="-173.149" font-family="Helvetica,sans-Serif" font-size="10.00"> keys</text>
</g>
<!-- Node10 -->
<g id="node10" class="node"><title>Node10</title>
<polygon fill="none" stroke="#bfbfbf" points="0.5,-126.149 0.5,-146.149 29.5,-146.149 29.5,-126.149 0.5,-126.149"/>
<text text-anchor="middle" x="15" y="-133.149" font-family="Helvetica,sans-Serif" font-size="10.00">T</text>
</g>
<!-- Node10&#45;&gt;Node8 -->
<g id="edge9" class="edge"><title>Node10&#45;&gt;Node8</title>
<path fill="none" stroke="#9a32cd" stroke-dasharray="5,2" d="M39.5192,-136.788C54.5812,-137.421 74.5111,-138.675 92,-141.149 99.3201,-142.184 107.049,-143.596 114.507,-145.127"/>
<polygon fill="#9a32cd" stroke="#9a32cd" points="39.6361,-133.29 29.5166,-136.428 39.3843,-140.285 39.6361,-133.29"/>
<text text-anchor="middle" x="70" y="-144.149" font-family="Helvetica,sans-Serif" font-size="10.00"> elements</text>
</g>
<!-- Node11 -->
<g id="node11" class="node"><title>Node11</title>
<polygon fill="none" stroke="#bfbfbf" points="114.272,-244.149 114.272,-264.149 199.728,-264.149 199.728,-244.149 114.272,-244.149"/>
<text text-anchor="middle" x="157" y="-251.149" font-family="Helvetica,sans-Serif" font-size="10.00">RingBufferType</text>
</g>
<!-- Node11&#45;&gt;Node7 -->
<g id="edge10" class="edge"><title>Node11&#45;&gt;Node7</title>
<path fill="none" stroke="#9a32cd" stroke-dasharray="5,2" d="M210.072,-248.846C245.731,-244.145 293.677,-235.695 334,-221.149 342.609,-218.043 343.705,-215.015 352,-211.149 359.446,-207.678 367.495,-204.294 375.36,-201.175"/>
<polygon fill="#9a32cd" stroke="#9a32cd" points="209.374,-245.407 199.891,-250.131 210.251,-252.352 209.374,-245.407"/>
<text text-anchor="middle" x="278" y="-250.149" font-family="Helvetica,sans-Serif" font-size="10.00"> keys</text>
</g>
<!-- Node12 -->
<g id="node12" class="node"><title>Node12</title>
<polygon fill="none" stroke="#bfbfbf" points="139.552,-294.149 139.552,-314.149 174.448,-314.149 174.448,-294.149 139.552,-294.149"/>
<text text-anchor="middle" x="157" y="-301.149" font-family="Helvetica,sans-Serif" font-size="10.00">bool</text>
</g>
<!-- Node12&#45;&gt;Node5 -->
<g id="edge12" class="edge"><title>Node12&#45;&gt;Node5</title>
<path fill="none" stroke="#9a32cd" stroke-dasharray="5,2" d="M184.836,-306.419C272.015,-313.325 546.012,-331.199 622,-290.149 642.07,-279.306 655.019,-254.534 661.047,-240.445"/>
<polygon fill="#9a32cd" stroke="#9a32cd" points="184.955,-302.917 174.705,-305.599 184.39,-309.895 184.955,-302.917"/>
<text text-anchor="middle" x="421" y="-331.149" font-family="Helvetica,sans-Serif" font-size="10.00"> use_my_allocator</text>
<text text-anchor="middle" x="421" y="-319.149" font-family="Helvetica,sans-Serif" font-size="10.00">out_of_order</text>
</g>
<!-- Node13 -->
<g id="node13" class="node"><title>Node13</title>
<g id="a_node13"><a xlink:href="class_f_i_f_o.html" target="_top" xlink:title="FIFO">
<polygon fill="none" stroke="black" points="401.612,-259.149 401.612,-279.149 440.388,-279.149 440.388,-259.149 401.612,-259.149"/>
<text text-anchor="middle" x="421" y="-266.149" font-family="Helvetica,sans-Serif" font-size="10.00">FIFO</text>
</a>
</g>
</g>
<!-- Node12&#45;&gt;Node13 -->
<g id="edge15" class="edge"><title>Node12&#45;&gt;Node13</title>
<path fill="none" stroke="#9a32cd" stroke-dasharray="5,2" d="M184.338,-297.705C195.846,-295.067 209.536,-292.167 222,-290.149 287.517,-279.541 366.134,-273.032 401.347,-270.441"/>
<polygon fill="#9a32cd" stroke="#9a32cd" points="183.415,-294.327 174.48,-300.022 185.016,-301.141 183.415,-294.327"/>
<text text-anchor="middle" x="278" y="-293.149" font-family="Helvetica,sans-Serif" font-size="10.00"> valid</text>
</g>
<!-- Node13&#45;&gt;Node5 -->
<g id="edge14" class="edge"><title>Node13&#45;&gt;Node5</title>
<path fill="none" stroke="#9a32cd" stroke-dasharray="5,2" d="M450.543,-267.667C489.653,-265.199 561.896,-259.065 622,-245.149 628.008,-243.757 634.347,-241.822 640.257,-239.802"/>
<polygon fill="#9a32cd" stroke="#9a32cd" points="450.203,-264.181 440.429,-268.27 450.619,-271.169 450.203,-264.181"/>
<text text-anchor="middle" x="565" y="-277.149" font-family="Helvetica,sans-Serif" font-size="10.00"> fifo_a</text>
<text text-anchor="middle" x="565" y="-265.149" font-family="Helvetica,sans-Serif" font-size="10.00">fifo_b</text>
</g>
<!-- Node14 -->
<g id="node14" class="node"><title>Node14</title>
<polygon fill="none" stroke="#bfbfbf" points="399.942,-413.149 399.942,-433.149 442.058,-433.149 442.058,-413.149 399.942,-413.149"/>
<text text-anchor="middle" x="421" y="-420.149" font-family="Helvetica,sans-Serif" font-size="10.00">size_t</text>
</g>
<!-- Node14&#45;&gt;Node5 -->
<g id="edge16" class="edge"><title>Node14&#45;&gt;Node5</title>
<path fill="none" stroke="#9a32cd" stroke-dasharray="5,2" d="M450.755,-408.563C467.182,-400.711 488.363,-391.386 508,-385.149 557.262,-369.5 583.397,-396.52 622,-362.149 658.721,-329.452 664.223,-265.044 664.944,-240.228"/>
<polygon fill="#9a32cd" stroke="#9a32cd" points="449.139,-405.457 441.679,-412.981 452.202,-411.751 449.139,-405.457"/>
<text text-anchor="middle" x="565" y="-400.149" font-family="Helvetica,sans-Serif" font-size="10.00"> nitems</text>
<text text-anchor="middle" x="565" y="-388.149" font-family="Helvetica,sans-Serif" font-size="10.00">start_index</text>
</g>
<!-- Node15 -->
<g id="node15" class="node"><title>Node15</title>
<g id="a_node15"><a xlink:href="classraft_1_1kernel.html" target="_top" xlink:title="raft::kernel">
<polygon fill="none" stroke="black" points="1234.39,-201.149 1234.39,-221.149 1297.61,-221.149 1297.61,-201.149 1234.39,-201.149"/>
<text text-anchor="middle" x="1266" y="-208.149" font-family="Helvetica,sans-Serif" font-size="10.00">raft::kernel</text>
</a>
</g>
</g>
<!-- Node14&#45;&gt;Node15 -->
<g id="edge18" class="edge"><title>Node14&#45;&gt;Node15</title>
<path fill="none" stroke="#9a32cd" stroke-dasharray="5,2" d="M452.142,-431.364C497.814,-443.071 587.454,-463.149 665,-463.149 665,-463.149 665,-463.149 1150,-463.149 1258.2,-463.149 1265.04,-268.485 1265.11,-221.339"/>
<polygon fill="#9a32cd" stroke="#9a32cd" points="452.855,-427.934 442.295,-428.795 451.087,-434.707 452.855,-427.934"/>
<text text-anchor="middle" x="930" y="-466.149" font-family="Helvetica,sans-Serif" font-size="10.00"> kernel_count</text>
</g>
<!-- Node16 -->
<g id="node16" class="node"><title>Node16</title>
<g id="a_node16"><a xlink:href="class_port.html" target="_top" xlink:title="Port">
<polygon fill="none" stroke="black" points="1131.83,-147.149 1131.83,-167.149 1166.17,-167.149 1166.17,-147.149 1131.83,-147.149"/>
<text text-anchor="middle" x="1149" y="-154.149" font-family="Helvetica,sans-Serif" font-size="10.00">Port</text>
</a>
</g>
</g>
<!-- Node14&#45;&gt;Node16 -->
<g id="edge22" class="edge"><title>Node14&#45;&gt;Node16</title>
<path fill="none" stroke="#9a32cd" stroke-dasharray="5,2" d="M452.342,-423.149C498.334,-423.149 588.449,-423.149 665,-423.149 665,-423.149 665,-423.149 1017,-423.149 1133.34,-423.149 1146.36,-215.839 1147.82,-167.251"/>
<polygon fill="#9a32cd" stroke="#9a32cd" points="452.162,-419.649 442.162,-423.149 452.162,-426.649 452.162,-419.649"/>
<text text-anchor="middle" x="827" y="-426.149" font-family="Helvetica,sans-Serif" font-size="10.00"> alloc_ptr_length</text>
</g>
<!-- Node15&#45;&gt;Node5 -->
<g id="edge17" class="edge"><title>Node15&#45;&gt;Node5</title>
<path fill="none" stroke="#9a32cd" stroke-dasharray="5,2" d="M1224.09,-221.783C1202.26,-226.563 1174.84,-231.149 1150,-231.149 826,-231.149 826,-231.149 826,-231.149 778.382,-231.149 722.744,-230.695 691.514,-230.398"/>
<polygon fill="#9a32cd" stroke="#9a32cd" points="1225.05,-225.155 1234.02,-219.514 1223.49,-218.331 1225.05,-225.155"/>
<text text-anchor="middle" x="1016" y="-246.149" font-family="Helvetica,sans-Serif" font-size="10.00"> my_kernel</text>
<text text-anchor="middle" x="1016" y="-234.149" font-family="Helvetica,sans-Serif" font-size="10.00">other_kernel</text>
</g>
<!-- Node15&#45;&gt;Node16 -->
<g id="edge29" class="edge"><title>Node15&#45;&gt;Node16</title>
<path fill="none" stroke="#9a32cd" stroke-dasharray="5,2" d="M1253.55,-192.415C1244.92,-180.19 1231.87,-165.232 1216,-158.149 1200.2,-151.095 1180.08,-152.014 1166.23,-153.955"/>
<polygon fill="#9a32cd" stroke="#9a32cd" points="1250.83,-194.644 1259.27,-201.055 1256.67,-190.783 1250.83,-194.644"/>
<text text-anchor="middle" x="1200" y="-161.149" font-family="Helvetica,sans-Serif" font-size="10.00"> kernel</text>
</g>
<!-- Node16&#45;&gt;Node15 -->
<g id="edge19" class="edge"><title>Node16&#45;&gt;Node15</title>
<path fill="none" stroke="#9a32cd" stroke-dasharray="5,2" d="M1175.79,-169.256C1196.16,-178.824 1224.27,-192.023 1243.46,-201.032"/>
<polygon fill="#9a32cd" stroke="#9a32cd" points="1177.02,-165.968 1166.48,-164.885 1174.04,-172.304 1177.02,-165.968"/>
<text text-anchor="middle" x="1200" y="-202.149" font-family="Helvetica,sans-Serif" font-size="10.00"> output</text>
<text text-anchor="middle" x="1200" y="-190.149" font-family="Helvetica,sans-Serif" font-size="10.00">input</text>
</g>
<!-- Node17 -->
<g id="node17" class="node"><title>Node17</title>
<g id="a_node17"><a xlink:href="class_port_base.html" target="_top" xlink:title="PortBase">
<polygon fill="none" stroke="black" points="987.438,-69.1486 987.438,-89.1486 1044.56,-89.1486 1044.56,-69.1486 987.438,-69.1486"/>
<text text-anchor="middle" x="1016" y="-76.1486" font-family="Helvetica,sans-Serif" font-size="10.00">PortBase</text>
</a>
</g>
</g>
<!-- Node17&#45;&gt;Node16 -->
<g id="edge20" class="edge"><title>Node17&#45;&gt;Node16</title>
<path fill="none" stroke="midnightblue" d="M1046.6,-94.0573C1049.12,-95.4136 1051.61,-96.789 1054,-98.1486 1082.47,-114.352 1114.58,-135.053 1132.94,-147.133"/>
<polygon fill="midnightblue" stroke="midnightblue" points="1048,-90.8439 1037.52,-89.2906 1044.75,-97.0405 1048,-90.8439"/>
</g>
<!-- Node18 -->
<g id="node18" class="node"><title>Node18</title>
<polygon fill="none" stroke="#bfbfbf" points="983.549,-30.1486 983.549,-50.1486 1048.45,-50.1486 1048.45,-30.1486 983.549,-30.1486"/>
<text text-anchor="middle" x="1016" y="-37.1486" font-family="Helvetica,sans-Serif" font-size="10.00">void *const</text>
</g>
<!-- Node18&#45;&gt;Node16 -->
<g id="edge21" class="edge"><title>Node18&#45;&gt;Node16</title>
<path fill="none" stroke="#9a32cd" stroke-dasharray="5,2" d="M1054.25,-54.1583C1073.9,-63 1097.32,-76.0112 1114,-93.1486 1129.44,-109.018 1139.72,-133.317 1144.64,-146.954"/>
<polygon fill="#9a32cd" stroke="#9a32cd" points="1055.52,-50.8949 1044.95,-50.153 1052.75,-57.3238 1055.52,-50.8949"/>
<text text-anchor="middle" x="1093" y="-96.1486" font-family="Helvetica,sans-Serif" font-size="10.00"> alloc_ptr</text>
</g>
<!-- Node19 -->
<g id="node19" class="node"><title>Node19</title>
<g id="a_node19"><a xlink:href="structportmap__t.html" target="_top" xlink:title="portmap_t">
<polygon fill="none" stroke="black" points="985.495,-147.149 985.495,-167.149 1046.51,-167.149 1046.51,-147.149 985.495,-147.149"/>
<text text-anchor="middle" x="1016" y="-154.149" font-family="Helvetica,sans-Serif" font-size="10.00">portmap_t</text>
</a>
</g>
</g>
<!-- Node19&#45;&gt;Node16 -->
<g id="edge23" class="edge"><title>Node19&#45;&gt;Node16</title>
<path fill="none" stroke="#9a32cd" stroke-dasharray="5,2" d="M1057.04,-157.149C1082.08,-157.149 1113,-157.149 1131.57,-157.149"/>
<polygon fill="#9a32cd" stroke="#9a32cd" points="1056.73,-153.649 1046.73,-157.149 1056.73,-160.649 1056.73,-153.649"/>
<text text-anchor="middle" x="1093" y="-160.149" font-family="Helvetica,sans-Serif" font-size="10.00"> portmap</text>
</g>
<!-- Node20&#45;&gt;Node19 -->
<g id="edge24" class="edge"><title>Node20&#45;&gt;Node19</title>
<path fill="none" stroke="#9a32cd" stroke-dasharray="5,2" d="M891.674,-147.916C923.36,-150.288 960.151,-153.042 985.247,-154.921"/>
<polygon fill="#9a32cd" stroke="#9a32cd" points="891.82,-144.417 881.587,-147.16 891.297,-151.397 891.82,-144.417"/>
<text text-anchor="middle" x="930" y="-155.149" font-family="Helvetica,sans-Serif" font-size="10.00"> map</text>
</g>
<!-- Node21 -->
<g id="node21" class="node"><title>Node21</title>
<polygon fill="none" stroke="#bfbfbf" points="805.387,-178.149 805.387,-198.149 848.613,-198.149 848.613,-178.149 805.387,-178.149"/>
<text text-anchor="middle" x="827" y="-185.149" font-family="Helvetica,sans-Serif" font-size="10.00">mutex</text>
</g>
<!-- Node21&#45;&gt;Node19 -->
<g id="edge28" class="edge"><title>Node21&#45;&gt;Node19</title>
<path fill="none" stroke="#9a32cd" stroke-dasharray="5,2" d="M858.856,-183.033C893.902,-177.224 950.691,-167.809 985.264,-162.078"/>
<polygon fill="#9a32cd" stroke="#9a32cd" points="858.02,-179.624 848.727,-184.713 859.165,-186.53 858.02,-179.624"/>
<text text-anchor="middle" x="930" y="-178.149" font-family="Helvetica,sans-Serif" font-size="10.00"> map_mutex</text>
</g>
<!-- Node22 -->
<g id="node22" class="node"><title>Node22</title>
<polygon fill="none" stroke="#bfbfbf" points="400.498,-220.149 400.498,-240.149 441.502,-240.149 441.502,-220.149 400.498,-220.149"/>
<text text-anchor="middle" x="421" y="-227.149" font-family="Helvetica,sans-Serif" font-size="10.00">void *</text>
</g>
<!-- Node22&#45;&gt;Node5 -->
<g id="edge30" class="edge"><title>Node22&#45;&gt;Node5</title>
<path fill="none" stroke="#9a32cd" stroke-dasharray="5,2" d="M452.062,-230.149C500.584,-230.149 595.261,-230.149 640.191,-230.149"/>
<polygon fill="#9a32cd" stroke="#9a32cd" points="451.886,-226.649 441.886,-230.149 451.886,-233.649 451.886,-226.649"/>
<text text-anchor="middle" x="565" y="-233.149" font-family="Helvetica,sans-Serif" font-size="10.00"> existing_buffer</text>
</g>
</g>
</svg>
