<?xml version="1.0" encoding="UTF-8" standalone="no"?>
<!DOCTYPE svg PUBLIC "-//W3C//DTD SVG 1.1//EN"
 "http://www.w3.org/Graphics/SVG/1.1/DTD/svg11.dtd">
<!-- Generated by graphviz version 2.30.1 (20130404.1610)
 -->
<!-- Title: PortException Pages: 1 -->
<svg width="416pt" height="262pt"
 viewBox="0.00 0.00 416.00 262.00" xmlns="http://www.w3.org/2000/svg" xmlns:xlink="http://www.w3.org/1999/xlink">
<g id="graph0" class="graph" transform="scale(1 1) rotate(0) translate(4 258)">
<title>PortException</title>
<!-- Node1 -->
<g id="node1" class="node"><title>Node1</title>
<polygon fill="#bfbfbf" stroke="black" points="113.88,-117 113.88,-137 192.12,-137 192.12,-117 113.88,-117"/>
<text text-anchor="middle" x="153" y="-124" font-family="Helvetica,sans-Serif" font-size="10.00">PortException</text>
</g>
<!-- Node3 -->
<g id="node3" class="node"><title>Node3</title>
<g id="a_node3"><a xlink:href="class_ambiguous_port_assignment_exception.html" target="_top" xlink:title="AmbiguousPortAssignmentException">
<polygon fill="none" stroke="black" points="227.759,-234 227.759,-254 408.241,-254 408.241,-234 227.759,-234"/>
<text text-anchor="middle" x="318" y="-241" font-family="Helvetica,sans-Serif" font-size="10.00">AmbiguousPortAssignmentException</text>
</a>
</g>
</g>
<!-- Node1&#45;&gt;Node3 -->
<g id="edge2" class="edge"><title>Node1&#45;&gt;Node3</title>
<path fill="none" stroke="midnightblue" d="M163.368,-146.26C175.24,-168.552 197.846,-204.669 228,-224 234.4,-228.103 241.528,-231.37 248.887,-233.971"/>
<polygon fill="midnightblue" stroke="midnightblue" points="166.352,-144.408 158.68,-137.101 160.12,-147.597 166.352,-144.408"/>
</g>
<!-- Node4 -->
<g id="node4" class="node"><title>Node4</title>
<g id="a_node4"><a xlink:href="class_closed_port_access_exception.html" target="_top" xlink:title="ClosedPortAccessException">
<polygon fill="none" stroke="black" points="247.209,-195 247.209,-215 388.791,-215 388.791,-195 247.209,-195"/>
<text text-anchor="middle" x="318" y="-202" font-family="Helvetica,sans-Serif" font-size="10.00">ClosedPortAccessException</text>
</a>
</g>
</g>
<!-- Node1&#45;&gt;Node4 -->
<g id="edge3" class="edge"><title>Node1&#45;&gt;Node4</title>
<path fill="none" stroke="midnightblue" d="M171.479,-144.413C185.584,-157.488 206.548,-174.825 228,-185 236.585,-189.072 246.035,-192.334 255.472,-194.942"/>
<polygon fill="midnightblue" stroke="midnightblue" points="173.667,-141.663 164.015,-137.294 168.835,-146.728 173.667,-141.663"/>
</g>
<!-- Node5 -->
<g id="node5" class="node"><title>Node5</title>
<g id="a_node5"><a xlink:href="class_no_more_data_exception.html" target="_top" xlink:title="NoMoreDataException">
<polygon fill="none" stroke="black" points="259.714,-156 259.714,-176 376.286,-176 376.286,-156 259.714,-156"/>
<text text-anchor="middle" x="318" y="-163" font-family="Helvetica,sans-Serif" font-size="10.00">NoMoreDataException</text>
</a>
</g>
</g>
<!-- Node1&#45;&gt;Node5 -->
<g id="edge4" class="edge"><title>Node1&#45;&gt;Node5</title>
<path fill="none" stroke="midnightblue" d="M202.237,-139.61C210.807,-141.786 219.658,-143.992 228,-146 242.011,-149.372 257.307,-152.874 271.204,-155.988"/>
<polygon fill="midnightblue" stroke="midnightblue" points="202.908,-136.169 192.352,-137.083 201.174,-142.951 202.908,-136.169"/>
</g>
<!-- Node6 -->
<g id="node6" class="node"><title>Node6</title>
<g id="a_node6"><a xlink:href="class_port_double_initialize_exception.html" target="_top" xlink:title="PortDoubleInitializeException">
<polygon fill="none" stroke="black" points="244.988,-117 244.988,-137 391.012,-137 391.012,-117 244.988,-117"/>
<text text-anchor="middle" x="318" y="-124" font-family="Helvetica,sans-Serif" font-size="10.00">PortDoubleInitializeException</text>
</a>
</g>
</g>
<!-- Node1&#45;&gt;Node6 -->
<g id="edge5" class="edge"><title>Node1&#45;&gt;Node6</title>
<path fill="none" stroke="midnightblue" d="M202.53,-127C215.808,-127 230.491,-127 244.788,-127"/>
<polygon fill="midnightblue" stroke="midnightblue" points="202.216,-123.5 192.216,-127 202.216,-130.5 202.216,-123.5"/>
</g>
<!-- Node7 -->
<g id="node7" class="node"><title>Node7</title>
<g id="a_node7"><a xlink:href="class_port_not_found_exception.html" target="_top" xlink:title="PortNotFoundException">
<polygon fill="none" stroke="black" points="256.93,-78 256.93,-98 379.07,-98 379.07,-78 256.93,-78"/>
<text text-anchor="middle" x="318" y="-85" font-family="Helvetica,sans-Serif" font-size="10.00">PortNotFoundException</text>
</a>
</g>
</g>
<!-- Node1&#45;&gt;Node7 -->
<g id="edge6" class="edge"><title>Node1&#45;&gt;Node7</title>
<path fill="none" stroke="midnightblue" d="M199.6,-114.264C208.969,-111.763 218.785,-109.227 228,-107 240.747,-103.919 254.583,-100.839 267.463,-98.0826"/>
<polygon fill="midnightblue" stroke="midnightblue" points="198.4,-110.963 189.658,-116.948 200.224,-117.721 198.4,-110.963"/>
</g>
<!-- Node8 -->
<g id="node8" class="node"><title>Node8</title>
<g id="a_node8"><a xlink:href="class_port_type_exception.html" target="_top" xlink:title="PortTypeException">
<polygon fill="none" stroke="black" points="267.767,-39 267.767,-59 368.233,-59 368.233,-39 267.767,-39"/>
<text text-anchor="middle" x="318" y="-46" font-family="Helvetica,sans-Serif" font-size="10.00">PortTypeException</text>
</a>
</g>
</g>
<!-- Node1&#45;&gt;Node8 -->
<g id="edge7" class="edge"><title>Node1&#45;&gt;Node8</title>
<path fill="none" stroke="midnightblue" d="M170.911,-109.67C184.97,-96.2769 206.146,-78.3339 228,-68 240.284,-62.1915 254.358,-58.1414 267.634,-55.3237"/>
<polygon fill="midnightblue" stroke="midnightblue" points="168.191,-107.436 163.504,-116.938 173.093,-112.432 168.191,-107.436"/>
</g>
<!-- Node9 -->
<g id="node9" class="node"><title>Node9</title>
<g id="a_node9"><a xlink:href="class_port_type_mismatch_exception.html" target="_top" xlink:title="PortTypeMismatchException">
<polygon fill="none" stroke="black" points="246.38,-0 246.38,-20 389.62,-20 389.62,-0 246.38,-0"/>
<text text-anchor="middle" x="318" y="-7" font-family="Helvetica,sans-Serif" font-size="10.00">PortTypeMismatchException</text>
</a>
</g>
</g>
<!-- Node1&#45;&gt;Node9 -->
<g id="edge8" class="edge"><title>Node1&#45;&gt;Node9</title>
<path fill="none" stroke="midnightblue" d="M163.122,-107.79C174.866,-85.2394 197.456,-48.4563 228,-29 233.597,-25.4349 239.753,-22.5281 246.134,-20.1597"/>
<polygon fill="midnightblue" stroke="midnightblue" points="159.976,-106.255 158.63,-116.763 166.236,-109.388 159.976,-106.255"/>
</g>
<!-- Node2 -->
<g id="node2" class="node"><title>Node2</title>
<g id="a_node2"><a xlink:title="STL class. ">
<polygon fill="none" stroke="#bfbfbf" points="0.1555,-117 0.1555,-137 77.8445,-137 77.8445,-117 0.1555,-117"/>
<text text-anchor="middle" x="39" y="-124" font-family="Helvetica,sans-Serif" font-size="10.00">std::exception</text>
</a>
</g>
</g>
<!-- Node2&#45;&gt;Node1 -->
<g id="edge1" class="edge"><title>Node2&#45;&gt;Node1</title>
<path fill="none" stroke="midnightblue" d="M88.1672,-127C96.7157,-127 105.513,-127 113.74,-127"/>
<polygon fill="midnightblue" stroke="midnightblue" points="87.9181,-123.5 77.9181,-127 87.9181,-130.5 87.9181,-123.5"/>
</g>
</g>
</svg>
