<?xml version="1.0" encoding="UTF-8" standalone="no"?>
<!DOCTYPE svg PUBLIC "-//W3C//DTD SVG 1.1//EN"
 "http://www.w3.org/Graphics/SVG/1.1/DTD/svg11.dtd">
<!-- Generated by graphviz version 2.30.1 (20130404.1610)
 -->
<!-- Title: SubMap Pages: 1 -->
<!--zoomable 492 -->
<svg id="main" version="1.1" xmlns="http://www.w3.org/2000/svg" xmlns:xlink="http://www.w3.org/1999/xlink" xml:space="preserve" onload="init(evt)">
<style type="text/css"><![CDATA[
.edge:hover path { stroke: red; }
.edge:hover polygon { stroke: red; fill: red; }
]]></style>
<script type="text/javascript"><![CDATA[
var edges = document.getElementsByTagName('g');
if (edges && edges.length) {
  for (var i=0;i<edges.length;i++) {
    if (edges[i].id.substr(0,4)=='edge') {
      edges[i].setAttribute('class','edge');
    }
  }
}
]]></script>
        <defs>
                <circle id="rim" cx="0" cy="0" r="7"/>
                <circle id="rim2" cx="0" cy="0" r="3.5"/>
                <g id="zoomPlus">
                        <use xlink:href="#rim" fill="#404040">
                                <set attributeName="fill" to="#808080" begin="zoomplus.mouseover" end="zoomplus.mouseout"/>
                        </use>
                        <path d="M-4,0h8M0,-4v8" fill="none" stroke="white" stroke-width="1.5" pointer-events="none"/>
                </g>
                <g id="zoomMin">
                        <use xlink:href="#rim" fill="#404040">
                                <set attributeName="fill" to="#808080" begin="zoomminus.mouseover" end="zoomminus.mouseout"/>
                        </use>
                        <path d="M-4,0h8" fill="none" stroke="white" stroke-width="1.5" pointer-events="none"/>
                </g>
                <g id="dirArrow">
                        <path fill="none" stroke="white" stroke-width="1.5" d="M0,-3.0v7 M-2.5,-0.5L0,-3.0L2.5,-0.5"/>
                </g>
               <g id="resetDef">
                       <use xlink:href="#rim2" fill="#404040">
                               <set attributeName="fill" to="#808080" begin="reset.mouseover" end="reset.mouseout"/>
                       </use>
               </g>
        </defs>

<script type="text/javascript">
var viewWidth = 1248;
var viewHeight = 492;
var sectionId = 'dynsection-1';
</script>
<script xlink:href="svgpan.js"/>
<svg id="graph" class="graph">
<g id="viewport">
<title>SubMap</title>
<!-- Node1 -->
<g id="node1" class="node"><title>Node1</title>
<polygon fill="#bfbfbf" stroke="black" points="1068.38,-423.239 1068.38,-443.239 1121.62,-443.239 1121.62,-423.239 1068.38,-423.239"/>
<text text-anchor="middle" x="1095" y="-430.239" font-family="Helvetica,sans-Serif" font-size="10.00">SubMap</text>
</g>
<!-- Node2 -->
<g id="node2" class="node"><title>Node2</title>
<g id="a_node2"><a xlink:href="class_map_base.html" target="_top" xlink:title="MapBase">
<polygon fill="none" stroke="black" points="885.883,-423.239 885.883,-443.239 944.117,-443.239 944.117,-423.239 885.883,-423.239"/>
<text text-anchor="middle" x="915" y="-430.239" font-family="Helvetica,sans-Serif" font-size="10.00">MapBase</text>
</a>
</g>
</g>
<!-- Node2&#45;&gt;Node1 -->
<g id="edge1" class="edge"><title>Node2&#45;&gt;Node1</title>
<path fill="none" stroke="midnightblue" d="M954.363,-433.239C988.785,-433.239 1038.35,-433.239 1068.24,-433.239"/>
<polygon fill="midnightblue" stroke="midnightblue" points="954.205,-429.739 944.205,-433.239 954.205,-436.739 954.205,-429.739"/>
</g>
<!-- Node3 -->
<g id="node3" class="node"><title>Node3</title>
<polygon fill="none" stroke="#bfbfbf" points="630.317,-415.239 630.317,-435.239 749.683,-435.239 749.683,-415.239 630.317,-415.239"/>
<text text-anchor="middle" x="690" y="-422.239" font-family="Helvetica,sans-Serif" font-size="10.00">std::set&lt; raft::kernel * &gt;</text>
</g>
<!-- Node3&#45;&gt;Node2 -->
<g id="edge2" class="edge"><title>Node3&#45;&gt;Node2</title>
<path fill="none" stroke="#9a32cd" stroke-dasharray="5,2" d="M759.889,-424.387C785.666,-424.412 815.189,-424.85 842,-426.239 856.423,-426.986 872.418,-428.475 885.661,-429.888"/>
<polygon fill="#9a32cd" stroke="#9a32cd" points="759.834,-420.887 749.838,-424.397 759.842,-427.887 759.834,-420.887"/>
<text text-anchor="middle" x="805" y="-441.239" font-family="Helvetica,sans-Serif" font-size="10.00"> source_kernels</text>
<text text-anchor="middle" x="805" y="-429.239" font-family="Helvetica,sans-Serif" font-size="10.00">all_kernels</text>
</g>
<!-- Node4 -->
<g id="node4" class="node"><title>Node4</title>
<g id="a_node4"><a xlink:href="classraft_1_1kernel.html" target="_top" xlink:title="raft::kernel">
<polygon fill="none" stroke="black" points="389.385,-352.239 389.385,-372.239 452.615,-372.239 452.615,-352.239 389.385,-352.239"/>
<text text-anchor="middle" x="421" y="-359.239" font-family="Helvetica,sans-Serif" font-size="10.00">raft::kernel</text>
</a>
</g>
</g>
<!-- Node4&#45;&gt;Node3 -->
<g id="edge3" class="edge"><title>Node4&#45;&gt;Node3</title>
<path fill="none" stroke="#9a32cd" stroke-dasharray="5,2" d="M459.458,-375.868C469.399,-379.525 480.118,-383.501 490,-387.239 498.029,-390.276 499.728,-391.947 508,-394.239 548.095,-405.347 594.346,-413.185 630.059,-418.201"/>
<polygon fill="#9a32cd" stroke="#9a32cd" points="460.428,-372.496 449.834,-372.34 458.018,-379.069 460.428,-372.496"/>
<text text-anchor="middle" x="560" y="-418.239" font-family="Helvetica,sans-Serif" font-size="10.00"> keys</text>
</g>
<!-- Node13 -->
<g id="node13" class="node"><title>Node13</title>
<g id="a_node13"><a xlink:href="struct_port_info.html" target="_top" xlink:title="PortInfo">
<polygon fill="none" stroke="black" points="664.494,-165.239 664.494,-185.239 715.506,-185.239 715.506,-165.239 664.494,-165.239"/>
<text text-anchor="middle" x="690" y="-172.239" font-family="Helvetica,sans-Serif" font-size="10.00">PortInfo</text>
</a>
</g>
</g>
<!-- Node4&#45;&gt;Node13 -->
<g id="edge26" class="edge"><title>Node4&#45;&gt;Node13</title>
<path fill="none" stroke="#9a32cd" stroke-dasharray="5,2" d="M462.161,-351.792C471.836,-348.146 481.751,-343.378 490,-337.239 500.696,-329.278 496.792,-320.462 508,-313.239 547.792,-287.595 572.909,-316.938 612,-290.239 651.683,-263.136 676.358,-208.191 685.255,-185.449"/>
<polygon fill="#9a32cd" stroke="#9a32cd" points="460.95,-348.507 452.635,-355.073 463.23,-355.125 460.95,-348.507"/>
<text text-anchor="middle" x="560" y="-328.239" font-family="Helvetica,sans-Serif" font-size="10.00"> my_kernel</text>
<text text-anchor="middle" x="560" y="-316.239" font-family="Helvetica,sans-Serif" font-size="10.00">other_kernel</text>
</g>
<!-- Node6 -->
<g id="node6" class="node"><title>Node6</title>
<g id="a_node6"><a xlink:href="class_port.html" target="_top" xlink:title="Port">
<polygon fill="none" stroke="black" points="1205.83,-302.239 1205.83,-322.239 1240.17,-322.239 1240.17,-302.239 1205.83,-302.239"/>
<text text-anchor="middle" x="1223" y="-309.239" font-family="Helvetica,sans-Serif" font-size="10.00">Port</text>
</a>
</g>
</g>
<!-- Node4&#45;&gt;Node6 -->
<g id="edge30" class="edge"><title>Node4&#45;&gt;Node6</title>
<path fill="none" stroke="#9a32cd" stroke-dasharray="5,2" d="M462.806,-361.097C577.381,-357.619 911.711,-345.615 1188,-317.239 1193.82,-316.641 1200.16,-315.769 1205.78,-314.919"/>
<polygon fill="#9a32cd" stroke="#9a32cd" points="462.617,-357.6 452.726,-361.398 462.826,-364.597 462.617,-357.6"/>
<text text-anchor="middle" x="915" y="-345.239" font-family="Helvetica,sans-Serif" font-size="10.00"> kernel</text>
</g>
<!-- Node5 -->
<g id="node5" class="node"><title>Node5</title>
<polygon fill="none" stroke="#bfbfbf" points="135.942,-352.239 135.942,-372.239 178.058,-372.239 178.058,-352.239 135.942,-352.239"/>
<text text-anchor="middle" x="157" y="-359.239" font-family="Helvetica,sans-Serif" font-size="10.00">size_t</text>
</g>
<!-- Node5&#45;&gt;Node4 -->
<g id="edge4" class="edge"><title>Node5&#45;&gt;Node4</title>
<path fill="none" stroke="#9a32cd" stroke-dasharray="5,2" d="M188.343,-362.239C238.592,-362.239 338.55,-362.239 389.139,-362.239"/>
<polygon fill="#9a32cd" stroke="#9a32cd" points="188.124,-358.739 178.124,-362.239 188.124,-365.739 188.124,-358.739"/>
<text text-anchor="middle" x="278" y="-365.239" font-family="Helvetica,sans-Serif" font-size="10.00"> kernel_count</text>
</g>
<!-- Node5&#45;&gt;Node6 -->
<g id="edge8" class="edge"><title>Node5&#45;&gt;Node6</title>
<path fill="none" stroke="#9a32cd" stroke-dasharray="5,2" d="M187.871,-370.034C198.605,-372.748 210.82,-375.737 222,-378.239 340.489,-404.749 370.983,-407.21 490,-431.239 578.516,-449.11 598.698,-472.239 689,-472.239 689,-472.239 689,-472.239 1096,-472.239 1172.72,-472.239 1209.91,-357.275 1219.46,-322.248"/>
<polygon fill="#9a32cd" stroke="#9a32cd" points="188.672,-366.626 178.116,-367.541 186.938,-373.408 188.672,-366.626"/>
<text text-anchor="middle" x="805" y="-475.239" font-family="Helvetica,sans-Serif" font-size="10.00"> alloc_ptr_length</text>
</g>
<!-- Node5&#45;&gt;Node13 -->
<g id="edge25" class="edge"><title>Node5&#45;&gt;Node13</title>
<path fill="none" stroke="#9a32cd" stroke-dasharray="5,2" d="M187.909,-355.422C282.905,-333.646 573.773,-265.982 612,-245.239 640.9,-229.557 667.626,-200.792 680.662,-185.473"/>
<polygon fill="#9a32cd" stroke="#9a32cd" points="187.042,-352.029 178.075,-357.672 188.604,-358.853 187.042,-352.029"/>
<text text-anchor="middle" x="421" y="-331.239" font-family="Helvetica,sans-Serif" font-size="10.00"> nitems</text>
<text text-anchor="middle" x="421" y="-319.239" font-family="Helvetica,sans-Serif" font-size="10.00">start_index</text>
</g>
<!-- Node6&#45;&gt;Node4 -->
<g id="edge5" class="edge"><title>Node6&#45;&gt;Node4</title>
<path fill="none" stroke="#9a32cd" stroke-dasharray="5,2" d="M1207.17,-329.888C1201.62,-335.687 1194.96,-341.781 1188,-346.239 1151.29,-369.751 1139.59,-380.239 1096,-380.239 689,-380.239 689,-380.239 689,-380.239 603.282,-380.239 502.435,-370.889 452.789,-365.667"/>
<polygon fill="#9a32cd" stroke="#9a32cd" points="1209.88,-332.113 1213.98,-322.345 1204.68,-327.422 1209.88,-332.113"/>
<text text-anchor="middle" x="915" y="-395.239" font-family="Helvetica,sans-Serif" font-size="10.00"> output</text>
<text text-anchor="middle" x="915" y="-383.239" font-family="Helvetica,sans-Serif" font-size="10.00">input</text>
</g>
<!-- Node7 -->
<g id="node7" class="node"><title>Node7</title>
<g id="a_node7"><a xlink:href="class_port_base.html" target="_top" xlink:title="PortBase">
<polygon fill="none" stroke="black" points="1066.44,-283.239 1066.44,-303.239 1123.56,-303.239 1123.56,-283.239 1066.44,-283.239"/>
<text text-anchor="middle" x="1095" y="-290.239" font-family="Helvetica,sans-Serif" font-size="10.00">PortBase</text>
</a>
</g>
</g>
<!-- Node7&#45;&gt;Node6 -->
<g id="edge6" class="edge"><title>Node7&#45;&gt;Node6</title>
<path fill="none" stroke="midnightblue" d="M1133.84,-298.945C1157.77,-302.553 1187.5,-307.036 1205.59,-309.765"/>
<polygon fill="midnightblue" stroke="midnightblue" points="1134.06,-295.439 1123.65,-297.408 1133.02,-302.361 1134.06,-295.439"/>
</g>
<!-- Node8 -->
<g id="node8" class="node"><title>Node8</title>
<polygon fill="none" stroke="#bfbfbf" points="1062.55,-244.239 1062.55,-264.239 1127.45,-264.239 1127.45,-244.239 1062.55,-244.239"/>
<text text-anchor="middle" x="1095" y="-251.239" font-family="Helvetica,sans-Serif" font-size="10.00">void *const</text>
</g>
<!-- Node8&#45;&gt;Node6 -->
<g id="edge7" class="edge"><title>Node8&#45;&gt;Node6</title>
<path fill="none" stroke="#9a32cd" stroke-dasharray="5,2" d="M1137.66,-264.241C1153.93,-269.053 1172.39,-275.669 1188,-284.239 1196.71,-289.023 1205.35,-296.168 1211.73,-302.044"/>
<polygon fill="#9a32cd" stroke="#9a32cd" points="1138.44,-260.823 1127.86,-261.477 1136.54,-267.56 1138.44,-260.823"/>
<text text-anchor="middle" x="1167" y="-287.239" font-family="Helvetica,sans-Serif" font-size="10.00"> alloc_ptr</text>
</g>
<!-- Node9 -->
<g id="node9" class="node"><title>Node9</title>
<g id="a_node9"><a xlink:href="structportmap__t.html" target="_top" xlink:title="portmap_t">
<polygon fill="none" stroke="black" points="1064.49,-79.2389 1064.49,-99.2389 1125.51,-99.2389 1125.51,-79.2389 1064.49,-79.2389"/>
<text text-anchor="middle" x="1095" y="-86.2389" font-family="Helvetica,sans-Serif" font-size="10.00">portmap_t</text>
</a>
</g>
</g>
<!-- Node9&#45;&gt;Node6 -->
<g id="edge9" class="edge"><title>Node9&#45;&gt;Node6</title>
<path fill="none" stroke="#9a32cd" stroke-dasharray="5,2" d="M1107.08,-108.369C1124.47,-138.465 1159.18,-198.754 1188,-250.239 1198.19,-268.449 1209.84,-289.814 1216.52,-302.114"/>
<polygon fill="#9a32cd" stroke="#9a32cd" points="1109.91,-106.28 1101.87,-99.3756 1103.85,-109.784 1109.91,-106.28"/>
<text text-anchor="middle" x="1167" y="-253.239" font-family="Helvetica,sans-Serif" font-size="10.00"> portmap</text>
</g>
<!-- Node10 -->
<g id="node10" class="node"><title>Node10</title>
<polygon fill="none" stroke="#bfbfbf" points="860.46,-73.2389 860.46,-105.239 969.54,-105.239 969.54,-73.2389 860.46,-73.2389"/>
<text text-anchor="start" x="868.46" y="-92.2389" font-family="Helvetica,sans-Serif" font-size="10.00">std::map&lt; std::string,</text>
<text text-anchor="middle" x="915" y="-80.2389" font-family="Helvetica,sans-Serif" font-size="10.00"> PortInfo &gt;</text>
</g>
<!-- Node10&#45;&gt;Node9 -->
<g id="edge10" class="edge"><title>Node10&#45;&gt;Node9</title>
<path fill="none" stroke="#9a32cd" stroke-dasharray="5,2" d="M979.903,-89.2389C1008.73,-89.2389 1041.38,-89.2389 1064.34,-89.2389"/>
<polygon fill="#9a32cd" stroke="#9a32cd" points="979.889,-85.739 969.889,-89.2389 979.889,-92.739 979.889,-85.739"/>
<text text-anchor="middle" x="1016" y="-92.2389" font-family="Helvetica,sans-Serif" font-size="10.00"> map</text>
</g>
<!-- Node11 -->
<g id="node11" class="node"><title>Node11</title>
<g id="a_node11"><a xlink:title="STL class. ">
<polygon fill="none" stroke="#bfbfbf" points="391.329,-62.2389 391.329,-82.2389 450.671,-82.2389 450.671,-62.2389 391.329,-62.2389"/>
<text text-anchor="middle" x="421" y="-69.2389" font-family="Helvetica,sans-Serif" font-size="10.00">std::string</text>
</a>
</g>
</g>
<!-- Node11&#45;&gt;Node10 -->
<g id="edge11" class="edge"><title>Node11&#45;&gt;Node10</title>
<path fill="none" stroke="#9a32cd" stroke-dasharray="5,2" d="M461.212,-72.2045C499.637,-72.2763 559.859,-72.6701 612,-74.2389 698.971,-76.8555 799.922,-82.3719 860.29,-85.9362"/>
<polygon fill="#9a32cd" stroke="#9a32cd" points="460.982,-68.7043 450.977,-72.192 460.973,-75.7043 460.982,-68.7043"/>
<text text-anchor="middle" x="690" y="-83.2389" font-family="Helvetica,sans-Serif" font-size="10.00"> keys</text>
</g>
<!-- Node11&#45;&gt;Node13 -->
<g id="edge22" class="edge"><title>Node11&#45;&gt;Node13</title>
<path fill="none" stroke="#9a32cd" stroke-dasharray="5,2" d="M461.072,-71.75C500.973,-72.7338 563.737,-78.4668 612,-102.239 642.571,-117.297 669.169,-148.714 681.571,-164.983"/>
<polygon fill="#9a32cd" stroke="#9a32cd" points="461.004,-68.2486 450.95,-71.5906 460.894,-75.2477 461.004,-68.2486"/>
<text text-anchor="middle" x="560" y="-117.239" font-family="Helvetica,sans-Serif" font-size="10.00"> my_name</text>
<text text-anchor="middle" x="560" y="-105.239" font-family="Helvetica,sans-Serif" font-size="10.00">other_name</text>
</g>
<!-- Node12 -->
<g id="node12" class="node"><title>Node12</title>
<g id="a_node12"><a xlink:title="STL class. ">
<polygon fill="none" stroke="#bfbfbf" points="109.962,-31.2389 109.962,-63.2389 204.038,-63.2389 204.038,-31.2389 109.962,-31.2389"/>
<text text-anchor="start" x="117.962" y="-50.2389" font-family="Helvetica,sans-Serif" font-size="10.00">std::basic_string&lt;</text>
<text text-anchor="middle" x="157" y="-38.2389" font-family="Helvetica,sans-Serif" font-size="10.00"> char &gt;</text>
</a>
</g>
</g>
<!-- Node12&#45;&gt;Node11 -->
<g id="edge12" class="edge"><title>Node12&#45;&gt;Node11</title>
<path fill="none" stroke="midnightblue" d="M214.411,-52.6216C268.775,-57.809 348.842,-65.4489 391.228,-69.4934"/>
<polygon fill="midnightblue" stroke="midnightblue" points="214.525,-49.1166 204.237,-51.6508 213.86,-56.085 214.525,-49.1166"/>
</g>
<!-- Node13&#45;&gt;Node10 -->
<g id="edge13" class="edge"><title>Node13&#45;&gt;Node10</title>
<path fill="none" stroke="#9a32cd" stroke-dasharray="5,2" d="M725.205,-162.048C764.81,-146.774 830.031,-121.621 872.501,-105.243"/>
<polygon fill="#9a32cd" stroke="#9a32cd" points="723.788,-158.843 715.717,-165.707 726.307,-165.374 723.788,-158.843"/>
<text text-anchor="middle" x="805" y="-147.239" font-family="Helvetica,sans-Serif" font-size="10.00"> elements</text>
</g>
<!-- Node14 -->
<g id="node14" class="node"><title>Node14</title>
<polygon fill="none" stroke="#bfbfbf" points="388.824,-23.2389 388.824,-43.2389 453.176,-43.2389 453.176,-23.2389 388.824,-23.2389"/>
<text text-anchor="middle" x="421" y="-30.2389" font-family="Helvetica,sans-Serif" font-size="10.00">type_index</text>
</g>
<!-- Node14&#45;&gt;Node13 -->
<g id="edge14" class="edge"><title>Node14&#45;&gt;Node13</title>
<path fill="none" stroke="#9a32cd" stroke-dasharray="5,2" d="M463.377,-29.807C504.237,-28.4388 566.973,-31.9481 612,-60.2389 632.854,-73.3413 669.685,-139.203 683.533,-164.925"/>
<polygon fill="#9a32cd" stroke="#9a32cd" points="463.062,-26.3175 453.229,-30.2621 463.376,-33.3105 463.062,-26.3175"/>
<text text-anchor="middle" x="560" y="-63.2389" font-family="Helvetica,sans-Serif" font-size="10.00"> type</text>
</g>
<!-- Node15 -->
<g id="node15" class="node"><title>Node15</title>
<polygon fill="none" stroke="#bfbfbf" points="352.012,-102.239 352.012,-134.239 489.988,-134.239 489.988,-102.239 352.012,-102.239"/>
<text text-anchor="start" x="360.012" y="-121.239" font-family="Helvetica,sans-Serif" font-size="10.00">std::map&lt; Type::RingBuffer</text>
<text text-anchor="middle" x="421" y="-109.239" font-family="Helvetica,sans-Serif" font-size="10.00">Type, instr_map_t * &gt;</text>
</g>
<!-- Node15&#45;&gt;Node13 -->
<g id="edge15" class="edge"><title>Node15&#45;&gt;Node13</title>
<path fill="none" stroke="#9a32cd" stroke-dasharray="5,2" d="M500.227,-128.764C534.734,-134.086 575.629,-141.323 612,-150.239 629.746,-154.589 649.325,-160.968 664.299,-166.193"/>
<polygon fill="#9a32cd" stroke="#9a32cd" points="500.617,-125.283 490.205,-127.244 499.568,-132.204 500.617,-125.283"/>
<text text-anchor="middle" x="560" y="-153.239" font-family="Helvetica,sans-Serif" font-size="10.00"> const_map</text>
</g>
<!-- Node16 -->
<g id="node16" class="node"><title>Node16</title>
<g id="a_node16"><a xlink:title="STL class. ">
<polygon fill="none" stroke="#bfbfbf" points="112.043,-98.2389 112.043,-118.239 201.957,-118.239 201.957,-98.2389 112.043,-98.2389"/>
<text text-anchor="middle" x="157" y="-105.239" font-family="Helvetica,sans-Serif" font-size="10.00">std::map&lt; K, T &gt;</text>
</a>
</g>
</g>
<!-- Node16&#45;&gt;Node15 -->
<g id="edge16" class="edge"><title>Node16&#45;&gt;Node15</title>
<path fill="none" stroke="#9a32cd" stroke-dasharray="5,2" d="M212.372,-110.314C252.905,-111.861 308.53,-113.984 352.005,-115.644"/>
<polygon fill="#9a32cd" stroke="#9a32cd" points="212.275,-106.808 202.148,-109.924 212.008,-113.803 212.275,-106.808"/>
<text text-anchor="middle" x="278" y="-118.239" font-family="Helvetica,sans-Serif" font-size="10.00"> elements</text>
</g>
<!-- Node16&#45;&gt;Node15 -->
<g id="edge20" class="edge"><title>Node16&#45;&gt;Node15</title>
<path fill="none" stroke="orange" stroke-dasharray="5,2" d="M187.424,-94.1007C198.063,-89.7047 210.332,-85.4368 222,-83.2389 270.917,-74.0237 285.307,-72.9054 334,-83.2389 342.564,-85.0562 343.93,-87.845 352,-91.2389 360.665,-94.8827 370.002,-98.676 378.899,-102.228"/>
<polygon fill="orange" stroke="orange" points="185.953,-90.9237 178.175,-98.1182 188.741,-97.3441 185.953,-90.9237"/>
<text text-anchor="start" x="222.291" y="-98.2389" font-family="Helvetica,sans-Serif" font-size="10.00"> &lt; Type::RingBufferType,</text>
<text text-anchor="middle" x="278" y="-86.2389" font-family="Helvetica,sans-Serif" font-size="10.00"> instr_map_t * &gt;</text>
</g>
<!-- Node16&#45;&gt;Node10 -->
<g id="edge28" class="edge"><title>Node16&#45;&gt;Node10</title>
<path fill="none" stroke="orange" stroke-dasharray="5,2" d="M180.676,-92.5393C215.565,-69.4857 285.378,-27.6496 352,-13.2389 543.021,28.08 775.702,-40.3712 870.589,-73.2053"/>
<polygon fill="orange" stroke="orange" points="178.539,-89.7579 172.186,-98.2367 182.44,-95.5703 178.539,-89.7579"/>
<text text-anchor="middle" x="560" y="-13.2389" font-family="Helvetica,sans-Serif" font-size="10.00"> &lt; std::string, PortInfo &gt;</text>
</g>
<!-- Node17 -->
<g id="node17" class="node"><title>Node17</title>
<polygon fill="none" stroke="#bfbfbf" points="0.5,-273.239 0.5,-293.239 29.5,-293.239 29.5,-273.239 0.5,-273.239"/>
<text text-anchor="middle" x="15" y="-280.239" font-family="Helvetica,sans-Serif" font-size="10.00">K</text>
</g>
<!-- Node17&#45;&gt;Node16 -->
<g id="edge17" class="edge"><title>Node17&#45;&gt;Node16</title>
<path fill="none" stroke="#9a32cd" stroke-dasharray="5,2" d="M25.8685,-264.231C41.2816,-235.671 73.1505,-180.921 110,-142.239 118.768,-133.035 130.268,-124.535 139.576,-118.336"/>
<polygon fill="#9a32cd" stroke="#9a32cd" points="22.7199,-262.697 21.1218,-273.171 28.9025,-265.98 22.7199,-262.697"/>
<text text-anchor="middle" x="70" y="-225.239" font-family="Helvetica,sans-Serif" font-size="10.00"> keys</text>
</g>
<!-- Node24 -->
<g id="node24" class="node"><title>Node24</title>
<g id="a_node24"><a xlink:title="STL class. ">
<polygon fill="none" stroke="#bfbfbf" points="241.93,-427.239 241.93,-447.239 314.07,-447.239 314.07,-427.239 241.93,-427.239"/>
<text text-anchor="middle" x="278" y="-434.239" font-family="Helvetica,sans-Serif" font-size="10.00">std::set&lt; K &gt;</text>
</a>
</g>
</g>
<!-- Node17&#45;&gt;Node24 -->
<g id="edge32" class="edge"><title>Node17&#45;&gt;Node24</title>
<path fill="none" stroke="#9a32cd" stroke-dasharray="5,2" d="M29.0883,-301.528C45.6225,-323.392 76.047,-359.72 110,-381.239 151.456,-407.513 206.573,-422.853 241.926,-430.643"/>
<polygon fill="#9a32cd" stroke="#9a32cd" points="31.8318,-299.351 23.0723,-293.391 26.2031,-303.513 31.8318,-299.351"/>
<text text-anchor="middle" x="70" y="-370.239" font-family="Helvetica,sans-Serif" font-size="10.00"> keys</text>
</g>
<!-- Node18 -->
<g id="node18" class="node"><title>Node18</title>
<polygon fill="none" stroke="#bfbfbf" points="0.5,-98.2389 0.5,-118.239 29.5,-118.239 29.5,-98.2389 0.5,-98.2389"/>
<text text-anchor="middle" x="15" y="-105.239" font-family="Helvetica,sans-Serif" font-size="10.00">T</text>
</g>
<!-- Node18&#45;&gt;Node16 -->
<g id="edge18" class="edge"><title>Node18&#45;&gt;Node16</title>
<path fill="none" stroke="#9a32cd" stroke-dasharray="5,2" d="M39.9163,-108.239C59.6521,-108.239 88.1832,-108.239 112.021,-108.239"/>
<polygon fill="#9a32cd" stroke="#9a32cd" points="39.6787,-104.739 29.6787,-108.239 39.6787,-111.739 39.6787,-104.739"/>
<text text-anchor="middle" x="70" y="-111.239" font-family="Helvetica,sans-Serif" font-size="10.00"> elements</text>
</g>
<!-- Node19 -->
<g id="node19" class="node"><title>Node19</title>
<polygon fill="none" stroke="#bfbfbf" points="114.272,-152.239 114.272,-172.239 199.728,-172.239 199.728,-152.239 114.272,-152.239"/>
<text text-anchor="middle" x="157" y="-159.239" font-family="Helvetica,sans-Serif" font-size="10.00">RingBufferType</text>
</g>
<!-- Node19&#45;&gt;Node15 -->
<g id="edge19" class="edge"><title>Node19&#45;&gt;Node15</title>
<path fill="none" stroke="#9a32cd" stroke-dasharray="5,2" d="M209.774,-153.544C250.437,-146.715 307.412,-137.147 351.793,-129.694"/>
<polygon fill="#9a32cd" stroke="#9a32cd" points="209.087,-150.11 199.804,-155.218 210.246,-157.014 209.087,-150.11"/>
<text text-anchor="middle" x="278" y="-153.239" font-family="Helvetica,sans-Serif" font-size="10.00"> keys</text>
</g>
<!-- Node20 -->
<g id="node20" class="node"><title>Node20</title>
<polygon fill="none" stroke="#bfbfbf" points="139.552,-222.239 139.552,-242.239 174.448,-242.239 174.448,-222.239 139.552,-222.239"/>
<text text-anchor="middle" x="157" y="-229.239" font-family="Helvetica,sans-Serif" font-size="10.00">bool</text>
</g>
<!-- Node20&#45;&gt;Node13 -->
<g id="edge21" class="edge"><title>Node20&#45;&gt;Node13</title>
<path fill="none" stroke="#9a32cd" stroke-dasharray="5,2" d="M184.873,-236.281C256.237,-246.025 455.729,-266.791 612,-221.239 636.966,-213.961 662.127,-196.603 676.604,-185.414"/>
<polygon fill="#9a32cd" stroke="#9a32cd" points="184.937,-232.755 174.546,-234.824 183.959,-239.687 184.937,-232.755"/>
<text text-anchor="middle" x="421" y="-264.239" font-family="Helvetica,sans-Serif" font-size="10.00"> use_my_allocator</text>
<text text-anchor="middle" x="421" y="-252.239" font-family="Helvetica,sans-Serif" font-size="10.00">out_of_order</text>
</g>
<!-- Node21 -->
<g id="node21" class="node"><title>Node21</title>
<g id="a_node21"><a xlink:href="class_f_i_f_o.html" target="_top" xlink:title="FIFO">
<polygon fill="none" stroke="black" points="401.612,-153.239 401.612,-173.239 440.388,-173.239 440.388,-153.239 401.612,-153.239"/>
<text text-anchor="middle" x="421" y="-160.239" font-family="Helvetica,sans-Serif" font-size="10.00">FIFO</text>
</a>
</g>
</g>
<!-- Node20&#45;&gt;Node21 -->
<g id="edge24" class="edge"><title>Node20&#45;&gt;Node21</title>
<path fill="none" stroke="#9a32cd" stroke-dasharray="5,2" d="M184.481,-225.265C237.48,-211.307 355.434,-180.243 401.273,-168.171"/>
<polygon fill="#9a32cd" stroke="#9a32cd" points="183.567,-221.886 174.788,-227.818 185.349,-228.655 183.567,-221.886"/>
<text text-anchor="middle" x="278" y="-216.239" font-family="Helvetica,sans-Serif" font-size="10.00"> valid</text>
</g>
<!-- Node21&#45;&gt;Node13 -->
<g id="edge23" class="edge"><title>Node21&#45;&gt;Node13</title>
<path fill="none" stroke="#9a32cd" stroke-dasharray="5,2" d="M450.797,-164.533C503.499,-166.902 614.601,-171.895 664.189,-174.124"/>
<polygon fill="#9a32cd" stroke="#9a32cd" points="450.922,-161.035 440.775,-164.083 450.608,-168.028 450.922,-161.035"/>
<text text-anchor="middle" x="560" y="-186.239" font-family="Helvetica,sans-Serif" font-size="10.00"> fifo_a</text>
<text text-anchor="middle" x="560" y="-174.239" font-family="Helvetica,sans-Serif" font-size="10.00">fifo_b</text>
</g>
<!-- Node22 -->
<g id="node22" class="node"><title>Node22</title>
<polygon fill="none" stroke="#bfbfbf" points="400.498,-192.239 400.498,-212.239 441.502,-212.239 441.502,-192.239 400.498,-192.239"/>
<text text-anchor="middle" x="421" y="-199.239" font-family="Helvetica,sans-Serif" font-size="10.00">void *</text>
</g>
<!-- Node22&#45;&gt;Node13 -->
<g id="edge27" class="edge"><title>Node22&#45;&gt;Node13</title>
<path fill="none" stroke="#9a32cd" stroke-dasharray="5,2" d="M451.835,-204.382C489.448,-206.487 555.966,-208.222 612,-199.239 629.974,-196.357 649.549,-190.213 664.464,-184.864"/>
<polygon fill="#9a32cd" stroke="#9a32cd" points="451.774,-200.872 441.58,-203.758 451.349,-207.859 451.774,-200.872"/>
<text text-anchor="middle" x="560" y="-208.239" font-family="Helvetica,sans-Serif" font-size="10.00"> existing_buffer</text>
</g>
<!-- Node23 -->
<g id="node23" class="node"><title>Node23</title>
<polygon fill="none" stroke="#bfbfbf" points="893.387,-34.2389 893.387,-54.2389 936.613,-54.2389 936.613,-34.2389 893.387,-34.2389"/>
<text text-anchor="middle" x="915" y="-41.2389" font-family="Helvetica,sans-Serif" font-size="10.00">mutex</text>
</g>
<!-- Node23&#45;&gt;Node9 -->
<g id="edge29" class="edge"><title>Node23&#45;&gt;Node9</title>
<path fill="none" stroke="#9a32cd" stroke-dasharray="5,2" d="M947.008,-50.4757C973.047,-55.901 1011.15,-64.2811 1044,-73.2389 1050.59,-75.0374 1057.62,-77.1555 1064.25,-79.2514"/>
<polygon fill="#9a32cd" stroke="#9a32cd" points="947.479,-46.9992 936.978,-48.4077 946.066,-53.855 947.479,-46.9992"/>
<text text-anchor="middle" x="1016" y="-76.2389" font-family="Helvetica,sans-Serif" font-size="10.00"> map_mutex</text>
</g>
<!-- Node24&#45;&gt;Node3 -->
<g id="edge31" class="edge"><title>Node24&#45;&gt;Node3</title>
<path fill="none" stroke="orange" stroke-dasharray="5,2" d="M324.692,-437.279C388.888,-437.138 509.419,-436.155 612,-431.239 617.893,-430.956 624.035,-430.594 630.166,-430.187"/>
<polygon fill="orange" stroke="orange" points="324.501,-433.779 314.507,-437.295 324.512,-440.779 324.501,-433.779"/>
<text text-anchor="middle" x="421" y="-439.239" font-family="Helvetica,sans-Serif" font-size="10.00"> &lt; raft::kernel * &gt;</text>
</g>
</g>
</svg>
        <g id="navigator" transform="translate(0 0)" fill="#404254">
                <rect fill="#f2f5e9" fill-opacity="0.5" stroke="#606060" stroke-width=".5" x="0" y="0" width="60" height="60"/>
                <use id="zoomplus" xlink:href="#zoomPlus" x="17" y="9" onmousedown="handleZoom(evt,'in')"/>
                <use id="zoomminus" xlink:href="#zoomMin" x="42" y="9" onmousedown="handleZoom(evt,'out')"/>
                <use id="reset" xlink:href="#resetDef" x="30" y="36" onmousedown="handleReset()"/>
                <g id="arrowUp" xlink:href="#dirArrow" transform="translate(30 24)" onmousedown="handlePan(0,-1)">
                  <use xlink:href="#rim" fill="#404040">
                        <set attributeName="fill" to="#808080" begin="arrowUp.mouseover" end="arrowUp.mouseout"/>
                  </use>
                  <path fill="none" stroke="white" stroke-width="1.5" d="M0,-3.0v7 M-2.5,-0.5L0,-3.0L2.5,-0.5"/>
                </g>
                <g id="arrowRight" xlink:href="#dirArrow" transform="rotate(90) translate(36 -43)" onmousedown="handlePan(1,0)">
                  <use xlink:href="#rim" fill="#404040">
                        <set attributeName="fill" to="#808080" begin="arrowRight.mouseover" end="arrowRight.mouseout"/>
                  </use>
                  <path fill="none" stroke="white" stroke-width="1.5" d="M0,-3.0v7 M-2.5,-0.5L0,-3.0L2.5,-0.5"/>
                </g>
                <g id="arrowDown" xlink:href="#dirArrow" transform="rotate(180) translate(-30 -48)" onmousedown="handlePan(0,1)">
                  <use xlink:href="#rim" fill="#404040">
                        <set attributeName="fill" to="#808080" begin="arrowDown.mouseover" end="arrowDown.mouseout"/>
                  </use>
                  <path fill="none" stroke="white" stroke-width="1.5" d="M0,-3.0v7 M-2.5,-0.5L0,-3.0L2.5,-0.5"/>
                </g>
                <g id="arrowLeft" xlink:href="#dirArrow" transform="rotate(270) translate(-36 17)" onmousedown="handlePan(-1,0)">
                  <use xlink:href="#rim" fill="#404040">
                        <set attributeName="fill" to="#808080" begin="arrowLeft.mouseover" end="arrowLeft.mouseout"/>
                  </use>
                  <path fill="none" stroke="white" stroke-width="1.5" d="M0,-3.0v7 M-2.5,-0.5L0,-3.0L2.5,-0.5"/>
                </g>
        </g>
        <svg viewBox="0 0 15 15" width="100%" height="30px" preserveAspectRatio="xMaxYMin meet">
         <g id="arrow_out" transform="scale(0.3 0.3)">
          <a xlink:href="class_sub_map__coll__graph_org.svg" target="_base">
           <rect id="button" ry="5" rx="5" y="6" x="6" height="38" width="38"
                fill="#f2f5e9" fill-opacity="0.5" stroke="#606060" stroke-width="1.0"/>
           <path id="arrow"
             d="M 11.500037,31.436501 C 11.940474,20.09759 22.043105,11.32322 32.158766,21.979434 L 37.068811,17.246167 C 37.068811,17.246167 37.088388,32 37.088388,32 L 22.160133,31.978069 C 22.160133,31.978069 26.997745,27.140456 26.997745,27.140456 C 18.528582,18.264221 13.291696,25.230495 11.500037,31.436501 z"
             style="fill:#404040;"/>
          </a>
         </g>
        </svg>
</svg>
