<?xml version="1.0" encoding="UTF-8" standalone="no"?>
<!DOCTYPE svg PUBLIC "-//W3C//DTD SVG 1.1//EN"
 "http://www.w3.org/Graphics/SVG/1.1/DTD/svg11.dtd">
<!-- Generated by graphviz version 2.30.1 (20130404.1610)
 -->
<!-- Title: print&lt; T &gt; Pages: 1 -->
<!--zoomable 562 -->
<svg id="main" version="1.1" xmlns="http://www.w3.org/2000/svg" xmlns:xlink="http://www.w3.org/1999/xlink" xml:space="preserve" onload="init(evt)">
<style type="text/css"><![CDATA[
.edge:hover path { stroke: red; }
.edge:hover polygon { stroke: red; fill: red; }
]]></style>
<script type="text/javascript"><![CDATA[
var edges = document.getElementsByTagName('g');
if (edges && edges.length) {
  for (var i=0;i<edges.length;i++) {
    if (edges[i].id.substr(0,4)=='edge') {
      edges[i].setAttribute('class','edge');
    }
  }
}
]]></script>
        <defs>
                <circle id="rim" cx="0" cy="0" r="7"/>
                <circle id="rim2" cx="0" cy="0" r="3.5"/>
                <g id="zoomPlus">
                        <use xlink:href="#rim" fill="#404040">
                                <set attributeName="fill" to="#808080" begin="zoomplus.mouseover" end="zoomplus.mouseout"/>
                        </use>
                        <path d="M-4,0h8M0,-4v8" fill="none" stroke="white" stroke-width="1.5" pointer-events="none"/>
                </g>
                <g id="zoomMin">
                        <use xlink:href="#rim" fill="#404040">
                                <set attributeName="fill" to="#808080" begin="zoomminus.mouseover" end="zoomminus.mouseout"/>
                        </use>
                        <path d="M-4,0h8" fill="none" stroke="white" stroke-width="1.5" pointer-events="none"/>
                </g>
                <g id="dirArrow">
                        <path fill="none" stroke="white" stroke-width="1.5" d="M0,-3.0v7 M-2.5,-0.5L0,-3.0L2.5,-0.5"/>
                </g>
               <g id="resetDef">
                       <use xlink:href="#rim2" fill="#404040">
                               <set attributeName="fill" to="#808080" begin="reset.mouseover" end="reset.mouseout"/>
                       </use>
               </g>
        </defs>

<script type="text/javascript">
var viewWidth = 1188;
var viewHeight = 562;
var sectionId = 'dynsection-1';
</script>
<script xlink:href="svgpan.js"/>
<svg id="graph" class="graph">
<g id="viewport">
<title>print&lt; T &gt;</title>
<!-- Node1 -->
<g id="node1" class="node"><title>Node1</title>
<polygon fill="#bfbfbf" stroke="black" points="630.605,-481.368 630.605,-501.368 689.395,-501.368 689.395,-481.368 630.605,-481.368"/>
<text text-anchor="middle" x="660" y="-488.368" font-family="Helvetica,sans-Serif" font-size="10.00">print&lt; T &gt;</text>
</g>
<!-- Node2 -->
<g id="node2" class="node"><title>Node2</title>
<g id="a_node2"><a xlink:href="classraft_1_1kernel.html" target="_top" xlink:title="raft::kernel">
<polygon fill="none" stroke="black" points="389.385,-454.368 389.385,-474.368 452.615,-474.368 452.615,-454.368 389.385,-454.368"/>
<text text-anchor="middle" x="421" y="-461.368" font-family="Helvetica,sans-Serif" font-size="10.00">raft::kernel</text>
</a>
</g>
</g>
<!-- Node2&#45;&gt;Node1 -->
<g id="edge1" class="edge"><title>Node2&#45;&gt;Node1</title>
<path fill="none" stroke="midnightblue" d="M463.017,-469.04C510.923,-474.498 588.912,-483.383 630.6,-488.132"/>
<polygon fill="midnightblue" stroke="midnightblue" points="463.316,-465.552 452.984,-467.897 462.523,-472.507 463.316,-465.552"/>
</g>
<!-- Node11 -->
<g id="node11" class="node"><title>Node11</title>
<g id="a_node11"><a xlink:href="struct_port_info.html" target="_top" xlink:title="PortInfo">
<polygon fill="none" stroke="black" points="634.494,-213.368 634.494,-233.368 685.506,-233.368 685.506,-213.368 634.494,-213.368"/>
<text text-anchor="middle" x="660" y="-220.368" font-family="Helvetica,sans-Serif" font-size="10.00">PortInfo</text>
</a>
</g>
</g>
<!-- Node2&#45;&gt;Node11 -->
<g id="edge24" class="edge"><title>Node2&#45;&gt;Node11</title>
<path fill="none" stroke="#9a32cd" stroke-dasharray="5,2" d="M448.37,-449.232C497.811,-420.657 600.513,-360.289 612,-345.368 628.465,-323.981 620.411,-312.598 630,-287.368 637.367,-267.983 647.738,-246.121 653.875,-233.62"/>
<polygon fill="#9a32cd" stroke="#9a32cd" points="446.427,-446.312 439.513,-454.34 449.924,-452.376 446.427,-446.312"/>
<text text-anchor="middle" x="560" y="-427.368" font-family="Helvetica,sans-Serif" font-size="10.00"> my_kernel</text>
<text text-anchor="middle" x="560" y="-415.368" font-family="Helvetica,sans-Serif" font-size="10.00">other_kernel</text>
</g>
<!-- Node4 -->
<g id="node4" class="node"><title>Node4</title>
<g id="a_node4"><a xlink:href="class_port.html" target="_top" xlink:title="Port">
<polygon fill="none" stroke="black" points="1145.83,-376.368 1145.83,-396.368 1180.17,-396.368 1180.17,-376.368 1145.83,-376.368"/>
<text text-anchor="middle" x="1163" y="-383.368" font-family="Helvetica,sans-Serif" font-size="10.00">Port</text>
</a>
</g>
</g>
<!-- Node2&#45;&gt;Node4 -->
<g id="edge28" class="edge"><title>Node2&#45;&gt;Node4</title>
<path fill="none" stroke="#9a32cd" stroke-dasharray="5,2" d="M462.779,-461.047C509.977,-457.495 590.057,-452.368 659,-452.368 659,-452.368 659,-452.368 1036,-452.368 1079.29,-452.368 1091.32,-443.366 1128,-420.368 1138.18,-413.982 1147.67,-404.022 1154.02,-396.53"/>
<polygon fill="#9a32cd" stroke="#9a32cd" points="462.357,-457.569 452.654,-461.823 462.892,-464.548 462.357,-457.569"/>
<text text-anchor="middle" x="855" y="-455.368" font-family="Helvetica,sans-Serif" font-size="10.00"> kernel</text>
</g>
<!-- Node2&#45;&gt;Node1 -->
<g id="edge29" class="edge"><title>Node2&#45;&gt;Node1</title>
<path fill="none" stroke="midnightblue" d="M460.778,-477.429C475.403,-481.759 492.3,-486.059 508,-488.368 550.285,-494.586 599.939,-494.102 630.436,-492.929"/>
<polygon fill="midnightblue" stroke="midnightblue" points="461.645,-474.034 451.059,-474.451 459.594,-480.727 461.645,-474.034"/>
</g>
<!-- Node3 -->
<g id="node3" class="node"><title>Node3</title>
<polygon fill="none" stroke="#bfbfbf" points="135.942,-396.368 135.942,-416.368 178.058,-416.368 178.058,-396.368 135.942,-396.368"/>
<text text-anchor="middle" x="157" y="-403.368" font-family="Helvetica,sans-Serif" font-size="10.00">size_t</text>
</g>
<!-- Node3&#45;&gt;Node2 -->
<g id="edge2" class="edge"><title>Node3&#45;&gt;Node2</title>
<path fill="none" stroke="#9a32cd" stroke-dasharray="5,2" d="M188.027,-413.015C238.173,-424.116 338.444,-446.313 389.139,-457.536"/>
<polygon fill="#9a32cd" stroke="#9a32cd" points="188.644,-409.567 178.124,-410.822 187.131,-416.401 188.644,-409.567"/>
<text text-anchor="middle" x="278" y="-447.368" font-family="Helvetica,sans-Serif" font-size="10.00"> kernel_count</text>
</g>
<!-- Node3&#45;&gt;Node4 -->
<g id="edge6" class="edge"><title>Node3&#45;&gt;Node4</title>
<path fill="none" stroke="#9a32cd" stroke-dasharray="5,2" d="M188.593,-406.368C237.488,-406.368 336.27,-406.368 420,-406.368 420,-406.368 420,-406.368 1036,-406.368 1075.87,-406.368 1121.96,-396.48 1145.82,-390.609"/>
<polygon fill="#9a32cd" stroke="#9a32cd" points="188.383,-402.868 178.383,-406.368 188.383,-409.868 188.383,-402.868"/>
<text text-anchor="middle" x="745" y="-409.368" font-family="Helvetica,sans-Serif" font-size="10.00"> alloc_ptr_length</text>
</g>
<!-- Node3&#45;&gt;Node11 -->
<g id="edge23" class="edge"><title>Node3&#45;&gt;Node11</title>
<path fill="none" stroke="#9a32cd" stroke-dasharray="5,2" d="M187.997,-399.553C287.838,-376.83 603.138,-304.725 612,-298.368 623.987,-289.769 644.431,-251.881 653.904,-233.474"/>
<polygon fill="#9a32cd" stroke="#9a32cd" points="187.204,-396.144 178.23,-401.775 188.757,-402.969 187.204,-396.144"/>
<text text-anchor="middle" x="421" y="-376.368" font-family="Helvetica,sans-Serif" font-size="10.00"> nitems</text>
<text text-anchor="middle" x="421" y="-364.368" font-family="Helvetica,sans-Serif" font-size="10.00">start_index</text>
</g>
<!-- Node4&#45;&gt;Node2 -->
<g id="edge3" class="edge"><title>Node4&#45;&gt;Node2</title>
<path fill="none" stroke="#9a32cd" stroke-dasharray="5,2" d="M1156.86,-406.518C1151.71,-423.78 1142.44,-448.595 1128,-466.368 1096.59,-505.022 1085.81,-530.368 1036,-530.368 659,-530.368 659,-530.368 659,-530.368 590.975,-530.368 572.896,-525.761 508,-505.368 483.226,-497.583 456.493,-483.926 439.522,-474.527"/>
<polygon fill="#9a32cd" stroke="#9a32cd" points="1160.37,-406.987 1159.67,-396.415 1153.62,-405.115 1160.37,-406.987"/>
<text text-anchor="middle" x="855" y="-545.368" font-family="Helvetica,sans-Serif" font-size="10.00"> output</text>
<text text-anchor="middle" x="855" y="-533.368" font-family="Helvetica,sans-Serif" font-size="10.00">input</text>
</g>
<!-- Node5 -->
<g id="node5" class="node"><title>Node5</title>
<g id="a_node5"><a xlink:href="class_port_base.html" target="_top" xlink:title="PortBase">
<polygon fill="none" stroke="black" points="1006.44,-357.368 1006.44,-377.368 1063.56,-377.368 1063.56,-357.368 1006.44,-357.368"/>
<text text-anchor="middle" x="1035" y="-364.368" font-family="Helvetica,sans-Serif" font-size="10.00">PortBase</text>
</a>
</g>
</g>
<!-- Node5&#45;&gt;Node4 -->
<g id="edge4" class="edge"><title>Node5&#45;&gt;Node4</title>
<path fill="none" stroke="midnightblue" d="M1073.84,-373.073C1097.77,-376.682 1127.5,-381.165 1145.59,-383.894"/>
<polygon fill="midnightblue" stroke="midnightblue" points="1074.06,-369.568 1063.65,-371.537 1073.02,-376.489 1074.06,-369.568"/>
</g>
<!-- Node6 -->
<g id="node6" class="node"><title>Node6</title>
<polygon fill="none" stroke="#bfbfbf" points="1002.55,-318.368 1002.55,-338.368 1067.45,-338.368 1067.45,-318.368 1002.55,-318.368"/>
<text text-anchor="middle" x="1035" y="-325.368" font-family="Helvetica,sans-Serif" font-size="10.00">void *const</text>
</g>
<!-- Node6&#45;&gt;Node4 -->
<g id="edge5" class="edge"><title>Node6&#45;&gt;Node4</title>
<path fill="none" stroke="#9a32cd" stroke-dasharray="5,2" d="M1077.58,-339.033C1093.83,-344.051 1112.3,-350.832 1128,-359.368 1136.48,-363.977 1144.98,-370.727 1151.36,-376.325"/>
<polygon fill="#9a32cd" stroke="#9a32cd" points="1078.37,-335.617 1067.79,-336.138 1076.38,-342.33 1078.37,-335.617"/>
<text text-anchor="middle" x="1107" y="-362.368" font-family="Helvetica,sans-Serif" font-size="10.00"> alloc_ptr</text>
</g>
<!-- Node7 -->
<g id="node7" class="node"><title>Node7</title>
<g id="a_node7"><a xlink:href="structportmap__t.html" target="_top" xlink:title="portmap_t">
<polygon fill="none" stroke="black" points="1004.49,-276.368 1004.49,-296.368 1065.51,-296.368 1065.51,-276.368 1004.49,-276.368"/>
<text text-anchor="middle" x="1035" y="-283.368" font-family="Helvetica,sans-Serif" font-size="10.00">portmap_t</text>
</a>
</g>
</g>
<!-- Node7&#45;&gt;Node4 -->
<g id="edge7" class="edge"><title>Node7&#45;&gt;Node4</title>
<path fill="none" stroke="#9a32cd" stroke-dasharray="5,2" d="M1075.16,-297.114C1092.83,-303.441 1113.03,-312.902 1128,-326.368 1143.49,-340.302 1153.63,-363.013 1158.54,-376.132"/>
<polygon fill="#9a32cd" stroke="#9a32cd" points="1076.25,-293.789 1065.66,-293.916 1074.02,-300.423 1076.25,-293.789"/>
<text text-anchor="middle" x="1107" y="-329.368" font-family="Helvetica,sans-Serif" font-size="10.00"> portmap</text>
</g>
<!-- Node8 -->
<g id="node8" class="node"><title>Node8</title>
<polygon fill="none" stroke="#bfbfbf" points="800.46,-215.368 800.46,-247.368 909.54,-247.368 909.54,-215.368 800.46,-215.368"/>
<text text-anchor="start" x="808.46" y="-234.368" font-family="Helvetica,sans-Serif" font-size="10.00">std::map&lt; std::string,</text>
<text text-anchor="middle" x="855" y="-222.368" font-family="Helvetica,sans-Serif" font-size="10.00"> PortInfo &gt;</text>
</g>
<!-- Node8&#45;&gt;Node7 -->
<g id="edge8" class="edge"><title>Node8&#45;&gt;Node7</title>
<path fill="none" stroke="#9a32cd" stroke-dasharray="5,2" d="M918.95,-250.357C939.686,-256.663 962.847,-263.761 984,-270.368 990.612,-272.433 997.705,-274.682 1004.41,-276.824"/>
<polygon fill="#9a32cd" stroke="#9a32cd" points="919.883,-246.983 909.298,-247.425 917.849,-253.68 919.883,-246.983"/>
<text text-anchor="middle" x="956" y="-273.368" font-family="Helvetica,sans-Serif" font-size="10.00"> map</text>
</g>
<!-- Node9 -->
<g id="node9" class="node"><title>Node9</title>
<g id="a_node9"><a xlink:title="STL class. ">
<polygon fill="none" stroke="#bfbfbf" points="391.329,-274.368 391.329,-294.368 450.671,-294.368 450.671,-274.368 391.329,-274.368"/>
<text text-anchor="middle" x="421" y="-281.368" font-family="Helvetica,sans-Serif" font-size="10.00">std::string</text>
</a>
</g>
</g>
<!-- Node9&#45;&gt;Node8 -->
<g id="edge9" class="edge"><title>Node9&#45;&gt;Node8</title>
<path fill="none" stroke="#9a32cd" stroke-dasharray="5,2" d="M461.203,-290.449C475.849,-292.44 492.648,-294.39 508,-295.368 554.129,-298.306 566.163,-301.326 612,-295.368 681.6,-286.32 759.696,-263.217 807.869,-247.393"/>
<polygon fill="#9a32cd" stroke="#9a32cd" points="461.362,-286.937 450.971,-289.006 460.384,-293.869 461.362,-286.937"/>
<text text-anchor="middle" x="660" y="-296.368" font-family="Helvetica,sans-Serif" font-size="10.00"> keys</text>
</g>
<!-- Node9&#45;&gt;Node11 -->
<g id="edge20" class="edge"><title>Node9&#45;&gt;Node11</title>
<path fill="none" stroke="#9a32cd" stroke-dasharray="5,2" d="M460.856,-278.422C508.041,-270.956 584.705,-257.963 612,-248.368 622.812,-244.567 634.177,-238.583 643.022,-233.422"/>
<polygon fill="#9a32cd" stroke="#9a32cd" points="460.313,-274.965 450.977,-279.973 461.399,-281.88 460.313,-274.965"/>
<text text-anchor="middle" x="560" y="-285.368" font-family="Helvetica,sans-Serif" font-size="10.00"> my_name</text>
<text text-anchor="middle" x="560" y="-273.368" font-family="Helvetica,sans-Serif" font-size="10.00">other_name</text>
</g>
<!-- Node10 -->
<g id="node10" class="node"><title>Node10</title>
<g id="a_node10"><a xlink:title="STL class. ">
<polygon fill="none" stroke="#bfbfbf" points="109.962,-268.368 109.962,-300.368 204.038,-300.368 204.038,-268.368 109.962,-268.368"/>
<text text-anchor="start" x="117.962" y="-287.368" font-family="Helvetica,sans-Serif" font-size="10.00">std::basic_string&lt;</text>
<text text-anchor="middle" x="157" y="-275.368" font-family="Helvetica,sans-Serif" font-size="10.00"> char &gt;</text>
</a>
</g>
</g>
<!-- Node10&#45;&gt;Node9 -->
<g id="edge10" class="edge"><title>Node10&#45;&gt;Node9</title>
<path fill="none" stroke="midnightblue" d="M214.411,-284.368C268.775,-284.368 348.842,-284.368 391.228,-284.368"/>
<polygon fill="midnightblue" stroke="midnightblue" points="214.237,-280.868 204.237,-284.368 214.237,-287.868 214.237,-280.868"/>
</g>
<!-- Node11&#45;&gt;Node8 -->
<g id="edge11" class="edge"><title>Node11&#45;&gt;Node8</title>
<path fill="none" stroke="#9a32cd" stroke-dasharray="5,2" d="M695.913,-224.815C724.94,-226.018 766.737,-227.751 800.064,-229.132"/>
<polygon fill="#9a32cd" stroke="#9a32cd" points="695.973,-221.314 685.836,-224.397 695.683,-228.308 695.973,-221.314"/>
<text text-anchor="middle" x="745" y="-231.368" font-family="Helvetica,sans-Serif" font-size="10.00"> elements</text>
</g>
<!-- Node12 -->
<g id="node12" class="node"><title>Node12</title>
<polygon fill="none" stroke="#bfbfbf" points="388.824,-94.3676 388.824,-114.368 453.176,-114.368 453.176,-94.3676 388.824,-94.3676"/>
<text text-anchor="middle" x="421" y="-101.368" font-family="Helvetica,sans-Serif" font-size="10.00">type_index</text>
</g>
<!-- Node12&#45;&gt;Node11 -->
<g id="edge12" class="edge"><title>Node12&#45;&gt;Node11</title>
<path fill="none" stroke="#9a32cd" stroke-dasharray="5,2" d="M463.532,-97.4931C504.98,-92.9774 568.584,-92.6635 612,-123.368 642.854,-145.188 654.054,-192.643 657.578,-213.358"/>
<polygon fill="#9a32cd" stroke="#9a32cd" points="463.001,-94.0318 453.498,-98.7153 463.848,-100.98 463.001,-94.0318"/>
<text text-anchor="middle" x="560" y="-126.368" font-family="Helvetica,sans-Serif" font-size="10.00"> type</text>
</g>
<!-- Node13 -->
<g id="node13" class="node"><title>Node13</title>
<polygon fill="none" stroke="#bfbfbf" points="352.012,-43.3676 352.012,-75.3676 489.988,-75.3676 489.988,-43.3676 352.012,-43.3676"/>
<text text-anchor="start" x="360.012" y="-62.3676" font-family="Helvetica,sans-Serif" font-size="10.00">std::map&lt; Type::RingBuffer</text>
<text text-anchor="middle" x="421" y="-50.3676" font-family="Helvetica,sans-Serif" font-size="10.00">Type, instr_map_t * &gt;</text>
</g>
<!-- Node13&#45;&gt;Node11 -->
<g id="edge13" class="edge"><title>Node13&#45;&gt;Node11</title>
<path fill="none" stroke="#9a32cd" stroke-dasharray="5,2" d="M500.798,-49.0919C538.223,-48.4968 581.356,-54.582 612,-79.3676 654.325,-113.601 658.932,-186.623 659.145,-213.323"/>
<polygon fill="#9a32cd" stroke="#9a32cd" points="500.291,-45.6063 490.409,-49.4269 500.517,-52.6027 500.291,-45.6063"/>
<text text-anchor="middle" x="560" y="-82.3676" font-family="Helvetica,sans-Serif" font-size="10.00"> const_map</text>
</g>
<!-- Node14 -->
<g id="node14" class="node"><title>Node14</title>
<g id="a_node14"><a xlink:title="STL class. ">
<polygon fill="none" stroke="#bfbfbf" points="112.043,-20.3676 112.043,-40.3676 201.957,-40.3676 201.957,-20.3676 112.043,-20.3676"/>
<text text-anchor="middle" x="157" y="-27.3676" font-family="Helvetica,sans-Serif" font-size="10.00">std::map&lt; K, T &gt;</text>
</a>
</g>
</g>
<!-- Node14&#45;&gt;Node13 -->
<g id="edge14" class="edge"><title>Node14&#45;&gt;Node13</title>
<path fill="none" stroke="#9a32cd" stroke-dasharray="5,2" d="M187.449,-44.3739C198.091,-48.7579 210.355,-53.0519 222,-55.3676 264.658,-63.8506 313.505,-64.9267 352.008,-63.8447"/>
<polygon fill="#9a32cd" stroke="#9a32cd" points="188.765,-41.1296 178.197,-40.3766 185.988,-47.5555 188.765,-41.1296"/>
<text text-anchor="middle" x="278" y="-67.3676" font-family="Helvetica,sans-Serif" font-size="10.00"> elements</text>
</g>
<!-- Node14&#45;&gt;Node13 -->
<g id="edge18" class="edge"><title>Node14&#45;&gt;Node13</title>
<path fill="none" stroke="orange" stroke-dasharray="5,2" d="M212.163,-24.0451C247.193,-21.2788 293.623,-20.099 334,-27.3676 351.403,-30.5005 369.883,-36.9327 385.234,-43.2141"/>
<polygon fill="orange" stroke="orange" points="211.804,-20.563 202.139,-24.9041 212.402,-27.5374 211.804,-20.563"/>
<text text-anchor="start" x="222.291" y="-42.3676" font-family="Helvetica,sans-Serif" font-size="10.00"> &lt; Type::RingBufferType,</text>
<text text-anchor="middle" x="278" y="-30.3676" font-family="Helvetica,sans-Serif" font-size="10.00"> instr_map_t * &gt;</text>
</g>
<!-- Node14&#45;&gt;Node8 -->
<g id="edge26" class="edge"><title>Node14&#45;&gt;Node8</title>
<path fill="none" stroke="orange" stroke-dasharray="5,2" d="M212.122,-18.7507C299.628,-2.54876 476.092,19.3174 612,-33.3676 715.254,-73.3942 807.619,-175.36 840.882,-215.133"/>
<polygon fill="orange" stroke="orange" points="211.326,-15.3393 202.154,-20.6436 212.632,-22.2164 211.326,-15.3393"/>
<text text-anchor="middle" x="560" y="-36.3676" font-family="Helvetica,sans-Serif" font-size="10.00"> &lt; std::string, PortInfo &gt;</text>
</g>
<!-- Node15 -->
<g id="node15" class="node"><title>Node15</title>
<polygon fill="none" stroke="#bfbfbf" points="0.5,-40.3676 0.5,-60.3676 29.5,-60.3676 29.5,-40.3676 0.5,-40.3676"/>
<text text-anchor="middle" x="15" y="-47.3676" font-family="Helvetica,sans-Serif" font-size="10.00">K</text>
</g>
<!-- Node15&#45;&gt;Node14 -->
<g id="edge15" class="edge"><title>Node15&#45;&gt;Node14</title>
<path fill="none" stroke="#9a32cd" stroke-dasharray="5,2" d="M39.6415,-46.9903C59.3866,-44.1695 88.0723,-40.0716 112.021,-36.6504"/>
<polygon fill="#9a32cd" stroke="#9a32cd" points="39.0832,-43.5344 29.6787,-48.4135 40.0732,-50.4641 39.0832,-43.5344"/>
<text text-anchor="middle" x="70" y="-49.3676" font-family="Helvetica,sans-Serif" font-size="10.00"> keys</text>
</g>
<!-- Node16 -->
<g id="node16" class="node"><title>Node16</title>
<polygon fill="none" stroke="#bfbfbf" points="0.5,-1.36763 0.5,-21.3676 29.5,-21.3676 29.5,-1.36763 0.5,-1.36763"/>
<text text-anchor="middle" x="15" y="-8.36763" font-family="Helvetica,sans-Serif" font-size="10.00">T</text>
</g>
<!-- Node16&#45;&gt;Node14 -->
<g id="edge16" class="edge"><title>Node16&#45;&gt;Node14</title>
<path fill="none" stroke="#9a32cd" stroke-dasharray="5,2" d="M39.5192,-12.007C54.5812,-12.6402 74.5111,-13.8937 92,-16.3676 99.3201,-17.4031 107.049,-18.8153 114.507,-20.3462"/>
<polygon fill="#9a32cd" stroke="#9a32cd" points="39.6361,-8.50908 29.5166,-11.6471 39.3843,-15.5045 39.6361,-8.50908"/>
<text text-anchor="middle" x="70" y="-19.3676" font-family="Helvetica,sans-Serif" font-size="10.00"> elements</text>
</g>
<!-- Node17 -->
<g id="node17" class="node"><title>Node17</title>
<polygon fill="none" stroke="#bfbfbf" points="114.272,-102.368 114.272,-122.368 199.728,-122.368 199.728,-102.368 114.272,-102.368"/>
<text text-anchor="middle" x="157" y="-109.368" font-family="Helvetica,sans-Serif" font-size="10.00">RingBufferType</text>
</g>
<!-- Node17&#45;&gt;Node13 -->
<g id="edge17" class="edge"><title>Node17&#45;&gt;Node13</title>
<path fill="none" stroke="#9a32cd" stroke-dasharray="5,2" d="M209.774,-103.79C244.92,-97.7628 292.391,-89.2222 334,-80.3676 341.216,-78.8321 348.749,-77.1341 356.227,-75.3886"/>
<polygon fill="#9a32cd" stroke="#9a32cd" points="209.013,-100.369 199.743,-105.5 210.189,-107.27 209.013,-100.369"/>
<text text-anchor="middle" x="278" y="-104.368" font-family="Helvetica,sans-Serif" font-size="10.00"> keys</text>
</g>
<!-- Node18 -->
<g id="node18" class="node"><title>Node18</title>
<polygon fill="none" stroke="#bfbfbf" points="139.552,-201.368 139.552,-221.368 174.448,-221.368 174.448,-201.368 139.552,-201.368"/>
<text text-anchor="middle" x="157" y="-208.368" font-family="Helvetica,sans-Serif" font-size="10.00">bool</text>
</g>
<!-- Node18&#45;&gt;Node11 -->
<g id="edge19" class="edge"><title>Node18&#45;&gt;Node11</title>
<path fill="none" stroke="#9a32cd" stroke-dasharray="5,2" d="M184.822,-208.462C241.326,-202.768 376.732,-191.365 490,-199.368 541.732,-203.023 601.71,-212.896 634.486,-218.778"/>
<polygon fill="#9a32cd" stroke="#9a32cd" points="184.191,-205.009 174.603,-209.518 184.91,-211.972 184.191,-205.009"/>
<text text-anchor="middle" x="421" y="-214.368" font-family="Helvetica,sans-Serif" font-size="10.00"> use_my_allocator</text>
<text text-anchor="middle" x="421" y="-202.368" font-family="Helvetica,sans-Serif" font-size="10.00">out_of_order</text>
</g>
<!-- Node19 -->
<g id="node19" class="node"><title>Node19</title>
<g id="a_node19"><a xlink:href="class_f_i_f_o.html" target="_top" xlink:title="FIFO">
<polygon fill="none" stroke="black" points="401.612,-233.368 401.612,-253.368 440.388,-253.368 440.388,-233.368 401.612,-233.368"/>
<text text-anchor="middle" x="421" y="-240.368" font-family="Helvetica,sans-Serif" font-size="10.00">FIFO</text>
</a>
</g>
</g>
<!-- Node18&#45;&gt;Node19 -->
<g id="edge22" class="edge"><title>Node18&#45;&gt;Node19</title>
<path fill="none" stroke="#9a32cd" stroke-dasharray="5,2" d="M184.813,-214.643C237.972,-221.135 355.53,-235.493 401.273,-241.08"/>
<polygon fill="#9a32cd" stroke="#9a32cd" points="185.138,-211.156 174.788,-213.418 184.29,-218.105 185.138,-211.156"/>
<text text-anchor="middle" x="278" y="-235.368" font-family="Helvetica,sans-Serif" font-size="10.00"> valid</text>
</g>
<!-- Node19&#45;&gt;Node11 -->
<g id="edge21" class="edge"><title>Node19&#45;&gt;Node11</title>
<path fill="none" stroke="#9a32cd" stroke-dasharray="5,2" d="M450.746,-235.425C467.337,-231.243 488.68,-226.541 508,-224.368 552.288,-219.385 604.344,-220.579 634.321,-221.944"/>
<polygon fill="#9a32cd" stroke="#9a32cd" points="449.394,-232.16 440.598,-238.066 451.158,-238.934 449.394,-232.16"/>
<text text-anchor="middle" x="560" y="-239.368" font-family="Helvetica,sans-Serif" font-size="10.00"> fifo_a</text>
<text text-anchor="middle" x="560" y="-227.368" font-family="Helvetica,sans-Serif" font-size="10.00">fifo_b</text>
</g>
<!-- Node20 -->
<g id="node20" class="node"><title>Node20</title>
<polygon fill="none" stroke="#bfbfbf" points="400.498,-133.368 400.498,-153.368 441.502,-153.368 441.502,-133.368 400.498,-133.368"/>
<text text-anchor="middle" x="421" y="-140.368" font-family="Helvetica,sans-Serif" font-size="10.00">void *</text>
</g>
<!-- Node20&#45;&gt;Node11 -->
<g id="edge25" class="edge"><title>Node20&#45;&gt;Node11</title>
<path fill="none" stroke="#9a32cd" stroke-dasharray="5,2" d="M451.474,-139.941C490.698,-136.805 561.026,-136.248 612,-164.368 632.182,-175.501 646.828,-199.212 654.012,-212.945"/>
<polygon fill="#9a32cd" stroke="#9a32cd" points="451.15,-136.456 441.508,-140.849 451.785,-143.427 451.15,-136.456"/>
<text text-anchor="middle" x="560" y="-167.368" font-family="Helvetica,sans-Serif" font-size="10.00"> existing_buffer</text>
</g>
<!-- Node21 -->
<g id="node21" class="node"><title>Node21</title>
<polygon fill="none" stroke="#bfbfbf" points="833.387,-276.368 833.387,-296.368 876.613,-296.368 876.613,-276.368 833.387,-276.368"/>
<text text-anchor="middle" x="855" y="-283.368" font-family="Helvetica,sans-Serif" font-size="10.00">mutex</text>
</g>
<!-- Node21&#45;&gt;Node7 -->
<g id="edge27" class="edge"><title>Node21&#45;&gt;Node7</title>
<path fill="none" stroke="#9a32cd" stroke-dasharray="5,2" d="M887.176,-286.368C920.14,-286.368 971.765,-286.368 1004.2,-286.368"/>
<polygon fill="#9a32cd" stroke="#9a32cd" points="886.767,-282.868 876.767,-286.368 886.767,-289.868 886.767,-282.868"/>
<text text-anchor="middle" x="956" y="-289.368" font-family="Helvetica,sans-Serif" font-size="10.00"> map_mutex</text>
</g>
</g>
</svg>
        <g id="navigator" transform="translate(0 0)" fill="#404254">
                <rect fill="#f2f5e9" fill-opacity="0.5" stroke="#606060" stroke-width=".5" x="0" y="0" width="60" height="60"/>
                <use id="zoomplus" xlink:href="#zoomPlus" x="17" y="9" onmousedown="handleZoom(evt,'in')"/>
                <use id="zoomminus" xlink:href="#zoomMin" x="42" y="9" onmousedown="handleZoom(evt,'out')"/>
                <use id="reset" xlink:href="#resetDef" x="30" y="36" onmousedown="handleReset()"/>
                <g id="arrowUp" xlink:href="#dirArrow" transform="translate(30 24)" onmousedown="handlePan(0,-1)">
                  <use xlink:href="#rim" fill="#404040">
                        <set attributeName="fill" to="#808080" begin="arrowUp.mouseover" end="arrowUp.mouseout"/>
                  </use>
                  <path fill="none" stroke="white" stroke-width="1.5" d="M0,-3.0v7 M-2.5,-0.5L0,-3.0L2.5,-0.5"/>
                </g>
                <g id="arrowRight" xlink:href="#dirArrow" transform="rotate(90) translate(36 -43)" onmousedown="handlePan(1,0)">
                  <use xlink:href="#rim" fill="#404040">
                        <set attributeName="fill" to="#808080" begin="arrowRight.mouseover" end="arrowRight.mouseout"/>
                  </use>
                  <path fill="none" stroke="white" stroke-width="1.5" d="M0,-3.0v7 M-2.5,-0.5L0,-3.0L2.5,-0.5"/>
                </g>
                <g id="arrowDown" xlink:href="#dirArrow" transform="rotate(180) translate(-30 -48)" onmousedown="handlePan(0,1)">
                  <use xlink:href="#rim" fill="#404040">
                        <set attributeName="fill" to="#808080" begin="arrowDown.mouseover" end="arrowDown.mouseout"/>
                  </use>
                  <path fill="none" stroke="white" stroke-width="1.5" d="M0,-3.0v7 M-2.5,-0.5L0,-3.0L2.5,-0.5"/>
                </g>
                <g id="arrowLeft" xlink:href="#dirArrow" transform="rotate(270) translate(-36 17)" onmousedown="handlePan(-1,0)">
                  <use xlink:href="#rim" fill="#404040">
                        <set attributeName="fill" to="#808080" begin="arrowLeft.mouseover" end="arrowLeft.mouseout"/>
                  </use>
                  <path fill="none" stroke="white" stroke-width="1.5" d="M0,-3.0v7 M-2.5,-0.5L0,-3.0L2.5,-0.5"/>
                </g>
        </g>
        <svg viewBox="0 0 15 15" width="100%" height="30px" preserveAspectRatio="xMaxYMin meet">
         <g id="arrow_out" transform="scale(0.3 0.3)">
          <a xlink:href="classprint__coll__graph_org.svg" target="_base">
           <rect id="button" ry="5" rx="5" y="6" x="6" height="38" width="38"
                fill="#f2f5e9" fill-opacity="0.5" stroke="#606060" stroke-width="1.0"/>
           <path id="arrow"
             d="M 11.500037,31.436501 C 11.940474,20.09759 22.043105,11.32322 32.158766,21.979434 L 37.068811,17.246167 C 37.068811,17.246167 37.088388,32 37.088388,32 L 22.160133,31.978069 C 22.160133,31.978069 26.997745,27.140456 26.997745,27.140456 C 18.528582,18.264221 13.291696,25.230495 11.500037,31.436501 z"
             style="fill:#404040;"/>
          </a>
         </g>
        </svg>
</svg>
