<?xml version="1.0" encoding="UTF-8" standalone="no"?>
<!DOCTYPE svg PUBLIC "-//W3C//DTD SVG 1.1//EN"
 "http://www.w3.org/Graphics/SVG/1.1/DTD/svg11.dtd">
<!-- Generated by graphviz version 2.30.1 (20130404.1610)
 -->
<!-- Title: Partition::utilization_weighted Pages: 1 -->
<svg width="238pt" height="67pt"
 viewBox="0.00 0.00 238.00 67.00" xmlns="http://www.w3.org/2000/svg" xmlns:xlink="http://www.w3.org/1999/xlink">
<g id="graph0" class="graph" transform="scale(1 1) rotate(0) translate(4 63)">
<title>Partition::utilization_weighted</title>
<!-- Node1 -->
<g id="node1" class="node"><title>Node1</title>
<polygon fill="#bfbfbf" stroke="black" points="0.0505,-13 0.0505,-45 99.9495,-45 99.9495,-13 0.0505,-13"/>
<text text-anchor="start" x="8.0505" y="-32" font-family="Helvetica,sans-Serif" font-size="10.00">Partition::utilization</text>
<text text-anchor="middle" x="50" y="-20" font-family="Helvetica,sans-Serif" font-size="10.00">_weighted</text>
</g>
<!-- Node2 -->
<g id="node2" class="node"><title>Node2</title>
<g id="a_node2"><a xlink:href="struct_port_info.html#a9045e2d4e4d53e6a876cd277060fecb0" target="_top" xlink:title="PortInfo::getFIFO">
<polygon fill="none" stroke="black" points="136.379,-39 136.379,-59 229.621,-59 229.621,-39 136.379,-39"/>
<text text-anchor="middle" x="183" y="-46" font-family="Helvetica,sans-Serif" font-size="10.00">PortInfo::getFIFO</text>
</a>
</g>
</g>
<!-- Node1&#45;&gt;Node2 -->
<g id="edge1" class="edge"><title>Node1&#45;&gt;Node2</title>
<path fill="none" stroke="midnightblue" d="M100.152,-36.5042C108.606,-37.7948 117.447,-39.1446 126.063,-40.4601"/>
<polygon fill="midnightblue" stroke="midnightblue" points="125.624,-43.9334 136.037,-41.9828 126.68,-37.0136 125.624,-43.9334"/>
</g>
<!-- Node3 -->
<g id="node3" class="node"><title>Node3</title>
<g id="a_node3"><a xlink:href="class_f_i_f_o.html#ae80b8555fc249168560c67cd0a13e574" target="_top" xlink:title="FIFO::size">
<polygon fill="none" stroke="black" points="151.944,-0 151.944,-20 214.056,-20 214.056,-0 151.944,-0"/>
<text text-anchor="middle" x="183" y="-7" font-family="Helvetica,sans-Serif" font-size="10.00">FIFO::size</text>
</a>
</g>
</g>
<!-- Node1&#45;&gt;Node3 -->
<g id="edge2" class="edge"><title>Node1&#45;&gt;Node3</title>
<path fill="none" stroke="midnightblue" d="M100.152,-21.871C113.787,-19.8936 128.43,-17.7696 141.509,-15.8728"/>
<polygon fill="midnightblue" stroke="midnightblue" points="142.219,-19.3065 151.613,-14.4073 141.214,-12.379 142.219,-19.3065"/>
</g>
</g>
</svg>
