<?xml version="1.0" encoding="UTF-8" standalone="no"?>
<!DOCTYPE svg PUBLIC "-//W3C//DTD SVG 1.1//EN"
 "http://www.w3.org/Graphics/SVG/1.1/DTD/svg11.dtd">
<!-- Generated by graphviz version 2.30.1 (20130404.1610)
 -->
<!-- Title: Port Pages: 1 -->
<!--zoomable 473 -->
<svg id="main" version="1.1" xmlns="http://www.w3.org/2000/svg" xmlns:xlink="http://www.w3.org/1999/xlink" xml:space="preserve" onload="init(evt)">
<style type="text/css"><![CDATA[
.edge:hover path { stroke: red; }
.edge:hover polygon { stroke: red; fill: red; }
]]></style>
<script type="text/javascript"><![CDATA[
var edges = document.getElementsByTagName('g');
if (edges && edges.length) {
  for (var i=0;i<edges.length;i++) {
    if (edges[i].id.substr(0,4)=='edge') {
      edges[i].setAttribute('class','edge');
    }
  }
}
]]></script>
        <defs>
                <circle id="rim" cx="0" cy="0" r="7"/>
                <circle id="rim2" cx="0" cy="0" r="3.5"/>
                <g id="zoomPlus">
                        <use xlink:href="#rim" fill="#404040">
                                <set attributeName="fill" to="#808080" begin="zoomplus.mouseover" end="zoomplus.mouseout"/>
                        </use>
                        <path d="M-4,0h8M0,-4v8" fill="none" stroke="white" stroke-width="1.5" pointer-events="none"/>
                </g>
                <g id="zoomMin">
                        <use xlink:href="#rim" fill="#404040">
                                <set attributeName="fill" to="#808080" begin="zoomminus.mouseover" end="zoomminus.mouseout"/>
                        </use>
                        <path d="M-4,0h8" fill="none" stroke="white" stroke-width="1.5" pointer-events="none"/>
                </g>
                <g id="dirArrow">
                        <path fill="none" stroke="white" stroke-width="1.5" d="M0,-3.0v7 M-2.5,-0.5L0,-3.0L2.5,-0.5"/>
                </g>
               <g id="resetDef">
                       <use xlink:href="#rim2" fill="#404040">
                               <set attributeName="fill" to="#808080" begin="reset.mouseover" end="reset.mouseout"/>
                       </use>
               </g>
        </defs>

<script type="text/javascript">
var viewWidth = 1100;
var viewHeight = 473;
var sectionId = 'dynsection-1';
</script>
<script xlink:href="svgpan.js"/>
<svg id="graph" class="graph">
<g id="viewport">
<title>Port</title>
<!-- Node1 -->
<g id="node1" class="node"><title>Node1</title>
<polygon fill="#bfbfbf" stroke="black" points="205.832,-333.321 205.832,-353.321 240.168,-353.321 240.168,-333.321 205.832,-333.321"/>
<text text-anchor="middle" x="223" y="-340.321" font-family="Helvetica,sans-Serif" font-size="10.00">Port</text>
</g>
<!-- Node18 -->
<g id="node18" class="node"><title>Node18</title>
<g id="a_node18"><a xlink:href="classraft_1_1kernel.html" target="_top" xlink:title="raft::kernel">
<polygon fill="none" stroke="black" points="455.385,-294.321 455.385,-314.321 518.615,-314.321 518.615,-294.321 455.385,-294.321"/>
<text text-anchor="middle" x="487" y="-301.321" font-family="Helvetica,sans-Serif" font-size="10.00">raft::kernel</text>
</a>
</g>
</g>
<!-- Node1&#45;&gt;Node18 -->
<g id="edge23" class="edge"><title>Node1&#45;&gt;Node18</title>
<path fill="none" stroke="#9a32cd" stroke-dasharray="5,2" d="M250.789,-340.861C285.38,-337.516 347.39,-330.948 400,-322.321 418.365,-319.309 438.757,-315.08 455.074,-311.478"/>
<polygon fill="#9a32cd" stroke="#9a32cd" points="250.192,-337.402 240.568,-341.832 250.854,-344.37 250.192,-337.402"/>
<text text-anchor="middle" x="344" y="-351.321" font-family="Helvetica,sans-Serif" font-size="10.00"> output</text>
<text text-anchor="middle" x="344" y="-339.321" font-family="Helvetica,sans-Serif" font-size="10.00">input</text>
</g>
<!-- Node2 -->
<g id="node2" class="node"><title>Node2</title>
<g id="a_node2"><a xlink:href="class_port_base.html" target="_top" xlink:title="PortBase">
<polygon fill="none" stroke="black" points="4.4385,-332.321 4.4385,-352.321 61.5615,-352.321 61.5615,-332.321 4.4385,-332.321"/>
<text text-anchor="middle" x="33" y="-339.321" font-family="Helvetica,sans-Serif" font-size="10.00">PortBase</text>
</a>
</g>
</g>
<!-- Node2&#45;&gt;Node1 -->
<g id="edge1" class="edge"><title>Node2&#45;&gt;Node1</title>
<path fill="none" stroke="midnightblue" d="M71.8939,-342.522C112.871,-342.74 176.281,-343.077 205.824,-343.235"/>
<polygon fill="midnightblue" stroke="midnightblue" points="71.7586,-339.021 61.74,-342.468 71.7213,-346.021 71.7586,-339.021"/>
</g>
<!-- Node3 -->
<g id="node3" class="node"><title>Node3</title>
<polygon fill="none" stroke="#bfbfbf" points="0.549,-371.321 0.549,-391.321 65.451,-391.321 65.451,-371.321 0.549,-371.321"/>
<text text-anchor="middle" x="33" y="-378.321" font-family="Helvetica,sans-Serif" font-size="10.00">void *const</text>
</g>
<!-- Node3&#45;&gt;Node1 -->
<g id="edge2" class="edge"><title>Node3&#45;&gt;Node1</title>
<path fill="none" stroke="#9a32cd" stroke-dasharray="5,2" d="M75.4777,-372.974C99.5696,-368.122 130.502,-361.885 158,-356.321 174.225,-353.037 192.759,-349.271 205.692,-346.64"/>
<polygon fill="#9a32cd" stroke="#9a32cd" points="74.7138,-369.557 65.6014,-374.962 76.0956,-376.42 74.7138,-369.557"/>
<text text-anchor="middle" x="121" y="-373.321" font-family="Helvetica,sans-Serif" font-size="10.00"> alloc_ptr</text>
</g>
<!-- Node4 -->
<g id="node4" class="node"><title>Node4</title>
<polygon fill="none" stroke="#bfbfbf" points="11.942,-266.321 11.942,-286.321 54.058,-286.321 54.058,-266.321 11.942,-266.321"/>
<text text-anchor="middle" x="33" y="-273.321" font-family="Helvetica,sans-Serif" font-size="10.00">size_t</text>
</g>
<!-- Node4&#45;&gt;Node1 -->
<g id="edge3" class="edge"><title>Node4&#45;&gt;Node1</title>
<path fill="none" stroke="#9a32cd" stroke-dasharray="5,2" d="M63.6453,-286.886C103.838,-301.21 174.222,-326.293 205.829,-337.557"/>
<polygon fill="#9a32cd" stroke="#9a32cd" points="64.714,-283.551 54.1193,-283.491 62.364,-290.145 64.714,-283.551"/>
<text text-anchor="middle" x="121" y="-322.321" font-family="Helvetica,sans-Serif" font-size="10.00"> alloc_ptr_length</text>
</g>
<!-- Node9 -->
<g id="node9" class="node"><title>Node9</title>
<g id="a_node9"><a xlink:href="struct_port_info.html" target="_top" xlink:title="PortInfo">
<polygon fill="none" stroke="black" points="696.494,-241.321 696.494,-261.321 747.506,-261.321 747.506,-241.321 696.494,-241.321"/>
<text text-anchor="middle" x="722" y="-248.321" font-family="Helvetica,sans-Serif" font-size="10.00">PortInfo</text>
</a>
</g>
</g>
<!-- Node4&#45;&gt;Node9 -->
<g id="edge20" class="edge"><title>Node4&#45;&gt;Node9</title>
<path fill="none" stroke="#9a32cd" stroke-dasharray="5,2" d="M57.4581,-260.597C84.7455,-243.078 131.725,-215.258 176,-200.321 223.771,-184.204 237.743,-186.333 288,-182.321 460.852,-168.519 526.095,-109.695 678,-193.321 697.326,-203.96 710.403,-227.384 716.689,-240.985"/>
<polygon fill="#9a32cd" stroke="#9a32cd" points="55.4617,-257.721 48.9914,-266.11 59.2813,-263.587 55.4617,-257.721"/>
<text text-anchor="middle" x="344" y="-197.321" font-family="Helvetica,sans-Serif" font-size="10.00"> nitems</text>
<text text-anchor="middle" x="344" y="-185.321" font-family="Helvetica,sans-Serif" font-size="10.00">start_index</text>
</g>
<!-- Node4&#45;&gt;Node18 -->
<g id="edge22" class="edge"><title>Node4&#45;&gt;Node18</title>
<path fill="none" stroke="#9a32cd" stroke-dasharray="5,2" d="M64.2969,-276.446C127.065,-276.953 275.825,-279.426 400,-291.321 418.338,-293.077 438.73,-296.112 455.052,-298.808"/>
<polygon fill="#9a32cd" stroke="#9a32cd" points="64.3122,-272.947 54.288,-276.377 64.2634,-279.946 64.3122,-272.947"/>
<text text-anchor="middle" x="223" y="-284.321" font-family="Helvetica,sans-Serif" font-size="10.00"> kernel_count</text>
</g>
<!-- Node5 -->
<g id="node5" class="node"><title>Node5</title>
<g id="a_node5"><a xlink:href="structportmap__t.html" target="_top" xlink:title="portmap_t">
<polygon fill="none" stroke="black" points="1030.49,-318.321 1030.49,-338.321 1091.51,-338.321 1091.51,-318.321 1030.49,-318.321"/>
<text text-anchor="middle" x="1061" y="-325.321" font-family="Helvetica,sans-Serif" font-size="10.00">portmap_t</text>
</a>
</g>
</g>
<!-- Node5&#45;&gt;Node1 -->
<g id="edge4" class="edge"><title>Node5&#45;&gt;Node1</title>
<path fill="none" stroke="#9a32cd" stroke-dasharray="5,2" d="M1046.7,-346.931C1020.09,-381.764 956.591,-453.321 884,-453.321 486,-453.321 486,-453.321 486,-453.321 433.831,-453.321 289.032,-378.239 240.269,-352.136"/>
<polygon fill="#9a32cd" stroke="#9a32cd" points="1049.77,-348.663 1052.93,-338.55 1044.15,-344.487 1049.77,-348.663"/>
<text text-anchor="middle" x="722" y="-456.321" font-family="Helvetica,sans-Serif" font-size="10.00"> portmap</text>
</g>
<!-- Node6 -->
<g id="node6" class="node"><title>Node6</title>
<polygon fill="none" stroke="#bfbfbf" points="828.46,-312.321 828.46,-344.321 937.54,-344.321 937.54,-312.321 828.46,-312.321"/>
<text text-anchor="start" x="836.46" y="-331.321" font-family="Helvetica,sans-Serif" font-size="10.00">std::map&lt; std::string,</text>
<text text-anchor="middle" x="883" y="-319.321" font-family="Helvetica,sans-Serif" font-size="10.00"> PortInfo &gt;</text>
</g>
<!-- Node6&#45;&gt;Node5 -->
<g id="edge5" class="edge"><title>Node6&#45;&gt;Node5</title>
<path fill="none" stroke="#9a32cd" stroke-dasharray="5,2" d="M947.955,-328.321C976.123,-328.321 1007.85,-328.321 1030.33,-328.321"/>
<polygon fill="#9a32cd" stroke="#9a32cd" points="947.762,-324.821 937.762,-328.321 947.762,-331.821 947.762,-324.821"/>
<text text-anchor="middle" x="984" y="-331.321" font-family="Helvetica,sans-Serif" font-size="10.00"> map</text>
</g>
<!-- Node7 -->
<g id="node7" class="node"><title>Node7</title>
<g id="a_node7"><a xlink:title="STL class. ">
<polygon fill="none" stroke="#bfbfbf" points="457.329,-387.321 457.329,-407.321 516.67,-407.321 516.67,-387.321 457.329,-387.321"/>
<text text-anchor="middle" x="487" y="-394.321" font-family="Helvetica,sans-Serif" font-size="10.00">std::string</text>
</a>
</g>
</g>
<!-- Node7&#45;&gt;Node6 -->
<g id="edge6" class="edge"><title>Node7&#45;&gt;Node6</title>
<path fill="none" stroke="#9a32cd" stroke-dasharray="5,2" d="M527.17,-399.122C565.798,-400.187 626.377,-399.946 678,-391.321 736.131,-381.608 800.747,-359.658 841.368,-344.418"/>
<polygon fill="#9a32cd" stroke="#9a32cd" points="526.99,-395.614 516.883,-398.793 526.766,-402.611 526.99,-395.614"/>
<text text-anchor="middle" x="722" y="-390.321" font-family="Helvetica,sans-Serif" font-size="10.00"> keys</text>
</g>
<!-- Node7&#45;&gt;Node9 -->
<g id="edge17" class="edge"><title>Node7&#45;&gt;Node9</title>
<path fill="none" stroke="#9a32cd" stroke-dasharray="5,2" d="M523.716,-383.801C539.062,-378.27 557.279,-372.068 574,-367.321 619.539,-354.391 641.121,-374.002 678,-344.321 704.745,-322.795 715.604,-280.867 719.328,-261.534"/>
<polygon fill="#9a32cd" stroke="#9a32cd" points="522.282,-380.599 514.091,-387.318 524.685,-387.174 522.282,-380.599"/>
<text text-anchor="middle" x="626" y="-382.321" font-family="Helvetica,sans-Serif" font-size="10.00"> my_name</text>
<text text-anchor="middle" x="626" y="-370.321" font-family="Helvetica,sans-Serif" font-size="10.00">other_name</text>
</g>
<!-- Node8 -->
<g id="node8" class="node"><title>Node8</title>
<g id="a_node8"><a xlink:title="STL class. ">
<polygon fill="none" stroke="#bfbfbf" points="175.962,-381.321 175.962,-413.321 270.038,-413.321 270.038,-381.321 175.962,-381.321"/>
<text text-anchor="start" x="183.962" y="-400.321" font-family="Helvetica,sans-Serif" font-size="10.00">std::basic_string&lt;</text>
<text text-anchor="middle" x="223" y="-388.321" font-family="Helvetica,sans-Serif" font-size="10.00"> char &gt;</text>
</a>
</g>
</g>
<!-- Node8&#45;&gt;Node7 -->
<g id="edge7" class="edge"><title>Node8&#45;&gt;Node7</title>
<path fill="none" stroke="midnightblue" d="M280.411,-397.321C334.775,-397.321 414.842,-397.321 457.228,-397.321"/>
<polygon fill="midnightblue" stroke="midnightblue" points="280.237,-393.821 270.237,-397.321 280.237,-400.821 280.237,-393.821"/>
</g>
<!-- Node9&#45;&gt;Node6 -->
<g id="edge8" class="edge"><title>Node9&#45;&gt;Node6</title>
<path fill="none" stroke="#9a32cd" stroke-dasharray="5,2" d="M752.971,-265.912C773.968,-276.125 802.686,-290.079 828,-302.321 834.651,-305.537 841.766,-308.969 848.577,-312.25"/>
<polygon fill="#9a32cd" stroke="#9a32cd" points="754.431,-262.73 743.908,-261.502 751.369,-269.024 754.431,-262.73"/>
<text text-anchor="middle" x="788" y="-295.321" font-family="Helvetica,sans-Serif" font-size="10.00"> elements</text>
</g>
<!-- Node10 -->
<g id="node10" class="node"><title>Node10</title>
<polygon fill="none" stroke="#bfbfbf" points="454.824,-333.321 454.824,-353.321 519.176,-353.321 519.176,-333.321 454.824,-333.321"/>
<text text-anchor="middle" x="487" y="-340.321" font-family="Helvetica,sans-Serif" font-size="10.00">type_index</text>
</g>
<!-- Node10&#45;&gt;Node9 -->
<g id="edge9" class="edge"><title>Node10&#45;&gt;Node9</title>
<path fill="none" stroke="#9a32cd" stroke-dasharray="5,2" d="M529.424,-337.563C581.478,-330.074 665.551,-317.038 678,-309.321 696.751,-297.696 710.043,-274.641 716.52,-261.367"/>
<polygon fill="#9a32cd" stroke="#9a32cd" points="528.876,-334.106 519.471,-338.984 529.866,-341.035 528.876,-334.106"/>
<text text-anchor="middle" x="626" y="-333.321" font-family="Helvetica,sans-Serif" font-size="10.00"> type</text>
</g>
<!-- Node11 -->
<g id="node11" class="node"><title>Node11</title>
<polygon fill="none" stroke="#bfbfbf" points="418.012,-104.321 418.012,-136.321 555.988,-136.321 555.988,-104.321 418.012,-104.321"/>
<text text-anchor="start" x="426.012" y="-123.321" font-family="Helvetica,sans-Serif" font-size="10.00">std::map&lt; Type::RingBuffer</text>
<text text-anchor="middle" x="487" y="-111.321" font-family="Helvetica,sans-Serif" font-size="10.00">Type, instr_map_t * &gt;</text>
</g>
<!-- Node11&#45;&gt;Node9 -->
<g id="edge10" class="edge"><title>Node11&#45;&gt;Node9</title>
<path fill="none" stroke="#9a32cd" stroke-dasharray="5,2" d="M566.653,-110.246C603.838,-109.659 646.807,-115.512 678,-139.321 711.113,-164.595 718.732,-218.737 720.481,-241.215"/>
<polygon fill="#9a32cd" stroke="#9a32cd" points="566.217,-106.758 556.332,-110.573 566.438,-113.755 566.217,-106.758"/>
<text text-anchor="middle" x="626" y="-142.321" font-family="Helvetica,sans-Serif" font-size="10.00"> const_map</text>
</g>
<!-- Node12 -->
<g id="node12" class="node"><title>Node12</title>
<g id="a_node12"><a xlink:title="STL class. ">
<polygon fill="none" stroke="#bfbfbf" points="178.043,-77.3206 178.043,-97.3206 267.957,-97.3206 267.957,-77.3206 178.043,-77.3206"/>
<text text-anchor="middle" x="223" y="-84.3206" font-family="Helvetica,sans-Serif" font-size="10.00">std::map&lt; K, T &gt;</text>
</a>
</g>
</g>
<!-- Node12&#45;&gt;Node11 -->
<g id="edge11" class="edge"><title>Node12&#45;&gt;Node11</title>
<path fill="none" stroke="#9a32cd" stroke-dasharray="5,2" d="M259.124,-100.636C268.391,-103.652 278.468,-106.499 288,-108.321 330.621,-116.464 379.252,-119.498 417.652,-120.48"/>
<polygon fill="#9a32cd" stroke="#9a32cd" points="260.044,-97.2516 249.449,-97.3364 257.784,-103.877 260.044,-97.2516"/>
<text text-anchor="middle" x="344" y="-123.321" font-family="Helvetica,sans-Serif" font-size="10.00"> elements</text>
</g>
<!-- Node12&#45;&gt;Node11 -->
<g id="edge15" class="edge"><title>Node12&#45;&gt;Node11</title>
<path fill="none" stroke="orange" stroke-dasharray="5,2" d="M276.353,-75.4866C312.136,-69.7242 360.116,-66.6362 400,-80.3206 409.586,-83.6097 409.17,-89.3453 418,-94.3206 424.387,-97.9192 431.37,-101.222 438.351,-104.178"/>
<polygon fill="orange" stroke="orange" points="275.388,-72.1016 266.132,-77.2577 276.583,-78.9988 275.388,-72.1016"/>
<text text-anchor="start" x="288.291" y="-95.3206" font-family="Helvetica,sans-Serif" font-size="10.00"> &lt; Type::RingBufferType,</text>
<text text-anchor="middle" x="344" y="-83.3206" font-family="Helvetica,sans-Serif" font-size="10.00"> instr_map_t * &gt;</text>
</g>
<!-- Node12&#45;&gt;Node6 -->
<g id="edge25" class="edge"><title>Node12&#45;&gt;Node6</title>
<path fill="none" stroke="orange" stroke-dasharray="5,2" d="M264.538,-71.8171C266.477,-70.4325 268.314,-68.936 270,-67.3206 283.204,-54.6683 272.497,-40.0191 288,-30.3206 348.267,7.38036 568.833,18.2382 678,-48.3206 775.359,-107.68 753.971,-169.008 810,-268.321 818.401,-283.212 815.681,-290.463 828,-302.321 831.898,-306.073 836.441,-309.373 841.205,-312.251"/>
<polygon fill="orange" stroke="orange" points="262.332,-69.0581 255.546,-77.1944 265.925,-75.0658 262.332,-69.0581"/>
<text text-anchor="middle" x="626" y="-51.3206" font-family="Helvetica,sans-Serif" font-size="10.00"> &lt; std::string, PortInfo &gt;</text>
</g>
<!-- Node13 -->
<g id="node13" class="node"><title>Node13</title>
<polygon fill="none" stroke="#bfbfbf" points="18.5,-58.3206 18.5,-78.3206 47.5,-78.3206 47.5,-58.3206 18.5,-58.3206"/>
<text text-anchor="middle" x="33" y="-65.3206" font-family="Helvetica,sans-Serif" font-size="10.00">K</text>
</g>
<!-- Node13&#45;&gt;Node12 -->
<g id="edge12" class="edge"><title>Node13&#45;&gt;Node12</title>
<path fill="none" stroke="#9a32cd" stroke-dasharray="5,2" d="M57.8645,-68.0481C82.9093,-68.0504 123.376,-68.8704 158,-73.3206 165.558,-74.292 173.544,-75.7139 181.216,-77.284"/>
<polygon fill="#9a32cd" stroke="#9a32cd" points="57.8127,-64.5482 47.828,-68.0917 57.8432,-71.5482 57.8127,-64.5482"/>
<text text-anchor="middle" x="121" y="-76.3206" font-family="Helvetica,sans-Serif" font-size="10.00"> keys</text>
</g>
<!-- Node14 -->
<g id="node14" class="node"><title>Node14</title>
<polygon fill="none" stroke="#bfbfbf" points="18.5,-97.3206 18.5,-117.321 47.5,-117.321 47.5,-97.3206 18.5,-97.3206"/>
<text text-anchor="middle" x="33" y="-104.321" font-family="Helvetica,sans-Serif" font-size="10.00">T</text>
</g>
<!-- Node14&#45;&gt;Node12 -->
<g id="edge13" class="edge"><title>Node14&#45;&gt;Node12</title>
<path fill="none" stroke="#9a32cd" stroke-dasharray="5,2" d="M57.4933,-104.821C87.5227,-101.627 140.122,-96.031 177.763,-92.0266"/>
<polygon fill="#9a32cd" stroke="#9a32cd" points="57.0941,-101.344 47.5205,-105.882 57.8347,-108.305 57.0941,-101.344"/>
<text text-anchor="middle" x="121" y="-105.321" font-family="Helvetica,sans-Serif" font-size="10.00"> elements</text>
</g>
<!-- Node15 -->
<g id="node15" class="node"><title>Node15</title>
<polygon fill="none" stroke="#bfbfbf" points="180.272,-38.3206 180.272,-58.3206 265.728,-58.3206 265.728,-38.3206 180.272,-38.3206"/>
<text text-anchor="middle" x="223" y="-45.3206" font-family="Helvetica,sans-Serif" font-size="10.00">RingBufferType</text>
</g>
<!-- Node15&#45;&gt;Node11 -->
<g id="edge14" class="edge"><title>Node15&#45;&gt;Node11</title>
<path fill="none" stroke="#9a32cd" stroke-dasharray="5,2" d="M276.033,-36.9113C313.596,-31.6811 363.861,-31.1719 400,-55.3206 415.873,-65.927 404.055,-81.2827 418,-94.3206 422.062,-98.1186 426.737,-101.379 431.693,-104.175"/>
<polygon fill="#9a32cd" stroke="#9a32cd" points="275.144,-33.507 265.797,-38.4951 276.215,-40.4247 275.144,-33.507"/>
<text text-anchor="middle" x="344" y="-58.3206" font-family="Helvetica,sans-Serif" font-size="10.00"> keys</text>
</g>
<!-- Node16 -->
<g id="node16" class="node"><title>Node16</title>
<polygon fill="none" stroke="#bfbfbf" points="205.552,-210.321 205.552,-230.321 240.448,-230.321 240.448,-210.321 205.552,-210.321"/>
<text text-anchor="middle" x="223" y="-217.321" font-family="Helvetica,sans-Serif" font-size="10.00">bool</text>
</g>
<!-- Node16&#45;&gt;Node9 -->
<g id="edge16" class="edge"><title>Node16&#45;&gt;Node9</title>
<path fill="none" stroke="#9a32cd" stroke-dasharray="5,2" d="M250.335,-226.127C261.842,-228.438 275.532,-230.885 288,-232.321 442.737,-250.131 630.341,-251.561 696.489,-251.456"/>
<polygon fill="#9a32cd" stroke="#9a32cd" points="250.981,-222.686 240.478,-224.075 249.555,-229.54 250.981,-222.686"/>
<text text-anchor="middle" x="487" y="-265.321" font-family="Helvetica,sans-Serif" font-size="10.00"> use_my_allocator</text>
<text text-anchor="middle" x="487" y="-253.321" font-family="Helvetica,sans-Serif" font-size="10.00">out_of_order</text>
</g>
<!-- Node17 -->
<g id="node17" class="node"><title>Node17</title>
<g id="a_node17"><a xlink:href="class_f_i_f_o.html" target="_top" xlink:title="FIFO">
<polygon fill="none" stroke="black" points="467.612,-194.321 467.612,-214.321 506.388,-214.321 506.388,-194.321 467.612,-194.321"/>
<text text-anchor="middle" x="487" y="-201.321" font-family="Helvetica,sans-Serif" font-size="10.00">FIFO</text>
</a>
</g>
</g>
<!-- Node16&#45;&gt;Node17 -->
<g id="edge19" class="edge"><title>Node16&#45;&gt;Node17</title>
<path fill="none" stroke="#9a32cd" stroke-dasharray="5,2" d="M250.813,-218.683C303.972,-215.437 421.53,-208.258 467.273,-205.464"/>
<polygon fill="#9a32cd" stroke="#9a32cd" points="250.556,-215.192 240.788,-219.295 250.983,-222.179 250.556,-215.192"/>
<text text-anchor="middle" x="344" y="-219.321" font-family="Helvetica,sans-Serif" font-size="10.00"> valid</text>
</g>
<!-- Node17&#45;&gt;Node9 -->
<g id="edge18" class="edge"><title>Node17&#45;&gt;Node9</title>
<path fill="none" stroke="#9a32cd" stroke-dasharray="5,2" d="M516.318,-200.001C554.57,-195.404 624.159,-191.469 678,-213.321 692.401,-219.165 705.218,-231.997 713.034,-241.131"/>
<polygon fill="#9a32cd" stroke="#9a32cd" points="515.862,-196.531 506.399,-201.294 516.767,-203.472 515.862,-196.531"/>
<text text-anchor="middle" x="626" y="-228.321" font-family="Helvetica,sans-Serif" font-size="10.00"> fifo_a</text>
<text text-anchor="middle" x="626" y="-216.321" font-family="Helvetica,sans-Serif" font-size="10.00">fifo_b</text>
</g>
<!-- Node18&#45;&gt;Node9 -->
<g id="edge21" class="edge"><title>Node18&#45;&gt;Node9</title>
<path fill="none" stroke="#9a32cd" stroke-dasharray="5,2" d="M528.851,-295.299C584.139,-283.088 676.163,-262.758 678,-262.321 683.997,-260.891 690.444,-259.281 696.476,-257.742"/>
<polygon fill="#9a32cd" stroke="#9a32cd" points="527.995,-291.904 518.986,-297.478 529.505,-298.739 527.995,-291.904"/>
<text text-anchor="middle" x="626" y="-299.321" font-family="Helvetica,sans-Serif" font-size="10.00"> my_kernel</text>
<text text-anchor="middle" x="626" y="-287.321" font-family="Helvetica,sans-Serif" font-size="10.00">other_kernel</text>
</g>
<!-- Node18&#45;&gt;Node1 -->
<g id="edge27" class="edge"><title>Node18&#45;&gt;Node1</title>
<path fill="none" stroke="#9a32cd" stroke-dasharray="5,2" d="M445.103,-299.158C404.488,-295.367 340.821,-293.056 288,-307.321 269.047,-312.439 249.736,-324.427 237.357,-333.167"/>
<polygon fill="#9a32cd" stroke="#9a32cd" points="444.863,-302.652 455.163,-300.172 445.565,-295.687 444.863,-302.652"/>
<text text-anchor="middle" x="344" y="-310.321" font-family="Helvetica,sans-Serif" font-size="10.00"> kernel</text>
</g>
<!-- Node19 -->
<g id="node19" class="node"><title>Node19</title>
<polygon fill="none" stroke="#bfbfbf" points="466.498,-65.3206 466.498,-85.3206 507.502,-85.3206 507.502,-65.3206 466.498,-65.3206"/>
<text text-anchor="middle" x="487" y="-72.3206" font-family="Helvetica,sans-Serif" font-size="10.00">void *</text>
</g>
<!-- Node19&#45;&gt;Node9 -->
<g id="edge24" class="edge"><title>Node19&#45;&gt;Node9</title>
<path fill="none" stroke="#9a32cd" stroke-dasharray="5,2" d="M517.611,-68.9311C558.673,-61.9272 632.927,-56.2347 678,-94.3206 700.99,-113.746 715.491,-209.534 719.714,-241.164"/>
<polygon fill="#9a32cd" stroke="#9a32cd" points="516.883,-65.5063 507.684,-70.7619 518.153,-72.3902 516.883,-65.5063"/>
<text text-anchor="middle" x="626" y="-97.3206" font-family="Helvetica,sans-Serif" font-size="10.00"> existing_buffer</text>
</g>
<!-- Node20 -->
<g id="node20" class="node"><title>Node20</title>
<polygon fill="none" stroke="#bfbfbf" points="861.387,-273.321 861.387,-293.321 904.613,-293.321 904.613,-273.321 861.387,-273.321"/>
<text text-anchor="middle" x="883" y="-280.321" font-family="Helvetica,sans-Serif" font-size="10.00">mutex</text>
</g>
<!-- Node20&#45;&gt;Node5 -->
<g id="edge26" class="edge"><title>Node20&#45;&gt;Node5</title>
<path fill="none" stroke="#9a32cd" stroke-dasharray="5,2" d="M915.037,-289.455C941.093,-294.818 979.21,-303.165 1012,-312.321 1018.35,-314.092 1025.09,-316.199 1031.46,-318.293"/>
<polygon fill="#9a32cd" stroke="#9a32cd" points="915.496,-285.976 904.999,-287.413 914.101,-292.836 915.496,-285.976"/>
<text text-anchor="middle" x="984" y="-315.321" font-family="Helvetica,sans-Serif" font-size="10.00"> map_mutex</text>
</g>
</g>
</svg>
        <g id="navigator" transform="translate(0 0)" fill="#404254">
                <rect fill="#f2f5e9" fill-opacity="0.5" stroke="#606060" stroke-width=".5" x="0" y="0" width="60" height="60"/>
                <use id="zoomplus" xlink:href="#zoomPlus" x="17" y="9" onmousedown="handleZoom(evt,'in')"/>
                <use id="zoomminus" xlink:href="#zoomMin" x="42" y="9" onmousedown="handleZoom(evt,'out')"/>
                <use id="reset" xlink:href="#resetDef" x="30" y="36" onmousedown="handleReset()"/>
                <g id="arrowUp" xlink:href="#dirArrow" transform="translate(30 24)" onmousedown="handlePan(0,-1)">
                  <use xlink:href="#rim" fill="#404040">
                        <set attributeName="fill" to="#808080" begin="arrowUp.mouseover" end="arrowUp.mouseout"/>
                  </use>
                  <path fill="none" stroke="white" stroke-width="1.5" d="M0,-3.0v7 M-2.5,-0.5L0,-3.0L2.5,-0.5"/>
                </g>
                <g id="arrowRight" xlink:href="#dirArrow" transform="rotate(90) translate(36 -43)" onmousedown="handlePan(1,0)">
                  <use xlink:href="#rim" fill="#404040">
                        <set attributeName="fill" to="#808080" begin="arrowRight.mouseover" end="arrowRight.mouseout"/>
                  </use>
                  <path fill="none" stroke="white" stroke-width="1.5" d="M0,-3.0v7 M-2.5,-0.5L0,-3.0L2.5,-0.5"/>
                </g>
                <g id="arrowDown" xlink:href="#dirArrow" transform="rotate(180) translate(-30 -48)" onmousedown="handlePan(0,1)">
                  <use xlink:href="#rim" fill="#404040">
                        <set attributeName="fill" to="#808080" begin="arrowDown.mouseover" end="arrowDown.mouseout"/>
                  </use>
                  <path fill="none" stroke="white" stroke-width="1.5" d="M0,-3.0v7 M-2.5,-0.5L0,-3.0L2.5,-0.5"/>
                </g>
                <g id="arrowLeft" xlink:href="#dirArrow" transform="rotate(270) translate(-36 17)" onmousedown="handlePan(-1,0)">
                  <use xlink:href="#rim" fill="#404040">
                        <set attributeName="fill" to="#808080" begin="arrowLeft.mouseover" end="arrowLeft.mouseout"/>
                  </use>
                  <path fill="none" stroke="white" stroke-width="1.5" d="M0,-3.0v7 M-2.5,-0.5L0,-3.0L2.5,-0.5"/>
                </g>
        </g>
        <svg viewBox="0 0 15 15" width="100%" height="30px" preserveAspectRatio="xMaxYMin meet">
         <g id="arrow_out" transform="scale(0.3 0.3)">
          <a xlink:href="class_port__coll__graph_org.svg" target="_base">
           <rect id="button" ry="5" rx="5" y="6" x="6" height="38" width="38"
                fill="#f2f5e9" fill-opacity="0.5" stroke="#606060" stroke-width="1.0"/>
           <path id="arrow"
             d="M 11.500037,31.436501 C 11.940474,20.09759 22.043105,11.32322 32.158766,21.979434 L 37.068811,17.246167 C 37.068811,17.246167 37.088388,32 37.088388,32 L 22.160133,31.978069 C 22.160133,31.978069 26.997745,27.140456 26.997745,27.140456 C 18.528582,18.264221 13.291696,25.230495 11.500037,31.436501 z"
             style="fill:#404040;"/>
          </a>
         </g>
        </svg>
</svg>
