<?xml version="1.0" encoding="UTF-8" standalone="no"?>
<!DOCTYPE svg PUBLIC "-//W3C//DTD SVG 1.1//EN"
 "http://www.w3.org/Graphics/SVG/1.1/DTD/svg11.dtd">
<!-- Generated by graphviz version 2.30.1 (20130404.1610)
 -->
<!-- Title: Schedule::kernelHasNoInputPorts Pages: 1 -->
<svg width="450pt" height="40pt"
 viewBox="0.00 0.00 450.00 40.00" xmlns="http://www.w3.org/2000/svg" xmlns:xlink="http://www.w3.org/1999/xlink">
<g id="graph0" class="graph" transform="scale(1 1) rotate(0) translate(4 36)">
<title>Schedule::kernelHasNoInputPorts</title>
<!-- Node1 -->
<g id="node1" class="node"><title>Node1</title>
<polygon fill="#bfbfbf" stroke="black" points="0.3715,-0 0.3715,-32 143.628,-32 143.628,-0 0.3715,-0"/>
<text text-anchor="start" x="8.3715" y="-19" font-family="Helvetica,sans-Serif" font-size="10.00">Schedule::kernelHasNoInput</text>
<text text-anchor="middle" x="72" y="-7" font-family="Helvetica,sans-Serif" font-size="10.00">Ports</text>
</g>
<!-- Node2 -->
<g id="node2" class="node"><title>Node2</title>
<g id="a_node2"><a xlink:href="class_schedule.html#a60076829d7785af75aa8a2057f4edd09" target="_top" xlink:title="Schedule::kernelRun">
<polygon fill="none" stroke="black" points="180.599,-6 180.599,-26 289.401,-26 289.401,-6 180.599,-6"/>
<text text-anchor="middle" x="235" y="-13" font-family="Helvetica,sans-Serif" font-size="10.00">Schedule::kernelRun</text>
</a>
</g>
</g>
<!-- Node1&#45;&gt;Node2 -->
<g id="edge1" class="edge"><title>Node1&#45;&gt;Node2</title>
<path fill="none" stroke="midnightblue" d="M154.364,-16C163.136,-16 171.894,-16 180.221,-16"/>
<polygon fill="midnightblue" stroke="midnightblue" points="154.086,-12.5001 144.086,-16 154.086,-19.5001 154.086,-12.5001"/>
</g>
<!-- Node3 -->
<g id="node3" class="node"><title>Node3</title>
<g id="a_node3"><a xlink:href="classsimple__schedule.html#ad60a7608111e011d0c04f6ac566cfd8c" target="_top" xlink:title="simple_schedule::start">
<polygon fill="none" stroke="black" points="326.269,-6 326.269,-26 441.731,-26 441.731,-6 326.269,-6"/>
<text text-anchor="middle" x="384" y="-13" font-family="Helvetica,sans-Serif" font-size="10.00">simple_schedule::start</text>
</a>
</g>
</g>
<!-- Node2&#45;&gt;Node3 -->
<g id="edge2" class="edge"><title>Node2&#45;&gt;Node3</title>
<path fill="none" stroke="midnightblue" d="M299.608,-16C308.329,-16 317.24,-16 325.837,-16"/>
<polygon fill="midnightblue" stroke="midnightblue" points="299.486,-12.5001 289.486,-16 299.486,-19.5001 299.486,-12.5001"/>
</g>
</g>
</svg>
