<?xml version="1.0" encoding="UTF-8" standalone="no"?>
<!DOCTYPE svg PUBLIC "-//W3C//DTD SVG 1.1//EN"
 "http://www.w3.org/Graphics/SVG/1.1/DTD/svg11.dtd">
<!-- Generated by graphviz version 2.30.1 (20130404.1610)
 -->
<!-- Title: Schedule Pages: 1 -->
<svg width="196pt" height="88pt"
 viewBox="0.00 0.00 196.00 88.00" xmlns="http://www.w3.org/2000/svg" xmlns:xlink="http://www.w3.org/1999/xlink">
<g id="graph0" class="graph" transform="scale(1 1) rotate(0) translate(4 84)">
<title>Schedule</title>
<!-- Node1 -->
<g id="node1" class="node"><title>Node1</title>
<polygon fill="#bfbfbf" stroke="black" points="62.1585,-59 62.1585,-79 119.841,-79 119.841,-59 62.1585,-59"/>
<text text-anchor="middle" x="91" y="-66" font-family="Helvetica,sans-Serif" font-size="10.00">Schedule</text>
</g>
<!-- Node2 -->
<g id="node2" class="node"><title>Node2</title>
<g id="a_node2"><a xlink:href="classpool__schedule.html" target="_top" xlink:title="pool_schedule">
<polygon fill="none" stroke="black" points="-0.2345,-1 -0.2345,-21 80.2345,-21 80.2345,-1 -0.2345,-1"/>
<text text-anchor="middle" x="40" y="-8" font-family="Helvetica,sans-Serif" font-size="10.00">pool_schedule</text>
</a>
</g>
</g>
<!-- Node1&#45;&gt;Node2 -->
<g id="edge1" class="edge"><title>Node1&#45;&gt;Node2</title>
<path fill="none" stroke="midnightblue" d="M75.6221,-51.1145C66.6331,-41.2442 55.6408,-29.1742 48.2649,-21.0752"/>
<polygon fill="midnightblue" stroke="midnightblue" points="73.2574,-53.716 82.5784,-58.7527 78.4328,-49.0026 73.2574,-53.716"/>
</g>
<!-- Node3 -->
<g id="node3" class="node"><title>Node3</title>
<g id="a_node3"><a xlink:href="classsimple__schedule.html" target="_top" xlink:title="simple_schedule">
<polygon fill="none" stroke="black" points="97.771,-1 97.771,-21 188.229,-21 188.229,-1 97.771,-1"/>
<text text-anchor="middle" x="143" y="-8" font-family="Helvetica,sans-Serif" font-size="10.00">simple_schedule</text>
</a>
</g>
</g>
<!-- Node1&#45;&gt;Node3 -->
<g id="edge2" class="edge"><title>Node1&#45;&gt;Node3</title>
<path fill="none" stroke="midnightblue" d="M106.405,-51.4099C115.62,-41.486 126.977,-29.2551 134.573,-21.0752"/>
<polygon fill="midnightblue" stroke="midnightblue" points="103.826,-49.0432 99.5867,-58.7527 108.956,-53.8064 103.826,-49.0432"/>
</g>
</g>
</svg>
