<?xml version="1.0" encoding="UTF-8" standalone="no"?>
<!DOCTYPE svg PUBLIC "-//W3C//DTD SVG 1.1//EN"
 "http://www.w3.org/Graphics/SVG/1.1/DTD/svg11.dtd">
<!-- Generated by graphviz version 2.30.1 (20130404.1610)
 -->
<!-- Title: Clock::getTime Pages: 1 -->
<svg width="400pt" height="91pt"
 viewBox="0.00 0.00 400.00 91.00" xmlns="http://www.w3.org/2000/svg" xmlns:xlink="http://www.w3.org/1999/xlink">
<g id="graph0" class="graph" transform="scale(1 1) rotate(0) translate(4 87)">
<title>Clock::getTime</title>
<!-- Node1 -->
<g id="node1" class="node"><title>Node1</title>
<polygon fill="#bfbfbf" stroke="black" points="0.666,-25 0.666,-45 83.334,-45 83.334,-25 0.666,-25"/>
<text text-anchor="middle" x="42" y="-32" font-family="Helvetica,sans-Serif" font-size="10.00">Clock::getTime</text>
</g>
<!-- Node2 -->
<g id="node2" class="node"><title>Node2</title>
<g id="a_node2"><a xlink:href="class_clock.html#a9c1808239308465e8e9cc4aebd50f696" target="_top" xlink:title="Clock::getResolution">
<polygon fill="none" stroke="black" points="120.159,-45 120.159,-65 227.841,-65 227.841,-45 120.159,-45"/>
<text text-anchor="middle" x="174" y="-52" font-family="Helvetica,sans-Serif" font-size="10.00">Clock::getResolution</text>
</a>
</g>
</g>
<!-- Node1&#45;&gt;Node2 -->
<g id="edge1" class="edge"><title>Node1&#45;&gt;Node2</title>
<path fill="none" stroke="midnightblue" d="M93.3505,-42.7462C101.985,-44.0747 110.984,-45.4591 119.693,-46.799"/>
<polygon fill="midnightblue" stroke="midnightblue" points="93.8362,-39.2798 83.4202,-41.2185 92.7717,-46.1985 93.8362,-39.2798"/>
</g>
<!-- Node4 -->
<g id="node4" class="node"><title>Node4</title>
<g id="a_node4"><a xlink:href="classframe__resolution.html#a02c151b13bab07dbe90bf52e9881a486" target="_top" xlink:title="frame_resolution::update\lResolution">
<polygon fill="none" stroke="black" points="264.707,-0 264.707,-32 391.293,-32 391.293,-0 264.707,-0"/>
<text text-anchor="start" x="272.707" y="-19" font-family="Helvetica,sans-Serif" font-size="10.00">frame_resolution::update</text>
<text text-anchor="middle" x="328" y="-7" font-family="Helvetica,sans-Serif" font-size="10.00">Resolution</text>
</a>
</g>
</g>
<!-- Node1&#45;&gt;Node4 -->
<g id="edge4" class="edge"><title>Node1&#45;&gt;Node4</title>
<path fill="none" stroke="midnightblue" d="M93.5014,-31.6214C141.289,-28.4243 213.157,-23.6163 264.528,-20.1794"/>
<polygon fill="midnightblue" stroke="midnightblue" points="93.1327,-28.1381 83.3887,-32.2979 93.6,-35.1225 93.1327,-28.1381"/>
</g>
<!-- Node3 -->
<g id="node3" class="node"><title>Node3</title>
<g id="a_node3"><a xlink:href="classframe__resolution.html#a91d9a162aa93265c52059b72a189ca4c" target="_top" xlink:title="frame_resolution::frame\l_resolution">
<polygon fill="none" stroke="black" points="267.216,-51 267.216,-83 388.784,-83 388.784,-51 267.216,-51"/>
<text text-anchor="start" x="275.216" y="-70" font-family="Helvetica,sans-Serif" font-size="10.00">frame_resolution::frame</text>
<text text-anchor="middle" x="328" y="-58" font-family="Helvetica,sans-Serif" font-size="10.00">_resolution</text>
</a>
</g>
</g>
<!-- Node2&#45;&gt;Node3 -->
<g id="edge2" class="edge"><title>Node2&#45;&gt;Node3</title>
<path fill="none" stroke="midnightblue" d="M238.356,-60.0018C247.876,-60.7534 257.669,-61.5265 267.113,-62.2721"/>
<polygon fill="midnightblue" stroke="midnightblue" points="238.407,-56.495 228.162,-59.197 237.856,-63.4733 238.407,-56.495"/>
</g>
<!-- Node2&#45;&gt;Node4 -->
<g id="edge3" class="edge"><title>Node2&#45;&gt;Node4</title>
<path fill="none" stroke="midnightblue" d="M224.206,-42.3747C237.112,-39.0635 251.199,-35.449 264.691,-31.9872"/>
<polygon fill="midnightblue" stroke="midnightblue" points="222.96,-39.081 214.144,-44.9565 224.7,-45.8614 222.96,-39.081"/>
</g>
</g>
</svg>
