<?xml version="1.0" encoding="UTF-8" standalone="no"?>
<!DOCTYPE svg PUBLIC "-//W3C//DTD SVG 1.1//EN"
 "http://www.w3.org/Graphics/SVG/1.1/DTD/svg11.dtd">
<!-- Generated by graphviz version 2.30.1 (20130404.1610)
 -->
<!-- Title: Graph Legend Pages: 1 -->
<svg width="510pt" height="164pt"
 viewBox="0.00 0.00 510.00 164.00" xmlns="http://www.w3.org/2000/svg" xmlns:xlink="http://www.w3.org/1999/xlink">
<g id="graph0" class="graph" transform="scale(1 1) rotate(0) translate(4 160)">
<title>Graph Legend</title>
<!-- Node9 -->
<g id="node1" class="node"><title>Node9</title>
<polygon fill="#bfbfbf" stroke="black" points="293.176,-20 238.824,-20 238.824,-0 293.176,-0 293.176,-20"/>
<text text-anchor="middle" x="266" y="-7" font-family="Helvetica,sans-Serif" font-size="10.00">Inherited</text>
</g>
<!-- Node10 -->
<g id="node2" class="node"><title>Node10</title>
<g id="a_node2"><a xlink:href="$classPublicBase.html" xlink:title="PublicBase">
<polygon fill="none" stroke="black" points="66.009,-88 -0.00900055,-88 -0.00900055,-68 66.009,-68 66.009,-88"/>
<text text-anchor="middle" x="33" y="-75" font-family="Helvetica,sans-Serif" font-size="10.00">PublicBase</text>
</a>
</g>
</g>
<!-- Node10&#45;&gt;Node9 -->
<g id="edge1" class="edge"><title>Node10&#45;&gt;Node9</title>
<path fill="none" stroke="midnightblue" d="M74.5803,-65.2219C122.062,-51.772 198.381,-30.1539 238.818,-18.6997"/>
<polygon fill="midnightblue" stroke="midnightblue" points="73.5766,-61.8684 64.9091,-67.9614 75.4845,-68.6034 73.5766,-61.8684"/>
</g>
<!-- Node11 -->
<g id="node3" class="node"><title>Node11</title>
<g id="a_node3"><a xlink:href="$classTruncated.html" xlink:title="Truncated">
<polygon fill="none" stroke="red" points="63.259,-156 2.74105,-156 2.74105,-136 63.259,-136 63.259,-156"/>
<text text-anchor="middle" x="33" y="-143" font-family="Helvetica,sans-Serif" font-size="10.00">Truncated</text>
</a>
</g>
</g>
<!-- Node11&#45;&gt;Node10 -->
<g id="edge2" class="edge"><title>Node11&#45;&gt;Node10</title>
<path fill="none" stroke="midnightblue" d="M33,-125.576C33,-113.193 33,-97.7217 33,-88.0991"/>
<polygon fill="midnightblue" stroke="midnightblue" points="29.5001,-125.823 33,-135.823 36.5001,-125.823 29.5001,-125.823"/>
</g>
<!-- Node13 -->
<g id="node4" class="node"><title>Node13</title>
<g id="a_node4"><a xlink:href="$classProtectedBase.html" xlink:title="ProtectedBase">
<polygon fill="none" stroke="black" points="165.187,-88 84.8126,-88 84.8126,-68 165.187,-68 165.187,-88"/>
<text text-anchor="middle" x="125" y="-75" font-family="Helvetica,sans-Serif" font-size="10.00">ProtectedBase</text>
</a>
</g>
</g>
<!-- Node13&#45;&gt;Node9 -->
<g id="edge3" class="edge"><title>Node13&#45;&gt;Node9</title>
<path fill="none" stroke="darkgreen" d="M153.472,-63.6725C181.12,-50.7311 222.348,-31.4327 246.471,-20.1413"/>
<polygon fill="darkgreen" stroke="darkgreen" points="151.883,-60.552 144.31,-67.9614 154.851,-66.8918 151.883,-60.552"/>
</g>
<!-- Node14 -->
<g id="node5" class="node"><title>Node14</title>
<g id="a_node5"><a xlink:href="$classPrivateBase.html" xlink:title="PrivateBase">
<polygon fill="none" stroke="black" points="253.426,-88 184.574,-88 184.574,-68 253.426,-68 253.426,-88"/>
<text text-anchor="middle" x="219" y="-75" font-family="Helvetica,sans-Serif" font-size="10.00">PrivateBase</text>
</a>
</g>
</g>
<!-- Node14&#45;&gt;Node9 -->
<g id="edge4" class="edge"><title>Node14&#45;&gt;Node9</title>
<path fill="none" stroke="#8b1a1a" d="M231.501,-59.4458C240.515,-46.7871 252.318,-30.2127 259.52,-20.0991"/>
<polygon fill="#8b1a1a" stroke="#8b1a1a" points="228.485,-57.647 225.535,-67.823 234.187,-61.7076 228.485,-57.647"/>
</g>
<!-- Node15 -->
<g id="node6" class="node"><title>Node15</title>
<polygon fill="none" stroke="#bfbfbf" points="355.351,-88 272.649,-88 272.649,-68 355.351,-68 355.351,-88"/>
<text text-anchor="middle" x="314" y="-75" font-family="Helvetica,sans-Serif" font-size="10.00">Undocumented</text>
</g>
<!-- Node15&#45;&gt;Node9 -->
<g id="edge5" class="edge"><title>Node15&#45;&gt;Node9</title>
<path fill="none" stroke="midnightblue" d="M301.233,-59.4458C292.027,-46.7871 279.973,-30.2127 272.618,-20.0991"/>
<polygon fill="midnightblue" stroke="midnightblue" points="298.613,-61.7942 307.326,-67.823 304.275,-57.677 298.613,-61.7942"/>
</g>
<!-- Node16 -->
<g id="node7" class="node"><title>Node16</title>
<g id="a_node7"><a xlink:href="$classTempl.html" xlink:title="Templ&lt; int &gt;">
<polygon fill="none" stroke="black" points="445.18,-88 374.82,-88 374.82,-68 445.18,-68 445.18,-88"/>
<text text-anchor="middle" x="410" y="-75" font-family="Helvetica,sans-Serif" font-size="10.00">Templ&lt; int &gt;</text>
</a>
</g>
</g>
<!-- Node16&#45;&gt;Node9 -->
<g id="edge6" class="edge"><title>Node16&#45;&gt;Node9</title>
<path fill="none" stroke="midnightblue" d="M380.922,-63.6725C352.686,-50.7311 310.581,-31.4327 285.945,-20.1413"/>
<polygon fill="midnightblue" stroke="midnightblue" points="379.73,-66.9765 390.279,-67.9614 382.647,-60.613 379.73,-66.9765"/>
</g>
<!-- Node17 -->
<g id="node8" class="node"><title>Node17</title>
<g id="a_node8"><a xlink:href="$classTempl.html" xlink:title="Templ&lt; T &gt;">
<polygon fill="none" stroke="black" points="443.34,-156 376.66,-156 376.66,-136 443.34,-136 443.34,-156"/>
<text text-anchor="middle" x="410" y="-143" font-family="Helvetica,sans-Serif" font-size="10.00">Templ&lt; T &gt;</text>
</a>
</g>
</g>
<!-- Node17&#45;&gt;Node16 -->
<g id="edge7" class="edge"><title>Node17&#45;&gt;Node16</title>
<path fill="none" stroke="orange" stroke-dasharray="5,2" d="M410,-125.576C410,-113.193 410,-97.7217 410,-88.0991"/>
<polygon fill="orange" stroke="orange" points="406.5,-125.823 410,-135.823 413.5,-125.823 406.5,-125.823"/>
<text text-anchor="middle" x="423.897" y="-109" font-family="Helvetica,sans-Serif" font-size="10.00">&lt; int &gt;</text>
</g>
<!-- Node18 -->
<g id="node9" class="node"><title>Node18</title>
<g id="a_node9"><a xlink:href="$classUsed.html" xlink:title="Used">
<polygon fill="none" stroke="black" points="502.501,-88 463.499,-88 463.499,-68 502.501,-68 502.501,-88"/>
<text text-anchor="middle" x="483" y="-75" font-family="Helvetica,sans-Serif" font-size="10.00">Used</text>
</a>
</g>
</g>
<!-- Node18&#45;&gt;Node9 -->
<g id="edge8" class="edge"><title>Node18&#45;&gt;Node9</title>
<path fill="none" stroke="#9a32cd" stroke-dasharray="5,2" d="M454.293,-68.09C454.195,-68.06 454.098,-68.03 454,-68 396.939,-50.4957 330.039,-30.2869 293.416,-19.251"/>
<polygon fill="#9a32cd" stroke="#9a32cd" points="453.075,-71.3769 463.662,-70.9794 455.138,-64.6877 453.075,-71.3769"/>
<text text-anchor="middle" x="422.281" y="-41" font-family="Helvetica,sans-Serif" font-size="10.00">m_usedClass</text>
</g>
</g>
</svg>
