<?xml version="1.0" encoding="UTF-8" standalone="no"?>
<!DOCTYPE svg PUBLIC "-//W3C//DTD SVG 1.1//EN"
 "http://www.w3.org/Graphics/SVG/1.1/DTD/svg11.dtd">
<!-- Generated by graphviz version 2.30.1 (20130404.1610)
 -->
<!-- Title: Graphical Class Hierarchy Pages: 1 -->
<svg width="836pt" height="910pt"
 viewBox="0.00 0.00 836.00 910.00" xmlns="http://www.w3.org/2000/svg" xmlns:xlink="http://www.w3.org/1999/xlink">
<g id="graph0" class="graph" transform="scale(1 1) rotate(0) translate(4 906)">
<title>Graphical Class Hierarchy</title>
<!-- Node1 -->
<g id="node1" class="node"><title>Node1</title>
<g id="a_node1"><a xlink:title="STL class. ">
<polygon fill="none" stroke="#bfbfbf" points="0.545,-623 0.545,-643 75.455,-643 75.455,-623 0.545,-623"/>
<text text-anchor="middle" x="38" y="-630" font-family="Helvetica,sans-Serif" font-size="10.00">std::ios_base</text>
</a>
</g>
</g>
<!-- Node2 -->
<g id="node2" class="node"><title>Node2</title>
<polygon fill="none" stroke="#bfbfbf" points="120.373,-662 120.373,-682 233.627,-682 233.627,-662 120.373,-662"/>
<text text-anchor="middle" x="177" y="-669" font-family="Helvetica,sans-Serif" font-size="10.00">std::basic_ios&lt; char &gt;</text>
</g>
<!-- Node1&#45;&gt;Node2 -->
<g id="edge1" class="edge"><title>Node1&#45;&gt;Node2</title>
<path fill="none" stroke="midnightblue" d="M83.9554,-645.798C102.435,-651.058 123.517,-657.06 140.839,-661.991"/>
<polygon fill="midnightblue" stroke="midnightblue" points="84.8571,-642.415 74.2809,-643.043 82.9405,-649.148 84.8571,-642.415"/>
</g>
<!-- Node3 -->
<g id="node3" class="node"><title>Node3</title>
<polygon fill="none" stroke="#bfbfbf" points="112.595,-623 112.595,-643 241.405,-643 241.405,-623 112.595,-623"/>
<text text-anchor="middle" x="177" y="-630" font-family="Helvetica,sans-Serif" font-size="10.00">std::basic_ios&lt; wchar_t &gt;</text>
</g>
<!-- Node1&#45;&gt;Node3 -->
<g id="edge2" class="edge"><title>Node1&#45;&gt;Node3</title>
<path fill="none" stroke="midnightblue" d="M85.8748,-633C94.4438,-633 103.516,-633 112.474,-633"/>
<polygon fill="midnightblue" stroke="midnightblue" points="85.7135,-629.5 75.7135,-633 85.7135,-636.5 85.7135,-629.5"/>
</g>
<!-- Node4 -->
<g id="node4" class="node"><title>Node4</title>
<g id="a_node4"><a xlink:title="STL class. ">
<polygon fill="none" stroke="#bfbfbf" points="119.264,-584 119.264,-604 234.736,-604 234.736,-584 119.264,-584"/>
<text text-anchor="middle" x="177" y="-591" font-family="Helvetica,sans-Serif" font-size="10.00">std::basic_ios&lt; Char &gt;</text>
</a>
</g>
</g>
<!-- Node1&#45;&gt;Node4 -->
<g id="edge3" class="edge"><title>Node1&#45;&gt;Node4</title>
<path fill="none" stroke="midnightblue" d="M83.9554,-620.202C102.435,-614.942 123.517,-608.94 140.839,-604.009"/>
<polygon fill="midnightblue" stroke="midnightblue" points="82.9405,-616.852 74.2809,-622.957 84.8571,-623.585 82.9405,-616.852"/>
</g>
<!-- Node5 -->
<g id="node5" class="node"><title>Node5</title>
<polygon fill="none" stroke="#bfbfbf" points="279.717,-757 279.717,-789 376.283,-789 376.283,-757 279.717,-757"/>
<text text-anchor="start" x="287.717" y="-776" font-family="Helvetica,sans-Serif" font-size="10.00">std::basic_istream</text>
<text text-anchor="middle" x="328" y="-764" font-family="Helvetica,sans-Serif" font-size="10.00">&lt; char &gt;</text>
</g>
<!-- Node4&#45;&gt;Node5 -->
<g id="edge4" class="edge"><title>Node4&#45;&gt;Node5</title>
<path fill="none" stroke="midnightblue" d="M236.8,-609.395C238.65,-610.799 240.393,-612.33 242,-614 284.46,-658.128 239.797,-699.139 278,-747 281.004,-750.763 284.704,-754.048 288.713,-756.898"/>
<polygon fill="midnightblue" stroke="midnightblue" points="238.452,-606.302 228.106,-604.02 234.771,-612.256 238.452,-606.302"/>
</g>
<!-- Node6 -->
<g id="node6" class="node"><title>Node6</title>
<polygon fill="none" stroke="#bfbfbf" points="279.717,-706 279.717,-738 376.283,-738 376.283,-706 279.717,-706"/>
<text text-anchor="start" x="287.717" y="-725" font-family="Helvetica,sans-Serif" font-size="10.00">std::basic_istream</text>
<text text-anchor="middle" x="328" y="-713" font-family="Helvetica,sans-Serif" font-size="10.00">&lt; wchar_t &gt;</text>
</g>
<!-- Node4&#45;&gt;Node6 -->
<g id="edge5" class="edge"><title>Node4&#45;&gt;Node6</title>
<path fill="none" stroke="midnightblue" d="M235.529,-609.071C237.816,-610.562 239.989,-612.2 242,-614 271.66,-640.543 250.918,-666.832 278,-696 281.407,-699.67 285.452,-702.922 289.735,-705.774"/>
<polygon fill="midnightblue" stroke="midnightblue" points="236.691,-605.72 226.234,-604.022 233.35,-611.871 236.691,-605.72"/>
</g>
<!-- Node7 -->
<g id="node7" class="node"><title>Node7</title>
<polygon fill="none" stroke="#bfbfbf" points="278.047,-655 278.047,-687 377.953,-687 377.953,-655 278.047,-655"/>
<text text-anchor="start" x="286.047" y="-674" font-family="Helvetica,sans-Serif" font-size="10.00">std::basic_ostream</text>
<text text-anchor="middle" x="328" y="-662" font-family="Helvetica,sans-Serif" font-size="10.00">&lt; char &gt;</text>
</g>
<!-- Node4&#45;&gt;Node7 -->
<g id="edge6" class="edge"><title>Node4&#45;&gt;Node7</title>
<path fill="none" stroke="midnightblue" d="M228.583,-607.645C233.227,-609.538 237.77,-611.651 242,-614 260.46,-624.25 260.566,-633.089 278,-645 283.089,-648.477 288.696,-651.84 294.244,-654.93"/>
<polygon fill="midnightblue" stroke="midnightblue" points="229.572,-604.279 218.979,-604.067 227.128,-610.838 229.572,-604.279"/>
</g>
<!-- Node8 -->
<g id="node8" class="node"><title>Node8</title>
<polygon fill="none" stroke="#bfbfbf" points="278.047,-604 278.047,-636 377.953,-636 377.953,-604 278.047,-604"/>
<text text-anchor="start" x="286.047" y="-623" font-family="Helvetica,sans-Serif" font-size="10.00">std::basic_ostream</text>
<text text-anchor="middle" x="328" y="-611" font-family="Helvetica,sans-Serif" font-size="10.00">&lt; wchar_t &gt;</text>
</g>
<!-- Node4&#45;&gt;Node8 -->
<g id="edge7" class="edge"><title>Node4&#45;&gt;Node8</title>
<path fill="none" stroke="midnightblue" d="M244.823,-605.66C255.885,-607.591 267.176,-609.561 277.705,-611.398"/>
<polygon fill="midnightblue" stroke="midnightblue" points="245.208,-602.175 234.756,-603.904 244.005,-609.071 245.208,-602.175"/>
</g>
<!-- Node9 -->
<g id="node9" class="node"><title>Node9</title>
<g id="a_node9"><a xlink:title="STL class. ">
<polygon fill="none" stroke="#bfbfbf" points="279.717,-317 279.717,-349 376.283,-349 376.283,-317 279.717,-317"/>
<text text-anchor="start" x="287.717" y="-336" font-family="Helvetica,sans-Serif" font-size="10.00">std::basic_istream</text>
<text text-anchor="middle" x="328" y="-324" font-family="Helvetica,sans-Serif" font-size="10.00">&lt; Char &gt;</text>
</a>
</g>
</g>
<!-- Node4&#45;&gt;Node9 -->
<g id="edge8" class="edge"><title>Node4&#45;&gt;Node9</title>
<path fill="none" stroke="midnightblue" d="M188.974,-574.777C217.15,-525.421 291.66,-394.904 317.788,-349.136"/>
<polygon fill="midnightblue" stroke="midnightblue" points="185.759,-573.349 183.841,-583.768 191.838,-576.819 185.759,-573.349"/>
</g>
<!-- Node35 -->
<g id="node35" class="node"><title>Node35</title>
<g id="a_node35"><a xlink:title="STL class. ">
<polygon fill="none" stroke="#bfbfbf" points="278.047,-553 278.047,-585 377.953,-585 377.953,-553 278.047,-553"/>
<text text-anchor="start" x="286.047" y="-572" font-family="Helvetica,sans-Serif" font-size="10.00">std::basic_ostream</text>
<text text-anchor="middle" x="328" y="-560" font-family="Helvetica,sans-Serif" font-size="10.00">&lt; Char &gt;</text>
</a>
</g>
</g>
<!-- Node4&#45;&gt;Node35 -->
<g id="edge34" class="edge"><title>Node4&#45;&gt;Node35</title>
<path fill="none" stroke="midnightblue" d="M244.823,-582.788C255.885,-580.932 267.176,-579.038 277.705,-577.271"/>
<polygon fill="midnightblue" stroke="midnightblue" points="244.039,-579.371 234.756,-584.477 245.197,-586.274 244.039,-579.371"/>
</g>
<!-- Node48 -->
<g id="node48" class="node"><title>Node48</title>
<g id="a_node48"><a xlink:title="STL class. ">
<polygon fill="none" stroke="#bfbfbf" points="304.163,-278 304.163,-298 351.837,-298 351.837,-278 304.163,-278"/>
<text text-anchor="middle" x="328" y="-285" font-family="Helvetica,sans-Serif" font-size="10.00">std::ios</text>
</a>
</g>
</g>
<!-- Node4&#45;&gt;Node48 -->
<g id="edge50" class="edge"><title>Node4&#45;&gt;Node48</title>
<path fill="none" stroke="midnightblue" d="M179.378,-573.627C183.933,-522.031 202.852,-384.797 278,-307 284.91,-299.847 294.818,-295.341 303.92,-292.524"/>
<polygon fill="midnightblue" stroke="midnightblue" points="175.872,-573.556 178.572,-583.801 182.851,-574.109 175.872,-573.556"/>
</g>
<!-- Node49 -->
<g id="node49" class="node"><title>Node49</title>
<g id="a_node49"><a xlink:title="STL class. ">
<polygon fill="none" stroke="#bfbfbf" points="300.553,-239 300.553,-259 355.447,-259 355.447,-239 300.553,-239"/>
<text text-anchor="middle" x="328" y="-246" font-family="Helvetica,sans-Serif" font-size="10.00">std::wios</text>
</a>
</g>
</g>
<!-- Node4&#45;&gt;Node49 -->
<g id="edge51" class="edge"><title>Node4&#45;&gt;Node49</title>
<path fill="none" stroke="midnightblue" d="M178.364,-573.931C180.453,-517.979 193.879,-358.431 278,-268 283.966,-261.587 292.348,-257.311 300.495,-254.473"/>
<polygon fill="midnightblue" stroke="midnightblue" points="174.864,-573.867 178.074,-583.964 181.861,-574.069 174.864,-573.867"/>
</g>
<!-- Node10 -->
<g id="node10" class="node"><title>Node10</title>
<polygon fill="none" stroke="#bfbfbf" points="426.327,-294 426.327,-326 525.673,-326 525.673,-294 426.327,-294"/>
<text text-anchor="start" x="434.327" y="-313" font-family="Helvetica,sans-Serif" font-size="10.00">std::basic_ifstream</text>
<text text-anchor="middle" x="476" y="-301" font-family="Helvetica,sans-Serif" font-size="10.00">&lt; char &gt;</text>
</g>
<!-- Node9&#45;&gt;Node10 -->
<g id="edge9" class="edge"><title>Node9&#45;&gt;Node10</title>
<path fill="none" stroke="midnightblue" d="M386.293,-323.974C399.448,-321.902 413.318,-319.717 426.082,-317.706"/>
<polygon fill="midnightblue" stroke="midnightblue" points="385.736,-320.519 376.402,-325.533 386.825,-327.434 385.736,-320.519"/>
</g>
<!-- Node11 -->
<g id="node11" class="node"><title>Node11</title>
<polygon fill="none" stroke="#bfbfbf" points="426.327,-243 426.327,-275 525.673,-275 525.673,-243 426.327,-243"/>
<text text-anchor="start" x="434.327" y="-262" font-family="Helvetica,sans-Serif" font-size="10.00">std::basic_ifstream</text>
<text text-anchor="middle" x="476" y="-250" font-family="Helvetica,sans-Serif" font-size="10.00">&lt; wchar_t &gt;</text>
</g>
<!-- Node9&#45;&gt;Node11 -->
<g id="edge10" class="edge"><title>Node9&#45;&gt;Node11</title>
<path fill="none" stroke="midnightblue" d="M369.256,-311.977C372.231,-310.321 375.172,-308.65 378,-307 394.399,-297.431 397.148,-292.746 414,-284 419.993,-280.889 426.464,-277.885 432.874,-275.102"/>
<polygon fill="midnightblue" stroke="midnightblue" points="367.407,-308.999 360.314,-316.868 370.766,-315.14 367.407,-308.999"/>
</g>
<!-- Node12 -->
<g id="node12" class="node"><title>Node12</title>
<polygon fill="none" stroke="#bfbfbf" points="424.938,-384 424.938,-416 527.062,-416 527.062,-384 424.938,-384"/>
<text text-anchor="start" x="432.938" y="-403" font-family="Helvetica,sans-Serif" font-size="10.00">std::basic_iostream</text>
<text text-anchor="middle" x="476" y="-391" font-family="Helvetica,sans-Serif" font-size="10.00">&lt; char &gt;</text>
</g>
<!-- Node9&#45;&gt;Node12 -->
<g id="edge11" class="edge"><title>Node9&#45;&gt;Node12</title>
<path fill="none" stroke="midnightblue" d="M370.728,-353.604C384.448,-360.251 399.818,-367.561 414,-374 421.233,-377.284 428.998,-380.686 436.484,-383.905"/>
<polygon fill="midnightblue" stroke="midnightblue" points="372.051,-350.356 361.527,-349.127 368.988,-356.65 372.051,-350.356"/>
</g>
<!-- Node13 -->
<g id="node13" class="node"><title>Node13</title>
<polygon fill="none" stroke="#bfbfbf" points="424.938,-486 424.938,-518 527.062,-518 527.062,-486 424.938,-486"/>
<text text-anchor="start" x="432.938" y="-505" font-family="Helvetica,sans-Serif" font-size="10.00">std::basic_iostream</text>
<text text-anchor="middle" x="476" y="-493" font-family="Helvetica,sans-Serif" font-size="10.00">&lt; wchar_t &gt;</text>
</g>
<!-- Node9&#45;&gt;Node13 -->
<g id="edge12" class="edge"><title>Node9&#45;&gt;Node13</title>
<path fill="none" stroke="midnightblue" d="M338.496,-358.826C351.258,-390.327 376.732,-443.399 414,-476 418.332,-479.79 423.299,-483.091 428.488,-485.95"/>
<polygon fill="midnightblue" stroke="midnightblue" points="341.712,-357.439 334.8,-349.409 335.196,-359.997 341.712,-357.439"/>
</g>
<!-- Node14 -->
<g id="node14" class="node"><title>Node14</title>
<polygon fill="none" stroke="#bfbfbf" points="415.495,-192 415.495,-224 536.505,-224 536.505,-192 415.495,-192"/>
<text text-anchor="start" x="423.495" y="-211" font-family="Helvetica,sans-Serif" font-size="10.00">std::basic_istringstream</text>
<text text-anchor="middle" x="476" y="-199" font-family="Helvetica,sans-Serif" font-size="10.00">&lt; char &gt;</text>
</g>
<!-- Node9&#45;&gt;Node14 -->
<g id="edge13" class="edge"><title>Node9&#45;&gt;Node14</title>
<path fill="none" stroke="midnightblue" d="M373.682,-311.032C375.199,-309.747 376.645,-308.403 378,-307 403.405,-280.689 387.326,-258.024 414,-233 417.589,-229.633 421.694,-226.691 426.039,-224.128"/>
<polygon fill="midnightblue" stroke="midnightblue" points="371.601,-308.217 365.632,-316.97 375.757,-313.85 371.601,-308.217"/>
</g>
<!-- Node15 -->
<g id="node15" class="node"><title>Node15</title>
<polygon fill="none" stroke="#bfbfbf" points="415.495,-141 415.495,-173 536.505,-173 536.505,-141 415.495,-141"/>
<text text-anchor="start" x="423.495" y="-160" font-family="Helvetica,sans-Serif" font-size="10.00">std::basic_istringstream</text>
<text text-anchor="middle" x="476" y="-148" font-family="Helvetica,sans-Serif" font-size="10.00">&lt; wchar_t &gt;</text>
</g>
<!-- Node9&#45;&gt;Node15 -->
<g id="edge14" class="edge"><title>Node9&#45;&gt;Node15</title>
<path fill="none" stroke="midnightblue" d="M374.967,-310.369C376.037,-309.291 377.052,-308.168 378,-307 414.429,-262.107 375.397,-225.038 414,-182 417.057,-178.592 420.648,-175.639 424.531,-173.081"/>
<polygon fill="midnightblue" stroke="midnightblue" points="372.647,-307.747 367.229,-316.851 377.142,-313.113 372.647,-307.747"/>
</g>
<!-- Node16 -->
<g id="node16" class="node"><title>Node16</title>
<g id="a_node16"><a xlink:title="STL class. ">
<polygon fill="none" stroke="#bfbfbf" points="426.327,-90 426.327,-122 525.673,-122 525.673,-90 426.327,-90"/>
<text text-anchor="start" x="434.327" y="-109" font-family="Helvetica,sans-Serif" font-size="10.00">std::basic_ifstream</text>
<text text-anchor="middle" x="476" y="-97" font-family="Helvetica,sans-Serif" font-size="10.00">&lt; Char &gt;</text>
</a>
</g>
</g>
<!-- Node9&#45;&gt;Node16 -->
<g id="edge15" class="edge"><title>Node9&#45;&gt;Node16</title>
<path fill="none" stroke="midnightblue" d="M375.509,-310.011C376.388,-309.044 377.221,-308.041 378,-307 425.832,-243.072 363.067,-192.486 414,-131 417.432,-126.857 421.659,-123.393 426.275,-120.498"/>
<polygon fill="midnightblue" stroke="midnightblue" points="373.116,-307.456 367.993,-316.73 377.782,-312.674 373.116,-307.456"/>
</g>
<!-- Node19 -->
<g id="node19" class="node"><title>Node19</title>
<g id="a_node19"><a xlink:title="STL class. ">
<polygon fill="none" stroke="#bfbfbf" points="424.938,-435 424.938,-467 527.062,-467 527.062,-435 424.938,-435"/>
<text text-anchor="start" x="432.938" y="-454" font-family="Helvetica,sans-Serif" font-size="10.00">std::basic_iostream</text>
<text text-anchor="middle" x="476" y="-442" font-family="Helvetica,sans-Serif" font-size="10.00">&lt; Char &gt;</text>
</a>
</g>
</g>
<!-- Node9&#45;&gt;Node19 -->
<g id="edge18" class="edge"><title>Node9&#45;&gt;Node19</title>
<path fill="none" stroke="midnightblue" d="M346.78,-357.39C362.574,-377.664 387.249,-406.147 414,-425 419.27,-428.714 425.153,-432.047 431.129,-434.988"/>
<polygon fill="midnightblue" stroke="midnightblue" points="349.422,-355.084 340.574,-349.256 343.857,-359.329 349.422,-355.084"/>
</g>
<!-- Node30 -->
<g id="node30" class="node"><title>Node30</title>
<g id="a_node30"><a xlink:title="STL class. ">
<polygon fill="none" stroke="#bfbfbf" points="415.495,-39 415.495,-71 536.505,-71 536.505,-39 415.495,-39"/>
<text text-anchor="start" x="423.495" y="-58" font-family="Helvetica,sans-Serif" font-size="10.00">std::basic_istringstream</text>
<text text-anchor="middle" x="476" y="-46" font-family="Helvetica,sans-Serif" font-size="10.00">&lt; Char &gt;</text>
</a>
</g>
</g>
<!-- Node9&#45;&gt;Node30 -->
<g id="edge29" class="edge"><title>Node9&#45;&gt;Node30</title>
<path fill="none" stroke="midnightblue" d="M375.572,-310.057C376.432,-309.077 377.244,-308.058 378,-307 437.363,-223.87 350.602,-160.095 414,-80 416.699,-76.5898 419.941,-73.6412 423.505,-71.0923"/>
<polygon fill="midnightblue" stroke="midnightblue" points="373.167,-307.514 368.158,-316.85 377.896,-312.675 373.167,-307.514"/>
</g>
<!-- Node33 -->
<g id="node33" class="node"><title>Node33</title>
<g id="a_node33"><a xlink:title="STL class. ">
<polygon fill="none" stroke="#bfbfbf" points="442.165,-0 442.165,-20 509.835,-20 509.835,-0 442.165,-0"/>
<text text-anchor="middle" x="476" y="-7" font-family="Helvetica,sans-Serif" font-size="10.00">std::istream</text>
</a>
</g>
</g>
<!-- Node9&#45;&gt;Node33 -->
<g id="edge32" class="edge"><title>Node9&#45;&gt;Node33</title>
<path fill="none" stroke="midnightblue" d="M375.613,-310.086C376.461,-309.097 377.26,-308.069 378,-307 448.95,-204.588 333.852,-124.385 414,-29 420.993,-20.6777 431.571,-15.9427 441.965,-13.2682"/>
<polygon fill="midnightblue" stroke="midnightblue" points="373.2,-307.55 368.265,-316.925 377.969,-312.674 373.2,-307.55"/>
</g>
<!-- Node34 -->
<g id="node34" class="node"><title>Node34</title>
<g id="a_node34"><a xlink:title="STL class. ">
<polygon fill="none" stroke="#bfbfbf" points="438.555,-345 438.555,-365 513.444,-365 513.444,-345 438.555,-345"/>
<text text-anchor="middle" x="476" y="-352" font-family="Helvetica,sans-Serif" font-size="10.00">std::wistream</text>
</a>
</g>
</g>
<!-- Node9&#45;&gt;Node34 -->
<g id="edge33" class="edge"><title>Node9&#45;&gt;Node34</title>
<path fill="none" stroke="midnightblue" d="M386.528,-341.669C404.024,-344.305 422.764,-347.129 438.471,-349.496"/>
<polygon fill="midnightblue" stroke="midnightblue" points="386.812,-338.172 376.402,-340.143 385.769,-345.094 386.812,-338.172"/>
</g>
<!-- Node17 -->
<g id="node17" class="node"><title>Node17</title>
<g id="a_node17"><a xlink:title="STL class. ">
<polygon fill="none" stroke="#bfbfbf" points="598.775,-129 598.775,-149 669.225,-149 669.225,-129 598.775,-129"/>
<text text-anchor="middle" x="634" y="-136" font-family="Helvetica,sans-Serif" font-size="10.00">std::ifstream</text>
</a>
</g>
</g>
<!-- Node16&#45;&gt;Node17 -->
<g id="edge16" class="edge"><title>Node16&#45;&gt;Node17</title>
<path fill="none" stroke="midnightblue" d="M535.812,-118.441C556.984,-122.92 580.166,-127.824 598.578,-131.718"/>
<polygon fill="midnightblue" stroke="midnightblue" points="536.439,-114.996 525.931,-116.351 534.99,-121.845 536.439,-114.996"/>
</g>
<!-- Node18 -->
<g id="node18" class="node"><title>Node18</title>
<g id="a_node18"><a xlink:title="STL class. ">
<polygon fill="none" stroke="#bfbfbf" points="595.166,-90 595.166,-110 672.834,-110 672.834,-90 595.166,-90"/>
<text text-anchor="middle" x="634" y="-97" font-family="Helvetica,sans-Serif" font-size="10.00">std::wifstream</text>
</a>
</g>
</g>
<!-- Node16&#45;&gt;Node18 -->
<g id="edge17" class="edge"><title>Node16&#45;&gt;Node18</title>
<path fill="none" stroke="midnightblue" d="M536.095,-103.727C555.888,-102.966 577.41,-102.138 595.133,-101.456"/>
<polygon fill="midnightblue" stroke="midnightblue" points="535.789,-100.236 525.931,-104.118 536.059,-107.231 535.789,-100.236"/>
</g>
<!-- Node20 -->
<g id="node20" class="node"><title>Node20</title>
<polygon fill="none" stroke="#bfbfbf" points="585.437,-415 585.437,-447 682.563,-447 682.563,-415 585.437,-415"/>
<text text-anchor="start" x="593.437" y="-434" font-family="Helvetica,sans-Serif" font-size="10.00">std::basic_fstream</text>
<text text-anchor="middle" x="634" y="-422" font-family="Helvetica,sans-Serif" font-size="10.00">&lt; char &gt;</text>
</g>
<!-- Node19&#45;&gt;Node20 -->
<g id="edge19" class="edge"><title>Node19&#45;&gt;Node20</title>
<path fill="none" stroke="midnightblue" d="M537.459,-443.249C553.311,-441.217 570.182,-439.054 585.266,-437.12"/>
<polygon fill="midnightblue" stroke="midnightblue" points="536.692,-439.818 527.218,-444.562 537.582,-446.762 536.692,-439.818"/>
</g>
<!-- Node21 -->
<g id="node21" class="node"><title>Node21</title>
<polygon fill="none" stroke="#bfbfbf" points="585.437,-364 585.437,-396 682.563,-396 682.563,-364 585.437,-364"/>
<text text-anchor="start" x="593.437" y="-383" font-family="Helvetica,sans-Serif" font-size="10.00">std::basic_fstream</text>
<text text-anchor="middle" x="634" y="-371" font-family="Helvetica,sans-Serif" font-size="10.00">&lt; wchar_t &gt;</text>
</g>
<!-- Node19&#45;&gt;Node21 -->
<g id="edge20" class="edge"><title>Node19&#45;&gt;Node21</title>
<path fill="none" stroke="midnightblue" d="M525.343,-430.832C529.644,-428.906 533.914,-426.945 538,-425 554.335,-417.224 557.712,-413.875 574,-406 580.853,-402.687 588.228,-399.299 595.364,-396.111"/>
<polygon fill="midnightblue" stroke="midnightblue" points="523.681,-427.74 515.939,-434.972 526.501,-434.146 523.681,-427.74"/>
</g>
<!-- Node22 -->
<g id="node22" class="node"><title>Node22</title>
<polygon fill="none" stroke="#bfbfbf" points="574.604,-313 574.604,-345 693.396,-345 693.396,-313 574.604,-313"/>
<text text-anchor="start" x="582.604" y="-332" font-family="Helvetica,sans-Serif" font-size="10.00">std::basic_stringstream</text>
<text text-anchor="middle" x="634" y="-320" font-family="Helvetica,sans-Serif" font-size="10.00">&lt; char &gt;</text>
</g>
<!-- Node19&#45;&gt;Node22 -->
<g id="edge21" class="edge"><title>Node19&#45;&gt;Node22</title>
<path fill="none" stroke="midnightblue" d="M532.784,-429.345C534.609,-427.976 536.356,-426.529 538,-425 563.613,-401.17 548.532,-378.985 574,-355 577.993,-351.24 582.619,-347.966 587.489,-345.131"/>
<polygon fill="midnightblue" stroke="midnightblue" points="530.813,-426.452 524.358,-434.854 534.643,-432.311 530.813,-426.452"/>
</g>
<!-- Node23 -->
<g id="node23" class="node"><title>Node23</title>
<polygon fill="none" stroke="#bfbfbf" points="574.604,-262 574.604,-294 693.396,-294 693.396,-262 574.604,-262"/>
<text text-anchor="start" x="582.604" y="-281" font-family="Helvetica,sans-Serif" font-size="10.00">std::basic_stringstream</text>
<text text-anchor="middle" x="634" y="-269" font-family="Helvetica,sans-Serif" font-size="10.00">&lt; wchar_t &gt;</text>
</g>
<!-- Node19&#45;&gt;Node23 -->
<g id="edge22" class="edge"><title>Node19&#45;&gt;Node23</title>
<path fill="none" stroke="midnightblue" d="M534.311,-428.716C535.608,-427.538 536.842,-426.301 538,-425 575.591,-382.775 536.364,-345.185 574,-303 577.036,-299.597 580.614,-296.642 584.481,-294.08"/>
<polygon fill="midnightblue" stroke="midnightblue" points="532.123,-425.983 526.284,-434.824 536.361,-431.554 532.123,-425.983"/>
</g>
<!-- Node24 -->
<g id="node24" class="node"><title>Node24</title>
<g id="a_node24"><a xlink:title="STL class. ">
<polygon fill="none" stroke="#bfbfbf" points="585.437,-517 585.437,-549 682.563,-549 682.563,-517 585.437,-517"/>
<text text-anchor="start" x="593.437" y="-536" font-family="Helvetica,sans-Serif" font-size="10.00">std::basic_fstream</text>
<text text-anchor="middle" x="634" y="-524" font-family="Helvetica,sans-Serif" font-size="10.00">&lt; Char &gt;</text>
</a>
</g>
</g>
<!-- Node19&#45;&gt;Node24 -->
<g id="edge23" class="edge"><title>Node19&#45;&gt;Node24</title>
<path fill="none" stroke="midnightblue" d="M528.2,-471.489C531.573,-473.245 534.869,-475.086 538,-477 555.769,-487.865 556.298,-496.027 574,-507 579.804,-510.597 586.191,-513.957 592.555,-516.987"/>
<polygon fill="midnightblue" stroke="midnightblue" points="529.674,-468.314 519.155,-467.048 526.589,-474.597 529.674,-468.314"/>
</g>
<!-- Node27 -->
<g id="node27" class="node"><title>Node27</title>
<g id="a_node27"><a xlink:title="STL class. ">
<polygon fill="none" stroke="#bfbfbf" points="574.604,-466 574.604,-498 693.396,-498 693.396,-466 574.604,-466"/>
<text text-anchor="start" x="582.604" y="-485" font-family="Helvetica,sans-Serif" font-size="10.00">std::basic_stringstream</text>
<text text-anchor="middle" x="634" y="-473" font-family="Helvetica,sans-Serif" font-size="10.00">&lt; Char &gt;</text>
</a>
</g>
</g>
<!-- Node19&#45;&gt;Node27 -->
<g id="edge26" class="edge"><title>Node19&#45;&gt;Node27</title>
<path fill="none" stroke="midnightblue" d="M537.296,-462.982C549.499,-465.407 562.311,-467.953 574.452,-470.365"/>
<polygon fill="midnightblue" stroke="midnightblue" points="537.708,-459.496 527.218,-460.979 536.344,-466.361 537.708,-459.496"/>
</g>
<!-- Node25 -->
<g id="node25" class="node"><title>Node25</title>
<g id="a_node25"><a xlink:title="STL class. ">
<polygon fill="none" stroke="#bfbfbf" points="744.885,-559 744.885,-579 813.115,-579 813.115,-559 744.885,-559"/>
<text text-anchor="middle" x="779" y="-566" font-family="Helvetica,sans-Serif" font-size="10.00">std::fstream</text>
</a>
</g>
</g>
<!-- Node24&#45;&gt;Node25 -->
<g id="edge24" class="edge"><title>Node24&#45;&gt;Node25</title>
<path fill="none" stroke="midnightblue" d="M692.322,-547.431C710.068,-551.898 729.028,-556.671 744.589,-560.589"/>
<polygon fill="midnightblue" stroke="midnightblue" points="693.169,-544.035 682.617,-544.987 691.46,-550.823 693.169,-544.035"/>
</g>
<!-- Node26 -->
<g id="node26" class="node"><title>Node26</title>
<g id="a_node26"><a xlink:title="STL class. ">
<polygon fill="none" stroke="#bfbfbf" points="741.275,-520 741.275,-540 816.725,-540 816.725,-520 741.275,-520"/>
<text text-anchor="middle" x="779" y="-527" font-family="Helvetica,sans-Serif" font-size="10.00">std::wfstream</text>
</a>
</g>
</g>
<!-- Node24&#45;&gt;Node26 -->
<g id="edge25" class="edge"><title>Node24&#45;&gt;Node26</title>
<path fill="none" stroke="midnightblue" d="M693.076,-531.782C709.255,-531.442 726.385,-531.083 740.991,-530.776"/>
<polygon fill="midnightblue" stroke="midnightblue" points="692.541,-528.292 682.617,-532.001 692.688,-535.29 692.541,-528.292"/>
</g>
<!-- Node28 -->
<g id="node28" class="node"><title>Node28</title>
<g id="a_node28"><a xlink:title="STL class. ">
<polygon fill="none" stroke="#bfbfbf" points="734.052,-475 734.052,-495 823.948,-495 823.948,-475 734.052,-475"/>
<text text-anchor="middle" x="779" y="-482" font-family="Helvetica,sans-Serif" font-size="10.00">std::stringstream</text>
</a>
</g>
</g>
<!-- Node27&#45;&gt;Node28 -->
<g id="edge27" class="edge"><title>Node27&#45;&gt;Node28</title>
<path fill="none" stroke="midnightblue" d="M703.729,-483.442C713.937,-483.656 724.222,-483.872 733.747,-484.072"/>
<polygon fill="midnightblue" stroke="midnightblue" points="703.647,-479.939 693.576,-483.229 703.501,-486.938 703.647,-479.939"/>
</g>
<!-- Node29 -->
<g id="node29" class="node"><title>Node29</title>
<g id="a_node29"><a xlink:title="STL class. ">
<polygon fill="none" stroke="#bfbfbf" points="730.442,-436 730.442,-456 827.558,-456 827.558,-436 730.442,-436"/>
<text text-anchor="middle" x="779" y="-443" font-family="Helvetica,sans-Serif" font-size="10.00">std::wstringstream</text>
</a>
</g>
</g>
<!-- Node27&#45;&gt;Node29 -->
<g id="edge28" class="edge"><title>Node27&#45;&gt;Node29</title>
<path fill="none" stroke="midnightblue" d="M703.479,-464.76C715.334,-461.776 727.3,-458.764 738.07,-456.052"/>
<polygon fill="midnightblue" stroke="midnightblue" points="702.419,-461.418 693.576,-467.254 704.128,-468.206 702.419,-461.418"/>
</g>
<!-- Node31 -->
<g id="node31" class="node"><title>Node31</title>
<g id="a_node31"><a xlink:title="STL class. ">
<polygon fill="none" stroke="#bfbfbf" points="587.942,-48 587.942,-68 680.058,-68 680.058,-48 587.942,-48"/>
<text text-anchor="middle" x="634" y="-55" font-family="Helvetica,sans-Serif" font-size="10.00">std::istringstream</text>
</a>
</g>
</g>
<!-- Node30&#45;&gt;Node31 -->
<g id="edge30" class="edge"><title>Node30&#45;&gt;Node31</title>
<path fill="none" stroke="midnightblue" d="M547.249,-56.351C560.945,-56.6143 574.962,-56.8839 587.59,-57.1267"/>
<polygon fill="midnightblue" stroke="midnightblue" points="546.933,-52.8443 536.868,-56.1513 546.798,-59.843 546.933,-52.8443"/>
</g>
<!-- Node32 -->
<g id="node32" class="node"><title>Node32</title>
<g id="a_node32"><a xlink:title="STL class. ">
<polygon fill="none" stroke="#bfbfbf" points="584.333,-9 584.333,-29 683.667,-29 683.667,-9 584.333,-9"/>
<text text-anchor="middle" x="634" y="-16" font-family="Helvetica,sans-Serif" font-size="10.00">std::wistringstream</text>
</a>
</g>
</g>
<!-- Node30&#45;&gt;Node32 -->
<g id="edge31" class="edge"><title>Node30&#45;&gt;Node32</title>
<path fill="none" stroke="midnightblue" d="M546.839,-38.8834C561.365,-35.531 576.274,-32.0906 589.519,-29.034"/>
<polygon fill="midnightblue" stroke="midnightblue" points="545.824,-35.5254 536.868,-41.1844 547.398,-42.3461 545.824,-35.5254"/>
</g>
<!-- Node35&#45;&gt;Node12 -->
<g id="edge35" class="edge"><title>Node35&#45;&gt;Node12</title>
<path fill="none" stroke="midnightblue" d="M338.496,-543.174C351.258,-511.673 376.732,-458.601 414,-426 418.332,-422.21 423.299,-418.909 428.488,-416.05"/>
<polygon fill="midnightblue" stroke="midnightblue" points="335.196,-542.003 334.8,-552.591 341.712,-544.561 335.196,-542.003"/>
</g>
<!-- Node35&#45;&gt;Node13 -->
<g id="edge36" class="edge"><title>Node35&#45;&gt;Node13</title>
<path fill="none" stroke="midnightblue" d="M370.728,-548.396C384.448,-541.749 399.818,-534.439 414,-528 421.233,-524.716 428.998,-521.314 436.484,-518.095"/>
<polygon fill="midnightblue" stroke="midnightblue" points="368.988,-545.35 361.527,-552.873 372.051,-551.644 368.988,-545.35"/>
</g>
<!-- Node36 -->
<g id="node36" class="node"><title>Node36</title>
<polygon fill="none" stroke="#bfbfbf" points="424.657,-831 424.657,-863 527.342,-863 527.342,-831 424.657,-831"/>
<text text-anchor="start" x="432.657" y="-850" font-family="Helvetica,sans-Serif" font-size="10.00">std::basic_ofstream</text>
<text text-anchor="middle" x="476" y="-838" font-family="Helvetica,sans-Serif" font-size="10.00">&lt; char &gt;</text>
</g>
<!-- Node35&#45;&gt;Node36 -->
<g id="edge37" class="edge"><title>Node35&#45;&gt;Node36</title>
<path fill="none" stroke="midnightblue" d="M375.571,-591.943C376.432,-592.924 377.244,-593.942 378,-595 437.136,-677.753 351.405,-740.832 414,-821 416.976,-824.811 420.617,-828.071 424.625,-830.859"/>
<polygon fill="midnightblue" stroke="midnightblue" points="377.894,-589.325 368.155,-585.152 373.166,-594.487 377.894,-589.325"/>
</g>
<!-- Node37 -->
<g id="node37" class="node"><title>Node37</title>
<polygon fill="none" stroke="#bfbfbf" points="424.657,-780 424.657,-812 527.342,-812 527.342,-780 424.657,-780"/>
<text text-anchor="start" x="432.657" y="-799" font-family="Helvetica,sans-Serif" font-size="10.00">std::basic_ofstream</text>
<text text-anchor="middle" x="476" y="-787" font-family="Helvetica,sans-Serif" font-size="10.00">&lt; wchar_t &gt;</text>
</g>
<!-- Node35&#45;&gt;Node37 -->
<g id="edge38" class="edge"><title>Node35&#45;&gt;Node37</title>
<path fill="none" stroke="midnightblue" d="M375.507,-591.99C376.387,-592.956 377.221,-593.959 378,-595 425.607,-658.553 363.738,-708.525 414,-770 417.133,-773.832 420.935,-777.111 425.092,-779.913"/>
<polygon fill="midnightblue" stroke="midnightblue" points="377.779,-589.326 367.989,-585.274 373.115,-594.546 377.779,-589.326"/>
</g>
<!-- Node38 -->
<g id="node38" class="node"><title>Node38</title>
<polygon fill="none" stroke="#bfbfbf" points="413.825,-729 413.825,-761 538.176,-761 538.176,-729 413.825,-729"/>
<text text-anchor="start" x="421.825" y="-748" font-family="Helvetica,sans-Serif" font-size="10.00">std::basic_ostringstream</text>
<text text-anchor="middle" x="476" y="-736" font-family="Helvetica,sans-Serif" font-size="10.00">&lt; char &gt;</text>
</g>
<!-- Node35&#45;&gt;Node38 -->
<g id="edge39" class="edge"><title>Node35&#45;&gt;Node38</title>
<path fill="none" stroke="midnightblue" d="M374.964,-591.633C376.035,-592.711 377.051,-593.833 378,-595 414.207,-639.523 375.935,-676.054 414,-719 417.36,-722.791 421.367,-726.046 425.699,-728.839"/>
<polygon fill="midnightblue" stroke="midnightblue" points="377.136,-588.888 367.221,-585.155 372.644,-594.256 377.136,-588.888"/>
</g>
<!-- Node39 -->
<g id="node39" class="node"><title>Node39</title>
<polygon fill="none" stroke="#bfbfbf" points="413.825,-678 413.825,-710 538.176,-710 538.176,-678 413.825,-678"/>
<text text-anchor="start" x="421.825" y="-697" font-family="Helvetica,sans-Serif" font-size="10.00">std::basic_ostringstream</text>
<text text-anchor="middle" x="476" y="-685" font-family="Helvetica,sans-Serif" font-size="10.00">&lt; wchar_t &gt;</text>
</g>
<!-- Node35&#45;&gt;Node39 -->
<g id="edge40" class="edge"><title>Node35&#45;&gt;Node39</title>
<path fill="none" stroke="midnightblue" d="M373.673,-590.978C375.192,-592.26 376.642,-593.601 378,-595 403.197,-620.957 387.724,-643.136 414,-668 418.014,-671.798 422.667,-675.086 427.579,-677.921"/>
<polygon fill="midnightblue" stroke="midnightblue" points="375.742,-588.155 365.613,-585.048 371.594,-593.793 375.742,-588.155"/>
</g>
<!-- Node35&#45;&gt;Node19 -->
<g id="edge41" class="edge"><title>Node35&#45;&gt;Node19</title>
<path fill="none" stroke="midnightblue" d="M346.78,-544.61C362.574,-524.336 387.249,-495.853 414,-477 419.27,-473.286 425.153,-469.953 431.129,-467.012"/>
<polygon fill="midnightblue" stroke="midnightblue" points="343.857,-542.671 340.574,-552.744 349.422,-546.916 343.857,-542.671"/>
</g>
<!-- Node40 -->
<g id="node40" class="node"><title>Node40</title>
<g id="a_node40"><a xlink:title="STL class. ">
<polygon fill="none" stroke="#bfbfbf" points="424.657,-627 424.657,-659 527.342,-659 527.342,-627 424.657,-627"/>
<text text-anchor="start" x="432.657" y="-646" font-family="Helvetica,sans-Serif" font-size="10.00">std::basic_ofstream</text>
<text text-anchor="middle" x="476" y="-634" font-family="Helvetica,sans-Serif" font-size="10.00">&lt; Char &gt;</text>
</a>
</g>
</g>
<!-- Node35&#45;&gt;Node40 -->
<g id="edge42" class="edge"><title>Node35&#45;&gt;Node40</title>
<path fill="none" stroke="midnightblue" d="M368.804,-589.859C371.928,-591.575 375.024,-593.303 378,-595 394.289,-604.288 397.331,-608.412 414,-617 420.652,-620.427 427.859,-623.79 434.909,-626.9"/>
<polygon fill="midnightblue" stroke="midnightblue" points="370.458,-586.774 359.999,-585.083 367.121,-592.928 370.458,-586.774"/>
</g>
<!-- Node43 -->
<g id="node43" class="node"><title>Node43</title>
<g id="a_node43"><a xlink:title="STL class. ">
<polygon fill="none" stroke="#bfbfbf" points="413.825,-576 413.825,-608 538.176,-608 538.176,-576 413.825,-576"/>
<text text-anchor="start" x="421.825" y="-595" font-family="Helvetica,sans-Serif" font-size="10.00">std::basic_ostringstream</text>
<text text-anchor="middle" x="476" y="-583" font-family="Helvetica,sans-Serif" font-size="10.00">&lt; Char &gt;</text>
</a>
</g>
</g>
<!-- Node35&#45;&gt;Node43 -->
<g id="edge45" class="edge"><title>Node35&#45;&gt;Node43</title>
<path fill="none" stroke="midnightblue" d="M388.125,-578.314C396.538,-579.64 405.206,-581.005 413.66,-582.337"/>
<polygon fill="midnightblue" stroke="midnightblue" points="388.445,-574.822 378.022,-576.723 387.356,-581.736 388.445,-574.822"/>
</g>
<!-- Node46 -->
<g id="node46" class="node"><title>Node46</title>
<g id="a_node46"><a xlink:title="STL class. ">
<polygon fill="none" stroke="#bfbfbf" points="440.495,-537 440.495,-557 511.505,-557 511.505,-537 440.495,-537"/>
<text text-anchor="middle" x="476" y="-544" font-family="Helvetica,sans-Serif" font-size="10.00">std::ostream</text>
</a>
</g>
</g>
<!-- Node35&#45;&gt;Node46 -->
<g id="edge48" class="edge"><title>Node35&#45;&gt;Node46</title>
<path fill="none" stroke="midnightblue" d="M388.246,-560.073C405.884,-557.415 424.634,-554.589 440.173,-552.248"/>
<polygon fill="midnightblue" stroke="midnightblue" points="387.389,-556.662 378.022,-561.613 388.432,-563.584 387.389,-556.662"/>
</g>
<!-- Node47 -->
<g id="node47" class="node"><title>Node47</title>
<g id="a_node47"><a xlink:title="STL class. ">
<polygon fill="none" stroke="#bfbfbf" points="436.885,-882 436.885,-902 515.115,-902 515.115,-882 436.885,-882"/>
<text text-anchor="middle" x="476" y="-889" font-family="Helvetica,sans-Serif" font-size="10.00">std::wostream</text>
</a>
</g>
</g>
<!-- Node35&#45;&gt;Node47 -->
<g id="edge49" class="edge"><title>Node35&#45;&gt;Node47</title>
<path fill="none" stroke="midnightblue" d="M375.612,-591.914C376.461,-592.903 377.259,-593.931 378,-595 448.722,-697.033 334.823,-776.38 414,-872 419.829,-879.039 428.182,-883.621 436.844,-886.597"/>
<polygon fill="midnightblue" stroke="midnightblue" points="377.968,-589.326 368.263,-585.076 373.2,-594.451 377.968,-589.326"/>
</g>
<!-- Node41 -->
<g id="node41" class="node"><title>Node41</title>
<g id="a_node41"><a xlink:title="STL class. ">
<polygon fill="none" stroke="#bfbfbf" points="597.106,-685 597.106,-705 670.894,-705 670.894,-685 597.106,-685"/>
<text text-anchor="middle" x="634" y="-692" font-family="Helvetica,sans-Serif" font-size="10.00">std::ofstream</text>
</a>
</g>
</g>
<!-- Node40&#45;&gt;Node41 -->
<g id="edge43" class="edge"><title>Node40&#45;&gt;Node41</title>
<path fill="none" stroke="midnightblue" d="M534.821,-662.274C557.978,-669.993 583.684,-678.561 602.982,-684.994"/>
<polygon fill="midnightblue" stroke="midnightblue" points="535.672,-658.868 525.078,-659.026 533.458,-665.509 535.672,-658.868"/>
</g>
<!-- Node42 -->
<g id="node42" class="node"><title>Node42</title>
<g id="a_node42"><a xlink:title="STL class. ">
<polygon fill="none" stroke="#bfbfbf" points="593.496,-646 593.496,-666 674.504,-666 674.504,-646 593.496,-646"/>
<text text-anchor="middle" x="634" y="-653" font-family="Helvetica,sans-Serif" font-size="10.00">std::wofstream</text>
</a>
</g>
</g>
<!-- Node40&#45;&gt;Node42 -->
<g id="edge44" class="edge"><title>Node40&#45;&gt;Node42</title>
<path fill="none" stroke="midnightblue" d="M537.858,-648.071C556.542,-649.628 576.607,-651.301 593.471,-652.706"/>
<polygon fill="midnightblue" stroke="midnightblue" points="537.905,-644.563 527.649,-647.221 537.323,-651.539 537.905,-644.563"/>
</g>
<!-- Node44 -->
<g id="node44" class="node"><title>Node44</title>
<g id="a_node44"><a xlink:title="STL class. ">
<polygon fill="none" stroke="#bfbfbf" points="586.273,-607 586.273,-627 681.727,-627 681.727,-607 586.273,-607"/>
<text text-anchor="middle" x="634" y="-614" font-family="Helvetica,sans-Serif" font-size="10.00">std::ostringstream</text>
</a>
</g>
</g>
<!-- Node43&#45;&gt;Node44 -->
<g id="edge46" class="edge"><title>Node43&#45;&gt;Node44</title>
<path fill="none" stroke="midnightblue" d="M548.358,-603.436C561.112,-605.48 574.105,-607.562 585.958,-609.461"/>
<polygon fill="midnightblue" stroke="midnightblue" points="548.635,-599.935 538.208,-601.809 547.528,-606.847 548.635,-599.935"/>
</g>
<!-- Node45 -->
<g id="node45" class="node"><title>Node45</title>
<g id="a_node45"><a xlink:title="STL class. ">
<polygon fill="none" stroke="#bfbfbf" points="582.663,-568 582.663,-588 685.337,-588 685.337,-568 582.663,-568"/>
<text text-anchor="middle" x="634" y="-575" font-family="Helvetica,sans-Serif" font-size="10.00">std::wostringstream</text>
</a>
</g>
</g>
<!-- Node43&#45;&gt;Node45 -->
<g id="edge47" class="edge"><title>Node43&#45;&gt;Node45</title>
<path fill="none" stroke="midnightblue" d="M548.289,-585.602C559.849,-584.565 571.606,-583.51 582.536,-582.529"/>
<polygon fill="midnightblue" stroke="midnightblue" points="547.855,-582.127 538.208,-586.507 548.48,-589.099 547.855,-582.127"/>
</g>
</g>
</svg>
