<?xml version="1.0" encoding="UTF-8" standalone="no"?>
<!DOCTYPE svg PUBLIC "-//W3C//DTD SVG 1.1//EN"
 "http://www.w3.org/Graphics/SVG/1.1/DTD/svg11.dtd">
<!-- Generated by graphviz version 2.30.1 (20130404.1610)
 -->
<!-- Title: Graphical Class Hierarchy Pages: 1 -->
<svg width="502pt" height="535pt"
 viewBox="0.00 0.00 502.00 535.00" xmlns="http://www.w3.org/2000/svg" xmlns:xlink="http://www.w3.org/1999/xlink">
<g id="graph0" class="graph" transform="scale(1 1) rotate(0) translate(4 531)">
<title>Graphical Class Hierarchy</title>
<!-- Node1 -->
<g id="node1" class="node"><title>Node1</title>
<g id="a_node1"><a xlink:title="STL class. ">
<polygon fill="none" stroke="#bfbfbf" points="0.1555,-292 0.1555,-312 77.8445,-312 77.8445,-292 0.1555,-292"/>
<text text-anchor="middle" x="39" y="-299" font-family="Helvetica,sans-Serif" font-size="10.00">std::exception</text>
</a>
</g>
</g>
<!-- Node2 -->
<g id="node2" class="node"><title>Node2</title>
<g id="a_node2"><a xlink:href="classbad__shm__alloc.html" target="_top" xlink:title="bad_shm_alloc">
<polygon fill="none" stroke="black" points="154.381,-468 154.381,-488 237.619,-488 237.619,-468 154.381,-468"/>
<text text-anchor="middle" x="196" y="-475" font-family="Helvetica,sans-Serif" font-size="10.00">bad_shm_alloc</text>
</a>
</g>
</g>
<!-- Node1&#45;&gt;Node2 -->
<g id="edge1" class="edge"><title>Node1&#45;&gt;Node2</title>
<path fill="none" stroke="midnightblue" d="M43.7834,-322.228C51.1395,-355.733 70.6179,-422.56 114,-458 125.33,-467.255 140.328,-472.321 154.336,-475.062"/>
<polygon fill="midnightblue" stroke="midnightblue" points="47.1723,-321.33 41.7364,-312.236 40.3147,-322.735 47.1723,-321.33"/>
</g>
<!-- Node3 -->
<g id="node3" class="node"><title>Node3</title>
<g id="a_node3"><a xlink:href="class_no_signal_handler_found_exception.html" target="_top" xlink:title="NoSignalHandlerFoundException">
<polygon fill="none" stroke="black" points="114.094,-429 114.094,-449 277.906,-449 277.906,-429 114.094,-429"/>
<text text-anchor="middle" x="196" y="-436" font-family="Helvetica,sans-Serif" font-size="10.00">NoSignalHandlerFoundException</text>
</a>
</g>
</g>
<!-- Node1&#45;&gt;Node3 -->
<g id="edge2" class="edge"><title>Node1&#45;&gt;Node3</title>
<path fill="none" stroke="midnightblue" d="M47.1482,-321.989C57.6299,-348.357 79.7251,-394.3 114,-419 119.641,-423.065 126.014,-426.309 132.646,-428.896"/>
<polygon fill="midnightblue" stroke="midnightblue" points="50.2962,-320.42 43.4756,-312.312 43.7516,-322.903 50.2962,-320.42"/>
</g>
<!-- Node4 -->
<g id="node4" class="node"><title>Node4</title>
<g id="a_node4"><a xlink:href="class_port_exception.html" target="_top" xlink:title="PortException">
<polygon fill="none" stroke="black" points="156.88,-390 156.88,-410 235.12,-410 235.12,-390 156.88,-390"/>
<text text-anchor="middle" x="196" y="-397" font-family="Helvetica,sans-Serif" font-size="10.00">PortException</text>
</a>
</g>
</g>
<!-- Node1&#45;&gt;Node4 -->
<g id="edge3" class="edge"><title>Node1&#45;&gt;Node4</title>
<path fill="none" stroke="midnightblue" d="M52.7115,-320.599C65.945,-338.521 88.3069,-365.053 114,-380 126.896,-387.502 142.527,-392.205 156.605,-395.147"/>
<polygon fill="midnightblue" stroke="midnightblue" points="55.3148,-318.222 46.654,-312.119 49.6188,-322.291 55.3148,-318.222"/>
</g>
<!-- Node12 -->
<g id="node12" class="node"><title>Node12</title>
<g id="a_node12"><a xlink:title="STL class. ">
<polygon fill="none" stroke="#bfbfbf" points="157.156,-351 157.156,-371 234.844,-371 234.844,-351 157.156,-351"/>
<text text-anchor="middle" x="196" y="-358" font-family="Helvetica,sans-Serif" font-size="10.00">std::bad_alloc</text>
</a>
</g>
</g>
<!-- Node1&#45;&gt;Node12 -->
<g id="edge11" class="edge"><title>Node1&#45;&gt;Node12</title>
<path fill="none" stroke="midnightblue" d="M65.2041,-317.246C79.1915,-325.199 97.127,-334.58 114,-341 127.673,-346.202 143.166,-350.413 156.913,-353.604"/>
<polygon fill="midnightblue" stroke="midnightblue" points="66.6177,-314.02 56.2128,-312.023 63.1013,-320.073 66.6177,-314.02"/>
</g>
<!-- Node13 -->
<g id="node13" class="node"><title>Node13</title>
<g id="a_node13"><a xlink:title="STL class. ">
<polygon fill="none" stroke="#bfbfbf" points="158.265,-312 158.265,-332 233.735,-332 233.735,-312 158.265,-312"/>
<text text-anchor="middle" x="196" y="-319" font-family="Helvetica,sans-Serif" font-size="10.00">std::bad_cast</text>
</a>
</g>
</g>
<!-- Node1&#45;&gt;Node13 -->
<g id="edge12" class="edge"><title>Node1&#45;&gt;Node13</title>
<path fill="none" stroke="midnightblue" d="M87.9743,-308.19C110.538,-311.102 137.029,-314.52 158.009,-317.227"/>
<polygon fill="midnightblue" stroke="midnightblue" points="88.283,-304.701 77.9173,-306.893 87.3871,-311.644 88.283,-304.701"/>
</g>
<!-- Node14 -->
<g id="node14" class="node"><title>Node14</title>
<g id="a_node14"><a xlink:title="STL class. ">
<polygon fill="none" stroke="#bfbfbf" points="146.037,-273 146.037,-293 245.963,-293 245.963,-273 146.037,-273"/>
<text text-anchor="middle" x="196" y="-280" font-family="Helvetica,sans-Serif" font-size="10.00">std::bad_exception</text>
</a>
</g>
</g>
<!-- Node1&#45;&gt;Node14 -->
<g id="edge13" class="edge"><title>Node1&#45;&gt;Node14</title>
<path fill="none" stroke="midnightblue" d="M88.0865,-296.106C106.415,-293.859 127.32,-291.296 145.754,-289.037"/>
<polygon fill="midnightblue" stroke="midnightblue" points="87.4171,-292.661 77.9173,-297.352 88.2688,-299.609 87.4171,-292.661"/>
</g>
<!-- Node15 -->
<g id="node15" class="node"><title>Node15</title>
<g id="a_node15"><a xlink:title="STL class. ">
<polygon fill="none" stroke="#bfbfbf" points="154.096,-234 154.096,-254 237.904,-254 237.904,-234 154.096,-234"/>
<text text-anchor="middle" x="196" y="-241" font-family="Helvetica,sans-Serif" font-size="10.00">std::bad_typeid</text>
</a>
</g>
</g>
<!-- Node1&#45;&gt;Node15 -->
<g id="edge14" class="edge"><title>Node1&#45;&gt;Node15</title>
<path fill="none" stroke="midnightblue" d="M65.8023,-286.872C79.7212,-279.198 97.4062,-270.213 114,-264 126.751,-259.226 141.059,-255.261 154.062,-252.155"/>
<polygon fill="midnightblue" stroke="midnightblue" points="63.8242,-283.969 56.8274,-291.925 67.2584,-290.069 63.8242,-283.969"/>
</g>
<!-- Node16 -->
<g id="node16" class="node"><title>Node16</title>
<g id="a_node16"><a xlink:title="STL class. ">
<polygon fill="none" stroke="#bfbfbf" points="142.154,-195 142.154,-215 249.846,-215 249.846,-195 142.154,-195"/>
<text text-anchor="middle" x="196" y="-202" font-family="Helvetica,sans-Serif" font-size="10.00">std::ios_base::failure</text>
</a>
</g>
</g>
<!-- Node1&#45;&gt;Node16 -->
<g id="edge15" class="edge"><title>Node1&#45;&gt;Node16</title>
<path fill="none" stroke="midnightblue" d="M52.9789,-283.358C66.2791,-265.675 88.5687,-239.685 114,-225 122.53,-220.075 132.243,-216.355 141.91,-213.547"/>
<polygon fill="midnightblue" stroke="midnightblue" points="49.9295,-281.6 46.8741,-291.745 55.589,-285.72 49.9295,-281.6"/>
</g>
<!-- Node17 -->
<g id="node17" class="node"><title>Node17</title>
<g id="a_node17"><a xlink:title="STL class. ">
<polygon fill="none" stroke="#bfbfbf" points="154.942,-156 154.942,-176 237.058,-176 237.058,-156 154.942,-156"/>
<text text-anchor="middle" x="196" y="-163" font-family="Helvetica,sans-Serif" font-size="10.00">std::logic_error</text>
</a>
</g>
</g>
<!-- Node1&#45;&gt;Node17 -->
<g id="edge16" class="edge"><title>Node1&#45;&gt;Node17</title>
<path fill="none" stroke="midnightblue" d="M47.1957,-282.18C57.7311,-256.036 79.8864,-210.484 114,-186 125.768,-177.554 140.702,-172.655 154.532,-169.82"/>
<polygon fill="midnightblue" stroke="midnightblue" points="43.8283,-281.185 43.502,-291.775 50.361,-283.7 43.8283,-281.185"/>
</g>
<!-- Node22 -->
<g id="node22" class="node"><title>Node22</title>
<g id="a_node22"><a xlink:title="STL class. ">
<polygon fill="none" stroke="#bfbfbf" points="148.553,-58 148.553,-78 243.447,-78 243.447,-58 148.553,-58"/>
<text text-anchor="middle" x="196" y="-65" font-family="Helvetica,sans-Serif" font-size="10.00">std::runtime_error</text>
</a>
</g>
</g>
<!-- Node1&#45;&gt;Node22 -->
<g id="edge21" class="edge"><title>Node1&#45;&gt;Node22</title>
<path fill="none" stroke="midnightblue" d="M46.7981,-282.389C57.9612,-251.753 82.154,-191.452 114,-147 134.134,-118.896 164.869,-92.0949 182.112,-78.0891"/>
<polygon fill="midnightblue" stroke="midnightblue" points="43.464,-281.318 43.4018,-291.913 50.0574,-283.669 43.464,-281.318"/>
</g>
<!-- Node5 -->
<g id="node5" class="node"><title>Node5</title>
<g id="a_node5"><a xlink:href="class_ambiguous_port_assignment_exception.html" target="_top" xlink:title="AmbiguousPortAssignmentException">
<polygon fill="none" stroke="black" points="313.759,-507 313.759,-527 494.241,-527 494.241,-507 313.759,-507"/>
<text text-anchor="middle" x="404" y="-514" font-family="Helvetica,sans-Serif" font-size="10.00">AmbiguousPortAssignmentException</text>
</a>
</g>
</g>
<!-- Node4&#45;&gt;Node5 -->
<g id="edge4" class="edge"><title>Node4&#45;&gt;Node5</title>
<path fill="none" stroke="midnightblue" d="M245,-404.536C256.762,-407.514 268.644,-412.313 278,-420 307.19,-443.982 284.56,-473.326 314,-497 319.06,-501.069 324.782,-504.347 330.824,-506.985"/>
<polygon fill="midnightblue" stroke="midnightblue" points="245.718,-401.111 235.207,-402.44 244.253,-407.956 245.718,-401.111"/>
</g>
<!-- Node6 -->
<g id="node6" class="node"><title>Node6</title>
<g id="a_node6"><a xlink:href="class_closed_port_access_exception.html" target="_top" xlink:title="ClosedPortAccessException">
<polygon fill="none" stroke="black" points="333.209,-468 333.209,-488 474.791,-488 474.791,-468 333.209,-468"/>
<text text-anchor="middle" x="404" y="-475" font-family="Helvetica,sans-Serif" font-size="10.00">ClosedPortAccessException</text>
</a>
</g>
</g>
<!-- Node4&#45;&gt;Node6 -->
<g id="edge5" class="edge"><title>Node4&#45;&gt;Node6</title>
<path fill="none" stroke="midnightblue" d="M245.156,-407.131C256.418,-410.065 268.028,-414.194 278,-420 298.105,-431.706 293.773,-446.506 314,-458 321.16,-462.068 329.083,-465.309 337.164,-467.891"/>
<polygon fill="midnightblue" stroke="midnightblue" points="245.933,-403.718 235.398,-404.848 244.338,-410.534 245.933,-403.718"/>
</g>
<!-- Node7 -->
<g id="node7" class="node"><title>Node7</title>
<g id="a_node7"><a xlink:href="class_no_more_data_exception.html" target="_top" xlink:title="NoMoreDataException">
<polygon fill="none" stroke="black" points="345.714,-429 345.714,-449 462.286,-449 462.286,-429 345.714,-429"/>
<text text-anchor="middle" x="404" y="-436" font-family="Helvetica,sans-Serif" font-size="10.00">NoMoreDataException</text>
</a>
</g>
</g>
<!-- Node4&#45;&gt;Node7 -->
<g id="edge6" class="edge"><title>Node4&#45;&gt;Node7</title>
<path fill="none" stroke="midnightblue" d="M245.09,-409.105C276.466,-415.045 317.448,-422.803 349.798,-428.928"/>
<polygon fill="midnightblue" stroke="midnightblue" points="245.741,-405.666 235.264,-407.244 244.439,-412.543 245.741,-405.666"/>
</g>
<!-- Node8 -->
<g id="node8" class="node"><title>Node8</title>
<g id="a_node8"><a xlink:href="class_port_double_initialize_exception.html" target="_top" xlink:title="PortDoubleInitializeException">
<polygon fill="none" stroke="black" points="330.988,-390 330.988,-410 477.012,-410 477.012,-390 330.988,-390"/>
<text text-anchor="middle" x="404" y="-397" font-family="Helvetica,sans-Serif" font-size="10.00">PortDoubleInitializeException</text>
</a>
</g>
</g>
<!-- Node4&#45;&gt;Node8 -->
<g id="edge7" class="edge"><title>Node4&#45;&gt;Node8</title>
<path fill="none" stroke="midnightblue" d="M245.392,-400C270.817,-400 302.487,-400 330.755,-400"/>
<polygon fill="midnightblue" stroke="midnightblue" points="245.264,-396.5 235.264,-400 245.264,-403.5 245.264,-396.5"/>
</g>
<!-- Node9 -->
<g id="node9" class="node"><title>Node9</title>
<g id="a_node9"><a xlink:href="class_port_not_found_exception.html" target="_top" xlink:title="PortNotFoundException">
<polygon fill="none" stroke="black" points="342.93,-351 342.93,-371 465.07,-371 465.07,-351 342.93,-351"/>
<text text-anchor="middle" x="404" y="-358" font-family="Helvetica,sans-Serif" font-size="10.00">PortNotFoundException</text>
</a>
</g>
</g>
<!-- Node4&#45;&gt;Node9 -->
<g id="edge8" class="edge"><title>Node4&#45;&gt;Node9</title>
<path fill="none" stroke="midnightblue" d="M245.09,-390.895C276.466,-384.955 317.448,-377.197 349.798,-371.072"/>
<polygon fill="midnightblue" stroke="midnightblue" points="244.439,-387.457 235.264,-392.756 245.741,-394.334 244.439,-387.457"/>
</g>
<!-- Node10 -->
<g id="node10" class="node"><title>Node10</title>
<g id="a_node10"><a xlink:href="class_port_type_exception.html" target="_top" xlink:title="PortTypeException">
<polygon fill="none" stroke="black" points="353.767,-312 353.767,-332 454.233,-332 454.233,-312 353.767,-312"/>
<text text-anchor="middle" x="404" y="-319" font-family="Helvetica,sans-Serif" font-size="10.00">PortTypeException</text>
</a>
</g>
</g>
<!-- Node4&#45;&gt;Node10 -->
<g id="edge9" class="edge"><title>Node4&#45;&gt;Node10</title>
<path fill="none" stroke="midnightblue" d="M245.156,-392.869C256.418,-389.935 268.028,-385.806 278,-380 298.105,-368.294 293.773,-353.494 314,-342 325.979,-335.193 340.095,-330.703 353.512,-327.741"/>
<polygon fill="midnightblue" stroke="midnightblue" points="244.338,-389.466 235.398,-395.152 245.933,-396.282 244.338,-389.466"/>
</g>
<!-- Node11 -->
<g id="node11" class="node"><title>Node11</title>
<g id="a_node11"><a xlink:href="class_port_type_mismatch_exception.html" target="_top" xlink:title="PortTypeMismatchException">
<polygon fill="none" stroke="black" points="332.38,-273 332.38,-293 475.62,-293 475.62,-273 332.38,-273"/>
<text text-anchor="middle" x="404" y="-280" font-family="Helvetica,sans-Serif" font-size="10.00">PortTypeMismatchException</text>
</a>
</g>
</g>
<!-- Node4&#45;&gt;Node11 -->
<g id="edge10" class="edge"><title>Node4&#45;&gt;Node11</title>
<path fill="none" stroke="midnightblue" d="M245,-395.464C256.762,-392.486 268.644,-387.687 278,-380 307.19,-356.018 284.56,-326.674 314,-303 319.43,-298.633 325.623,-295.177 332.156,-292.447"/>
<polygon fill="midnightblue" stroke="midnightblue" points="244.253,-392.044 235.207,-397.56 245.718,-398.889 244.253,-392.044"/>
</g>
<!-- Node18 -->
<g id="node18" class="node"><title>Node18</title>
<g id="a_node18"><a xlink:title="STL class. ">
<polygon fill="none" stroke="#bfbfbf" points="356.828,-234 356.828,-254 451.172,-254 451.172,-234 356.828,-234"/>
<text text-anchor="middle" x="404" y="-241" font-family="Helvetica,sans-Serif" font-size="10.00">std::domain_error</text>
</a>
</g>
</g>
<!-- Node17&#45;&gt;Node18 -->
<g id="edge17" class="edge"><title>Node17&#45;&gt;Node18</title>
<path fill="none" stroke="midnightblue" d="M247.45,-173.744C257.984,-176.632 268.704,-180.587 278,-186 298.105,-197.706 293.773,-212.506 314,-224 326.943,-231.355 342.38,-236.005 356.736,-238.945"/>
<polygon fill="midnightblue" stroke="midnightblue" points="248.005,-170.276 237.459,-171.289 246.335,-177.074 248.005,-170.276"/>
</g>
<!-- Node19 -->
<g id="node19" class="node"><title>Node19</title>
<g id="a_node19"><a xlink:title="STL class. ">
<polygon fill="none" stroke="#bfbfbf" points="348.49,-195 348.49,-215 459.51,-215 459.51,-195 348.49,-195"/>
<text text-anchor="middle" x="404" y="-202" font-family="Helvetica,sans-Serif" font-size="10.00">std::invalid_argument</text>
</a>
</g>
</g>
<!-- Node17&#45;&gt;Node19 -->
<g id="edge18" class="edge"><title>Node17&#45;&gt;Node19</title>
<path fill="none" stroke="midnightblue" d="M247.404,-175.542C278.531,-181.436 318.418,-188.987 350.014,-194.969"/>
<polygon fill="midnightblue" stroke="midnightblue" points="247.684,-172.034 237.208,-173.612 246.382,-178.911 247.684,-172.034"/>
</g>
<!-- Node20 -->
<g id="node20" class="node"><title>Node20</title>
<g id="a_node20"><a xlink:title="STL class. ">
<polygon fill="none" stroke="#bfbfbf" points="359.603,-156 359.603,-176 448.397,-176 448.397,-156 359.603,-156"/>
<text text-anchor="middle" x="404" y="-163" font-family="Helvetica,sans-Serif" font-size="10.00">std::length_error</text>
</a>
</g>
</g>
<!-- Node17&#45;&gt;Node20 -->
<g id="edge19" class="edge"><title>Node17&#45;&gt;Node20</title>
<path fill="none" stroke="midnightblue" d="M247.478,-166C281.745,-166 326.603,-166 359.332,-166"/>
<polygon fill="midnightblue" stroke="midnightblue" points="247.208,-162.5 237.208,-166 247.208,-169.5 247.208,-162.5"/>
</g>
<!-- Node21 -->
<g id="node21" class="node"><title>Node21</title>
<g id="a_node21"><a xlink:title="STL class. ">
<polygon fill="none" stroke="#bfbfbf" points="357.093,-117 357.093,-137 450.907,-137 450.907,-117 357.093,-117"/>
<text text-anchor="middle" x="404" y="-124" font-family="Helvetica,sans-Serif" font-size="10.00">std::out_of_range</text>
</a>
</g>
</g>
<!-- Node17&#45;&gt;Node21 -->
<g id="edge20" class="edge"><title>Node17&#45;&gt;Node21</title>
<path fill="none" stroke="midnightblue" d="M247.23,-156.491C280.648,-150.164 324.22,-141.915 356.781,-135.75"/>
<polygon fill="midnightblue" stroke="midnightblue" points="246.382,-153.089 237.208,-158.388 247.684,-159.966 246.382,-153.089"/>
</g>
<!-- Node23 -->
<g id="node23" class="node"><title>Node23</title>
<g id="a_node23"><a xlink:title="STL class. ">
<polygon fill="none" stroke="#bfbfbf" points="354.608,-78 354.608,-98 453.392,-98 453.392,-78 354.608,-78"/>
<text text-anchor="middle" x="404" y="-85" font-family="Helvetica,sans-Serif" font-size="10.00">std::overflow_error</text>
</a>
</g>
</g>
<!-- Node22&#45;&gt;Node23 -->
<g id="edge22" class="edge"><title>Node22&#45;&gt;Node23</title>
<path fill="none" stroke="midnightblue" d="M253.489,-73.4844C285.162,-76.5594 324.263,-80.3556 354.533,-83.2944"/>
<polygon fill="midnightblue" stroke="midnightblue" points="253.779,-69.9961 243.487,-72.5133 253.102,-76.9634 253.779,-69.9961"/>
</g>
<!-- Node24 -->
<g id="node24" class="node"><title>Node24</title>
<g id="a_node24"><a xlink:title="STL class. ">
<polygon fill="none" stroke="#bfbfbf" points="360.438,-39 360.438,-59 447.562,-59 447.562,-39 360.438,-39"/>
<text text-anchor="middle" x="404" y="-46" font-family="Helvetica,sans-Serif" font-size="10.00">std::range_error</text>
</a>
</g>
</g>
<!-- Node22&#45;&gt;Node24 -->
<g id="edge23" class="edge"><title>Node22&#45;&gt;Node24</title>
<path fill="none" stroke="midnightblue" d="M253.644,-62.7756C287.304,-59.671 329.31,-55.7967 360.193,-52.9482"/>
<polygon fill="midnightblue" stroke="midnightblue" points="253.124,-59.3086 243.487,-63.7123 253.766,-66.279 253.124,-59.3086"/>
</g>
<!-- Node25 -->
<g id="node25" class="node"><title>Node25</title>
<g id="a_node25"><a xlink:title="STL class. ">
<polygon fill="none" stroke="#bfbfbf" points="351.549,-0 351.549,-20 456.451,-20 456.451,-0 351.549,-0"/>
<text text-anchor="middle" x="404" y="-7" font-family="Helvetica,sans-Serif" font-size="10.00">std::underflow_error</text>
</a>
</g>
</g>
<!-- Node22&#45;&gt;Node25 -->
<g id="edge24" class="edge"><title>Node22&#45;&gt;Node25</title>
<path fill="none" stroke="midnightblue" d="M235.238,-54.5861C257.964,-46.8638 287.446,-37.2789 314,-30 326.982,-26.4414 341.155,-23.041 354.297,-20.0861"/>
<polygon fill="midnightblue" stroke="midnightblue" points="233.951,-51.3273 225.624,-57.8785 236.219,-57.9497 233.951,-51.3273"/>
</g>
</g>
</svg>
