<?xml version="1.0" encoding="UTF-8" standalone="no"?>
<!DOCTYPE svg PUBLIC "-//W3C//DTD SVG 1.1//EN"
 "http://www.w3.org/Graphics/SVG/1.1/DTD/svg11.dtd">
<!-- Generated by graphviz version 2.30.1 (20130404.1610)
 -->
<!-- Title: Graphical Class Hierarchy Pages: 1 -->
<svg width="192pt" height="67pt"
 viewBox="0.00 0.00 192.00 67.00" xmlns="http://www.w3.org/2000/svg" xmlns:xlink="http://www.w3.org/1999/xlink">
<g id="graph0" class="graph" transform="scale(1 1) rotate(0) translate(4 63)">
<title>Graphical Class Hierarchy</title>
<!-- Node1 -->
<g id="node1" class="node"><title>Node1</title>
<g id="a_node1"><a xlink:href="class_schedule.html" target="_top" xlink:title="Schedule">
<polygon fill="none" stroke="black" points="0.1585,-19 0.1585,-39 57.8415,-39 57.8415,-19 0.1585,-19"/>
<text text-anchor="middle" x="29" y="-26" font-family="Helvetica,sans-Serif" font-size="10.00">Schedule</text>
</a>
</g>
</g>
<!-- Node2 -->
<g id="node2" class="node"><title>Node2</title>
<g id="a_node2"><a xlink:href="classpool__schedule.html" target="_top" xlink:title="pool_schedule">
<polygon fill="none" stroke="black" points="98.7655,-39 98.7655,-59 179.234,-59 179.234,-39 98.7655,-39"/>
<text text-anchor="middle" x="139" y="-46" font-family="Helvetica,sans-Serif" font-size="10.00">pool_schedule</text>
</a>
</g>
</g>
<!-- Node1&#45;&gt;Node2 -->
<g id="edge1" class="edge"><title>Node1&#45;&gt;Node2</title>
<path fill="none" stroke="midnightblue" d="M68.0762,-36.0511C77.989,-37.8869 88.6881,-39.8682 98.6646,-41.7157"/>
<polygon fill="midnightblue" stroke="midnightblue" points="68.564,-32.582 58.0938,-34.2026 67.2893,-39.465 68.564,-32.582"/>
</g>
<!-- Node3 -->
<g id="node3" class="node"><title>Node3</title>
<g id="a_node3"><a xlink:href="classsimple__schedule.html" target="_top" xlink:title="simple_schedule">
<polygon fill="none" stroke="black" points="93.771,-0 93.771,-20 184.229,-20 184.229,-0 93.771,-0"/>
<text text-anchor="middle" x="139" y="-7" font-family="Helvetica,sans-Serif" font-size="10.00">simple_schedule</text>
</a>
</g>
</g>
<!-- Node1&#45;&gt;Node3 -->
<g id="edge2" class="edge"><title>Node1&#45;&gt;Node3</title>
<path fill="none" stroke="midnightblue" d="M68.1995,-22.2797C76.4577,-20.8269 85.2565,-19.2789 93.7253,-17.7891"/>
<polygon fill="midnightblue" stroke="midnightblue" points="67.3361,-18.8778 58.0938,-24.0576 68.549,-25.7719 67.3361,-18.8778"/>
</g>
</g>
</svg>
