<?xml version="1.0" encoding="UTF-8" standalone="no"?>
<!DOCTYPE svg PUBLIC "-//W3C//DTD SVG 1.1//EN"
 "http://www.w3.org/Graphics/SVG/1.1/DTD/svg11.dtd">
<!-- Generated by graphviz version 2.30.1 (20130404.1610)
 -->
<!-- Title: Graphical Class Hierarchy Pages: 1 -->
<svg width="206pt" height="67pt"
 viewBox="0.00 0.00 206.00 67.00" xmlns="http://www.w3.org/2000/svg" xmlns:xlink="http://www.w3.org/1999/xlink">
<g id="graph0" class="graph" transform="scale(1 1) rotate(0) translate(4 63)">
<title>Graphical Class Hierarchy</title>
<!-- Node1 -->
<g id="node1" class="node"><title>Node1</title>
<g id="a_node1"><a xlink:title="STL class. ">
<polygon fill="none" stroke="#bfbfbf" points="-0.038,-13 -0.038,-45 94.038,-45 94.038,-13 -0.038,-13"/>
<text text-anchor="start" x="7.962" y="-32" font-family="Helvetica,sans-Serif" font-size="10.00">std::basic_string&lt;</text>
<text text-anchor="middle" x="47" y="-20" font-family="Helvetica,sans-Serif" font-size="10.00"> Char &gt;</text>
</a>
</g>
</g>
<!-- Node2 -->
<g id="node2" class="node"><title>Node2</title>
<g id="a_node2"><a xlink:title="STL class. ">
<polygon fill="none" stroke="#bfbfbf" points="134.329,-39 134.329,-59 193.671,-59 193.671,-39 134.329,-39"/>
<text text-anchor="middle" x="164" y="-46" font-family="Helvetica,sans-Serif" font-size="10.00">std::string</text>
</a>
</g>
</g>
<!-- Node1&#45;&gt;Node2 -->
<g id="edge1" class="edge"><title>Node1&#45;&gt;Node2</title>
<path fill="none" stroke="midnightblue" d="M104.028,-38.744C114.437,-40.5543 124.911,-42.3757 134.083,-43.9709"/>
<polygon fill="midnightblue" stroke="midnightblue" points="104.564,-35.2848 94.1123,-37.0195 103.365,-42.1813 104.564,-35.2848"/>
</g>
<!-- Node3 -->
<g id="node3" class="node"><title>Node3</title>
<g id="a_node3"><a xlink:title="STL class. ">
<polygon fill="none" stroke="#bfbfbf" points="130.72,-0 130.72,-20 197.28,-20 197.28,-0 130.72,-0"/>
<text text-anchor="middle" x="164" y="-7" font-family="Helvetica,sans-Serif" font-size="10.00">std::wstring</text>
</a>
</g>
</g>
<!-- Node1&#45;&gt;Node3 -->
<g id="edge2" class="edge"><title>Node1&#45;&gt;Node3</title>
<path fill="none" stroke="midnightblue" d="M103.98,-19.7511C113.133,-18.2389 122.338,-16.7181 130.665,-15.3423"/>
<polygon fill="midnightblue" stroke="midnightblue" points="103.408,-16.2981 94.1123,-21.3815 104.549,-23.2045 103.408,-16.2981"/>
</g>
</g>
</svg>
