<?xml version="1.0" encoding="UTF-8" standalone="no"?>
<!DOCTYPE svg PUBLIC "-//W3C//DTD SVG 1.1//EN"
 "http://www.w3.org/Graphics/SVG/1.1/DTD/svg11.dtd">
<!-- Generated by graphviz version 2.30.1 (20130404.1610)
 -->
<!-- Title: Graphical Class Hierarchy Pages: 1 -->
<svg width="198pt" height="262pt"
 viewBox="0.00 0.00 198.00 262.00" xmlns="http://www.w3.org/2000/svg" xmlns:xlink="http://www.w3.org/1999/xlink">
<g id="graph0" class="graph" transform="scale(1 1) rotate(0) translate(4 258)">
<title>Graphical Class Hierarchy</title>
<!-- Node1 -->
<g id="node1" class="node"><title>Node1</title>
<g id="a_node1"><a xlink:href="classraft_1_1kernel.html" target="_top" xlink:title="raft::kernel">
<polygon fill="none" stroke="black" points="0.3855,-117 0.3855,-137 63.6145,-137 63.6145,-117 0.3855,-117"/>
<text text-anchor="middle" x="32" y="-124" font-family="Helvetica,sans-Serif" font-size="10.00">raft::kernel</text>
</a>
</g>
</g>
<!-- Node2 -->
<g id="node2" class="node"><title>Node2</title>
<g id="a_node2"><a xlink:href="class_generate.html" target="_top" xlink:title="Generate\&lt; T \&gt;">
<polygon fill="none" stroke="black" points="104.487,-234 104.487,-254 185.513,-254 185.513,-234 104.487,-234"/>
<text text-anchor="middle" x="145" y="-241" font-family="Helvetica,sans-Serif" font-size="10.00">Generate&lt; T &gt;</text>
</a>
</g>
</g>
<!-- Node1&#45;&gt;Node2 -->
<g id="edge1" class="edge"><title>Node1&#45;&gt;Node2</title>
<path fill="none" stroke="midnightblue" d="M42.2334,-146.218C53.3522,-167.635 73.8411,-202.124 100,-224 104.634,-227.876 110.143,-231.153 115.666,-233.863"/>
<polygon fill="midnightblue" stroke="midnightblue" points="45.2848,-144.495 37.6704,-137.128 39.0287,-147.636 45.2848,-144.495"/>
</g>
<!-- Node3 -->
<g id="node3" class="node"><title>Node3</title>
<g id="a_node3"><a xlink:href="classgenerate.html" target="_top" xlink:title="generate\&lt; T \&gt;">
<polygon fill="none" stroke="black" points="105.597,-195 105.597,-215 184.404,-215 184.404,-195 105.597,-195"/>
<text text-anchor="middle" x="145" y="-202" font-family="Helvetica,sans-Serif" font-size="10.00">generate&lt; T &gt;</text>
</a>
</g>
</g>
<!-- Node1&#45;&gt;Node3 -->
<g id="edge2" class="edge"><title>Node1&#45;&gt;Node3</title>
<path fill="none" stroke="midnightblue" d="M49.9651,-144.132C62.8907,-156.552 81.5516,-173.173 100,-185 105.793,-188.713 112.389,-192.1 118.679,-194.988"/>
<polygon fill="midnightblue" stroke="midnightblue" points="52.3031,-141.523 42.7114,-137.023 47.4033,-146.522 52.3031,-141.523"/>
</g>
<!-- Node4 -->
<g id="node4" class="node"><title>Node4</title>
<g id="a_node4"><a xlink:href="classprint.html" target="_top" xlink:title="print\&lt; T \&gt;">
<polygon fill="none" stroke="black" points="115.605,-156 115.605,-176 174.395,-176 174.395,-156 115.605,-156"/>
<text text-anchor="middle" x="145" y="-163" font-family="Helvetica,sans-Serif" font-size="10.00">print&lt; T &gt;</text>
</a>
</g>
</g>
<!-- Node1&#45;&gt;Node4 -->
<g id="edge3" class="edge"><title>Node1&#45;&gt;Node4</title>
<path fill="none" stroke="midnightblue" d="M71.2972,-140.456C85.8079,-145.554 102.06,-151.264 115.512,-155.991"/>
<polygon fill="midnightblue" stroke="midnightblue" points="72.1801,-137.056 61.5853,-137.043 69.8596,-143.661 72.1801,-137.056"/>
</g>
<!-- Node5 -->
<g id="node5" class="node"><title>Node5</title>
<g id="a_node5"><a xlink:href="class_print.html" target="_top" xlink:title="Print\&lt; T, delim \&gt;">
<polygon fill="none" stroke="black" points="100.328,-117 100.328,-137 189.672,-137 189.672,-117 100.328,-117"/>
<text text-anchor="middle" x="145" y="-124" font-family="Helvetica,sans-Serif" font-size="10.00">Print&lt; T, delim &gt;</text>
</a>
</g>
</g>
<!-- Node1&#45;&gt;Node5 -->
<g id="edge4" class="edge"><title>Node1&#45;&gt;Node5</title>
<path fill="none" stroke="midnightblue" d="M73.7925,-127C82.384,-127 91.4822,-127 100.18,-127"/>
<polygon fill="midnightblue" stroke="midnightblue" points="73.6251,-123.5 63.6251,-127 73.625,-130.5 73.6251,-123.5"/>
</g>
<!-- Node6 -->
<g id="node6" class="node"><title>Node6</title>
<g id="a_node6"><a xlink:href="classraft_1_1parallel__k.html" target="_top" xlink:title="raft::parallel_k">
<polygon fill="none" stroke="black" points="105.608,-78 105.608,-98 184.392,-98 184.392,-78 105.608,-78"/>
<text text-anchor="middle" x="145" y="-85" font-family="Helvetica,sans-Serif" font-size="10.00">raft::parallel_k</text>
</a>
</g>
</g>
<!-- Node1&#45;&gt;Node6 -->
<g id="edge5" class="edge"><title>Node1&#45;&gt;Node6</title>
<path fill="none" stroke="midnightblue" d="M71.2972,-113.544C85.8079,-108.446 102.06,-102.736 115.512,-98.0094"/>
<polygon fill="midnightblue" stroke="midnightblue" points="69.8596,-110.339 61.5853,-116.957 72.1801,-116.944 69.8596,-110.339"/>
</g>
<!-- Node7 -->
<g id="node7" class="node"><title>Node7</title>
<g id="a_node7"><a xlink:href="classsum.html" target="_top" xlink:title="sum\&lt; A, B, C \&gt;">
<polygon fill="none" stroke="black" points="103.102,-39 103.102,-59 186.898,-59 186.898,-39 103.102,-39"/>
<text text-anchor="middle" x="145" y="-46" font-family="Helvetica,sans-Serif" font-size="10.00">sum&lt; A, B, C &gt;</text>
</a>
</g>
</g>
<!-- Node1&#45;&gt;Node7 -->
<g id="edge6" class="edge"><title>Node1&#45;&gt;Node7</title>
<path fill="none" stroke="midnightblue" d="M49.9651,-109.868C62.8907,-97.4483 81.5516,-80.8268 100,-69 105.793,-65.2866 112.389,-61.9 118.679,-59.012"/>
<polygon fill="midnightblue" stroke="midnightblue" points="47.4033,-107.478 42.7114,-116.977 52.3031,-112.477 47.4033,-107.478"/>
</g>
<!-- Node8 -->
<g id="node8" class="node"><title>Node8</title>
<g id="a_node8"><a xlink:href="class_sum.html" target="_top" xlink:title="Sum\&lt; A, B, C \&gt;">
<polygon fill="none" stroke="black" points="102.267,-0 102.267,-20 187.733,-20 187.733,-0 102.267,-0"/>
<text text-anchor="middle" x="145" y="-7" font-family="Helvetica,sans-Serif" font-size="10.00">Sum&lt; A, B, C &gt;</text>
</a>
</g>
</g>
<!-- Node1&#45;&gt;Node8 -->
<g id="edge7" class="edge"><title>Node1&#45;&gt;Node8</title>
<path fill="none" stroke="midnightblue" d="M42.2334,-107.782C53.3522,-86.3645 73.8411,-51.8762 100,-30 104.634,-26.1243 110.143,-22.8466 115.666,-20.1371"/>
<polygon fill="midnightblue" stroke="midnightblue" points="39.0287,-106.364 37.6704,-116.872 45.2848,-109.505 39.0287,-106.364"/>
</g>
</g>
</svg>
