<?xml version="1.0" encoding="UTF-8" standalone="no"?>
<!DOCTYPE svg PUBLIC "-//W3C//DTD SVG 1.1//EN"
 "http://www.w3.org/Graphics/SVG/1.1/DTD/svg11.dtd">
<!-- Generated by graphviz version 2.30.1 (20130404.1610)
 -->
<!-- Title: Graphical Class Hierarchy Pages: 1 -->
<svg width="198pt" height="223pt"
 viewBox="0.00 0.00 198.00 223.00" xmlns="http://www.w3.org/2000/svg" xmlns:xlink="http://www.w3.org/1999/xlink">
<g id="graph0" class="graph" transform="scale(1 1) rotate(0) translate(4 219)">
<title>Graphical Class Hierarchy</title>
<!-- Node1 -->
<g id="node1" class="node"><title>Node1</title>
<g id="a_node1"><a xlink:href="classraft_1_1kernel.html" target="_top" xlink:title="raft::kernel">
<polygon fill="none" stroke="black" points="0.3855,-97 0.3855,-117 63.6145,-117 63.6145,-97 0.3855,-97"/>
<text text-anchor="middle" x="32" y="-104" font-family="Helvetica,sans-Serif" font-size="10.00">raft::kernel</text>
</a>
</g>
</g>
<!-- Node2 -->
<g id="node2" class="node"><title>Node2</title>
<g id="a_node2"><a xlink:href="class_generate.html" target="_top" xlink:title="Generate\&lt; T \&gt;">
<polygon fill="none" stroke="black" points="104.487,-195 104.487,-215 185.513,-215 185.513,-195 104.487,-195"/>
<text text-anchor="middle" x="145" y="-202" font-family="Helvetica,sans-Serif" font-size="10.00">Generate&lt; T &gt;</text>
</a>
</g>
</g>
<!-- Node1&#45;&gt;Node2 -->
<g id="edge1" class="edge"><title>Node1&#45;&gt;Node2</title>
<path fill="none" stroke="midnightblue" d="M45.4655,-125.724C57.6959,-142.945 77.714,-168.273 100,-185 105.1,-188.828 111.05,-192.146 116.896,-194.919"/>
<polygon fill="midnightblue" stroke="midnightblue" points="48.07,-123.336 39.5072,-117.096 42.3101,-127.314 48.07,-123.336"/>
</g>
<!-- Node3 -->
<g id="node3" class="node"><title>Node3</title>
<g id="a_node3"><a xlink:href="classprint.html" target="_top" xlink:title="print\&lt; T \&gt;">
<polygon fill="none" stroke="black" points="115.605,-156 115.605,-176 174.395,-176 174.395,-156 115.605,-156"/>
<text text-anchor="middle" x="145" y="-163" font-family="Helvetica,sans-Serif" font-size="10.00">print&lt; T &gt;</text>
</a>
</g>
</g>
<!-- Node1&#45;&gt;Node3 -->
<g id="edge2" class="edge"><title>Node1&#45;&gt;Node3</title>
<path fill="none" stroke="midnightblue" d="M58.1372,-122.437C70.5691,-129.864 85.8977,-138.714 100,-146 106.56,-149.389 113.81,-152.812 120.499,-155.844"/>
<polygon fill="midnightblue" stroke="midnightblue" points="59.634,-119.253 49.2633,-117.085 56.0186,-125.247 59.634,-119.253"/>
</g>
<!-- Node4 -->
<g id="node4" class="node"><title>Node4</title>
<g id="a_node4"><a xlink:href="class_print.html" target="_top" xlink:title="Print\&lt; T, delim \&gt;">
<polygon fill="none" stroke="black" points="100.328,-117 100.328,-137 189.672,-137 189.672,-117 100.328,-117"/>
<text text-anchor="middle" x="145" y="-124" font-family="Helvetica,sans-Serif" font-size="10.00">Print&lt; T, delim &gt;</text>
</a>
</g>
</g>
<!-- Node1&#45;&gt;Node4 -->
<g id="edge3" class="edge"><title>Node1&#45;&gt;Node4</title>
<path fill="none" stroke="midnightblue" d="M73.5094,-114.299C82.1839,-115.862 91.3866,-117.52 100.18,-119.104"/>
<polygon fill="midnightblue" stroke="midnightblue" points="74.0873,-110.847 63.6251,-112.518 72.8459,-117.736 74.0873,-110.847"/>
</g>
<!-- Node5 -->
<g id="node5" class="node"><title>Node5</title>
<g id="a_node5"><a xlink:href="classraft_1_1parallel__k.html" target="_top" xlink:title="raft::parallel_k">
<polygon fill="none" stroke="black" points="105.608,-78 105.608,-98 184.392,-98 184.392,-78 105.608,-78"/>
<text text-anchor="middle" x="145" y="-85" font-family="Helvetica,sans-Serif" font-size="10.00">raft::parallel_k</text>
</a>
</g>
</g>
<!-- Node1&#45;&gt;Node5 -->
<g id="edge4" class="edge"><title>Node1&#45;&gt;Node5</title>
<path fill="none" stroke="midnightblue" d="M73.7152,-100.031C84.114,-98.2508 95.2598,-96.3429 105.541,-94.583"/>
<polygon fill="midnightblue" stroke="midnightblue" points="72.8912,-96.6208 63.6251,-101.758 74.0723,-103.52 72.8912,-96.6208"/>
</g>
<!-- Node6 -->
<g id="node6" class="node"><title>Node6</title>
<g id="a_node6"><a xlink:href="classsum.html" target="_top" xlink:title="sum\&lt; A, B, C \&gt;">
<polygon fill="none" stroke="black" points="103.102,-39 103.102,-59 186.898,-59 186.898,-39 103.102,-39"/>
<text text-anchor="middle" x="145" y="-46" font-family="Helvetica,sans-Serif" font-size="10.00">sum&lt; A, B, C &gt;</text>
</a>
</g>
</g>
<!-- Node1&#45;&gt;Node6 -->
<g id="edge5" class="edge"><title>Node1&#45;&gt;Node6</title>
<path fill="none" stroke="midnightblue" d="M58.687,-91.7185C71.0373,-84.5556 86.1379,-76.0638 100,-69 106.579,-65.6474 113.834,-62.2365 120.523,-59.2034"/>
<polygon fill="midnightblue" stroke="midnightblue" points="56.709,-88.8207 49.8448,-96.8913 60.2437,-94.8627 56.709,-88.8207"/>
</g>
<!-- Node7 -->
<g id="node7" class="node"><title>Node7</title>
<g id="a_node7"><a xlink:href="class_sum.html" target="_top" xlink:title="Sum\&lt; A, B, C \&gt;">
<polygon fill="none" stroke="black" points="102.267,-0 102.267,-20 187.733,-20 187.733,-0 102.267,-0"/>
<text text-anchor="middle" x="145" y="-7" font-family="Helvetica,sans-Serif" font-size="10.00">Sum&lt; A, B, C &gt;</text>
</a>
</g>
</g>
<!-- Node1&#45;&gt;Node7 -->
<g id="edge6" class="edge"><title>Node1&#45;&gt;Node7</title>
<path fill="none" stroke="midnightblue" d="M45.7159,-88.2496C57.9993,-71.2622 77.945,-46.4442 100,-30 105.113,-26.1881 111.067,-22.8768 116.914,-20.1049"/>
<polygon fill="midnightblue" stroke="midnightblue" points="42.6069,-86.586 39.7153,-96.7786 48.332,-90.6139 42.6069,-86.586"/>
</g>
</g>
</svg>
