<?xml version="1.0" encoding="UTF-8" standalone="no"?>
<!DOCTYPE svg PUBLIC "-//W3C//DTD SVG 1.1//EN"
 "http://www.w3.org/Graphics/SVG/1.1/DTD/svg11.dtd">
<!-- Generated by graphviz version 2.30.1 (20130404.1610)
 -->
<!-- Title: Graphical Class Hierarchy Pages: 1 -->
<svg width="156pt" height="67pt"
 viewBox="0.00 0.00 156.00 67.00" xmlns="http://www.w3.org/2000/svg" xmlns:xlink="http://www.w3.org/1999/xlink">
<g id="graph0" class="graph" transform="scale(1 1) rotate(0) translate(4 63)">
<title>Graphical Class Hierarchy</title>
<!-- Node1 -->
<g id="node1" class="node"><title>Node1</title>
<g id="a_node1"><a xlink:href="class_map_base.html" target="_top" xlink:title="MapBase">
<polygon fill="none" stroke="black" points="-0.117,-19 -0.117,-39 58.117,-39 58.117,-19 -0.117,-19"/>
<text text-anchor="middle" x="29" y="-26" font-family="Helvetica,sans-Serif" font-size="10.00">MapBase</text>
</a>
</g>
</g>
<!-- Node2 -->
<g id="node2" class="node"><title>Node2</title>
<g id="a_node2"><a xlink:href="class_map.html" target="_top" xlink:title="Map">
<polygon fill="none" stroke="black" points="103.276,-39 103.276,-59 138.724,-59 138.724,-39 103.276,-39"/>
<text text-anchor="middle" x="121" y="-46" font-family="Helvetica,sans-Serif" font-size="10.00">Map</text>
</a>
</g>
</g>
<!-- Node1&#45;&gt;Node2 -->
<g id="edge1" class="edge"><title>Node1&#45;&gt;Node2</title>
<path fill="none" stroke="midnightblue" d="M68.4557,-37.5457C80.6134,-40.2474 93.4222,-43.0938 103.23,-45.2733"/>
<polygon fill="midnightblue" stroke="midnightblue" points="68.9977,-34.0809 58.4766,-35.3281 67.4792,-40.9142 68.9977,-34.0809"/>
</g>
<!-- Node3 -->
<g id="node3" class="node"><title>Node3</title>
<g id="a_node3"><a xlink:href="class_sub_map.html" target="_top" xlink:title="SubMap">
<polygon fill="none" stroke="black" points="94.383,-0 94.383,-20 147.617,-20 147.617,-0 94.383,-0"/>
<text text-anchor="middle" x="121" y="-7" font-family="Helvetica,sans-Serif" font-size="10.00">SubMap</text>
</a>
</g>
</g>
<!-- Node1&#45;&gt;Node3 -->
<g id="edge2" class="edge"><title>Node1&#45;&gt;Node3</title>
<path fill="none" stroke="midnightblue" d="M68.4353,-20.8859C77.1169,-19.0531 86.1316,-17.15 94.1493,-15.4574"/>
<polygon fill="midnightblue" stroke="midnightblue" points="67.5379,-17.4981 58.4766,-22.9883 68.9839,-24.3471 67.5379,-17.4981"/>
</g>
</g>
</svg>
