<?xml version="1.0" encoding="UTF-8" standalone="no"?>
<!DOCTYPE svg PUBLIC "-//W3C//DTD SVG 1.1//EN"
 "http://www.w3.org/Graphics/SVG/1.1/DTD/svg11.dtd">
<!-- Generated by graphviz version 2.30.1 (20130404.1610)
 -->
<!-- Title: Graphical Class Hierarchy Pages: 1 -->
<svg width="150pt" height="67pt"
 viewBox="0.00 0.00 150.00 67.00" xmlns="http://www.w3.org/2000/svg" xmlns:xlink="http://www.w3.org/1999/xlink">
<g id="graph0" class="graph" transform="scale(1 1) rotate(0) translate(4 63)">
<title>Graphical Class Hierarchy</title>
<!-- Node1 -->
<g id="node1" class="node"><title>Node1</title>
<g id="a_node1"><a xlink:href="class_allocate.html" target="_top" xlink:title="Allocate">
<polygon fill="none" stroke="black" points="0.2185,-19 0.2185,-39 51.7815,-39 51.7815,-19 0.2185,-19"/>
<text text-anchor="middle" x="26" y="-26" font-family="Helvetica,sans-Serif" font-size="10.00">Allocate</text>
</a>
</g>
</g>
<!-- Node2 -->
<g id="node2" class="node"><title>Node2</title>
<g id="a_node2"><a xlink:href="classdynalloc.html" target="_top" xlink:title="dynalloc">
<polygon fill="none" stroke="black" points="88.663,-39 88.663,-59 141.337,-59 141.337,-39 88.663,-39"/>
<text text-anchor="middle" x="115" y="-46" font-family="Helvetica,sans-Serif" font-size="10.00">dynalloc</text>
</a>
</g>
</g>
<!-- Node1&#45;&gt;Node2 -->
<g id="edge1" class="edge"><title>Node1&#45;&gt;Node2</title>
<path fill="none" stroke="midnightblue" d="M61.9306,-37.03C70.8437,-39.079 80.2565,-41.2429 88.5911,-43.1589"/>
<polygon fill="midnightblue" stroke="midnightblue" points="62.694,-33.6143 52.164,-34.7848 61.1256,-40.4363 62.694,-33.6143"/>
</g>
<!-- Node3 -->
<g id="node3" class="node"><title>Node3</title>
<g id="a_node3"><a xlink:href="classstdalloc.html" target="_top" xlink:title="stdalloc">
<polygon fill="none" stroke="black" points="90.053,-0 90.053,-20 139.947,-20 139.947,-0 90.053,-0"/>
<text text-anchor="middle" x="115" y="-7" font-family="Helvetica,sans-Serif" font-size="10.00">stdalloc</text>
</a>
</g>
</g>
<!-- Node1&#45;&gt;Node3 -->
<g id="edge2" class="edge"><title>Node1&#45;&gt;Node3</title>
<path fill="none" stroke="midnightblue" d="M61.9861,-21.3594C71.3133,-19.3224 81.1839,-17.1667 89.7909,-15.287"/>
<polygon fill="midnightblue" stroke="midnightblue" points="61.1869,-17.9513 52.164,-23.5044 62.6805,-24.7901 61.1869,-17.9513"/>
</g>
</g>
</svg>
