<?xml version="1.0" encoding="UTF-8" standalone="no"?>
<!DOCTYPE svg PUBLIC "-//W3C//DTD SVG 1.1//EN"
 "http://www.w3.org/Graphics/SVG/1.1/DTD/svg11.dtd">
<!-- Generated by graphviz version 2.30.1 (20130404.1610)
 -->
<!-- Title: PortInfo Pages: 1 -->
<svg width="1286pt" height="428pt"
 viewBox="0.00 0.00 1286.00 428.00" xmlns="http://www.w3.org/2000/svg" xmlns:xlink="http://www.w3.org/1999/xlink">
<g id="graph0" class="graph" transform="scale(1 1) rotate(0) translate(4 424)">
<title>PortInfo</title>
<!-- Node1 -->
<g id="node1" class="node"><title>Node1</title>
<polygon fill="#bfbfbf" stroke="black" points="630.494,-208 630.494,-228 681.506,-228 681.506,-208 630.494,-208"/>
<text text-anchor="middle" x="656" y="-215" font-family="Helvetica,sans-Serif" font-size="10.00">PortInfo</text>
</g>
<!-- Node18 -->
<g id="node18" class="node"><title>Node18</title>
<polygon fill="none" stroke="#bfbfbf" points="762.46,-93 762.46,-125 871.54,-125 871.54,-93 762.46,-93"/>
<text text-anchor="start" x="770.46" y="-112" font-family="Helvetica,sans-Serif" font-size="10.00">std::map&lt; std::string,</text>
<text text-anchor="middle" x="817" y="-100" font-family="Helvetica,sans-Serif" font-size="10.00"> PortInfo &gt;</text>
</g>
<!-- Node1&#45;&gt;Node18 -->
<g id="edge23" class="edge"><title>Node1&#45;&gt;Node18</title>
<path fill="none" stroke="#9a32cd" stroke-dasharray="5,2" d="M680.238,-202.07C710.262,-181.487 762.248,-145.849 792.432,-125.157"/>
<polygon fill="#9a32cd" stroke="#9a32cd" points="677.942,-199.4 671.673,-207.941 681.9,-205.173 677.942,-199.4"/>
<text text-anchor="middle" x="722" y="-189" font-family="Helvetica,sans-Serif" font-size="10.00"> elements</text>
</g>
<!-- Node2 -->
<g id="node2" class="node"><title>Node2</title>
<polygon fill="none" stroke="#bfbfbf" points="388.824,-204 388.824,-224 453.176,-224 453.176,-204 388.824,-204"/>
<text text-anchor="middle" x="421" y="-211" font-family="Helvetica,sans-Serif" font-size="10.00">type_index</text>
</g>
<!-- Node2&#45;&gt;Node1 -->
<g id="edge1" class="edge"><title>Node2&#45;&gt;Node1</title>
<path fill="none" stroke="#9a32cd" stroke-dasharray="5,2" d="M463.594,-214.714C512.13,-215.547 590.783,-216.898 630.454,-217.579"/>
<polygon fill="#9a32cd" stroke="#9a32cd" points="463.482,-211.212 453.423,-214.539 463.362,-218.211 463.482,-211.212"/>
<text text-anchor="middle" x="560" y="-220" font-family="Helvetica,sans-Serif" font-size="10.00"> type</text>
</g>
<!-- Node3 -->
<g id="node3" class="node"><title>Node3</title>
<polygon fill="none" stroke="#bfbfbf" points="352.012,-60 352.012,-92 489.988,-92 489.988,-60 352.012,-60"/>
<text text-anchor="start" x="360.012" y="-79" font-family="Helvetica,sans-Serif" font-size="10.00">std::map&lt; Type::RingBuffer</text>
<text text-anchor="middle" x="421" y="-67" font-family="Helvetica,sans-Serif" font-size="10.00">Type, instr_map_t * &gt;</text>
</g>
<!-- Node3&#45;&gt;Node1 -->
<g id="edge2" class="edge"><title>Node3&#45;&gt;Node1</title>
<path fill="none" stroke="#9a32cd" stroke-dasharray="5,2" d="M500.605,-74.6648C537.983,-77.8798 581.131,-87.6669 612,-113 641.998,-137.618 651.291,-186.526 653.981,-207.762"/>
<polygon fill="#9a32cd" stroke="#9a32cd" points="500.454,-71.1452 490.231,-73.9248 499.956,-78.1275 500.454,-71.1452"/>
<text text-anchor="middle" x="560" y="-116" font-family="Helvetica,sans-Serif" font-size="10.00"> const_map</text>
</g>
<!-- Node4 -->
<g id="node4" class="node"><title>Node4</title>
<g id="a_node4"><a xlink:title="STL class. ">
<polygon fill="none" stroke="#bfbfbf" points="112.043,-19 112.043,-39 201.957,-39 201.957,-19 112.043,-19"/>
<text text-anchor="middle" x="157" y="-26" font-family="Helvetica,sans-Serif" font-size="10.00">std::map&lt; K, T &gt;</text>
</a>
</g>
</g>
<!-- Node4&#45;&gt;Node3 -->
<g id="edge3" class="edge"><title>Node4&#45;&gt;Node3</title>
<path fill="none" stroke="#9a32cd" stroke-dasharray="5,2" d="M188.887,-42.9474C199.228,-47.1056 210.941,-51.2756 222,-54 264.482,-64.4649 313.326,-69.9594 351.872,-72.8403"/>
<polygon fill="#9a32cd" stroke="#9a32cd" points="190.036,-39.6344 179.46,-39.0118 187.34,-46.0941 190.036,-39.6344"/>
<text text-anchor="middle" x="278" y="-75" font-family="Helvetica,sans-Serif" font-size="10.00"> elements</text>
</g>
<!-- Node4&#45;&gt;Node3 -->
<g id="edge7" class="edge"><title>Node4&#45;&gt;Node3</title>
<path fill="none" stroke="orange" stroke-dasharray="5,2" d="M212.324,-20.4014C247.606,-16.6772 294.254,-15.2854 334,-26 358.346,-32.563 382.894,-47.9029 399.496,-59.8739"/>
<polygon fill="orange" stroke="orange" points="211.76,-16.9431 202.226,-21.5631 212.56,-23.8973 211.76,-16.9431"/>
<text text-anchor="start" x="222.291" y="-41" font-family="Helvetica,sans-Serif" font-size="10.00"> &lt; Type::RingBufferType,</text>
<text text-anchor="middle" x="278" y="-29" font-family="Helvetica,sans-Serif" font-size="10.00"> instr_map_t * &gt;</text>
</g>
<!-- Node4&#45;&gt;Node18 -->
<g id="edge24" class="edge"><title>Node4&#45;&gt;Node18</title>
<path fill="none" stroke="orange" stroke-dasharray="5,2" d="M204.182,-16.852C210.141,-15.6757 216.19,-14.6718 222,-14 271.448,-8.28274 284.389,-9.92325 334,-14 491.682,-26.9576 673.927,-71.0174 762.345,-94.302"/>
<polygon fill="orange" stroke="orange" points="203.343,-13.4521 194.296,-18.9659 204.807,-20.2974 203.343,-13.4521"/>
<text text-anchor="middle" x="560" y="-62" font-family="Helvetica,sans-Serif" font-size="10.00"> &lt; std::string, PortInfo &gt;</text>
</g>
<!-- Node5 -->
<g id="node5" class="node"><title>Node5</title>
<polygon fill="none" stroke="#bfbfbf" points="0.5,-39 0.5,-59 29.5,-59 29.5,-39 0.5,-39"/>
<text text-anchor="middle" x="15" y="-46" font-family="Helvetica,sans-Serif" font-size="10.00">K</text>
</g>
<!-- Node5&#45;&gt;Node4 -->
<g id="edge4" class="edge"><title>Node5&#45;&gt;Node4</title>
<path fill="none" stroke="#9a32cd" stroke-dasharray="5,2" d="M39.6415,-45.6226C59.3866,-42.8019 88.0723,-38.704 112.021,-35.2828"/>
<polygon fill="#9a32cd" stroke="#9a32cd" points="39.0832,-42.1668 29.6787,-47.0459 40.0732,-49.0964 39.0832,-42.1668"/>
<text text-anchor="middle" x="70" y="-48" font-family="Helvetica,sans-Serif" font-size="10.00"> keys</text>
</g>
<!-- Node6 -->
<g id="node6" class="node"><title>Node6</title>
<polygon fill="none" stroke="#bfbfbf" points="0.5,-0 0.5,-20 29.5,-20 29.5,-0 0.5,-0"/>
<text text-anchor="middle" x="15" y="-7" font-family="Helvetica,sans-Serif" font-size="10.00">T</text>
</g>
<!-- Node6&#45;&gt;Node4 -->
<g id="edge5" class="edge"><title>Node6&#45;&gt;Node4</title>
<path fill="none" stroke="#9a32cd" stroke-dasharray="5,2" d="M39.5192,-10.6394C54.5812,-11.2725 74.5111,-12.526 92,-15 99.3201,-16.0355 107.049,-17.4477 114.507,-18.9786"/>
<polygon fill="#9a32cd" stroke="#9a32cd" points="39.6361,-7.14145 29.5166,-10.2795 39.3843,-14.1369 39.6361,-7.14145"/>
<text text-anchor="middle" x="70" y="-18" font-family="Helvetica,sans-Serif" font-size="10.00"> elements</text>
</g>
<!-- Node7 -->
<g id="node7" class="node"><title>Node7</title>
<polygon fill="none" stroke="#bfbfbf" points="114.272,-101 114.272,-121 199.728,-121 199.728,-101 114.272,-101"/>
<text text-anchor="middle" x="157" y="-108" font-family="Helvetica,sans-Serif" font-size="10.00">RingBufferType</text>
</g>
<!-- Node7&#45;&gt;Node3 -->
<g id="edge6" class="edge"><title>Node7&#45;&gt;Node3</title>
<path fill="none" stroke="#9a32cd" stroke-dasharray="5,2" d="M210.011,-104.854C245.073,-100.623 292.355,-94.7495 334,-89 339.834,-88.1946 345.886,-87.3329 351.955,-86.4507"/>
<polygon fill="#9a32cd" stroke="#9a32cd" points="209.512,-101.389 200.002,-106.057 210.348,-108.339 209.512,-101.389"/>
<text text-anchor="middle" x="278" y="-107" font-family="Helvetica,sans-Serif" font-size="10.00"> keys</text>
</g>
<!-- Node8 -->
<g id="node8" class="node"><title>Node8</title>
<polygon fill="none" stroke="#bfbfbf" points="139.552,-271 139.552,-291 174.448,-291 174.448,-271 139.552,-271"/>
<text text-anchor="middle" x="157" y="-278" font-family="Helvetica,sans-Serif" font-size="10.00">bool</text>
</g>
<!-- Node8&#45;&gt;Node1 -->
<g id="edge8" class="edge"><title>Node8&#45;&gt;Node1</title>
<path fill="none" stroke="#9a32cd" stroke-dasharray="5,2" d="M184.284,-288.263C257.22,-306.884 466.351,-349.744 612,-274 631.14,-264.046 644.287,-241.31 650.634,-228.072"/>
<polygon fill="#9a32cd" stroke="#9a32cd" points="185.095,-284.858 174.534,-285.709 183.321,-291.629 185.095,-284.858"/>
<text text-anchor="middle" x="421" y="-332" font-family="Helvetica,sans-Serif" font-size="10.00"> use_my_allocator</text>
<text text-anchor="middle" x="421" y="-320" font-family="Helvetica,sans-Serif" font-size="10.00">out_of_order</text>
</g>
<!-- Node11 -->
<g id="node11" class="node"><title>Node11</title>
<g id="a_node11"><a xlink:href="class_f_i_f_o.html" target="_top" xlink:title="FIFO">
<polygon fill="none" stroke="black" points="401.612,-243 401.612,-263 440.388,-263 440.388,-243 401.612,-243"/>
<text text-anchor="middle" x="421" y="-250" font-family="Helvetica,sans-Serif" font-size="10.00">FIFO</text>
</a>
</g>
</g>
<!-- Node8&#45;&gt;Node11 -->
<g id="edge12" class="edge"><title>Node8&#45;&gt;Node11</title>
<path fill="none" stroke="#9a32cd" stroke-dasharray="5,2" d="M184.814,-278.047C196.269,-276.791 209.789,-275.315 222,-274 287.988,-266.892 366.369,-258.633 401.435,-254.948"/>
<polygon fill="#9a32cd" stroke="#9a32cd" points="184.132,-274.601 174.574,-279.172 184.896,-281.559 184.132,-274.601"/>
<text text-anchor="middle" x="278" y="-277" font-family="Helvetica,sans-Serif" font-size="10.00"> valid</text>
</g>
<!-- Node9 -->
<g id="node9" class="node"><title>Node9</title>
<g id="a_node9"><a xlink:title="STL class. ">
<polygon fill="none" stroke="#bfbfbf" points="391.329,-126 391.329,-146 450.671,-146 450.671,-126 391.329,-126"/>
<text text-anchor="middle" x="421" y="-133" font-family="Helvetica,sans-Serif" font-size="10.00">std::string</text>
</a>
</g>
</g>
<!-- Node9&#45;&gt;Node1 -->
<g id="edge9" class="edge"><title>Node9&#45;&gt;Node1</title>
<path fill="none" stroke="#9a32cd" stroke-dasharray="5,2" d="M460.781,-130.139C501.424,-126.016 565.687,-125.378 612,-153 632.917,-165.476 645.678,-192.542 651.411,-207.514"/>
<polygon fill="#9a32cd" stroke="#9a32cd" points="460.273,-126.674 450.731,-131.279 461.062,-133.63 460.273,-126.674"/>
<text text-anchor="middle" x="560" y="-168" font-family="Helvetica,sans-Serif" font-size="10.00"> my_name</text>
<text text-anchor="middle" x="560" y="-156" font-family="Helvetica,sans-Serif" font-size="10.00">other_name</text>
</g>
<!-- Node9&#45;&gt;Node18 -->
<g id="edge22" class="edge"><title>Node9&#45;&gt;Node18</title>
<path fill="none" stroke="#9a32cd" stroke-dasharray="5,2" d="M461.236,-130.349C475.885,-128.406 492.679,-126.376 508,-125 596.927,-117.014 700.684,-112.643 762.221,-110.566"/>
<polygon fill="#9a32cd" stroke="#9a32cd" points="460.439,-126.925 451,-131.738 461.38,-133.862 460.439,-126.925"/>
<text text-anchor="middle" x="656" y="-120" font-family="Helvetica,sans-Serif" font-size="10.00"> keys</text>
</g>
<!-- Node10 -->
<g id="node10" class="node"><title>Node10</title>
<g id="a_node10"><a xlink:title="STL class. ">
<polygon fill="none" stroke="#bfbfbf" points="109.962,-140 109.962,-172 204.038,-172 204.038,-140 109.962,-140"/>
<text text-anchor="start" x="117.962" y="-159" font-family="Helvetica,sans-Serif" font-size="10.00">std::basic_string&lt;</text>
<text text-anchor="middle" x="157" y="-147" font-family="Helvetica,sans-Serif" font-size="10.00"> char &gt;</text>
</a>
</g>
</g>
<!-- Node10&#45;&gt;Node9 -->
<g id="edge10" class="edge"><title>Node10&#45;&gt;Node9</title>
<path fill="none" stroke="midnightblue" d="M214.411,-151.694C268.775,-147.544 348.842,-141.432 391.228,-138.196"/>
<polygon fill="midnightblue" stroke="midnightblue" points="213.942,-148.219 204.237,-152.47 214.475,-155.199 213.942,-148.219"/>
</g>
<!-- Node11&#45;&gt;Node1 -->
<g id="edge11" class="edge"><title>Node11&#45;&gt;Node1</title>
<path fill="none" stroke="#9a32cd" stroke-dasharray="5,2" d="M450.683,-251.278C488.105,-248.667 555.476,-242.719 612,-231 617.957,-229.765 624.275,-228.076 630.182,-226.324"/>
<polygon fill="#9a32cd" stroke="#9a32cd" points="450.261,-247.798 440.516,-251.956 450.726,-254.782 450.261,-247.798"/>
<text text-anchor="middle" x="560" y="-261" font-family="Helvetica,sans-Serif" font-size="10.00"> fifo_a</text>
<text text-anchor="middle" x="560" y="-249" font-family="Helvetica,sans-Serif" font-size="10.00">fifo_b</text>
</g>
<!-- Node12 -->
<g id="node12" class="node"><title>Node12</title>
<polygon fill="none" stroke="#bfbfbf" points="399.942,-358 399.942,-378 442.058,-378 442.058,-358 399.942,-358"/>
<text text-anchor="middle" x="421" y="-365" font-family="Helvetica,sans-Serif" font-size="10.00">size_t</text>
</g>
<!-- Node12&#45;&gt;Node1 -->
<g id="edge13" class="edge"><title>Node12&#45;&gt;Node1</title>
<path fill="none" stroke="#9a32cd" stroke-dasharray="5,2" d="M450.8,-353.554C467.242,-345.747 488.422,-336.42 508,-330 552.982,-315.25 574.871,-336.367 612,-307 637.842,-286.561 649.108,-246.718 653.127,-228.074"/>
<polygon fill="#9a32cd" stroke="#9a32cd" points="449.198,-350.441 441.715,-357.942 452.242,-356.745 449.198,-350.441"/>
<text text-anchor="middle" x="560" y="-345" font-family="Helvetica,sans-Serif" font-size="10.00"> nitems</text>
<text text-anchor="middle" x="560" y="-333" font-family="Helvetica,sans-Serif" font-size="10.00">start_index</text>
</g>
<!-- Node13 -->
<g id="node13" class="node"><title>Node13</title>
<g id="a_node13"><a xlink:href="classraft_1_1kernel.html" target="_top" xlink:title="raft::kernel">
<polygon fill="none" stroke="black" points="1214.39,-244 1214.39,-264 1277.61,-264 1277.61,-244 1214.39,-244"/>
<text text-anchor="middle" x="1246" y="-251" font-family="Helvetica,sans-Serif" font-size="10.00">raft::kernel</text>
</a>
</g>
</g>
<!-- Node12&#45;&gt;Node13 -->
<g id="edge15" class="edge"><title>Node12&#45;&gt;Node13</title>
<path fill="none" stroke="#9a32cd" stroke-dasharray="5,2" d="M451.832,-376.47C495.882,-388.21 581.096,-408 655,-408 655,-408 655,-408 1130,-408 1202.08,-408 1234.39,-298.365 1242.73,-264.104"/>
<polygon fill="#9a32cd" stroke="#9a32cd" points="452.627,-373.059 442.059,-373.816 450.792,-379.815 452.627,-373.059"/>
<text text-anchor="middle" x="920" y="-411" font-family="Helvetica,sans-Serif" font-size="10.00"> kernel_count</text>
</g>
<!-- Node14 -->
<g id="node14" class="node"><title>Node14</title>
<g id="a_node14"><a xlink:href="class_port.html" target="_top" xlink:title="Port">
<polygon fill="none" stroke="black" points="1111.83,-198 1111.83,-218 1146.17,-218 1146.17,-198 1111.83,-198"/>
<text text-anchor="middle" x="1129" y="-205" font-family="Helvetica,sans-Serif" font-size="10.00">Port</text>
</a>
</g>
</g>
<!-- Node12&#45;&gt;Node14 -->
<g id="edge19" class="edge"><title>Node12&#45;&gt;Node14</title>
<path fill="none" stroke="#9a32cd" stroke-dasharray="5,2" d="M452.395,-368C496.876,-368 582.315,-368 655,-368 655,-368 655,-368 1002,-368 1078.72,-368 1115.91,-253.037 1125.46,-218.009"/>
<polygon fill="#9a32cd" stroke="#9a32cd" points="452.258,-364.5 442.258,-368 452.258,-371.5 452.258,-364.5"/>
<text text-anchor="middle" x="817" y="-371" font-family="Helvetica,sans-Serif" font-size="10.00"> alloc_ptr_length</text>
</g>
<!-- Node13&#45;&gt;Node1 -->
<g id="edge14" class="edge"><title>Node13&#45;&gt;Node1</title>
<path fill="none" stroke="#9a32cd" stroke-dasharray="5,2" d="M1204.09,-264.634C1182.26,-269.414 1154.84,-274 1130,-274 816,-274 816,-274 816,-274 761.272,-274 701.658,-244.119 673.499,-228.012"/>
<polygon fill="#9a32cd" stroke="#9a32cd" points="1205.05,-268.007 1214.02,-262.366 1203.49,-261.183 1205.05,-268.007"/>
<text text-anchor="middle" x="1001" y="-289" font-family="Helvetica,sans-Serif" font-size="10.00"> my_kernel</text>
<text text-anchor="middle" x="1001" y="-277" font-family="Helvetica,sans-Serif" font-size="10.00">other_kernel</text>
</g>
<!-- Node13&#45;&gt;Node14 -->
<g id="edge26" class="edge"><title>Node13&#45;&gt;Node14</title>
<path fill="none" stroke="#9a32cd" stroke-dasharray="5,2" d="M1232.32,-235.829C1223.53,-224.926 1210.79,-212.037 1196,-206 1180.08,-199.502 1160.16,-201.305 1146.39,-203.913"/>
<polygon fill="#9a32cd" stroke="#9a32cd" points="1229.65,-238.109 1238.47,-243.979 1235.24,-233.89 1229.65,-238.109"/>
<text text-anchor="middle" x="1180" y="-209" font-family="Helvetica,sans-Serif" font-size="10.00"> kernel</text>
</g>
<!-- Node14&#45;&gt;Node13 -->
<g id="edge16" class="edge"><title>Node14&#45;&gt;Node13</title>
<path fill="none" stroke="#9a32cd" stroke-dasharray="5,2" d="M1156.02,-218.408C1175.06,-226.026 1200.77,-236.307 1219.65,-243.861"/>
<polygon fill="#9a32cd" stroke="#9a32cd" points="1157.06,-215.055 1146.48,-214.591 1154.46,-221.554 1157.06,-215.055"/>
<text text-anchor="middle" x="1180" y="-248" font-family="Helvetica,sans-Serif" font-size="10.00"> output</text>
<text text-anchor="middle" x="1180" y="-236" font-family="Helvetica,sans-Serif" font-size="10.00">input</text>
</g>
<!-- Node15 -->
<g id="node15" class="node"><title>Node15</title>
<g id="a_node15"><a xlink:href="class_port_base.html" target="_top" xlink:title="PortBase">
<polygon fill="none" stroke="black" points="972.438,-128 972.438,-148 1029.56,-148 1029.56,-128 972.438,-128"/>
<text text-anchor="middle" x="1001" y="-135" font-family="Helvetica,sans-Serif" font-size="10.00">PortBase</text>
</a>
</g>
</g>
<!-- Node15&#45;&gt;Node14 -->
<g id="edge17" class="edge"><title>Node15&#45;&gt;Node14</title>
<path fill="none" stroke="midnightblue" d="M1037.16,-152.122C1054.74,-159.754 1076.04,-169.884 1094,-181 1101.95,-185.919 1110.17,-192.407 1116.54,-197.791"/>
<polygon fill="midnightblue" stroke="midnightblue" points="1038.39,-148.843 1027.82,-148.149 1035.65,-155.284 1038.39,-148.843"/>
</g>
<!-- Node16 -->
<g id="node16" class="node"><title>Node16</title>
<polygon fill="none" stroke="#bfbfbf" points="968.549,-206 968.549,-226 1033.45,-226 1033.45,-206 968.549,-206"/>
<text text-anchor="middle" x="1001" y="-213" font-family="Helvetica,sans-Serif" font-size="10.00">void *const</text>
</g>
<!-- Node16&#45;&gt;Node14 -->
<g id="edge18" class="edge"><title>Node16&#45;&gt;Node14</title>
<path fill="none" stroke="#9a32cd" stroke-dasharray="5,2" d="M1043.76,-213.349C1066.92,-211.878 1094.43,-210.131 1111.55,-209.044"/>
<polygon fill="#9a32cd" stroke="#9a32cd" points="1043.23,-209.875 1033.47,-214.002 1043.67,-216.861 1043.23,-209.875"/>
<text text-anchor="middle" x="1073" y="-215" font-family="Helvetica,sans-Serif" font-size="10.00"> alloc_ptr</text>
</g>
<!-- Node17 -->
<g id="node17" class="node"><title>Node17</title>
<g id="a_node17"><a xlink:href="structportmap__t.html" target="_top" xlink:title="portmap_t">
<polygon fill="none" stroke="black" points="970.495,-167 970.495,-187 1031.51,-187 1031.51,-167 970.495,-167"/>
<text text-anchor="middle" x="1001" y="-174" font-family="Helvetica,sans-Serif" font-size="10.00">portmap_t</text>
</a>
</g>
</g>
<!-- Node17&#45;&gt;Node14 -->
<g id="edge20" class="edge"><title>Node17&#45;&gt;Node14</title>
<path fill="none" stroke="#9a32cd" stroke-dasharray="5,2" d="M1042.07,-182.544C1058.36,-185.277 1077.26,-189.065 1094,-194 1099.88,-195.733 1106.13,-198.135 1111.65,-200.46"/>
<polygon fill="#9a32cd" stroke="#9a32cd" points="1042.21,-179.022 1031.79,-180.898 1041.11,-185.934 1042.21,-179.022"/>
<text text-anchor="middle" x="1073" y="-197" font-family="Helvetica,sans-Serif" font-size="10.00"> portmap</text>
</g>
<!-- Node18&#45;&gt;Node17 -->
<g id="edge21" class="edge"><title>Node18&#45;&gt;Node17</title>
<path fill="none" stroke="#9a32cd" stroke-dasharray="5,2" d="M870.773,-128.717C904.238,-141.221 946.132,-156.874 972.983,-166.906"/>
<polygon fill="#9a32cd" stroke="#9a32cd" points="871.724,-125.336 861.131,-125.115 869.274,-131.894 871.724,-125.336"/>
<text text-anchor="middle" x="920" y="-160" font-family="Helvetica,sans-Serif" font-size="10.00"> map</text>
</g>
<!-- Node19 -->
<g id="node19" class="node"><title>Node19</title>
<polygon fill="none" stroke="#bfbfbf" points="795.387,-167 795.387,-187 838.613,-187 838.613,-167 795.387,-167"/>
<text text-anchor="middle" x="817" y="-174" font-family="Helvetica,sans-Serif" font-size="10.00">mutex</text>
</g>
<!-- Node19&#45;&gt;Node17 -->
<g id="edge25" class="edge"><title>Node19&#45;&gt;Node17</title>
<path fill="none" stroke="#9a32cd" stroke-dasharray="5,2" d="M849.147,-177C883.096,-177 937.016,-177 970.36,-177"/>
<polygon fill="#9a32cd" stroke="#9a32cd" points="848.878,-173.5 838.878,-177 848.878,-180.5 848.878,-173.5"/>
<text text-anchor="middle" x="920" y="-180" font-family="Helvetica,sans-Serif" font-size="10.00"> map_mutex</text>
</g>
<!-- Node20 -->
<g id="node20" class="node"><title>Node20</title>
<polygon fill="none" stroke="#bfbfbf" points="400.498,-165 400.498,-185 441.502,-185 441.502,-165 400.498,-165"/>
<text text-anchor="middle" x="421" y="-172" font-family="Helvetica,sans-Serif" font-size="10.00">void *</text>
</g>
<!-- Node20&#45;&gt;Node1 -->
<g id="edge27" class="edge"><title>Node20&#45;&gt;Node1</title>
<path fill="none" stroke="#9a32cd" stroke-dasharray="5,2" d="M451.834,-176.098C489.701,-178.094 556.746,-183.657 612,-199 619.864,-201.184 628.146,-204.561 635.318,-207.865"/>
<polygon fill="#9a32cd" stroke="#9a32cd" points="451.668,-172.586 441.512,-175.605 451.334,-179.578 451.668,-172.586"/>
<text text-anchor="middle" x="560" y="-202" font-family="Helvetica,sans-Serif" font-size="10.00"> existing_buffer</text>
</g>
</g>
</svg>
