<?xml version="1.0" encoding="UTF-8" standalone="no"?>
<!DOCTYPE svg PUBLIC "-//W3C//DTD SVG 1.1//EN"
 "http://www.w3.org/Graphics/SVG/1.1/DTD/svg11.dtd">
<!-- Generated by graphviz version 2.30.1 (20130404.1610)
 -->
<!-- Title: PortInfo::setFIFO Pages: 1 -->
<svg width="342pt" height="67pt"
 viewBox="0.00 0.00 342.00 67.00" xmlns="http://www.w3.org/2000/svg" xmlns:xlink="http://www.w3.org/1999/xlink">
<g id="graph0" class="graph" transform="scale(1 1) rotate(0) translate(4 63)">
<title>PortInfo::setFIFO</title>
<!-- Node1 -->
<g id="node1" class="node"><title>Node1</title>
<polygon fill="#bfbfbf" stroke="black" points="0.658,-19 0.658,-39 93.342,-39 93.342,-19 0.658,-19"/>
<text text-anchor="middle" x="47" y="-26" font-family="Helvetica,sans-Serif" font-size="10.00">PortInfo::setFIFO</text>
</g>
<!-- Node2 -->
<g id="node2" class="node"><title>Node2</title>
<g id="a_node2"><a xlink:href="class_allocate.html#a143df0dcd693ee1ba72060a06aca3b8c" target="_top" xlink:title="Allocate::initialize">
<polygon fill="none" stroke="black" points="130.664,-19 130.664,-39 223.336,-39 223.336,-19 130.664,-19"/>
<text text-anchor="middle" x="177" y="-26" font-family="Helvetica,sans-Serif" font-size="10.00">Allocate::initialize</text>
</a>
</g>
</g>
<!-- Node1&#45;&gt;Node2 -->
<g id="edge1" class="edge"><title>Node1&#45;&gt;Node2</title>
<path fill="none" stroke="midnightblue" d="M103.567,-29C112.616,-29 121.893,-29 130.658,-29"/>
<polygon fill="midnightblue" stroke="midnightblue" points="103.488,-25.5001 93.4884,-29 103.488,-32.5001 103.488,-25.5001"/>
</g>
<!-- Node3 -->
<g id="node3" class="node"><title>Node3</title>
<g id="a_node3"><a xlink:href="classdynalloc.html#a2a52b86ec09bd6dd52e49062137b2e37" target="_top" xlink:title="dynalloc::run">
<polygon fill="none" stroke="black" points="260.661,-39 260.661,-59 333.339,-59 333.339,-39 260.661,-39"/>
<text text-anchor="middle" x="297" y="-46" font-family="Helvetica,sans-Serif" font-size="10.00">dynalloc::run</text>
</a>
</g>
</g>
<!-- Node2&#45;&gt;Node3 -->
<g id="edge2" class="edge"><title>Node2&#45;&gt;Node3</title>
<path fill="none" stroke="midnightblue" d="M233.758,-38.4506C242.815,-39.9856 251.974,-41.538 260.379,-42.9625"/>
<polygon fill="midnightblue" stroke="midnightblue" points="234.066,-34.9529 223.622,-36.7325 232.896,-41.8545 234.066,-34.9529"/>
</g>
<!-- Node4 -->
<g id="node4" class="node"><title>Node4</title>
<g id="a_node4"><a xlink:href="classstdalloc.html#a60438b15948ce354b52b03ba6d975de0" target="_top" xlink:title="stdalloc::run">
<polygon fill="none" stroke="black" points="262.05,-0 262.05,-20 331.95,-20 331.95,-0 262.05,-0"/>
<text text-anchor="middle" x="297" y="-7" font-family="Helvetica,sans-Serif" font-size="10.00">stdalloc::run</text>
</a>
</g>
</g>
<!-- Node2&#45;&gt;Node4 -->
<g id="edge3" class="edge"><title>Node2&#45;&gt;Node4</title>
<path fill="none" stroke="midnightblue" d="M233.584,-20.05C243.228,-18.4971 252.994,-16.9246 261.847,-15.4992"/>
<polygon fill="midnightblue" stroke="midnightblue" points="232.938,-16.6088 223.622,-21.6541 234.051,-23.5198 232.938,-16.6088"/>
</g>
</g>
</svg>
