<?xml version="1.0" encoding="UTF-8" standalone="no"?>
<!DOCTYPE svg PUBLIC "-//W3C//DTD SVG 1.1//EN"
 "http://www.w3.org/Graphics/SVG/1.1/DTD/svg11.dtd">
<!-- Generated by graphviz version 2.30.1 (20130404.1610)
 -->
<!-- Title: EFlags Pages: 1 -->
<svg width="58pt" height="220pt"
 viewBox="0.00 0.00 58.00 220.00" xmlns="http://www.w3.org/2000/svg" xmlns:xlink="http://www.w3.org/1999/xlink">
<g id="graph0" class="graph" transform="scale(1 1) rotate(0) translate(4 216)">
<title>EFlags</title>
<!-- Node1 -->
<g id="node1" class="node"><title>Node1</title>
<polygon fill="#bfbfbf" stroke="black" points="1.4425,-1 1.4425,-21 48.5575,-21 48.5575,-1 1.4425,-1"/>
<text text-anchor="middle" x="25" y="-8" font-family="Helvetica,sans-Serif" font-size="10.00">EFlags</text>
</g>
<!-- Node2 -->
<g id="node2" class="node"><title>Node2</title>
<polygon fill="none" stroke="#bfbfbf" points="-0.786,-191 -0.786,-211 50.786,-211 50.786,-191 -0.786,-191"/>
<text text-anchor="middle" x="25" y="-198" font-family="Helvetica,sans-Serif" font-size="10.00">uint32_t</text>
</g>
<!-- Node2&#45;&gt;Node1 -->
<g id="edge1" class="edge"><title>Node2&#45;&gt;Node1</title>
<path fill="none" stroke="#9a32cd" stroke-dasharray="5,2" d="M25,-180.709C25,-140.864 25,-50.7507 25,-21.4195"/>
<polygon fill="#9a32cd" stroke="#9a32cd" points="21.5001,-180.932 25,-190.932 28.5001,-180.932 21.5001,-180.932"/>
<text text-anchor="middle" x="36.393" y="-163" font-family="Helvetica,sans-Serif" font-size="10.00"> AC</text>
<text text-anchor="middle" x="36.393" y="-151" font-family="Helvetica,sans-Serif" font-size="10.00">IOPL</text>
<text text-anchor="middle" x="36.393" y="-139" font-family="Helvetica,sans-Serif" font-size="10.00">DF</text>
<text text-anchor="middle" x="36.393" y="-127" font-family="Helvetica,sans-Serif" font-size="10.00">TF</text>
<text text-anchor="middle" x="36.393" y="-115" font-family="Helvetica,sans-Serif" font-size="10.00">CF</text>
<text text-anchor="middle" x="36.393" y="-103" font-family="Helvetica,sans-Serif" font-size="10.00">SF</text>
<text text-anchor="middle" x="36.393" y="-91" font-family="Helvetica,sans-Serif" font-size="10.00">RF</text>
<text text-anchor="middle" x="36.393" y="-79" font-family="Helvetica,sans-Serif" font-size="10.00">AF</text>
<text text-anchor="middle" x="36.393" y="-67" font-family="Helvetica,sans-Serif" font-size="10.00">NT</text>
<text text-anchor="middle" x="36.393" y="-55" font-family="Helvetica,sans-Serif" font-size="10.00">PF</text>
<text text-anchor="middle" x="36.393" y="-43" font-family="Helvetica,sans-Serif" font-size="10.00">...</text>
</g>
</g>
</svg>
