<?xml version="1.0" encoding="UTF-8" standalone="no"?>
<!DOCTYPE svg PUBLIC "-//W3C//DTD SVG 1.1//EN"
 "http://www.w3.org/Graphics/SVG/1.1/DTD/svg11.dtd">
<!-- Generated by graphviz version 2.30.1 (20130404.1610)
 -->
<!-- Title: portmap_t Pages: 1 -->
<!--zoomable 508 -->
<svg id="main" version="1.1" xmlns="http://www.w3.org/2000/svg" xmlns:xlink="http://www.w3.org/1999/xlink" xml:space="preserve" onload="init(evt)">
<style type="text/css"><![CDATA[
.edge:hover path { stroke: red; }
.edge:hover polygon { stroke: red; fill: red; }
]]></style>
<script type="text/javascript"><![CDATA[
var edges = document.getElementsByTagName('g');
if (edges && edges.length) {
  for (var i=0;i<edges.length;i++) {
    if (edges[i].id.substr(0,4)=='edge') {
      edges[i].setAttribute('class','edge');
    }
  }
}
]]></script>
        <defs>
                <circle id="rim" cx="0" cy="0" r="7"/>
                <circle id="rim2" cx="0" cy="0" r="3.5"/>
                <g id="zoomPlus">
                        <use xlink:href="#rim" fill="#404040">
                                <set attributeName="fill" to="#808080" begin="zoomplus.mouseover" end="zoomplus.mouseout"/>
                        </use>
                        <path d="M-4,0h8M0,-4v8" fill="none" stroke="white" stroke-width="1.5" pointer-events="none"/>
                </g>
                <g id="zoomMin">
                        <use xlink:href="#rim" fill="#404040">
                                <set attributeName="fill" to="#808080" begin="zoomminus.mouseover" end="zoomminus.mouseout"/>
                        </use>
                        <path d="M-4,0h8" fill="none" stroke="white" stroke-width="1.5" pointer-events="none"/>
                </g>
                <g id="dirArrow">
                        <path fill="none" stroke="white" stroke-width="1.5" d="M0,-3.0v7 M-2.5,-0.5L0,-3.0L2.5,-0.5"/>
                </g>
               <g id="resetDef">
                       <use xlink:href="#rim2" fill="#404040">
                               <set attributeName="fill" to="#808080" begin="reset.mouseover" end="reset.mouseout"/>
                       </use>
               </g>
        </defs>

<script type="text/javascript">
var viewWidth = 1082;
var viewHeight = 508;
var sectionId = 'dynsection-0';
</script>
<script xlink:href="svgpan.js"/>
<svg id="graph" class="graph">
<g id="viewport">
<title>portmap_t</title>
<!-- Node1 -->
<g id="node1" class="node"><title>Node1</title>
<polygon fill="#bfbfbf" stroke="black" points="138.495,-323.439 138.495,-343.439 199.505,-343.439 199.505,-323.439 138.495,-323.439"/>
<text text-anchor="middle" x="169" y="-330.439" font-family="Helvetica,sans-Serif" font-size="10.00">portmap_t</text>
</g>
<!-- Node16 -->
<g id="node16" class="node"><title>Node16</title>
<g id="a_node16"><a xlink:href="class_port.html" target="_top" xlink:title="Port">
<polygon fill="none" stroke="black" points="341.832,-227.439 341.832,-247.439 376.168,-247.439 376.168,-227.439 341.832,-227.439"/>
<text text-anchor="middle" x="359" y="-234.439" font-family="Helvetica,sans-Serif" font-size="10.00">Port</text>
</a>
</g>
</g>
<!-- Node1&#45;&gt;Node16 -->
<g id="edge23" class="edge"><title>Node1&#45;&gt;Node16</title>
<path fill="none" stroke="#9a32cd" stroke-dasharray="5,2" d="M202.656,-319.222C227.912,-307.973 263.586,-291.532 294,-275.439 310.676,-266.616 329.147,-255.497 341.942,-247.571"/>
<polygon fill="#9a32cd" stroke="#9a32cd" points="200.913,-316.166 193.185,-323.414 203.746,-322.567 200.913,-316.166"/>
<text text-anchor="middle" x="257" y="-314.439" font-family="Helvetica,sans-Serif" font-size="10.00"> portmap</text>
</g>
<!-- Node2 -->
<g id="node2" class="node"><title>Node2</title>
<polygon fill="none" stroke="#bfbfbf" points="964.46,-316.439 964.46,-348.439 1073.54,-348.439 1073.54,-316.439 964.46,-316.439"/>
<text text-anchor="start" x="972.46" y="-335.439" font-family="Helvetica,sans-Serif" font-size="10.00">std::map&lt; std::string,</text>
<text text-anchor="middle" x="1019" y="-323.439" font-family="Helvetica,sans-Serif" font-size="10.00"> PortInfo &gt;</text>
</g>
<!-- Node2&#45;&gt;Node1 -->
<g id="edge1" class="edge"><title>Node2&#45;&gt;Node1</title>
<path fill="none" stroke="#9a32cd" stroke-dasharray="5,2" d="M954.14,-344.171C925.199,-348.532 890.483,-352.439 859,-352.439 358,-352.439 358,-352.439 358,-352.439 301.739,-352.439 236.486,-343.912 199.538,-338.283"/>
<polygon fill="#9a32cd" stroke="#9a32cd" points="954.779,-347.614 964.121,-342.615 953.701,-340.697 954.779,-347.614"/>
<text text-anchor="middle" x="623" y="-355.439" font-family="Helvetica,sans-Serif" font-size="10.00"> map</text>
</g>
<!-- Node3 -->
<g id="node3" class="node"><title>Node3</title>
<g id="a_node3"><a xlink:title="STL class. ">
<polygon fill="none" stroke="#bfbfbf" points="593.33,-284.439 593.33,-304.439 652.67,-304.439 652.67,-284.439 593.33,-284.439"/>
<text text-anchor="middle" x="623" y="-291.439" font-family="Helvetica,sans-Serif" font-size="10.00">std::string</text>
</a>
</g>
</g>
<!-- Node3&#45;&gt;Node2 -->
<g id="edge2" class="edge"><title>Node3&#45;&gt;Node2</title>
<path fill="none" stroke="#9a32cd" stroke-dasharray="5,2" d="M663.253,-298.225C734.177,-305.066 883.766,-319.493 964.172,-327.248"/>
<polygon fill="#9a32cd" stroke="#9a32cd" points="663.262,-294.71 652.972,-297.234 662.59,-301.678 663.262,-294.71"/>
<text text-anchor="middle" x="858" y="-322.439" font-family="Helvetica,sans-Serif" font-size="10.00"> keys</text>
</g>
<!-- Node5 -->
<g id="node5" class="node"><title>Node5</title>
<g id="a_node5"><a xlink:href="struct_port_info.html" target="_top" xlink:title="PortInfo">
<polygon fill="none" stroke="black" points="832.494,-193.439 832.494,-213.439 883.506,-213.439 883.506,-193.439 832.494,-193.439"/>
<text text-anchor="middle" x="858" y="-200.439" font-family="Helvetica,sans-Serif" font-size="10.00">PortInfo</text>
</a>
</g>
</g>
<!-- Node3&#45;&gt;Node5 -->
<g id="edge13" class="edge"><title>Node3&#45;&gt;Node5</title>
<path fill="none" stroke="#9a32cd" stroke-dasharray="5,2" d="M662.875,-285.384C677.631,-281.951 694.59,-278.009 710,-274.439 756.213,-263.733 773.03,-274.351 814,-250.439 829.665,-241.297 842.906,-224.579 850.4,-213.744"/>
<polygon fill="#9a32cd" stroke="#9a32cd" points="662.003,-281.993 653.057,-287.669 663.59,-288.811 662.003,-281.993"/>
<text text-anchor="middle" x="762" y="-289.439" font-family="Helvetica,sans-Serif" font-size="10.00"> my_name</text>
<text text-anchor="middle" x="762" y="-277.439" font-family="Helvetica,sans-Serif" font-size="10.00">other_name</text>
</g>
<!-- Node4 -->
<g id="node4" class="node"><title>Node4</title>
<g id="a_node4"><a xlink:title="STL class. ">
<polygon fill="none" stroke="#bfbfbf" points="311.962,-278.439 311.962,-310.439 406.038,-310.439 406.038,-278.439 311.962,-278.439"/>
<text text-anchor="start" x="319.962" y="-297.439" font-family="Helvetica,sans-Serif" font-size="10.00">std::basic_string&lt;</text>
<text text-anchor="middle" x="359" y="-285.439" font-family="Helvetica,sans-Serif" font-size="10.00"> char &gt;</text>
</a>
</g>
</g>
<!-- Node4&#45;&gt;Node3 -->
<g id="edge3" class="edge"><title>Node4&#45;&gt;Node3</title>
<path fill="none" stroke="midnightblue" d="M416.411,-294.439C470.775,-294.439 550.842,-294.439 593.228,-294.439"/>
<polygon fill="midnightblue" stroke="midnightblue" points="416.237,-290.939 406.237,-294.439 416.237,-297.939 416.237,-290.939"/>
</g>
<!-- Node5&#45;&gt;Node2 -->
<g id="edge4" class="edge"><title>Node5&#45;&gt;Node2</title>
<path fill="none" stroke="#9a32cd" stroke-dasharray="5,2" d="M879.36,-219.958C910.005,-244.821 967.629,-291.572 998.039,-316.244"/>
<polygon fill="#9a32cd" stroke="#9a32cd" points="881.447,-217.144 871.476,-213.562 877.037,-222.58 881.447,-217.144"/>
<text text-anchor="middle" x="924" y="-275.439" font-family="Helvetica,sans-Serif" font-size="10.00"> elements</text>
</g>
<!-- Node6 -->
<g id="node6" class="node"><title>Node6</title>
<polygon fill="none" stroke="#bfbfbf" points="590.824,-193.439 590.824,-213.439 655.176,-213.439 655.176,-193.439 590.824,-193.439"/>
<text text-anchor="middle" x="623" y="-200.439" font-family="Helvetica,sans-Serif" font-size="10.00">type_index</text>
</g>
<!-- Node6&#45;&gt;Node5 -->
<g id="edge5" class="edge"><title>Node6&#45;&gt;Node5</title>
<path fill="none" stroke="#9a32cd" stroke-dasharray="5,2" d="M665.594,-203.439C714.13,-203.439 792.783,-203.439 832.454,-203.439"/>
<polygon fill="#9a32cd" stroke="#9a32cd" points="665.423,-199.939 655.423,-203.439 665.423,-206.939 665.423,-199.939"/>
<text text-anchor="middle" x="762" y="-206.439" font-family="Helvetica,sans-Serif" font-size="10.00"> type</text>
</g>
<!-- Node7 -->
<g id="node7" class="node"><title>Node7</title>
<polygon fill="none" stroke="#bfbfbf" points="554.012,-395.439 554.012,-427.439 691.988,-427.439 691.988,-395.439 554.012,-395.439"/>
<text text-anchor="start" x="562.012" y="-414.439" font-family="Helvetica,sans-Serif" font-size="10.00">std::map&lt; Type::RingBuffer</text>
<text text-anchor="middle" x="623" y="-402.439" font-family="Helvetica,sans-Serif" font-size="10.00">Type, instr_map_t * &gt;</text>
</g>
<!-- Node7&#45;&gt;Node5 -->
<g id="edge6" class="edge"><title>Node7&#45;&gt;Node5</title>
<path fill="none" stroke="#9a32cd" stroke-dasharray="5,2" d="M678.089,-391.492C719.936,-373.688 776.833,-343.983 814,-302.439 838.114,-275.486 850.309,-232.904 854.85,-213.578"/>
<polygon fill="#9a32cd" stroke="#9a32cd" points="676.491,-388.366 668.6,-395.436 679.178,-394.829 676.491,-388.366"/>
<text text-anchor="middle" x="762" y="-378.439" font-family="Helvetica,sans-Serif" font-size="10.00"> const_map</text>
</g>
<!-- Node8 -->
<g id="node8" class="node"><title>Node8</title>
<g id="a_node8"><a xlink:title="STL class. ">
<polygon fill="none" stroke="#bfbfbf" points="314.043,-460.439 314.043,-480.439 403.957,-480.439 403.957,-460.439 314.043,-460.439"/>
<text text-anchor="middle" x="359" y="-467.439" font-family="Helvetica,sans-Serif" font-size="10.00">std::map&lt; K, T &gt;</text>
</a>
</g>
</g>
<!-- Node8&#45;&gt;Node7 -->
<g id="edge7" class="edge"><title>Node8&#45;&gt;Node7</title>
<path fill="none" stroke="#9a32cd" stroke-dasharray="5,2" d="M414.135,-467.628C449.339,-464.838 495.972,-459.316 536,-448.439 554.665,-443.367 574.56,-435.016 590.509,-427.53"/>
<polygon fill="#9a32cd" stroke="#9a32cd" points="413.774,-464.145 404.061,-468.377 414.293,-471.126 413.774,-464.145"/>
<text text-anchor="middle" x="480" y="-470.439" font-family="Helvetica,sans-Serif" font-size="10.00"> elements</text>
</g>
<!-- Node8&#45;&gt;Node7 -->
<g id="edge11" class="edge"><title>Node8&#45;&gt;Node7</title>
<path fill="none" stroke="orange" stroke-dasharray="5,2" d="M376.593,-452.697C388.548,-441.218 405.734,-427.196 424,-420.439 465.31,-405.158 514.81,-402.908 553.982,-404.478"/>
<polygon fill="orange" stroke="orange" points="373.78,-450.562 369.204,-460.118 378.74,-455.501 373.78,-450.562"/>
<text text-anchor="start" x="424.291" y="-435.439" font-family="Helvetica,sans-Serif" font-size="10.00"> &lt; Type::RingBufferType,</text>
<text text-anchor="middle" x="480" y="-423.439" font-family="Helvetica,sans-Serif" font-size="10.00"> instr_map_t * &gt;</text>
</g>
<!-- Node8&#45;&gt;Node2 -->
<g id="edge26" class="edge"><title>Node8&#45;&gt;Node2</title>
<path fill="none" stroke="orange" stroke-dasharray="5,2" d="M413.509,-482.129C417.048,-482.648 420.568,-483.094 424,-483.439 473.528,-488.419 486.702,-490.336 536,-483.439 723.669,-457.186 768.623,-433.119 946,-366.439 959.716,-361.283 974.418,-354.568 986.937,-348.468"/>
<polygon fill="orange" stroke="orange" points="413.978,-478.659 403.544,-480.497 412.848,-485.567 413.978,-478.659"/>
<text text-anchor="middle" x="762" y="-453.439" font-family="Helvetica,sans-Serif" font-size="10.00"> &lt; std::string, PortInfo &gt;</text>
</g>
<!-- Node9 -->
<g id="node9" class="node"><title>Node9</title>
<polygon fill="none" stroke="#bfbfbf" points="154.5,-479.439 154.5,-499.439 183.5,-499.439 183.5,-479.439 154.5,-479.439"/>
<text text-anchor="middle" x="169" y="-486.439" font-family="Helvetica,sans-Serif" font-size="10.00">K</text>
</g>
<!-- Node9&#45;&gt;Node8 -->
<g id="edge8" class="edge"><title>Node9&#45;&gt;Node8</title>
<path fill="none" stroke="#9a32cd" stroke-dasharray="5,2" d="M193.493,-487.065C223.523,-484.03 276.122,-478.714 313.763,-474.91"/>
<polygon fill="#9a32cd" stroke="#9a32cd" points="193.118,-483.585 183.52,-488.073 193.822,-490.55 193.118,-483.585"/>
<text text-anchor="middle" x="257" y="-487.439" font-family="Helvetica,sans-Serif" font-size="10.00"> keys</text>
</g>
<!-- Node10 -->
<g id="node10" class="node"><title>Node10</title>
<polygon fill="none" stroke="#bfbfbf" points="154.5,-440.439 154.5,-460.439 183.5,-460.439 183.5,-440.439 154.5,-440.439"/>
<text text-anchor="middle" x="169" y="-447.439" font-family="Helvetica,sans-Serif" font-size="10.00">T</text>
</g>
<!-- Node10&#45;&gt;Node8 -->
<g id="edge9" class="edge"><title>Node10&#45;&gt;Node8</title>
<path fill="none" stroke="#9a32cd" stroke-dasharray="5,2" d="M193.797,-452.186C218.788,-454.106 259.211,-457.453 294,-461.439 300.466,-462.18 307.287,-463.047 313.97,-463.946"/>
<polygon fill="#9a32cd" stroke="#9a32cd" points="194.021,-448.693 183.785,-451.43 193.493,-455.673 194.021,-448.693"/>
<text text-anchor="middle" x="257" y="-464.439" font-family="Helvetica,sans-Serif" font-size="10.00"> elements</text>
</g>
<!-- Node11 -->
<g id="node11" class="node"><title>Node11</title>
<polygon fill="none" stroke="#bfbfbf" points="316.272,-381.439 316.272,-401.439 401.728,-401.439 401.728,-381.439 316.272,-381.439"/>
<text text-anchor="middle" x="359" y="-388.439" font-family="Helvetica,sans-Serif" font-size="10.00">RingBufferType</text>
</g>
<!-- Node11&#45;&gt;Node7 -->
<g id="edge10" class="edge"><title>Node11&#45;&gt;Node7</title>
<path fill="none" stroke="#9a32cd" stroke-dasharray="5,2" d="M412.04,-389.677C416.087,-389.582 420.11,-389.5 424,-389.439 473.772,-388.662 486.612,-383.222 536,-389.439 546.398,-390.748 557.339,-392.914 567.803,-395.389"/>
<polygon fill="#9a32cd" stroke="#9a32cd" points="411.901,-386.179 401.996,-389.939 412.084,-393.177 411.901,-386.179"/>
<text text-anchor="middle" x="480" y="-392.439" font-family="Helvetica,sans-Serif" font-size="10.00"> keys</text>
</g>
<!-- Node12 -->
<g id="node12" class="node"><title>Node12</title>
<polygon fill="none" stroke="#bfbfbf" points="341.552,-47.4393 341.552,-67.4393 376.448,-67.4393 376.448,-47.4393 341.552,-47.4393"/>
<text text-anchor="middle" x="359" y="-54.4393" font-family="Helvetica,sans-Serif" font-size="10.00">bool</text>
</g>
<!-- Node12&#45;&gt;Node5 -->
<g id="edge12" class="edge"><title>Node12&#45;&gt;Node5</title>
<path fill="none" stroke="#9a32cd" stroke-dasharray="5,2" d="M386.061,-47.3335C462.623,-19.5254 689.299,49.0632 814,-60.4393 854.129,-95.6773 857.519,-166.8 857.312,-193.238"/>
<polygon fill="#9a32cd" stroke="#9a32cd" points="384.838,-44.0539 376.679,-50.8126 387.272,-50.6171 384.838,-44.0539"/>
<text text-anchor="middle" x="623" y="-20.4393" font-family="Helvetica,sans-Serif" font-size="10.00"> use_my_allocator</text>
<text text-anchor="middle" x="623" y="-8.43934" font-family="Helvetica,sans-Serif" font-size="10.00">out_of_order</text>
</g>
<!-- Node13 -->
<g id="node13" class="node"><title>Node13</title>
<g id="a_node13"><a xlink:href="class_f_i_f_o.html" target="_top" xlink:title="FIFO">
<polygon fill="none" stroke="black" points="603.612,-74.4393 603.612,-94.4393 642.388,-94.4393 642.388,-74.4393 603.612,-74.4393"/>
<text text-anchor="middle" x="623" y="-81.4393" font-family="Helvetica,sans-Serif" font-size="10.00">FIFO</text>
</a>
</g>
</g>
<!-- Node12&#45;&gt;Node13 -->
<g id="edge15" class="edge"><title>Node12&#45;&gt;Node13</title>
<path fill="none" stroke="#9a32cd" stroke-dasharray="5,2" d="M386.813,-60.2025C439.972,-65.6807 557.53,-77.7955 603.273,-82.5095"/>
<polygon fill="#9a32cd" stroke="#9a32cd" points="387.094,-56.713 376.788,-59.1694 386.376,-63.6761 387.094,-56.713"/>
<text text-anchor="middle" x="480" y="-78.4393" font-family="Helvetica,sans-Serif" font-size="10.00"> valid</text>
</g>
<!-- Node13&#45;&gt;Node5 -->
<g id="edge14" class="edge"><title>Node13&#45;&gt;Node5</title>
<path fill="none" stroke="#9a32cd" stroke-dasharray="5,2" d="M652.173,-75.4187C692.123,-64.4952 765.735,-51.4684 814,-85.4393 850.017,-110.79 855.967,-169.603 856.875,-193.287"/>
<polygon fill="#9a32cd" stroke="#9a32cd" points="651.185,-72.0608 642.544,-78.1911 653.122,-78.7875 651.185,-72.0608"/>
<text text-anchor="middle" x="762" y="-100.439" font-family="Helvetica,sans-Serif" font-size="10.00"> fifo_a</text>
<text text-anchor="middle" x="762" y="-88.4393" font-family="Helvetica,sans-Serif" font-size="10.00">fifo_b</text>
</g>
<!-- Node14 -->
<g id="node14" class="node"><title>Node14</title>
<polygon fill="none" stroke="#bfbfbf" points="147.942,-159.439 147.942,-179.439 190.058,-179.439 190.058,-159.439 147.942,-159.439"/>
<text text-anchor="middle" x="169" y="-166.439" font-family="Helvetica,sans-Serif" font-size="10.00">size_t</text>
</g>
<!-- Node14&#45;&gt;Node5 -->
<g id="edge16" class="edge"><title>Node14&#45;&gt;Node5</title>
<path fill="none" stroke="#9a32cd" stroke-dasharray="5,2" d="M200.271,-164.536C247.773,-157.116 342.787,-143.377 424,-138.439 542.921,-131.209 573.136,-136.315 692,-144.439 746.357,-148.155 765.275,-132.06 814,-156.439 830.418,-164.654 843.624,-181.978 850.881,-193.143"/>
<polygon fill="#9a32cd" stroke="#9a32cd" points="199.668,-161.088 190.336,-166.105 200.759,-168.003 199.668,-161.088"/>
<text text-anchor="middle" x="480" y="-153.439" font-family="Helvetica,sans-Serif" font-size="10.00"> nitems</text>
<text text-anchor="middle" x="480" y="-141.439" font-family="Helvetica,sans-Serif" font-size="10.00">start_index</text>
</g>
<!-- Node15 -->
<g id="node15" class="node"><title>Node15</title>
<g id="a_node15"><a xlink:href="classraft_1_1kernel.html" target="_top" xlink:title="raft::kernel">
<polygon fill="none" stroke="black" points="591.385,-154.439 591.385,-174.439 654.615,-174.439 654.615,-154.439 591.385,-154.439"/>
<text text-anchor="middle" x="623" y="-161.439" font-family="Helvetica,sans-Serif" font-size="10.00">raft::kernel</text>
</a>
</g>
</g>
<!-- Node14&#45;&gt;Node15 -->
<g id="edge18" class="edge"><title>Node14&#45;&gt;Node15</title>
<path fill="none" stroke="#9a32cd" stroke-dasharray="5,2" d="M200.487,-169.102C282.766,-168.192 508.689,-165.693 591.26,-164.779"/>
<polygon fill="#9a32cd" stroke="#9a32cd" points="200.26,-165.604 190.3,-169.215 200.338,-172.604 200.26,-165.604"/>
<text text-anchor="middle" x="359" y="-171.439" font-family="Helvetica,sans-Serif" font-size="10.00"> kernel_count</text>
</g>
<!-- Node14&#45;&gt;Node16 -->
<g id="edge22" class="edge"><title>Node14&#45;&gt;Node16</title>
<path fill="none" stroke="#9a32cd" stroke-dasharray="5,2" d="M199.645,-180.162C239.838,-194.7 310.222,-220.158 341.829,-231.59"/>
<polygon fill="#9a32cd" stroke="#9a32cd" points="200.714,-176.827 190.119,-176.717 198.333,-183.409 200.714,-176.827"/>
<text text-anchor="middle" x="257" y="-217.439" font-family="Helvetica,sans-Serif" font-size="10.00"> alloc_ptr_length</text>
</g>
<!-- Node15&#45;&gt;Node5 -->
<g id="edge17" class="edge"><title>Node15&#45;&gt;Node5</title>
<path fill="none" stroke="#9a32cd" stroke-dasharray="5,2" d="M664.833,-160.853C704.09,-158.773 764.583,-159.199 814,-175.439 825.51,-179.222 836.926,-186.888 845.1,-193.243"/>
<polygon fill="#9a32cd" stroke="#9a32cd" points="664.61,-157.36 654.841,-161.461 665.035,-164.347 664.61,-157.36"/>
<text text-anchor="middle" x="762" y="-190.439" font-family="Helvetica,sans-Serif" font-size="10.00"> my_kernel</text>
<text text-anchor="middle" x="762" y="-178.439" font-family="Helvetica,sans-Serif" font-size="10.00">other_kernel</text>
</g>
<!-- Node15&#45;&gt;Node16 -->
<g id="edge24" class="edge"><title>Node15&#45;&gt;Node16</title>
<path fill="none" stroke="#9a32cd" stroke-dasharray="5,2" d="M581.316,-172.071C566.996,-174.74 550.788,-177.743 536,-180.439 486.255,-189.508 471.492,-183.08 424,-200.439 405.678,-207.137 386.551,-218.925 374.034,-227.398"/>
<polygon fill="#9a32cd" stroke="#9a32cd" points="582.175,-175.471 591.362,-170.195 580.89,-168.59 582.175,-175.471"/>
<text text-anchor="middle" x="480" y="-203.439" font-family="Helvetica,sans-Serif" font-size="10.00"> kernel</text>
</g>
<!-- Node16&#45;&gt;Node15 -->
<g id="edge19" class="edge"><title>Node16&#45;&gt;Node15</title>
<path fill="none" stroke="#9a32cd" stroke-dasharray="5,2" d="M386.62,-241.09C423.466,-244.702 490.592,-245.933 536,-215.439 549.547,-206.342 541.164,-193.514 554,-183.439 564.607,-175.115 578.653,-170.436 591.225,-167.807"/>
<polygon fill="#9a32cd" stroke="#9a32cd" points="386.542,-237.56 376.215,-239.925 385.763,-244.516 386.542,-237.56"/>
<text text-anchor="middle" x="480" y="-258.439" font-family="Helvetica,sans-Serif" font-size="10.00"> output</text>
<text text-anchor="middle" x="480" y="-246.439" font-family="Helvetica,sans-Serif" font-size="10.00">input</text>
</g>
<!-- Node17 -->
<g id="node17" class="node"><title>Node17</title>
<g id="a_node17"><a xlink:href="class_port_base.html" target="_top" xlink:title="PortBase">
<polygon fill="none" stroke="black" points="140.439,-266.439 140.439,-286.439 197.561,-286.439 197.561,-266.439 140.439,-266.439"/>
<text text-anchor="middle" x="169" y="-273.439" font-family="Helvetica,sans-Serif" font-size="10.00">PortBase</text>
</a>
</g>
</g>
<!-- Node17&#45;&gt;Node16 -->
<g id="edge20" class="edge"><title>Node17&#45;&gt;Node16</title>
<path fill="none" stroke="midnightblue" d="M207.699,-270.069C232.335,-265.752 265.171,-259.71 294,-253.439 310.339,-249.885 328.858,-245.181 341.756,-241.794"/>
<polygon fill="midnightblue" stroke="midnightblue" points="206.931,-266.649 197.678,-271.808 208.129,-273.546 206.931,-266.649"/>
</g>
<!-- Node18 -->
<g id="node18" class="node"><title>Node18</title>
<polygon fill="none" stroke="#bfbfbf" points="136.549,-227.439 136.549,-247.439 201.451,-247.439 201.451,-227.439 136.549,-227.439"/>
<text text-anchor="middle" x="169" y="-234.439" font-family="Helvetica,sans-Serif" font-size="10.00">void *const</text>
</g>
<!-- Node18&#45;&gt;Node16 -->
<g id="edge21" class="edge"><title>Node18&#45;&gt;Node16</title>
<path fill="none" stroke="#9a32cd" stroke-dasharray="5,2" d="M211.668,-237.439C252.544,-237.439 312.799,-237.439 341.557,-237.439"/>
<polygon fill="#9a32cd" stroke="#9a32cd" points="211.467,-233.939 201.467,-237.439 211.467,-240.939 211.467,-233.939"/>
<text text-anchor="middle" x="257" y="-240.439" font-family="Helvetica,sans-Serif" font-size="10.00"> alloc_ptr</text>
</g>
<!-- Node19 -->
<g id="node19" class="node"><title>Node19</title>
<polygon fill="none" stroke="#bfbfbf" points="602.497,-232.439 602.497,-252.439 643.503,-252.439 643.503,-232.439 602.497,-232.439"/>
<text text-anchor="middle" x="623" y="-239.439" font-family="Helvetica,sans-Serif" font-size="10.00">void *</text>
</g>
<!-- Node19&#45;&gt;Node5 -->
<g id="edge25" class="edge"><title>Node19&#45;&gt;Node5</title>
<path fill="none" stroke="#9a32cd" stroke-dasharray="5,2" d="M653.861,-239.822C691.499,-236.188 758.045,-228.646 814,-216.439 819.943,-215.143 826.257,-213.429 832.163,-211.674"/>
<polygon fill="#9a32cd" stroke="#9a32cd" points="653.227,-236.366 643.598,-240.785 653.881,-243.336 653.227,-236.366"/>
<text text-anchor="middle" x="762" y="-237.439" font-family="Helvetica,sans-Serif" font-size="10.00"> existing_buffer</text>
</g>
<!-- Node20 -->
<g id="node20" class="node"><title>Node20</title>
<polygon fill="none" stroke="#bfbfbf" points="0.387,-323.439 0.387,-343.439 43.613,-343.439 43.613,-323.439 0.387,-323.439"/>
<text text-anchor="middle" x="22" y="-330.439" font-family="Helvetica,sans-Serif" font-size="10.00">mutex</text>
</g>
<!-- Node20&#45;&gt;Node1 -->
<g id="edge27" class="edge"><title>Node20&#45;&gt;Node1</title>
<path fill="none" stroke="#9a32cd" stroke-dasharray="5,2" d="M53.8157,-333.439C78.8133,-333.439 113.824,-333.439 138.47,-333.439"/>
<polygon fill="#9a32cd" stroke="#9a32cd" points="53.775,-329.939 43.775,-333.439 53.7749,-336.939 53.775,-329.939"/>
<text text-anchor="middle" x="90" y="-336.439" font-family="Helvetica,sans-Serif" font-size="10.00"> map_mutex</text>
</g>
</g>
</svg>
        <g id="navigator" transform="translate(0 0)" fill="#404254">
                <rect fill="#f2f5e9" fill-opacity="0.5" stroke="#606060" stroke-width=".5" x="0" y="0" width="60" height="60"/>
                <use id="zoomplus" xlink:href="#zoomPlus" x="17" y="9" onmousedown="handleZoom(evt,'in')"/>
                <use id="zoomminus" xlink:href="#zoomMin" x="42" y="9" onmousedown="handleZoom(evt,'out')"/>
                <use id="reset" xlink:href="#resetDef" x="30" y="36" onmousedown="handleReset()"/>
                <g id="arrowUp" xlink:href="#dirArrow" transform="translate(30 24)" onmousedown="handlePan(0,-1)">
                  <use xlink:href="#rim" fill="#404040">
                        <set attributeName="fill" to="#808080" begin="arrowUp.mouseover" end="arrowUp.mouseout"/>
                  </use>
                  <path fill="none" stroke="white" stroke-width="1.5" d="M0,-3.0v7 M-2.5,-0.5L0,-3.0L2.5,-0.5"/>
                </g>
                <g id="arrowRight" xlink:href="#dirArrow" transform="rotate(90) translate(36 -43)" onmousedown="handlePan(1,0)">
                  <use xlink:href="#rim" fill="#404040">
                        <set attributeName="fill" to="#808080" begin="arrowRight.mouseover" end="arrowRight.mouseout"/>
                  </use>
                  <path fill="none" stroke="white" stroke-width="1.5" d="M0,-3.0v7 M-2.5,-0.5L0,-3.0L2.5,-0.5"/>
                </g>
                <g id="arrowDown" xlink:href="#dirArrow" transform="rotate(180) translate(-30 -48)" onmousedown="handlePan(0,1)">
                  <use xlink:href="#rim" fill="#404040">
                        <set attributeName="fill" to="#808080" begin="arrowDown.mouseover" end="arrowDown.mouseout"/>
                  </use>
                  <path fill="none" stroke="white" stroke-width="1.5" d="M0,-3.0v7 M-2.5,-0.5L0,-3.0L2.5,-0.5"/>
                </g>
                <g id="arrowLeft" xlink:href="#dirArrow" transform="rotate(270) translate(-36 17)" onmousedown="handlePan(-1,0)">
                  <use xlink:href="#rim" fill="#404040">
                        <set attributeName="fill" to="#808080" begin="arrowLeft.mouseover" end="arrowLeft.mouseout"/>
                  </use>
                  <path fill="none" stroke="white" stroke-width="1.5" d="M0,-3.0v7 M-2.5,-0.5L0,-3.0L2.5,-0.5"/>
                </g>
        </g>
        <svg viewBox="0 0 15 15" width="100%" height="30px" preserveAspectRatio="xMaxYMin meet">
         <g id="arrow_out" transform="scale(0.3 0.3)">
          <a xlink:href="structportmap__t__coll__graph_org.svg" target="_base">
           <rect id="button" ry="5" rx="5" y="6" x="6" height="38" width="38"
                fill="#f2f5e9" fill-opacity="0.5" stroke="#606060" stroke-width="1.0"/>
           <path id="arrow"
             d="M 11.500037,31.436501 C 11.940474,20.09759 22.043105,11.32322 32.158766,21.979434 L 37.068811,17.246167 C 37.068811,17.246167 37.088388,32 37.088388,32 L 22.160133,31.978069 C 22.160133,31.978069 26.997745,27.140456 26.997745,27.140456 C 18.528582,18.264221 13.291696,25.230495 11.500037,31.436501 z"
             style="fill:#404040;"/>
          </a>
         </g>
        </svg>
</svg>
