<?xml version="1.0" encoding="UTF-8" standalone="no"?>
<!DOCTYPE svg PUBLIC "-//W3C//DTD SVG 1.1//EN"
 "http://www.w3.org/Graphics/SVG/1.1/DTD/svg11.dtd">
<!-- Generated by graphviz version 2.30.1 (20130404.1610)
 -->
<!-- Title: PortInfo::getFIFO Pages: 1 -->
<svg width="380pt" height="118pt"
 viewBox="0.00 0.00 380.00 118.00" xmlns="http://www.w3.org/2000/svg" xmlns:xlink="http://www.w3.org/1999/xlink">
<g id="graph0" class="graph" transform="scale(1 1) rotate(0) translate(4 114)">
<title>PortInfo::getFIFO</title>
<!-- Node1 -->
<g id="node1" class="node"><title>Node1</title>
<polygon fill="#bfbfbf" stroke="black" points="0.3785,-51 0.3785,-71 93.6215,-71 93.6215,-51 0.3785,-51"/>
<text text-anchor="middle" x="47" y="-58" font-family="Helvetica,sans-Serif" font-size="10.00">PortInfo::getFIFO</text>
</g>
<!-- Node2 -->
<g id="node2" class="node"><title>Node2</title>
<g id="a_node2"><a xlink:href="class_allocate.html#a143df0dcd693ee1ba72060a06aca3b8c" target="_top" xlink:title="Allocate::initialize">
<polygon fill="none" stroke="black" points="133.664,-51 133.664,-71 226.336,-71 226.336,-51 133.664,-51"/>
<text text-anchor="middle" x="180" y="-58" font-family="Helvetica,sans-Serif" font-size="10.00">Allocate::initialize</text>
</a>
</g>
</g>
<!-- Node1&#45;&gt;Node2 -->
<g id="edge1" class="edge"><title>Node1&#45;&gt;Node2</title>
<path fill="none" stroke="midnightblue" d="M103.93,-61C113.774,-61 123.912,-61 133.43,-61"/>
<polygon fill="midnightblue" stroke="midnightblue" points="103.817,-57.5001 93.8174,-61 103.817,-64.5001 103.817,-57.5001"/>
</g>
<!-- Node3 -->
<g id="node3" class="node"><title>Node3</title>
<g id="a_node3"><a xlink:href="classdynalloc.html#a2a52b86ec09bd6dd52e49062137b2e37" target="_top" xlink:title="dynalloc::run">
<polygon fill="none" stroke="black" points="282.661,-90 282.661,-110 355.339,-110 355.339,-90 282.661,-90"/>
<text text-anchor="middle" x="319" y="-97" font-family="Helvetica,sans-Serif" font-size="10.00">dynalloc::run</text>
</a>
</g>
</g>
<!-- Node1&#45;&gt;Node3 -->
<g id="edge4" class="edge"><title>Node1&#45;&gt;Node3</title>
<path fill="none" stroke="midnightblue" d="M96.7878,-73.3306C107.669,-75.7936 119.188,-78.1792 130,-80 182.759,-88.8847 244.55,-94.5635 282.482,-97.517"/>
<polygon fill="midnightblue" stroke="midnightblue" points="97.5444,-69.9133 87.0119,-71.061 95.9612,-76.7319 97.5444,-69.9133"/>
</g>
<!-- Node5 -->
<g id="node5" class="node"><title>Node5</title>
<g id="a_node5"><a xlink:href="class_partition.html#aeb39bcc732a88f06288b38e1b1c29978" target="_top" xlink:title="Partition::utilization\l_weighted">
<polygon fill="none" stroke="black" points="130.05,-0 130.05,-32 229.95,-32 229.95,-0 130.05,-0"/>
<text text-anchor="start" x="138.05" y="-19" font-family="Helvetica,sans-Serif" font-size="10.00">Partition::utilization</text>
<text text-anchor="middle" x="180" y="-7" font-family="Helvetica,sans-Serif" font-size="10.00">_weighted</text>
</a>
</g>
</g>
<!-- Node1&#45;&gt;Node5 -->
<g id="edge5" class="edge"><title>Node1&#45;&gt;Node5</title>
<path fill="none" stroke="midnightblue" d="M86.8863,-47.6421C101.117,-42.7537 117.367,-37.1717 132.216,-32.0708"/>
<polygon fill="midnightblue" stroke="midnightblue" points="85.7194,-44.3421 77.399,-50.9011 87.9936,-50.9624 85.7194,-44.3421"/>
</g>
<!-- Node2&#45;&gt;Node3 -->
<g id="edge2" class="edge"><title>Node2&#45;&gt;Node3</title>
<path fill="none" stroke="midnightblue" d="M225.955,-73.7975C244.435,-79.0581 265.517,-85.0597 282.839,-89.9906"/>
<polygon fill="midnightblue" stroke="midnightblue" points="226.857,-70.4152 216.281,-71.0435 224.94,-77.1477 226.857,-70.4152"/>
</g>
<!-- Node4 -->
<g id="node4" class="node"><title>Node4</title>
<g id="a_node4"><a xlink:href="classstdalloc.html#a60438b15948ce354b52b03ba6d975de0" target="_top" xlink:title="stdalloc::run">
<polygon fill="none" stroke="black" points="284.05,-51 284.05,-71 353.95,-71 353.95,-51 284.05,-51"/>
<text text-anchor="middle" x="319" y="-58" font-family="Helvetica,sans-Serif" font-size="10.00">stdalloc::run</text>
</a>
</g>
</g>
<!-- Node2&#45;&gt;Node4 -->
<g id="edge3" class="edge"><title>Node2&#45;&gt;Node4</title>
<path fill="none" stroke="midnightblue" d="M236.9,-61C252.808,-61 269.656,-61 283.849,-61"/>
<polygon fill="midnightblue" stroke="midnightblue" points="236.619,-57.5001 226.619,-61 236.619,-64.5001 236.619,-57.5001"/>
</g>
<!-- Node6 -->
<g id="node6" class="node"><title>Node6</title>
<g id="a_node6"><a xlink:href="classpool__schedule.html#ab67558a44404e42ba032f799c0f424a7" target="_top" xlink:title="pool_schedule::start">
<polygon fill="none" stroke="black" points="266.264,-6 266.264,-26 371.736,-26 371.736,-6 266.264,-6"/>
<text text-anchor="middle" x="319" y="-13" font-family="Helvetica,sans-Serif" font-size="10.00">pool_schedule::start</text>
</a>
</g>
</g>
<!-- Node5&#45;&gt;Node6 -->
<g id="edge6" class="edge"><title>Node5&#45;&gt;Node6</title>
<path fill="none" stroke="midnightblue" d="M240.081,-16C248.714,-16 257.551,-16 266.029,-16"/>
<polygon fill="midnightblue" stroke="midnightblue" points="240.073,-12.5001 230.073,-16 240.073,-19.5001 240.073,-12.5001"/>
</g>
</g>
</svg>
