<?xml version="1.0" encoding="UTF-8" standalone="no"?>
<!DOCTYPE svg PUBLIC "-//W3C//DTD SVG 1.1//EN"
 "http://www.w3.org/Graphics/SVG/1.1/DTD/svg11.dtd">
<!-- Generated by graphviz version 2.30.1 (20130404.1610)
 -->
<!-- Title: Buffer::Signal Pages: 1 -->
<svg width="110pt" height="100pt"
 viewBox="0.00 0.00 110.00 100.00" xmlns="http://www.w3.org/2000/svg" xmlns:xlink="http://www.w3.org/1999/xlink">
<g id="graph0" class="graph" transform="scale(1 1) rotate(0) translate(4 96)">
<title>Buffer::Signal</title>
<!-- Node1 -->
<g id="node1" class="node"><title>Node1</title>
<polygon fill="#bfbfbf" stroke="black" points="12.992,-1 12.992,-21 89.008,-21 89.008,-1 12.992,-1"/>
<text text-anchor="middle" x="51" y="-8" font-family="Helvetica,sans-Serif" font-size="10.00">Buffer::Signal</text>
</g>
<!-- Node2 -->
<g id="node2" class="node"><title>Node2</title>
<polygon fill="none" stroke="#bfbfbf" points="-0.0575,-71 -0.0575,-91 42.0575,-91 42.0575,-71 -0.0575,-71"/>
<text text-anchor="middle" x="21" y="-78" font-family="Helvetica,sans-Serif" font-size="10.00">signal</text>
</g>
<!-- Node2&#45;&gt;Node1 -->
<g id="edge1" class="edge"><title>Node2&#45;&gt;Node1</title>
<path fill="none" stroke="#9a32cd" stroke-dasharray="5,2" d="M29.2323,-61.3402C35.0178,-48.2263 42.5029,-31.2601 47.0182,-21.0255"/>
<polygon fill="#9a32cd" stroke="#9a32cd" points="25.8802,-60.2673 25.0459,-70.8292 32.2846,-63.0928 25.8802,-60.2673"/>
<text text-anchor="middle" x="45.7785" y="-43" font-family="Helvetica,sans-Serif" font-size="10.00"> sig</text>
</g>
<!-- Node3 -->
<g id="node3" class="node"><title>Node3</title>
<polygon fill="none" stroke="#bfbfbf" points="59.942,-71 59.942,-91 102.058,-91 102.058,-71 59.942,-71"/>
<text text-anchor="middle" x="81" y="-78" font-family="Helvetica,sans-Serif" font-size="10.00">size_t</text>
</g>
<!-- Node3&#45;&gt;Node1 -->
<g id="edge2" class="edge"><title>Node3&#45;&gt;Node1</title>
<path fill="none" stroke="#9a32cd" stroke-dasharray="5,2" d="M72.7677,-61.3402C66.9822,-48.2263 59.4971,-31.2601 54.9818,-21.0255"/>
<polygon fill="#9a32cd" stroke="#9a32cd" points="69.7154,-63.0928 76.9541,-70.8292 76.1198,-60.2673 69.7154,-63.0928"/>
<text text-anchor="middle" x="81.3375" y="-43" font-family="Helvetica,sans-Serif" font-size="10.00"> index</text>
</g>
</g>
</svg>
