<?xml version="1.0" encoding="UTF-8" standalone="no"?>
<!DOCTYPE svg PUBLIC "-//W3C//DTD SVG 1.1//EN"
 "http://www.w3.org/Graphics/SVG/1.1/DTD/svg11.dtd">
<!-- Generated by graphviz version 2.30.1 (20130404.1610)
 -->
<!-- Title: Blocked Pages: 1 -->
<svg width="202pt" height="112pt"
 viewBox="0.00 0.00 202.14 112.00" xmlns="http://www.w3.org/2000/svg" xmlns:xlink="http://www.w3.org/1999/xlink">
<g id="graph0" class="graph" transform="scale(1 1) rotate(0) translate(4 108)">
<title>Blocked</title>
<!-- Node1 -->
<g id="node1" class="node"><title>Node1</title>
<polygon fill="#bfbfbf" stroke="black" points="69.2175,-1 69.2175,-21 120.782,-21 120.782,-1 69.2175,-1"/>
<text text-anchor="middle" x="95" y="-8" font-family="Helvetica,sans-Serif" font-size="10.00">Blocked</text>
</g>
<!-- Node2 -->
<g id="node2" class="node"><title>Node2</title>
<polygon fill="none" stroke="#bfbfbf" points="-0.786,-83 -0.786,-103 50.786,-103 50.786,-83 -0.786,-83"/>
<text text-anchor="middle" x="25" y="-90" font-family="Helvetica,sans-Serif" font-size="10.00">uint32_t</text>
</g>
<!-- Node2&#45;&gt;Node1 -->
<g id="edge1" class="edge"><title>Node2&#45;&gt;Node1</title>
<path fill="none" stroke="#9a32cd" stroke-dasharray="5,2" d="M33.8039,-73.6663C39.4098,-63.1185 47.3389,-50.0145 56.545,-40 63.2519,-32.7042 72.1206,-26.0958 79.6508,-21.1336"/>
<polygon fill="#9a32cd" stroke="#9a32cd" points="30.5682,-72.3089 29.1751,-82.8117 36.8138,-75.47 30.5682,-72.3089"/>
<text text-anchor="middle" x="74.2275" y="-55" font-family="Helvetica,sans-Serif" font-size="10.00"> count</text>
<text text-anchor="middle" x="74.2275" y="-43" font-family="Helvetica,sans-Serif" font-size="10.00">blocked</text>
</g>
<!-- Node3 -->
<g id="node3" class="node"><title>Node3</title>
<polygon fill="none" stroke="#bfbfbf" points="69.214,-83 69.214,-103 120.786,-103 120.786,-83 69.214,-83"/>
<text text-anchor="middle" x="95" y="-90" font-family="Helvetica,sans-Serif" font-size="10.00">uint64_t</text>
</g>
<!-- Node3&#45;&gt;Node1 -->
<g id="edge2" class="edge"><title>Node3&#45;&gt;Node1</title>
<path fill="none" stroke="#9a32cd" stroke-dasharray="5,2" d="M95,-72.7099C95,-56.3291 95,-33.5497 95,-21.07"/>
<polygon fill="#9a32cd" stroke="#9a32cd" points="91.5001,-72.8229 95,-82.823 98.5001,-72.823 91.5001,-72.8229"/>
<text text-anchor="middle" x="101.388" y="-49" font-family="Helvetica,sans-Serif" font-size="10.00"> all</text>
</g>
<!-- Node4 -->
<g id="node4" class="node"><title>Node4</title>
<polygon fill="none" stroke="#bfbfbf" points="138.5,-83 138.5,-103 167.5,-103 167.5,-83 138.5,-83"/>
<text text-anchor="middle" x="152.889" y="-90" font-family="Helvetica,sans-Serif" font-size="10.00"> </text>
</g>
<!-- Node4&#45;&gt;Node1 -->
<g id="edge3" class="edge"><title>Node4&#45;&gt;Node1</title>
<path fill="none" stroke="#9a32cd" stroke-dasharray="5,2" d="M140.364,-74.5707C128.42,-58.0966 110.971,-34.0296 101.576,-21.07"/>
<polygon fill="#9a32cd" stroke="#9a32cd" points="137.643,-76.7813 146.347,-82.823 143.311,-72.6725 137.643,-76.7813"/>
<text text-anchor="middle" x="163.568" y="-49" font-family="Helvetica,sans-Serif" font-size="10.00"> __attribute__</text>
</g>
</g>
</svg>
