<?xml version="1.0" encoding="utf-8"?>
<!-- Generator: Adobe Illustrator 14.0.0, SVG Export Plug-In . SVG Version: 6.00 Build 43363)  -->
<!DOCTYPE svg PUBLIC "-//W3C//DTD SVG 1.1//EN" "http://www.w3.org/Graphics/SVG/1.1/DTD/svg11.dtd">
<svg version="1.1" id="Layer_1" xmlns="http://www.w3.org/2000/svg" xmlns:xlink="http://www.w3.org/1999/xlink" x="0px" y="0px"
	 width="400px" height="400px" viewBox="0 0 400 400" enable-background="new 0 0 400 400" xml:space="preserve">
<g transform="matrix( 1, 0, 0, 1, 0,0) ">
	<g>
		<g id="Layer0_0_FILL">
			<path fill="#C4E760" d="M261.25,235.6l7.85,4.75l16,9.5c0.168-0.064,0.27-0.115,0.301-0.147l-16.148-9.45L261.25,235.6
				 M333.25,333.2c4.967-4.968,9.6-10.067,13.9-15.3c-3.2-0.566-6.317-1.717-9.353-3.45l-43.85-25.3
				c-4.733-2.734-7.685-15.834-8.853-39.301l-16-9.5c-0.021,0.03-0.057,0.063-0.1,0.101c-3.301,2.532-6.816,4.683-10.551,6.45
				c-4.934,2.3-10.25,3.814-15.949,4.55c-5.467,0.733-11.25,0.75-17.35,0.05l5.75,74.9l-49.3-28.5l-4.15-64.551l-18.7-10.802
				l-26.9,46.65L89.2,244.6l46.85-81.147l-21.15-12.3c0,0.1,0.017,0.233,0.05,0.4c-21,10.7-33.833,14.7-38.5,12l-44-25.35
				c-2.934-1.7-5.4-3.767-7.4-6.2c-8.2,21.133-12.3,43.95-12.3,68.45c0,51.833,18.333,96.083,55,132.75s80.917,55,132.75,55
				C252.334,388.2,296.584,369.867,333.25,333.2 M367.4,263.2c3.267,1.866,5.966,4.167,8.1,6.899
				c8.5-21.469,12.75-44.686,12.75-69.649c0-51.833-18.333-96.083-55-132.75c-36.666-36.667-80.916-55-132.75-55
				c-51.833,0-96.083,18.333-132.75,55c-5.167,5.167-9.967,10.483-14.4,15.95c3,0.567,5.95,1.667,8.85,3.3l43.85,25.35
				c4.667,2.667,7.617,15.617,8.85,38.85l21.15,12.3l42.1-72.95L251,132.55c7.8,4.5,16.934,11.75,27.4,21.75
				c3.332,3.833,6.082,7.75,8.25,11.75c2.1,3.967,3.699,8.05,4.8,12.25c2,7.034,2.433,14.184,1.3,21.45
				c-1.166,7.3-3.95,14.732-8.35,22.3l-0.25,0.45c-3.334,5.8-7.2,10.783-11.603,14.95c-1.079,0.956-2.18,1.89-3.3,2.8l16.148,9.45
				c20.768-10.567,33.483-14.5,38.149-11.8L367.4,263.2 M380.4,280.1c-1-3.8-2.636-7.133-4.9-10c-2.134-2.73-4.833-5.033-8.1-6.897
				L323.549,237.9c-4.666-2.699-17.384,1.231-38.148,11.801l40.898,23.55L285.4,249.7c-0.033,0.032-0.135,0.083-0.301,0.149
				c1.166,23.467,4.115,36.564,8.851,39.301l43.85,25.3c3.033,1.733,6.15,2.884,9.353,3.45c3.833,0.666,7.767,0.449,11.8-0.65
				c7.231-1.867,12.783-6,16.647-12.4c0.076-0.197,0.159-0.396,0.25-0.6c0.225-0.518,0.489-1.05,0.803-1.6
				c0.333-0.367,0.647-0.816,0.947-1.353c0.021-0.022,0.037-0.058,0.053-0.1c0.052-0.042,0.102-0.093,0.147-0.15
				c0.033-0.1,0.084-0.183,0.15-0.25v-0.05C381.55,294.25,382.366,287.367,380.4,280.1 M24.4,96.55c-0.333,0.8-0.733,1.517-1.2,2.15
				c-0.3,0.733-0.684,1.433-1.15,2.1c-3.6,6.4-4.4,13.217-2.4,20.45c1.067,4.133,2.867,7.717,5.4,10.75c2,2.434,4.467,4.5,7.4,6.2
				l44,25.35c4.667,2.7,17.5-1.3,38.5-12c-0.034-0.167-0.05-0.3-0.05-0.4l-40.35-23.2l40.35,23.2
				c-1.233-23.233-4.183-36.183-8.85-38.85L62.2,86.95c-2.9-1.634-5.85-2.733-8.85-3.3c-4-0.767-8.117-0.583-12.35,0.55
				C33.833,86.1,28.3,90.217,24.4,96.55 M23.2,98.7c0.466-0.634,0.867-1.35,1.2-2.15c-0.133,0.2-0.267,0.4-0.4,0.6
				C23.767,97.65,23.5,98.167,23.2,98.7 M375.6,304.85c0.103-0.166,0.2-0.35,0.303-0.55l-0.053-0.05
				C375.759,304.452,375.676,304.652,375.6,304.85z"/>
		</g>
	</g>
	<g>
		
			<path id="Layer0_0_1_STROKES" fill="none" stroke="#FFFFFF" stroke-width="12" stroke-linecap="round" stroke-linejoin="round" d="
			M375.85,304.25c0.225-0.518,0.489-1.05,0.803-1.6c0.333-0.367,0.647-0.816,0.947-1.353c0.021-0.022,0.037-0.05,0.053-0.073
			c0.052-0.06,0.102-0.117,0.147-0.177c0.033-0.1,0.084-0.183,0.15-0.25v-0.05c3.6-6.5,4.416-13.383,2.45-20.648
			c-1-3.802-2.636-7.135-4.9-10c-2.134-2.732-4.833-5.033-8.1-6.899l-43.853-25.3c-4.666-2.7-17.384,1.23-38.147,11.8 M377.6,301.3
			l0.053-0.05v-0.025 M375.6,304.85c0.103-0.166,0.2-0.35,0.303-0.55l-0.053-0.05C375.759,304.452,375.676,304.652,375.6,304.85
			c-3.864,6.4-9.416,10.533-16.647,12.4c-4.033,1.1-7.967,1.316-11.8,0.65 M25.05,132c-2.533-3.033-4.333-6.617-5.4-10.75
			c-2-7.233-1.2-14.05,2.4-20.45c0.1-0.2,0.184-0.4,0.25-0.6l0.1-0.05c0.267-0.466,0.533-0.95,0.8-1.45
			c0.3-0.534,0.566-1.05,0.8-1.55c0.133-0.2,0.267-0.4,0.4-0.6C28.3,90.217,33.833,86.1,41,84.2c4.233-1.134,8.35-1.317,12.35-0.55
			c3,0.567,5.95,1.667,8.85,3.3l43.85,25.35c4.667,2.667,7.617,15.617,8.85,38.85 M285.4,249.7
			c-0.033,0.032-0.135,0.083-0.301,0.149c1.166,23.467,4.115,36.564,8.851,39.301l43.85,25.3c3.033,1.733,6.15,2.884,9.353,3.45
			 M23.2,98.7c0.466-0.634,0.867-1.35,1.2-2.15 M114.9,151.15c0,0.1,0.017,0.233,0.05,0.4c-21,10.7-33.833,14.7-38.5,12l-44-25.35
			c-2.934-1.7-5.4-3.767-7.4-6.2 M23.2,98.7c-0.3,0.733-0.684,1.433-1.15,2.1"/>
	</g>
	<g>
		<path id="Layer0_0_2_STROKES" fill="none" stroke="#FFFFFF" stroke-width="8" stroke-linejoin="round" d="M285.4,249.7
			l40.897,23.55 M114.9,151.15l21.15,12.3 M269.275,240.25l16.125,9.45 M74.55,127.95l40.35,23.2 M269,240.45l-15.675-9.5
			l-5.275-3.15 M253.325,230.95c1.759,1.022,3.518,2.057,5.274,3.1c0.881,0.521,1.764,1.036,2.648,1.55l8.023,4.65 M261.25,235.6
			l7.875,4.75l15.975,9.5"/>
	</g>
</g>
</svg>
