
<svg xmlns="http://www.w3.org/2000/svg" version="1.1" xmlns:xlink="http://www.w3.org/1999/xlink" preserveAspectRatio="none" x="0px" y="0px" width="400px" height="400px" viewBox="0 0 400 400">
<defs>
<g id="Layer0_0_FILL">
<path fill="#000000" stroke="none" d="
M 261.25 235.6
L 269.1 240.35 285.1 249.85
Q 285.35 249.75 285.4 249.7
L 269.25 240.25 261.25 235.6
M 333.25 333.2
Q 340.7 325.75 347.15 317.9 342.35 317.05 337.8 314.45
L 293.95 289.15
Q 286.85 285.05 285.1 249.85
L 269.1 240.35
Q 269.06484375 240.3978515625 269 240.45 264.05 244.25 258.45 246.9 251.05 250.35 242.5 251.45 234.3 252.55 225.15 251.5
L 230.9 326.4 181.6 297.9 177.45 233.35 158.75 222.55 131.85 269.2 89.2 244.6 136.05 163.45 114.9 151.15
Q 114.9 151.3 114.95 151.55 83.45 167.6 76.45 163.55
L 32.45 138.2
Q 28.05 135.65 25.05 132 12.75 163.7 12.75 200.45 12.75 278.2 67.75 333.2 122.75 388.2 200.5 388.2 278.25 388.2 333.25 333.2
M 367.4 263.2
Q 372.3 266 375.5 270.1 388.25 237.9 388.25 200.45 388.25 122.7 333.25 67.7 278.25 12.7 200.5 12.7 122.75 12.7 67.75 67.7 60 75.45 53.35 83.65 57.85 84.5 62.2 86.95
L 106.05 112.3
Q 113.05 116.3 114.9 151.15
L 136.05 163.45 178.15 90.5 251 132.55
Q 262.7 139.3 278.4 154.3 283.4 160.05 286.65 166.05 289.8 172 291.45 178.3 294.45 188.85 292.75 199.75 291 210.7 284.4 222.05
L 284.15 222.5
Q 279.15 231.2 272.55 237.45 270.930078125 238.884765625 269.25 240.25
L 285.4 249.7
Q 316.55 233.85 323.55 237.9
L 367.4 263.2
M 380.4 280.1
Q 378.9 274.4 375.5 270.1 372.3 266 367.4 263.2
L 323.55 237.9
Q 316.55 233.85 285.4 249.7
L 326.3 273.25 285.4 249.7
Q 285.35 249.75 285.1 249.85 286.85 285.05 293.95 289.15
L 337.8 314.45
Q 342.35 317.05 347.15 317.9 352.9 318.9 358.95 317.25 369.8 314.45 375.6 304.85 375.7130859375 304.5533203125 375.85 304.25 376.1837890625 303.475 376.65 302.65 377.15 302.1 377.6 301.3 377.6294921875 301.2626953125 377.65 301.2 377.7287109375 301.1376953125 377.8 301.05 377.85 300.9 377.95 300.8
L 377.95 300.75
Q 383.35 291 380.4 280.1
M 24.4 96.55
Q 23.9 97.75 23.2 98.7 22.75 99.8 22.05 100.8 16.65 110.4 19.65 121.25 21.25 127.45 25.05 132 28.05 135.65 32.45 138.2
L 76.45 163.55
Q 83.45 167.6 114.95 151.55 114.9 151.3 114.9 151.15
L 74.55 127.95 114.9 151.15
Q 113.05 116.3 106.05 112.3
L 62.2 86.95
Q 57.85 84.5 53.35 83.65 47.35 82.5 41 84.2 30.25 87.05 24.4 96.55
M 23.2 98.7
Q 23.9 97.75 24.4 96.55 24.2 96.85 24 97.15 23.65 97.9 23.2 98.7
M 375.6 304.85
Q 375.75 304.6 375.9 304.3
L 375.85 304.25
Q 375.7130859375 304.5533203125 375.6 304.85 Z"/>
</g>

<path id="Layer0_0_1_STROKES" stroke="#FFFFFF" stroke-width="12" stroke-linejoin="round" stroke-linecap="round" fill="none" d="
M 375.85 304.25
Q 376.1837890625 303.475 376.65 302.65 377.15 302.1 377.6 301.3 377.6294921875 301.2626953125 377.65 301.225 377.7287109375 301.1376953125 377.8 301.05 377.85 300.9 377.95 300.8
L 377.95 300.75
Q 383.35 291 380.4 280.1 378.9 274.4 375.5 270.1 372.3 266 367.4 263.2
L 323.55 237.9
Q 316.55 233.85 285.4 249.7
M 377.6 301.3
L 377.65 301.25 377.65 301.225
M 375.6 304.85
Q 375.75 304.6 375.9 304.3
L 375.85 304.25
Q 375.7130859375 304.5533203125 375.6 304.85 369.8 314.45 358.95 317.25 352.9 318.9 347.15 317.9
M 25.05 132
Q 21.25 127.45 19.65 121.25 16.65 110.4 22.05 100.8 22.2 100.5 22.3 100.2
L 22.4 100.15
Q 22.8 99.45 23.2 98.7 23.65 97.9 24 97.15 24.2 96.85 24.4 96.55 30.25 87.05 41 84.2 47.35 82.5 53.35 83.65 57.85 84.5 62.2 86.95
L 106.05 112.3
Q 113.05 116.3 114.9 151.15
M 285.4 249.7
Q 285.35 249.75 285.1 249.85 286.85 285.05 293.95 289.15
L 337.8 314.45
Q 342.35 317.05 347.15 317.9
M 23.2 98.7
Q 23.9 97.75 24.4 96.55
M 114.9 151.15
Q 114.9 151.3 114.95 151.55 83.45 167.6 76.45 163.55
L 32.45 138.2
Q 28.05 135.65 25.05 132
M 23.2 98.7
Q 22.75 99.8 22.05 100.8"/>

<path id="Layer0_0_2_STROKES" stroke="#FFFFFF" stroke-width="8" stroke-linejoin="round" stroke-linecap="butt" fill="none" d="
M 285.4 249.7
L 326.3 273.25
M 114.9 151.15
L 136.05 163.45
M 269.275 240.25
L 285.4 249.7
M 74.55 127.95
L 114.9 151.15
M 269 240.45
L 253.325 230.95 248.05 227.8
M 253.325 230.95
Q 255.964453125 232.4849609375 258.6 234.05 259.920703125 234.8287109375 261.25 235.6
L 269.275 240.25
M 261.25 235.6
L 269.125 240.35 285.1 249.85"/>
</defs>

<g transform="matrix( 1, 0, 0, 1, 0,0) ">
<use xlink:href="#Layer0_0_FILL"/>

<use xlink:href="#Layer0_0_1_STROKES"/>

<use xlink:href="#Layer0_0_2_STROKES"/>
</g>
</svg>
